G04*
G04 #@! TF.GenerationSoftware,Altium Limited,Altium Designer,18.1.7 (191)*
G04*
G04 Layer_Color=128*
%FSLAX25Y25*%
%MOIN*%
G70*
G01*
G75*
%ADD10C,0.01000*%
%ADD23R,0.04724X0.04134*%
%ADD39R,0.04724X0.04724*%
%ADD42R,0.04134X0.04724*%
%ADD44R,0.04724X0.06000*%
%ADD45R,0.06000X0.04724*%
%ADD47C,0.05118*%
%ADD97R,0.01772X0.05906*%
%ADD98R,0.05906X0.02244*%
G04:AMPARAMS|DCode=99|XSize=47.24mil|YSize=60mil|CornerRadius=0mil|HoleSize=0mil|Usage=FLASHONLY|Rotation=225.000|XOffset=0mil|YOffset=0mil|HoleType=Round|Shape=Rectangle|*
%AMROTATEDRECTD99*
4,1,4,-0.00451,0.03792,0.03792,-0.00451,0.00451,-0.03792,-0.03792,0.00451,-0.00451,0.03792,0.0*
%
%ADD99ROTATEDRECTD99*%

G04:AMPARAMS|DCode=100|XSize=41.34mil|YSize=47.24mil|CornerRadius=0mil|HoleSize=0mil|Usage=FLASHONLY|Rotation=225.000|XOffset=0mil|YOffset=0mil|HoleType=Round|Shape=Rectangle|*
%AMROTATEDRECTD100*
4,1,4,-0.00209,0.03132,0.03132,-0.00209,0.00209,-0.03132,-0.03132,0.00209,-0.00209,0.03132,0.0*
%
%ADD100ROTATEDRECTD100*%

%ADD101P,0.06681X4X270.0*%
%ADD102R,0.04724X0.04724*%
G04:AMPARAMS|DCode=103|XSize=47.24mil|YSize=60mil|CornerRadius=0mil|HoleSize=0mil|Usage=FLASHONLY|Rotation=315.000|XOffset=0mil|YOffset=0mil|HoleType=Round|Shape=Rectangle|*
%AMROTATEDRECTD103*
4,1,4,-0.03792,-0.00451,0.00451,0.03792,0.03792,0.00451,-0.00451,-0.03792,-0.03792,-0.00451,0.0*
%
%ADD103ROTATEDRECTD103*%

G36*
X935841Y181848D02*
X935899D01*
X935966Y181838D01*
X936110Y181809D01*
X936283Y181761D01*
X936456Y181694D01*
X936620Y181598D01*
X936774Y181473D01*
X936793Y181454D01*
X936831Y181405D01*
X936889Y181309D01*
X936966Y181184D01*
X937033Y181021D01*
X937091Y180829D01*
X937129Y180589D01*
X937148Y180454D01*
Y180310D01*
Y177177D01*
X936370D01*
Y180051D01*
Y180060D01*
Y180070D01*
Y180127D01*
Y180214D01*
X936360Y180310D01*
X936341Y180531D01*
X936322Y180637D01*
X936293Y180723D01*
Y180733D01*
X936274Y180762D01*
X936255Y180800D01*
X936226Y180848D01*
X936187Y180896D01*
X936139Y180954D01*
X936082Y181011D01*
X936014Y181060D01*
X936005Y181069D01*
X935976Y181079D01*
X935938Y181098D01*
X935890Y181127D01*
X935822Y181146D01*
X935736Y181165D01*
X935649Y181175D01*
X935553Y181184D01*
X935476D01*
X935380Y181165D01*
X935275Y181146D01*
X935149Y181108D01*
X935015Y181050D01*
X934871Y180964D01*
X934746Y180858D01*
X934736Y180839D01*
X934698Y180800D01*
X934650Y180723D01*
X934592Y180608D01*
X934525Y180464D01*
X934477Y180291D01*
X934438Y180079D01*
X934429Y179830D01*
Y177177D01*
X933650D01*
Y180147D01*
Y180156D01*
Y180166D01*
Y180195D01*
Y180233D01*
X933641Y180329D01*
X933631Y180435D01*
X933602Y180570D01*
X933574Y180694D01*
X933525Y180819D01*
X933458Y180925D01*
X933449Y180935D01*
X933420Y180964D01*
X933381Y181011D01*
X933314Y181060D01*
X933228Y181098D01*
X933122Y181146D01*
X932997Y181175D01*
X932843Y181184D01*
X932786D01*
X932728Y181175D01*
X932641Y181165D01*
X932555Y181146D01*
X932449Y181108D01*
X932343Y181069D01*
X932238Y181011D01*
X932228Y181002D01*
X932190Y180983D01*
X932142Y180935D01*
X932084Y180887D01*
X932017Y180810D01*
X931949Y180723D01*
X931892Y180617D01*
X931834Y180502D01*
X931824Y180483D01*
X931815Y180445D01*
X931796Y180368D01*
X931776Y180262D01*
X931748Y180127D01*
X931728Y179964D01*
X931719Y179772D01*
X931709Y179551D01*
Y177177D01*
X930931D01*
Y181752D01*
X931623D01*
Y181108D01*
X931632Y181127D01*
X931661Y181165D01*
X931709Y181223D01*
X931776Y181300D01*
X931853Y181386D01*
X931949Y181473D01*
X932065Y181569D01*
X932190Y181646D01*
X932209Y181655D01*
X932257Y181675D01*
X932334Y181713D01*
X932430Y181752D01*
X932555Y181790D01*
X932689Y181828D01*
X932853Y181848D01*
X933016Y181857D01*
X933103D01*
X933199Y181848D01*
X933314Y181828D01*
X933439Y181809D01*
X933583Y181771D01*
X933718Y181713D01*
X933843Y181646D01*
X933862Y181636D01*
X933900Y181607D01*
X933958Y181559D01*
X934025Y181492D01*
X934102Y181405D01*
X934179Y181309D01*
X934246Y181184D01*
X934304Y181050D01*
X934313Y181060D01*
X934333Y181088D01*
X934361Y181127D01*
X934400Y181175D01*
X934458Y181242D01*
X934525Y181309D01*
X934602Y181377D01*
X934688Y181454D01*
X934784Y181530D01*
X934890Y181598D01*
X935140Y181732D01*
X935275Y181780D01*
X935419Y181819D01*
X935563Y181848D01*
X935726Y181857D01*
X935793D01*
X935841Y181848D01*
D02*
G37*
G36*
X953197D02*
X953322Y181838D01*
X953476Y181819D01*
X953630Y181790D01*
X953793Y181752D01*
X953947Y181694D01*
X953956D01*
X953966Y181684D01*
X954014Y181665D01*
X954091Y181627D01*
X954177Y181588D01*
X954273Y181521D01*
X954379Y181454D01*
X954475Y181367D01*
X954552Y181271D01*
X954562Y181261D01*
X954581Y181223D01*
X954619Y181165D01*
X954667Y181088D01*
X954706Y180992D01*
X954754Y180867D01*
X954792Y180733D01*
X954831Y180579D01*
X954072Y180473D01*
Y180493D01*
X954062Y180531D01*
X954043Y180598D01*
X954014Y180675D01*
X953975Y180762D01*
X953918Y180848D01*
X953851Y180944D01*
X953764Y181021D01*
X953755Y181031D01*
X953716Y181050D01*
X953658Y181088D01*
X953582Y181127D01*
X953485Y181156D01*
X953360Y181194D01*
X953226Y181213D01*
X953063Y181223D01*
X952976D01*
X952880Y181213D01*
X952765Y181204D01*
X952640Y181175D01*
X952515Y181146D01*
X952390Y181098D01*
X952294Y181040D01*
X952284Y181031D01*
X952255Y181011D01*
X952227Y180973D01*
X952188Y180925D01*
X952140Y180867D01*
X952111Y180790D01*
X952082Y180714D01*
X952073Y180627D01*
Y180617D01*
Y180598D01*
X952082Y180570D01*
Y180531D01*
X952111Y180445D01*
X952159Y180349D01*
X952169Y180339D01*
X952178Y180329D01*
X952236Y180281D01*
X952275Y180243D01*
X952323Y180214D01*
X952390Y180175D01*
X952457Y180147D01*
X952467D01*
X952486Y180137D01*
X952524Y180127D01*
X952592Y180108D01*
X952678Y180079D01*
X952803Y180041D01*
X952957Y180002D01*
X953043Y179974D01*
X953149Y179945D01*
X953159D01*
X953187Y179935D01*
X953226Y179926D01*
X953284Y179906D01*
X953351Y179887D01*
X953428Y179868D01*
X953601Y179820D01*
X953793Y179762D01*
X953985Y179695D01*
X954158Y179637D01*
X954235Y179609D01*
X954302Y179580D01*
X954321Y179570D01*
X954360Y179551D01*
X954418Y179522D01*
X954485Y179483D01*
X954571Y179426D01*
X954658Y179349D01*
X954735Y179272D01*
X954812Y179176D01*
X954821Y179166D01*
X954840Y179128D01*
X954869Y179070D01*
X954908Y178993D01*
X954946Y178897D01*
X954975Y178782D01*
X954994Y178657D01*
X955004Y178513D01*
Y178494D01*
Y178446D01*
X954994Y178369D01*
X954975Y178282D01*
X954946Y178167D01*
X954908Y178042D01*
X954850Y177917D01*
X954773Y177783D01*
X954764Y177763D01*
X954735Y177725D01*
X954677Y177667D01*
X954600Y177590D01*
X954514Y177504D01*
X954398Y177417D01*
X954264Y177331D01*
X954110Y177254D01*
X954091Y177244D01*
X954033Y177225D01*
X953947Y177196D01*
X953831Y177167D01*
X953687Y177129D01*
X953524Y177100D01*
X953341Y177081D01*
X953149Y177071D01*
X953063D01*
X953005Y177081D01*
X952928D01*
X952841Y177091D01*
X952640Y177120D01*
X952419Y177158D01*
X952198Y177225D01*
X951977Y177312D01*
X951880Y177369D01*
X951784Y177437D01*
X951775D01*
X951765Y177456D01*
X951708Y177504D01*
X951631Y177590D01*
X951535Y177715D01*
X951439Y177869D01*
X951342Y178061D01*
X951256Y178282D01*
X951198Y178542D01*
X951967Y178667D01*
Y178657D01*
Y178647D01*
X951977Y178590D01*
X952005Y178503D01*
X952034Y178398D01*
X952082Y178282D01*
X952140Y178167D01*
X952227Y178052D01*
X952323Y177946D01*
X952332Y177936D01*
X952380Y177908D01*
X952448Y177869D01*
X952534Y177831D01*
X952659Y177783D01*
X952794Y177744D01*
X952966Y177715D01*
X953149Y177706D01*
X953236D01*
X953332Y177715D01*
X953447Y177734D01*
X953582Y177754D01*
X953716Y177792D01*
X953841Y177850D01*
X953947Y177917D01*
X953956Y177927D01*
X953985Y177956D01*
X954033Y178004D01*
X954081Y178061D01*
X954120Y178138D01*
X954168Y178234D01*
X954197Y178330D01*
X954206Y178436D01*
Y178446D01*
Y178484D01*
X954197Y178523D01*
X954177Y178590D01*
X954148Y178647D01*
X954110Y178724D01*
X954052Y178792D01*
X953975Y178849D01*
X953966Y178859D01*
X953937Y178868D01*
X953889Y178888D01*
X953812Y178926D01*
X953706Y178955D01*
X953572Y179003D01*
X953485Y179032D01*
X953399Y179051D01*
X953293Y179080D01*
X953178Y179109D01*
X953168D01*
X953139Y179118D01*
X953101Y179128D01*
X953043Y179147D01*
X952966Y179166D01*
X952890Y179186D01*
X952707Y179243D01*
X952515Y179301D01*
X952313Y179359D01*
X952130Y179426D01*
X952054Y179455D01*
X951986Y179483D01*
X951977Y179493D01*
X951929Y179512D01*
X951871Y179551D01*
X951804Y179599D01*
X951717Y179657D01*
X951640Y179733D01*
X951554Y179820D01*
X951486Y179916D01*
X951477Y179926D01*
X951458Y179964D01*
X951439Y180022D01*
X951410Y180099D01*
X951371Y180185D01*
X951352Y180291D01*
X951333Y180406D01*
X951323Y180531D01*
Y180541D01*
Y180579D01*
X951333Y180646D01*
X951342Y180714D01*
X951352Y180800D01*
X951381Y180896D01*
X951410Y181002D01*
X951458Y181098D01*
X951467Y181108D01*
X951486Y181146D01*
X951515Y181194D01*
X951563Y181252D01*
X951612Y181319D01*
X951679Y181386D01*
X951756Y181463D01*
X951842Y181530D01*
X951852Y181540D01*
X951880Y181550D01*
X951919Y181579D01*
X951977Y181607D01*
X952044Y181646D01*
X952130Y181684D01*
X952227Y181723D01*
X952332Y181761D01*
X952351D01*
X952390Y181780D01*
X952448Y181790D01*
X952534Y181809D01*
X952640Y181828D01*
X952745Y181838D01*
X952870Y181857D01*
X953091D01*
X953197Y181848D01*
D02*
G37*
G36*
X948738D02*
X948873Y181838D01*
X949026Y181819D01*
X949190Y181800D01*
X949343Y181761D01*
X949488Y181713D01*
X949507Y181703D01*
X949545Y181694D01*
X949613Y181655D01*
X949689Y181617D01*
X949776Y181569D01*
X949872Y181511D01*
X949949Y181444D01*
X950026Y181367D01*
X950035Y181358D01*
X950055Y181329D01*
X950084Y181290D01*
X950122Y181223D01*
X950160Y181146D01*
X950199Y181060D01*
X950237Y180954D01*
X950266Y180839D01*
Y180829D01*
X950276Y180800D01*
X950285Y180752D01*
X950295Y180675D01*
Y180579D01*
X950305Y180454D01*
X950314Y180310D01*
Y180127D01*
Y179089D01*
Y179080D01*
Y179042D01*
Y178984D01*
Y178917D01*
Y178830D01*
Y178734D01*
X950324Y178513D01*
Y178273D01*
X950333Y178052D01*
X950343Y177946D01*
Y177859D01*
X950352Y177783D01*
X950362Y177715D01*
Y177706D01*
X950372Y177667D01*
X950381Y177610D01*
X950401Y177542D01*
X950429Y177465D01*
X950468Y177369D01*
X950554Y177177D01*
X949747D01*
X949737Y177187D01*
X949728Y177216D01*
X949709Y177273D01*
X949680Y177340D01*
X949651Y177427D01*
X949632Y177523D01*
X949613Y177629D01*
X949593Y177754D01*
X949574Y177734D01*
X949516Y177696D01*
X949440Y177629D01*
X949324Y177552D01*
X949199Y177456D01*
X949055Y177369D01*
X948911Y177293D01*
X948757Y177225D01*
X948738Y177216D01*
X948690Y177206D01*
X948613Y177177D01*
X948507Y177148D01*
X948373Y177120D01*
X948229Y177100D01*
X948075Y177081D01*
X947902Y177071D01*
X947835D01*
X947777Y177081D01*
X947719D01*
X947643Y177091D01*
X947479Y177120D01*
X947287Y177158D01*
X947104Y177225D01*
X946912Y177312D01*
X946749Y177437D01*
X946730Y177456D01*
X946681Y177504D01*
X946624Y177581D01*
X946547Y177696D01*
X946470Y177831D01*
X946412Y177984D01*
X946364Y178177D01*
X946345Y178378D01*
Y178398D01*
Y178436D01*
X946355Y178503D01*
X946364Y178580D01*
X946384Y178676D01*
X946403Y178782D01*
X946441Y178888D01*
X946489Y178993D01*
X946499Y179003D01*
X946518Y179042D01*
X946547Y179089D01*
X946595Y179157D01*
X946653Y179224D01*
X946730Y179301D01*
X946807Y179368D01*
X946893Y179436D01*
X946903Y179445D01*
X946941Y179464D01*
X946989Y179493D01*
X947056Y179532D01*
X947143Y179580D01*
X947229Y179618D01*
X947335Y179657D01*
X947450Y179695D01*
X947460D01*
X947498Y179705D01*
X947546Y179714D01*
X947623Y179733D01*
X947719Y179753D01*
X947844Y179772D01*
X947979Y179791D01*
X948142Y179810D01*
X948152D01*
X948181Y179820D01*
X948229D01*
X948296Y179830D01*
X948373Y179839D01*
X948459Y179849D01*
X948671Y179887D01*
X948892Y179926D01*
X949123Y179964D01*
X949343Y180022D01*
X949440Y180051D01*
X949526Y180079D01*
Y180089D01*
Y180108D01*
X949536Y180166D01*
Y180233D01*
Y180262D01*
Y180281D01*
Y180291D01*
Y180300D01*
Y180358D01*
X949526Y180445D01*
X949507Y180541D01*
X949478Y180646D01*
X949440Y180762D01*
X949391Y180858D01*
X949315Y180944D01*
X949305Y180954D01*
X949257Y180983D01*
X949190Y181031D01*
X949094Y181079D01*
X948969Y181127D01*
X948815Y181175D01*
X948632Y181204D01*
X948431Y181213D01*
X948344D01*
X948248Y181204D01*
X948123Y181194D01*
X947989Y181165D01*
X947864Y181137D01*
X947729Y181088D01*
X947623Y181021D01*
X947614Y181011D01*
X947585Y180983D01*
X947537Y180935D01*
X947479Y180867D01*
X947412Y180771D01*
X947354Y180656D01*
X947287Y180512D01*
X947239Y180349D01*
X946480Y180454D01*
Y180464D01*
X946489Y180473D01*
X946499Y180531D01*
X946528Y180617D01*
X946557Y180733D01*
X946605Y180858D01*
X946662Y180983D01*
X946730Y181117D01*
X946816Y181233D01*
X946826Y181242D01*
X946864Y181281D01*
X946912Y181338D01*
X946989Y181405D01*
X947085Y181473D01*
X947210Y181550D01*
X947345Y181627D01*
X947498Y181694D01*
X947508D01*
X947518Y181703D01*
X947546Y181713D01*
X947575Y181723D01*
X947671Y181742D01*
X947796Y181780D01*
X947950Y181809D01*
X948123Y181828D01*
X948325Y181848D01*
X948536Y181857D01*
X948632D01*
X948738Y181848D01*
D02*
G37*
G36*
X943558Y183481D02*
X943712Y183472D01*
X943875Y183462D01*
X944029Y183443D01*
X944164Y183424D01*
X944183D01*
X944241Y183404D01*
X944327Y183385D01*
X944433Y183356D01*
X944558Y183318D01*
X944683Y183270D01*
X944817Y183203D01*
X944942Y183126D01*
X944952Y183116D01*
X945000Y183087D01*
X945057Y183039D01*
X945125Y182972D01*
X945202Y182886D01*
X945288Y182780D01*
X945375Y182665D01*
X945451Y182520D01*
X945461Y182501D01*
X945480Y182453D01*
X945509Y182376D01*
X945548Y182271D01*
X945586Y182146D01*
X945615Y182001D01*
X945634Y181838D01*
X945644Y181665D01*
Y181655D01*
Y181627D01*
Y181588D01*
X945634Y181530D01*
X945624Y181463D01*
X945615Y181377D01*
X945605Y181290D01*
X945576Y181194D01*
X945519Y180973D01*
X945423Y180752D01*
X945365Y180637D01*
X945298Y180521D01*
X945221Y180406D01*
X945125Y180300D01*
X945115Y180291D01*
X945096Y180281D01*
X945067Y180252D01*
X945029Y180214D01*
X944961Y180175D01*
X944894Y180127D01*
X944808Y180079D01*
X944702Y180031D01*
X944586Y179974D01*
X944452Y179926D01*
X944298Y179878D01*
X944135Y179839D01*
X943943Y179801D01*
X943741Y179772D01*
X943520Y179762D01*
X943280Y179753D01*
X941665D01*
Y177177D01*
X940829D01*
Y183491D01*
X943414D01*
X943558Y183481D01*
D02*
G37*
G36*
X912960D02*
X913027D01*
X913191Y183472D01*
X913373Y183443D01*
X913566Y183414D01*
X913758Y183366D01*
X913931Y183299D01*
X913940D01*
X913950Y183289D01*
X914007Y183260D01*
X914084Y183212D01*
X914180Y183155D01*
X914296Y183068D01*
X914411Y182962D01*
X914517Y182847D01*
X914623Y182703D01*
X914632Y182684D01*
X914661Y182636D01*
X914699Y182549D01*
X914748Y182443D01*
X914796Y182318D01*
X914834Y182184D01*
X914863Y182030D01*
X914872Y181867D01*
Y181848D01*
Y181800D01*
X914863Y181723D01*
X914844Y181617D01*
X914815Y181502D01*
X914776Y181377D01*
X914728Y181233D01*
X914651Y181098D01*
X914642Y181079D01*
X914613Y181040D01*
X914555Y180973D01*
X914488Y180896D01*
X914392Y180800D01*
X914277Y180714D01*
X914142Y180617D01*
X913979Y180531D01*
X913988D01*
X914007Y180521D01*
X914036Y180512D01*
X914075Y180502D01*
X914180Y180454D01*
X914305Y180396D01*
X914450Y180310D01*
X914594Y180214D01*
X914738Y180099D01*
X914863Y179954D01*
X914872Y179935D01*
X914911Y179887D01*
X914959Y179801D01*
X915026Y179685D01*
X915084Y179541D01*
X915132Y179387D01*
X915170Y179205D01*
X915180Y179003D01*
Y178984D01*
Y178926D01*
X915170Y178840D01*
X915161Y178734D01*
X915132Y178609D01*
X915103Y178465D01*
X915055Y178321D01*
X914988Y178177D01*
X914978Y178157D01*
X914959Y178109D01*
X914911Y178042D01*
X914863Y177956D01*
X914796Y177859D01*
X914719Y177763D01*
X914623Y177667D01*
X914526Y177581D01*
X914517Y177571D01*
X914478Y177552D01*
X914421Y177514D01*
X914334Y177465D01*
X914238Y177417D01*
X914113Y177369D01*
X913979Y177321D01*
X913834Y177273D01*
X913815D01*
X913758Y177254D01*
X913671Y177244D01*
X913556Y177225D01*
X913402Y177206D01*
X913229Y177196D01*
X913037Y177177D01*
X910413D01*
Y183491D01*
X912893D01*
X912960Y183481D01*
D02*
G37*
G36*
X956830Y181752D02*
X957608D01*
Y181146D01*
X956830D01*
Y178465D01*
Y178455D01*
Y178417D01*
Y178359D01*
X956839Y178292D01*
X956849Y178148D01*
X956859Y178090D01*
X956868Y178042D01*
X956878Y178023D01*
X956897Y177984D01*
X956935Y177936D01*
X956993Y177888D01*
X957012Y177879D01*
X957060Y177869D01*
X957147Y177850D01*
X957262Y177840D01*
X957358D01*
X957406Y177850D01*
X957464D01*
X957608Y177869D01*
X957714Y177187D01*
X957695D01*
X957656Y177177D01*
X957598Y177167D01*
X957512Y177158D01*
X957425Y177139D01*
X957329Y177129D01*
X957128Y177120D01*
X957060D01*
X956983Y177129D01*
X956887Y177139D01*
X956782Y177148D01*
X956666Y177177D01*
X956561Y177206D01*
X956464Y177244D01*
X956455Y177254D01*
X956426Y177273D01*
X956388Y177302D01*
X956340Y177340D01*
X956282Y177389D01*
X956234Y177446D01*
X956176Y177514D01*
X956138Y177590D01*
Y177600D01*
X956128Y177638D01*
X956109Y177696D01*
X956099Y177792D01*
X956080Y177917D01*
X956071Y177984D01*
X956061Y178071D01*
Y178167D01*
X956051Y178273D01*
Y178388D01*
Y178513D01*
Y181146D01*
X955475D01*
Y181752D01*
X956051D01*
Y182876D01*
X956830Y183347D01*
Y181752D01*
D02*
G37*
G36*
X924492D02*
X925270D01*
Y181146D01*
X924492D01*
Y178465D01*
Y178455D01*
Y178417D01*
Y178359D01*
X924502Y178292D01*
X924511Y178148D01*
X924521Y178090D01*
X924531Y178042D01*
X924540Y178023D01*
X924559Y177984D01*
X924598Y177936D01*
X924655Y177888D01*
X924675Y177879D01*
X924723Y177869D01*
X924809Y177850D01*
X924924Y177840D01*
X925021D01*
X925069Y177850D01*
X925126D01*
X925270Y177869D01*
X925376Y177187D01*
X925357D01*
X925319Y177177D01*
X925261Y177167D01*
X925174Y177158D01*
X925088Y177139D01*
X924992Y177129D01*
X924790Y177120D01*
X924723D01*
X924646Y177129D01*
X924550Y177139D01*
X924444Y177148D01*
X924329Y177177D01*
X924223Y177206D01*
X924127Y177244D01*
X924117Y177254D01*
X924088Y177273D01*
X924050Y177302D01*
X924002Y177340D01*
X923944Y177389D01*
X923896Y177446D01*
X923839Y177514D01*
X923800Y177590D01*
Y177600D01*
X923790Y177638D01*
X923771Y177696D01*
X923762Y177792D01*
X923742Y177917D01*
X923733Y177984D01*
X923723Y178071D01*
Y178167D01*
X923714Y178273D01*
Y178388D01*
Y178513D01*
Y181146D01*
X923137D01*
Y181752D01*
X923714D01*
Y182876D01*
X924492Y183347D01*
Y181752D01*
D02*
G37*
G36*
X922042D02*
X922820D01*
Y181146D01*
X922042D01*
Y178465D01*
Y178455D01*
Y178417D01*
Y178359D01*
X922051Y178292D01*
X922061Y178148D01*
X922070Y178090D01*
X922080Y178042D01*
X922089Y178023D01*
X922109Y177984D01*
X922147Y177936D01*
X922205Y177888D01*
X922224Y177879D01*
X922272Y177869D01*
X922359Y177850D01*
X922474Y177840D01*
X922570D01*
X922618Y177850D01*
X922676D01*
X922820Y177869D01*
X922926Y177187D01*
X922906D01*
X922868Y177177D01*
X922810Y177167D01*
X922724Y177158D01*
X922637Y177139D01*
X922541Y177129D01*
X922339Y177120D01*
X922272D01*
X922195Y177129D01*
X922099Y177139D01*
X921993Y177148D01*
X921878Y177177D01*
X921772Y177206D01*
X921676Y177244D01*
X921667Y177254D01*
X921638Y177273D01*
X921599Y177302D01*
X921551Y177340D01*
X921494Y177389D01*
X921446Y177446D01*
X921388Y177514D01*
X921350Y177590D01*
Y177600D01*
X921340Y177638D01*
X921321Y177696D01*
X921311Y177792D01*
X921292Y177917D01*
X921282Y177984D01*
X921273Y178071D01*
Y178167D01*
X921263Y178273D01*
Y178388D01*
Y178513D01*
Y181146D01*
X920687D01*
Y181752D01*
X921263D01*
Y182876D01*
X922042Y183347D01*
Y181752D01*
D02*
G37*
G36*
X960395Y181848D02*
X960472Y181838D01*
X960568Y181828D01*
X960664Y181809D01*
X960779Y181780D01*
X961010Y181703D01*
X961135Y181655D01*
X961260Y181588D01*
X961385Y181521D01*
X961510Y181434D01*
X961625Y181338D01*
X961740Y181223D01*
X961750Y181213D01*
X961769Y181194D01*
X961798Y181156D01*
X961837Y181108D01*
X961875Y181040D01*
X961923Y180964D01*
X961981Y180877D01*
X962038Y180771D01*
X962086Y180646D01*
X962144Y180521D01*
X962192Y180377D01*
X962240Y180214D01*
X962269Y180051D01*
X962298Y179868D01*
X962317Y179676D01*
X962327Y179464D01*
Y179455D01*
Y179416D01*
Y179349D01*
X962317Y179262D01*
X958915D01*
Y179253D01*
Y179234D01*
X958925Y179186D01*
Y179138D01*
X958934Y179070D01*
X958944Y179003D01*
X958982Y178830D01*
X959040Y178647D01*
X959107Y178455D01*
X959213Y178263D01*
X959338Y178100D01*
X959357Y178080D01*
X959405Y178042D01*
X959492Y177975D01*
X959597Y177908D01*
X959741Y177831D01*
X959905Y177763D01*
X960087Y177725D01*
X960289Y177706D01*
X960366D01*
X960443Y177715D01*
X960539Y177734D01*
X960655Y177763D01*
X960779Y177802D01*
X960904Y177850D01*
X961020Y177927D01*
X961029Y177936D01*
X961068Y177975D01*
X961125Y178023D01*
X961193Y178109D01*
X961269Y178205D01*
X961346Y178330D01*
X961423Y178484D01*
X961500Y178657D01*
X962298Y178551D01*
Y178542D01*
X962288Y178523D01*
X962279Y178484D01*
X962259Y178436D01*
X962240Y178378D01*
X962211Y178311D01*
X962134Y178148D01*
X962038Y177975D01*
X961923Y177792D01*
X961769Y177610D01*
X961596Y177456D01*
X961587D01*
X961577Y177437D01*
X961548Y177417D01*
X961500Y177398D01*
X961452Y177369D01*
X961394Y177331D01*
X961327Y177302D01*
X961241Y177264D01*
X961058Y177196D01*
X960827Y177129D01*
X960578Y177091D01*
X960289Y177071D01*
X960193D01*
X960126Y177081D01*
X960039Y177091D01*
X959943Y177100D01*
X959838Y177120D01*
X959713Y177148D01*
X959463Y177225D01*
X959328Y177273D01*
X959203Y177331D01*
X959069Y177398D01*
X958944Y177485D01*
X958819Y177581D01*
X958704Y177687D01*
X958694Y177696D01*
X958675Y177715D01*
X958646Y177754D01*
X958617Y177802D01*
X958569Y177859D01*
X958521Y177936D01*
X958463Y178032D01*
X958415Y178138D01*
X958358Y178253D01*
X958300Y178378D01*
X958252Y178523D01*
X958214Y178676D01*
X958175Y178840D01*
X958146Y179022D01*
X958127Y179215D01*
X958117Y179416D01*
Y179426D01*
Y179464D01*
Y179532D01*
X958127Y179609D01*
X958137Y179705D01*
X958146Y179820D01*
X958165Y179945D01*
X958194Y180079D01*
X958262Y180368D01*
X958310Y180512D01*
X958367Y180666D01*
X958435Y180810D01*
X958511Y180954D01*
X958598Y181088D01*
X958704Y181213D01*
X958713Y181223D01*
X958733Y181242D01*
X958761Y181271D01*
X958809Y181319D01*
X958867Y181367D01*
X958944Y181415D01*
X959021Y181473D01*
X959117Y181540D01*
X959223Y181598D01*
X959338Y181655D01*
X959463Y181703D01*
X959607Y181761D01*
X959751Y181800D01*
X959905Y181828D01*
X960068Y181848D01*
X960241Y181857D01*
X960328D01*
X960395Y181848D01*
D02*
G37*
G36*
X928038D02*
X928125Y181838D01*
X928211Y181828D01*
X928317Y181809D01*
X928432Y181780D01*
X928672Y181703D01*
X928797Y181655D01*
X928932Y181598D01*
X929057Y181521D01*
X929182Y181434D01*
X929307Y181338D01*
X929422Y181233D01*
X929432Y181223D01*
X929451Y181204D01*
X929480Y181165D01*
X929518Y181117D01*
X929566Y181060D01*
X929614Y180983D01*
X929672Y180887D01*
X929729Y180790D01*
X929778Y180675D01*
X929835Y180541D01*
X929883Y180406D01*
X929931Y180252D01*
X929970Y180089D01*
X929999Y179906D01*
X930018Y179724D01*
X930027Y179522D01*
Y179512D01*
Y179483D01*
Y179436D01*
Y179378D01*
X930018Y179301D01*
Y179215D01*
X930008Y179118D01*
X929999Y179013D01*
X929960Y178792D01*
X929912Y178561D01*
X929845Y178330D01*
X929758Y178129D01*
Y178119D01*
X929749Y178109D01*
X929710Y178042D01*
X929643Y177956D01*
X929556Y177840D01*
X929451Y177715D01*
X929316Y177590D01*
X929163Y177465D01*
X928980Y177350D01*
X928970D01*
X928961Y177340D01*
X928932Y177321D01*
X928893Y177312D01*
X928788Y177264D01*
X928653Y177216D01*
X928490Y177158D01*
X928307Y177120D01*
X928105Y177081D01*
X927884Y177071D01*
X927788D01*
X927721Y177081D01*
X927644Y177091D01*
X927548Y177100D01*
X927442Y177120D01*
X927327Y177148D01*
X927087Y177225D01*
X926952Y177273D01*
X926827Y177331D01*
X926693Y177398D01*
X926568Y177485D01*
X926443Y177581D01*
X926328Y177687D01*
X926318Y177696D01*
X926299Y177715D01*
X926270Y177754D01*
X926241Y177802D01*
X926193Y177869D01*
X926145Y177946D01*
X926087Y178032D01*
X926039Y178138D01*
X925982Y178263D01*
X925924Y178388D01*
X925876Y178542D01*
X925837Y178695D01*
X925799Y178868D01*
X925770Y179051D01*
X925751Y179253D01*
X925741Y179464D01*
Y179483D01*
Y179522D01*
X925751Y179589D01*
Y179676D01*
X925761Y179781D01*
X925780Y179897D01*
X925799Y180031D01*
X925828Y180175D01*
X925866Y180329D01*
X925914Y180483D01*
X925972Y180637D01*
X926039Y180790D01*
X926116Y180944D01*
X926212Y181088D01*
X926318Y181223D01*
X926443Y181348D01*
X926453Y181358D01*
X926472Y181367D01*
X926501Y181396D01*
X926549Y181425D01*
X926606Y181463D01*
X926674Y181511D01*
X926750Y181559D01*
X926847Y181607D01*
X926943Y181646D01*
X927048Y181694D01*
X927298Y181780D01*
X927577Y181838D01*
X927731Y181848D01*
X927884Y181857D01*
X927971D01*
X928038Y181848D01*
D02*
G37*
G36*
X918236D02*
X918322Y181838D01*
X918409Y181828D01*
X918515Y181809D01*
X918630Y181780D01*
X918870Y181703D01*
X918995Y181655D01*
X919130Y181598D01*
X919255Y181521D01*
X919380Y181434D01*
X919504Y181338D01*
X919620Y181233D01*
X919629Y181223D01*
X919649Y181204D01*
X919677Y181165D01*
X919716Y181117D01*
X919764Y181060D01*
X919812Y180983D01*
X919870Y180887D01*
X919927Y180790D01*
X919975Y180675D01*
X920033Y180541D01*
X920081Y180406D01*
X920129Y180252D01*
X920168Y180089D01*
X920196Y179906D01*
X920216Y179724D01*
X920225Y179522D01*
Y179512D01*
Y179483D01*
Y179436D01*
Y179378D01*
X920216Y179301D01*
Y179215D01*
X920206Y179118D01*
X920196Y179013D01*
X920158Y178792D01*
X920110Y178561D01*
X920043Y178330D01*
X919956Y178129D01*
Y178119D01*
X919946Y178109D01*
X919908Y178042D01*
X919841Y177956D01*
X919754Y177840D01*
X919649Y177715D01*
X919514Y177590D01*
X919360Y177465D01*
X919178Y177350D01*
X919168D01*
X919158Y177340D01*
X919130Y177321D01*
X919091Y177312D01*
X918985Y177264D01*
X918851Y177216D01*
X918688Y177158D01*
X918505Y177120D01*
X918303Y177081D01*
X918082Y177071D01*
X917986D01*
X917919Y177081D01*
X917842Y177091D01*
X917746Y177100D01*
X917640Y177120D01*
X917525Y177148D01*
X917284Y177225D01*
X917150Y177273D01*
X917025Y177331D01*
X916891Y177398D01*
X916766Y177485D01*
X916641Y177581D01*
X916525Y177687D01*
X916516Y177696D01*
X916496Y177715D01*
X916468Y177754D01*
X916439Y177802D01*
X916391Y177869D01*
X916343Y177946D01*
X916285Y178032D01*
X916237Y178138D01*
X916179Y178263D01*
X916122Y178388D01*
X916074Y178542D01*
X916035Y178695D01*
X915997Y178868D01*
X915968Y179051D01*
X915949Y179253D01*
X915939Y179464D01*
Y179483D01*
Y179522D01*
X915949Y179589D01*
Y179676D01*
X915958Y179781D01*
X915978Y179897D01*
X915997Y180031D01*
X916026Y180175D01*
X916064Y180329D01*
X916112Y180483D01*
X916170Y180637D01*
X916237Y180790D01*
X916314Y180944D01*
X916410Y181088D01*
X916516Y181223D01*
X916641Y181348D01*
X916650Y181358D01*
X916669Y181367D01*
X916698Y181396D01*
X916746Y181425D01*
X916804Y181463D01*
X916871Y181511D01*
X916948Y181559D01*
X917044Y181607D01*
X917140Y181646D01*
X917246Y181694D01*
X917496Y181780D01*
X917775Y181838D01*
X917928Y181848D01*
X918082Y181857D01*
X918169D01*
X918236Y181848D01*
D02*
G37*
%LPC*%
G36*
X949526Y179474D02*
X949507Y179464D01*
X949478Y179455D01*
X949449Y179445D01*
X949401Y179426D01*
X949343Y179416D01*
X949286Y179397D01*
X949209Y179368D01*
X949123Y179349D01*
X949026Y179330D01*
X948930Y179301D01*
X948815Y179272D01*
X948690Y179253D01*
X948555Y179224D01*
X948411Y179205D01*
X948258Y179176D01*
X948238D01*
X948181Y179166D01*
X948094Y179147D01*
X947989Y179128D01*
X947768Y179080D01*
X947662Y179051D01*
X947575Y179022D01*
X947566D01*
X947546Y179003D01*
X947508Y178984D01*
X947470Y178955D01*
X947373Y178878D01*
X947277Y178763D01*
Y178753D01*
X947258Y178734D01*
X947248Y178705D01*
X947229Y178657D01*
X947191Y178542D01*
X947181Y178474D01*
X947172Y178398D01*
Y178388D01*
Y178350D01*
X947181Y178292D01*
X947200Y178215D01*
X947229Y178138D01*
X947268Y178052D01*
X947325Y177965D01*
X947402Y177879D01*
X947412Y177869D01*
X947450Y177850D01*
X947498Y177811D01*
X947575Y177783D01*
X947671Y177744D01*
X947796Y177706D01*
X947931Y177687D01*
X948094Y177677D01*
X948171D01*
X948248Y177687D01*
X948363Y177706D01*
X948479Y177725D01*
X948613Y177754D01*
X948748Y177802D01*
X948882Y177869D01*
X948901Y177879D01*
X948940Y177908D01*
X949007Y177946D01*
X949084Y178013D01*
X949161Y178080D01*
X949247Y178177D01*
X949334Y178282D01*
X949401Y178407D01*
X949411Y178417D01*
X949420Y178455D01*
X949440Y178513D01*
X949468Y178599D01*
X949488Y178715D01*
X949507Y178849D01*
X949516Y179003D01*
X949526Y179186D01*
Y179474D01*
D02*
G37*
G36*
X943462Y182751D02*
X941665D01*
Y180493D01*
X943366D01*
X943424Y180502D01*
X943491D01*
X943558Y180512D01*
X943731Y180531D01*
X943923Y180570D01*
X944116Y180617D01*
X944289Y180694D01*
X944366Y180743D01*
X944433Y180790D01*
X944452Y180800D01*
X944491Y180848D01*
X944538Y180915D01*
X944606Y181011D01*
X944673Y181127D01*
X944721Y181271D01*
X944759Y181444D01*
X944779Y181636D01*
Y181655D01*
Y181703D01*
X944769Y181780D01*
X944750Y181876D01*
X944731Y181982D01*
X944692Y182097D01*
X944644Y182213D01*
X944577Y182318D01*
X944567Y182328D01*
X944538Y182367D01*
X944500Y182415D01*
X944433Y182472D01*
X944356Y182530D01*
X944269Y182597D01*
X944164Y182645D01*
X944048Y182693D01*
X944039D01*
X944010Y182703D01*
X943952Y182712D01*
X943875Y182722D01*
X943770Y182732D01*
X943635Y182741D01*
X943462Y182751D01*
D02*
G37*
G36*
X912739D02*
X911250D01*
Y180829D01*
X912797D01*
X912912Y180839D01*
X913046Y180848D01*
X913181Y180858D01*
X913296Y180877D01*
X913402Y180896D01*
X913412Y180906D01*
X913450Y180915D01*
X913508Y180935D01*
X913585Y180973D01*
X913662Y181011D01*
X913739Y181069D01*
X913815Y181137D01*
X913883Y181213D01*
X913892Y181223D01*
X913911Y181252D01*
X913931Y181300D01*
X913969Y181367D01*
X913998Y181444D01*
X914017Y181540D01*
X914036Y181646D01*
X914046Y181771D01*
Y181780D01*
Y181828D01*
X914036Y181886D01*
X914027Y181963D01*
X914007Y182049D01*
X913979Y182136D01*
X913940Y182232D01*
X913892Y182328D01*
X913883Y182338D01*
X913863Y182367D01*
X913825Y182405D01*
X913777Y182463D01*
X913719Y182511D01*
X913642Y182568D01*
X913556Y182616D01*
X913460Y182655D01*
X913450D01*
X913402Y182674D01*
X913335Y182684D01*
X913239Y182703D01*
X913104Y182722D01*
X912941Y182732D01*
X912739Y182751D01*
D02*
G37*
G36*
X912912Y180089D02*
X911250D01*
Y177917D01*
X913037D01*
X913229Y177927D01*
X913316Y177936D01*
X913383Y177946D01*
X913393D01*
X913431Y177956D01*
X913489Y177965D01*
X913556Y177984D01*
X913710Y178032D01*
X913863Y178109D01*
X913873Y178119D01*
X913902Y178129D01*
X913931Y178157D01*
X913979Y178205D01*
X914036Y178253D01*
X914084Y178311D01*
X914142Y178388D01*
X914190Y178465D01*
X914200Y178474D01*
X914209Y178503D01*
X914229Y178551D01*
X914257Y178619D01*
X914277Y178695D01*
X914296Y178792D01*
X914305Y178888D01*
X914315Y179003D01*
Y179022D01*
Y179061D01*
X914305Y179128D01*
X914296Y179205D01*
X914267Y179301D01*
X914238Y179407D01*
X914190Y179512D01*
X914123Y179609D01*
X914113Y179618D01*
X914094Y179657D01*
X914046Y179695D01*
X913988Y179753D01*
X913921Y179820D01*
X913834Y179878D01*
X913739Y179935D01*
X913623Y179983D01*
X913604Y179993D01*
X913566Y180002D01*
X913489Y180022D01*
X913393Y180041D01*
X913258Y180060D01*
X913104Y180070D01*
X912912Y180089D01*
D02*
G37*
G36*
X960251Y181223D02*
X960203D01*
X960164Y181213D01*
X960059Y181204D01*
X959934Y181175D01*
X959790Y181137D01*
X959645Y181069D01*
X959492Y180983D01*
X959348Y180858D01*
X959328Y180839D01*
X959290Y180790D01*
X959232Y180714D01*
X959165Y180598D01*
X959098Y180464D01*
X959030Y180300D01*
X958982Y180108D01*
X958953Y179897D01*
X961510D01*
Y179906D01*
Y179926D01*
X961500Y179954D01*
Y179993D01*
X961481Y180099D01*
X961452Y180224D01*
X961414Y180358D01*
X961356Y180502D01*
X961298Y180646D01*
X961212Y180762D01*
Y180771D01*
X961193Y180781D01*
X961145Y180839D01*
X961058Y180906D01*
X960952Y180992D01*
X960808Y181079D01*
X960645Y181156D01*
X960462Y181204D01*
X960357Y181213D01*
X960251Y181223D01*
D02*
G37*
G36*
X927990Y181213D02*
X927827D01*
X927788Y181204D01*
X927683Y181194D01*
X927548Y181156D01*
X927394Y181108D01*
X927231Y181031D01*
X927067Y180915D01*
X926991Y180848D01*
X926914Y180771D01*
X926894Y180752D01*
X926875Y180723D01*
X926856Y180694D01*
X926827Y180646D01*
X926798Y180589D01*
X926760Y180521D01*
X926731Y180445D01*
X926693Y180358D01*
X926654Y180262D01*
X926626Y180156D01*
X926597Y180031D01*
X926577Y179906D01*
X926558Y179762D01*
X926539Y179618D01*
Y179455D01*
Y179445D01*
Y179416D01*
Y179368D01*
X926549Y179311D01*
Y179243D01*
X926558Y179157D01*
X926587Y178965D01*
X926635Y178753D01*
X926693Y178532D01*
X926789Y178321D01*
X926847Y178225D01*
X926914Y178138D01*
X926933Y178119D01*
X926981Y178071D01*
X927067Y178004D01*
X927183Y177927D01*
X927317Y177840D01*
X927490Y177773D01*
X927673Y177725D01*
X927779Y177715D01*
X927884Y177706D01*
X927942D01*
X927981Y177715D01*
X928086Y177725D01*
X928221Y177763D01*
X928374Y177811D01*
X928538Y177888D01*
X928692Y177994D01*
X928769Y178061D01*
X928845Y178138D01*
Y178148D01*
X928865Y178157D01*
X928884Y178186D01*
X928903Y178225D01*
X928932Y178273D01*
X928970Y178330D01*
X928999Y178398D01*
X929038Y178474D01*
X929076Y178561D01*
X929105Y178657D01*
X929143Y178772D01*
X929172Y178897D01*
X929191Y179022D01*
X929210Y179166D01*
X929230Y179320D01*
Y179483D01*
Y179493D01*
Y179522D01*
Y179560D01*
X929220Y179628D01*
Y179695D01*
X929210Y179772D01*
X929182Y179964D01*
X929134Y180166D01*
X929066Y180387D01*
X928970Y180589D01*
X928836Y180771D01*
Y180781D01*
X928817Y180790D01*
X928769Y180839D01*
X928682Y180915D01*
X928576Y180992D01*
X928432Y181069D01*
X928269Y181146D01*
X928086Y181194D01*
X927990Y181213D01*
D02*
G37*
G36*
X918188D02*
X918025D01*
X917986Y181204D01*
X917880Y181194D01*
X917746Y181156D01*
X917592Y181108D01*
X917429Y181031D01*
X917265Y180915D01*
X917188Y180848D01*
X917112Y180771D01*
X917092Y180752D01*
X917073Y180723D01*
X917054Y180694D01*
X917025Y180646D01*
X916996Y180589D01*
X916958Y180521D01*
X916929Y180445D01*
X916891Y180358D01*
X916852Y180262D01*
X916823Y180156D01*
X916794Y180031D01*
X916775Y179906D01*
X916756Y179762D01*
X916737Y179618D01*
Y179455D01*
Y179445D01*
Y179416D01*
Y179368D01*
X916746Y179311D01*
Y179243D01*
X916756Y179157D01*
X916785Y178965D01*
X916833Y178753D01*
X916891Y178532D01*
X916987Y178321D01*
X917044Y178225D01*
X917112Y178138D01*
X917131Y178119D01*
X917179Y178071D01*
X917265Y178004D01*
X917381Y177927D01*
X917515Y177840D01*
X917688Y177773D01*
X917871Y177725D01*
X917976Y177715D01*
X918082Y177706D01*
X918140D01*
X918178Y177715D01*
X918284Y177725D01*
X918419Y177763D01*
X918572Y177811D01*
X918736Y177888D01*
X918889Y177994D01*
X918966Y178061D01*
X919043Y178138D01*
Y178148D01*
X919062Y178157D01*
X919082Y178186D01*
X919101Y178225D01*
X919130Y178273D01*
X919168Y178330D01*
X919197Y178398D01*
X919235Y178474D01*
X919274Y178561D01*
X919303Y178657D01*
X919341Y178772D01*
X919370Y178897D01*
X919389Y179022D01*
X919408Y179166D01*
X919428Y179320D01*
Y179483D01*
Y179493D01*
Y179522D01*
Y179560D01*
X919418Y179628D01*
Y179695D01*
X919408Y179772D01*
X919380Y179964D01*
X919331Y180166D01*
X919264Y180387D01*
X919168Y180589D01*
X919034Y180771D01*
Y180781D01*
X919014Y180790D01*
X918966Y180839D01*
X918880Y180915D01*
X918774Y180992D01*
X918630Y181069D01*
X918467Y181146D01*
X918284Y181194D01*
X918188Y181213D01*
D02*
G37*
%LPD*%
D10*
X276626Y672654D02*
G03*
X261531Y656264I435J-15546D01*
G01*
X561803Y665073D02*
G03*
X550626Y672654I-11018J-4215D01*
G01*
X563022Y661886D02*
G03*
X573076Y654642I10532J4019D01*
G01*
X623365Y641708D02*
G03*
X610925Y654642I-12687J247D01*
G01*
X609075Y337545D02*
G03*
X623365Y351914I30J14260D01*
G01*
X577417Y337545D02*
G03*
X565059Y330674I31J-14604D01*
G01*
X550000Y322736D02*
G03*
X565059Y330674I661J17000D01*
G01*
X290174Y325762D02*
G03*
X296457Y322736I6097J4625D01*
G01*
X290271Y325688D02*
G03*
X281693Y329653I-8805J-7785D01*
G01*
X261532Y341993D02*
G03*
X274182Y329653I12282J-63D01*
G01*
X561803Y665073D02*
X563022Y661886D01*
X276626Y672654D02*
X550785D01*
X573076Y654642D02*
X577020D01*
X610925D01*
X623365Y351914D02*
Y641708D01*
X577417Y337545D02*
X609105D01*
X296457Y322736D02*
X550000D01*
X274182Y329653D02*
X281693D01*
X261531Y656264D02*
X261532Y341993D01*
D23*
X339469Y407983D02*
D03*
Y400700D02*
D03*
X557087Y385728D02*
D03*
Y393012D02*
D03*
X533169Y461909D02*
D03*
Y454626D02*
D03*
X523622Y373524D02*
D03*
Y380807D02*
D03*
D39*
X525295Y455000D02*
D03*
Y462323D02*
D03*
X531496Y373504D02*
D03*
Y380827D02*
D03*
D42*
X478051Y366339D02*
D03*
X470768D02*
D03*
X532972Y342520D02*
D03*
X540256D02*
D03*
X393406Y390551D02*
D03*
X400689D02*
D03*
D44*
X554268Y621575D02*
D03*
X562268D02*
D03*
X554268Y611575D02*
D03*
X562268D02*
D03*
X555055Y431102D02*
D03*
X563055D02*
D03*
X555055Y440945D02*
D03*
X563055D02*
D03*
X555055Y450394D02*
D03*
X563055D02*
D03*
X555449Y421654D02*
D03*
X563449D02*
D03*
X372110Y438646D02*
D03*
X364110D02*
D03*
X549202Y393307D02*
D03*
X541202D02*
D03*
D45*
X354597Y415122D02*
D03*
Y407122D02*
D03*
X331729Y408172D02*
D03*
Y400172D02*
D03*
X531496Y394425D02*
D03*
Y402425D02*
D03*
X332677Y438725D02*
D03*
Y430725D02*
D03*
X341732Y438646D02*
D03*
Y430646D02*
D03*
X314961Y430615D02*
D03*
Y438615D02*
D03*
X323819Y430615D02*
D03*
Y438615D02*
D03*
X301014Y354858D02*
D03*
Y362858D02*
D03*
D47*
X271260Y634744D02*
D03*
X586692Y346063D02*
D03*
X515453Y631496D02*
D03*
D97*
X538681Y380807D02*
D03*
X541240D02*
D03*
X543799D02*
D03*
X546358D02*
D03*
X543799Y364862D02*
D03*
X546358D02*
D03*
X541240D02*
D03*
X538681D02*
D03*
D98*
X532972Y350492D02*
D03*
Y354232D02*
D03*
X546555Y350394D02*
D03*
Y354134D02*
D03*
D99*
X477041Y417297D02*
D03*
X471384Y411640D02*
D03*
X317250Y377880D02*
D03*
X322907Y383537D02*
D03*
X467297Y380880D02*
D03*
X461640Y375223D02*
D03*
D100*
X400747Y425398D02*
D03*
X405897Y430548D02*
D03*
X459586Y388402D02*
D03*
X454436Y383252D02*
D03*
D101*
X410761Y426113D02*
D03*
X405583Y420935D02*
D03*
X449304Y388356D02*
D03*
X454482Y393534D02*
D03*
D102*
X393681Y383268D02*
D03*
X401004D02*
D03*
D103*
X472073Y397042D02*
D03*
X477730Y391385D02*
D03*
X458856Y409871D02*
D03*
X464513Y404214D02*
D03*
X479554Y403911D02*
D03*
X485210Y398254D02*
D03*
M02*
