G04*
G04 #@! TF.GenerationSoftware,Altium Limited,Altium Designer,18.1.7 (191)*
G04*
G04 Layer_Color=65535*
%FSLAX25Y25*%
%MOIN*%
G70*
G01*
G75*
%ADD10C,0.01000*%
%ADD11C,0.00591*%
%ADD12C,0.00984*%
%ADD13C,0.02362*%
%ADD14C,0.00394*%
%ADD15C,0.00800*%
%ADD16C,0.00787*%
%ADD17C,0.00047*%
%ADD18C,0.00700*%
%ADD19C,0.00781*%
%ADD20R,0.02000X0.06000*%
%ADD21R,0.06000X0.02000*%
G36*
X331682Y663659D02*
X332270D01*
Y663575D01*
X332773D01*
Y663491D01*
X333109D01*
Y663407D01*
X332773D01*
Y663491D01*
X332102D01*
Y663407D01*
X331431D01*
Y663323D01*
X331011D01*
Y663239D01*
X330675D01*
Y663156D01*
X330424D01*
Y663072D01*
X330256D01*
Y662988D01*
X330004D01*
Y662904D01*
X329836D01*
Y662820D01*
X329668D01*
Y662736D01*
X329501D01*
Y662652D01*
X329333D01*
Y662568D01*
X329165D01*
Y662484D01*
X329081D01*
Y662400D01*
X328913D01*
Y662316D01*
X328829D01*
Y662232D01*
X328661D01*
Y662149D01*
X328577D01*
Y662065D01*
X328493D01*
Y661981D01*
X328410D01*
Y661897D01*
X328326D01*
Y661813D01*
X328158D01*
Y661729D01*
X328074D01*
Y661645D01*
X327990D01*
Y661561D01*
X327906D01*
Y661477D01*
X327822D01*
Y661393D01*
X327738D01*
Y661309D01*
Y661225D01*
X327654D01*
Y661141D01*
X327570D01*
Y661058D01*
X327486D01*
Y660974D01*
X327403D01*
Y660890D01*
X327319D01*
Y660806D01*
Y660722D01*
X327235D01*
Y660638D01*
X327151D01*
Y660554D01*
Y660470D01*
X327067D01*
Y660386D01*
X326983D01*
Y660302D01*
Y660218D01*
X326899D01*
Y660135D01*
Y660051D01*
X326815D01*
Y659967D01*
Y659883D01*
X326731D01*
Y659799D01*
Y659715D01*
X326647D01*
Y659631D01*
Y659547D01*
X326563D01*
Y659463D01*
Y659379D01*
Y659295D01*
X326480D01*
Y659211D01*
Y659128D01*
X326396D01*
Y659044D01*
Y658960D01*
Y658876D01*
X326312D01*
Y658792D01*
Y658708D01*
Y658624D01*
Y658540D01*
Y658456D01*
X326228D01*
Y658372D01*
Y658288D01*
Y658204D01*
Y658120D01*
X326144D01*
Y658037D01*
Y657953D01*
Y657869D01*
Y657785D01*
X326060D01*
Y657869D01*
X325892D01*
Y657953D01*
X325808D01*
Y658037D01*
X325640D01*
Y658120D01*
X325472D01*
Y658204D01*
X325389D01*
Y658288D01*
X325221D01*
Y658372D01*
X325137D01*
Y658456D01*
X324969D01*
Y658540D01*
X324885D01*
Y658624D01*
Y658708D01*
X324969D01*
Y658792D01*
Y658876D01*
Y658960D01*
Y659044D01*
X325053D01*
Y659128D01*
Y659211D01*
Y659295D01*
X325137D01*
Y659379D01*
Y659463D01*
Y659547D01*
X325221D01*
Y659631D01*
Y659715D01*
X325305D01*
Y659799D01*
Y659883D01*
X325389D01*
Y659967D01*
Y660051D01*
Y660135D01*
X325472D01*
Y660218D01*
X325556D01*
Y660302D01*
Y660386D01*
X325640D01*
Y660470D01*
Y660554D01*
X325724D01*
Y660638D01*
Y660722D01*
X325892D01*
Y660806D01*
Y660890D01*
X325305D01*
Y660806D01*
X325053D01*
Y660722D01*
X324801D01*
Y660638D01*
X324549D01*
Y660554D01*
X324382D01*
Y660470D01*
X324214D01*
Y660386D01*
X324046D01*
Y660302D01*
X323962D01*
Y660218D01*
X323878D01*
Y660135D01*
X323710D01*
Y660051D01*
X323626D01*
Y659967D01*
X323542D01*
Y659883D01*
X323459D01*
Y659799D01*
Y659715D01*
X323375D01*
Y659631D01*
X323291D01*
Y659547D01*
Y659463D01*
X323207D01*
Y659379D01*
Y659295D01*
Y659211D01*
Y659128D01*
Y659044D01*
Y658960D01*
X323291D01*
Y658876D01*
Y658792D01*
X323375D01*
Y658708D01*
X323459D01*
Y658624D01*
Y658540D01*
X323542D01*
Y658456D01*
X323626D01*
Y658372D01*
X323710D01*
Y658288D01*
X323794D01*
Y658204D01*
X323878D01*
Y658120D01*
X323962D01*
Y658037D01*
X324046D01*
Y657953D01*
X324214D01*
Y657869D01*
X324298D01*
Y657785D01*
X324382D01*
Y657701D01*
X324549D01*
Y657617D01*
X324633D01*
Y657533D01*
X324717D01*
Y657449D01*
X324885D01*
Y657365D01*
X325053D01*
Y657281D01*
X325137D01*
Y657197D01*
X325305D01*
Y657114D01*
X325472D01*
Y657029D01*
X325556D01*
Y656946D01*
X325724D01*
Y656862D01*
X325892D01*
Y656778D01*
X326060D01*
Y656694D01*
X326228D01*
Y656610D01*
X326396D01*
Y656526D01*
X326563D01*
Y656442D01*
X326731D01*
Y656358D01*
X326899D01*
Y656274D01*
X327067D01*
Y656190D01*
X327235D01*
Y656107D01*
X327486D01*
Y656023D01*
X327654D01*
Y655939D01*
X327822D01*
Y655855D01*
X327990D01*
Y655771D01*
X328242D01*
Y655687D01*
X328410D01*
Y655603D01*
X328577D01*
Y655519D01*
X328829D01*
Y655435D01*
X329081D01*
Y655351D01*
X329249D01*
Y655267D01*
X329501D01*
Y655183D01*
X329668D01*
Y655099D01*
X329920D01*
Y655016D01*
X330172D01*
Y654932D01*
X330340D01*
Y654848D01*
X330592D01*
Y654764D01*
X330843D01*
Y654680D01*
X331095D01*
Y654596D01*
X331347D01*
Y654512D01*
X331515D01*
Y654428D01*
X331850D01*
Y654344D01*
X332018D01*
Y654260D01*
X332270D01*
Y654176D01*
X332606D01*
Y654092D01*
X332773D01*
Y654008D01*
X333109D01*
Y653925D01*
X333361D01*
Y653841D01*
X333612D01*
Y653757D01*
X333864D01*
Y653673D01*
X334116D01*
Y653589D01*
X334368D01*
Y653505D01*
X334619D01*
Y653421D01*
X334955D01*
Y653337D01*
X335207D01*
Y653253D01*
X335459D01*
Y653169D01*
X335794D01*
Y653085D01*
X336046D01*
Y653001D01*
X336298D01*
Y652918D01*
X336634D01*
Y652834D01*
X336885D01*
Y652750D01*
X337137D01*
Y652666D01*
X337473D01*
Y652582D01*
X337724D01*
Y652498D01*
X338060D01*
Y652414D01*
X338312D01*
Y652330D01*
X338648D01*
Y652246D01*
X338899D01*
Y652162D01*
X339235D01*
Y652078D01*
X339571D01*
Y651995D01*
X339822D01*
Y651910D01*
X340158D01*
Y651827D01*
X340410D01*
Y651743D01*
X340745D01*
Y651659D01*
X340326D01*
Y651743D01*
X339487D01*
Y651827D01*
X338732D01*
Y651910D01*
X337976D01*
Y651995D01*
X337473D01*
Y652078D01*
X336885D01*
Y652162D01*
X336298D01*
Y652246D01*
X335878D01*
Y652330D01*
X335291D01*
Y652414D01*
X334871D01*
Y652498D01*
X334452D01*
Y652582D01*
X333948D01*
Y652666D01*
X333612D01*
Y652750D01*
X333193D01*
Y652834D01*
X332857D01*
Y652918D01*
X332522D01*
Y653001D01*
X332102D01*
Y653085D01*
X331850D01*
Y653169D01*
X331515D01*
Y653253D01*
X331179D01*
Y653337D01*
X330843D01*
Y653421D01*
X330507D01*
Y653505D01*
X330256D01*
Y653589D01*
X330004D01*
Y653673D01*
X329752D01*
Y653757D01*
X329417D01*
Y653841D01*
X329165D01*
Y653925D01*
X328913D01*
Y654008D01*
X328661D01*
Y654092D01*
X328410D01*
Y654176D01*
X328158D01*
Y654260D01*
X327906D01*
Y654344D01*
X327738D01*
Y654428D01*
X327486D01*
Y654512D01*
X327319D01*
Y654596D01*
X327067D01*
Y654680D01*
X326899D01*
Y654764D01*
X326647D01*
Y654848D01*
X326563D01*
Y654764D01*
Y654680D01*
Y654596D01*
X326647D01*
Y654512D01*
Y654428D01*
X326731D01*
Y654344D01*
Y654260D01*
Y654176D01*
X326815D01*
Y654092D01*
X326899D01*
Y654008D01*
Y653925D01*
X326983D01*
Y653841D01*
Y653757D01*
X327067D01*
Y653673D01*
Y653589D01*
X327151D01*
Y653505D01*
X327235D01*
Y653421D01*
Y653337D01*
X327319D01*
Y653253D01*
X327403D01*
Y653169D01*
X327486D01*
Y653085D01*
Y653001D01*
X327570D01*
Y652918D01*
X327654D01*
Y652834D01*
X327738D01*
Y652750D01*
X327822D01*
Y652666D01*
X327906D01*
Y652582D01*
X327990D01*
Y652498D01*
X328074D01*
Y652414D01*
X328158D01*
Y652330D01*
X328242D01*
Y652246D01*
X328326D01*
Y652162D01*
X328410D01*
Y652078D01*
X328577D01*
Y651995D01*
X328661D01*
Y651910D01*
X328745D01*
Y651827D01*
X328913D01*
Y651743D01*
X328997D01*
Y651659D01*
X329165D01*
Y651575D01*
X329249D01*
Y651491D01*
X329417D01*
Y651407D01*
X329585D01*
Y651323D01*
X329752D01*
Y651239D01*
X329920D01*
Y651155D01*
X330172D01*
Y651071D01*
X330340D01*
Y650987D01*
X330592D01*
Y650904D01*
X330843D01*
Y650820D01*
X331263D01*
Y650736D01*
X331766D01*
Y650652D01*
X332018D01*
Y650568D01*
X330675D01*
Y650652D01*
X330004D01*
Y650736D01*
X329668D01*
Y650820D01*
X329333D01*
Y650904D01*
X329165D01*
Y650987D01*
X328913D01*
Y651071D01*
X328661D01*
Y651155D01*
X328493D01*
Y651239D01*
X328326D01*
Y651323D01*
X328158D01*
Y651407D01*
X327990D01*
Y651491D01*
X327906D01*
Y651575D01*
X327738D01*
Y651659D01*
X327654D01*
Y651743D01*
X327486D01*
Y651827D01*
X327403D01*
Y651910D01*
X327235D01*
Y651995D01*
X327151D01*
Y652078D01*
X327067D01*
Y652162D01*
X326983D01*
Y652246D01*
X326899D01*
Y652330D01*
X326815D01*
Y652414D01*
X326647D01*
Y652498D01*
X326563D01*
Y652582D01*
Y652666D01*
X326480D01*
Y652750D01*
X326396D01*
Y652834D01*
X326312D01*
Y652918D01*
X326228D01*
Y653001D01*
X326144D01*
Y653085D01*
X326060D01*
Y653169D01*
Y653253D01*
X325976D01*
Y653337D01*
X325892D01*
Y653421D01*
X325808D01*
Y653505D01*
Y653589D01*
X325724D01*
Y653673D01*
Y653757D01*
X325640D01*
Y653841D01*
X325556D01*
Y653925D01*
Y654008D01*
X325472D01*
Y654092D01*
Y654176D01*
X325389D01*
Y654260D01*
Y654344D01*
X325305D01*
Y654428D01*
Y654512D01*
X325221D01*
Y654596D01*
Y654680D01*
Y654764D01*
X325137D01*
Y654848D01*
Y654932D01*
Y655016D01*
X325053D01*
Y655099D01*
Y655183D01*
X324969D01*
Y655267D01*
Y655351D01*
Y655435D01*
Y655519D01*
X324885D01*
Y655603D01*
Y655687D01*
X324717D01*
Y655771D01*
X324549D01*
Y655855D01*
X324382D01*
Y655939D01*
X324214D01*
Y656023D01*
X324130D01*
Y656107D01*
X323962D01*
Y656190D01*
X323794D01*
Y656274D01*
X323626D01*
Y656358D01*
X323542D01*
Y656442D01*
X323375D01*
Y656526D01*
X323291D01*
Y656610D01*
X323123D01*
Y656694D01*
X322955D01*
Y656778D01*
X322871D01*
Y656862D01*
X322703D01*
Y656946D01*
X322619D01*
Y657029D01*
X322535D01*
Y657114D01*
X322368D01*
Y657197D01*
X322284D01*
Y657281D01*
X322200D01*
Y657365D01*
X322116D01*
Y657449D01*
X321948D01*
Y657533D01*
X321864D01*
Y657617D01*
X321780D01*
Y657701D01*
X321696D01*
Y657785D01*
X321612D01*
Y657869D01*
X321528D01*
Y657953D01*
X321444D01*
Y658037D01*
X321360D01*
Y658120D01*
Y658204D01*
X321277D01*
Y658288D01*
X321193D01*
Y658372D01*
X321109D01*
Y658456D01*
Y658540D01*
X321025D01*
Y658624D01*
Y658708D01*
X320941D01*
Y658792D01*
Y658876D01*
X320857D01*
Y658960D01*
Y659044D01*
Y659128D01*
Y659211D01*
X320773D01*
Y659295D01*
Y659379D01*
Y659463D01*
X320857D01*
Y659547D01*
Y659631D01*
Y659715D01*
X320941D01*
Y659799D01*
Y659883D01*
X321025D01*
Y659967D01*
Y660051D01*
X321109D01*
Y660135D01*
X321193D01*
Y660218D01*
X321277D01*
Y660302D01*
X321444D01*
Y660386D01*
X321528D01*
Y660470D01*
X321696D01*
Y660554D01*
X321864D01*
Y660638D01*
X322032D01*
Y660722D01*
X322200D01*
Y660806D01*
X322451D01*
Y660890D01*
X322787D01*
Y660974D01*
X323039D01*
Y661058D01*
X323459D01*
Y661141D01*
X323878D01*
Y661225D01*
X324549D01*
Y661309D01*
X325640D01*
Y661393D01*
X326312D01*
Y661477D01*
X326396D01*
Y661561D01*
X326480D01*
Y661645D01*
X326563D01*
Y661729D01*
X326647D01*
Y661813D01*
X326731D01*
Y661897D01*
X326815D01*
Y661981D01*
X326899D01*
Y662065D01*
X326983D01*
Y662149D01*
X327067D01*
Y662232D01*
X327235D01*
Y662316D01*
X327319D01*
Y662400D01*
X327403D01*
Y662484D01*
X327570D01*
Y662568D01*
X327654D01*
Y662652D01*
X327822D01*
Y662736D01*
X327906D01*
Y662820D01*
X328074D01*
Y662904D01*
X328242D01*
Y662988D01*
X328410D01*
Y663072D01*
X328577D01*
Y663156D01*
X328745D01*
Y663239D01*
X328997D01*
Y663323D01*
X329249D01*
Y663407D01*
X329501D01*
Y663491D01*
X329836D01*
Y663575D01*
X330340D01*
Y663659D01*
X330927D01*
Y663743D01*
X331682D01*
Y663659D01*
D02*
G37*
G36*
X346032Y660302D02*
X346200D01*
Y660218D01*
X346284D01*
Y660135D01*
X346368D01*
Y660051D01*
X346452D01*
Y659967D01*
X346536D01*
Y659883D01*
Y659799D01*
X346620D01*
Y659715D01*
Y659631D01*
Y659547D01*
Y659463D01*
X346704D01*
Y659379D01*
Y659295D01*
Y659211D01*
Y659128D01*
Y659044D01*
Y658960D01*
Y658876D01*
Y658792D01*
Y658708D01*
Y658624D01*
Y658540D01*
Y658456D01*
Y658372D01*
Y658288D01*
Y658204D01*
Y658120D01*
Y658037D01*
Y657953D01*
Y657869D01*
Y657785D01*
Y657701D01*
Y657617D01*
Y657533D01*
Y657449D01*
Y657365D01*
Y657281D01*
Y657197D01*
Y657114D01*
Y657029D01*
Y656946D01*
Y656862D01*
Y656778D01*
Y656694D01*
X345865D01*
Y656778D01*
Y656862D01*
Y656946D01*
Y657029D01*
Y657114D01*
Y657197D01*
Y657281D01*
Y657365D01*
Y657449D01*
Y657533D01*
Y657617D01*
Y657701D01*
Y657785D01*
Y657869D01*
X343431D01*
Y657953D01*
Y658037D01*
X343515D01*
Y658120D01*
Y658204D01*
Y658288D01*
Y658372D01*
X343599D01*
Y658456D01*
Y658540D01*
X343683D01*
Y658624D01*
X343850D01*
Y658708D01*
X345865D01*
Y658792D01*
Y658876D01*
Y658960D01*
Y659044D01*
Y659128D01*
Y659211D01*
Y659295D01*
Y659379D01*
Y659463D01*
Y659547D01*
X345781D01*
Y659631D01*
X343011D01*
Y659547D01*
X342927D01*
Y659463D01*
Y659379D01*
Y659295D01*
X342844D01*
Y659211D01*
Y659128D01*
Y659044D01*
Y658960D01*
Y658876D01*
Y658792D01*
Y658708D01*
Y658624D01*
Y658540D01*
Y658456D01*
Y658372D01*
Y658288D01*
Y658204D01*
Y658120D01*
Y658037D01*
Y657953D01*
Y657869D01*
Y657785D01*
Y657701D01*
Y657617D01*
Y657533D01*
Y657449D01*
Y657365D01*
Y657281D01*
Y657197D01*
Y657114D01*
Y657029D01*
Y656946D01*
Y656862D01*
Y656778D01*
X342927D01*
Y656694D01*
X342088D01*
Y656778D01*
Y656862D01*
Y656946D01*
Y657029D01*
Y657114D01*
Y657197D01*
Y657281D01*
Y657365D01*
Y657449D01*
Y657533D01*
Y657617D01*
Y657701D01*
Y657785D01*
Y657869D01*
Y657953D01*
Y658037D01*
Y658120D01*
Y658204D01*
Y658288D01*
Y658372D01*
Y658456D01*
Y658540D01*
Y658624D01*
Y658708D01*
Y658792D01*
Y658876D01*
Y658960D01*
Y659044D01*
Y659128D01*
Y659211D01*
Y659295D01*
Y659379D01*
Y659463D01*
Y659547D01*
X342172D01*
Y659631D01*
Y659715D01*
Y659799D01*
X342256D01*
Y659883D01*
Y659967D01*
X342340D01*
Y660051D01*
X342424D01*
Y660135D01*
X342508D01*
Y660218D01*
X342592D01*
Y660302D01*
X342759D01*
Y660386D01*
X346032D01*
Y660302D01*
D02*
G37*
G36*
X340326D02*
X340494D01*
Y660218D01*
X340578D01*
Y660135D01*
X340662D01*
Y660051D01*
X340745D01*
Y659967D01*
X340829D01*
Y659883D01*
X340913D01*
Y659799D01*
Y659715D01*
Y659631D01*
X340997D01*
Y659547D01*
Y659463D01*
Y659379D01*
Y659295D01*
X341081D01*
Y659211D01*
X340997D01*
Y659128D01*
X341081D01*
Y659044D01*
X340997D01*
Y658960D01*
Y658876D01*
Y658792D01*
Y658708D01*
X340913D01*
Y658624D01*
Y658540D01*
Y658456D01*
X340829D01*
Y658372D01*
X340745D01*
Y658288D01*
Y658204D01*
X340662D01*
Y658120D01*
X340494D01*
Y658037D01*
X340326D01*
Y657953D01*
X337137D01*
Y657869D01*
Y657785D01*
Y657701D01*
Y657617D01*
Y657533D01*
Y657449D01*
Y657365D01*
Y657281D01*
Y657197D01*
Y657114D01*
Y657029D01*
Y656946D01*
Y656862D01*
Y656778D01*
Y656694D01*
X336382D01*
Y656778D01*
Y656862D01*
Y656946D01*
Y657029D01*
Y657114D01*
Y657197D01*
Y657281D01*
Y657365D01*
Y657449D01*
Y657533D01*
Y657617D01*
Y657701D01*
Y657785D01*
Y657869D01*
Y657953D01*
Y658037D01*
Y658120D01*
Y658204D01*
Y658288D01*
Y658372D01*
Y658456D01*
Y658540D01*
X336466D01*
Y658624D01*
X336634D01*
Y658708D01*
X340074D01*
Y658792D01*
X340158D01*
Y658876D01*
X340242D01*
Y658960D01*
Y659044D01*
Y659128D01*
Y659211D01*
Y659295D01*
Y659379D01*
Y659463D01*
X340158D01*
Y659547D01*
X340074D01*
Y659631D01*
X336382D01*
Y659715D01*
Y659799D01*
Y659883D01*
Y659967D01*
Y660051D01*
Y660135D01*
Y660218D01*
Y660302D01*
Y660386D01*
X340326D01*
Y660302D01*
D02*
G37*
G36*
X335291D02*
X335207D01*
Y660218D01*
Y660135D01*
Y660051D01*
Y659967D01*
X335123D01*
Y659883D01*
Y659799D01*
Y659715D01*
Y659631D01*
X331766D01*
Y659547D01*
X331682D01*
Y659463D01*
X331598D01*
Y659379D01*
Y659295D01*
Y659211D01*
Y659128D01*
Y659044D01*
X331682D01*
Y658960D01*
X334452D01*
Y658876D01*
X334703D01*
Y658792D01*
X334871D01*
Y658708D01*
X334955D01*
Y658624D01*
X335039D01*
Y658540D01*
Y658456D01*
X335123D01*
Y658372D01*
X335207D01*
Y658288D01*
Y658204D01*
Y658120D01*
Y658037D01*
Y657953D01*
X335291D01*
Y657869D01*
Y657785D01*
Y657701D01*
X335207D01*
Y657617D01*
Y657533D01*
Y657449D01*
Y657365D01*
Y657281D01*
X335123D01*
Y657197D01*
X335039D01*
Y657114D01*
Y657029D01*
X334955D01*
Y656946D01*
X334871D01*
Y656862D01*
X334703D01*
Y656778D01*
X334452D01*
Y656694D01*
X330843D01*
Y656778D01*
Y656862D01*
Y656946D01*
Y657029D01*
X330927D01*
Y657114D01*
Y657197D01*
Y657281D01*
Y657365D01*
X331011D01*
Y657449D01*
X334284D01*
Y657533D01*
X334452D01*
Y657617D01*
Y657701D01*
Y657785D01*
Y657869D01*
Y657953D01*
Y658037D01*
Y658120D01*
X331682D01*
Y658204D01*
X331431D01*
Y658288D01*
X331263D01*
Y658372D01*
X331179D01*
Y658456D01*
X331095D01*
Y658540D01*
X331011D01*
Y658624D01*
Y658708D01*
X330927D01*
Y658792D01*
Y658876D01*
X330843D01*
Y658960D01*
Y659044D01*
Y659128D01*
Y659211D01*
Y659295D01*
Y659379D01*
Y659463D01*
Y659547D01*
Y659631D01*
Y659715D01*
X330927D01*
Y659799D01*
Y659883D01*
X331011D01*
Y659967D01*
Y660051D01*
X331095D01*
Y660135D01*
X331179D01*
Y660218D01*
X331347D01*
Y660302D01*
X331515D01*
Y660386D01*
X335291D01*
Y660302D01*
D02*
G37*
G36*
X351823D02*
Y660218D01*
Y660135D01*
X351739D01*
Y660051D01*
Y659967D01*
Y659883D01*
Y659799D01*
Y659715D01*
Y659631D01*
X348802D01*
Y659547D01*
X348634D01*
Y659463D01*
X348550D01*
Y659379D01*
Y659295D01*
Y659211D01*
Y659128D01*
Y659044D01*
Y658960D01*
Y658876D01*
Y658792D01*
Y658708D01*
Y658624D01*
Y658540D01*
Y658456D01*
Y658372D01*
Y658288D01*
Y658204D01*
Y658120D01*
Y658037D01*
Y657953D01*
Y657869D01*
Y657785D01*
Y657701D01*
Y657617D01*
X348634D01*
Y657533D01*
X348802D01*
Y657449D01*
X351739D01*
Y657365D01*
Y657281D01*
Y657197D01*
Y657114D01*
Y657029D01*
Y656946D01*
X351823D01*
Y656862D01*
Y656778D01*
Y656694D01*
X348634D01*
Y656778D01*
X348382D01*
Y656862D01*
X348214D01*
Y656946D01*
X348130D01*
Y657029D01*
X348046D01*
Y657114D01*
X347962D01*
Y657197D01*
Y657281D01*
X347879D01*
Y657365D01*
Y657449D01*
X347795D01*
Y657533D01*
Y657617D01*
Y657701D01*
Y657785D01*
Y657869D01*
Y657953D01*
Y658037D01*
Y658120D01*
Y658204D01*
Y658288D01*
Y658372D01*
Y658456D01*
Y658540D01*
Y658624D01*
Y658708D01*
Y658792D01*
Y658876D01*
Y658960D01*
Y659044D01*
Y659128D01*
Y659211D01*
Y659295D01*
Y659379D01*
Y659463D01*
Y659547D01*
Y659631D01*
Y659715D01*
X347879D01*
Y659799D01*
Y659883D01*
X347962D01*
Y659967D01*
X348046D01*
Y660051D01*
X348130D01*
Y660135D01*
X348214D01*
Y660218D01*
X348382D01*
Y660302D01*
X348550D01*
Y660386D01*
X351823D01*
Y660302D01*
D02*
G37*
G36*
X356858D02*
Y660218D01*
Y660135D01*
X356774D01*
Y660051D01*
Y659967D01*
Y659883D01*
Y659799D01*
Y659715D01*
Y659631D01*
X353753D01*
Y659547D01*
Y659463D01*
Y659379D01*
Y659295D01*
Y659211D01*
Y659128D01*
Y659044D01*
Y658960D01*
X356690D01*
Y658876D01*
Y658792D01*
Y658708D01*
Y658624D01*
Y658540D01*
Y658456D01*
Y658372D01*
Y658288D01*
Y658204D01*
Y658120D01*
X353753D01*
Y658037D01*
Y657953D01*
Y657869D01*
Y657785D01*
Y657701D01*
Y657617D01*
Y657533D01*
Y657449D01*
X356774D01*
Y657365D01*
Y657281D01*
Y657197D01*
Y657114D01*
Y657029D01*
Y656946D01*
X356858D01*
Y656862D01*
Y656778D01*
Y656694D01*
X352914D01*
Y656778D01*
Y656862D01*
Y656946D01*
Y657029D01*
Y657114D01*
Y657197D01*
Y657281D01*
Y657365D01*
Y657449D01*
Y657533D01*
Y657617D01*
Y657701D01*
Y657785D01*
Y657869D01*
Y657953D01*
Y658037D01*
Y658120D01*
Y658204D01*
Y658288D01*
Y658372D01*
Y658456D01*
Y658540D01*
Y658624D01*
Y658708D01*
Y658792D01*
Y658876D01*
Y658960D01*
Y659044D01*
Y659128D01*
Y659211D01*
Y659295D01*
Y659379D01*
Y659463D01*
Y659547D01*
Y659631D01*
Y659715D01*
Y659799D01*
Y659883D01*
Y659967D01*
Y660051D01*
Y660135D01*
Y660218D01*
Y660302D01*
Y660386D01*
X356858D01*
Y660302D01*
D02*
G37*
G36*
X358788D02*
Y660218D01*
Y660135D01*
Y660051D01*
Y659967D01*
Y659883D01*
Y659799D01*
Y659715D01*
Y659631D01*
Y659547D01*
Y659463D01*
Y659379D01*
Y659295D01*
Y659211D01*
Y659128D01*
Y659044D01*
Y658960D01*
Y658876D01*
Y658792D01*
Y658708D01*
Y658624D01*
Y658540D01*
Y658456D01*
Y658372D01*
Y658288D01*
Y658204D01*
Y658120D01*
Y658037D01*
Y657953D01*
Y657869D01*
Y657785D01*
Y657701D01*
Y657617D01*
X358872D01*
Y657533D01*
X359040D01*
Y657449D01*
X361557D01*
Y657365D01*
Y657281D01*
Y657197D01*
Y657114D01*
Y657029D01*
X361641D01*
Y656946D01*
Y656862D01*
Y656778D01*
Y656694D01*
X358704D01*
Y656778D01*
X358452D01*
Y656862D01*
X358368D01*
Y656946D01*
X358284D01*
Y657029D01*
X358200D01*
Y657114D01*
X358117D01*
Y657197D01*
Y657281D01*
X358033D01*
Y657365D01*
Y657449D01*
Y657533D01*
X357949D01*
Y657617D01*
Y657701D01*
Y657785D01*
Y657869D01*
Y657953D01*
Y658037D01*
Y658120D01*
Y658204D01*
Y658288D01*
Y658372D01*
Y658456D01*
Y658540D01*
Y658624D01*
Y658708D01*
Y658792D01*
Y658876D01*
Y658960D01*
Y659044D01*
Y659128D01*
Y659211D01*
Y659295D01*
Y659379D01*
Y659463D01*
Y659547D01*
Y659631D01*
Y659715D01*
X358033D01*
Y659799D01*
Y659883D01*
Y659967D01*
X358117D01*
Y660051D01*
Y660135D01*
X358200D01*
Y660218D01*
X358368D01*
Y660302D01*
X358452D01*
Y660386D01*
X358788D01*
Y660302D01*
D02*
G37*
G36*
X366676D02*
X366844D01*
Y660218D01*
X366928D01*
Y660135D01*
X367012D01*
Y660051D01*
X367096D01*
Y659967D01*
X367180D01*
Y659883D01*
Y659799D01*
X367264D01*
Y659715D01*
Y659631D01*
Y659547D01*
X367348D01*
Y659463D01*
Y659379D01*
Y659295D01*
Y659211D01*
Y659128D01*
Y659044D01*
Y658960D01*
Y658876D01*
Y658792D01*
Y658708D01*
Y658624D01*
Y658540D01*
Y658456D01*
Y658372D01*
Y658288D01*
Y658204D01*
Y658120D01*
Y658037D01*
Y657953D01*
Y657869D01*
Y657785D01*
Y657701D01*
Y657617D01*
Y657533D01*
Y657449D01*
Y657365D01*
Y657281D01*
Y657197D01*
Y657114D01*
Y657029D01*
Y656946D01*
Y656862D01*
Y656778D01*
Y656694D01*
X366508D01*
Y656778D01*
Y656862D01*
Y656946D01*
Y657029D01*
Y657114D01*
Y657197D01*
Y657281D01*
Y657365D01*
Y657449D01*
Y657533D01*
Y657617D01*
Y657701D01*
Y657785D01*
Y657869D01*
X364075D01*
Y657953D01*
Y658037D01*
Y658120D01*
X364159D01*
Y658204D01*
Y658288D01*
Y658372D01*
X364243D01*
Y658456D01*
Y658540D01*
X364326D01*
Y658624D01*
X364494D01*
Y658708D01*
X366508D01*
Y658792D01*
Y658876D01*
Y658960D01*
Y659044D01*
Y659128D01*
Y659211D01*
Y659295D01*
Y659379D01*
Y659463D01*
Y659547D01*
X366424D01*
Y659631D01*
X363655D01*
Y659547D01*
X363571D01*
Y659463D01*
Y659379D01*
Y659295D01*
Y659211D01*
Y659128D01*
Y659044D01*
Y658960D01*
Y658876D01*
Y658792D01*
Y658708D01*
Y658624D01*
Y658540D01*
Y658456D01*
Y658372D01*
Y658288D01*
Y658204D01*
Y658120D01*
Y658037D01*
Y657953D01*
Y657869D01*
Y657785D01*
Y657701D01*
Y657617D01*
Y657533D01*
Y657449D01*
Y657365D01*
Y657281D01*
Y657197D01*
Y657114D01*
Y657029D01*
Y656946D01*
Y656862D01*
Y656778D01*
Y656694D01*
X362732D01*
Y656778D01*
Y656862D01*
Y656946D01*
Y657029D01*
Y657114D01*
Y657197D01*
Y657281D01*
Y657365D01*
Y657449D01*
Y657533D01*
Y657617D01*
Y657701D01*
Y657785D01*
Y657869D01*
Y657953D01*
Y658037D01*
Y658120D01*
Y658204D01*
Y658288D01*
Y658372D01*
Y658456D01*
Y658540D01*
Y658624D01*
Y658708D01*
Y658792D01*
Y658876D01*
Y658960D01*
Y659044D01*
Y659128D01*
Y659211D01*
Y659295D01*
Y659379D01*
Y659463D01*
Y659547D01*
X362816D01*
Y659631D01*
Y659715D01*
Y659799D01*
X362900D01*
Y659883D01*
Y659967D01*
X362984D01*
Y660051D01*
X363068D01*
Y660135D01*
X363152D01*
Y660218D01*
X363235D01*
Y660302D01*
X363403D01*
Y660386D01*
X366676D01*
Y660302D01*
D02*
G37*
G36*
X372382D02*
X372550D01*
Y660218D01*
X372718D01*
Y660135D01*
X372802D01*
Y660051D01*
Y659967D01*
X372886D01*
Y659883D01*
X372970D01*
Y659799D01*
Y659715D01*
Y659631D01*
Y659547D01*
Y659463D01*
Y659379D01*
Y659295D01*
Y659211D01*
Y659128D01*
Y659044D01*
Y658960D01*
X372886D01*
Y658876D01*
Y658792D01*
X372802D01*
Y658708D01*
X372634D01*
Y658624D01*
Y658540D01*
Y658456D01*
X372802D01*
Y658372D01*
X372886D01*
Y658288D01*
X372970D01*
Y658204D01*
Y658120D01*
X373054D01*
Y658037D01*
Y657953D01*
Y657869D01*
X373138D01*
Y657785D01*
Y657701D01*
Y657617D01*
Y657533D01*
X373054D01*
Y657449D01*
Y657365D01*
Y657281D01*
X372970D01*
Y657197D01*
Y657114D01*
X372886D01*
Y657029D01*
X372802D01*
Y656946D01*
X372718D01*
Y656862D01*
X372550D01*
Y656778D01*
X372299D01*
Y656694D01*
X368438D01*
Y656778D01*
Y656862D01*
Y656946D01*
Y657029D01*
Y657114D01*
Y657197D01*
Y657281D01*
Y657365D01*
Y657449D01*
Y657533D01*
Y657617D01*
Y657701D01*
Y657785D01*
Y657869D01*
Y657953D01*
Y658037D01*
Y658120D01*
Y658204D01*
Y658288D01*
Y658372D01*
Y658456D01*
Y658540D01*
Y658624D01*
Y658708D01*
Y658792D01*
Y658876D01*
Y658960D01*
Y659044D01*
Y659128D01*
Y659211D01*
Y659295D01*
Y659379D01*
Y659463D01*
Y659547D01*
Y659631D01*
Y659715D01*
Y659799D01*
X368522D01*
Y659883D01*
Y659967D01*
X368606D01*
Y660051D01*
X368690D01*
Y660135D01*
X368774D01*
Y660218D01*
X368858D01*
Y660302D01*
X369110D01*
Y660386D01*
X372382D01*
Y660302D01*
D02*
G37*
G36*
X923240Y181842D02*
X923304Y181832D01*
X923441Y181814D01*
X923605Y181778D01*
X923778Y181723D01*
X923951Y181641D01*
X924124Y181541D01*
X924133D01*
X924142Y181523D01*
X924197Y181486D01*
X924279Y181413D01*
X924379Y181322D01*
X924488Y181204D01*
X924598Y181058D01*
X924707Y180885D01*
X924798Y180694D01*
Y180684D01*
X924807Y180666D01*
X924816Y180639D01*
X924835Y180603D01*
X924853Y180548D01*
X924871Y180484D01*
X924916Y180338D01*
X924962Y180156D01*
X924998Y179956D01*
X925026Y179728D01*
X925035Y179491D01*
Y179482D01*
Y179464D01*
Y179427D01*
Y179373D01*
X925026Y179309D01*
Y179236D01*
X925008Y179072D01*
X924971Y178872D01*
X924926Y178662D01*
X924862Y178443D01*
X924780Y178225D01*
Y178216D01*
X924771Y178198D01*
X924753Y178170D01*
X924734Y178134D01*
X924671Y178033D01*
X924589Y177906D01*
X924488Y177769D01*
X924361Y177633D01*
X924215Y177496D01*
X924042Y177368D01*
X924033D01*
X924024Y177359D01*
X923996Y177341D01*
X923960Y177323D01*
X923869Y177277D01*
X923741Y177223D01*
X923586Y177168D01*
X923423Y177122D01*
X923231Y177086D01*
X923040Y177077D01*
X922976D01*
X922903Y177086D01*
X922812Y177095D01*
X922703Y177113D01*
X922584Y177141D01*
X922466Y177177D01*
X922348Y177232D01*
X922338Y177241D01*
X922293Y177259D01*
X922238Y177296D01*
X922165Y177350D01*
X922092Y177405D01*
X922001Y177478D01*
X921919Y177560D01*
X921846Y177651D01*
Y175428D01*
X921072D01*
Y181750D01*
X921774D01*
Y181149D01*
X921783Y181167D01*
X921819Y181204D01*
X921865Y181267D01*
X921937Y181340D01*
X922019Y181431D01*
X922111Y181514D01*
X922220Y181596D01*
X922329Y181668D01*
X922348Y181677D01*
X922384Y181696D01*
X922457Y181723D01*
X922548Y181760D01*
X922657Y181796D01*
X922785Y181823D01*
X922931Y181842D01*
X923094Y181851D01*
X923195D01*
X923240Y181842D01*
D02*
G37*
G36*
X946407D02*
X946507Y181823D01*
X946626Y181787D01*
X946753Y181741D01*
X946899Y181677D01*
X947054Y181596D01*
X946771Y180885D01*
X946762Y180894D01*
X946726Y180912D01*
X946671Y180940D01*
X946598Y180967D01*
X946516Y180994D01*
X946416Y181022D01*
X946316Y181040D01*
X946216Y181049D01*
X946170D01*
X946125Y181040D01*
X946061Y181031D01*
X945997Y181012D01*
X945915Y180985D01*
X945833Y180949D01*
X945760Y180894D01*
X945751Y180885D01*
X945724Y180867D01*
X945696Y180830D01*
X945651Y180785D01*
X945605Y180721D01*
X945560Y180648D01*
X945514Y180566D01*
X945478Y180466D01*
X945469Y180448D01*
X945460Y180393D01*
X945441Y180311D01*
X945414Y180202D01*
X945387Y180065D01*
X945368Y179910D01*
X945359Y179746D01*
X945350Y179564D01*
Y177177D01*
X944576D01*
Y181750D01*
X945277D01*
Y181058D01*
X945286Y181067D01*
X945323Y181131D01*
X945368Y181213D01*
X945441Y181313D01*
X945514Y181413D01*
X945596Y181523D01*
X945678Y181614D01*
X945760Y181687D01*
X945769Y181696D01*
X945797Y181714D01*
X945851Y181741D01*
X945906Y181769D01*
X945979Y181796D01*
X946070Y181823D01*
X946161Y181842D01*
X946261Y181851D01*
X946325D01*
X946407Y181842D01*
D02*
G37*
G36*
X937251Y177177D02*
X936514D01*
X934792Y181750D01*
X935612D01*
X936596Y179008D01*
Y178999D01*
X936605Y178990D01*
X936614Y178963D01*
X936623Y178935D01*
X936650Y178844D01*
X936687Y178726D01*
X936732Y178589D01*
X936787Y178434D01*
X936832Y178261D01*
X936887Y178088D01*
X936896Y178106D01*
X936905Y178152D01*
X936933Y178225D01*
X936960Y178334D01*
X937006Y178453D01*
X937051Y178607D01*
X937115Y178771D01*
X937179Y178954D01*
X938190Y181750D01*
X938992D01*
X937251Y177177D01*
D02*
G37*
G36*
X956382Y177104D02*
Y177095D01*
X956373Y177068D01*
X956355Y177031D01*
X956337Y176986D01*
X956310Y176922D01*
X956282Y176849D01*
X956219Y176694D01*
X956155Y176521D01*
X956082Y176348D01*
X956009Y176193D01*
X955972Y176129D01*
X955945Y176066D01*
X955936Y176048D01*
X955909Y176002D01*
X955863Y175938D01*
X955809Y175856D01*
X955736Y175765D01*
X955654Y175674D01*
X955572Y175583D01*
X955472Y175510D01*
X955462Y175501D01*
X955426Y175483D01*
X955371Y175455D01*
X955289Y175419D01*
X955198Y175382D01*
X955089Y175355D01*
X954970Y175337D01*
X954834Y175328D01*
X954797D01*
X954752Y175337D01*
X954688D01*
X954615Y175355D01*
X954533Y175373D01*
X954442Y175392D01*
X954342Y175428D01*
X954260Y176148D01*
X954269D01*
X954305Y176139D01*
X954351Y176129D01*
X954406Y176111D01*
X954551Y176084D01*
X954697Y176075D01*
X954743D01*
X954788Y176084D01*
X954843D01*
X954980Y176111D01*
X955043Y176139D01*
X955107Y176166D01*
X955116D01*
X955134Y176184D01*
X955162Y176202D01*
X955198Y176230D01*
X955280Y176303D01*
X955353Y176403D01*
Y176412D01*
X955371Y176430D01*
X955389Y176467D01*
X955408Y176521D01*
X955444Y176594D01*
X955481Y176703D01*
X955535Y176831D01*
X955590Y176986D01*
Y176995D01*
X955608Y177031D01*
X955626Y177095D01*
X955663Y177177D01*
X953932Y181750D01*
X954752D01*
X955708Y179099D01*
Y179090D01*
X955717Y179081D01*
X955727Y179054D01*
X955736Y179008D01*
X955754Y178963D01*
X955772Y178908D01*
X955818Y178780D01*
X955872Y178626D01*
X955927Y178443D01*
X955982Y178252D01*
X956036Y178043D01*
Y178052D01*
X956045Y178070D01*
X956054Y178097D01*
X956064Y178134D01*
X956073Y178179D01*
X956091Y178234D01*
X956127Y178371D01*
X956173Y178525D01*
X956237Y178708D01*
X956291Y178890D01*
X956364Y179081D01*
X957348Y181750D01*
X958123D01*
X956382Y177104D01*
D02*
G37*
G36*
X951609Y181842D02*
X951746Y181832D01*
X951900Y181814D01*
X952055Y181787D01*
X952210Y181750D01*
X952356Y181705D01*
X952374Y181696D01*
X952420Y181677D01*
X952483Y181650D01*
X952565Y181614D01*
X952656Y181559D01*
X952748Y181504D01*
X952830Y181431D01*
X952902Y181359D01*
X952911Y181350D01*
X952930Y181322D01*
X952957Y181277D01*
X952993Y181222D01*
X953039Y181140D01*
X953076Y181058D01*
X953112Y180958D01*
X953139Y180839D01*
Y180830D01*
X953148Y180803D01*
X953158Y180748D01*
X953167Y180675D01*
Y180575D01*
X953176Y180457D01*
X953185Y180302D01*
Y180129D01*
Y179090D01*
Y179081D01*
Y179045D01*
Y178990D01*
Y178917D01*
Y178835D01*
Y178735D01*
X953194Y178516D01*
Y178289D01*
X953203Y178061D01*
X953212Y177961D01*
Y177869D01*
X953221Y177787D01*
X953230Y177724D01*
Y177715D01*
X953240Y177678D01*
X953249Y177623D01*
X953276Y177551D01*
X953294Y177469D01*
X953331Y177378D01*
X953376Y177277D01*
X953422Y177177D01*
X952611D01*
X952602Y177186D01*
X952593Y177223D01*
X952575Y177268D01*
X952547Y177341D01*
X952520Y177423D01*
X952502Y177523D01*
X952483Y177633D01*
X952465Y177751D01*
X952456D01*
X952447Y177733D01*
X952392Y177687D01*
X952310Y177623D01*
X952201Y177542D01*
X952064Y177460D01*
X951928Y177368D01*
X951782Y177287D01*
X951627Y177223D01*
X951609Y177214D01*
X951554Y177205D01*
X951472Y177177D01*
X951372Y177150D01*
X951244Y177122D01*
X951099Y177104D01*
X950935Y177086D01*
X950771Y177077D01*
X950698D01*
X950643Y177086D01*
X950579D01*
X950506Y177095D01*
X950342Y177122D01*
X950160Y177168D01*
X949960Y177232D01*
X949778Y177323D01*
X949614Y177441D01*
X949596Y177460D01*
X949550Y177505D01*
X949486Y177587D01*
X949413Y177696D01*
X949340Y177833D01*
X949277Y177988D01*
X949231Y178179D01*
X949222Y178270D01*
X949213Y178380D01*
Y178398D01*
Y178434D01*
X949222Y178498D01*
X949231Y178580D01*
X949249Y178680D01*
X949277Y178780D01*
X949313Y178890D01*
X949359Y178990D01*
X949368Y178999D01*
X949386Y179036D01*
X949422Y179090D01*
X949468Y179154D01*
X949523Y179227D01*
X949596Y179300D01*
X949668Y179373D01*
X949759Y179436D01*
X949769Y179446D01*
X949805Y179464D01*
X949851Y179500D01*
X949924Y179537D01*
X950006Y179573D01*
X950106Y179619D01*
X950206Y179655D01*
X950324Y179692D01*
X950333D01*
X950370Y179701D01*
X950424Y179719D01*
X950497Y179728D01*
X950589Y179746D01*
X950707Y179764D01*
X950844Y179792D01*
X951008Y179810D01*
X951017D01*
X951053Y179819D01*
X951099D01*
X951162Y179828D01*
X951235Y179837D01*
X951326Y179856D01*
X951427Y179865D01*
X951536Y179883D01*
X951755Y179928D01*
X951991Y179974D01*
X952201Y180029D01*
X952301Y180056D01*
X952392Y180083D01*
Y180092D01*
Y180111D01*
X952401Y180165D01*
Y180229D01*
Y180265D01*
Y180284D01*
Y180293D01*
Y180302D01*
Y180357D01*
X952392Y180448D01*
X952374Y180548D01*
X952347Y180657D01*
X952301Y180766D01*
X952246Y180867D01*
X952174Y180949D01*
X952164Y180958D01*
X952119Y180994D01*
X952046Y181031D01*
X951955Y181085D01*
X951827Y181131D01*
X951682Y181176D01*
X951499Y181204D01*
X951290Y181213D01*
X951199D01*
X951108Y181204D01*
X950980Y181185D01*
X950853Y181167D01*
X950716Y181131D01*
X950589Y181085D01*
X950479Y181022D01*
X950470Y181012D01*
X950434Y180985D01*
X950388Y180940D01*
X950333Y180867D01*
X950279Y180776D01*
X950215Y180657D01*
X950160Y180511D01*
X950106Y180347D01*
X949349Y180448D01*
Y180457D01*
X949359Y180466D01*
Y180493D01*
X949368Y180530D01*
X949395Y180612D01*
X949432Y180730D01*
X949477Y180849D01*
X949532Y180976D01*
X949605Y181104D01*
X949687Y181222D01*
X949696Y181231D01*
X949732Y181267D01*
X949787Y181322D01*
X949860Y181395D01*
X949960Y181468D01*
X950078Y181541D01*
X950215Y181623D01*
X950370Y181687D01*
X950379D01*
X950388Y181696D01*
X950415Y181705D01*
X950452Y181714D01*
X950543Y181741D01*
X950671Y181769D01*
X950816Y181796D01*
X950998Y181823D01*
X951190Y181842D01*
X951408Y181851D01*
X951509D01*
X951609Y181842D01*
D02*
G37*
G36*
X948275Y177177D02*
X947500D01*
Y183481D01*
X948275D01*
Y177177D01*
D02*
G37*
G36*
X915406Y182734D02*
X913329D01*
Y177177D01*
X912490D01*
Y182734D01*
X910413D01*
Y183481D01*
X915406D01*
Y182734D01*
D02*
G37*
G36*
X941706Y181842D02*
X941779Y181832D01*
X941870Y181814D01*
X941970Y181796D01*
X942089Y181769D01*
X942198Y181741D01*
X942326Y181696D01*
X942444Y181650D01*
X942572Y181586D01*
X942699Y181514D01*
X942827Y181431D01*
X942945Y181331D01*
X943054Y181222D01*
X943064Y181213D01*
X943082Y181195D01*
X943109Y181158D01*
X943146Y181104D01*
X943191Y181040D01*
X943237Y180967D01*
X943291Y180876D01*
X943346Y180766D01*
X943401Y180648D01*
X943455Y180520D01*
X943501Y180375D01*
X943546Y180220D01*
X943583Y180047D01*
X943610Y179865D01*
X943628Y179673D01*
X943638Y179464D01*
Y179455D01*
Y179418D01*
Y179354D01*
X943628Y179263D01*
X940212D01*
Y179254D01*
Y179227D01*
X940221Y179191D01*
Y179136D01*
X940230Y179072D01*
X940249Y178999D01*
X940276Y178835D01*
X940331Y178653D01*
X940403Y178453D01*
X940504Y178270D01*
X940631Y178106D01*
X940640D01*
X940650Y178088D01*
X940704Y178043D01*
X940786Y177979D01*
X940895Y177915D01*
X941041Y177842D01*
X941205Y177778D01*
X941387Y177733D01*
X941488Y177724D01*
X941597Y177715D01*
X941670D01*
X941752Y177724D01*
X941852Y177742D01*
X941961Y177769D01*
X942089Y177806D01*
X942207Y177860D01*
X942326Y177933D01*
X942335Y177942D01*
X942380Y177979D01*
X942435Y178033D01*
X942499Y178106D01*
X942572Y178207D01*
X942654Y178334D01*
X942736Y178480D01*
X942809Y178653D01*
X943610Y178553D01*
Y178544D01*
X943601Y178525D01*
X943592Y178489D01*
X943574Y178434D01*
X943546Y178380D01*
X943519Y178307D01*
X943446Y178152D01*
X943355Y177979D01*
X943228Y177797D01*
X943082Y177623D01*
X942900Y177460D01*
X942890D01*
X942872Y177441D01*
X942845Y177423D01*
X942809Y177396D01*
X942754Y177368D01*
X942699Y177341D01*
X942626Y177305D01*
X942544Y177268D01*
X942453Y177232D01*
X942362Y177195D01*
X942134Y177141D01*
X941879Y177095D01*
X941597Y177077D01*
X941497D01*
X941433Y177086D01*
X941351Y177095D01*
X941251Y177113D01*
X941141Y177132D01*
X941023Y177150D01*
X940768Y177223D01*
X940631Y177277D01*
X940504Y177332D01*
X940367Y177405D01*
X940240Y177487D01*
X940121Y177578D01*
X940003Y177687D01*
X939994Y177696D01*
X939975Y177715D01*
X939948Y177751D01*
X939912Y177806D01*
X939866Y177869D01*
X939820Y177942D01*
X939766Y178033D01*
X939711Y178134D01*
X939657Y178252D01*
X939602Y178380D01*
X939556Y178525D01*
X939511Y178680D01*
X939474Y178844D01*
X939447Y179026D01*
X939429Y179218D01*
X939420Y179418D01*
Y179427D01*
Y179473D01*
Y179527D01*
X939429Y179610D01*
X939438Y179710D01*
X939447Y179819D01*
X939465Y179947D01*
X939493Y180074D01*
X939565Y180366D01*
X939611Y180511D01*
X939666Y180666D01*
X939738Y180812D01*
X939820Y180949D01*
X939912Y181085D01*
X940012Y181213D01*
X940021Y181222D01*
X940039Y181240D01*
X940075Y181267D01*
X940121Y181313D01*
X940176Y181359D01*
X940249Y181413D01*
X940331Y181477D01*
X940431Y181532D01*
X940531Y181596D01*
X940650Y181650D01*
X940777Y181705D01*
X940914Y181750D01*
X941059Y181796D01*
X941214Y181823D01*
X941378Y181842D01*
X941551Y181851D01*
X941642D01*
X941706Y181842D01*
D02*
G37*
G36*
X918175D02*
X918257Y181832D01*
X918348Y181814D01*
X918448Y181796D01*
X918567Y181778D01*
X918813Y181696D01*
X918940Y181650D01*
X919068Y181586D01*
X919195Y181523D01*
X919323Y181431D01*
X919441Y181340D01*
X919560Y181231D01*
X919569Y181222D01*
X919587Y181204D01*
X919615Y181167D01*
X919651Y181122D01*
X919697Y181058D01*
X919751Y180976D01*
X919806Y180885D01*
X919860Y180785D01*
X919915Y180675D01*
X919970Y180539D01*
X920024Y180402D01*
X920070Y180247D01*
X920106Y180083D01*
X920134Y179910D01*
X920152Y179728D01*
X920161Y179527D01*
Y179518D01*
Y179491D01*
Y179446D01*
Y179382D01*
X920152Y179309D01*
X920143Y179218D01*
Y179127D01*
X920125Y179026D01*
X920097Y178799D01*
X920043Y178571D01*
X919979Y178343D01*
X919888Y178134D01*
Y178125D01*
X919879Y178115D01*
X919860Y178088D01*
X919842Y178052D01*
X919779Y177961D01*
X919697Y177851D01*
X919587Y177724D01*
X919450Y177596D01*
X919296Y177469D01*
X919113Y177350D01*
X919104D01*
X919095Y177341D01*
X919068Y177323D01*
X919022Y177305D01*
X918977Y177287D01*
X918922Y177268D01*
X918785Y177214D01*
X918631Y177168D01*
X918439Y177122D01*
X918239Y177086D01*
X918020Y177077D01*
X917929D01*
X917856Y177086D01*
X917774Y177095D01*
X917683Y177113D01*
X917574Y177132D01*
X917465Y177150D01*
X917219Y177223D01*
X917082Y177277D01*
X916954Y177332D01*
X916827Y177405D01*
X916699Y177487D01*
X916581Y177578D01*
X916462Y177687D01*
X916453Y177696D01*
X916435Y177715D01*
X916408Y177751D01*
X916371Y177806D01*
X916326Y177869D01*
X916280Y177942D01*
X916226Y178033D01*
X916171Y178143D01*
X916116Y178261D01*
X916062Y178398D01*
X916016Y178544D01*
X915971Y178699D01*
X915934Y178872D01*
X915907Y179054D01*
X915889Y179254D01*
X915879Y179464D01*
Y179482D01*
Y179518D01*
X915889Y179582D01*
Y179673D01*
X915898Y179773D01*
X915916Y179901D01*
X915934Y180029D01*
X915971Y180174D01*
X916007Y180320D01*
X916053Y180475D01*
X916107Y180639D01*
X916180Y180794D01*
X916253Y180940D01*
X916353Y181085D01*
X916453Y181222D01*
X916581Y181340D01*
X916590Y181350D01*
X916608Y181359D01*
X916645Y181386D01*
X916690Y181422D01*
X916745Y181459D01*
X916818Y181504D01*
X916891Y181550D01*
X916982Y181596D01*
X917082Y181641D01*
X917191Y181687D01*
X917437Y181769D01*
X917720Y181832D01*
X917865Y181842D01*
X918020Y181851D01*
X918111D01*
X918175Y181842D01*
D02*
G37*
G36*
X931430Y183581D02*
X931512D01*
X931594Y183572D01*
X931703Y183554D01*
X931813Y183536D01*
X932050Y183490D01*
X932323Y183417D01*
X932587Y183308D01*
X932724Y183244D01*
X932860Y183171D01*
X932870Y183162D01*
X932888Y183153D01*
X932924Y183126D01*
X932979Y183099D01*
X933033Y183053D01*
X933106Y182998D01*
X933261Y182871D01*
X933425Y182707D01*
X933607Y182507D01*
X933780Y182270D01*
X933926Y182005D01*
Y181996D01*
X933945Y181969D01*
X933963Y181933D01*
X933981Y181878D01*
X934017Y181805D01*
X934045Y181723D01*
X934081Y181623D01*
X934118Y181514D01*
X934145Y181395D01*
X934181Y181267D01*
X934218Y181122D01*
X934245Y180976D01*
X934282Y180657D01*
X934300Y180311D01*
Y180302D01*
Y180265D01*
Y180220D01*
X934291Y180147D01*
Y180065D01*
X934282Y179965D01*
X934263Y179856D01*
X934254Y179737D01*
X934209Y179473D01*
X934136Y179181D01*
X934036Y178890D01*
X933981Y178744D01*
X933908Y178598D01*
Y178589D01*
X933890Y178562D01*
X933872Y178525D01*
X933835Y178471D01*
X933799Y178407D01*
X933753Y178343D01*
X933626Y178170D01*
X933471Y177988D01*
X933289Y177797D01*
X933070Y177614D01*
X932815Y177451D01*
X932806D01*
X932788Y177432D01*
X932742Y177414D01*
X932687Y177387D01*
X932624Y177359D01*
X932551Y177332D01*
X932460Y177296D01*
X932359Y177259D01*
X932250Y177223D01*
X932132Y177186D01*
X931867Y177132D01*
X931585Y177086D01*
X931284Y177068D01*
X931193D01*
X931139Y177077D01*
X931057D01*
X930966Y177095D01*
X930865Y177104D01*
X930747Y177122D01*
X930501Y177177D01*
X930237Y177250D01*
X929963Y177359D01*
X929827Y177423D01*
X929690Y177496D01*
X929681Y177505D01*
X929663Y177514D01*
X929626Y177542D01*
X929572Y177578D01*
X929517Y177614D01*
X929453Y177669D01*
X929298Y177806D01*
X929125Y177970D01*
X928943Y178170D01*
X928779Y178398D01*
X928624Y178662D01*
Y178671D01*
X928606Y178699D01*
X928588Y178735D01*
X928570Y178790D01*
X928542Y178863D01*
X928515Y178945D01*
X928479Y179036D01*
X928451Y179136D01*
X928415Y179254D01*
X928378Y179373D01*
X928324Y179646D01*
X928287Y179928D01*
X928269Y180238D01*
Y180247D01*
Y180256D01*
Y180311D01*
X928278Y180393D01*
Y180502D01*
X928296Y180630D01*
X928314Y180785D01*
X928342Y180958D01*
X928378Y181140D01*
X928415Y181331D01*
X928469Y181532D01*
X928542Y181732D01*
X928624Y181942D01*
X928715Y182142D01*
X928834Y182343D01*
X928961Y182525D01*
X929107Y182698D01*
X929116Y182707D01*
X929144Y182734D01*
X929198Y182780D01*
X929262Y182834D01*
X929344Y182907D01*
X929444Y182980D01*
X929563Y183062D01*
X929699Y183144D01*
X929845Y183226D01*
X930009Y183308D01*
X930191Y183381D01*
X930383Y183454D01*
X930592Y183509D01*
X930811Y183554D01*
X931038Y183581D01*
X931284Y183591D01*
X931366D01*
X931430Y183581D01*
D02*
G37*
%LPC*%
G36*
X372131Y659631D02*
X369194D01*
Y659547D01*
Y659463D01*
Y659379D01*
Y659295D01*
Y659211D01*
Y659128D01*
Y659044D01*
Y658960D01*
X372131D01*
Y659044D01*
X372215D01*
Y659128D01*
Y659211D01*
Y659295D01*
Y659379D01*
Y659463D01*
Y659547D01*
X372131D01*
Y659631D01*
D02*
G37*
G36*
X372215Y658120D02*
X369194D01*
Y658037D01*
Y657953D01*
Y657869D01*
Y657785D01*
Y657701D01*
Y657617D01*
Y657533D01*
Y657449D01*
X372131D01*
Y657533D01*
X372215D01*
Y657617D01*
X372299D01*
Y657701D01*
Y657785D01*
Y657869D01*
Y657953D01*
Y658037D01*
X372215D01*
Y658120D01*
D02*
G37*
G36*
X923022Y181240D02*
X922976D01*
X922940Y181231D01*
X922849Y181213D01*
X922730Y181185D01*
X922593Y181131D01*
X922448Y181049D01*
X922366Y180994D01*
X922293Y180930D01*
X922220Y180858D01*
X922147Y180776D01*
Y180766D01*
X922129Y180757D01*
X922111Y180730D01*
X922092Y180694D01*
X922065Y180639D01*
X922029Y180584D01*
X921992Y180511D01*
X921965Y180438D01*
X921928Y180347D01*
X921892Y180247D01*
X921865Y180138D01*
X921828Y180019D01*
X921810Y179883D01*
X921792Y179746D01*
X921774Y179600D01*
Y179436D01*
Y179427D01*
Y179400D01*
Y179354D01*
X921783Y179291D01*
Y179218D01*
X921792Y179136D01*
X921819Y178945D01*
X921865Y178726D01*
X921919Y178516D01*
X922010Y178307D01*
X922065Y178216D01*
X922129Y178134D01*
X922147Y178115D01*
X922193Y178070D01*
X922266Y177997D01*
X922366Y177924D01*
X922493Y177851D01*
X922639Y177778D01*
X922803Y177733D01*
X922894Y177724D01*
X922985Y177715D01*
X923040D01*
X923076Y177724D01*
X923167Y177742D01*
X923295Y177769D01*
X923432Y177824D01*
X923577Y177897D01*
X923723Y178006D01*
X923796Y178070D01*
X923869Y178143D01*
Y178152D01*
X923887Y178161D01*
X923905Y178188D01*
X923923Y178225D01*
X923960Y178270D01*
X923987Y178334D01*
X924024Y178398D01*
X924060Y178480D01*
X924088Y178562D01*
X924124Y178671D01*
X924160Y178780D01*
X924188Y178899D01*
X924206Y179036D01*
X924224Y179181D01*
X924242Y179336D01*
Y179500D01*
Y179509D01*
Y179537D01*
Y179582D01*
X924233Y179646D01*
Y179719D01*
X924224Y179801D01*
X924197Y179992D01*
X924151Y180202D01*
X924088Y180411D01*
X923996Y180621D01*
X923942Y180721D01*
X923878Y180803D01*
Y180812D01*
X923860Y180821D01*
X923814Y180876D01*
X923741Y180940D01*
X923641Y181022D01*
X923514Y181104D01*
X923368Y181176D01*
X923204Y181222D01*
X923113Y181231D01*
X923022Y181240D01*
D02*
G37*
G36*
X952401Y179473D02*
X952392D01*
X952383Y179464D01*
X952356Y179455D01*
X952319Y179446D01*
X952274Y179427D01*
X952219Y179409D01*
X952155Y179391D01*
X952083Y179373D01*
X952001Y179345D01*
X951900Y179327D01*
X951800Y179300D01*
X951682Y179272D01*
X951554Y179245D01*
X951427Y179218D01*
X951281Y179200D01*
X951126Y179172D01*
X951108D01*
X951053Y179163D01*
X950962Y179145D01*
X950862Y179127D01*
X950753Y179109D01*
X950643Y179081D01*
X950543Y179054D01*
X950452Y179017D01*
X950443D01*
X950415Y178999D01*
X950379Y178981D01*
X950342Y178954D01*
X950233Y178881D01*
X950142Y178771D01*
Y178762D01*
X950124Y178744D01*
X950115Y178708D01*
X950097Y178662D01*
X950078Y178607D01*
X950060Y178553D01*
X950051Y178480D01*
X950042Y178407D01*
Y178398D01*
Y178352D01*
X950051Y178298D01*
X950069Y178225D01*
X950097Y178143D01*
X950142Y178061D01*
X950197Y177970D01*
X950270Y177888D01*
X950279Y177879D01*
X950315Y177860D01*
X950370Y177824D01*
X950443Y177787D01*
X950543Y177751D01*
X950661Y177715D01*
X950798Y177696D01*
X950962Y177687D01*
X951035D01*
X951126Y177696D01*
X951226Y177715D01*
X951354Y177733D01*
X951481Y177769D01*
X951618Y177815D01*
X951755Y177879D01*
X951773Y177888D01*
X951809Y177915D01*
X951873Y177961D01*
X951946Y178024D01*
X952028Y178097D01*
X952119Y178188D01*
X952192Y178298D01*
X952265Y178416D01*
X952274Y178425D01*
X952283Y178462D01*
X952301Y178525D01*
X952328Y178607D01*
X952356Y178717D01*
X952374Y178844D01*
X952383Y178999D01*
X952392Y179181D01*
X952401Y179473D01*
D02*
G37*
G36*
X941560Y181213D02*
X941506D01*
X941469Y181204D01*
X941369Y181195D01*
X941251Y181167D01*
X941105Y181122D01*
X940950Y181058D01*
X940804Y180967D01*
X940659Y180849D01*
X940640Y180830D01*
X940604Y180785D01*
X940540Y180703D01*
X940476Y180593D01*
X940403Y180466D01*
X940340Y180302D01*
X940285Y180111D01*
X940258Y179901D01*
X942818D01*
Y179910D01*
Y179928D01*
X942809Y179956D01*
Y179992D01*
X942790Y180102D01*
X942763Y180220D01*
X942717Y180366D01*
X942672Y180502D01*
X942599Y180639D01*
X942517Y180757D01*
Y180766D01*
X942499Y180776D01*
X942453Y180830D01*
X942371Y180903D01*
X942262Y180985D01*
X942125Y181067D01*
X941961Y181140D01*
X941770Y181195D01*
X941670Y181204D01*
X941560Y181213D01*
D02*
G37*
G36*
X918020D02*
X917966D01*
X917920Y181204D01*
X917820Y181195D01*
X917683Y181158D01*
X917528Y181104D01*
X917364Y181031D01*
X917209Y180921D01*
X917128Y180849D01*
X917055Y180776D01*
Y180766D01*
X917036Y180757D01*
X917018Y180730D01*
X916991Y180694D01*
X916963Y180648D01*
X916936Y180593D01*
X916900Y180520D01*
X916863Y180448D01*
X916827Y180357D01*
X916790Y180265D01*
X916763Y180156D01*
X916736Y180038D01*
X916708Y179910D01*
X916690Y179773D01*
X916681Y179619D01*
X916672Y179464D01*
Y179455D01*
Y179427D01*
Y179382D01*
X916681Y179318D01*
Y179245D01*
X916690Y179163D01*
X916718Y178972D01*
X916763Y178753D01*
X916836Y178534D01*
X916927Y178325D01*
X916991Y178234D01*
X917055Y178143D01*
X917064D01*
X917073Y178125D01*
X917128Y178079D01*
X917209Y178006D01*
X917319Y177933D01*
X917455Y177851D01*
X917619Y177778D01*
X917811Y177733D01*
X917911Y177724D01*
X918020Y177715D01*
X918075D01*
X918120Y177724D01*
X918221Y177742D01*
X918357Y177769D01*
X918503Y177824D01*
X918667Y177897D01*
X918822Y178006D01*
X918904Y178079D01*
X918977Y178152D01*
X918986Y178161D01*
X918995Y178170D01*
X919013Y178198D01*
X919041Y178234D01*
X919068Y178279D01*
X919104Y178334D01*
X919141Y178407D01*
X919177Y178480D01*
X919214Y178571D01*
X919241Y178671D01*
X919277Y178780D01*
X919305Y178899D01*
X919332Y179036D01*
X919350Y179172D01*
X919368Y179327D01*
Y179491D01*
Y179500D01*
Y179527D01*
Y179573D01*
X919359Y179628D01*
Y179701D01*
X919350Y179783D01*
X919323Y179974D01*
X919277Y180174D01*
X919205Y180393D01*
X919104Y180593D01*
X919050Y180694D01*
X918977Y180776D01*
Y180785D01*
X918959Y180794D01*
X918904Y180849D01*
X918822Y180912D01*
X918713Y180994D01*
X918576Y181076D01*
X918412Y181149D01*
X918230Y181195D01*
X918130Y181204D01*
X918020Y181213D01*
D02*
G37*
G36*
X931284Y182871D02*
X931202D01*
X931139Y182862D01*
X931057Y182853D01*
X930975Y182834D01*
X930875Y182816D01*
X930765Y182798D01*
X930528Y182725D01*
X930401Y182670D01*
X930273Y182616D01*
X930136Y182543D01*
X930009Y182461D01*
X929881Y182370D01*
X929763Y182261D01*
X929754Y182251D01*
X929736Y182233D01*
X929708Y182197D01*
X929663Y182142D01*
X929617Y182078D01*
X929563Y181996D01*
X929508Y181896D01*
X929444Y181778D01*
X929389Y181650D01*
X929326Y181495D01*
X929271Y181331D01*
X929226Y181149D01*
X929180Y180949D01*
X929153Y180721D01*
X929134Y180484D01*
X929125Y180229D01*
Y180220D01*
Y180183D01*
Y180120D01*
X929134Y180038D01*
X929144Y179947D01*
X929162Y179837D01*
X929180Y179710D01*
X929198Y179582D01*
X929271Y179291D01*
X929326Y179145D01*
X929380Y178990D01*
X929453Y178844D01*
X929535Y178699D01*
X929626Y178562D01*
X929736Y178434D01*
X929745Y178425D01*
X929763Y178407D01*
X929799Y178371D01*
X929845Y178334D01*
X929909Y178279D01*
X929982Y178225D01*
X930064Y178170D01*
X930155Y178106D01*
X930264Y178043D01*
X930383Y177988D01*
X930510Y177933D01*
X930647Y177879D01*
X930793Y177842D01*
X930938Y177806D01*
X931102Y177787D01*
X931275Y177778D01*
X931321D01*
X931366Y177787D01*
X931430D01*
X931512Y177797D01*
X931603Y177815D01*
X931713Y177833D01*
X931822Y177860D01*
X931949Y177897D01*
X932068Y177942D01*
X932205Y177988D01*
X932332Y178052D01*
X932460Y178134D01*
X932587Y178216D01*
X932715Y178316D01*
X932833Y178434D01*
X932842Y178443D01*
X932860Y178462D01*
X932888Y178507D01*
X932933Y178562D01*
X932979Y178626D01*
X933024Y178708D01*
X933079Y178808D01*
X933143Y178917D01*
X933197Y179045D01*
X933252Y179191D01*
X933298Y179345D01*
X933352Y179509D01*
X933389Y179692D01*
X933416Y179892D01*
X933434Y180102D01*
X933444Y180320D01*
Y180329D01*
Y180357D01*
Y180393D01*
Y180448D01*
X933434Y180511D01*
Y180593D01*
X933425Y180675D01*
X933407Y180776D01*
X933380Y180985D01*
X933334Y181204D01*
X933270Y181441D01*
X933179Y181659D01*
Y181668D01*
X933170Y181687D01*
X933152Y181714D01*
X933134Y181750D01*
X933070Y181860D01*
X932988Y181987D01*
X932879Y182133D01*
X932742Y182279D01*
X932587Y182424D01*
X932414Y182552D01*
X932405D01*
X932396Y182570D01*
X932368Y182579D01*
X932323Y182607D01*
X932277Y182625D01*
X932223Y182652D01*
X932086Y182716D01*
X931922Y182771D01*
X931731Y182825D01*
X931512Y182862D01*
X931284Y182871D01*
D02*
G37*
%LPD*%
D10*
X347678Y397155D02*
G03*
X347678Y399655I0J1250D01*
G01*
X458511Y352284D02*
G03*
X458511Y352284I-599J0D01*
G01*
X332447Y473779D02*
G03*
X332447Y476279I0J1250D01*
G01*
X411582Y473681D02*
G03*
X411582Y476181I0J1250D01*
G01*
X371149Y473799D02*
G03*
X371149Y476299I0J1250D01*
G01*
X520625Y484173D02*
G03*
X523125Y484173I1250J0D01*
G01*
X547801Y509525D02*
G03*
X535451Y517377I-12130J-5440D01*
G01*
X347678Y391895D02*
X367678D01*
Y404964D01*
X347678D02*
X367678D01*
X347678Y399655D02*
Y404964D01*
Y391895D02*
Y397155D01*
X332447Y468520D02*
Y473779D01*
Y476279D02*
Y481588D01*
X352447D01*
Y468520D02*
Y481588D01*
X332447Y468520D02*
X352447D01*
X431890Y657896D02*
X435827D01*
X431890Y655928D02*
X435827D01*
X431890D02*
X433858Y657896D01*
X435827Y655928D01*
X494094Y657874D02*
X498032D01*
X494094Y655905D02*
X498032D01*
X494094D02*
X496063Y657874D01*
X498032Y655905D01*
X483746Y657874D02*
X487683D01*
X483746Y655905D02*
X487683D01*
X483746D02*
X485714Y657874D01*
X487683Y655905D01*
X463048Y657874D02*
X466985D01*
X463048Y655905D02*
X466985D01*
X463048D02*
X465017Y657874D01*
X466985Y655905D01*
X473397Y657874D02*
X477334D01*
X473397Y655905D02*
X477334D01*
X473397D02*
X475365Y657874D01*
X477334Y655905D01*
X442351Y657874D02*
X446288D01*
X442351Y655905D02*
X446288D01*
X442351D02*
X444319Y657874D01*
X446288Y655905D01*
X452700Y657874D02*
X456637D01*
X452700Y655905D02*
X456637D01*
X452700D02*
X454668Y657874D01*
X456637Y655905D01*
X421496Y657972D02*
X425433D01*
X421496Y656004D02*
X425433D01*
X421496D02*
X423465Y657972D01*
X425433Y656004D01*
X411582Y468421D02*
X431582D01*
Y481490D01*
X411582D02*
X431582D01*
X411582Y476181D02*
Y481490D01*
Y468421D02*
Y473681D01*
X371149Y468539D02*
X391149D01*
Y481608D01*
X371149D02*
X391149D01*
X371149Y476299D02*
Y481608D01*
Y468539D02*
Y473799D01*
X515366Y464173D02*
Y484173D01*
Y464173D02*
X528434D01*
Y484173D01*
X523125D02*
X528434D01*
X515366D02*
X520625D01*
X527067Y517377D02*
Y529134D01*
Y517377D02*
X535451D01*
X547851Y509547D02*
X567126D01*
X417494Y617377D02*
X501378D01*
X527067Y529134D02*
X567126D01*
Y509547D02*
Y529134D01*
X527165Y560033D02*
X564376D01*
X567224Y557185D01*
Y530610D02*
Y557185D01*
X527165Y530610D02*
Y546097D01*
Y560033D01*
Y530610D02*
X567224D01*
X564921Y615822D02*
Y612906D01*
X565504Y612323D01*
X566671D01*
X567254Y612906D01*
Y615822D01*
X568420Y612323D02*
X569586D01*
X569003D01*
Y615822D01*
X568420Y615239D01*
X573668Y615822D02*
X572502Y615239D01*
X571336Y614072D01*
Y612906D01*
X571919Y612323D01*
X573085D01*
X573668Y612906D01*
Y613489D01*
X573085Y614072D01*
X571336D01*
X276626Y672654D02*
G03*
X261531Y656264I435J-15546D01*
G01*
X561803Y665073D02*
G03*
X550626Y672654I-11018J-4215D01*
G01*
X563022Y661886D02*
G03*
X573076Y654642I10532J4019D01*
G01*
X623365Y641708D02*
G03*
X610925Y654642I-12687J247D01*
G01*
X609075Y337545D02*
G03*
X623365Y351914I30J14260D01*
G01*
X577417Y337545D02*
G03*
X565059Y330674I31J-14604D01*
G01*
X550000Y322736D02*
G03*
X565059Y330674I661J17000D01*
G01*
X290174Y325762D02*
G03*
X296457Y322736I6097J4625D01*
G01*
X290271Y325688D02*
G03*
X281693Y329653I-8805J-7785D01*
G01*
X261532Y341993D02*
G03*
X274182Y329653I12282J-63D01*
G01*
X561803Y665073D02*
X563022Y661886D01*
X276626Y672654D02*
X550785D01*
X573076Y654642D02*
X577020D01*
X610925D01*
X623365Y351914D02*
Y641708D01*
X577417Y337545D02*
X609105D01*
X296457Y322736D02*
X550000D01*
X274182Y329653D02*
X281693D01*
X261531Y656264D02*
X261532Y341993D01*
D11*
X389685Y391831D02*
G03*
X389685Y391831I-315J0D01*
G01*
X324803Y551653D02*
X368110D01*
X324803D02*
Y597953D01*
X368110D01*
Y551653D02*
Y597953D01*
X458408Y383536D02*
X463141Y378803D01*
X472606Y388268D01*
X467873Y393001D02*
X472606Y388268D01*
X458408Y383536D02*
X467873Y393001D01*
D12*
X517028Y362421D02*
G03*
X517028Y362421I-492J0D01*
G01*
X437699Y374494D02*
G03*
X437699Y374494I-492J0D01*
G01*
X294193Y352756D02*
G03*
X294193Y352756I-492J0D01*
G01*
D13*
X435952Y384725D02*
G03*
X435952Y384725I-1181J0D01*
G01*
D14*
X344980Y397345D02*
Y399707D01*
X341043Y397345D02*
Y399707D01*
X390256Y391437D02*
X401476Y391437D01*
X390256Y377658D02*
Y391437D01*
Y377658D02*
X401476D01*
X401476Y391437D02*
X401476Y377658D01*
X493012Y370866D02*
Y373228D01*
X489075Y370866D02*
Y373228D01*
X506299Y367717D02*
X512598D01*
X506299Y376378D02*
X512598D01*
X283071Y367421D02*
Y368799D01*
X278445Y361319D02*
X283858D01*
X279035Y367421D02*
Y368799D01*
X356496Y365158D02*
X358858D01*
X356496Y361221D02*
X358858D01*
X481890Y424803D02*
X484252D01*
X481890Y428740D02*
X484252D01*
X386811Y383563D02*
Y385925D01*
X382874Y383563D02*
Y385925D01*
X394379Y371498D02*
X396741D01*
X394379Y375435D02*
X396741D01*
X469065Y374790D02*
X470735Y373119D01*
X471849Y377574D02*
X473519Y375903D01*
X474516Y380250D02*
X476186Y378580D01*
X477300Y383034D02*
X478970Y381364D01*
X506299Y396457D02*
X512598D01*
X506299Y405118D02*
X512598D01*
X505118Y356398D02*
Y357776D01*
X500492Y350295D02*
X505905D01*
X501083Y356398D02*
Y357776D01*
X489468Y355906D02*
Y358268D01*
X493405Y355906D02*
Y358268D01*
X548425Y346063D02*
X550787D01*
X548425Y342126D02*
X550787D01*
X555217Y353520D02*
Y355882D01*
X551279Y353520D02*
Y355882D01*
X477559Y412720D02*
Y415083D01*
X481496Y412720D02*
Y415083D01*
X488976Y413248D02*
Y414626D01*
X484350Y407146D02*
X489764D01*
X484941Y413248D02*
Y414626D01*
X452756Y375197D02*
X455118D01*
X452756Y371260D02*
X455118D01*
X287402Y367224D02*
Y369587D01*
X291339Y367224D02*
Y369587D01*
X287008Y409043D02*
Y411405D01*
X283071Y409043D02*
Y411405D01*
X279394Y409043D02*
Y411405D01*
X275457Y409043D02*
Y411405D01*
X323622Y485177D02*
X325984D01*
X323622Y489114D02*
X325984D01*
X362783Y485354D02*
X365145D01*
X362783Y489291D02*
X365145D01*
X402759Y485354D02*
X405121D01*
X402759Y489291D02*
X405121D01*
X500000Y492520D02*
Y494882D01*
X503937Y492520D02*
Y494882D01*
X517717Y385005D02*
Y387367D01*
X513779Y385005D02*
Y387367D01*
D15*
X470394Y327513D02*
X480394D01*
X470394D02*
Y347513D01*
X480394Y327513D02*
Y347513D01*
X470394D02*
X480394D01*
X266778Y513622D02*
X276778D01*
X266778D02*
Y533622D01*
X276778Y513622D02*
Y533622D01*
X266778D02*
X276778D01*
X456085Y353335D02*
Y364835D01*
X452085D02*
X456085D01*
X452085Y353335D02*
Y364835D01*
Y353335D02*
X456085D01*
X576476Y633759D02*
Y630807D01*
Y632283D01*
X578444D01*
Y633759D01*
Y630807D01*
X579428D02*
X580412D01*
X579920D01*
Y633759D01*
X579428Y633267D01*
X596654Y635432D02*
Y632480D01*
Y633956D01*
X598621D01*
Y635432D01*
Y632480D01*
X601573D02*
X599605D01*
X601573Y634448D01*
Y634940D01*
X601081Y635432D01*
X600097D01*
X599605Y634940D01*
X590434Y361456D02*
Y359488D01*
X591910D01*
X591418Y360472D01*
Y360964D01*
X591910Y361456D01*
X592894D01*
X593386Y360964D01*
Y359980D01*
X592894Y359488D01*
X593386Y364408D02*
Y362440D01*
X591418Y364408D01*
X590926D01*
X590434Y363916D01*
Y362932D01*
X590926Y362440D01*
X571694Y371102D02*
Y369134D01*
X573170D01*
X572678Y370118D01*
Y370610D01*
X573170Y371102D01*
X574154D01*
X574646Y370610D01*
Y369626D01*
X574154Y369134D01*
X574646Y372086D02*
Y373070D01*
Y372578D01*
X571694D01*
X572186Y372086D01*
X599686Y362204D02*
Y360236D01*
X601162D01*
X600670Y361220D01*
Y361712D01*
X601162Y362204D01*
X602146D01*
X602638Y361712D01*
Y360728D01*
X602146Y360236D01*
X602638Y363188D02*
Y364172D01*
Y363680D01*
X599686D01*
X600178Y363188D01*
X617757Y370629D02*
Y368661D01*
X619233D01*
X618741Y369645D01*
Y370137D01*
X619233Y370629D01*
X620217D01*
X620709Y370137D01*
Y369153D01*
X620217Y368661D01*
X620709Y373581D02*
Y371613D01*
X618741Y373581D01*
X618249D01*
X617757Y373089D01*
Y372105D01*
X618249Y371613D01*
X573465Y621457D02*
Y622441D01*
Y621949D01*
X570513D01*
X571005Y621457D01*
X593347Y631653D02*
Y629685D01*
X591379Y631653D01*
X590887D01*
X590395Y631161D01*
Y630177D01*
X590887Y629685D01*
X620866Y622677D02*
Y620709D01*
X618898Y622677D01*
X618406D01*
X617914Y622185D01*
Y621201D01*
X618406Y620709D01*
X600689Y629921D02*
Y630905D01*
Y630413D01*
X597737D01*
X598229Y629921D01*
D16*
X266205Y443460D02*
X267387D01*
X266205D02*
Y481343D01*
X267387D01*
X283528Y443405D02*
Y447342D01*
X282150Y443405D02*
X283528D01*
X267387Y481343D02*
Y487303D01*
X268174D01*
X267387Y437500D02*
X268174D01*
X267387D02*
Y443460D01*
X282150Y481398D02*
X283528D01*
Y477461D02*
Y481398D01*
X368055Y326673D02*
Y327854D01*
X330173Y326673D02*
X368055D01*
X330173D02*
Y327854D01*
X364173Y343996D02*
X368110D01*
Y342618D02*
Y343996D01*
X324213Y327854D02*
X330173D01*
X324213D02*
Y328642D01*
X374016Y327854D02*
Y328642D01*
X368055Y327854D02*
X374016D01*
X330118Y342618D02*
Y343996D01*
X334055D01*
X387992Y326457D02*
Y348307D01*
Y326457D02*
X459646D01*
X387992Y348307D02*
X424252D01*
X459646Y326457D02*
Y348307D01*
X424252D02*
X459646D01*
X522441Y341732D02*
X529528D01*
X522441Y361417D02*
X529528D01*
Y341732D02*
Y361417D01*
X522441Y341732D02*
Y361417D01*
X299311Y421055D02*
X326083D01*
Y380504D02*
Y421055D01*
X299311Y380504D02*
X326083D01*
X299311D02*
Y421055D01*
X290354Y421035D02*
X297933D01*
X434771Y379157D02*
X469848Y414234D01*
X399694Y414234D02*
X434771Y449311D01*
X399694Y414234D02*
X434771Y379157D01*
Y449311D02*
X469848Y414234D01*
X596161Y366161D02*
Y628169D01*
X576181Y366161D02*
Y628169D01*
X596181Y366161D02*
Y628169D01*
X576181D02*
X596181D01*
X576181Y366161D02*
X596181D01*
X596161Y628169D02*
X616319D01*
X596161Y366161D02*
X616319D01*
Y628169D01*
X266772Y545965D02*
Y604862D01*
X272185Y545965D02*
X276693D01*
Y604862D01*
X266772Y545965D02*
X272185D01*
X266772Y604862D02*
X276693D01*
X558976Y506575D02*
X568976D01*
Y466575D02*
Y506575D01*
X558976Y466575D02*
Y506575D01*
Y466575D02*
X568976D01*
X294685Y356201D02*
Y360138D01*
X306890Y356201D02*
Y360138D01*
X294685Y356201D02*
X306890D01*
X294685Y360138D02*
X306890D01*
X596200Y366174D02*
Y628182D01*
X576220Y366174D02*
Y628182D01*
X596220Y366174D02*
Y628182D01*
X576220D02*
X596220D01*
X576220Y366174D02*
X596220D01*
X596200Y628182D02*
X616358D01*
X596200Y366174D02*
X616358D01*
Y628182D01*
X570926Y477165D02*
X570434Y476673D01*
Y475689D01*
X570926Y475197D01*
X572894D01*
X573386Y475689D01*
Y476673D01*
X572894Y477165D01*
X571910D01*
Y476181D01*
X573386Y478149D02*
X570434D01*
X573386Y480117D01*
X570434D01*
Y481101D02*
X573386D01*
Y482576D01*
X572894Y483068D01*
X570926D01*
X570434Y482576D01*
Y481101D01*
X618564Y478858D02*
X618072Y478366D01*
Y477382D01*
X618564Y476890D01*
X620532D01*
X621024Y477382D01*
Y478366D01*
X620532Y478858D01*
X619548D01*
Y477874D01*
X621024Y479842D02*
X618072D01*
X621024Y481809D01*
X618072D01*
Y482793D02*
X621024D01*
Y484269D01*
X620532Y484761D01*
X618564D01*
X618072Y484269D01*
Y482793D01*
X573543Y400531D02*
X570591D01*
X572067Y399055D01*
Y401023D01*
X570591Y403975D02*
Y402007D01*
X572067D01*
X571575Y402991D01*
Y403483D01*
X572067Y403975D01*
X573051D01*
X573543Y403483D01*
Y402499D01*
X573051Y402007D01*
X621024Y399980D02*
X618072D01*
X619548Y398504D01*
Y400472D01*
X618072Y403424D02*
X618564Y402440D01*
X619548Y401456D01*
X620532D01*
X621024Y401948D01*
Y402932D01*
X620532Y403424D01*
X620040D01*
X619548Y402932D01*
Y401456D01*
X571083Y429095D02*
X570591Y429587D01*
Y430570D01*
X571083Y431062D01*
X571575D01*
X572067Y430570D01*
Y430078D01*
Y430570D01*
X572559Y431062D01*
X573051D01*
X573543Y430570D01*
Y429587D01*
X573051Y429095D01*
Y432046D02*
X573543Y432538D01*
Y433522D01*
X573051Y434014D01*
X571083D01*
X570591Y433522D01*
Y432538D01*
X571083Y432046D01*
X571575D01*
X572067Y432538D01*
Y434014D01*
X621024Y429862D02*
X618072D01*
X619548Y428386D01*
Y430354D01*
X618564Y431338D02*
X618072Y431830D01*
Y432814D01*
X618564Y433306D01*
X620532D01*
X621024Y432814D01*
Y431830D01*
X620532Y431338D01*
X618564D01*
X571083Y468976D02*
X570591Y469468D01*
Y470452D01*
X571083Y470944D01*
X571575D01*
X572067Y470452D01*
Y469960D01*
Y470452D01*
X572559Y470944D01*
X573051D01*
X573543Y470452D01*
Y469468D01*
X573051Y468976D01*
X573543Y471928D02*
Y472912D01*
Y472420D01*
X570591D01*
X571083Y471928D01*
X618564Y468701D02*
X618072Y469193D01*
Y470177D01*
X618564Y470669D01*
X619056D01*
X619548Y470177D01*
Y469685D01*
Y470177D01*
X620040Y470669D01*
X620532D01*
X621024Y470177D01*
Y469193D01*
X620532Y468701D01*
X621024Y473621D02*
Y471653D01*
X619056Y473621D01*
X618564D01*
X618072Y473129D01*
Y472145D01*
X618564Y471653D01*
X573543Y511180D02*
Y509213D01*
X571575Y511180D01*
X571083D01*
X570591Y510688D01*
Y509705D01*
X571083Y509213D01*
Y512164D02*
X570591Y512656D01*
Y513640D01*
X571083Y514132D01*
X571575D01*
X572067Y513640D01*
Y513148D01*
Y513640D01*
X572559Y514132D01*
X573051D01*
X573543Y513640D01*
Y512656D01*
X573051Y512164D01*
X621024Y510511D02*
Y508543D01*
X619056Y510511D01*
X618564D01*
X618072Y510019D01*
Y509035D01*
X618564Y508543D01*
X621024Y512971D02*
X618072D01*
X619548Y511495D01*
Y513463D01*
X573543Y548898D02*
Y549882D01*
Y549390D01*
X570591D01*
X571083Y548898D01*
X570591Y553325D02*
Y551358D01*
X572067D01*
X571575Y552341D01*
Y552833D01*
X572067Y553325D01*
X573051D01*
X573543Y552833D01*
Y551849D01*
X573051Y551358D01*
X621024Y548898D02*
Y549882D01*
Y549390D01*
X618072D01*
X618564Y548898D01*
X618072Y553325D02*
X618564Y552341D01*
X619548Y551358D01*
X620532D01*
X621024Y551849D01*
Y552833D01*
X620532Y553325D01*
X620040D01*
X619548Y552833D01*
Y551358D01*
X570591Y591024D02*
Y592991D01*
X571083D01*
X573051Y591024D01*
X573543D01*
X618564Y590079D02*
X618072Y590571D01*
Y591555D01*
X618564Y592047D01*
X619056D01*
X619548Y591555D01*
X620040Y592047D01*
X620532D01*
X621024Y591555D01*
Y590571D01*
X620532Y590079D01*
X620040D01*
X619548Y590571D01*
X619056Y590079D01*
X618564D01*
X619548Y590571D02*
Y591555D01*
D17*
X400136Y640810D02*
X400277D01*
X383251D02*
X383391D01*
X400042Y640857D02*
X400370D01*
X383157D02*
X383485D01*
X399995Y640904D02*
X400417D01*
X383110D02*
X383579D01*
X399901Y640950D02*
X400464D01*
X383063D02*
X383626D01*
X399854Y640997D02*
X400511D01*
X383016D02*
X383673D01*
X399761Y641044D02*
X400558D01*
X382969D02*
X383767D01*
X399714Y641091D02*
X400605D01*
X382922D02*
X383814D01*
X399620Y641138D02*
X400652D01*
X382875D02*
X383907D01*
X399573Y641185D02*
X400699D01*
X382828D02*
X383954D01*
X399479Y641232D02*
X400745D01*
X382782D02*
X384048D01*
X399432Y641279D02*
X400792D01*
X382735D02*
X384095D01*
X399385Y641326D02*
X400839D01*
X382688D02*
X384189D01*
X399291Y641373D02*
X400886D01*
X382641D02*
X384236D01*
X399245Y641420D02*
X400933D01*
X382594D02*
X384329D01*
X399151Y641466D02*
X400980D01*
X382547D02*
X384376D01*
X399104Y641513D02*
X401027D01*
X382500D02*
X384470D01*
X399010Y641560D02*
X401074D01*
X382453D02*
X384517D01*
X398963Y641607D02*
X401121D01*
X382406D02*
X384564D01*
X398869Y641654D02*
X401168D01*
X382360D02*
X384658D01*
X398822Y641701D02*
X401215D01*
X382313D02*
X384705D01*
X398729Y641748D02*
X401261D01*
X382266D02*
X384799D01*
X398682Y641795D02*
X401308D01*
X382219D02*
X384845D01*
X398635Y641842D02*
X401355D01*
X382172D02*
X384939D01*
X398541Y641889D02*
X401402D01*
X382125D02*
X384986D01*
X398494Y641935D02*
X401449D01*
X382078D02*
X385080D01*
X398400Y641982D02*
X401496D01*
X382031D02*
X385127D01*
X398354Y642029D02*
X401543D01*
X381984D02*
X385221D01*
X398260Y642076D02*
X401590D01*
X395774D02*
X396008D01*
X387519D02*
X387753D01*
X381937D02*
X385267D01*
X398213Y642123D02*
X401637D01*
X395727D02*
X396102D01*
X387425D02*
X387800D01*
X381891D02*
X385314D01*
X398119Y642170D02*
X401684D01*
X395727D02*
X396196D01*
X387378D02*
X387800D01*
X381844D02*
X385408D01*
X398072Y642217D02*
X401730D01*
X395680D02*
X396290D01*
X387284D02*
X387847D01*
X381797D02*
X385455D01*
X397978Y642264D02*
X401777D01*
X395680D02*
X396337D01*
X387191D02*
X387847D01*
X381750D02*
X385549D01*
X397931Y642311D02*
X401824D01*
X395680D02*
X396430D01*
X387097D02*
X387894D01*
X381703D02*
X385596D01*
X397884Y642357D02*
X401871D01*
X395633D02*
X396524D01*
X387003D02*
X387894D01*
X381656D02*
X385690D01*
X397791Y642404D02*
X401918D01*
X395633D02*
X396618D01*
X386909D02*
X387941D01*
X381609D02*
X385736D01*
X397744Y642451D02*
X401965D01*
X395586D02*
X396712D01*
X386815D02*
X387941D01*
X381562D02*
X385830D01*
X397650Y642498D02*
X402012D01*
X395586D02*
X396806D01*
X386721D02*
X387941D01*
X381515D02*
X385877D01*
X397603Y642545D02*
X402059D01*
X395539D02*
X396899D01*
X386675D02*
X387988D01*
X381468D02*
X385971D01*
X397509Y642592D02*
X402106D01*
X395539D02*
X396993D01*
X386581D02*
X387988D01*
X381421D02*
X386018D01*
X397462Y642639D02*
X402153D01*
X395539D02*
X397040D01*
X386487D02*
X388035D01*
X381375D02*
X386065D01*
X397369Y642686D02*
X402200D01*
X395492D02*
X397134D01*
X386393D02*
X388035D01*
X381328D02*
X386159D01*
X395492Y642733D02*
X402246D01*
X381281D02*
X388035D01*
X395445Y642780D02*
X402293D01*
X381234D02*
X388082D01*
X395445Y642827D02*
X402340D01*
X381187D02*
X388082D01*
X395445Y642873D02*
X402387D01*
X381140D02*
X388129D01*
X395398Y642920D02*
X402434D01*
X381093D02*
X388129D01*
X395398Y642967D02*
X402481D01*
X381046D02*
X388129D01*
X395352Y643014D02*
X402528D01*
X380999D02*
X388176D01*
X395352Y643061D02*
X402575D01*
X380952D02*
X388176D01*
X395352Y643108D02*
X402622D01*
X380906D02*
X388222D01*
X395305Y643155D02*
X402669D01*
X380859D02*
X388222D01*
X395305Y643202D02*
X402715D01*
X380812D02*
X388269D01*
X395258Y643249D02*
X402762D01*
X380765D02*
X388269D01*
X395258Y643296D02*
X402809D01*
X380718D02*
X388269D01*
X395211Y643342D02*
X402856D01*
X380671D02*
X388316D01*
X395211Y643389D02*
X402903D01*
X380671D02*
X388316D01*
X395211Y643436D02*
X402903D01*
X380624D02*
X388363D01*
X395164Y643483D02*
X402903D01*
X380624D02*
X388363D01*
X395164Y643530D02*
X402903D01*
X380624D02*
X388363D01*
X395117Y643577D02*
X402903D01*
X380671D02*
X388410D01*
X395117Y643624D02*
X402856D01*
X380671D02*
X388410D01*
X395117Y643671D02*
X402809D01*
X380718D02*
X388457D01*
X395070Y643718D02*
X402809D01*
X380718D02*
X388457D01*
X395070Y643765D02*
X402762D01*
X380765D02*
X388504D01*
X395023Y643812D02*
X402715D01*
X380812D02*
X388504D01*
X395023Y643858D02*
X402715D01*
X380859D02*
X388504D01*
X394976Y643905D02*
X402669D01*
X380859D02*
X388551D01*
X394976Y643952D02*
X402622D01*
X380906D02*
X388551D01*
X394976Y643999D02*
X402622D01*
X380952D02*
X388598D01*
X394930Y644046D02*
X402575D01*
X380952D02*
X388598D01*
X394930Y644093D02*
X402528D01*
X380999D02*
X388598D01*
X394883Y644140D02*
X402528D01*
X381046D02*
X388645D01*
X394883Y644187D02*
X402481D01*
X381046D02*
X388645D01*
X394883Y644234D02*
X402434D01*
X381093D02*
X388691D01*
X394836Y644281D02*
X402434D01*
X381140D02*
X388691D01*
X394836Y644327D02*
X402387D01*
X381140D02*
X388691D01*
X394789Y644374D02*
X402340D01*
X381187D02*
X388738D01*
X394789Y644421D02*
X402293D01*
X381234D02*
X388738D01*
X394789Y644468D02*
X402293D01*
X381234D02*
X388785D01*
X394742Y644515D02*
X402246D01*
X381281D02*
X388785D01*
X394742Y644562D02*
X402200D01*
X381328D02*
X388832D01*
X394695Y644609D02*
X402200D01*
X381375D02*
X388832D01*
X394695Y644656D02*
X402153D01*
X381375D02*
X388832D01*
X394648Y644703D02*
X402106D01*
X381421D02*
X388879D01*
X394648Y644750D02*
X402106D01*
X381468D02*
X388879D01*
X394648Y644797D02*
X402059D01*
X381468D02*
X388926D01*
X394601Y644843D02*
X402012D01*
X381515D02*
X388926D01*
X394601Y644890D02*
X402012D01*
X381562D02*
X388926D01*
X394554Y644937D02*
X401965D01*
X381562D02*
X388973D01*
X394554Y644984D02*
X401918D01*
X381609D02*
X388973D01*
X394554Y645031D02*
X401918D01*
X381656D02*
X389020D01*
X394507Y645078D02*
X401871D01*
X381656D02*
X389020D01*
X394507Y645125D02*
X401824D01*
X381703D02*
X389067D01*
X394461Y645172D02*
X401824D01*
X381750D02*
X389067D01*
X394461Y645219D02*
X401777D01*
X381750D02*
X389067D01*
X394414Y645265D02*
X401730D01*
X381797D02*
X389113D01*
X394414Y645312D02*
X401684D01*
X381844D02*
X389113D01*
X394414Y645359D02*
X401684D01*
X381844D02*
X389160D01*
X394367Y645406D02*
X401637D01*
X381891D02*
X389160D01*
X394367Y645453D02*
X401590D01*
X381937D02*
X389160D01*
X394320Y645500D02*
X401590D01*
X381984D02*
X389207D01*
X394320Y645547D02*
X401543D01*
X381984D02*
X389207D01*
X394320Y645594D02*
X401496D01*
X382031D02*
X389254D01*
X394273Y645641D02*
X401496D01*
X382078D02*
X389254D01*
X394273Y645688D02*
X401449D01*
X382078D02*
X389254D01*
X394226Y645735D02*
X401402D01*
X382125D02*
X389301D01*
X394226Y645782D02*
X401402D01*
X382172D02*
X389301D01*
X394226Y645828D02*
X401355D01*
X382172D02*
X389348D01*
X394179Y645875D02*
X401308D01*
X382219D02*
X389348D01*
X394179Y645922D02*
X401308D01*
X382266D02*
X389395D01*
X394132Y645969D02*
X401261D01*
X382266D02*
X389395D01*
X394132Y646016D02*
X401215D01*
X382313D02*
X389395D01*
X394085Y646063D02*
X401168D01*
X382360D02*
X389442D01*
X394085Y646110D02*
X401168D01*
X382360D02*
X389442D01*
X394085Y646157D02*
X401121D01*
X382406D02*
X389489D01*
X394038Y646204D02*
X401074D01*
X382453D02*
X389489D01*
X394038Y646250D02*
X401074D01*
X382500D02*
X389489D01*
X393991Y646297D02*
X401027D01*
X382500D02*
X389536D01*
X393991Y646344D02*
X400980D01*
X382547D02*
X389536D01*
X393991Y646391D02*
X400980D01*
X382594D02*
X389583D01*
X393945Y646438D02*
X400933D01*
X382594D02*
X389583D01*
X393945Y646485D02*
X400933D01*
X382594D02*
X389630D01*
X393898Y646532D02*
X400933D01*
X382594D02*
X389630D01*
X393898Y646579D02*
X400980D01*
X382594D02*
X389630D01*
X393851Y646626D02*
X400980D01*
X382547D02*
X389676D01*
X393851Y646673D02*
X400980D01*
X382547D02*
X389676D01*
X393851Y646720D02*
X401027D01*
X382547D02*
X389723D01*
X393804Y646766D02*
X401027D01*
X382500D02*
X389723D01*
X393804Y646813D02*
X401074D01*
X382500D02*
X389723D01*
X393757Y646860D02*
X401074D01*
X382453D02*
X389770D01*
X393757Y646907D02*
X401074D01*
X382453D02*
X389770D01*
X393757Y646954D02*
X401121D01*
X382453D02*
X389817D01*
X393710Y647001D02*
X401121D01*
X382406D02*
X389817D01*
X393710Y647048D02*
X401168D01*
X382406D02*
X389817D01*
X393663Y647095D02*
X401168D01*
X382360D02*
X389864D01*
X393663Y647142D02*
X401168D01*
X382360D02*
X389864D01*
X393663Y647189D02*
X401215D01*
X382360D02*
X389911D01*
X393616Y647235D02*
X401215D01*
X382313D02*
X389911D01*
X393616Y647282D02*
X401261D01*
X382313D02*
X389958D01*
X393569Y647329D02*
X401261D01*
X382266D02*
X389958D01*
X393569Y647376D02*
X401261D01*
X382266D02*
X389958D01*
X393522Y647423D02*
X401308D01*
X382266D02*
X390005D01*
X393522Y647470D02*
X401308D01*
X382219D02*
X390005D01*
X393522Y647517D02*
X401355D01*
X382219D02*
X390052D01*
X393476Y647564D02*
X401355D01*
X382172D02*
X390052D01*
X393476Y647611D02*
X401355D01*
X382172D02*
X390052D01*
X393429Y647658D02*
X401402D01*
X382172D02*
X390099D01*
X393429Y647705D02*
X401402D01*
X382125D02*
X390099D01*
X393429Y647751D02*
X401449D01*
X382125D02*
X390145D01*
X393382Y647798D02*
X401449D01*
X382078D02*
X390145D01*
X393382Y647845D02*
X401449D01*
X382078D02*
X390192D01*
X393335Y647892D02*
X401496D01*
X382078D02*
X390192D01*
X393335Y647939D02*
X401496D01*
X382031D02*
X390192D01*
X393288Y647986D02*
X401543D01*
X382031D02*
X390239D01*
X393288Y648033D02*
X401543D01*
X381984D02*
X390239D01*
X393288Y648080D02*
X401543D01*
X381984D02*
X390286D01*
X393241Y648127D02*
X401590D01*
X381984D02*
X390286D01*
X393241Y648174D02*
X401590D01*
X381937D02*
X390286D01*
X393288Y648220D02*
X401637D01*
X381937D02*
X390286D01*
X393288Y648267D02*
X401637D01*
X381891D02*
X390239D01*
X393335Y648314D02*
X401637D01*
X381891D02*
X390239D01*
X393382Y648361D02*
X401684D01*
X381891D02*
X390145D01*
X393476Y648408D02*
X401684D01*
X381844D02*
X390099D01*
X393522Y648455D02*
X401730D01*
X381844D02*
X390005D01*
X393616Y648502D02*
X401730D01*
X381797D02*
X389911D01*
X393663Y648549D02*
X401730D01*
X381797D02*
X389864D01*
X393757Y648596D02*
X401777D01*
X381797D02*
X389770D01*
X393804Y648642D02*
X401777D01*
X381750D02*
X389723D01*
X393851Y648689D02*
X401824D01*
X381750D02*
X389676D01*
X393945Y648736D02*
X401824D01*
X381703D02*
X389583D01*
X393991Y648783D02*
X401824D01*
X381703D02*
X389536D01*
X394085Y648830D02*
X401871D01*
X381703D02*
X389489D01*
X394132Y648877D02*
X401871D01*
X381656D02*
X389395D01*
X394179Y648924D02*
X401918D01*
X381656D02*
X389348D01*
X394226Y648971D02*
X401918D01*
X381609D02*
X389301D01*
X394320Y649018D02*
X401918D01*
X381609D02*
X389254D01*
X394367Y649065D02*
X401965D01*
X381609D02*
X389207D01*
X394414Y649112D02*
X401965D01*
X381562D02*
X389113D01*
X394461Y649158D02*
X402012D01*
X381562D02*
X389067D01*
X394507Y649205D02*
X402012D01*
X381515D02*
X389020D01*
X394554Y649252D02*
X402059D01*
X381515D02*
X388973D01*
X394601Y649299D02*
X402106D01*
X381468D02*
X388926D01*
X394648Y649346D02*
X402153D01*
X381375D02*
X388926D01*
X394695Y649393D02*
X402387D01*
X381140D02*
X388879D01*
X394695Y649440D02*
X402669D01*
X380859D02*
X388832D01*
X394742Y649487D02*
X402903D01*
X380624D02*
X388785D01*
X394789Y649534D02*
X403185D01*
X380390D02*
X388738D01*
X394836Y649581D02*
X403419D01*
X380108D02*
X388691D01*
X394883Y649627D02*
X403653D01*
X379874D02*
X388691D01*
X394883Y649674D02*
X403935D01*
X379639D02*
X388645D01*
X394930Y649721D02*
X404169D01*
X379358D02*
X388598D01*
X394976Y649768D02*
X404404D01*
X379123D02*
X388598D01*
X394976Y649815D02*
X404685D01*
X378842D02*
X388551D01*
X395023Y649862D02*
X404920D01*
X378607D02*
X388504D01*
X395070Y649909D02*
X405201D01*
X378373D02*
X388504D01*
X395070Y649956D02*
X405436D01*
X378091D02*
X388457D01*
X395117Y650003D02*
X405577D01*
X377951D02*
X388410D01*
X395117Y650050D02*
X405623D01*
X377904D02*
X388410D01*
X395164Y650097D02*
X405670D01*
X377857D02*
X388363D01*
X395164Y650143D02*
X405670D01*
X377857D02*
X388363D01*
X395211Y650190D02*
X405670D01*
X377857D02*
X388316D01*
X395211Y650237D02*
X405670D01*
X377857D02*
X388316D01*
X395258Y650284D02*
X405670D01*
X377857D02*
X388269D01*
X395258Y650331D02*
X405670D01*
X377857D02*
X388269D01*
X395305Y650378D02*
X405670D01*
X377857D02*
X388222D01*
X395305Y650425D02*
X405670D01*
X377857D02*
X388222D01*
X395352Y650472D02*
X405670D01*
X377857D02*
X388222D01*
X395352Y650519D02*
X405670D01*
X377857D02*
X388176D01*
X395398Y650566D02*
X405670D01*
X377857D02*
X388176D01*
X395398Y650612D02*
X405670D01*
X377857D02*
X388129D01*
X395398Y650659D02*
X405670D01*
X377857D02*
X388129D01*
X395445Y650706D02*
X405670D01*
X377857D02*
X388129D01*
X395445Y650753D02*
X405670D01*
X377857D02*
X388082D01*
X395445Y650800D02*
X405670D01*
X377857D02*
X388082D01*
X395492Y650847D02*
X405670D01*
X377857D02*
X388082D01*
X395492Y650894D02*
X405670D01*
X377857D02*
X388035D01*
X395492Y650941D02*
X405670D01*
X377857D02*
X388035D01*
X395492Y650988D02*
X405670D01*
X377857D02*
X388035D01*
X395539Y651035D02*
X405670D01*
X377857D02*
X388035D01*
X395539Y651082D02*
X405670D01*
X377857D02*
X387988D01*
X395539Y651128D02*
X405670D01*
X377857D02*
X387988D01*
X395539Y651175D02*
X405670D01*
X377857D02*
X387988D01*
X395539Y651222D02*
X405670D01*
X377857D02*
X387988D01*
X395586Y651269D02*
X405670D01*
X377857D02*
X387988D01*
X395586Y651316D02*
X405670D01*
X377857D02*
X387941D01*
X395586Y651363D02*
X405670D01*
X377857D02*
X387941D01*
X395586Y651410D02*
X405670D01*
X377857D02*
X387941D01*
X395586Y651457D02*
X405670D01*
X377857D02*
X387941D01*
X395586Y651504D02*
X405670D01*
X377857D02*
X387941D01*
X395586Y651550D02*
X405670D01*
X377857D02*
X387941D01*
X395633Y651597D02*
X405670D01*
X377857D02*
X387941D01*
X395633Y651644D02*
X405670D01*
X377857D02*
X387941D01*
X395633Y651691D02*
X405670D01*
X377857D02*
X387941D01*
X395633Y651738D02*
X405670D01*
X377857D02*
X387941D01*
X395633Y651785D02*
X405670D01*
X377857D02*
X387894D01*
X395633Y651832D02*
X405670D01*
X377857D02*
X387894D01*
X395633Y651879D02*
X405670D01*
X377857D02*
X387894D01*
X395633Y651926D02*
X405670D01*
X377857D02*
X387894D01*
X395633Y651973D02*
X405670D01*
X377857D02*
X387894D01*
X395633Y652020D02*
X405670D01*
X377857D02*
X387894D01*
X395633Y652067D02*
X405670D01*
X377857D02*
X387941D01*
X395633Y652113D02*
X405670D01*
X377857D02*
X387941D01*
X395633Y652160D02*
X405670D01*
X377857D02*
X387941D01*
X395633Y652207D02*
X405670D01*
X377857D02*
X387941D01*
X395586Y652254D02*
X405670D01*
X377857D02*
X387941D01*
X395586Y652301D02*
X405670D01*
X377857D02*
X387941D01*
X395586Y652348D02*
X405670D01*
X377857D02*
X387941D01*
X395586Y652395D02*
X405670D01*
X377857D02*
X387941D01*
X395586Y652442D02*
X405670D01*
X377857D02*
X387941D01*
X395586Y652489D02*
X405670D01*
X377857D02*
X387941D01*
X395586Y652535D02*
X405670D01*
X377857D02*
X387988D01*
X395539Y652582D02*
X405670D01*
X377857D02*
X387988D01*
X395539Y652629D02*
X405670D01*
X377857D02*
X387988D01*
X395539Y652676D02*
X405670D01*
X377857D02*
X387988D01*
X395539Y652723D02*
X405670D01*
X377857D02*
X387988D01*
X395539Y652770D02*
X405670D01*
X377857D02*
X388035D01*
X395492Y652817D02*
X405670D01*
X377857D02*
X388035D01*
X395492Y652864D02*
X405670D01*
X377857D02*
X388035D01*
X395492Y652911D02*
X405670D01*
X377857D02*
X388035D01*
X395492Y652958D02*
X405670D01*
X377857D02*
X388082D01*
X395445Y653005D02*
X405670D01*
X377857D02*
X388082D01*
X395445Y653051D02*
X405670D01*
X377857D02*
X388082D01*
X395445Y653098D02*
X405670D01*
X377857D02*
X388129D01*
X395398Y653145D02*
X405670D01*
X377857D02*
X388129D01*
X395398Y653192D02*
X405670D01*
X377857D02*
X388129D01*
X395398Y653239D02*
X405670D01*
X377857D02*
X388176D01*
X395352Y653286D02*
X405670D01*
X377857D02*
X388176D01*
X395352Y653333D02*
X405670D01*
X377857D02*
X388176D01*
X395305Y653380D02*
X405670D01*
X377857D02*
X388222D01*
X395305Y653427D02*
X405670D01*
X377857D02*
X388222D01*
X395305Y653474D02*
X405670D01*
X377857D02*
X388269D01*
X395258Y653520D02*
X405670D01*
X377857D02*
X388269D01*
X395258Y653567D02*
X405670D01*
X377857D02*
X388316D01*
X395211Y653614D02*
X405670D01*
X377857D02*
X388316D01*
X395211Y653661D02*
X405670D01*
X377857D02*
X388363D01*
X395164Y653708D02*
X405670D01*
X377857D02*
X388363D01*
X395164Y653755D02*
X405670D01*
X377857D02*
X388410D01*
X395117Y653802D02*
X405623D01*
X377904D02*
X388410D01*
X395070Y653849D02*
X405623D01*
X377951D02*
X388457D01*
X395070Y653896D02*
X405483D01*
X378044D02*
X388457D01*
X395023Y653943D02*
X405248D01*
X378279D02*
X388504D01*
X395023Y653990D02*
X404967D01*
X378560D02*
X388551D01*
X394976Y654036D02*
X404732D01*
X378795D02*
X388551D01*
X394930Y654083D02*
X404498D01*
X379076D02*
X388598D01*
X394930Y654130D02*
X404216D01*
X379311D02*
X388645D01*
X394883Y654177D02*
X403982D01*
X379545D02*
X388645D01*
X394836Y654224D02*
X403747D01*
X379827D02*
X388691D01*
X394789Y654271D02*
X403466D01*
X380061D02*
X388738D01*
X394789Y654318D02*
X403231D01*
X380296D02*
X388785D01*
X394742Y654365D02*
X402950D01*
X380577D02*
X388785D01*
X394695Y654412D02*
X402715D01*
X380812D02*
X388832D01*
X394648Y654459D02*
X402481D01*
X381093D02*
X388879D01*
X394601Y654505D02*
X402200D01*
X381328D02*
X388926D01*
X394554Y654552D02*
X402059D01*
X381515D02*
X388973D01*
X394507Y654599D02*
X401965D01*
X381562D02*
X389020D01*
X394461Y654646D02*
X401918D01*
X381609D02*
X389067D01*
X394414Y654693D02*
X401918D01*
X381609D02*
X389113D01*
X394367Y654740D02*
X401871D01*
X381656D02*
X389160D01*
X394320Y654787D02*
X401871D01*
X381656D02*
X389207D01*
X394273Y654834D02*
X401871D01*
X381703D02*
X389254D01*
X394226Y654881D02*
X401824D01*
X381703D02*
X389348D01*
X394179Y654927D02*
X401824D01*
X381750D02*
X389395D01*
X394085Y654974D02*
X401777D01*
X381750D02*
X389442D01*
X394038Y655021D02*
X401777D01*
X381750D02*
X389489D01*
X393945Y655068D02*
X401730D01*
X381797D02*
X389583D01*
X393898Y655115D02*
X401730D01*
X381797D02*
X389630D01*
X393804Y655162D02*
X401730D01*
X381844D02*
X389723D01*
X393757Y655209D02*
X401684D01*
X381844D02*
X389770D01*
X393663Y655256D02*
X401684D01*
X381891D02*
X389864D01*
X393569Y655303D02*
X401637D01*
X381891D02*
X389958D01*
X393476Y655350D02*
X401637D01*
X381891D02*
X390052D01*
X393382Y655397D02*
X401590D01*
X381937D02*
X390145D01*
X393288Y655443D02*
X401590D01*
X381937D02*
X390239D01*
X393194Y655490D02*
X401590D01*
X381984D02*
X390333D01*
X393053Y655537D02*
X401543D01*
X381984D02*
X390474D01*
X392913Y655584D02*
X401543D01*
X382031D02*
X390614D01*
X392772Y655631D02*
X401496D01*
X382031D02*
X390755D01*
X392584Y655678D02*
X401496D01*
X382031D02*
X390943D01*
X392303Y655725D02*
X401449D01*
X382078D02*
X391224D01*
X382078Y655772D02*
X401449D01*
X382125Y655819D02*
X401449D01*
X382125Y655866D02*
X401402D01*
X382172Y655912D02*
X401402D01*
X382172Y655959D02*
X401355D01*
X382172Y656006D02*
X401355D01*
X382219Y656053D02*
X401308D01*
X382219Y656100D02*
X401308D01*
X382266Y656147D02*
X401308D01*
X382266Y656194D02*
X401261D01*
X382313Y656241D02*
X401261D01*
X382313Y656288D02*
X401215D01*
X382313Y656335D02*
X401215D01*
X382360Y656382D02*
X401168D01*
X382360Y656428D02*
X401168D01*
X382406Y656475D02*
X401168D01*
X382406Y656522D02*
X401121D01*
X382453Y656569D02*
X401121D01*
X382453Y656616D02*
X401074D01*
X382453Y656663D02*
X401074D01*
X382500Y656710D02*
X401027D01*
X382500Y656757D02*
X401027D01*
X382547Y656804D02*
X401027D01*
X382547Y656851D02*
X400980D01*
X382594Y656897D02*
X400980D01*
X382594Y656944D02*
X400933D01*
X382594Y656991D02*
X400933D01*
X382641Y657038D02*
X400886D01*
X382641Y657085D02*
X400886D01*
X382688Y657132D02*
X400886D01*
X382688Y657179D02*
X400839D01*
X382688Y657226D02*
X400839D01*
X382688Y657273D02*
X400839D01*
X382688Y657320D02*
X400886D01*
X382641Y657367D02*
X400886D01*
X382594Y657413D02*
X400933D01*
X382594Y657460D02*
X400980D01*
X382547Y657507D02*
X400980D01*
X382500Y657554D02*
X401027D01*
X382500Y657601D02*
X401074D01*
X382453Y657648D02*
X401074D01*
X382406Y657695D02*
X401121D01*
X382406Y657742D02*
X401168D01*
X382360Y657789D02*
X401168D01*
X382313Y657835D02*
X401215D01*
X382313Y657882D02*
X401261D01*
X382266Y657929D02*
X401261D01*
X382219Y657976D02*
X401308D01*
X382219Y658023D02*
X401355D01*
X382172Y658070D02*
X401355D01*
X382125Y658117D02*
X401402D01*
X382078Y658164D02*
X401449D01*
X382078Y658211D02*
X401449D01*
X382031Y658258D02*
X401496D01*
X381984Y658305D02*
X401543D01*
X381984Y658352D02*
X401590D01*
X381937Y658398D02*
X401590D01*
X381891Y658445D02*
X401637D01*
X381891Y658492D02*
X401684D01*
X381844Y658539D02*
X401684D01*
X381797Y658586D02*
X401730D01*
X381797Y658633D02*
X401777D01*
X381750Y658680D02*
X401777D01*
X381703Y658727D02*
X401824D01*
X381703Y658774D02*
X401871D01*
X381656Y658820D02*
X401871D01*
X381609Y658867D02*
X401918D01*
X381562Y658914D02*
X401965D01*
X381562Y658961D02*
X401965D01*
X381515Y659008D02*
X402012D01*
X381468Y659055D02*
X402059D01*
X381468Y659102D02*
X402106D01*
X381421Y659149D02*
X402106D01*
X381375Y659196D02*
X402153D01*
X381375Y659243D02*
X402200D01*
X381328Y659290D02*
X402200D01*
X381281Y659336D02*
X402246D01*
X381281Y659383D02*
X402293D01*
X381234Y659430D02*
X402293D01*
X381187Y659477D02*
X402340D01*
X381187Y659524D02*
X402387D01*
X381140Y659571D02*
X402387D01*
X381093Y659618D02*
X402434D01*
X381046Y659665D02*
X402481D01*
X381046Y659712D02*
X402481D01*
X380999Y659759D02*
X402528D01*
X380952Y659805D02*
X402575D01*
X380952Y659852D02*
X402622D01*
X380906Y659899D02*
X402622D01*
X380859Y659946D02*
X402669D01*
X380859Y659993D02*
X402715D01*
X380812Y660040D02*
X402715D01*
X380765Y660087D02*
X402762D01*
X380765Y660134D02*
X402809D01*
X380718Y660181D02*
X402809D01*
X380671Y660228D02*
X402856D01*
X380671Y660275D02*
X402903D01*
X380624Y660321D02*
X402903D01*
X380624Y660368D02*
X402903D01*
X380624Y660415D02*
X402903D01*
X380671Y660462D02*
X402903D01*
X380671Y660509D02*
X402856D01*
X380718Y660556D02*
X402809D01*
X380765Y660603D02*
X402762D01*
X380812Y660650D02*
X402715D01*
X380859Y660697D02*
X402669D01*
X380906Y660744D02*
X402622D01*
X380952Y660790D02*
X402575D01*
X380999Y660837D02*
X402528D01*
X381046Y660884D02*
X402481D01*
X381093Y660931D02*
X402434D01*
X397087Y660978D02*
X402387D01*
X386581D02*
X396946D01*
X381140D02*
X386487D01*
X397181Y661025D02*
X402340D01*
X386721D02*
X396853D01*
X381187D02*
X386393D01*
X397228Y661072D02*
X402293D01*
X386815D02*
X396712D01*
X381234D02*
X386299D01*
X397322Y661119D02*
X402246D01*
X386909D02*
X396618D01*
X381281D02*
X386252D01*
X397369Y661166D02*
X402200D01*
X387050D02*
X396477D01*
X381328D02*
X386159D01*
X397415Y661213D02*
X402153D01*
X387144D02*
X396384D01*
X381375D02*
X386112D01*
X397509Y661260D02*
X402106D01*
X387284D02*
X396243D01*
X381421D02*
X386018D01*
X397556Y661306D02*
X402059D01*
X387378D02*
X396149D01*
X381468D02*
X385971D01*
X397650Y661353D02*
X402012D01*
X387519D02*
X396055D01*
X381515D02*
X385877D01*
X397697Y661400D02*
X401965D01*
X387613D02*
X395915D01*
X381562D02*
X385830D01*
X397791Y661447D02*
X401918D01*
X387753D02*
X395821D01*
X381609D02*
X385783D01*
X397837Y661494D02*
X401871D01*
X387847D02*
X395680D01*
X381656D02*
X385690D01*
X397931Y661541D02*
X401824D01*
X387941D02*
X395586D01*
X381703D02*
X385643D01*
X397978Y661588D02*
X401777D01*
X388082D02*
X395445D01*
X381750D02*
X385549D01*
X398072Y661635D02*
X401730D01*
X388176D02*
X395352D01*
X381797D02*
X385502D01*
X398119Y661682D02*
X401684D01*
X388316D02*
X395211D01*
X381844D02*
X385408D01*
X398166Y661728D02*
X401637D01*
X388410D02*
X395117D01*
X381891D02*
X385361D01*
X398260Y661775D02*
X401590D01*
X388551D02*
X395023D01*
X381937D02*
X385267D01*
X398306Y661822D02*
X401543D01*
X388645D02*
X394883D01*
X381984D02*
X385221D01*
X398400Y661869D02*
X401496D01*
X388785D02*
X394789D01*
X382031D02*
X385127D01*
X398447Y661916D02*
X401449D01*
X388879D02*
X394648D01*
X382078D02*
X385080D01*
X398541Y661963D02*
X401402D01*
X388973D02*
X394554D01*
X382125D02*
X385033D01*
X398588Y662010D02*
X401355D01*
X389067D02*
X394461D01*
X382172D02*
X384939D01*
X398682Y662057D02*
X401308D01*
X389113D02*
X394414D01*
X382219D02*
X384892D01*
X398729Y662104D02*
X401261D01*
X389113D02*
X394414D01*
X382266D02*
X384799D01*
X398822Y662151D02*
X401215D01*
X389160D02*
X394367D01*
X382313D02*
X384752D01*
X398869Y662197D02*
X401168D01*
X389160D02*
X394367D01*
X382360D02*
X384658D01*
X398916Y662244D02*
X401121D01*
X389160D02*
X394367D01*
X382406D02*
X384611D01*
X399010Y662291D02*
X401074D01*
X389160D02*
X394367D01*
X382453D02*
X384517D01*
X399057Y662338D02*
X401027D01*
X389207D02*
X394367D01*
X382500D02*
X384470D01*
X399151Y662385D02*
X400980D01*
X389207D02*
X394320D01*
X382547D02*
X384376D01*
X399198Y662432D02*
X400933D01*
X389207D02*
X394320D01*
X382594D02*
X384329D01*
X399291Y662479D02*
X400886D01*
X389207D02*
X394320D01*
X382641D02*
X384236D01*
X399338Y662526D02*
X400839D01*
X389207D02*
X394320D01*
X382688D02*
X384189D01*
X399432Y662573D02*
X400792D01*
X389254D02*
X394320D01*
X382735D02*
X384142D01*
X399479Y662620D02*
X400745D01*
X389254D02*
X394320D01*
X382782D02*
X384048D01*
X399573Y662667D02*
X400699D01*
X389254D02*
X394273D01*
X382828D02*
X384001D01*
X399620Y662713D02*
X400652D01*
X389254D02*
X394273D01*
X382875D02*
X383907D01*
X399714Y662760D02*
X400605D01*
X389254D02*
X394273D01*
X382922D02*
X383860D01*
X399761Y662807D02*
X400558D01*
X389254D02*
X394273D01*
X382969D02*
X383767D01*
X399807Y662854D02*
X400511D01*
X389301D02*
X394273D01*
X383016D02*
X383720D01*
X399901Y662901D02*
X400464D01*
X389301D02*
X394226D01*
X383063D02*
X383626D01*
X399948Y662948D02*
X400417D01*
X389301D02*
X394226D01*
X383110D02*
X383579D01*
X400042Y662995D02*
X400370D01*
X389301D02*
X394226D01*
X383157D02*
X383485D01*
X400089Y663042D02*
X400323D01*
X389301D02*
X394226D01*
X383204D02*
X383438D01*
X389348Y663089D02*
X394226D01*
X389348Y663136D02*
X394179D01*
X389348Y663182D02*
X394179D01*
X389348Y663229D02*
X394179D01*
X389348Y663276D02*
X394179D01*
X389348Y663323D02*
X394179D01*
X389395Y663370D02*
X394179D01*
X389395Y663417D02*
X394132D01*
X389395Y663464D02*
X394132D01*
X389395Y663511D02*
X394132D01*
X389395Y663558D02*
X394132D01*
X389442Y663605D02*
X394132D01*
X389442Y663652D02*
X394085D01*
X389442Y663698D02*
X394085D01*
X389442Y663745D02*
X394085D01*
X389442Y663792D02*
X394085D01*
X389489Y663839D02*
X394085D01*
X389489Y663886D02*
X394085D01*
X389489Y663933D02*
X394038D01*
X389489Y663980D02*
X394038D01*
X389489Y664027D02*
X394038D01*
X389489Y664074D02*
X394038D01*
X389536Y664121D02*
X394038D01*
X389536Y664167D02*
X393991D01*
X389536Y664214D02*
X393991D01*
X389536Y664261D02*
X393991D01*
X389536Y664308D02*
X393991D01*
X389583Y664355D02*
X393991D01*
X389583Y664402D02*
X393945D01*
X389583Y664449D02*
X393945D01*
X389583Y664496D02*
X393945D01*
X389583Y664543D02*
X393945D01*
X389630Y664590D02*
X393945D01*
X389630Y664637D02*
X393945D01*
X389630Y664683D02*
X393898D01*
X389630Y664730D02*
X393898D01*
X389630Y664777D02*
X393898D01*
X389630Y664824D02*
X393898D01*
X389676Y664871D02*
X393898D01*
X389676Y664918D02*
X393851D01*
X389676Y664965D02*
X393851D01*
X389676Y665012D02*
X393851D01*
X389676Y665059D02*
X393851D01*
X389723Y665105D02*
X393851D01*
X389723Y665152D02*
X393804D01*
X389723Y665199D02*
X393804D01*
X389723Y665246D02*
X393804D01*
X389723Y665293D02*
X393804D01*
X389723Y665340D02*
X393804D01*
X389770Y665387D02*
X393804D01*
X389770Y665434D02*
X393757D01*
X389770Y665481D02*
X393757D01*
X389770Y665528D02*
X393757D01*
X389770Y665575D02*
X393757D01*
X389817Y665622D02*
X393757D01*
X389817Y665668D02*
X393710D01*
X389817Y665715D02*
X393710D01*
X389864Y665762D02*
X393710D01*
X389911Y665809D02*
X393616D01*
D18*
X339003Y647826D02*
X338698Y647674D01*
X338393Y647369D01*
X338241Y647064D01*
X338089Y646607D01*
Y645846D01*
X338241Y645389D01*
X338393Y645084D01*
X338698Y644779D01*
X339003Y644627D01*
X339612D01*
X339917Y644779D01*
X340222Y645084D01*
X340374Y645389D01*
X340526Y645846D01*
Y646607D01*
X340374Y647064D01*
X340222Y647369D01*
X339917Y647674D01*
X339612Y647826D01*
X339003D01*
X341273D02*
Y644627D01*
Y647826D02*
X342644D01*
X343101Y647674D01*
X343253Y647521D01*
X343406Y647217D01*
Y646912D01*
X343253Y646607D01*
X343101Y646455D01*
X342644Y646303D01*
X341273D02*
X342644D01*
X343101Y646150D01*
X343253Y645998D01*
X343406Y645693D01*
Y645236D01*
X343253Y644932D01*
X343101Y644779D01*
X342644Y644627D01*
X341273D01*
X344122Y647826D02*
Y644627D01*
Y647826D02*
X345188D01*
X345645Y647674D01*
X345950Y647369D01*
X346102Y647064D01*
X346254Y646607D01*
Y645846D01*
X346102Y645389D01*
X345950Y645084D01*
X345645Y644779D01*
X345188Y644627D01*
X344122D01*
X346971Y647826D02*
Y644627D01*
X349103Y647826D02*
Y644627D01*
X346971Y646303D02*
X349103D01*
X350139Y647064D02*
Y647217D01*
X350292Y647521D01*
X350444Y647674D01*
X350749Y647826D01*
X351358D01*
X351663Y647674D01*
X351815Y647521D01*
X351968Y647217D01*
Y646912D01*
X351815Y646607D01*
X351510Y646150D01*
X349987Y644627D01*
X352120D01*
X355350Y646760D02*
X356264Y644627D01*
X357178Y646760D02*
X356264Y644627D01*
X358610Y647826D02*
X358153Y647674D01*
X357848Y647217D01*
X357696Y646455D01*
Y645998D01*
X357848Y645236D01*
X358153Y644779D01*
X358610Y644627D01*
X358915D01*
X359372Y644779D01*
X359676Y645236D01*
X359829Y645998D01*
Y646455D01*
X359676Y647217D01*
X359372Y647674D01*
X358915Y647826D01*
X358610D01*
X360697Y644932D02*
X360545Y644779D01*
X360697Y644627D01*
X360849Y644779D01*
X360697Y644932D01*
X363378Y647826D02*
X361855D01*
X361703Y646455D01*
X361855Y646607D01*
X362312Y646760D01*
X362769D01*
X363226Y646607D01*
X363531Y646303D01*
X363683Y645846D01*
Y645541D01*
X363531Y645084D01*
X363226Y644779D01*
X362769Y644627D01*
X362312D01*
X361855Y644779D01*
X361703Y644932D01*
X361550Y645236D01*
X581266Y355856D02*
X579134D01*
Y354257D01*
X580200D01*
X579134D01*
Y352658D01*
X582333Y355856D02*
Y352658D01*
X583932D01*
X584466Y353191D01*
Y355323D01*
X583932Y355856D01*
X582333D01*
X585532Y352124D02*
X587664D01*
X588731Y355856D02*
Y352658D01*
X590330D01*
X590863Y353191D01*
Y353724D01*
X590330Y354257D01*
X588731D01*
X590330D01*
X590863Y354790D01*
Y355323D01*
X590330Y355856D01*
X588731D01*
X591930Y352658D02*
Y355856D01*
X593529D01*
X594062Y355323D01*
Y354257D01*
X593529Y353724D01*
X591930D01*
X592996D02*
X594062Y352658D01*
X267520Y504774D02*
Y502108D01*
X268053Y501575D01*
X269119D01*
X269652Y502108D01*
Y504774D01*
X270719Y501575D02*
Y503707D01*
X271785Y504774D01*
X272851Y503707D01*
Y501575D01*
Y503174D01*
X270719D01*
X273918Y501575D02*
Y504774D01*
X275517D01*
X276050Y504241D01*
Y503174D01*
X275517Y502641D01*
X273918D01*
X274984D02*
X276050Y501575D01*
X277117Y504774D02*
X279249D01*
X278183D01*
Y501575D01*
X278937Y517323D02*
Y520522D01*
X280537D01*
X281070Y519989D01*
Y518922D01*
X280537Y518389D01*
X278937D01*
X280003D02*
X281070Y517323D01*
X282136Y520522D02*
X284269Y517323D01*
Y520522D02*
X282136Y517323D01*
X278937Y530856D02*
X281070D01*
X280003D01*
Y527658D01*
X282136Y530856D02*
X284269Y527658D01*
Y530856D02*
X282136Y527658D01*
X266896Y629282D02*
X264764D01*
Y627682D01*
X265830D01*
X264764D01*
Y626083D01*
X267963Y629282D02*
Y626083D01*
X269562D01*
X270095Y626616D01*
Y628749D01*
X269562Y629282D01*
X267963D01*
X271162Y625550D02*
X273294D01*
X274361Y629282D02*
X276493D01*
X275427D01*
Y626083D01*
X277560Y629282D02*
Y626083D01*
X279692D01*
X510597Y624262D02*
X508465D01*
Y622662D01*
X509531D01*
X508465D01*
Y621063D01*
X511663Y624262D02*
Y621063D01*
X513263D01*
X513796Y621596D01*
Y623729D01*
X513263Y624262D01*
X511663D01*
X514862Y620530D02*
X516995D01*
X518061Y624262D02*
X520194D01*
X519128D01*
Y621063D01*
X521260D02*
Y624262D01*
X522860D01*
X523393Y623729D01*
Y622662D01*
X522860Y622129D01*
X521260D01*
X522327D02*
X523393Y621063D01*
X300361Y540953D02*
X299828Y541486D01*
X298762D01*
X298228Y540953D01*
Y538821D01*
X298762Y538287D01*
X299828D01*
X300361Y538821D01*
Y539887D01*
X299295D01*
X301427Y538287D02*
Y541486D01*
X303560Y538287D01*
Y541486D01*
X304626D02*
Y538287D01*
X306226D01*
X306759Y538821D01*
Y540953D01*
X306226Y541486D01*
X304626D01*
X300147Y485933D02*
X299614Y486467D01*
X298547D01*
X298014Y485933D01*
Y483801D01*
X298547Y483268D01*
X299614D01*
X300147Y483801D01*
Y484867D01*
X299080D01*
X301213Y483268D02*
Y486467D01*
X303346Y483268D01*
Y486467D01*
X304412D02*
Y483268D01*
X306012D01*
X306545Y483801D01*
Y485933D01*
X306012Y486467D01*
X304412D01*
X269389Y401682D02*
X268856Y402215D01*
X267790D01*
X267257Y401682D01*
Y399549D01*
X267790Y399016D01*
X268856D01*
X269389Y399549D01*
Y400615D01*
X268323D01*
X270456Y399016D02*
Y402215D01*
X272588Y399016D01*
Y402215D01*
X273655D02*
Y399016D01*
X275254D01*
X275787Y399549D01*
Y401682D01*
X275254Y402215D01*
X273655D01*
X364426Y376878D02*
X363893Y377412D01*
X362827D01*
X362294Y376878D01*
Y374746D01*
X362827Y374213D01*
X363893D01*
X364426Y374746D01*
Y375812D01*
X363360D01*
X365493Y374213D02*
Y377412D01*
X367625Y374213D01*
Y377412D01*
X368692D02*
Y374213D01*
X370291D01*
X370824Y374746D01*
Y376878D01*
X370291Y377412D01*
X368692D01*
X439517Y524221D02*
X438984Y524754D01*
X437917D01*
X437384Y524221D01*
Y522088D01*
X437917Y521555D01*
X438984D01*
X439517Y522088D01*
Y523155D01*
X438450D01*
X440583Y521555D02*
Y524754D01*
X442716Y521555D01*
Y524754D01*
X443782D02*
Y521555D01*
X445382D01*
X445915Y522088D01*
Y524221D01*
X445382Y524754D01*
X443782D01*
X546997Y602371D02*
X546464Y602904D01*
X545398D01*
X544865Y602371D01*
Y600238D01*
X545398Y599705D01*
X546464D01*
X546997Y600238D01*
Y601304D01*
X545931D01*
X548064Y599705D02*
Y602904D01*
X550196Y599705D01*
Y602904D01*
X551262D02*
Y599705D01*
X552862D01*
X553395Y600238D01*
Y602371D01*
X552862Y602904D01*
X551262D01*
X311713Y557762D02*
Y554563D01*
X313312D01*
X313845Y555096D01*
Y557229D01*
X313312Y557762D01*
X311713D01*
X314912D02*
Y555629D01*
X315978Y554563D01*
X317044Y555629D01*
Y557762D01*
X320243Y557229D02*
X319710Y557762D01*
X318644D01*
X318110Y557229D01*
Y555096D01*
X318644Y554563D01*
X319710D01*
X320243Y555096D01*
X323442Y557229D02*
X322909Y557762D01*
X321843D01*
X321309Y557229D01*
Y555096D01*
X321843Y554563D01*
X322909D01*
X323442Y555096D01*
X314712Y559319D02*
Y561451D01*
X315778Y562518D01*
X316844Y561451D01*
Y559319D01*
Y560918D01*
X314712D01*
X317911Y559319D02*
Y562518D01*
X320043Y559319D01*
Y562518D01*
X321110D02*
X323242D01*
X322176D01*
Y559319D01*
X314712Y567318D02*
Y564119D01*
X316311D01*
X316844Y564652D01*
Y565185D01*
X316311Y565718D01*
X314712D01*
X316311D01*
X316844Y566252D01*
Y566785D01*
X316311Y567318D01*
X314712D01*
X317911Y564119D02*
Y566252D01*
X318977Y567318D01*
X320043Y566252D01*
Y564119D01*
Y565718D01*
X317911D01*
X321110Y567318D02*
X323242D01*
X322176D01*
Y564119D01*
X314139Y571760D02*
X313606Y572294D01*
X312540D01*
X312007Y571760D01*
Y569628D01*
X312540Y569095D01*
X313606D01*
X314139Y569628D01*
Y570694D01*
X313073D01*
X315206Y569095D02*
Y572294D01*
X316805D01*
X317338Y571760D01*
Y570694D01*
X316805Y570161D01*
X315206D01*
X318405Y572294D02*
X319471D01*
X318938D01*
Y569095D01*
X318405D01*
X319471D01*
X322670Y572294D02*
X321603D01*
X321070Y571760D01*
Y569628D01*
X321603Y569095D01*
X322670D01*
X323203Y569628D01*
Y571760D01*
X322670Y572294D01*
X317844Y582695D02*
X317311Y583228D01*
X316245D01*
X315711Y582695D01*
Y582162D01*
X316245Y581629D01*
X317311D01*
X317844Y581095D01*
Y580562D01*
X317311Y580029D01*
X316245D01*
X315711Y580562D01*
X318910Y580029D02*
Y583228D01*
X320510D01*
X321043Y582695D01*
Y581629D01*
X320510Y581095D01*
X318910D01*
X322109Y583228D02*
X323176D01*
X322642D01*
Y580029D01*
X322109D01*
X323176D01*
X319843Y592439D02*
X319310Y592972D01*
X318244D01*
X317711Y592439D01*
Y590306D01*
X318244Y589773D01*
X319310D01*
X319843Y590306D01*
X323042Y592439D02*
X322509Y592972D01*
X321443D01*
X320910Y592439D01*
Y591906D01*
X321443Y591373D01*
X322509D01*
X323042Y590839D01*
Y590306D01*
X322509Y589773D01*
X321443D01*
X320910Y590306D01*
X372900Y561654D02*
X372367Y562187D01*
X371301D01*
X370768Y561654D01*
Y559521D01*
X371301Y558988D01*
X372367D01*
X372900Y559521D01*
Y560588D01*
X371834D01*
X373967Y558988D02*
Y562187D01*
X376099Y558988D01*
Y562187D01*
X377166D02*
Y558988D01*
X378765D01*
X379298Y559521D01*
Y561654D01*
X378765Y562187D01*
X377166D01*
X372900Y572646D02*
X372367Y573179D01*
X371301D01*
X370768Y572646D01*
Y570513D01*
X371301Y569980D01*
X372367D01*
X372900Y570513D01*
Y571580D01*
X371834D01*
X373967Y569980D02*
Y573179D01*
X375566D01*
X376099Y572646D01*
Y571580D01*
X375566Y571047D01*
X373967D01*
X377166Y573179D02*
X378232D01*
X377699D01*
Y569980D01*
X377166D01*
X378232D01*
X381431Y573179D02*
X380365D01*
X379832Y572646D01*
Y570513D01*
X380365Y569980D01*
X381431D01*
X381964Y570513D01*
Y572646D01*
X381431Y573179D01*
X370965Y575689D02*
Y577822D01*
X372031Y578888D01*
X373097Y577822D01*
Y575689D01*
Y577288D01*
X370965D01*
X374164Y578888D02*
Y575689D01*
X375763D01*
X376296Y576222D01*
Y578355D01*
X375763Y578888D01*
X374164D01*
X379495Y578355D02*
X378962Y578888D01*
X377896D01*
X377362Y578355D01*
Y576222D01*
X377896Y575689D01*
X378962D01*
X379495Y576222D01*
X370768Y591880D02*
X371834D01*
X371301D01*
Y588681D01*
X370768D01*
X371834D01*
X375566D02*
X373433D01*
X375566Y590814D01*
Y591347D01*
X375033Y591880D01*
X373967D01*
X373433Y591347D01*
X378765D02*
X378232Y591880D01*
X377166D01*
X376632Y591347D01*
Y589214D01*
X377166Y588681D01*
X378232D01*
X378765Y589214D01*
X518898Y662746D02*
Y659547D01*
X520497D01*
X521030Y660080D01*
Y662213D01*
X520497Y662746D01*
X518898D01*
X522097Y659014D02*
X524229D01*
X525296Y662746D02*
Y659547D01*
X526895D01*
X527428Y660080D01*
Y660614D01*
X526895Y661147D01*
X525296D01*
X526895D01*
X527428Y661680D01*
Y662213D01*
X526895Y662746D01*
X525296D01*
X530094D02*
X529028D01*
X528495Y662213D01*
Y660080D01*
X529028Y659547D01*
X530094D01*
X530627Y660080D01*
Y662213D01*
X530094Y662746D01*
X531694Y659547D02*
Y661680D01*
X532760Y662746D01*
X533826Y661680D01*
Y659547D01*
Y661147D01*
X531694D01*
X534893Y659547D02*
Y662746D01*
X536492D01*
X537025Y662213D01*
Y661147D01*
X536492Y660614D01*
X534893D01*
X535959D02*
X537025Y659547D01*
X538092Y662746D02*
Y659547D01*
X539691D01*
X540224Y660080D01*
Y662213D01*
X539691Y662746D01*
X538092D01*
X541290Y659014D02*
X543423D01*
X546622Y662213D02*
X546089Y662746D01*
X545023D01*
X544489Y662213D01*
Y660080D01*
X545023Y659547D01*
X546089D01*
X546622Y660080D01*
Y661147D01*
X545556D01*
X547688Y659547D02*
Y662746D01*
X549821Y659547D01*
Y662746D01*
X550887D02*
Y659547D01*
X552487D01*
X553020Y660080D01*
Y662213D01*
X552487Y662746D01*
X550887D01*
X360425Y353196D02*
X359892Y352663D01*
Y351597D01*
X360425Y351064D01*
X362557D01*
X363090Y351597D01*
Y352663D01*
X362557Y353196D01*
X361491D01*
Y352130D01*
X363090Y354263D02*
X359892D01*
X363090Y356395D01*
X359892D01*
Y357462D02*
X363090D01*
Y359061D01*
X362557Y359594D01*
X360425D01*
X359892Y359061D01*
Y357462D01*
X357893Y351064D02*
X354694D01*
Y352663D01*
X355227Y353196D01*
X356293D01*
X356826Y352663D01*
Y351064D01*
Y352130D02*
X357893Y353196D01*
X354694Y354263D02*
X357893Y356395D01*
X354694D02*
X357893Y354263D01*
X349768Y351064D02*
Y353196D01*
Y352130D01*
X352967D01*
X349768Y354263D02*
X352967Y356395D01*
X349768D02*
X352967Y354263D01*
X344842Y351064D02*
Y353196D01*
Y352130D01*
X348041D01*
X345375Y356395D02*
X344842Y355862D01*
Y354796D01*
X345375Y354263D01*
X347508D01*
X348041Y354796D01*
Y355862D01*
X347508Y356395D01*
X344842Y357462D02*
X348041D01*
X346974D01*
X344842Y359594D01*
X346441Y357995D01*
X348041Y359594D01*
X339916Y351064D02*
Y353196D01*
Y352130D01*
X343115D01*
X339916Y354263D02*
X343115D01*
Y355862D01*
X342582Y356395D01*
X340449D01*
X339916Y355862D01*
Y354263D01*
Y359061D02*
Y357995D01*
X340449Y357462D01*
X342582D01*
X343115Y357995D01*
Y359061D01*
X342582Y359594D01*
X340449D01*
X339916Y359061D01*
X334990Y351064D02*
X337123D01*
X338189Y352130D01*
X337123Y353196D01*
X334990D01*
X335523Y356395D02*
X334990Y355862D01*
Y354796D01*
X335523Y354263D01*
X337656D01*
X338189Y354796D01*
Y355862D01*
X337656Y356395D01*
X335523Y359594D02*
X334990Y359061D01*
Y357995D01*
X335523Y357462D01*
X337656D01*
X338189Y357995D01*
Y359061D01*
X337656Y359594D01*
X292421Y473327D02*
Y475459D01*
X293488Y476526D01*
X294554Y475459D01*
Y473327D01*
Y474926D01*
X292421D01*
X295620Y473327D02*
Y476526D01*
X297753Y473327D01*
Y476526D01*
X298819D02*
X300952D01*
X299886D01*
Y473327D01*
X302018Y472794D02*
X304151D01*
X305217Y476526D02*
Y474393D01*
X306283Y473327D01*
X307350Y474393D01*
Y476526D01*
X310549Y475993D02*
X310016Y476526D01*
X308949D01*
X308416Y475993D01*
Y473860D01*
X308949Y473327D01*
X310016D01*
X310549Y473860D01*
X313748Y475993D02*
X313215Y476526D01*
X312148D01*
X311615Y475993D01*
Y473860D01*
X312148Y473327D01*
X313215D01*
X313748Y473860D01*
X292421Y468387D02*
Y470520D01*
X293488Y471586D01*
X294554Y470520D01*
Y468387D01*
Y469987D01*
X292421D01*
X295620Y468387D02*
Y471586D01*
X297753Y468387D01*
Y471586D01*
X298819D02*
X300952D01*
X299886D01*
Y468387D01*
X302018Y467854D02*
X304151D01*
X305217Y471586D02*
Y469454D01*
X306283Y468387D01*
X307350Y469454D01*
Y471586D01*
X310549Y471053D02*
X310016Y471586D01*
X308949D01*
X308416Y471053D01*
Y468921D01*
X308949Y468387D01*
X310016D01*
X310549Y468921D01*
X313748Y471053D02*
X313215Y471586D01*
X312148D01*
X311615Y471053D01*
Y468921D01*
X312148Y468387D01*
X313215D01*
X313748Y468921D01*
X292421Y466647D02*
X293488D01*
X292954D01*
Y463448D01*
X292421D01*
X293488D01*
X297220D02*
X295087D01*
X297220Y465581D01*
Y466114D01*
X296687Y466647D01*
X295620D01*
X295087Y466114D01*
X300419D02*
X299886Y466647D01*
X298819D01*
X298286Y466114D01*
Y463981D01*
X298819Y463448D01*
X299886D01*
X300419Y463981D01*
X301485Y462915D02*
X303618D01*
X306817Y466114D02*
X306283Y466647D01*
X305217D01*
X304684Y466114D01*
Y465581D01*
X305217Y465047D01*
X306283D01*
X306817Y464514D01*
Y463981D01*
X306283Y463448D01*
X305217D01*
X304684Y463981D01*
X307883Y466647D02*
Y463448D01*
X309482D01*
X310016Y463981D01*
Y466114D01*
X309482Y466647D01*
X307883D01*
X311082Y463448D02*
Y465581D01*
X312148Y466647D01*
X313215Y465581D01*
Y463448D01*
Y465047D01*
X311082D01*
X292421Y461707D02*
X293488D01*
X292954D01*
Y458509D01*
X292421D01*
X293488D01*
X297220D02*
X295087D01*
X297220Y460641D01*
Y461174D01*
X296687Y461707D01*
X295620D01*
X295087Y461174D01*
X300419D02*
X299886Y461707D01*
X298819D01*
X298286Y461174D01*
Y459042D01*
X298819Y458509D01*
X299886D01*
X300419Y459042D01*
X301485Y457975D02*
X303618D01*
X306817Y461174D02*
X306283Y461707D01*
X305217D01*
X304684Y461174D01*
Y460641D01*
X305217Y460108D01*
X306283D01*
X306817Y459575D01*
Y459042D01*
X306283Y458509D01*
X305217D01*
X304684Y459042D01*
X310016Y461174D02*
X309482Y461707D01*
X308416D01*
X307883Y461174D01*
Y459042D01*
X308416Y458509D01*
X309482D01*
X310016Y459042D01*
X311082Y461707D02*
Y458509D01*
X313215D01*
X294554Y455735D02*
X294021Y456268D01*
X292954D01*
X292421Y455735D01*
Y453603D01*
X292954Y453069D01*
X294021D01*
X294554Y453603D01*
Y454669D01*
X293488D01*
X295620Y453069D02*
Y456268D01*
X297220D01*
X297753Y455735D01*
Y454669D01*
X297220Y454136D01*
X295620D01*
X298819Y456268D02*
X299886D01*
X299352D01*
Y453069D01*
X298819D01*
X299886D01*
X303084Y456268D02*
X302018D01*
X301485Y455735D01*
Y453603D01*
X302018Y453069D01*
X303084D01*
X303618Y453603D01*
Y455735D01*
X303084Y456268D01*
X294554Y450796D02*
X294021Y451329D01*
X292954D01*
X292421Y450796D01*
Y448663D01*
X292954Y448130D01*
X294021D01*
X294554Y448663D01*
Y449729D01*
X293488D01*
X295620Y448130D02*
Y451329D01*
X297753Y448130D01*
Y451329D01*
X298819D02*
Y448130D01*
X300419D01*
X300952Y448663D01*
Y450796D01*
X300419Y451329D01*
X298819D01*
X281660Y551386D02*
X281127Y551919D01*
X280061D01*
X279528Y551386D01*
Y549254D01*
X280061Y548721D01*
X281127D01*
X281660Y549254D01*
Y550320D01*
X280594D01*
X282727Y548721D02*
Y551919D01*
X284859Y548721D01*
Y551919D01*
X285926D02*
Y548721D01*
X287525D01*
X288058Y549254D01*
Y551386D01*
X287525Y551919D01*
X285926D01*
X281660Y561273D02*
X281127Y561806D01*
X280061D01*
X279528Y561273D01*
Y559140D01*
X280061Y558607D01*
X281127D01*
X281660Y559140D01*
Y560206D01*
X280594D01*
X282727Y558607D02*
Y561806D01*
X284326D01*
X284859Y561273D01*
Y560206D01*
X284326Y559673D01*
X282727D01*
X285926Y561806D02*
X286992D01*
X286459D01*
Y558607D01*
X285926D01*
X286992D01*
X290191Y561806D02*
X289124D01*
X288591Y561273D01*
Y559140D01*
X289124Y558607D01*
X290191D01*
X290724Y559140D01*
Y561273D01*
X290191Y561806D01*
X279528Y572359D02*
X280594D01*
X280061D01*
Y569160D01*
X279528D01*
X280594D01*
X284326D02*
X282193D01*
X284326Y571292D01*
Y571826D01*
X283793Y572359D01*
X282727D01*
X282193Y571826D01*
X287525D02*
X286992Y572359D01*
X285926D01*
X285392Y571826D01*
Y569693D01*
X285926Y569160D01*
X286992D01*
X287525Y569693D01*
X288591Y568626D02*
X290724D01*
X293923Y571826D02*
X293390Y572359D01*
X292323D01*
X291790Y571826D01*
Y571292D01*
X292323Y570759D01*
X293390D01*
X293923Y570226D01*
Y569693D01*
X293390Y569160D01*
X292323D01*
X291790Y569693D01*
X297122Y571826D02*
X296589Y572359D01*
X295522D01*
X294989Y571826D01*
Y569693D01*
X295522Y569160D01*
X296589D01*
X297122Y569693D01*
X298188Y572359D02*
Y569160D01*
X300321D01*
X279528Y582245D02*
X280594D01*
X280061D01*
Y579046D01*
X279528D01*
X280594D01*
X284326D02*
X282193D01*
X284326Y581179D01*
Y581712D01*
X283793Y582245D01*
X282727D01*
X282193Y581712D01*
X287525D02*
X286992Y582245D01*
X285926D01*
X285392Y581712D01*
Y579579D01*
X285926Y579046D01*
X286992D01*
X287525Y579579D01*
X288591Y578513D02*
X290724D01*
X293923Y581712D02*
X293390Y582245D01*
X292323D01*
X291790Y581712D01*
Y581179D01*
X292323Y580646D01*
X293390D01*
X293923Y580112D01*
Y579579D01*
X293390Y579046D01*
X292323D01*
X291790Y579579D01*
X294989Y582245D02*
Y579046D01*
X296589D01*
X297122Y579579D01*
Y581712D01*
X296589Y582245D01*
X294989D01*
X298188Y579046D02*
Y581179D01*
X299254Y582245D01*
X300321Y581179D01*
Y579046D01*
Y580646D01*
X298188D01*
X279528Y588933D02*
Y591065D01*
X280594Y592131D01*
X281660Y591065D01*
Y588933D01*
Y590532D01*
X279528D01*
X282727Y588933D02*
Y592131D01*
X284859Y588933D01*
Y592131D01*
X285926D02*
X288058D01*
X286992D01*
Y588933D01*
X289124Y588399D02*
X291257D01*
X292323Y592131D02*
Y589999D01*
X293390Y588933D01*
X294456Y589999D01*
Y592131D01*
X297655Y591598D02*
X297122Y592131D01*
X296056D01*
X295522Y591598D01*
Y589466D01*
X296056Y588933D01*
X297122D01*
X297655Y589466D01*
X300854Y591598D02*
X300321Y592131D01*
X299254D01*
X298721Y591598D01*
Y589466D01*
X299254Y588933D01*
X300321D01*
X300854Y589466D01*
X279528Y598819D02*
Y600951D01*
X280594Y602018D01*
X281660Y600951D01*
Y598819D01*
Y600418D01*
X279528D01*
X282727Y598819D02*
Y602018D01*
X284859Y598819D01*
Y602018D01*
X285926D02*
X288058D01*
X286992D01*
Y598819D01*
X289124Y598286D02*
X291257D01*
X292323Y602018D02*
Y599885D01*
X293390Y598819D01*
X294456Y599885D01*
Y602018D01*
X297655Y601485D02*
X297122Y602018D01*
X296056D01*
X295522Y601485D01*
Y599352D01*
X296056Y598819D01*
X297122D01*
X297655Y599352D01*
X300854Y601485D02*
X300321Y602018D01*
X299254D01*
X298721Y601485D01*
Y599352D01*
X299254Y598819D01*
X300321D01*
X300854Y599352D01*
X484711Y331644D02*
X483645D01*
X484178D01*
Y328978D01*
X483645Y328445D01*
X483112D01*
X482579Y328978D01*
X485778Y327912D02*
X487910D01*
X491109Y331111D02*
X490576Y331644D01*
X489510D01*
X488977Y331111D01*
Y330577D01*
X489510Y330044D01*
X490576D01*
X491109Y329511D01*
Y328978D01*
X490576Y328445D01*
X489510D01*
X488977Y328978D01*
X492176Y331644D02*
Y328978D01*
X492709Y328445D01*
X493775D01*
X494308Y328978D01*
Y331644D01*
X495375Y328445D02*
Y331644D01*
X496974D01*
X497507Y331111D01*
Y330044D01*
X496974Y329511D01*
X495375D01*
X498574Y328445D02*
Y331644D01*
X500173D01*
X500706Y331111D01*
Y330044D01*
X500173Y329511D01*
X498574D01*
X501773Y331644D02*
Y328445D01*
X503905D01*
X504972Y331644D02*
Y331111D01*
X506038Y330044D01*
X507104Y331111D01*
Y331644D01*
X506038Y330044D02*
Y328445D01*
X318373Y347786D02*
X317306D01*
X317840D01*
Y345120D01*
X317306Y344587D01*
X316773D01*
X316240Y345120D01*
X319439Y347786D02*
X321572D01*
X320505D01*
Y344587D01*
X322638D02*
Y346719D01*
X323704Y347786D01*
X324771Y346719D01*
Y344587D01*
Y346186D01*
X322638D01*
X327970Y347252D02*
X327436Y347786D01*
X326370D01*
X325837Y347252D01*
Y345120D01*
X326370Y344587D01*
X327436D01*
X327970Y345120D01*
Y346186D01*
X326903D01*
X402034Y353297D02*
X400968D01*
X401501D01*
Y350632D01*
X400968Y350098D01*
X400435D01*
X399902Y350632D01*
X403100Y353297D02*
X405233D01*
X404167D01*
Y350098D01*
X406299D02*
Y352231D01*
X407366Y353297D01*
X408432Y352231D01*
Y350098D01*
Y351698D01*
X406299D01*
X411631Y352764D02*
X411098Y353297D01*
X410032D01*
X409499Y352764D01*
Y350632D01*
X410032Y350098D01*
X411098D01*
X411631Y350632D01*
Y351698D01*
X410565D01*
X269488Y429429D02*
Y431562D01*
X270554Y432628D01*
X271621Y431562D01*
Y429429D01*
Y431029D01*
X269488D01*
X272687Y429429D02*
Y432628D01*
X274820Y429429D01*
Y432628D01*
X275886D02*
X278019D01*
X276952D01*
Y429429D01*
X266535Y539567D02*
Y541700D01*
X267602Y542766D01*
X268668Y541700D01*
Y539567D01*
Y541166D01*
X266535D01*
X269734Y539567D02*
Y542766D01*
X271867Y539567D01*
Y542766D01*
X272933D02*
X275066D01*
X274000D01*
Y539567D01*
X332382Y549163D02*
Y545965D01*
X333981D01*
X334514Y546498D01*
Y548630D01*
X333981Y549163D01*
X332382D01*
X335581Y545431D02*
X337714D01*
X338780Y549163D02*
Y545965D01*
X340379D01*
X340913Y546498D01*
Y547031D01*
X340379Y547564D01*
X338780D01*
X340379D01*
X340913Y548097D01*
Y548630D01*
X340379Y549163D01*
X338780D01*
X343578D02*
X342512D01*
X341979Y548630D01*
Y546498D01*
X342512Y545965D01*
X343578D01*
X344111Y546498D01*
Y548630D01*
X343578Y549163D01*
X345178Y545965D02*
Y548097D01*
X346244Y549163D01*
X347310Y548097D01*
Y545965D01*
Y547564D01*
X345178D01*
X348377Y545965D02*
Y549163D01*
X349976D01*
X350509Y548630D01*
Y547564D01*
X349976Y547031D01*
X348377D01*
X349443D02*
X350509Y545965D01*
X351576Y549163D02*
Y545965D01*
X353175D01*
X353708Y546498D01*
Y548630D01*
X353175Y549163D01*
X351576D01*
X425057Y593895D02*
X422925D01*
X421858Y594962D01*
X422925Y596028D01*
X425057D01*
X423458D01*
Y593895D01*
X425057Y597094D02*
X421858D01*
X425057Y599227D01*
X421858D01*
Y600293D02*
Y602426D01*
Y601359D01*
X425057D01*
X425591Y603492D02*
Y605625D01*
X421858Y606691D02*
X423991D01*
X425057Y607757D01*
X423991Y608824D01*
X421858D01*
X422392Y612023D02*
X421858Y611489D01*
Y610423D01*
X422392Y609890D01*
X424524D01*
X425057Y610423D01*
Y611489D01*
X424524Y612023D01*
X422392Y615222D02*
X421858Y614688D01*
Y613622D01*
X422392Y613089D01*
X424524D01*
X425057Y613622D01*
Y614688D01*
X424524Y615222D01*
X432263Y589097D02*
Y588030D01*
X432796Y587497D01*
X434929D01*
X435462Y588030D01*
Y589097D01*
X434929Y589630D01*
X432796D01*
X432263Y589097D01*
Y590696D02*
X435462D01*
Y592296D01*
X434929Y592829D01*
X434396D01*
X433863Y592296D01*
Y590696D01*
Y592296D01*
X433330Y592829D01*
X432796D01*
X432263Y592296D01*
Y590696D01*
Y593895D02*
X435462D01*
Y595495D01*
X434929Y596028D01*
X432796D01*
X432263Y595495D01*
Y593895D01*
Y597094D02*
X435462D01*
X433863D01*
Y599227D01*
X432263D01*
X435462D01*
X435995Y600293D02*
Y602426D01*
X432263Y603492D02*
X435462D01*
Y605092D01*
X434929Y605625D01*
X432796D01*
X432263Y605092D01*
Y603492D01*
Y606691D02*
X434396D01*
X435462Y607757D01*
X434396Y608824D01*
X432263D01*
X432796Y612023D02*
X432263Y611489D01*
Y610423D01*
X432796Y609890D01*
X434929D01*
X435462Y610423D01*
Y611489D01*
X434929Y612023D01*
X432796Y615222D02*
X432263Y614688D01*
Y613622D01*
X432796Y613089D01*
X434929D01*
X435462Y613622D01*
Y614688D01*
X434929Y615222D01*
X442668Y591229D02*
X445334D01*
X445867Y591762D01*
Y592829D01*
X445334Y593362D01*
X442668D01*
X445867Y594428D02*
X443735D01*
X442668Y595495D01*
X443735Y596561D01*
X445867D01*
X444268D01*
Y594428D01*
X445867Y597627D02*
X442668D01*
Y599227D01*
X443201Y599760D01*
X444268D01*
X444801Y599227D01*
Y597627D01*
Y598694D02*
X445867Y599760D01*
X442668Y600826D02*
Y602959D01*
Y601893D01*
X445867D01*
Y604025D02*
Y605092D01*
Y604558D01*
X442668D01*
X443201Y604025D01*
X446400Y606691D02*
Y608824D01*
X442668Y609890D02*
Y612023D01*
Y610956D01*
X445867D01*
X442668Y613089D02*
X445867Y615222D01*
X442668D02*
X445867Y613089D01*
X453073Y591229D02*
X455739D01*
X456272Y591762D01*
Y592829D01*
X455739Y593362D01*
X453073D01*
X456272Y594428D02*
X454140D01*
X453073Y595495D01*
X454140Y596561D01*
X456272D01*
X454673D01*
Y594428D01*
X456272Y597627D02*
X453073D01*
Y599227D01*
X453606Y599760D01*
X454673D01*
X455206Y599227D01*
Y597627D01*
Y598694D02*
X456272Y599760D01*
X453073Y600826D02*
Y602959D01*
Y601893D01*
X456272D01*
Y604025D02*
Y605092D01*
Y604558D01*
X453073D01*
X453606Y604025D01*
X456805Y606691D02*
Y608824D01*
X456272Y609890D02*
X453073D01*
Y611489D01*
X453606Y612023D01*
X454673D01*
X455206Y611489D01*
Y609890D01*
Y610956D02*
X456272Y612023D01*
X453073Y613089D02*
X456272Y615222D01*
X453073D02*
X456272Y613089D01*
X463478Y590696D02*
X466144D01*
X466677Y591229D01*
Y592296D01*
X466144Y592829D01*
X463478D01*
X466677Y593895D02*
X464544D01*
X463478Y594962D01*
X464544Y596028D01*
X466677D01*
X465078D01*
Y593895D01*
X466677Y597094D02*
X463478D01*
Y598694D01*
X464011Y599227D01*
X465078D01*
X465611Y598694D01*
Y597094D01*
Y598160D02*
X466677Y599227D01*
X463478Y600293D02*
Y602426D01*
Y601359D01*
X466677D01*
X464011Y603492D02*
X463478Y604025D01*
Y605091D01*
X464011Y605625D01*
X466144D01*
X466677Y605091D01*
Y604025D01*
X466144Y603492D01*
X464011D01*
X467210Y606691D02*
Y608824D01*
X463478Y609890D02*
Y612023D01*
Y610956D01*
X466677D01*
X463478Y613089D02*
X466677Y615222D01*
X463478D02*
X466677Y613089D01*
X473883Y590696D02*
X476549D01*
X477082Y591229D01*
Y592296D01*
X476549Y592829D01*
X473883D01*
X477082Y593895D02*
X474950D01*
X473883Y594962D01*
X474950Y596028D01*
X477082D01*
X475483D01*
Y593895D01*
X477082Y597094D02*
X473883D01*
Y598694D01*
X474416Y599227D01*
X475483D01*
X476016Y598694D01*
Y597094D01*
Y598160D02*
X477082Y599227D01*
X473883Y600293D02*
Y602426D01*
Y601359D01*
X477082D01*
X474416Y603492D02*
X473883Y604025D01*
Y605091D01*
X474416Y605625D01*
X476549D01*
X477082Y605091D01*
Y604025D01*
X476549Y603492D01*
X474416D01*
X477615Y606691D02*
Y608824D01*
X477082Y609890D02*
X473883D01*
Y611489D01*
X474416Y612023D01*
X475483D01*
X476016Y611489D01*
Y609890D01*
Y610956D02*
X477082Y612023D01*
X473883Y613089D02*
X477082Y615222D01*
X473883D02*
X477082Y613089D01*
X495251Y586431D02*
X494718Y585898D01*
Y584831D01*
X495251Y584298D01*
X495785D01*
X496318Y584831D01*
Y585898D01*
X496851Y586431D01*
X497384D01*
X497917Y585898D01*
Y584831D01*
X497384Y584298D01*
X494718Y587497D02*
X495251D01*
X496318Y588563D01*
X495251Y589630D01*
X494718D01*
X496318Y588563D02*
X497917D01*
X495251Y592829D02*
X494718Y592296D01*
Y591229D01*
X495251Y590696D01*
X495785D01*
X496318Y591229D01*
Y592296D01*
X496851Y592829D01*
X497384D01*
X497917Y592296D01*
Y591229D01*
X497384Y590696D01*
X494718Y593895D02*
Y596028D01*
Y594962D01*
X497917D01*
X494718Y599227D02*
Y597094D01*
X497917D01*
Y599227D01*
X496318Y597094D02*
Y598160D01*
X497917Y600293D02*
X494718D01*
X495785Y601359D01*
X494718Y602426D01*
X497917D01*
X498450Y603492D02*
Y605625D01*
X494718Y606691D02*
X497917D01*
Y608824D01*
X494718Y612023D02*
Y609890D01*
X497917D01*
Y612023D01*
X496318Y609890D02*
Y610956D01*
X494718Y613089D02*
X497917D01*
Y614688D01*
X497384Y615222D01*
X495251D01*
X494718Y614688D01*
Y613089D01*
X484288Y589630D02*
Y587497D01*
X485888D01*
Y588563D01*
Y587497D01*
X487487D01*
Y590696D02*
X485354D01*
X484288Y591762D01*
X485354Y592829D01*
X487487D01*
X485888D01*
Y590696D01*
X484288Y593895D02*
X486954D01*
X487487Y594428D01*
Y595495D01*
X486954Y596028D01*
X484288D01*
Y597094D02*
X487487D01*
Y599227D01*
X484288Y600293D02*
Y602426D01*
Y601359D01*
X487487D01*
X488020Y603492D02*
Y605625D01*
X484288Y606691D02*
X487487D01*
Y608824D01*
X484288Y612023D02*
Y609890D01*
X487487D01*
Y612023D01*
X485888Y609890D02*
Y610956D01*
X484288Y613089D02*
X487487D01*
Y614688D01*
X486954Y615222D01*
X484821D01*
X484288Y614688D01*
Y613089D01*
X496689Y510335D02*
Y512467D01*
X497756Y513534D01*
X498822Y512467D01*
Y510335D01*
Y511934D01*
X496689D01*
X499888Y513534D02*
Y510335D01*
X501488D01*
X502021Y510868D01*
Y513000D01*
X501488Y513534D01*
X499888D01*
X503087D02*
Y510335D01*
X504687D01*
X505220Y510868D01*
Y513000D01*
X504687Y513534D01*
X503087D01*
X506286Y509801D02*
X508419D01*
X509485Y513534D02*
X510552D01*
X510018D01*
Y510335D01*
X509485D01*
X510552D01*
X514284D02*
X512151D01*
X514284Y512467D01*
Y513000D01*
X513751Y513534D01*
X512684D01*
X512151Y513000D01*
X517483D02*
X516950Y513534D01*
X515883D01*
X515350Y513000D01*
Y510868D01*
X515883Y510335D01*
X516950D01*
X517483Y510868D01*
X518549Y510335D02*
X519615D01*
X519082D01*
Y513534D01*
X518549Y513000D01*
X523228Y563189D02*
Y565322D01*
X524295Y566388D01*
X525361Y565322D01*
Y563189D01*
Y564788D01*
X523228D01*
X526427Y566388D02*
Y563189D01*
X528027D01*
X528560Y563722D01*
Y565855D01*
X528027Y566388D01*
X526427D01*
X529626D02*
Y563189D01*
X531226D01*
X531759Y563722D01*
Y565855D01*
X531226Y566388D01*
X529626D01*
X532825Y562656D02*
X534958D01*
X538157Y565855D02*
X537624Y566388D01*
X536557D01*
X536024Y565855D01*
Y563722D01*
X536557Y563189D01*
X537624D01*
X538157Y563722D01*
Y564788D01*
X537090D01*
X539223Y563189D02*
Y566388D01*
X540823D01*
X541356Y565855D01*
Y564788D01*
X540823Y564255D01*
X539223D01*
X542422Y566388D02*
X543489D01*
X542955D01*
Y563189D01*
X542422D01*
X543489D01*
X546687Y566388D02*
X545621D01*
X545088Y565855D01*
Y563722D01*
X545621Y563189D01*
X546687D01*
X547221Y563722D01*
Y565855D01*
X546687Y566388D01*
X348041Y420620D02*
Y417954D01*
X348574Y417421D01*
X349640D01*
X350173Y417954D01*
Y420620D01*
X351240Y417421D02*
X352306D01*
X351773D01*
Y420620D01*
X351240Y420087D01*
X353906Y417421D02*
X354972D01*
X354439D01*
Y420620D01*
X353906Y420087D01*
X341625Y384219D02*
X341092Y383686D01*
Y382620D01*
X341625Y382087D01*
X343758D01*
X344291Y382620D01*
Y383686D01*
X343758Y384219D01*
X341625Y385286D02*
X341092Y385819D01*
Y386885D01*
X341625Y387418D01*
X342159D01*
X342692Y386885D01*
Y386352D01*
Y386885D01*
X343225Y387418D01*
X343758D01*
X344291Y386885D01*
Y385819D01*
X343758Y385286D01*
X341625Y388485D02*
X341092Y389018D01*
Y390084D01*
X341625Y390617D01*
X342159D01*
X342692Y390084D01*
X343225Y390617D01*
X343758D01*
X344291Y390084D01*
Y389018D01*
X343758Y388485D01*
X343225D01*
X342692Y389018D01*
X342159Y388485D01*
X341625D01*
X342692Y389018D02*
Y390084D01*
X325098Y471900D02*
Y469234D01*
X325632Y468701D01*
X326698D01*
X327231Y469234D01*
Y471900D01*
X328297Y471367D02*
X328831Y471900D01*
X329897D01*
X330430Y471367D01*
Y470833D01*
X329897Y470300D01*
X330430Y469767D01*
Y469234D01*
X329897Y468701D01*
X328831D01*
X328297Y469234D01*
Y469767D01*
X328831Y470300D01*
X328297Y470833D01*
Y471367D01*
X328831Y470300D02*
X329897D01*
X551575Y502854D02*
Y506053D01*
X553174D01*
X553707Y505520D01*
Y504454D01*
X553174Y503921D01*
X551575D01*
X554774Y505520D02*
X555307Y506053D01*
X556373D01*
X556906Y505520D01*
Y504987D01*
X556373Y504454D01*
X556906Y503921D01*
Y503387D01*
X556373Y502854D01*
X555307D01*
X554774Y503387D01*
Y503921D01*
X555307Y504454D01*
X554774Y504987D01*
Y505520D01*
X555307Y504454D02*
X556373D01*
X267618Y507480D02*
Y510679D01*
X269218D01*
X269751Y510146D01*
Y509080D01*
X269218Y508547D01*
X267618D01*
X270817Y510679D02*
X272950D01*
Y510146D01*
X270817Y508013D01*
Y507480D01*
X267520Y607579D02*
Y610778D01*
X269119D01*
X269652Y610245D01*
Y609178D01*
X269119Y608645D01*
X267520D01*
X272851Y610778D02*
X270719D01*
Y609178D01*
X271785Y609711D01*
X272318D01*
X272851Y609178D01*
Y608112D01*
X272318Y607579D01*
X271252D01*
X270719Y608112D01*
X561417Y639665D02*
Y642864D01*
X563017D01*
X563550Y642331D01*
Y641265D01*
X563017Y640732D01*
X561417D01*
X562484D02*
X563550Y639665D01*
X564616Y639132D02*
X566749D01*
X569948Y642864D02*
X567815D01*
Y639665D01*
X569948D01*
X567815Y641265D02*
X568882D01*
X573147Y642331D02*
X572614Y642864D01*
X571547D01*
X571014Y642331D01*
Y641798D01*
X571547Y641265D01*
X572614D01*
X573147Y640732D01*
Y640199D01*
X572614Y639665D01*
X571547D01*
X571014Y640199D01*
X574213Y642864D02*
Y639665D01*
X575813D01*
X576346Y640199D01*
Y642331D01*
X575813Y642864D01*
X574213D01*
X489280Y381365D02*
Y379232D01*
X490880D01*
Y380299D01*
Y379232D01*
X492479D01*
X489280Y382431D02*
X492479D01*
Y384031D01*
X491946Y384564D01*
X491413D01*
X490880Y384031D01*
Y382431D01*
Y384031D01*
X490347Y384564D01*
X489814D01*
X489280Y384031D01*
Y382431D01*
X492479Y387763D02*
Y385630D01*
X490347Y387763D01*
X489814D01*
X489280Y387230D01*
Y386163D01*
X489814Y385630D01*
X457876Y389368D02*
X458253Y388991D01*
X459761D01*
Y390499D01*
X459384Y390876D01*
X459761Y388991D02*
X460892Y387860D01*
X463908Y390876D02*
X462400Y389368D01*
Y392384D01*
X462023Y392761D01*
X461269Y392761D01*
X460515Y392007D01*
X460515Y391253D01*
X389500Y398299D02*
Y397766D01*
X390566Y396700D01*
X391633Y397766D01*
Y398299D01*
X390566Y396700D02*
Y395100D01*
X392699D02*
X393765D01*
X393232D01*
Y398299D01*
X392699Y397766D01*
X516339Y490502D02*
Y487836D01*
X516872Y487303D01*
X517938D01*
X518471Y487836D01*
Y490502D01*
X519538Y487303D02*
X520604D01*
X520071D01*
Y490502D01*
X519538Y489969D01*
X522203D02*
X522737Y490502D01*
X523803D01*
X524336Y489969D01*
Y487836D01*
X523803Y487303D01*
X522737D01*
X522203Y487836D01*
Y489969D01*
X388261Y415207D02*
Y412541D01*
X388795Y412008D01*
X389861D01*
X390394Y412541D01*
Y415207D01*
X391460Y412541D02*
X391994Y412008D01*
X393060D01*
X393593Y412541D01*
Y414674D01*
X393060Y415207D01*
X391994D01*
X391460Y414674D01*
Y414141D01*
X391994Y413607D01*
X393593D01*
X363484Y472097D02*
Y469431D01*
X364017Y468898D01*
X365084D01*
X365617Y469431D01*
Y472097D01*
X366683D02*
X368816D01*
Y471563D01*
X366683Y469431D01*
Y468898D01*
X403445Y471998D02*
Y469332D01*
X403978Y468799D01*
X405044D01*
X405578Y469332D01*
Y471998D01*
X408777D02*
X407710Y471465D01*
X406644Y470399D01*
Y469332D01*
X407177Y468799D01*
X408243D01*
X408777Y469332D01*
Y469866D01*
X408243Y470399D01*
X406644D01*
X310630Y425935D02*
Y423269D01*
X311163Y422736D01*
X312229D01*
X312763Y423269D01*
Y425935D01*
X315962D02*
X313829D01*
Y424336D01*
X314895Y424869D01*
X315428D01*
X315962Y424336D01*
Y423269D01*
X315428Y422736D01*
X314362D01*
X313829Y423269D01*
X445571Y369439D02*
Y366773D01*
X446104Y366240D01*
X447170D01*
X447704Y366773D01*
Y369439D01*
X450369Y366240D02*
Y369439D01*
X448770Y367840D01*
X450903D01*
X532579Y338632D02*
Y335966D01*
X533112Y335433D01*
X534178D01*
X534711Y335966D01*
Y338632D01*
X537910Y335433D02*
X535778D01*
X537910Y337566D01*
Y338099D01*
X537377Y338632D01*
X536311D01*
X535778Y338099D01*
X303051Y370916D02*
Y368250D01*
X303584Y367717D01*
X304651D01*
X305184Y368250D01*
Y370916D01*
X306250Y367717D02*
X307316D01*
X306783D01*
Y370916D01*
X306250Y370382D01*
X501181Y457382D02*
X497982D01*
Y458981D01*
X498515Y459515D01*
X499582D01*
X500115Y458981D01*
Y457382D01*
Y458448D02*
X501181Y459515D01*
X498515Y460581D02*
X497982Y461114D01*
Y462180D01*
X498515Y462713D01*
X499048D01*
X499582Y462180D01*
Y461647D01*
Y462180D01*
X500115Y462713D01*
X500648D01*
X501181Y462180D01*
Y461114D01*
X500648Y460581D01*
X497982Y465912D02*
X498515Y464846D01*
X499582Y463780D01*
X500648D01*
X501181Y464313D01*
Y465379D01*
X500648Y465912D01*
X500115D01*
X499582Y465379D01*
Y463780D01*
X471752Y457382D02*
X468553D01*
Y458981D01*
X469086Y459515D01*
X470153D01*
X470686Y458981D01*
Y457382D01*
Y458448D02*
X471752Y459515D01*
X469086Y460581D02*
X468553Y461114D01*
Y462180D01*
X469086Y462713D01*
X469619D01*
X470153Y462180D01*
Y461647D01*
Y462180D01*
X470686Y462713D01*
X471219D01*
X471752Y462180D01*
Y461114D01*
X471219Y460581D01*
X468553Y465912D02*
Y463780D01*
X470153D01*
X469619Y464846D01*
Y465379D01*
X470153Y465912D01*
X471219D01*
X471752Y465379D01*
Y464313D01*
X471219Y463780D01*
X481562Y457382D02*
X478363D01*
Y458981D01*
X478896Y459515D01*
X479962D01*
X480495Y458981D01*
Y457382D01*
Y458448D02*
X481562Y459515D01*
X478896Y460581D02*
X478363Y461114D01*
Y462180D01*
X478896Y462713D01*
X479429D01*
X479962Y462180D01*
Y461647D01*
Y462180D01*
X480495Y462713D01*
X481029D01*
X481562Y462180D01*
Y461114D01*
X481029Y460581D01*
X481562Y465379D02*
X478363D01*
X479962Y463780D01*
Y465912D01*
X491371Y457382D02*
X488172D01*
Y458981D01*
X488706Y459515D01*
X489772D01*
X490305Y458981D01*
Y457382D01*
Y458448D02*
X491371Y459515D01*
X488706Y460581D02*
X488172Y461114D01*
Y462180D01*
X488706Y462713D01*
X489239D01*
X489772Y462180D01*
Y461647D01*
Y462180D01*
X490305Y462713D01*
X490838D01*
X491371Y462180D01*
Y461114D01*
X490838Y460581D01*
X488706Y463780D02*
X488172Y464313D01*
Y465379D01*
X488706Y465912D01*
X489239D01*
X489772Y465379D01*
Y464846D01*
Y465379D01*
X490305Y465912D01*
X490838D01*
X491371Y465379D01*
Y464313D01*
X490838Y463780D01*
X332480Y440453D02*
X329281D01*
Y442052D01*
X329815Y442585D01*
X330881D01*
X331414Y442052D01*
Y440453D01*
Y441519D02*
X332480Y442585D01*
X329815Y443652D02*
X329281Y444185D01*
Y445251D01*
X329815Y445784D01*
X330348D01*
X330881Y445251D01*
Y444718D01*
Y445251D01*
X331414Y445784D01*
X331947D01*
X332480Y445251D01*
Y444185D01*
X331947Y443652D01*
X332480Y448983D02*
Y446851D01*
X330348Y448983D01*
X329815D01*
X329281Y448450D01*
Y447384D01*
X329815Y446851D01*
X339469Y515650D02*
X336269D01*
Y517249D01*
X336803Y517782D01*
X337869D01*
X338402Y517249D01*
Y515650D01*
Y516716D02*
X339469Y517782D01*
X336803Y518849D02*
X336269Y519382D01*
Y520448D01*
X336803Y520981D01*
X337336D01*
X337869Y520448D01*
Y519915D01*
Y520448D01*
X338402Y520981D01*
X338935D01*
X339469Y520448D01*
Y519382D01*
X338935Y518849D01*
X339469Y522048D02*
Y523114D01*
Y522581D01*
X336269D01*
X336803Y522048D01*
X377067Y427362D02*
X373868D01*
Y428962D01*
X374401Y429495D01*
X375467D01*
X376001Y428962D01*
Y427362D01*
Y428429D02*
X377067Y429495D01*
X374401Y430561D02*
X373868Y431094D01*
Y432161D01*
X374401Y432694D01*
X374934D01*
X375467Y432161D01*
Y431628D01*
Y432161D01*
X376001Y432694D01*
X376534D01*
X377067Y432161D01*
Y431094D01*
X376534Y430561D01*
X374401Y433760D02*
X373868Y434293D01*
Y435360D01*
X374401Y435893D01*
X376534D01*
X377067Y435360D01*
Y434293D01*
X376534Y433760D01*
X374401D01*
X377854Y515650D02*
X374655D01*
Y517249D01*
X375188Y517782D01*
X376255D01*
X376788Y517249D01*
Y515650D01*
Y516716D02*
X377854Y517782D01*
Y520981D02*
Y518849D01*
X375722Y520981D01*
X375188D01*
X374655Y520448D01*
Y519382D01*
X375188Y518849D01*
X377321Y522048D02*
X377854Y522581D01*
Y523647D01*
X377321Y524180D01*
X375188D01*
X374655Y523647D01*
Y522581D01*
X375188Y522048D01*
X375722D01*
X376255Y522581D01*
Y524180D01*
X440328Y488287D02*
Y491486D01*
X441927D01*
X442460Y490953D01*
Y489887D01*
X441927Y489354D01*
X440328D01*
X441394D02*
X442460Y488287D01*
X445659D02*
X443527D01*
X445659Y490420D01*
Y490953D01*
X445126Y491486D01*
X444060D01*
X443527Y490953D01*
X446726D02*
X447259Y491486D01*
X448325D01*
X448858Y490953D01*
Y490420D01*
X448325Y489887D01*
X448858Y489354D01*
Y488821D01*
X448325Y488287D01*
X447259D01*
X446726Y488821D01*
Y489354D01*
X447259Y489887D01*
X446726Y490420D01*
Y490953D01*
X447259Y489887D02*
X448325D01*
X421161Y514764D02*
X417962D01*
Y516363D01*
X418496Y516896D01*
X419562D01*
X420095Y516363D01*
Y514764D01*
Y515830D02*
X421161Y516896D01*
Y520095D02*
Y517963D01*
X419029Y520095D01*
X418496D01*
X417962Y519562D01*
Y518496D01*
X418496Y517963D01*
X417962Y521162D02*
Y523294D01*
X418496D01*
X420628Y521162D01*
X421161D01*
X355413Y440748D02*
X352214D01*
Y442347D01*
X352748Y442881D01*
X353814D01*
X354347Y442347D01*
Y440748D01*
Y441814D02*
X355413Y442881D01*
Y446080D02*
Y443947D01*
X353281Y446080D01*
X352748D01*
X352214Y445546D01*
Y444480D01*
X352748Y443947D01*
X352214Y449279D02*
X352748Y448212D01*
X353814Y447146D01*
X354880D01*
X355413Y447679D01*
Y448745D01*
X354880Y449279D01*
X354347D01*
X353814Y448745D01*
Y447146D01*
X349410Y515650D02*
X346211D01*
Y517249D01*
X346744Y517782D01*
X347810D01*
X348343Y517249D01*
Y515650D01*
Y516716D02*
X349410Y517782D01*
Y520981D02*
Y518849D01*
X347277Y520981D01*
X346744D01*
X346211Y520448D01*
Y519382D01*
X346744Y518849D01*
X346211Y524180D02*
Y522048D01*
X347810D01*
X347277Y523114D01*
Y523647D01*
X347810Y524180D01*
X348876D01*
X349410Y523647D01*
Y522581D01*
X348876Y522048D01*
X386122Y427362D02*
X382923D01*
Y428962D01*
X383456Y429495D01*
X384523D01*
X385056Y428962D01*
Y427362D01*
Y428429D02*
X386122Y429495D01*
Y432694D02*
Y430561D01*
X383989Y432694D01*
X383456D01*
X382923Y432161D01*
Y431094D01*
X383456Y430561D01*
X386122Y435360D02*
X382923D01*
X384523Y433760D01*
Y435893D01*
X387402Y515650D02*
X384203D01*
Y517249D01*
X384736Y517782D01*
X385802D01*
X386335Y517249D01*
Y515650D01*
Y516716D02*
X387402Y517782D01*
Y520981D02*
Y518849D01*
X385269Y520981D01*
X384736D01*
X384203Y520448D01*
Y519382D01*
X384736Y518849D01*
Y522048D02*
X384203Y522581D01*
Y523647D01*
X384736Y524180D01*
X385269D01*
X385802Y523647D01*
Y523114D01*
Y523647D01*
X386335Y524180D01*
X386868D01*
X387402Y523647D01*
Y522581D01*
X386868Y522048D01*
X439934Y464370D02*
Y467569D01*
X441533D01*
X442066Y467036D01*
Y465970D01*
X441533Y465436D01*
X439934D01*
X441000D02*
X442066Y464370D01*
X445265D02*
X443133D01*
X445265Y466503D01*
Y467036D01*
X444732Y467569D01*
X443666D01*
X443133Y467036D01*
X448464Y464370D02*
X446332D01*
X448464Y466503D01*
Y467036D01*
X447931Y467569D01*
X446865D01*
X446332Y467036D01*
X430020Y514764D02*
X426821D01*
Y516363D01*
X427354Y516896D01*
X428420D01*
X428953Y516363D01*
Y514764D01*
Y515830D02*
X430020Y516896D01*
Y520095D02*
Y517963D01*
X427887Y520095D01*
X427354D01*
X426821Y519562D01*
Y518496D01*
X427354Y517963D01*
X430020Y521162D02*
Y522228D01*
Y521695D01*
X426821D01*
X427354Y521162D01*
X548819Y486417D02*
X545620D01*
Y488017D01*
X546153Y488550D01*
X547219D01*
X547753Y488017D01*
Y486417D01*
Y487484D02*
X548819Y488550D01*
Y491749D02*
Y489616D01*
X546686Y491749D01*
X546153D01*
X545620Y491216D01*
Y490149D01*
X546153Y489616D01*
Y492815D02*
X545620Y493348D01*
Y494415D01*
X546153Y494948D01*
X548286D01*
X548819Y494415D01*
Y493348D01*
X548286Y492815D01*
X546153D01*
X548524Y471457D02*
X545325D01*
Y473056D01*
X545858Y473589D01*
X546924D01*
X547457Y473056D01*
Y471457D01*
Y472523D02*
X548524Y473589D01*
Y474656D02*
Y475722D01*
Y475189D01*
X545325D01*
X545858Y474656D01*
X547991Y477321D02*
X548524Y477855D01*
Y478921D01*
X547991Y479454D01*
X545858D01*
X545325Y478921D01*
Y477855D01*
X545858Y477321D01*
X546391D01*
X546924Y477855D01*
Y479454D01*
X435995Y620571D02*
X432796D01*
Y622170D01*
X433330Y622704D01*
X434396D01*
X434929Y622170D01*
Y620571D01*
Y621637D02*
X435995Y622704D01*
Y623770D02*
Y624836D01*
Y624303D01*
X432796D01*
X433330Y623770D01*
Y626436D02*
X432796Y626969D01*
Y628035D01*
X433330Y628568D01*
X433863D01*
X434396Y628035D01*
Y627502D01*
Y628035D01*
X434929Y628568D01*
X435462D01*
X435995Y628035D01*
Y626969D01*
X435462Y626436D01*
X425591Y620571D02*
X422392D01*
Y622170D01*
X422925Y622704D01*
X423991D01*
X424524Y622170D01*
Y620571D01*
Y621637D02*
X425591Y622704D01*
Y623770D02*
Y624836D01*
Y624303D01*
X422392D01*
X422925Y623770D01*
X425591Y628568D02*
Y626436D01*
X423458Y628568D01*
X422925D01*
X422392Y628035D01*
Y626969D01*
X422925Y626436D01*
X467717Y361910D02*
Y365108D01*
X469316D01*
X469849Y364575D01*
Y363509D01*
X469316Y362976D01*
X467717D01*
X468783D02*
X469849Y361910D01*
X470916D02*
X471982D01*
X471449D01*
Y365108D01*
X470916Y364575D01*
X473581Y361910D02*
X474648D01*
X474115D01*
Y365108D01*
X473581Y364575D01*
X442323Y353248D02*
X439124D01*
Y354848D01*
X439657Y355381D01*
X440723D01*
X441257Y354848D01*
Y353248D01*
Y354314D02*
X442323Y355381D01*
Y356447D02*
Y357513D01*
Y356980D01*
X439124D01*
X439657Y356447D01*
Y359113D02*
X439124Y359646D01*
Y360712D01*
X439657Y361245D01*
X441790D01*
X442323Y360712D01*
Y359646D01*
X441790Y359113D01*
X439657D01*
X297441Y338878D02*
Y342077D01*
X299040D01*
X299574Y341544D01*
Y340477D01*
X299040Y339944D01*
X297441D01*
X298507D02*
X299574Y338878D01*
X300640Y341544D02*
X301173Y342077D01*
X302239D01*
X302773Y341544D01*
Y341011D01*
X302239Y340477D01*
X302773Y339944D01*
Y339411D01*
X302239Y338878D01*
X301173D01*
X300640Y339411D01*
Y339944D01*
X301173Y340477D01*
X300640Y341011D01*
Y341544D01*
X301173Y340477D02*
X302239D01*
X456496Y620571D02*
X453297D01*
Y622170D01*
X453830Y622704D01*
X454897D01*
X455430Y622170D01*
Y620571D01*
Y621637D02*
X456496Y622704D01*
X453297Y623770D02*
Y625903D01*
X453830D01*
X455963Y623770D01*
X456496D01*
X446063Y620571D02*
X442864D01*
Y622170D01*
X443397Y622704D01*
X444463D01*
X444997Y622170D01*
Y620571D01*
Y621637D02*
X446063Y622704D01*
X442864Y625903D02*
X443397Y624836D01*
X444463Y623770D01*
X445530D01*
X446063Y624303D01*
Y625369D01*
X445530Y625903D01*
X444997D01*
X444463Y625369D01*
Y623770D01*
X477165Y620571D02*
X473966D01*
Y622170D01*
X474500Y622704D01*
X475566D01*
X476099Y622170D01*
Y620571D01*
Y621637D02*
X477165Y622704D01*
X473966Y625903D02*
Y623770D01*
X475566D01*
X475033Y624836D01*
Y625369D01*
X475566Y625903D01*
X476632D01*
X477165Y625369D01*
Y624303D01*
X476632Y623770D01*
X466677Y620571D02*
X463478D01*
Y622170D01*
X464011Y622704D01*
X465078D01*
X465611Y622170D01*
Y620571D01*
Y621637D02*
X466677Y622704D01*
Y625369D02*
X463478D01*
X465078Y623770D01*
Y625903D01*
X487402Y620571D02*
X484203D01*
Y622170D01*
X484736Y622704D01*
X485802D01*
X486335Y622170D01*
Y620571D01*
Y621637D02*
X487402Y622704D01*
X484736Y623770D02*
X484203Y624303D01*
Y625369D01*
X484736Y625903D01*
X485269D01*
X485802Y625369D01*
Y624836D01*
Y625369D01*
X486335Y625903D01*
X486868D01*
X487402Y625369D01*
Y624303D01*
X486868Y623770D01*
X497539Y620571D02*
X494340D01*
Y622170D01*
X494874Y622704D01*
X495940D01*
X496473Y622170D01*
Y620571D01*
Y621637D02*
X497539Y622704D01*
Y625903D02*
Y623770D01*
X495407Y625903D01*
X494874D01*
X494340Y625369D01*
Y624303D01*
X494874Y623770D01*
X337303Y368749D02*
Y371948D01*
X338903D01*
X339436Y371415D01*
Y370349D01*
X338903Y369815D01*
X337303D01*
X338369D02*
X339436Y368749D01*
X340502D02*
X341568D01*
X341035D01*
Y371948D01*
X340502Y371415D01*
X482579Y334757D02*
Y337957D01*
X484178D01*
X484711Y337423D01*
Y336357D01*
X484178Y335824D01*
X482579D01*
X487910Y337957D02*
X486844Y337423D01*
X485778Y336357D01*
Y335291D01*
X486311Y334757D01*
X487377D01*
X487910Y335291D01*
Y335824D01*
X487377Y336357D01*
X485778D01*
X283169Y484055D02*
Y487254D01*
X284769D01*
X285302Y486721D01*
Y485655D01*
X284769Y485121D01*
X283169D01*
X287968Y484055D02*
Y487254D01*
X286368Y485655D01*
X288501D01*
X325689Y600689D02*
Y603888D01*
X327289D01*
X327822Y603355D01*
Y602288D01*
X327289Y601755D01*
X325689D01*
X328888Y603355D02*
X329421Y603888D01*
X330487D01*
X331021Y603355D01*
Y602822D01*
X330487Y602288D01*
X329954D01*
X330487D01*
X331021Y601755D01*
Y601222D01*
X330487Y600689D01*
X329421D01*
X328888Y601222D01*
X418937Y354961D02*
Y358160D01*
X420537D01*
X421070Y357626D01*
Y356560D01*
X420537Y356027D01*
X418937D01*
X424269Y354961D02*
X422136D01*
X424269Y357093D01*
Y357626D01*
X423736Y358160D01*
X422669D01*
X422136Y357626D01*
X370635Y343996D02*
Y347195D01*
X372234D01*
X372767Y346662D01*
Y345596D01*
X372234Y345062D01*
X370635D01*
X373833Y343996D02*
X374900D01*
X374367D01*
Y347195D01*
X373833Y346662D01*
X516306Y438927D02*
X515239D01*
X515773D01*
Y436262D01*
X515239Y435728D01*
X514706D01*
X514173Y436262D01*
X517372Y435195D02*
X519505D01*
X520571Y438927D02*
Y436795D01*
X521637Y435728D01*
X522704Y436795D01*
Y438927D01*
X525903D02*
X523770D01*
Y437328D01*
X524836Y437861D01*
X525370D01*
X525903Y437328D01*
Y436262D01*
X525370Y435728D01*
X524303D01*
X523770Y436262D01*
X525656Y380364D02*
X524590D01*
X525123D01*
Y377698D01*
X524590Y377165D01*
X524057D01*
X523524Y377698D01*
X526723Y376632D02*
X528855D01*
X529922Y380364D02*
Y378232D01*
X530988Y377165D01*
X532054Y378232D01*
Y380364D01*
X533120Y379831D02*
X533654Y380364D01*
X534720D01*
X535253Y379831D01*
Y379298D01*
X534720Y378765D01*
X534187D01*
X534720D01*
X535253Y378232D01*
Y377698D01*
X534720Y377165D01*
X533654D01*
X533120Y377698D01*
X321129Y365010D02*
X320062D01*
X320596D01*
Y362344D01*
X320062Y361811D01*
X319529D01*
X318996Y362344D01*
X322195Y361278D02*
X324328D01*
X325394Y365010D02*
Y362877D01*
X326460Y361811D01*
X327527Y362877D01*
Y365010D01*
X328593Y361811D02*
X329659D01*
X329126D01*
Y365010D01*
X328593Y364477D01*
X561171Y348097D02*
Y347031D01*
Y347564D01*
X563837D01*
X564370Y347031D01*
Y346498D01*
X563837Y345965D01*
X564903Y349164D02*
Y351296D01*
X561171Y352362D02*
X563304D01*
X564370Y353429D01*
X563304Y354495D01*
X561171D01*
X561704Y355561D02*
X561171Y356095D01*
Y357161D01*
X561704Y357694D01*
X563837D01*
X564370Y357161D01*
Y356095D01*
X563837Y355561D01*
X561704D01*
X531660Y536417D02*
X530594D01*
X531127D01*
Y533752D01*
X530594Y533218D01*
X530061D01*
X529528Y533752D01*
X532726Y532685D02*
X534859D01*
X535925Y533218D02*
Y536417D01*
X537525D01*
X538058Y535884D01*
Y534818D01*
X537525Y534285D01*
X535925D01*
X541257Y535884D02*
X540724Y536417D01*
X539658D01*
X539124Y535884D01*
Y533752D01*
X539658Y533218D01*
X540724D01*
X541257Y533752D01*
X542323Y533218D02*
X543390D01*
X542857D01*
Y536417D01*
X542323Y535884D01*
X544989D02*
X545522Y536417D01*
X546589D01*
X547122Y535884D01*
Y533752D01*
X546589Y533218D01*
X545522D01*
X544989Y533752D01*
Y535884D01*
X534326Y545940D02*
X533260D01*
X533793D01*
Y543274D01*
X533260Y542741D01*
X532726D01*
X532193Y543274D01*
X535392Y542208D02*
X537525D01*
X538591Y542741D02*
Y545940D01*
X540191D01*
X540724Y545407D01*
Y544341D01*
X540191Y543807D01*
X538591D01*
X543923Y545407D02*
X543390Y545940D01*
X542323D01*
X541790Y545407D01*
Y543274D01*
X542323Y542741D01*
X543390D01*
X543923Y543274D01*
X544989D02*
X545522Y542741D01*
X546589D01*
X547122Y543274D01*
Y545407D01*
X546589Y545940D01*
X545522D01*
X544989Y545407D01*
Y544874D01*
X545522Y544341D01*
X547122D01*
X534326Y555463D02*
X533260D01*
X533793D01*
Y552797D01*
X533260Y552264D01*
X532726D01*
X532193Y552797D01*
X535392Y551731D02*
X537525D01*
X538591Y552264D02*
Y555463D01*
X540191D01*
X540724Y554930D01*
Y553863D01*
X540191Y553330D01*
X538591D01*
X543923Y554930D02*
X543390Y555463D01*
X542323D01*
X541790Y554930D01*
Y552797D01*
X542323Y552264D01*
X543390D01*
X543923Y552797D01*
X544989Y554930D02*
X545522Y555463D01*
X546589D01*
X547122Y554930D01*
Y554396D01*
X546589Y553863D01*
X547122Y553330D01*
Y552797D01*
X546589Y552264D01*
X545522D01*
X544989Y552797D01*
Y553330D01*
X545522Y553863D01*
X544989Y554396D01*
Y554930D01*
X545522Y553863D02*
X546589D01*
X534326Y522490D02*
X533260D01*
X533793D01*
Y519825D01*
X533260Y519291D01*
X532726D01*
X532193Y519825D01*
X535392Y518758D02*
X537525D01*
X538591Y519291D02*
Y522490D01*
X540191D01*
X540724Y521957D01*
Y520891D01*
X540191Y520358D01*
X538591D01*
X543923Y521957D02*
X543390Y522490D01*
X542323D01*
X541790Y521957D01*
Y519825D01*
X542323Y519291D01*
X543390D01*
X543923Y519825D01*
X546589Y519291D02*
Y522490D01*
X544989Y520891D01*
X547122D01*
X534326Y527707D02*
X533260D01*
X533793D01*
Y525041D01*
X533260Y524508D01*
X532726D01*
X532193Y525041D01*
X535392Y523975D02*
X537525D01*
X538591Y524508D02*
Y527707D01*
X540191D01*
X540724Y527174D01*
Y526107D01*
X540191Y525574D01*
X538591D01*
X543923Y527174D02*
X543390Y527707D01*
X542323D01*
X541790Y527174D01*
Y525041D01*
X542323Y524508D01*
X543390D01*
X543923Y525041D01*
X544989Y527174D02*
X545522Y527707D01*
X546589D01*
X547122Y527174D01*
Y526641D01*
X546589Y526107D01*
X546056D01*
X546589D01*
X547122Y525574D01*
Y525041D01*
X546589Y524508D01*
X545522D01*
X544989Y525041D01*
X522999Y390896D02*
X520866D01*
Y389296D01*
X521933D01*
X520866D01*
Y387697D01*
X524065Y390896D02*
Y387697D01*
X525665D01*
X526198Y388230D01*
Y388763D01*
X525665Y389296D01*
X524065D01*
X525665D01*
X526198Y389829D01*
Y390363D01*
X525665Y390896D01*
X524065D01*
X527264Y387697D02*
X528330D01*
X527797D01*
Y390896D01*
X527264Y390363D01*
X430582Y668258D02*
Y665059D01*
X432182D01*
X432715Y665592D01*
Y667725D01*
X432182Y668258D01*
X430582D01*
X433781Y667725D02*
X434314Y668258D01*
X435381D01*
X435914Y667725D01*
Y667192D01*
X435381Y666658D01*
X435914Y666125D01*
Y665592D01*
X435381Y665059D01*
X434314D01*
X433781Y665592D01*
Y666125D01*
X434314Y666658D01*
X433781Y667192D01*
Y667725D01*
X434314Y666658D02*
X435381D01*
X420079Y668849D02*
Y665650D01*
X421678D01*
X422211Y666183D01*
Y668315D01*
X421678Y668849D01*
X420079D01*
X423278D02*
X425410D01*
Y668315D01*
X423278Y666183D01*
Y665650D01*
X451589Y668258D02*
Y665059D01*
X453188D01*
X453722Y665592D01*
Y667725D01*
X453188Y668258D01*
X451589D01*
X456920D02*
X455854Y667725D01*
X454788Y666658D01*
Y665592D01*
X455321Y665059D01*
X456387D01*
X456920Y665592D01*
Y666125D01*
X456387Y666658D01*
X454788D01*
X441085Y668258D02*
Y665059D01*
X442685D01*
X443218Y665592D01*
Y667725D01*
X442685Y668258D01*
X441085D01*
X446417D02*
X444284D01*
Y666658D01*
X445351Y667192D01*
X445884D01*
X446417Y666658D01*
Y665592D01*
X445884Y665059D01*
X444818D01*
X444284Y665592D01*
X472596Y668258D02*
Y665059D01*
X474195D01*
X474728Y665592D01*
Y667725D01*
X474195Y668258D01*
X472596D01*
X477394Y665059D02*
Y668258D01*
X475795Y666658D01*
X477927D01*
X462092Y668258D02*
Y665059D01*
X463692D01*
X464225Y665592D01*
Y667725D01*
X463692Y668258D01*
X462092D01*
X465291Y667725D02*
X465824Y668258D01*
X466891D01*
X467424Y667725D01*
Y667192D01*
X466891Y666658D01*
X466358D01*
X466891D01*
X467424Y666125D01*
Y665592D01*
X466891Y665059D01*
X465824D01*
X465291Y665592D01*
X483099Y668258D02*
Y665059D01*
X484698D01*
X485232Y665592D01*
Y667725D01*
X484698Y668258D01*
X483099D01*
X488431Y665059D02*
X486298D01*
X488431Y667192D01*
Y667725D01*
X487897Y668258D01*
X486831D01*
X486298Y667725D01*
X493602Y668258D02*
Y665059D01*
X495202D01*
X495735Y665592D01*
Y667725D01*
X495202Y668258D01*
X493602D01*
X496801Y665059D02*
X497868D01*
X497334D01*
Y668258D01*
X496801Y667725D01*
X487643Y497745D02*
X487110Y498278D01*
X486043D01*
X485510Y497745D01*
Y495612D01*
X486043Y495079D01*
X487110D01*
X487643Y495612D01*
X488709Y497745D02*
X489242Y498278D01*
X490309D01*
X490842Y497745D01*
Y497211D01*
X490309Y496678D01*
X489775D01*
X490309D01*
X490842Y496145D01*
Y495612D01*
X490309Y495079D01*
X489242D01*
X488709Y495612D01*
X494041Y498278D02*
X492974Y497745D01*
X491908Y496678D01*
Y495612D01*
X492441Y495079D01*
X493508D01*
X494041Y495612D01*
Y496145D01*
X493508Y496678D01*
X491908D01*
X401827Y494300D02*
X401294Y494833D01*
X400227D01*
X399694Y494300D01*
Y492167D01*
X400227Y491634D01*
X401294D01*
X401827Y492167D01*
X402893Y494300D02*
X403427Y494833D01*
X404493D01*
X405026Y494300D01*
Y493766D01*
X404493Y493233D01*
X403960D01*
X404493D01*
X405026Y492700D01*
Y492167D01*
X404493Y491634D01*
X403427D01*
X402893Y492167D01*
X408225Y494833D02*
X406092D01*
Y493233D01*
X407159Y493766D01*
X407692D01*
X408225Y493233D01*
Y492167D01*
X407692Y491634D01*
X406626D01*
X406092Y492167D01*
X361975Y494103D02*
X361442Y494636D01*
X360376D01*
X359842Y494103D01*
Y491970D01*
X360376Y491437D01*
X361442D01*
X361975Y491970D01*
X363041Y494103D02*
X363575Y494636D01*
X364641D01*
X365174Y494103D01*
Y493570D01*
X364641Y493037D01*
X364108D01*
X364641D01*
X365174Y492503D01*
Y491970D01*
X364641Y491437D01*
X363575D01*
X363041Y491970D01*
X367840Y491437D02*
Y494636D01*
X366241Y493037D01*
X368373D01*
X322704Y494201D02*
X322170Y494734D01*
X321104D01*
X320571Y494201D01*
Y492069D01*
X321104Y491535D01*
X322170D01*
X322704Y492069D01*
X323770Y494201D02*
X324303Y494734D01*
X325369D01*
X325903Y494201D01*
Y493668D01*
X325369Y493135D01*
X324836D01*
X325369D01*
X325903Y492602D01*
Y492069D01*
X325369Y491535D01*
X324303D01*
X323770Y492069D01*
X329101Y491535D02*
X326969D01*
X329101Y493668D01*
Y494201D01*
X328568Y494734D01*
X327502D01*
X326969Y494201D01*
X277157Y420735D02*
X276624Y420202D01*
Y419136D01*
X277157Y418602D01*
X279290D01*
X279823Y419136D01*
Y420202D01*
X279290Y420735D01*
X277157Y421801D02*
X276624Y422334D01*
Y423401D01*
X277157Y423934D01*
X277690D01*
X278223Y423401D01*
Y422868D01*
Y423401D01*
X278756Y423934D01*
X279290D01*
X279823Y423401D01*
Y422334D01*
X279290Y421801D01*
X279823Y425000D02*
Y426067D01*
Y425533D01*
X276624D01*
X277157Y425000D01*
X284637Y420538D02*
X284104Y420005D01*
Y418939D01*
X284637Y418405D01*
X286770D01*
X287303Y418939D01*
Y420005D01*
X286770Y420538D01*
X284637Y421604D02*
X284104Y422138D01*
Y423204D01*
X284637Y423737D01*
X285171D01*
X285704Y423204D01*
Y422671D01*
Y423204D01*
X286237Y423737D01*
X286770D01*
X287303Y423204D01*
Y422138D01*
X286770Y421604D01*
X284637Y424803D02*
X284104Y425337D01*
Y426403D01*
X284637Y426936D01*
X286770D01*
X287303Y426403D01*
Y425337D01*
X286770Y424803D01*
X284637D01*
X280700Y379003D02*
X280167Y378470D01*
Y377403D01*
X280700Y376870D01*
X282833D01*
X283366Y377403D01*
Y378470D01*
X282833Y379003D01*
X283366Y382202D02*
Y380069D01*
X281234Y382202D01*
X280700D01*
X280167Y381668D01*
Y380602D01*
X280700Y380069D01*
X282833Y383268D02*
X283366Y383801D01*
Y384868D01*
X282833Y385401D01*
X280700D01*
X280167Y384868D01*
Y383801D01*
X280700Y383268D01*
X281234D01*
X281767Y383801D01*
Y385401D01*
X288771Y379200D02*
X288238Y378666D01*
Y377600D01*
X288771Y377067D01*
X290904D01*
X291437Y377600D01*
Y378666D01*
X290904Y379200D01*
X291437Y382399D02*
Y380266D01*
X289304Y382399D01*
X288771D01*
X288238Y381865D01*
Y380799D01*
X288771Y380266D01*
Y383465D02*
X288238Y383998D01*
Y385064D01*
X288771Y385597D01*
X289304D01*
X289838Y385064D01*
X290371Y385597D01*
X290904D01*
X291437Y385064D01*
Y383998D01*
X290904Y383465D01*
X290371D01*
X289838Y383998D01*
X289304Y383465D01*
X288771D01*
X289838Y383998D02*
Y385064D01*
X451050Y379930D02*
X450517Y380463D01*
X449450D01*
X448917Y379930D01*
Y377797D01*
X449450Y377264D01*
X450517D01*
X451050Y377797D01*
X454249Y377264D02*
X452116D01*
X454249Y379396D01*
Y379930D01*
X453716Y380463D01*
X452649D01*
X452116Y379930D01*
X455315Y380463D02*
X457448D01*
Y379930D01*
X455315Y377797D01*
Y377264D01*
X486114Y399180D02*
X485581Y398647D01*
Y397580D01*
X486114Y397047D01*
X488246D01*
X488779Y397580D01*
Y398647D01*
X488246Y399180D01*
X488779Y402379D02*
Y400246D01*
X486647Y402379D01*
X486114D01*
X485581Y401846D01*
Y400779D01*
X486114Y400246D01*
Y403445D02*
X485581Y403978D01*
Y405045D01*
X486114Y405578D01*
X488246D01*
X488779Y405045D01*
Y403978D01*
X488246Y403445D01*
X486114D01*
X478240Y399475D02*
X477706Y398942D01*
Y397876D01*
X478240Y397342D01*
X480372D01*
X480905Y397876D01*
Y398942D01*
X480372Y399475D01*
X480905Y400541D02*
Y401608D01*
Y401075D01*
X477706D01*
X478240Y400541D01*
X477706Y405340D02*
Y403207D01*
X479306D01*
X478773Y404274D01*
Y404807D01*
X479306Y405340D01*
X480372D01*
X480905Y404807D01*
Y403741D01*
X480372Y403207D01*
X545661Y352822D02*
X545128Y352289D01*
Y351222D01*
X545661Y350689D01*
X547794D01*
X548327Y351222D01*
Y352289D01*
X547794Y352822D01*
X548327Y353888D02*
Y354954D01*
Y354421D01*
X545128D01*
X545661Y353888D01*
X548327Y358686D02*
Y356554D01*
X546194Y358686D01*
X545661D01*
X545128Y358153D01*
Y357087D01*
X545661Y356554D01*
X547113Y338197D02*
X546580Y338731D01*
X545513D01*
X544980Y338197D01*
Y336065D01*
X545513Y335531D01*
X546580D01*
X547113Y336065D01*
X548179Y335531D02*
X549246D01*
X548712D01*
Y338731D01*
X548179Y338197D01*
X550845Y335531D02*
X551911D01*
X551378D01*
Y338731D01*
X550845Y338197D01*
X486385Y347528D02*
X485851Y348061D01*
X484785D01*
X484252Y347528D01*
Y345395D01*
X484785Y344862D01*
X485851D01*
X486385Y345395D01*
X487451Y344862D02*
X488517D01*
X487984D01*
Y348061D01*
X487451Y347528D01*
X490117D02*
X490650Y348061D01*
X491716D01*
X492249Y347528D01*
Y345395D01*
X491716Y344862D01*
X490650D01*
X490117Y345395D01*
Y347528D01*
X501936Y347351D02*
X501403Y347884D01*
X500336D01*
X499803Y347351D01*
Y345218D01*
X500336Y344685D01*
X501403D01*
X501936Y345218D01*
X503002D02*
X503535Y344685D01*
X504602D01*
X505135Y345218D01*
Y347351D01*
X504602Y347884D01*
X503535D01*
X503002Y347351D01*
Y346818D01*
X503535Y346285D01*
X505135D01*
X503019Y381603D02*
X502485Y382136D01*
X501419D01*
X500886Y381603D01*
Y379470D01*
X501419Y378937D01*
X502485D01*
X503019Y379470D01*
X504085Y381603D02*
X504618Y382136D01*
X505684D01*
X506217Y381603D01*
Y381070D01*
X505684Y380537D01*
X506217Y380003D01*
Y379470D01*
X505684Y378937D01*
X504618D01*
X504085Y379470D01*
Y380003D01*
X504618Y380537D01*
X504085Y381070D01*
Y381603D01*
X504618Y380537D02*
X505684D01*
X503511Y410343D02*
X502977Y410876D01*
X501911D01*
X501378Y410343D01*
Y408210D01*
X501911Y407677D01*
X502977D01*
X503511Y408210D01*
X504577Y410876D02*
X506710D01*
Y410343D01*
X504577Y408210D01*
Y407677D01*
X477773Y388629D02*
X477019Y388629D01*
X476265Y387875D01*
Y387121D01*
X477773Y385613D01*
X478527D01*
X479281Y386367D01*
Y387121D01*
X479658Y391268D02*
X479281Y390137D01*
Y388629D01*
X480035Y387875D01*
X480789D01*
X481543Y388629D01*
Y389383D01*
X481166Y389760D01*
X480412D01*
X479281Y388629D01*
X476923Y369141D02*
X476169Y369141D01*
X475415Y368387D01*
Y367633D01*
X476923Y366125D01*
X477677D01*
X478431Y366879D01*
Y367633D01*
X478808Y371780D02*
X477300Y370272D01*
X478431Y369141D01*
X478808Y370272D01*
X479185Y370649D01*
X479939D01*
X480693Y369895D01*
Y369141D01*
X479939Y368387D01*
X479185D01*
X406055Y374257D02*
X405522Y374790D01*
X404455D01*
X403922Y374257D01*
Y372124D01*
X404455Y371591D01*
X405522D01*
X406055Y372124D01*
X408721Y371591D02*
Y374790D01*
X407121Y373190D01*
X409254D01*
X375191Y388790D02*
X374658Y389323D01*
X373592D01*
X373059Y388790D01*
Y386657D01*
X373592Y386124D01*
X374658D01*
X375191Y386657D01*
X376258Y388790D02*
X376791Y389323D01*
X377857D01*
X378390Y388790D01*
Y388257D01*
X377857Y387723D01*
X377324D01*
X377857D01*
X378390Y387190D01*
Y386657D01*
X377857Y386124D01*
X376791D01*
X376258Y386657D01*
X493274Y427666D02*
X492741Y428199D01*
X491675D01*
X491142Y427666D01*
Y425533D01*
X491675Y425000D01*
X492741D01*
X493274Y425533D01*
X496473Y425000D02*
X494341D01*
X496473Y427133D01*
Y427666D01*
X495940Y428199D01*
X494874D01*
X494341Y427666D01*
X360105Y370741D02*
X359572Y371274D01*
X358506D01*
X357972Y370741D01*
Y368608D01*
X358506Y368075D01*
X359572D01*
X360105Y368608D01*
X361171Y368075D02*
X362238D01*
X361705D01*
Y371274D01*
X361171Y370741D01*
D19*
X321654Y552067D02*
X322028Y552254D01*
X322591Y552816D01*
Y548880D01*
X370069Y552379D02*
Y552567D01*
X370257Y552942D01*
X370444Y553129D01*
X370819Y553316D01*
X371569D01*
X371944Y553129D01*
X372131Y552942D01*
X372319Y552567D01*
Y552192D01*
X372131Y551817D01*
X371756Y551255D01*
X369882Y549380D01*
X372506D01*
D20*
X557873Y525118D02*
D03*
X557972Y515748D02*
D03*
X557972Y553543D02*
D03*
X557972Y544488D02*
D03*
X557972Y534646D02*
D03*
X325591Y369685D02*
D03*
X530709Y371260D02*
D03*
X521651Y445177D02*
D03*
X343601Y363779D02*
D03*
X300787Y333465D02*
D03*
X474409Y357106D02*
D03*
X445356Y473988D02*
D03*
X445529Y483240D02*
D03*
X586909Y641339D02*
D03*
D21*
X570078Y353150D02*
D03*
X496063Y639869D02*
D03*
X485714Y639867D02*
D03*
X465017Y639950D02*
D03*
X475366Y639950D02*
D03*
X444319Y639952D02*
D03*
X454669Y639950D02*
D03*
X434153Y359449D02*
D03*
X423464Y639459D02*
D03*
X433857Y639786D02*
D03*
X553740Y475724D02*
D03*
X553740Y492714D02*
D03*
X428019Y506005D02*
D03*
X385261Y506024D02*
D03*
X384352Y444390D02*
D03*
X347504Y505668D02*
D03*
X347506Y444640D02*
D03*
X419082Y506005D02*
D03*
X375775Y506025D02*
D03*
X375777Y444783D02*
D03*
X337504Y505904D02*
D03*
X337505Y444640D02*
D03*
X489479Y477657D02*
D03*
X479736Y477656D02*
D03*
X469992D02*
D03*
X498834Y477658D02*
D03*
M02*
