G04*
G04 #@! TF.GenerationSoftware,Altium Limited,Altium Designer,18.1.7 (191)*
G04*
G04 Layer_Color=16711935*
%FSLAX25Y25*%
%MOIN*%
G70*
G01*
G75*
%ADD10C,0.01000*%
%ADD116C,0.00500*%
%ADD117C,0.00236*%
G36*
X938910Y177000D02*
X938189D01*
Y177567D01*
X938179Y177557D01*
X938170Y177538D01*
X938141Y177509D01*
X938103Y177461D01*
X938064Y177413D01*
X938006Y177356D01*
X937939Y177298D01*
X937862Y177231D01*
X937776Y177173D01*
X937680Y177106D01*
X937574Y177048D01*
X937468Y177000D01*
X937343Y176952D01*
X937209Y176923D01*
X937065Y176904D01*
X936911Y176894D01*
X936853D01*
X936815Y176904D01*
X936709Y176913D01*
X936584Y176933D01*
X936421Y176971D01*
X936257Y177019D01*
X936075Y177096D01*
X935902Y177192D01*
X935892D01*
X935883Y177202D01*
X935825Y177250D01*
X935748Y177317D01*
X935642Y177413D01*
X935537Y177529D01*
X935412Y177673D01*
X935306Y177836D01*
X935200Y178028D01*
Y178038D01*
X935191Y178057D01*
X935181Y178086D01*
X935162Y178124D01*
X935143Y178172D01*
X935124Y178240D01*
X935075Y178393D01*
X935027Y178576D01*
X934989Y178787D01*
X934960Y179018D01*
X934951Y179278D01*
Y179287D01*
Y179306D01*
Y179345D01*
Y179393D01*
X934960Y179451D01*
Y179527D01*
X934979Y179691D01*
X935008Y179883D01*
X935047Y180085D01*
X935095Y180306D01*
X935172Y180517D01*
Y180527D01*
X935181Y180546D01*
X935200Y180575D01*
X935220Y180613D01*
X935268Y180709D01*
X935345Y180834D01*
X935441Y180979D01*
X935556Y181123D01*
X935690Y181257D01*
X935854Y181382D01*
X935863D01*
X935873Y181392D01*
X935931Y181430D01*
X936027Y181478D01*
X936152Y181536D01*
X936306Y181584D01*
X936479Y181632D01*
X936671Y181670D01*
X936872Y181680D01*
X936940D01*
X937017Y181670D01*
X937122Y181661D01*
X937228Y181632D01*
X937353Y181603D01*
X937478Y181555D01*
X937603Y181498D01*
X937622Y181488D01*
X937661Y181469D01*
X937718Y181430D01*
X937795Y181372D01*
X937872Y181315D01*
X937968Y181238D01*
X938054Y181142D01*
X938131Y181046D01*
Y183314D01*
X938910D01*
Y177000D01*
D02*
G37*
G36*
X912684Y183333D02*
X912809Y183314D01*
X912953Y183285D01*
X913117Y183247D01*
X913280Y183189D01*
X913443Y183112D01*
X913453D01*
X913463Y183102D01*
X913520Y183073D01*
X913597Y183026D01*
X913693Y182958D01*
X913799Y182872D01*
X913914Y182766D01*
X914020Y182641D01*
X914116Y182507D01*
X914126Y182487D01*
X914155Y182439D01*
X914193Y182362D01*
X914231Y182266D01*
X914270Y182141D01*
X914308Y182007D01*
X914337Y181863D01*
X914347Y181699D01*
Y181680D01*
Y181632D01*
X914337Y181555D01*
X914318Y181459D01*
X914289Y181344D01*
X914251Y181219D01*
X914202Y181084D01*
X914126Y180959D01*
X914116Y180940D01*
X914087Y180902D01*
X914030Y180844D01*
X913962Y180767D01*
X913866Y180681D01*
X913760Y180594D01*
X913626Y180498D01*
X913472Y180421D01*
X913482D01*
X913501Y180412D01*
X913530D01*
X913568Y180392D01*
X913664Y180364D01*
X913789Y180306D01*
X913924Y180239D01*
X914068Y180142D01*
X914212Y180027D01*
X914337Y179883D01*
X914347Y179864D01*
X914385Y179806D01*
X914433Y179720D01*
X914500Y179604D01*
X914558Y179460D01*
X914606Y179287D01*
X914645Y179085D01*
X914654Y178864D01*
Y178855D01*
Y178826D01*
Y178787D01*
X914645Y178730D01*
X914635Y178653D01*
X914625Y178576D01*
X914606Y178480D01*
X914577Y178384D01*
X914510Y178163D01*
X914462Y178038D01*
X914395Y177923D01*
X914327Y177807D01*
X914251Y177692D01*
X914155Y177577D01*
X914049Y177461D01*
X914039Y177452D01*
X914020Y177432D01*
X913991Y177413D01*
X913943Y177375D01*
X913885Y177327D01*
X913809Y177279D01*
X913722Y177231D01*
X913636Y177183D01*
X913530Y177125D01*
X913414Y177077D01*
X913290Y177029D01*
X913155Y176981D01*
X913011Y176942D01*
X912857Y176923D01*
X912694Y176904D01*
X912530Y176894D01*
X912453D01*
X912396Y176904D01*
X912319Y176913D01*
X912242Y176923D01*
X912146Y176933D01*
X912050Y176952D01*
X911829Y177010D01*
X911598Y177106D01*
X911483Y177154D01*
X911377Y177221D01*
X911262Y177298D01*
X911156Y177384D01*
X911147Y177394D01*
X911137Y177404D01*
X911108Y177432D01*
X911070Y177471D01*
X911031Y177529D01*
X910983Y177586D01*
X910925Y177654D01*
X910878Y177730D01*
X910762Y177923D01*
X910666Y178144D01*
X910580Y178393D01*
X910551Y178528D01*
X910532Y178672D01*
X911310Y178778D01*
Y178768D01*
X911320Y178749D01*
Y178711D01*
X911339Y178672D01*
X911368Y178557D01*
X911416Y178413D01*
X911473Y178259D01*
X911550Y178095D01*
X911646Y177951D01*
X911752Y177826D01*
X911771Y177817D01*
X911810Y177778D01*
X911877Y177740D01*
X911973Y177682D01*
X912079Y177634D01*
X912213Y177586D01*
X912367Y177548D01*
X912530Y177538D01*
X912588D01*
X912626Y177548D01*
X912723Y177557D01*
X912848Y177586D01*
X913001Y177634D01*
X913155Y177692D01*
X913309Y177788D01*
X913453Y177913D01*
X913472Y177932D01*
X913511Y177980D01*
X913568Y178057D01*
X913645Y178172D01*
X913712Y178307D01*
X913770Y178470D01*
X913809Y178653D01*
X913828Y178855D01*
Y178864D01*
Y178874D01*
Y178903D01*
X913818Y178941D01*
X913809Y179037D01*
X913780Y179162D01*
X913741Y179297D01*
X913674Y179451D01*
X913587Y179595D01*
X913472Y179729D01*
X913453Y179748D01*
X913414Y179787D01*
X913338Y179835D01*
X913232Y179902D01*
X913107Y179970D01*
X912953Y180017D01*
X912790Y180056D01*
X912598Y180075D01*
X912511D01*
X912444Y180066D01*
X912367Y180056D01*
X912271Y180046D01*
X912165Y180027D01*
X912050Y179998D01*
X912136Y180681D01*
X912184D01*
X912223Y180671D01*
X912348D01*
X912434Y180681D01*
X912559Y180700D01*
X912694Y180729D01*
X912838Y180777D01*
X912992Y180834D01*
X913145Y180921D01*
X913165Y180930D01*
X913213Y180969D01*
X913270Y181036D01*
X913347Y181123D01*
X913424Y181228D01*
X913482Y181363D01*
X913530Y181526D01*
X913549Y181719D01*
Y181728D01*
Y181738D01*
Y181786D01*
X913530Y181863D01*
X913511Y181968D01*
X913482Y182074D01*
X913424Y182189D01*
X913357Y182314D01*
X913261Y182420D01*
X913251Y182430D01*
X913213Y182468D01*
X913145Y182516D01*
X913059Y182564D01*
X912953Y182622D01*
X912828Y182660D01*
X912684Y182699D01*
X912521Y182708D01*
X912444D01*
X912357Y182689D01*
X912261Y182670D01*
X912136Y182641D01*
X912011Y182583D01*
X911887Y182516D01*
X911762Y182420D01*
X911752Y182410D01*
X911714Y182372D01*
X911666Y182305D01*
X911608Y182209D01*
X911541Y182093D01*
X911483Y181949D01*
X911425Y181776D01*
X911387Y181574D01*
X910608Y181709D01*
Y181719D01*
X910618Y181747D01*
X910628Y181786D01*
X910637Y181834D01*
X910656Y181901D01*
X910676Y181978D01*
X910743Y182151D01*
X910820Y182343D01*
X910935Y182545D01*
X911070Y182737D01*
X911243Y182910D01*
X911252Y182920D01*
X911262Y182929D01*
X911291Y182949D01*
X911339Y182977D01*
X911387Y183006D01*
X911444Y183045D01*
X911589Y183131D01*
X911771Y183208D01*
X911992Y183275D01*
X912232Y183323D01*
X912367Y183343D01*
X912588D01*
X912684Y183333D01*
D02*
G37*
G36*
X942148Y176923D02*
Y176913D01*
X942139Y176894D01*
X942120Y176856D01*
X942100Y176798D01*
X942081Y176741D01*
X942052Y176673D01*
X941995Y176510D01*
X941918Y176337D01*
X941850Y176173D01*
X941783Y176010D01*
X941745Y175943D01*
X941716Y175885D01*
X941706Y175866D01*
X941677Y175828D01*
X941639Y175760D01*
X941581Y175674D01*
X941504Y175587D01*
X941428Y175491D01*
X941332Y175405D01*
X941235Y175328D01*
X941226Y175318D01*
X941187Y175299D01*
X941130Y175270D01*
X941053Y175241D01*
X940966Y175203D01*
X940851Y175174D01*
X940736Y175155D01*
X940601Y175145D01*
X940563D01*
X940515Y175155D01*
X940457D01*
X940380Y175164D01*
X940294Y175184D01*
X940102Y175241D01*
X940015Y175962D01*
X940025D01*
X940053Y175952D01*
X940102Y175943D01*
X940169Y175924D01*
X940303Y175895D01*
X940457Y175885D01*
X940505D01*
X940543Y175895D01*
X940611D01*
X940745Y175924D01*
X940813Y175943D01*
X940870Y175972D01*
X940880D01*
X940899Y175991D01*
X940928Y176010D01*
X940957Y176039D01*
X941043Y176116D01*
X941130Y176222D01*
Y176231D01*
X941139Y176250D01*
X941159Y176279D01*
X941187Y176337D01*
X941216Y176414D01*
X941255Y176510D01*
X941303Y176644D01*
X941360Y176798D01*
X941370Y176808D01*
X941380Y176846D01*
X941408Y176904D01*
X941437Y176990D01*
X939698Y181574D01*
X940524D01*
X941476Y178941D01*
Y178932D01*
X941485Y178922D01*
X941495Y178893D01*
X941504Y178855D01*
X941543Y178749D01*
X941591Y178614D01*
X941639Y178461D01*
X941697Y178278D01*
X941754Y178086D01*
X941812Y177884D01*
Y177894D01*
X941822Y177903D01*
Y177932D01*
X941841Y177971D01*
X941860Y178076D01*
X941899Y178201D01*
X941947Y178355D01*
X942004Y178528D01*
X942062Y178711D01*
X942129Y178903D01*
X943109Y181574D01*
X943878D01*
X942148Y176923D01*
D02*
G37*
G36*
X927061Y183304D02*
X927128D01*
X927291Y183294D01*
X927474Y183266D01*
X927666Y183237D01*
X927858Y183189D01*
X928031Y183122D01*
X928041D01*
X928051Y183112D01*
X928108Y183083D01*
X928185Y183035D01*
X928281Y182977D01*
X928397Y182891D01*
X928512Y182785D01*
X928617Y182670D01*
X928723Y182526D01*
X928733Y182507D01*
X928762Y182458D01*
X928800Y182372D01*
X928848Y182266D01*
X928896Y182141D01*
X928935Y182007D01*
X928963Y181853D01*
X928973Y181690D01*
Y181670D01*
Y181622D01*
X928963Y181545D01*
X928944Y181440D01*
X928915Y181325D01*
X928877Y181200D01*
X928829Y181055D01*
X928752Y180921D01*
X928742Y180902D01*
X928714Y180863D01*
X928656Y180796D01*
X928589Y180719D01*
X928493Y180623D01*
X928377Y180536D01*
X928243Y180440D01*
X928079Y180354D01*
X928089D01*
X928108Y180344D01*
X928137Y180335D01*
X928176Y180325D01*
X928281Y180277D01*
X928406Y180219D01*
X928550Y180133D01*
X928694Y180037D01*
X928839Y179921D01*
X928963Y179777D01*
X928973Y179758D01*
X929012Y179710D01*
X929060Y179623D01*
X929127Y179508D01*
X929185Y179364D01*
X929233Y179210D01*
X929271Y179028D01*
X929281Y178826D01*
Y178807D01*
Y178749D01*
X929271Y178663D01*
X929261Y178557D01*
X929233Y178432D01*
X929204Y178288D01*
X929156Y178144D01*
X929088Y177999D01*
X929079Y177980D01*
X929060Y177932D01*
X929012Y177865D01*
X928963Y177778D01*
X928896Y177682D01*
X928819Y177586D01*
X928723Y177490D01*
X928627Y177404D01*
X928617Y177394D01*
X928579Y177375D01*
X928521Y177336D01*
X928435Y177288D01*
X928339Y177240D01*
X928214Y177192D01*
X928079Y177144D01*
X927935Y177096D01*
X927916D01*
X927858Y177077D01*
X927772Y177067D01*
X927656Y177048D01*
X927503Y177029D01*
X927330Y177019D01*
X927138Y177000D01*
X924514D01*
Y183314D01*
X926993D01*
X927061Y183304D01*
D02*
G37*
G36*
X918325D02*
X918498Y183294D01*
X918690Y183275D01*
X918873Y183247D01*
X919027Y183218D01*
X919036D01*
X919056Y183208D01*
X919075D01*
X919113Y183189D01*
X919219Y183160D01*
X919344Y183112D01*
X919488Y183054D01*
X919642Y182977D01*
X919796Y182881D01*
X919949Y182766D01*
X919959D01*
X919969Y182747D01*
X920036Y182689D01*
X920122Y182593D01*
X920228Y182468D01*
X920353Y182314D01*
X920478Y182132D01*
X920593Y181920D01*
X920699Y181680D01*
Y181670D01*
X920708Y181651D01*
X920718Y181613D01*
X920737Y181565D01*
X920757Y181507D01*
X920776Y181430D01*
X920805Y181344D01*
X920824Y181248D01*
X920843Y181142D01*
X920872Y181027D01*
X920910Y180777D01*
X920939Y180498D01*
X920949Y180191D01*
Y180181D01*
Y180162D01*
Y180123D01*
Y180066D01*
X920939Y180008D01*
Y179931D01*
X920930Y179758D01*
X920910Y179566D01*
X920872Y179345D01*
X920833Y179124D01*
X920776Y178912D01*
Y178903D01*
X920766Y178884D01*
X920757Y178855D01*
X920747Y178816D01*
X920708Y178720D01*
X920660Y178586D01*
X920603Y178442D01*
X920526Y178288D01*
X920439Y178134D01*
X920343Y177990D01*
X920334Y177971D01*
X920295Y177932D01*
X920247Y177865D01*
X920170Y177778D01*
X920093Y177692D01*
X919988Y177596D01*
X919882Y177500D01*
X919767Y177413D01*
X919757Y177404D01*
X919709Y177384D01*
X919642Y177346D01*
X919555Y177298D01*
X919450Y177250D01*
X919325Y177202D01*
X919180Y177154D01*
X919017Y177106D01*
X918998D01*
X918940Y177086D01*
X918854Y177077D01*
X918729Y177058D01*
X918585Y177038D01*
X918412Y177019D01*
X918219Y177010D01*
X918008Y177000D01*
X915740D01*
Y183314D01*
X918162D01*
X918325Y183304D01*
D02*
G37*
G36*
X932337Y181670D02*
X932423Y181661D01*
X932510Y181651D01*
X932615Y181632D01*
X932731Y181603D01*
X932971Y181526D01*
X933096Y181478D01*
X933230Y181421D01*
X933355Y181344D01*
X933480Y181257D01*
X933605Y181161D01*
X933720Y181055D01*
X933730Y181046D01*
X933749Y181027D01*
X933778Y180988D01*
X933817Y180940D01*
X933865Y180882D01*
X933913Y180806D01*
X933970Y180709D01*
X934028Y180613D01*
X934076Y180498D01*
X934134Y180364D01*
X934182Y180229D01*
X934230Y180075D01*
X934268Y179912D01*
X934297Y179729D01*
X934316Y179547D01*
X934326Y179345D01*
Y179335D01*
Y179306D01*
Y179258D01*
Y179201D01*
X934316Y179124D01*
Y179037D01*
X934307Y178941D01*
X934297Y178835D01*
X934259Y178614D01*
X934210Y178384D01*
X934143Y178153D01*
X934057Y177951D01*
Y177942D01*
X934047Y177932D01*
X934009Y177865D01*
X933941Y177778D01*
X933855Y177663D01*
X933749Y177538D01*
X933615Y177413D01*
X933461Y177288D01*
X933278Y177173D01*
X933269D01*
X933259Y177163D01*
X933230Y177144D01*
X933192Y177135D01*
X933086Y177086D01*
X932952Y177038D01*
X932788Y176981D01*
X932606Y176942D01*
X932404Y176904D01*
X932183Y176894D01*
X932087D01*
X932020Y176904D01*
X931943Y176913D01*
X931847Y176923D01*
X931741Y176942D01*
X931625Y176971D01*
X931385Y177048D01*
X931251Y177096D01*
X931126Y177154D01*
X930991Y177221D01*
X930866Y177307D01*
X930741Y177404D01*
X930626Y177509D01*
X930616Y177519D01*
X930597Y177538D01*
X930568Y177577D01*
X930540Y177625D01*
X930492Y177692D01*
X930443Y177769D01*
X930386Y177855D01*
X930338Y177961D01*
X930280Y178086D01*
X930222Y178211D01*
X930174Y178365D01*
X930136Y178518D01*
X930097Y178691D01*
X930069Y178874D01*
X930049Y179076D01*
X930040Y179287D01*
Y179306D01*
Y179345D01*
X930049Y179412D01*
Y179499D01*
X930059Y179604D01*
X930078Y179720D01*
X930097Y179854D01*
X930126Y179998D01*
X930165Y180152D01*
X930213Y180306D01*
X930270Y180460D01*
X930338Y180613D01*
X930415Y180767D01*
X930511Y180911D01*
X930616Y181046D01*
X930741Y181171D01*
X930751Y181180D01*
X930770Y181190D01*
X930799Y181219D01*
X930847Y181248D01*
X930905Y181286D01*
X930972Y181334D01*
X931049Y181382D01*
X931145Y181430D01*
X931241Y181469D01*
X931347Y181517D01*
X931597Y181603D01*
X931875Y181661D01*
X932029Y181670D01*
X932183Y181680D01*
X932269D01*
X932337Y181670D01*
D02*
G37*
%LPC*%
G36*
X937045Y181036D02*
X936901D01*
X936863Y181027D01*
X936767Y181017D01*
X936652Y180988D01*
X936517Y180930D01*
X936373Y180854D01*
X936229Y180757D01*
X936161Y180690D01*
X936094Y180613D01*
X936075Y180594D01*
X936065Y180565D01*
X936036Y180536D01*
X936017Y180488D01*
X935988Y180431D01*
X935950Y180364D01*
X935921Y180287D01*
X935892Y180200D01*
X935854Y180104D01*
X935825Y179989D01*
X935806Y179873D01*
X935777Y179739D01*
X935767Y179595D01*
X935748Y179441D01*
Y179278D01*
Y179268D01*
Y179239D01*
Y179191D01*
X935758Y179133D01*
Y179057D01*
X935767Y178980D01*
X935796Y178778D01*
X935835Y178566D01*
X935902Y178345D01*
X935988Y178144D01*
X936046Y178048D01*
X936113Y177961D01*
X936133Y177942D01*
X936181Y177894D01*
X936257Y177826D01*
X936363Y177750D01*
X936488Y177663D01*
X936632Y177596D01*
X936805Y177548D01*
X936892Y177538D01*
X936988Y177529D01*
X937036D01*
X937074Y177538D01*
X937170Y177548D01*
X937286Y177577D01*
X937420Y177634D01*
X937564Y177701D01*
X937718Y177807D01*
X937786Y177865D01*
X937853Y177942D01*
Y177951D01*
X937872Y177961D01*
X937882Y177990D01*
X937910Y178019D01*
X937939Y178067D01*
X937968Y178115D01*
X937997Y178182D01*
X938035Y178259D01*
X938064Y178336D01*
X938093Y178432D01*
X938122Y178538D01*
X938151Y178653D01*
X938179Y178778D01*
X938189Y178912D01*
X938208Y179057D01*
Y179210D01*
Y179220D01*
Y179249D01*
Y179297D01*
X938199Y179364D01*
Y179441D01*
X938189Y179527D01*
X938160Y179739D01*
X938122Y179960D01*
X938054Y180191D01*
X937968Y180412D01*
X937910Y180508D01*
X937843Y180594D01*
Y180604D01*
X937824Y180613D01*
X937776Y180661D01*
X937699Y180738D01*
X937593Y180815D01*
X937468Y180892D01*
X937315Y180969D01*
X937142Y181017D01*
X937045Y181036D01*
D02*
G37*
G36*
X926840Y182574D02*
X925350D01*
Y180652D01*
X926897D01*
X927013Y180661D01*
X927147Y180671D01*
X927282Y180681D01*
X927397Y180700D01*
X927503Y180719D01*
X927512Y180729D01*
X927551Y180738D01*
X927608Y180757D01*
X927685Y180796D01*
X927762Y180834D01*
X927839Y180892D01*
X927916Y180959D01*
X927983Y181036D01*
X927993Y181046D01*
X928012Y181075D01*
X928031Y181123D01*
X928070Y181190D01*
X928099Y181267D01*
X928118Y181363D01*
X928137Y181469D01*
X928147Y181594D01*
Y181603D01*
Y181651D01*
X928137Y181709D01*
X928127Y181786D01*
X928108Y181872D01*
X928079Y181959D01*
X928041Y182055D01*
X927993Y182151D01*
X927983Y182161D01*
X927964Y182189D01*
X927926Y182228D01*
X927878Y182285D01*
X927820Y182334D01*
X927743Y182391D01*
X927656Y182439D01*
X927560Y182478D01*
X927551D01*
X927503Y182497D01*
X927435Y182507D01*
X927339Y182526D01*
X927205Y182545D01*
X927042Y182555D01*
X926840Y182574D01*
D02*
G37*
G36*
X927013Y179912D02*
X925350D01*
Y177740D01*
X927138D01*
X927330Y177750D01*
X927416Y177759D01*
X927483Y177769D01*
X927493D01*
X927532Y177778D01*
X927589Y177788D01*
X927656Y177807D01*
X927810Y177855D01*
X927964Y177932D01*
X927974Y177942D01*
X928002Y177951D01*
X928031Y177980D01*
X928079Y178028D01*
X928137Y178076D01*
X928185Y178134D01*
X928243Y178211D01*
X928291Y178288D01*
X928300Y178297D01*
X928310Y178326D01*
X928329Y178374D01*
X928358Y178442D01*
X928377Y178518D01*
X928397Y178614D01*
X928406Y178711D01*
X928416Y178826D01*
Y178845D01*
Y178884D01*
X928406Y178951D01*
X928397Y179028D01*
X928368Y179124D01*
X928339Y179229D01*
X928291Y179335D01*
X928224Y179431D01*
X928214Y179441D01*
X928195Y179479D01*
X928147Y179518D01*
X928089Y179576D01*
X928022Y179643D01*
X927935Y179700D01*
X927839Y179758D01*
X927724Y179806D01*
X927705Y179816D01*
X927666Y179825D01*
X927589Y179845D01*
X927493Y179864D01*
X927359Y179883D01*
X927205Y179893D01*
X927013Y179912D01*
D02*
G37*
G36*
X917893Y182574D02*
X916576D01*
Y177740D01*
X918018D01*
X918123Y177750D01*
X918268Y177759D01*
X918421Y177769D01*
X918585Y177788D01*
X918738Y177817D01*
X918883Y177855D01*
X918902Y177865D01*
X918940Y177875D01*
X919007Y177903D01*
X919084Y177942D01*
X919180Y177990D01*
X919277Y178038D01*
X919363Y178105D01*
X919450Y178182D01*
X919459Y178192D01*
X919498Y178240D01*
X919555Y178307D01*
X919623Y178393D01*
X919690Y178509D01*
X919767Y178643D01*
X919844Y178807D01*
X919911Y178980D01*
Y178989D01*
X919921Y178999D01*
X919930Y179028D01*
X919940Y179066D01*
X919949Y179114D01*
X919969Y179172D01*
X919997Y179316D01*
X920026Y179499D01*
X920055Y179710D01*
X920074Y179941D01*
X920084Y180200D01*
Y180210D01*
Y180248D01*
Y180296D01*
Y180364D01*
X920074Y180450D01*
X920065Y180546D01*
X920055Y180652D01*
X920045Y180757D01*
X920007Y181007D01*
X919949Y181257D01*
X919863Y181498D01*
X919815Y181613D01*
X919757Y181719D01*
Y181728D01*
X919738Y181738D01*
X919728Y181767D01*
X919699Y181805D01*
X919632Y181901D01*
X919536Y182007D01*
X919421Y182132D01*
X919286Y182247D01*
X919133Y182353D01*
X918969Y182439D01*
X918950Y182449D01*
X918902Y182458D01*
X918825Y182478D01*
X918710Y182507D01*
X918556Y182535D01*
X918373Y182555D01*
X918152Y182564D01*
X917893Y182574D01*
D02*
G37*
G36*
X932288Y181036D02*
X932125D01*
X932087Y181027D01*
X931981Y181017D01*
X931847Y180979D01*
X931693Y180930D01*
X931529Y180854D01*
X931366Y180738D01*
X931289Y180671D01*
X931212Y180594D01*
X931193Y180575D01*
X931174Y180546D01*
X931155Y180517D01*
X931126Y180469D01*
X931097Y180412D01*
X931059Y180344D01*
X931030Y180267D01*
X930991Y180181D01*
X930953Y180085D01*
X930924Y179979D01*
X930895Y179854D01*
X930876Y179729D01*
X930857Y179585D01*
X930837Y179441D01*
Y179278D01*
Y179268D01*
Y179239D01*
Y179191D01*
X930847Y179133D01*
Y179066D01*
X930857Y178980D01*
X930886Y178787D01*
X930933Y178576D01*
X930991Y178355D01*
X931087Y178144D01*
X931145Y178048D01*
X931212Y177961D01*
X931231Y177942D01*
X931279Y177894D01*
X931366Y177826D01*
X931481Y177750D01*
X931616Y177663D01*
X931789Y177596D01*
X931971Y177548D01*
X932077Y177538D01*
X932183Y177529D01*
X932240D01*
X932279Y177538D01*
X932385Y177548D01*
X932519Y177586D01*
X932673Y177634D01*
X932836Y177711D01*
X932990Y177817D01*
X933067Y177884D01*
X933144Y177961D01*
Y177971D01*
X933163Y177980D01*
X933182Y178009D01*
X933202Y178048D01*
X933230Y178095D01*
X933269Y178153D01*
X933298Y178220D01*
X933336Y178297D01*
X933375Y178384D01*
X933403Y178480D01*
X933442Y178595D01*
X933471Y178720D01*
X933490Y178845D01*
X933509Y178989D01*
X933528Y179143D01*
Y179306D01*
Y179316D01*
Y179345D01*
Y179383D01*
X933519Y179451D01*
Y179518D01*
X933509Y179595D01*
X933480Y179787D01*
X933432Y179989D01*
X933365Y180210D01*
X933269Y180412D01*
X933134Y180594D01*
Y180604D01*
X933115Y180613D01*
X933067Y180661D01*
X932981Y180738D01*
X932875Y180815D01*
X932731Y180892D01*
X932567Y180969D01*
X932385Y181017D01*
X932288Y181036D01*
D02*
G37*
%LPD*%
D10*
X276626Y672654D02*
G03*
X261531Y656264I435J-15546D01*
G01*
X561803Y665073D02*
G03*
X550626Y672654I-11018J-4215D01*
G01*
X563022Y661886D02*
G03*
X573076Y654642I10532J4019D01*
G01*
X623365Y641708D02*
G03*
X610925Y654642I-12687J247D01*
G01*
X609075Y337545D02*
G03*
X623365Y351914I30J14260D01*
G01*
X577417Y337545D02*
G03*
X565059Y330674I31J-14604D01*
G01*
X550000Y322736D02*
G03*
X565059Y330674I661J17000D01*
G01*
X290174Y325762D02*
G03*
X296457Y322736I6097J4625D01*
G01*
X290271Y325688D02*
G03*
X281693Y329653I-8805J-7785D01*
G01*
X261532Y341993D02*
G03*
X274182Y329653I12282J-63D01*
G01*
X561803Y665073D02*
X563022Y661886D01*
X276626Y672654D02*
X550785D01*
X573076Y654642D02*
X577020D01*
X610925D01*
X623365Y351914D02*
Y641708D01*
X577417Y337545D02*
X609105D01*
X296457Y322736D02*
X550000D01*
X274182Y329653D02*
X281693D01*
X261531Y656264D02*
X261532Y341993D01*
D116*
X442664Y377695D02*
G03*
X442719Y377695I28J28D01*
G01*
X443415Y378391D02*
G03*
X443415Y378447I-28J28D01*
G01*
X417664Y386799D02*
G03*
X417664Y386743I28J-28D01*
G01*
X418360Y386047D02*
G03*
X418416Y386047I28J28D01*
G01*
X402353Y402110D02*
G03*
X402353Y402054I28J-28D01*
G01*
X403049Y401358D02*
G03*
X403105Y401358I28J28D01*
G01*
X426768Y450772D02*
G03*
X426712Y450772I-28J-28D01*
G01*
X426016Y450076D02*
G03*
X426016Y450021I28J-28D01*
G01*
X418416Y442421D02*
G03*
X418360Y442421I-28J-28D01*
G01*
X417664Y441725D02*
G03*
X417664Y441669I28J-28D01*
G01*
X403105Y427109D02*
G03*
X403049Y427109I-28J-28D01*
G01*
X402353Y426413D02*
G03*
X402353Y426358I28J-28D01*
G01*
X451767Y441669D02*
G03*
X451767Y441725I-28J28D01*
G01*
X451071Y442421D02*
G03*
X451015Y442421I-28J-28D01*
G01*
X467078Y426358D02*
G03*
X467078Y426413I-28J28D01*
G01*
X466382Y427109D02*
G03*
X466327Y427109I-28J-28D01*
G01*
X466327Y401358D02*
G03*
X466382Y401358I28J28D01*
G01*
X467078Y402054D02*
G03*
X467078Y402110I-28J28D01*
G01*
X451015Y386047D02*
G03*
X451071Y386047I28J28D01*
G01*
X451767Y386743D02*
G03*
X451767Y386799I-28J28D01*
G01*
X426016Y378447D02*
G03*
X426016Y378391I28J-28D01*
G01*
X426712Y377695D02*
G03*
X426768Y377695I28J28D01*
G01*
X410705Y393758D02*
G03*
X410705Y393703I28J-28D01*
G01*
X411401Y393007D02*
G03*
X411456Y393007I28J28D01*
G01*
X395393Y409070D02*
G03*
X395393Y409014I28J-28D01*
G01*
X396089Y408318D02*
G03*
X396145Y408318I28J28D01*
G01*
X443415Y450021D02*
G03*
X443415Y450076I-28J28D01*
G01*
X442719Y450772D02*
G03*
X442664Y450772I-28J-28D01*
G01*
X410064Y434069D02*
G03*
X410009Y434069I-28J-28D01*
G01*
X409313Y433373D02*
G03*
X409313Y433317I28J-28D01*
G01*
X458727Y434709D02*
G03*
X458727Y434765I-28J28D01*
G01*
X458031Y435461D02*
G03*
X457975Y435461I-28J-28D01*
G01*
X474038Y419398D02*
G03*
X474038Y419454I-28J28D01*
G01*
X473342Y420150D02*
G03*
X473286Y420150I-28J-28D01*
G01*
X459367Y394399D02*
G03*
X459423Y394399I28J28D01*
G01*
X460119Y395095D02*
G03*
X460119Y395150I-28J28D01*
G01*
X444056Y379087D02*
G03*
X444111Y379087I28J28D01*
G01*
X444807Y379783D02*
G03*
X444807Y379839I-28J28D01*
G01*
X419056Y385407D02*
G03*
X419056Y385351I28J-28D01*
G01*
X419752Y384655D02*
G03*
X419808Y384655I28J28D01*
G01*
X403745Y400718D02*
G03*
X403745Y400663I28J-28D01*
G01*
X404441Y399967D02*
G03*
X404497Y399966I28J28D01*
G01*
X425376Y449380D02*
G03*
X425320Y449380I-28J-28D01*
G01*
X424624Y448684D02*
G03*
X424624Y448629I28J-28D01*
G01*
X417024Y441029D02*
G03*
X416968Y441029I-28J-28D01*
G01*
X416272Y440333D02*
G03*
X416272Y440277I28J-28D01*
G01*
X401713Y425717D02*
G03*
X401657Y425717I-28J-28D01*
G01*
X400961Y425022D02*
G03*
X400961Y424966I28J-28D01*
G01*
X450375Y443061D02*
G03*
X450375Y443117I-28J28D01*
G01*
X449679Y443813D02*
G03*
X449623Y443813I-28J-28D01*
G01*
X465686Y427750D02*
G03*
X465686Y427805I-28J28D01*
G01*
X464990Y428501D02*
G03*
X464935Y428501I-28J-28D01*
G01*
X467719Y402750D02*
G03*
X467774Y402750I28J28D01*
G01*
X468470Y403446D02*
G03*
X468470Y403502I-28J28D01*
G01*
X452407Y387439D02*
G03*
X452463Y387439I28J28D01*
G01*
X453159Y388135D02*
G03*
X453159Y388191I-28J28D01*
G01*
X427408Y377055D02*
G03*
X427408Y376999I28J-28D01*
G01*
X428104Y376303D02*
G03*
X428160Y376303I28J28D01*
G01*
X412097Y392366D02*
G03*
X412097Y392311I28J-28D01*
G01*
X412793Y391615D02*
G03*
X412848Y391615I28J28D01*
G01*
X396785Y407678D02*
G03*
X396785Y407622I28J-28D01*
G01*
X397481Y406926D02*
G03*
X397537Y406926I28J28D01*
G01*
X442023Y451413D02*
G03*
X442023Y451468I-28J28D01*
G01*
X441327Y452164D02*
G03*
X441272Y452164I-28J-28D01*
G01*
X408672Y432677D02*
G03*
X408617Y432677I-28J-28D01*
G01*
X407921Y431981D02*
G03*
X407921Y431925I28J-28D01*
G01*
X457335Y436101D02*
G03*
X457335Y436157I-28J28D01*
G01*
X456639Y436853D02*
G03*
X456583Y436853I-28J-28D01*
G01*
X472646Y420790D02*
G03*
X472646Y420846I-28J28D01*
G01*
X471950Y421542D02*
G03*
X471894Y421542I-28J-28D01*
G01*
X460759Y395791D02*
G03*
X460815Y395791I28J28D01*
G01*
X461511Y396487D02*
G03*
X461511Y396542I-28J28D01*
G01*
X445448Y380479D02*
G03*
X445503Y380479I28J28D01*
G01*
X446199Y381175D02*
G03*
X446199Y381231I-28J28D01*
G01*
X420448Y384015D02*
G03*
X420448Y383959I28J-28D01*
G01*
X421144Y383263D02*
G03*
X421200Y383263I28J28D01*
G01*
X405137Y399326D02*
G03*
X405137Y399271I28J-28D01*
G01*
X405833Y398574D02*
G03*
X405889Y398574I28J28D01*
G01*
X423984Y447989D02*
G03*
X423928Y447989I-28J-28D01*
G01*
X423232Y447293D02*
G03*
X423232Y447237I28J-28D01*
G01*
X415632Y439637D02*
G03*
X415577Y439637I-28J-28D01*
G01*
X414881Y438941D02*
G03*
X414881Y438885I28J-28D01*
G01*
X400321Y424326D02*
G03*
X400265Y424326I-28J-28D01*
G01*
X399569Y423630D02*
G03*
X399569Y423574I28J-28D01*
G01*
X448983Y444453D02*
G03*
X448983Y444509I-28J28D01*
G01*
X448287Y445205D02*
G03*
X448232Y445204I-28J-28D01*
G01*
X464294Y429142D02*
G03*
X464294Y429197I-28J28D01*
G01*
X463598Y429893D02*
G03*
X463543Y429893I-28J-28D01*
G01*
X469111Y404142D02*
G03*
X469166Y404142I28J28D01*
G01*
X469862Y404838D02*
G03*
X469862Y404894I-28J28D01*
G01*
X453799Y388831D02*
G03*
X453855Y388831I28J28D01*
G01*
X454551Y389527D02*
G03*
X454551Y389582I-28J28D01*
G01*
X428800Y375663D02*
G03*
X428800Y375607I28J-28D01*
G01*
X429496Y374911D02*
G03*
X429552Y374911I28J28D01*
G01*
X413488Y390974D02*
G03*
X413489Y390919I28J-28D01*
G01*
X414185Y390223D02*
G03*
X414240Y390223I28J28D01*
G01*
X398177Y406286D02*
G03*
X398177Y406230I28J-28D01*
G01*
X398873Y405534D02*
G03*
X398929Y405534I28J28D01*
G01*
X440631Y452805D02*
G03*
X440631Y452860I-28J28D01*
G01*
X439935Y453556D02*
G03*
X439880Y453556I-28J-28D01*
G01*
X407280Y431285D02*
G03*
X407225Y431285I-28J-28D01*
G01*
X406529Y430589D02*
G03*
X406529Y430534I28J-28D01*
G01*
X455943Y437493D02*
G03*
X455943Y437549I-28J28D01*
G01*
X455247Y438245D02*
G03*
X455191Y438245I-28J-28D01*
G01*
X457975Y393007D02*
G03*
X458031Y393007I28J28D01*
G01*
X458727Y393703D02*
G03*
X458727Y393758I-28J28D01*
G01*
X471254Y422182D02*
G03*
X471254Y422238I-28J28D01*
G01*
X470558Y422933D02*
G03*
X470503Y422933I-28J-28D01*
G01*
X462151Y397183D02*
G03*
X462207Y397183I28J28D01*
G01*
X462902Y397879D02*
G03*
X462902Y397934I-28J28D01*
G01*
X446840Y381871D02*
G03*
X446895Y381871I28J28D01*
G01*
X447591Y382567D02*
G03*
X447591Y382623I-28J28D01*
G01*
X421840D02*
G03*
X421840Y382567I28J-28D01*
G01*
X422536Y381871D02*
G03*
X422592Y381871I28J28D01*
G01*
X406529Y397934D02*
G03*
X406529Y397879I28J-28D01*
G01*
X407225Y397183D02*
G03*
X407280Y397182I28J28D01*
G01*
X422592Y446597D02*
G03*
X422536Y446597I-28J-28D01*
G01*
X421840Y445901D02*
G03*
X421840Y445845I28J-28D01*
G01*
X414240Y438245D02*
G03*
X414185Y438245I-28J-28D01*
G01*
X413488Y437549D02*
G03*
X413488Y437493I28J-28D01*
G01*
X398929Y422933D02*
G03*
X398873Y422933I-28J-28D01*
G01*
X398177Y422238D02*
G03*
X398177Y422182I28J-28D01*
G01*
X447591Y445845D02*
G03*
X447591Y445901I-28J28D01*
G01*
X446895Y446597D02*
G03*
X446840Y446596I-28J-28D01*
G01*
X462902Y430534D02*
G03*
X462902Y430589I-28J28D01*
G01*
X462207Y431285D02*
G03*
X462151Y431285I-28J-28D01*
G01*
X470503Y405534D02*
G03*
X470558Y405534I28J28D01*
G01*
X471254Y406230D02*
G03*
X471254Y406286I-28J28D01*
G01*
X455191Y390223D02*
G03*
X455247Y390223I28J28D01*
G01*
X455943Y390919D02*
G03*
X455943Y390974I-28J28D01*
G01*
X439880Y374911D02*
G03*
X439935Y374911I28J28D01*
G01*
X440631Y375607D02*
G03*
X440631Y375663I-28J28D01*
G01*
X414881Y389582D02*
G03*
X414881Y389527I28J-28D01*
G01*
X415577Y388831D02*
G03*
X415632Y388831I28J28D01*
G01*
X399569Y404894D02*
G03*
X399569Y404838I28J-28D01*
G01*
X400265Y404142D02*
G03*
X400321Y404142I28J28D01*
G01*
X429552Y453556D02*
G03*
X429496Y453556I-28J-28D01*
G01*
X428800Y452860D02*
G03*
X428800Y452805I28J-28D01*
G01*
X405889Y429893D02*
G03*
X405833Y429893I-28J-28D01*
G01*
X405137Y429197D02*
G03*
X405137Y429142I28J-28D01*
G01*
X454551Y438885D02*
G03*
X454551Y438941I-28J28D01*
G01*
X453855Y439637D02*
G03*
X453799Y439637I-28J-28D01*
G01*
X469862Y423574D02*
G03*
X469862Y423630I-28J28D01*
G01*
X469166Y424326D02*
G03*
X469110Y424326I-28J-28D01*
G01*
X463543Y398574D02*
G03*
X463598Y398574I28J28D01*
G01*
X464294Y399271D02*
G03*
X464294Y399326I-28J28D01*
G01*
X448232Y383263D02*
G03*
X448287Y383263I28J28D01*
G01*
X448983Y383959D02*
G03*
X448983Y384015I-28J28D01*
G01*
X423232Y381231D02*
G03*
X423232Y381175I28J-28D01*
G01*
X423928Y380479D02*
G03*
X423984Y380479I28J28D01*
G01*
X407921Y396542D02*
G03*
X407921Y396487I28J-28D01*
G01*
X408617Y395791D02*
G03*
X408672Y395791I28J28D01*
G01*
X421200Y445205D02*
G03*
X421144Y445205I-28J-28D01*
G01*
X420448Y444509D02*
G03*
X420448Y444453I28J-28D01*
G01*
X397537Y421542D02*
G03*
X397481Y421542I-28J-28D01*
G01*
X396785Y420846D02*
G03*
X396785Y420790I28J-28D01*
G01*
X446199Y447237D02*
G03*
X446199Y447293I-28J28D01*
G01*
X445503Y447989D02*
G03*
X445448Y447988I-28J-28D01*
G01*
X412848Y436853D02*
G03*
X412793Y436853I-28J-28D01*
G01*
X412097Y436157D02*
G03*
X412097Y436101I28J-28D01*
G01*
X461511Y431925D02*
G03*
X461511Y431981I-28J28D01*
G01*
X460815Y432677D02*
G03*
X460759Y432677I-28J-28D01*
G01*
X471895Y406926D02*
G03*
X471950Y406926I28J28D01*
G01*
X472646Y407622D02*
G03*
X472646Y407678I-28J28D01*
G01*
X456583Y391615D02*
G03*
X456639Y391615I28J28D01*
G01*
X457335Y392311D02*
G03*
X457335Y392366I-28J28D01*
G01*
X441272Y376303D02*
G03*
X441327Y376304I28J28D01*
G01*
X442023Y376999D02*
G03*
X442023Y377055I-28J28D01*
G01*
X416272Y388191D02*
G03*
X416272Y388135I28J-28D01*
G01*
X416968Y387439D02*
G03*
X417024Y387439I28J28D01*
G01*
X400961Y403502D02*
G03*
X400961Y403446I28J-28D01*
G01*
X401657Y402750D02*
G03*
X401713Y402750I28J28D01*
G01*
X428160Y452164D02*
G03*
X428104Y452164I-28J-28D01*
G01*
X427408Y451468D02*
G03*
X427408Y451413I28J-28D01*
G01*
X419808Y443813D02*
G03*
X419752Y443813I-28J-28D01*
G01*
X419056Y443117D02*
G03*
X419056Y443061I28J-28D01*
G01*
X404497Y428501D02*
G03*
X404441Y428501I-28J-28D01*
G01*
X403745Y427805D02*
G03*
X403745Y427750I28J-28D01*
G01*
X453159Y440277D02*
G03*
X453159Y440333I-28J28D01*
G01*
X452463Y441029D02*
G03*
X452407Y441029I-28J-28D01*
G01*
X468470Y424966D02*
G03*
X468470Y425022I-28J28D01*
G01*
X467774Y425717D02*
G03*
X467719Y425717I-28J-28D01*
G01*
X464935Y399967D02*
G03*
X464990Y399967I28J28D01*
G01*
X465686Y400663D02*
G03*
X465686Y400718I-28J28D01*
G01*
X449623Y384655D02*
G03*
X449679Y384655I28J28D01*
G01*
X450375Y385351D02*
G03*
X450375Y385407I-28J28D01*
G01*
X424624Y379839D02*
G03*
X424624Y379783I28J-28D01*
G01*
X425320Y379087D02*
G03*
X425376Y379087I28J28D01*
G01*
X409313Y395150D02*
G03*
X409313Y395095I28J-28D01*
G01*
X410009Y394399D02*
G03*
X410064Y394399I28J28D01*
G01*
X396145Y420150D02*
G03*
X396089Y420150I-28J-28D01*
G01*
X395393Y419454D02*
G03*
X395393Y419398I28J-28D01*
G01*
X444807Y448629D02*
G03*
X444807Y448684I-28J28D01*
G01*
X444111Y449380D02*
G03*
X444056Y449380I-28J-28D01*
G01*
X411456Y435461D02*
G03*
X411401Y435461I-28J-28D01*
G01*
X410705Y434765D02*
G03*
X410705Y434709I28J-28D01*
G01*
X460119Y433317D02*
G03*
X460119Y433373I-28J28D01*
G01*
X459423Y434069D02*
G03*
X459367Y434069I-28J-28D01*
G01*
X473286Y408318D02*
G03*
X473342Y408318I28J28D01*
G01*
X474038Y409014D02*
G03*
X474038Y409070I-28J28D01*
G01*
X433324Y385003D02*
G03*
X436108Y382219I1392J-1392D01*
G01*
D02*
G03*
X433324Y385003I-1392J1392D01*
G01*
X441728Y380134D02*
X442127Y379735D01*
X441218Y380644D02*
X441728Y380134D01*
X440659Y381203D02*
X441218Y380644D01*
X442719Y377695D02*
X443415Y378391D01*
X440466Y379893D02*
X440977Y379382D01*
X441652Y378707D02*
X442664Y377695D01*
X440977Y379382D02*
X441375Y378984D01*
X442127Y379735D02*
X442404Y379458D01*
X443415Y378447D01*
X441375Y378984D02*
X441652Y378707D01*
X439908Y380451D02*
X440466Y379893D01*
X419704Y387335D02*
X420103Y387734D01*
X420613Y388245D01*
X421172Y388803D01*
X417664Y386743D02*
X418360Y386047D01*
X419351Y388485D02*
X419862Y388996D01*
X417664Y386799D02*
X418676Y387810D01*
X418953Y388087D02*
X419351Y388485D01*
X419427Y387058D02*
X419704Y387335D01*
X418416Y386047D02*
X419427Y387058D01*
X418676Y387810D02*
X418953Y388087D01*
X419862Y388996D02*
X420420Y389555D01*
X404393Y402647D02*
X404791Y403045D01*
X405302Y403556D01*
X405861Y404114D01*
X402353Y402054D02*
X403049Y401358D01*
X404040Y403797D02*
X404551Y404308D01*
X402353Y402110D02*
X403364Y403121D01*
X403641Y403398D02*
X404040Y403797D01*
X404116Y402370D02*
X404393Y402647D01*
X403105Y401358D02*
X404116Y402370D01*
X403364Y403121D02*
X403641Y403398D01*
X404551Y404308D02*
X405109Y404866D01*
X427304Y448733D02*
X427703Y448334D01*
X428214Y447823D01*
X428772Y447265D01*
X426016Y450076D02*
X426712Y450772D01*
X428454Y449086D02*
X428965Y448575D01*
X426768Y450772D02*
X427779Y449761D01*
X428056Y449484D02*
X428454Y449086D01*
X427027Y449009D02*
X427304Y448733D01*
X426016Y450021D02*
X427027Y449009D01*
X427779Y449761D02*
X428056Y449484D01*
X428965Y448575D02*
X429524Y448016D01*
X418953Y440381D02*
X419351Y439982D01*
X419862Y439472D01*
X420420Y438913D01*
X417664Y441725D02*
X418360Y442421D01*
X420103Y440734D02*
X420613Y440223D01*
X418416Y442421D02*
X419427Y441409D01*
X419704Y441132D02*
X420103Y440734D01*
X418676Y440658D02*
X418953Y440381D01*
X417664Y441669D02*
X418676Y440658D01*
X419427Y441409D02*
X419704Y441132D01*
X420613Y440223D02*
X421172Y439665D01*
X403641Y425070D02*
X404040Y424671D01*
X404551Y424160D01*
X405109Y423602D01*
X402353Y426413D02*
X403049Y427109D01*
X404791Y425422D02*
X405302Y424912D01*
X403105Y427109D02*
X404116Y426098D01*
X404393Y425821D02*
X404791Y425422D01*
X403364Y425346D02*
X403641Y425070D01*
X402353Y426358D02*
X403364Y425346D01*
X404116Y426098D02*
X404393Y425821D01*
X405302Y424912D02*
X405861Y424353D01*
X449329Y440734D02*
X449727Y441132D01*
X448818Y440223D02*
X449329Y440734D01*
X448259Y439665D02*
X448818Y440223D01*
X451071Y442421D02*
X451767Y441725D01*
X449570Y439472D02*
X450080Y439982D01*
X450756Y440658D02*
X451767Y441669D01*
X450080Y439982D02*
X450479Y440381D01*
X449727Y441132D02*
X450004Y441409D01*
X451015Y442421D01*
X450479Y440381D02*
X450756Y440658D01*
X449011Y438913D02*
X449570Y439472D01*
X464640Y425422D02*
X465038Y425821D01*
X464129Y424912D02*
X464640Y425422D01*
X463571Y424353D02*
X464129Y424912D01*
X466382Y427109D02*
X467078Y426413D01*
X464881Y424160D02*
X465391Y424671D01*
X466067Y425346D02*
X467078Y426358D01*
X465391Y424671D02*
X465790Y425070D01*
X465038Y425821D02*
X465315Y426098D01*
X466327Y427109D01*
X465790Y425070D02*
X466067Y425346D01*
X464322Y423602D02*
X464881Y424160D01*
X465392Y403797D02*
X465790Y403398D01*
X464881Y404308D02*
X465392Y403797D01*
X464322Y404866D02*
X464881Y404308D01*
X466382Y401358D02*
X467078Y402054D01*
X464129Y403556D02*
X464640Y403045D01*
X465315Y402370D02*
X466327Y401358D01*
X464640Y403045D02*
X465038Y402647D01*
X465790Y403398D02*
X466067Y403121D01*
X467078Y402110D01*
X465038Y402647D02*
X465315Y402370D01*
X463571Y404114D02*
X464129Y403556D01*
X450080Y388485D02*
X450479Y388087D01*
X449570Y388996D02*
X450080Y388485D01*
X449011Y389555D02*
X449570Y388996D01*
X451071Y386047D02*
X451767Y386743D01*
X448818Y388245D02*
X449329Y387734D01*
X450004Y387058D02*
X451015Y386047D01*
X449329Y387734D02*
X449727Y387335D01*
X450479Y388087D02*
X450756Y387810D01*
X451767Y386799D01*
X449727Y387335D02*
X450004Y387058D01*
X448259Y388803D02*
X448818Y388245D01*
X428056Y378984D02*
X428454Y379382D01*
X428965Y379893D01*
X429524Y380451D01*
X426016Y378391D02*
X426712Y377695D01*
X427703Y380134D02*
X428214Y380644D01*
X426016Y378447D02*
X427027Y379458D01*
X427304Y379735D02*
X427703Y380134D01*
X427779Y378707D02*
X428056Y378984D01*
X426768Y377695D02*
X427779Y378707D01*
X427027Y379458D02*
X427304Y379735D01*
X428214Y380644D02*
X428772Y381203D01*
X412745Y394295D02*
X413143Y394693D01*
X413654Y395204D01*
X414212Y395763D01*
X410705Y393703D02*
X411401Y393007D01*
X412392Y395445D02*
X412902Y395956D01*
X410705Y393758D02*
X411716Y394770D01*
X411993Y395047D02*
X412392Y395445D01*
X412468Y394018D02*
X412745Y394295D01*
X411456Y393007D02*
X412468Y394018D01*
X411716Y394770D02*
X411993Y395047D01*
X412902Y395956D02*
X413461Y396514D01*
X397433Y409606D02*
X397832Y410005D01*
X398342Y410516D01*
X398901Y411074D01*
X395393Y409014D02*
X396089Y408318D01*
X397080Y410757D02*
X397591Y411267D01*
X395393Y409070D02*
X396405Y410081D01*
X396681Y410358D02*
X397080Y410757D01*
X397156Y409329D02*
X397433Y409606D01*
X396145Y408318D02*
X397156Y409329D01*
X396405Y410081D02*
X396681Y410358D01*
X397591Y411267D02*
X398149Y411826D01*
X440977Y449086D02*
X441375Y449484D01*
X440466Y448575D02*
X440977Y449086D01*
X439908Y448016D02*
X440466Y448575D01*
X442719Y450772D02*
X443415Y450076D01*
X441218Y447823D02*
X441728Y448334D01*
X442404Y449009D02*
X443415Y450021D01*
X441728Y448334D02*
X442127Y448733D01*
X441375Y449484D02*
X441652Y449761D01*
X442664Y450772D01*
X442127Y448733D02*
X442404Y449009D01*
X440659Y447265D02*
X441218Y447823D01*
X410601Y432029D02*
X410999Y431631D01*
X411510Y431120D01*
X412069Y430561D01*
X409313Y433373D02*
X410009Y434069D01*
X411751Y432382D02*
X412262Y431872D01*
X410064Y434069D02*
X411076Y433058D01*
X411353Y432781D02*
X411751Y432382D01*
X410324Y432306D02*
X410601Y432029D01*
X409313Y433317D02*
X410324Y432306D01*
X411076Y433058D02*
X411353Y432781D01*
X412262Y431872D02*
X412820Y431313D01*
X456288Y433774D02*
X456687Y434173D01*
X455778Y433264D02*
X456288Y433774D01*
X455219Y432705D02*
X455778Y433264D01*
X458031Y435461D02*
X458727Y434765D01*
X456529Y432512D02*
X457040Y433022D01*
X457715Y433698D02*
X458727Y434709D01*
X457040Y433022D02*
X457439Y433421D01*
X456687Y434173D02*
X456964Y434450D01*
X457975Y435461D01*
X457439Y433421D02*
X457715Y433698D01*
X455971Y431953D02*
X456529Y432512D01*
X471600Y418463D02*
X471998Y418861D01*
X471089Y417952D02*
X471600Y418463D01*
X470530Y417394D02*
X471089Y417952D01*
X473342Y420150D02*
X474038Y419454D01*
X471841Y417201D02*
X472351Y417711D01*
X473027Y418387D02*
X474038Y419398D01*
X472351Y417711D02*
X472750Y418110D01*
X471998Y418861D02*
X472275Y419138D01*
X473286Y420150D01*
X472750Y418110D02*
X473027Y418387D01*
X471282Y416642D02*
X471841Y417201D01*
X458432Y396837D02*
X458830Y396439D01*
X457921Y397348D02*
X458432Y396837D01*
X457363Y397906D02*
X457921Y397348D01*
X459423Y394399D02*
X460119Y395095D01*
X457169Y396596D02*
X457680Y396085D01*
X458356Y395410D02*
X459367Y394399D01*
X457680Y396085D02*
X458079Y395687D01*
X458830Y396439D02*
X459107Y396162D01*
X460119Y395150D01*
X458079Y395687D02*
X458356Y395410D01*
X456611Y397155D02*
X457169Y396596D01*
X443120Y381526D02*
X443519Y381127D01*
X442610Y382036D02*
X443120Y381526D01*
X442051Y382595D02*
X442610Y382036D01*
X444111Y379087D02*
X444807Y379783D01*
X441858Y381285D02*
X442369Y380774D01*
X443044Y380099D02*
X444056Y379087D01*
X442369Y380774D02*
X442767Y380376D01*
X443519Y381127D02*
X443796Y380850D01*
X444807Y379839D01*
X442767Y380376D02*
X443044Y380099D01*
X441299Y381843D02*
X441858Y381285D01*
X421096Y385943D02*
X421495Y386342D01*
X422005Y386853D01*
X422564Y387411D01*
X419056Y385351D02*
X419752Y384655D01*
X420743Y387093D02*
X421254Y387604D01*
X419056Y385407D02*
X420068Y386418D01*
X420345Y386695D02*
X420743Y387093D01*
X420819Y385666D02*
X421096Y385943D01*
X419808Y384655D02*
X420819Y385666D01*
X420068Y386418D02*
X420345Y386695D01*
X421254Y387604D02*
X421812Y388163D01*
X405785Y401255D02*
X406183Y401653D01*
X406694Y402164D01*
X407253Y402723D01*
X403745Y400663D02*
X404441Y399967D01*
X405432Y402405D02*
X405942Y402915D01*
X403745Y400718D02*
X404756Y401729D01*
X405033Y402006D02*
X405432Y402405D01*
X405508Y400978D02*
X405785Y401255D01*
X404497Y399966D02*
X405508Y400978D01*
X404756Y401729D02*
X405033Y402006D01*
X405942Y402915D02*
X406501Y403474D01*
X425912Y447341D02*
X426311Y446942D01*
X426822Y446431D01*
X427380Y445873D01*
X424624Y448684D02*
X425320Y449380D01*
X427063Y447694D02*
X427573Y447183D01*
X425376Y449380D02*
X426387Y448369D01*
X426664Y448092D02*
X427063Y447694D01*
X425635Y447617D02*
X425912Y447341D01*
X424624Y448629D02*
X425635Y447617D01*
X426387Y448369D02*
X426664Y448092D01*
X427573Y447183D02*
X428132Y446624D01*
X417561Y438989D02*
X417959Y438590D01*
X418470Y438080D01*
X419028Y437521D01*
X416272Y440333D02*
X416968Y441029D01*
X418711Y439342D02*
X419222Y438831D01*
X417024Y441029D02*
X418035Y440017D01*
X418312Y439741D02*
X418711Y439342D01*
X417284Y439266D02*
X417561Y438989D01*
X416272Y440277D02*
X417284Y439266D01*
X418035Y440017D02*
X418312Y439741D01*
X419222Y438831D02*
X419780Y438273D01*
X402249Y423677D02*
X402648Y423279D01*
X403159Y422768D01*
X403717Y422210D01*
X400961Y425022D02*
X401657Y425717D01*
X403400Y424031D02*
X403910Y423520D01*
X401713Y425717D02*
X402724Y424706D01*
X403001Y424429D02*
X403400Y424031D01*
X401972Y423954D02*
X402249Y423677D01*
X400961Y424966D02*
X401972Y423954D01*
X402724Y424706D02*
X403001Y424429D01*
X403910Y423520D02*
X404469Y422961D01*
X447937Y442126D02*
X448335Y442524D01*
X447426Y441615D02*
X447937Y442126D01*
X446867Y441057D02*
X447426Y441615D01*
X449679Y443813D02*
X450375Y443117D01*
X448178Y440864D02*
X448688Y441374D01*
X449364Y442050D02*
X450375Y443061D01*
X448688Y441374D02*
X449087Y441773D01*
X448335Y442524D02*
X448612Y442801D01*
X449623Y443813D01*
X449087Y441773D02*
X449364Y442050D01*
X447619Y440305D02*
X448178Y440864D01*
X463248Y426815D02*
X463647Y427213D01*
X462737Y426304D02*
X463248Y426815D01*
X462179Y425745D02*
X462737Y426304D01*
X464990Y428501D02*
X465686Y427805D01*
X463489Y425552D02*
X464000Y426063D01*
X464675Y426738D02*
X465686Y427750D01*
X464000Y426063D02*
X464398Y426461D01*
X463647Y427213D02*
X463923Y427490D01*
X464935Y428501D01*
X464398Y426461D02*
X464675Y426738D01*
X462930Y424994D02*
X463489Y425552D01*
X466784Y405189D02*
X467182Y404790D01*
X466273Y405699D02*
X466784Y405189D01*
X465714Y406258D02*
X466273Y405699D01*
X467774Y402750D02*
X468470Y403446D01*
X465521Y404948D02*
X466032Y404437D01*
X466707Y403762D02*
X467719Y402750D01*
X466032Y404437D02*
X466430Y404039D01*
X467182Y404790D02*
X467459Y404513D01*
X468470Y403502D01*
X466430Y404039D02*
X466707Y403762D01*
X464963Y405506D02*
X465521Y404948D01*
X451472Y389877D02*
X451871Y389479D01*
X450961Y390388D02*
X451472Y389877D01*
X450403Y390947D02*
X450961Y390388D01*
X452463Y387439D02*
X453159Y388135D01*
X450210Y389636D02*
X450721Y389126D01*
X451396Y388450D02*
X452407Y387439D01*
X450721Y389126D02*
X451119Y388727D01*
X451871Y389479D02*
X452148Y389202D01*
X453159Y388191D01*
X451119Y388727D02*
X451396Y388450D01*
X449651Y390195D02*
X450210Y389636D01*
X429448Y377592D02*
X429846Y377990D01*
X430357Y378501D01*
X430916Y379060D01*
X427408Y376999D02*
X428104Y376303D01*
X429095Y378742D02*
X429605Y379253D01*
X427408Y377055D02*
X428419Y378066D01*
X428696Y378343D02*
X429095Y378742D01*
X429171Y377315D02*
X429448Y377592D01*
X428160Y376303D02*
X429171Y377315D01*
X428419Y378066D02*
X428696Y378343D01*
X429605Y379253D02*
X430164Y379811D01*
X414137Y392903D02*
X414535Y393302D01*
X415046Y393812D01*
X415604Y394371D01*
X412097Y392311D02*
X412793Y391615D01*
X413783Y394053D02*
X414294Y394564D01*
X412097Y392366D02*
X413108Y393378D01*
X413385Y393655D02*
X413783Y394053D01*
X413860Y392626D02*
X414137Y392903D01*
X412848Y391615D02*
X413860Y392626D01*
X413108Y393378D02*
X413385Y393655D01*
X414294Y394564D02*
X414853Y395123D01*
X398825Y408214D02*
X399224Y408613D01*
X399734Y409124D01*
X400293Y409682D01*
X396785Y407622D02*
X397481Y406926D01*
X398472Y409365D02*
X398983Y409875D01*
X396785Y407678D02*
X397797Y408689D01*
X398074Y408966D02*
X398472Y409365D01*
X398548Y407937D02*
X398825Y408214D01*
X397537Y406926D02*
X398548Y407937D01*
X397797Y408689D02*
X398074Y408966D01*
X398983Y409875D02*
X399541Y410434D01*
X439585Y450478D02*
X439984Y450876D01*
X439074Y449967D02*
X439585Y450478D01*
X438516Y449408D02*
X439074Y449967D01*
X441327Y452164D02*
X442023Y451468D01*
X439826Y449215D02*
X440337Y449726D01*
X441012Y450401D02*
X442023Y451413D01*
X440337Y449726D02*
X440735Y450124D01*
X439984Y450876D02*
X440260Y451153D01*
X441272Y452164D01*
X440735Y450124D02*
X441012Y450401D01*
X439267Y448657D02*
X439826Y449215D01*
X409209Y430637D02*
X409608Y430239D01*
X410118Y429728D01*
X410677Y429169D01*
X407921Y431981D02*
X408617Y432677D01*
X410359Y430990D02*
X410870Y430480D01*
X408672Y432677D02*
X409684Y431666D01*
X409961Y431389D02*
X410359Y430990D01*
X408932Y430914D02*
X409209Y430637D01*
X407921Y431925D02*
X408932Y430914D01*
X409684Y431666D02*
X409961Y431389D01*
X410870Y430480D02*
X411428Y429921D01*
X454896Y435166D02*
X455295Y435565D01*
X454386Y434656D02*
X454896Y435166D01*
X453827Y434097D02*
X454386Y434656D01*
X456639Y436853D02*
X457335Y436157D01*
X455137Y433904D02*
X455648Y434414D01*
X456323Y435090D02*
X457335Y436101D01*
X455648Y434414D02*
X456046Y434813D01*
X455295Y435565D02*
X455572Y435842D01*
X456583Y436853D01*
X456046Y434813D02*
X456323Y435090D01*
X454579Y433345D02*
X455137Y433904D01*
X470208Y419855D02*
X470606Y420253D01*
X469697Y419344D02*
X470208Y419855D01*
X469138Y418785D02*
X469697Y419344D01*
X471950Y421542D02*
X472646Y420846D01*
X470449Y418593D02*
X470959Y419103D01*
X471635Y419779D02*
X472646Y420790D01*
X470959Y419103D02*
X471358Y419502D01*
X470606Y420253D02*
X470883Y420530D01*
X471894Y421542D01*
X471358Y419502D02*
X471635Y419779D01*
X469890Y418034D02*
X470449Y418593D01*
X459824Y398229D02*
X460222Y397831D01*
X459313Y398740D02*
X459824Y398229D01*
X458754Y399298D02*
X459313Y398740D01*
X460815Y395791D02*
X461511Y396487D01*
X458561Y397988D02*
X459072Y397477D01*
X459748Y396802D02*
X460759Y395791D01*
X459072Y397477D02*
X459471Y397079D01*
X460222Y397831D02*
X460499Y397553D01*
X461511Y396542D01*
X459471Y397079D02*
X459748Y396802D01*
X458003Y398547D02*
X458561Y397988D01*
X444512Y382918D02*
X444911Y382519D01*
X444002Y383428D02*
X444512Y382918D01*
X443443Y383987D02*
X444002Y383428D01*
X445503Y380479D02*
X446199Y381175D01*
X443250Y382677D02*
X443761Y382166D01*
X444436Y381490D02*
X445448Y380479D01*
X443761Y382166D02*
X444159Y381768D01*
X444911Y382519D02*
X445188Y382242D01*
X446199Y381231D01*
X444159Y381768D02*
X444436Y381490D01*
X442692Y383235D02*
X443250Y382677D01*
X422488Y384551D02*
X422887Y384950D01*
X423397Y385461D01*
X423956Y386019D01*
X420448Y383959D02*
X421144Y383263D01*
X422135Y385702D02*
X422646Y386212D01*
X420448Y384015D02*
X421459Y385026D01*
X421736Y385303D02*
X422135Y385702D01*
X422211Y384274D02*
X422488Y384551D01*
X421200Y383263D02*
X422211Y384274D01*
X421459Y385026D02*
X421736Y385303D01*
X422646Y386212D02*
X423204Y386771D01*
X407177Y399863D02*
X407575Y400261D01*
X408086Y400772D01*
X408645Y401331D01*
X405137Y399271D02*
X405833Y398574D01*
X406824Y401013D02*
X407334Y401524D01*
X405137Y399326D02*
X406148Y400337D01*
X406425Y400614D02*
X406824Y401013D01*
X406900Y399586D02*
X407177Y399863D01*
X405889Y398574D02*
X406900Y399586D01*
X406148Y400337D02*
X406425Y400614D01*
X407334Y401524D02*
X407893Y402082D01*
X424520Y445949D02*
X424919Y445550D01*
X425430Y445039D01*
X425988Y444481D01*
X423232Y447293D02*
X423928Y447989D01*
X425671Y446302D02*
X426181Y445791D01*
X423984Y447989D02*
X424995Y446977D01*
X425272Y446700D02*
X425671Y446302D01*
X424243Y446226D02*
X424520Y445949D01*
X423232Y447237D02*
X424243Y446226D01*
X424995Y446977D02*
X425272Y446700D01*
X426181Y445791D02*
X426740Y445232D01*
X416169Y437597D02*
X416567Y437198D01*
X417078Y436688D01*
X417636Y436129D01*
X414881Y438941D02*
X415577Y439637D01*
X417319Y437950D02*
X417830Y437439D01*
X415632Y439637D02*
X416643Y438625D01*
X416920Y438349D02*
X417319Y437950D01*
X415892Y437874D02*
X416169Y437597D01*
X414881Y438885D02*
X415892Y437874D01*
X416643Y438625D02*
X416920Y438349D01*
X417830Y437439D02*
X418388Y436881D01*
X400857Y422286D02*
X401256Y421887D01*
X401767Y421376D01*
X402325Y420818D01*
X399569Y423630D02*
X400265Y424326D01*
X402008Y422639D02*
X402518Y422128D01*
X400321Y424326D02*
X401332Y423314D01*
X401609Y423037D02*
X402008Y422639D01*
X400581Y422563D02*
X400857Y422286D01*
X399569Y423574D02*
X400581Y422563D01*
X401332Y423314D02*
X401609Y423037D01*
X402518Y422128D02*
X403077Y421569D01*
X446545Y443518D02*
X446943Y443916D01*
X446034Y443007D02*
X446545Y443518D01*
X445475Y442449D02*
X446034Y443007D01*
X448287Y445205D02*
X448983Y444509D01*
X446786Y442255D02*
X447296Y442766D01*
X447972Y443442D02*
X448983Y444453D01*
X447296Y442766D02*
X447695Y443165D01*
X446943Y443916D02*
X447220Y444193D01*
X448232Y445204D01*
X447695Y443165D02*
X447972Y443442D01*
X446227Y441697D02*
X446786Y442255D01*
X461856Y428206D02*
X462255Y428605D01*
X461345Y427696D02*
X461856Y428206D01*
X460787Y427137D02*
X461345Y427696D01*
X463598Y429893D02*
X464294Y429197D01*
X462097Y426944D02*
X462608Y427455D01*
X463283Y428130D02*
X464294Y429142D01*
X462608Y427455D02*
X463006Y427853D01*
X462255Y428605D02*
X462532Y428882D01*
X463543Y429893D01*
X463006Y427853D02*
X463283Y428130D01*
X461538Y426385D02*
X462097Y426944D01*
X468176Y406581D02*
X468574Y406182D01*
X467665Y407091D02*
X468176Y406581D01*
X467106Y407650D02*
X467665Y407091D01*
X469166Y404142D02*
X469862Y404838D01*
X466913Y406340D02*
X467424Y405829D01*
X468099Y405154D02*
X469111Y404142D01*
X467424Y405829D02*
X467822Y405431D01*
X468574Y406182D02*
X468851Y405905D01*
X469862Y404894D01*
X467822Y405431D02*
X468099Y405154D01*
X466355Y406898D02*
X466913Y406340D01*
X452864Y391269D02*
X453263Y390871D01*
X452353Y391780D02*
X452864Y391269D01*
X451795Y392339D02*
X452353Y391780D01*
X453855Y388831D02*
X454551Y389527D01*
X451602Y391028D02*
X452112Y390518D01*
X452788Y389842D02*
X453799Y388831D01*
X452112Y390518D02*
X452511Y390119D01*
X453263Y390871D02*
X453540Y390594D01*
X454551Y389582D01*
X452511Y390119D02*
X452788Y389842D01*
X451043Y391587D02*
X451602Y391028D01*
X430840Y376200D02*
X431238Y376598D01*
X431749Y377109D01*
X432308Y377668D01*
X428800Y375607D02*
X429496Y374911D01*
X430487Y377350D02*
X430997Y377861D01*
X428800Y375663D02*
X429811Y376674D01*
X430088Y376951D02*
X430487Y377350D01*
X430563Y375923D02*
X430840Y376200D01*
X429552Y374911D02*
X430563Y375923D01*
X429811Y376674D02*
X430088Y376951D01*
X430997Y377861D02*
X431556Y378419D01*
X415528Y391511D02*
X415927Y391910D01*
X416438Y392420D01*
X416996Y392979D01*
X413489Y390919D02*
X414185Y390223D01*
X415175Y392661D02*
X415686Y393172D01*
X413488Y390974D02*
X414500Y391986D01*
X414777Y392263D02*
X415175Y392661D01*
X415251Y391234D02*
X415528Y391511D01*
X414240Y390223D02*
X415251Y391234D01*
X414500Y391986D02*
X414777Y392263D01*
X415686Y393172D02*
X416245Y393730D01*
X400217Y406822D02*
X400616Y407221D01*
X401126Y407732D01*
X401685Y408290D01*
X398177Y406230D02*
X398873Y405534D01*
X399864Y407973D02*
X400375Y408483D01*
X398177Y406286D02*
X399188Y407297D01*
X399465Y407574D02*
X399864Y407973D01*
X399940Y406545D02*
X400217Y406822D01*
X398929Y405534D02*
X399940Y406545D01*
X399188Y407297D02*
X399465Y407574D01*
X400375Y408483D02*
X400933Y409042D01*
X438193Y451869D02*
X438591Y452268D01*
X437682Y451359D02*
X438193Y451869D01*
X437124Y450800D02*
X437682Y451359D01*
X439935Y453556D02*
X440631Y452860D01*
X438434Y450607D02*
X438945Y451118D01*
X439620Y451793D02*
X440631Y452805D01*
X438945Y451118D02*
X439343Y451516D01*
X438591Y452268D02*
X438869Y452545D01*
X439880Y453556D01*
X439343Y451516D02*
X439620Y451793D01*
X437875Y450049D02*
X438434Y450607D01*
X407817Y429245D02*
X408216Y428847D01*
X408726Y428336D01*
X409285Y427777D01*
X406529Y430589D02*
X407225Y431285D01*
X408967Y429598D02*
X409478Y429088D01*
X407280Y431285D02*
X408292Y430274D01*
X408569Y429997D02*
X408967Y429598D01*
X407540Y429522D02*
X407817Y429245D01*
X406529Y430534D02*
X407540Y429522D01*
X408292Y430274D02*
X408569Y429997D01*
X409478Y429088D02*
X410037Y428529D01*
X453504Y436558D02*
X453903Y436957D01*
X452994Y436047D02*
X453504Y436558D01*
X452435Y435489D02*
X452994Y436047D01*
X455247Y438245D02*
X455943Y437549D01*
X453745Y435296D02*
X454256Y435806D01*
X454931Y436482D02*
X455943Y437493D01*
X454256Y435806D02*
X454655Y436205D01*
X453903Y436957D02*
X454180Y437233D01*
X455191Y438245D01*
X454655Y436205D02*
X454931Y436482D01*
X453187Y434737D02*
X453745Y435296D01*
X457040Y395445D02*
X457438Y395047D01*
X456529Y395956D02*
X457040Y395445D01*
X455971Y396514D02*
X456529Y395956D01*
X458031Y393007D02*
X458727Y393703D01*
X455778Y395204D02*
X456288Y394693D01*
X456964Y394018D02*
X457975Y393007D01*
X456288Y394693D02*
X456687Y394295D01*
X457438Y395047D02*
X457715Y394770D01*
X458727Y393758D01*
X456687Y394295D02*
X456964Y394018D01*
X455219Y395763D02*
X455778Y395204D01*
X468816Y421247D02*
X469214Y421645D01*
X468305Y420736D02*
X468816Y421247D01*
X467746Y420178D02*
X468305Y420736D01*
X470558Y422933D02*
X471254Y422238D01*
X469057Y419984D02*
X469567Y420495D01*
X470243Y421171D02*
X471254Y422182D01*
X469567Y420495D02*
X469966Y420894D01*
X469214Y421645D02*
X469491Y421922D01*
X470503Y422933D01*
X469966Y420894D02*
X470243Y421171D01*
X468498Y419426D02*
X469057Y419984D01*
X461216Y399621D02*
X461614Y399222D01*
X460705Y400132D02*
X461216Y399621D01*
X460146Y400690D02*
X460705Y400132D01*
X462207Y397183D02*
X462902Y397879D01*
X459953Y399380D02*
X460464Y398869D01*
X461140Y398194D02*
X462151Y397183D01*
X460464Y398869D02*
X460863Y398471D01*
X461614Y399222D02*
X461891Y398945D01*
X462902Y397934D01*
X460863Y398471D02*
X461140Y398194D01*
X459395Y399939D02*
X459953Y399380D01*
X445904Y384310D02*
X446303Y383911D01*
X445394Y384820D02*
X445904Y384310D01*
X444835Y385379D02*
X445394Y384820D01*
X446895Y381871D02*
X447591Y382567D01*
X444642Y384069D02*
X445153Y383558D01*
X445828Y382882D02*
X446840Y381871D01*
X445153Y383558D02*
X445551Y383159D01*
X446303Y383911D02*
X446580Y383634D01*
X447591Y382623D01*
X445551Y383159D02*
X445828Y382882D01*
X444083Y384627D02*
X444642Y384069D01*
X423880Y383159D02*
X424279Y383558D01*
X424789Y384069D01*
X425348Y384627D01*
X421840Y382567D02*
X422536Y381871D01*
X423527Y384310D02*
X424038Y384820D01*
X421840Y382623D02*
X422852Y383634D01*
X423128Y383911D02*
X423527Y384310D01*
X423603Y382882D02*
X423880Y383159D01*
X422592Y381871D02*
X423603Y382882D01*
X422852Y383634D02*
X423128Y383911D01*
X424038Y384820D02*
X424596Y385379D01*
X408569Y398471D02*
X408967Y398869D01*
X409478Y399380D01*
X410037Y399939D01*
X406529Y397879D02*
X407225Y397183D01*
X408216Y399621D02*
X408726Y400132D01*
X406529Y397934D02*
X407540Y398945D01*
X407817Y399222D02*
X408216Y399621D01*
X408292Y398194D02*
X408569Y398471D01*
X407280Y397182D02*
X408292Y398194D01*
X407540Y398945D02*
X407817Y399222D01*
X408726Y400132D02*
X409285Y400690D01*
X423128Y444557D02*
X423527Y444158D01*
X424038Y443647D01*
X424596Y443089D01*
X421840Y445901D02*
X422536Y446597D01*
X424279Y444910D02*
X424789Y444399D01*
X422592Y446597D02*
X423603Y445585D01*
X423880Y445308D02*
X424279Y444910D01*
X422852Y444834D02*
X423128Y444557D01*
X421840Y445845D02*
X422852Y444834D01*
X423603Y445585D02*
X423880Y445308D01*
X424789Y444399D02*
X425348Y443841D01*
X414777Y436205D02*
X415175Y435806D01*
X415686Y435296D01*
X416245Y434737D01*
X413488Y437549D02*
X414185Y438245D01*
X415927Y436558D02*
X416438Y436047D01*
X414240Y438245D02*
X415251Y437233D01*
X415528Y436957D02*
X415927Y436558D01*
X414500Y436482D02*
X414777Y436205D01*
X413488Y437493D02*
X414500Y436482D01*
X415251Y437233D02*
X415528Y436957D01*
X416438Y436047D02*
X416996Y435489D01*
X399465Y420894D02*
X399864Y420495D01*
X400375Y419984D01*
X400933Y419426D01*
X398177Y422238D02*
X398873Y422933D01*
X400616Y421247D02*
X401126Y420736D01*
X398929Y422933D02*
X399940Y421922D01*
X400217Y421645D02*
X400616Y421247D01*
X399188Y421171D02*
X399465Y420894D01*
X398177Y422182D02*
X399188Y421171D01*
X399940Y421922D02*
X400217Y421645D01*
X401126Y420736D02*
X401685Y420178D01*
X445153Y444910D02*
X445551Y445308D01*
X444642Y444399D02*
X445153Y444910D01*
X444083Y443841D02*
X444642Y444399D01*
X446895Y446597D02*
X447591Y445901D01*
X445394Y443647D02*
X445904Y444158D01*
X446580Y444834D02*
X447591Y445845D01*
X445904Y444158D02*
X446303Y444557D01*
X445551Y445308D02*
X445828Y445585D01*
X446840Y446596D01*
X446303Y444557D02*
X446580Y444834D01*
X444835Y443089D02*
X445394Y443647D01*
X460464Y429598D02*
X460863Y429997D01*
X459953Y429088D02*
X460464Y429598D01*
X459395Y428529D02*
X459953Y429088D01*
X462207Y431285D02*
X462902Y430589D01*
X460705Y428336D02*
X461216Y428847D01*
X461891Y429522D02*
X462902Y430534D01*
X461216Y428847D02*
X461614Y429245D01*
X460863Y429997D02*
X461140Y430274D01*
X462151Y431285D01*
X461614Y429245D02*
X461891Y429522D01*
X460147Y427777D02*
X460705Y428336D01*
X469567Y407973D02*
X469966Y407574D01*
X469057Y408483D02*
X469567Y407973D01*
X468498Y409042D02*
X469057Y408483D01*
X470558Y405534D02*
X471254Y406230D01*
X468305Y407732D02*
X468816Y407221D01*
X469491Y406545D02*
X470503Y405534D01*
X468816Y407221D02*
X469214Y406822D01*
X469966Y407574D02*
X470243Y407297D01*
X471254Y406286D01*
X469214Y406822D02*
X469491Y406545D01*
X467746Y408290D02*
X468305Y407732D01*
X454256Y392661D02*
X454655Y392263D01*
X453745Y393172D02*
X454256Y392661D01*
X453187Y393731D02*
X453745Y393172D01*
X455247Y390223D02*
X455943Y390919D01*
X452994Y392420D02*
X453504Y391910D01*
X454180Y391234D02*
X455191Y390223D01*
X453504Y391910D02*
X453903Y391511D01*
X454655Y392263D02*
X454931Y391986D01*
X455943Y390974D01*
X453903Y391511D02*
X454180Y391234D01*
X452435Y392979D02*
X452994Y392420D01*
X438945Y377350D02*
X439343Y376951D01*
X438434Y377861D02*
X438945Y377350D01*
X437875Y378419D02*
X438434Y377861D01*
X439935Y374911D02*
X440631Y375607D01*
X437682Y377109D02*
X438193Y376598D01*
X438869Y375923D02*
X439880Y374911D01*
X438193Y376598D02*
X438591Y376200D01*
X439343Y376951D02*
X439620Y376674D01*
X440631Y375663D01*
X438591Y376200D02*
X438869Y375923D01*
X437124Y377668D02*
X437682Y377109D01*
X416920Y390119D02*
X417319Y390518D01*
X417830Y391028D01*
X418388Y391587D01*
X414881Y389527D02*
X415577Y388831D01*
X416567Y391269D02*
X417078Y391780D01*
X414881Y389582D02*
X415892Y390594D01*
X416169Y390871D02*
X416567Y391269D01*
X416643Y389842D02*
X416920Y390119D01*
X415632Y388831D02*
X416643Y389842D01*
X415892Y390594D02*
X416169Y390871D01*
X417078Y391780D02*
X417637Y392339D01*
X401609Y405431D02*
X402007Y405829D01*
X402518Y406340D01*
X403077Y406898D01*
X399569Y404838D02*
X400265Y404142D01*
X401256Y406581D02*
X401767Y407091D01*
X399569Y404894D02*
X400581Y405905D01*
X400857Y406182D02*
X401256Y406581D01*
X401332Y405154D02*
X401609Y405431D01*
X400321Y404142D02*
X401332Y405154D01*
X400581Y405905D02*
X400857Y406182D01*
X401767Y407091D02*
X402325Y407650D01*
X430088Y451516D02*
X430487Y451118D01*
X430997Y450607D01*
X431556Y450049D01*
X428800Y452860D02*
X429496Y453556D01*
X431238Y451869D02*
X431749Y451359D01*
X429552Y453556D02*
X430563Y452545D01*
X430840Y452268D02*
X431238Y451869D01*
X429811Y451793D02*
X430088Y451516D01*
X428800Y452805D02*
X429811Y451793D01*
X430563Y452545D02*
X430840Y452268D01*
X431749Y451359D02*
X432308Y450800D01*
X406425Y427853D02*
X406824Y427455D01*
X407334Y426944D01*
X407893Y426385D01*
X405137Y429197D02*
X405833Y429893D01*
X407575Y428206D02*
X408086Y427696D01*
X405889Y429893D02*
X406900Y428882D01*
X407177Y428605D02*
X407575Y428206D01*
X406148Y428130D02*
X406425Y427853D01*
X405137Y429142D02*
X406148Y428130D01*
X406900Y428882D02*
X407177Y428605D01*
X408086Y427696D02*
X408645Y427137D01*
X452112Y437950D02*
X452511Y438349D01*
X451602Y437439D02*
X452112Y437950D01*
X451043Y436881D02*
X451602Y437439D01*
X453855Y439637D02*
X454551Y438941D01*
X452353Y436688D02*
X452864Y437198D01*
X453540Y437874D02*
X454551Y438885D01*
X452864Y437198D02*
X453263Y437597D01*
X452511Y438349D02*
X452788Y438625D01*
X453799Y439637D01*
X453263Y437597D02*
X453540Y437874D01*
X451795Y436129D02*
X452353Y436688D01*
X467424Y422639D02*
X467822Y423037D01*
X466913Y422128D02*
X467424Y422639D01*
X466355Y421569D02*
X466913Y422128D01*
X469166Y424326D02*
X469862Y423630D01*
X467665Y421376D02*
X468175Y421887D01*
X468851Y422563D02*
X469862Y423574D01*
X468175Y421887D02*
X468574Y422286D01*
X467822Y423037D02*
X468099Y423314D01*
X469110Y424326D01*
X468574Y422286D02*
X468851Y422563D01*
X467106Y420818D02*
X467665Y421376D01*
X462608Y401013D02*
X463006Y400614D01*
X462097Y401524D02*
X462608Y401013D01*
X461538Y402082D02*
X462097Y401524D01*
X463598Y398574D02*
X464294Y399271D01*
X461345Y400772D02*
X461856Y400261D01*
X462532Y399586D02*
X463543Y398574D01*
X461856Y400261D02*
X462255Y399863D01*
X463006Y400614D02*
X463283Y400337D01*
X464294Y399326D01*
X462255Y399863D02*
X462532Y399586D01*
X460787Y401331D02*
X461345Y400772D01*
X447296Y385702D02*
X447695Y385303D01*
X446786Y386212D02*
X447296Y385702D01*
X446227Y386771D02*
X446786Y386212D01*
X448287Y383263D02*
X448983Y383959D01*
X446034Y385461D02*
X446545Y384950D01*
X447220Y384274D02*
X448232Y383263D01*
X446545Y384950D02*
X446943Y384551D01*
X447695Y385303D02*
X447972Y385026D01*
X448983Y384015D01*
X446943Y384551D02*
X447220Y384274D01*
X445475Y386019D02*
X446034Y385461D01*
X425272Y381768D02*
X425671Y382166D01*
X426181Y382677D01*
X426740Y383235D01*
X423232Y381175D02*
X423928Y380479D01*
X424919Y382918D02*
X425430Y383428D01*
X423232Y381231D02*
X424243Y382242D01*
X424520Y382519D02*
X424919Y382918D01*
X424995Y381490D02*
X425272Y381768D01*
X423984Y380479D02*
X424995Y381490D01*
X424243Y382242D02*
X424520Y382519D01*
X425430Y383428D02*
X425988Y383987D01*
X409961Y397079D02*
X410359Y397477D01*
X410870Y397988D01*
X411428Y398547D01*
X407921Y396487D02*
X408617Y395791D01*
X409608Y398229D02*
X410118Y398740D01*
X407921Y396542D02*
X408932Y397553D01*
X409209Y397831D02*
X409608Y398229D01*
X409684Y396802D02*
X409961Y397079D01*
X408672Y395791D02*
X409684Y396802D01*
X408932Y397553D02*
X409209Y397831D01*
X410118Y398740D02*
X410677Y399298D01*
X421736Y443165D02*
X422135Y442766D01*
X422646Y442255D01*
X423204Y441697D01*
X420448Y444509D02*
X421144Y445205D01*
X422887Y443518D02*
X423397Y443007D01*
X421200Y445205D02*
X422211Y444193D01*
X422488Y443916D02*
X422887Y443518D01*
X421460Y443442D02*
X421736Y443165D01*
X420448Y444453D02*
X421460Y443442D01*
X422211Y444193D02*
X422488Y443916D01*
X423397Y443007D02*
X423956Y442449D01*
X398074Y419502D02*
X398472Y419103D01*
X398983Y418592D01*
X399541Y418034D01*
X396785Y420846D02*
X397481Y421542D01*
X399224Y419855D02*
X399734Y419344D01*
X397537Y421542D02*
X398548Y420530D01*
X398825Y420253D02*
X399224Y419855D01*
X397797Y419779D02*
X398074Y419502D01*
X396785Y420790D02*
X397797Y419779D01*
X398548Y420530D02*
X398825Y420253D01*
X399734Y419344D02*
X400293Y418785D01*
X443761Y446302D02*
X444159Y446700D01*
X443250Y445791D02*
X443761Y446302D01*
X442692Y445232D02*
X443250Y445791D01*
X445503Y447989D02*
X446199Y447293D01*
X444002Y445039D02*
X444512Y445550D01*
X445188Y446226D02*
X446199Y447237D01*
X444512Y445550D02*
X444911Y445949D01*
X444159Y446700D02*
X444436Y446977D01*
X445448Y447988D01*
X444911Y445949D02*
X445188Y446226D01*
X443443Y444481D02*
X444002Y445039D01*
X413385Y434813D02*
X413783Y434414D01*
X414294Y433904D01*
X414853Y433345D01*
X412097Y436157D02*
X412793Y436853D01*
X414535Y435166D02*
X415046Y434655D01*
X412848Y436853D02*
X413860Y435842D01*
X414137Y435565D02*
X414535Y435166D01*
X413108Y435090D02*
X413385Y434813D01*
X412097Y436101D02*
X413108Y435090D01*
X413860Y435842D02*
X414137Y435565D01*
X415046Y434655D02*
X415604Y434097D01*
X459072Y430990D02*
X459471Y431389D01*
X458562Y430480D02*
X459072Y430990D01*
X458003Y429921D02*
X458562Y430480D01*
X460815Y432677D02*
X461511Y431981D01*
X459313Y429728D02*
X459824Y430239D01*
X460499Y430914D02*
X461511Y431925D01*
X459824Y430239D02*
X460222Y430637D01*
X459471Y431389D02*
X459748Y431666D01*
X460759Y432677D01*
X460222Y430637D02*
X460499Y430914D01*
X458755Y429169D02*
X459313Y429728D01*
X470959Y409365D02*
X471358Y408966D01*
X470449Y409875D02*
X470959Y409365D01*
X469890Y410434D02*
X470449Y409875D01*
X471950Y406926D02*
X472646Y407622D01*
X469697Y409124D02*
X470208Y408613D01*
X470883Y407937D02*
X471895Y406926D01*
X470208Y408613D02*
X470606Y408214D01*
X471358Y408966D02*
X471635Y408689D01*
X472646Y407678D01*
X470606Y408214D02*
X470883Y407937D01*
X469138Y409682D02*
X469697Y409124D01*
X455648Y394053D02*
X456046Y393655D01*
X455137Y394564D02*
X455648Y394053D01*
X454579Y395123D02*
X455137Y394564D01*
X456639Y391615D02*
X457335Y392311D01*
X454386Y393812D02*
X454896Y393302D01*
X455572Y392626D02*
X456583Y391615D01*
X454896Y393302D02*
X455295Y392903D01*
X456046Y393655D02*
X456323Y393378D01*
X457335Y392366D01*
X455295Y392903D02*
X455572Y392626D01*
X453827Y394371D02*
X454386Y393812D01*
X440337Y378742D02*
X440735Y378343D01*
X439826Y379253D02*
X440337Y378742D01*
X439267Y379811D02*
X439826Y379253D01*
X441327Y376304D02*
X442023Y376999D01*
X439074Y378501D02*
X439585Y377990D01*
X440261Y377315D02*
X441272Y376303D01*
X439585Y377990D02*
X439984Y377592D01*
X440735Y378343D02*
X441012Y378066D01*
X442023Y377055D01*
X439984Y377592D02*
X440261Y377315D01*
X438516Y379060D02*
X439074Y378501D01*
X418312Y388727D02*
X418711Y389126D01*
X419222Y389636D01*
X419780Y390195D01*
X416272Y388135D02*
X416968Y387439D01*
X417959Y389877D02*
X418470Y390388D01*
X416272Y388191D02*
X417284Y389202D01*
X417561Y389479D02*
X417959Y389877D01*
X418035Y388450D02*
X418312Y388727D01*
X417024Y387439D02*
X418035Y388450D01*
X417284Y389202D02*
X417561Y389479D01*
X418470Y390388D02*
X419029Y390947D01*
X403001Y404039D02*
X403400Y404437D01*
X403910Y404948D01*
X404469Y405506D01*
X400961Y403446D02*
X401657Y402750D01*
X402648Y405189D02*
X403159Y405699D01*
X400961Y403502D02*
X401972Y404513D01*
X402249Y404790D02*
X402648Y405189D01*
X402724Y403762D02*
X403001Y404039D01*
X401713Y402750D02*
X402724Y403762D01*
X401972Y404513D02*
X402249Y404790D01*
X403159Y405699D02*
X403717Y406258D01*
X428696Y450124D02*
X429095Y449726D01*
X429605Y449215D01*
X430164Y448657D01*
X427408Y451468D02*
X428104Y452164D01*
X429846Y450478D02*
X430357Y449967D01*
X428160Y452164D02*
X429171Y451153D01*
X429448Y450876D02*
X429846Y450478D01*
X428419Y450401D02*
X428696Y450124D01*
X427408Y451413D02*
X428419Y450401D01*
X429171Y451153D02*
X429448Y450876D01*
X430357Y449967D02*
X430916Y449408D01*
X420345Y441773D02*
X420743Y441374D01*
X421254Y440864D01*
X421812Y440305D01*
X419056Y443117D02*
X419752Y443813D01*
X421495Y442126D02*
X422005Y441615D01*
X419808Y443813D02*
X420819Y442801D01*
X421096Y442524D02*
X421495Y442126D01*
X420068Y442050D02*
X420345Y441773D01*
X419056Y443061D02*
X420068Y442050D01*
X420819Y442801D02*
X421096Y442524D01*
X422005Y441615D02*
X422564Y441057D01*
X405033Y426461D02*
X405432Y426063D01*
X405942Y425552D01*
X406501Y424994D01*
X403745Y427805D02*
X404441Y428501D01*
X406183Y426815D02*
X406694Y426304D01*
X404497Y428501D02*
X405508Y427490D01*
X405785Y427213D02*
X406183Y426815D01*
X404756Y426738D02*
X405033Y426461D01*
X403745Y427750D02*
X404756Y426738D01*
X405508Y427490D02*
X405785Y427213D01*
X406694Y426304D02*
X407253Y425745D01*
X450721Y439342D02*
X451119Y439741D01*
X450210Y438831D02*
X450721Y439342D01*
X449651Y438273D02*
X450210Y438831D01*
X452463Y441029D02*
X453159Y440333D01*
X450961Y438080D02*
X451472Y438590D01*
X452148Y439266D02*
X453159Y440277D01*
X451472Y438590D02*
X451871Y438989D01*
X451119Y439741D02*
X451396Y440017D01*
X452407Y441029D01*
X451871Y438989D02*
X452148Y439266D01*
X450403Y437521D02*
X450961Y438080D01*
X466032Y424031D02*
X466430Y424429D01*
X465521Y423520D02*
X466032Y424031D01*
X464963Y422961D02*
X465521Y423520D01*
X467774Y425717D02*
X468470Y425022D01*
X466273Y422768D02*
X466784Y423279D01*
X467459Y423954D02*
X468470Y424966D01*
X466784Y423279D02*
X467182Y423677D01*
X466430Y424429D02*
X466707Y424706D01*
X467719Y425717D01*
X467182Y423677D02*
X467459Y423954D01*
X465714Y422210D02*
X466273Y422768D01*
X464000Y402405D02*
X464398Y402006D01*
X463489Y402916D02*
X464000Y402405D01*
X462930Y403474D02*
X463489Y402916D01*
X464990Y399967D02*
X465686Y400663D01*
X462737Y402164D02*
X463248Y401653D01*
X463924Y400978D02*
X464935Y399967D01*
X463248Y401653D02*
X463647Y401255D01*
X464398Y402006D02*
X464675Y401729D01*
X465686Y400718D01*
X463647Y401255D02*
X463924Y400978D01*
X462179Y402723D02*
X462737Y402164D01*
X448688Y387093D02*
X449087Y386695D01*
X448178Y387604D02*
X448688Y387093D01*
X447619Y388163D02*
X448178Y387604D01*
X449679Y384655D02*
X450375Y385351D01*
X447426Y386853D02*
X447937Y386342D01*
X448612Y385666D02*
X449623Y384655D01*
X447937Y386342D02*
X448335Y385943D01*
X449087Y386695D02*
X449364Y386418D01*
X450375Y385407D01*
X448335Y385943D02*
X448612Y385666D01*
X446867Y387411D02*
X447426Y386853D01*
X426664Y380376D02*
X427063Y380774D01*
X427573Y381285D01*
X428132Y381843D01*
X424624Y379783D02*
X425320Y379087D01*
X426311Y381526D02*
X426822Y382036D01*
X424624Y379839D02*
X425635Y380850D01*
X425912Y381127D02*
X426311Y381526D01*
X426387Y380099D02*
X426664Y380376D01*
X425376Y379087D02*
X426387Y380099D01*
X425635Y380850D02*
X425912Y381127D01*
X426822Y382036D02*
X427380Y382595D01*
X411353Y395687D02*
X411751Y396085D01*
X412262Y396596D01*
X412820Y397155D01*
X409313Y395095D02*
X410009Y394399D01*
X410999Y396837D02*
X411510Y397348D01*
X409313Y395150D02*
X410324Y396162D01*
X410601Y396439D02*
X410999Y396837D01*
X411076Y395410D02*
X411353Y395687D01*
X410064Y394399D02*
X411076Y395410D01*
X410324Y396162D02*
X410601Y396439D01*
X411510Y397348D02*
X412069Y397906D01*
X396681Y418110D02*
X397080Y417711D01*
X397591Y417201D01*
X398149Y416642D01*
X395393Y419454D02*
X396089Y420150D01*
X397832Y418463D02*
X398342Y417952D01*
X396145Y420150D02*
X397156Y419138D01*
X397433Y418861D02*
X397832Y418463D01*
X396405Y418387D02*
X396681Y418110D01*
X395393Y419398D02*
X396405Y418387D01*
X397156Y419138D02*
X397433Y418861D01*
X398342Y417952D02*
X398901Y417394D01*
X442369Y447694D02*
X442767Y448092D01*
X441858Y447183D02*
X442369Y447694D01*
X441300Y446624D02*
X441858Y447183D01*
X444111Y449380D02*
X444807Y448684D01*
X442610Y446431D02*
X443120Y446942D01*
X443796Y447617D02*
X444807Y448629D01*
X443120Y446942D02*
X443519Y447341D01*
X442767Y448092D02*
X443044Y448369D01*
X444056Y449380D01*
X443519Y447341D02*
X443796Y447617D01*
X442051Y445873D02*
X442610Y446431D01*
X411993Y433421D02*
X412392Y433022D01*
X412902Y432512D01*
X413461Y431953D01*
X410705Y434765D02*
X411401Y435461D01*
X413143Y433774D02*
X413654Y433263D01*
X411456Y435461D02*
X412468Y434450D01*
X412745Y434173D02*
X413143Y433774D01*
X411716Y433698D02*
X411993Y433421D01*
X410705Y434709D02*
X411716Y433698D01*
X412468Y434450D02*
X412745Y434173D01*
X413654Y433263D02*
X414212Y432705D01*
X457680Y432382D02*
X458079Y432781D01*
X457170Y431872D02*
X457680Y432382D01*
X456611Y431313D02*
X457170Y431872D01*
X459423Y434069D02*
X460119Y433373D01*
X457921Y431120D02*
X458432Y431631D01*
X459107Y432306D02*
X460119Y433317D01*
X458432Y431631D02*
X458830Y432029D01*
X458079Y432781D02*
X458356Y433058D01*
X459367Y434069D01*
X458830Y432029D02*
X459107Y432306D01*
X457363Y430561D02*
X457921Y431120D01*
X472351Y410757D02*
X472750Y410358D01*
X471841Y411267D02*
X472351Y410757D01*
X471282Y411826D02*
X471841Y411267D01*
X473342Y408318D02*
X474038Y409014D01*
X471089Y410516D02*
X471600Y410005D01*
X472275Y409329D02*
X473286Y408318D01*
X471600Y410005D02*
X471998Y409606D01*
X472750Y410358D02*
X473027Y410081D01*
X474038Y409070D01*
X471998Y409606D02*
X472275Y409329D01*
X470530Y411074D02*
X471089Y410516D01*
X435863Y377242D02*
X471708Y413087D01*
X397724Y413087D02*
X397724Y415381D01*
X471708Y413087D02*
X472298Y412842D01*
X433324Y451816D02*
X436108D01*
Y376652D02*
X472298Y412842D01*
X397133Y415626D02*
X433324Y451816D01*
X397133Y412842D02*
Y415626D01*
X471707Y415381D02*
X471708Y413087D01*
X435863Y451226D02*
X471707Y415381D01*
X433568Y451226D02*
X435863D01*
X471707Y415381D02*
X472298Y415626D01*
X433324Y376652D02*
X436108D01*
X433568Y377242D02*
X435863D01*
X435863Y451226D02*
X436108Y451816D01*
X435863Y377242D02*
X436108Y376652D01*
Y451816D02*
X472298Y415626D01*
X397133Y412842D02*
X397724Y413087D01*
X397133Y412842D02*
X433324Y376652D01*
X397724Y413087D02*
X433568Y377242D01*
X433324Y451816D02*
X433568Y451226D01*
X433324Y376652D02*
X433568Y377242D01*
X397724Y415381D02*
X433568Y451226D01*
X472298Y412842D02*
Y415626D01*
X397133Y415626D02*
X397724Y415381D01*
D117*
X300213Y355669D02*
X301525D01*
X301787Y355932D01*
Y356456D01*
X301525Y356719D01*
X300213D01*
X301787Y357244D02*
Y357768D01*
Y357506D01*
X300213D01*
X300476Y357244D01*
M02*
