G04*
G04 #@! TF.GenerationSoftware,Altium Limited,Altium Designer,18.1.7 (191)*
G04*
G04 Layer_Color=8388736*
%FSLAX25Y25*%
%MOIN*%
G70*
G01*
G75*
%ADD10C,0.01000*%
%ADD16C,0.00787*%
%ADD48R,0.14567X0.07874*%
%ADD49R,0.04156X0.10061*%
%ADD50R,0.06124X0.05534*%
%ADD51R,0.07699X0.04550*%
%ADD52R,0.13211X0.09668*%
%ADD53R,0.04550X0.07699*%
%ADD54R,0.09668X0.13211*%
%ADD55R,0.05337X0.05337*%
%ADD56R,0.06400X0.03400*%
%ADD57R,0.10061X0.03762*%
%ADD58R,0.08979X0.04156*%
G04:AMPARAMS|DCode=59|XSize=15.81mil|YSize=72.9mil|CornerRadius=0mil|HoleSize=0mil|Usage=FLASHONLY|Rotation=135.000|XOffset=0mil|YOffset=0mil|HoleType=Round|Shape=Round|*
%AMOVALD59*
21,1,0.05709,0.01581,0.00000,0.00000,225.0*
1,1,0.01581,0.02018,0.02018*
1,1,0.01581,-0.02018,-0.02018*
%
%ADD59OVALD59*%

G04:AMPARAMS|DCode=60|XSize=15.81mil|YSize=72.9mil|CornerRadius=0mil|HoleSize=0mil|Usage=FLASHONLY|Rotation=225.000|XOffset=0mil|YOffset=0mil|HoleType=Round|Shape=Round|*
%AMOVALD60*
21,1,0.05709,0.01581,0.00000,0.00000,315.0*
1,1,0.01581,-0.02018,0.02018*
1,1,0.01581,0.02018,-0.02018*
%
%ADD60OVALD60*%

%ADD61R,0.05534X0.04550*%
%ADD62R,0.06361X0.03802*%
%ADD63R,0.03762X0.05337*%
G04:AMPARAMS|DCode=64|XSize=37.62mil|YSize=53.37mil|CornerRadius=9.01mil|HoleSize=0mil|Usage=FLASHONLY|Rotation=180.000|XOffset=0mil|YOffset=0mil|HoleType=Round|Shape=RoundedRectangle|*
%AMROUNDEDRECTD64*
21,1,0.03762,0.03535,0,0,180.0*
21,1,0.01961,0.05337,0,0,180.0*
1,1,0.01802,-0.00980,0.01768*
1,1,0.01802,0.00980,0.01768*
1,1,0.01802,0.00980,-0.01768*
1,1,0.01802,-0.00980,-0.01768*
%
%ADD64ROUNDEDRECTD64*%
%ADD65R,0.05731X0.10061*%
%ADD66R,0.06124X0.06124*%
G04:AMPARAMS|DCode=67|XSize=53.37mil|YSize=65.18mil|CornerRadius=0mil|HoleSize=0mil|Usage=FLASHONLY|Rotation=45.000|XOffset=0mil|YOffset=0mil|HoleType=Round|Shape=Rectangle|*
%AMROTATEDRECTD67*
4,1,4,0.00418,-0.04191,-0.04191,0.00418,-0.00418,0.04191,0.04191,-0.00418,0.00418,-0.04191,0.0*
%
%ADD67ROTATEDRECTD67*%

%ADD68R,0.07400X0.05400*%
%ADD69R,0.05534X0.06124*%
G04:AMPARAMS|DCode=70|XSize=55.34mil|YSize=61.24mil|CornerRadius=0mil|HoleSize=0mil|Usage=FLASHONLY|Rotation=135.000|XOffset=0mil|YOffset=0mil|HoleType=Round|Shape=Rectangle|*
%AMROTATEDRECTD70*
4,1,4,0.04122,0.00209,-0.00209,-0.04122,-0.04122,-0.00209,0.00209,0.04122,0.04122,0.00209,0.0*
%
%ADD70ROTATEDRECTD70*%

%ADD71R,0.06124X0.07400*%
%ADD72R,0.07400X0.06124*%
%ADD73R,0.10061X0.04156*%
%ADD74C,0.09843*%
%ADD75C,0.05400*%
%ADD76R,0.07306X0.07306*%
%ADD77C,0.07306*%
%ADD78R,0.07306X0.07306*%
%ADD79C,0.05337*%
%ADD80C,0.25022*%
%ADD81C,0.06085*%
%ADD82C,0.04550*%
G36*
X930873Y183587D02*
X930940D01*
X931104Y183568D01*
X931296Y183539D01*
X931507Y183501D01*
X931719Y183443D01*
X931921Y183366D01*
X931930D01*
X931940Y183356D01*
X931969Y183347D01*
X932007Y183327D01*
X932103Y183270D01*
X932228Y183203D01*
X932363Y183107D01*
X932497Y182991D01*
X932632Y182857D01*
X932747Y182703D01*
X932757Y182684D01*
X932795Y182626D01*
X932843Y182530D01*
X932891Y182415D01*
X932949Y182271D01*
X933006Y182097D01*
X933045Y181915D01*
X933064Y181713D01*
X932267Y181655D01*
Y181665D01*
Y181684D01*
X932257Y181713D01*
X932247Y181752D01*
X932228Y181857D01*
X932190Y181992D01*
X932132Y182136D01*
X932055Y182280D01*
X931949Y182424D01*
X931824Y182549D01*
X931805Y182559D01*
X931757Y182597D01*
X931671Y182645D01*
X931555Y182703D01*
X931402Y182761D01*
X931209Y182809D01*
X930988Y182847D01*
X930729Y182857D01*
X930604D01*
X930546Y182847D01*
X930470D01*
X930306Y182818D01*
X930124Y182789D01*
X929941Y182741D01*
X929768Y182674D01*
X929691Y182626D01*
X929624Y182578D01*
X929614Y182568D01*
X929576Y182530D01*
X929518Y182472D01*
X929460Y182386D01*
X929393Y182290D01*
X929345Y182174D01*
X929307Y182049D01*
X929287Y181905D01*
Y181886D01*
Y181848D01*
X929297Y181780D01*
X929316Y181703D01*
X929345Y181617D01*
X929393Y181521D01*
X929451Y181434D01*
X929528Y181348D01*
X929537Y181338D01*
X929585Y181309D01*
X929614Y181290D01*
X929653Y181261D01*
X929710Y181242D01*
X929778Y181213D01*
X929854Y181175D01*
X929941Y181137D01*
X930037Y181108D01*
X930152Y181069D01*
X930287Y181021D01*
X930431Y180983D01*
X930594Y180944D01*
X930777Y180896D01*
X930787D01*
X930825Y180887D01*
X930873Y180877D01*
X930940Y180858D01*
X931027Y180839D01*
X931123Y180810D01*
X931334Y180762D01*
X931565Y180694D01*
X931796Y180627D01*
X931911Y180598D01*
X932007Y180560D01*
X932103Y180521D01*
X932180Y180493D01*
X932190D01*
X932209Y180483D01*
X932228Y180464D01*
X932267Y180445D01*
X932363Y180387D01*
X932488Y180320D01*
X932622Y180224D01*
X932757Y180108D01*
X932882Y179983D01*
X932987Y179849D01*
X932997Y179830D01*
X933026Y179781D01*
X933074Y179705D01*
X933122Y179589D01*
X933170Y179464D01*
X933218Y179311D01*
X933247Y179138D01*
X933256Y178955D01*
Y178945D01*
Y178936D01*
Y178907D01*
Y178868D01*
X933237Y178772D01*
X933218Y178647D01*
X933189Y178503D01*
X933131Y178340D01*
X933064Y178167D01*
X932968Y178004D01*
X932959Y177984D01*
X932910Y177927D01*
X932853Y177850D01*
X932757Y177754D01*
X932641Y177638D01*
X932497Y177523D01*
X932324Y177417D01*
X932132Y177312D01*
X932122D01*
X932103Y177302D01*
X932074Y177293D01*
X932036Y177273D01*
X931988Y177254D01*
X931930Y177235D01*
X931776Y177196D01*
X931603Y177148D01*
X931392Y177110D01*
X931171Y177081D01*
X930921Y177071D01*
X930777D01*
X930710Y177081D01*
X930623D01*
X930527Y177091D01*
X930421Y177100D01*
X930200Y177129D01*
X929960Y177177D01*
X929720Y177235D01*
X929489Y177312D01*
X929480D01*
X929460Y177321D01*
X929432Y177340D01*
X929393Y177360D01*
X929287Y177417D01*
X929163Y177504D01*
X929009Y177610D01*
X928865Y177734D01*
X928711Y177888D01*
X928576Y178061D01*
Y178071D01*
X928567Y178080D01*
X928547Y178109D01*
X928528Y178148D01*
X928499Y178196D01*
X928471Y178253D01*
X928413Y178398D01*
X928355Y178561D01*
X928298Y178763D01*
X928259Y178974D01*
X928240Y179205D01*
X929028Y179272D01*
Y179262D01*
Y179253D01*
X929038Y179195D01*
X929057Y179109D01*
X929076Y178993D01*
X929115Y178868D01*
X929153Y178734D01*
X929210Y178609D01*
X929278Y178484D01*
X929287Y178474D01*
X929316Y178436D01*
X929364Y178378D01*
X929441Y178311D01*
X929528Y178234D01*
X929633Y178148D01*
X929768Y178071D01*
X929912Y177994D01*
X929922D01*
X929931Y177984D01*
X929989Y177965D01*
X930075Y177936D01*
X930200Y177908D01*
X930335Y177869D01*
X930508Y177840D01*
X930690Y177821D01*
X930883Y177811D01*
X930960D01*
X931056Y177821D01*
X931161Y177831D01*
X931296Y177840D01*
X931431Y177869D01*
X931575Y177898D01*
X931719Y177946D01*
X931738Y177956D01*
X931776Y177975D01*
X931844Y178004D01*
X931921Y178052D01*
X932017Y178109D01*
X932103Y178177D01*
X932190Y178253D01*
X932267Y178340D01*
X932276Y178350D01*
X932295Y178388D01*
X932324Y178436D01*
X932363Y178503D01*
X932391Y178580D01*
X932420Y178676D01*
X932440Y178772D01*
X932449Y178878D01*
Y178888D01*
Y178926D01*
X932440Y178984D01*
X932430Y179051D01*
X932411Y179138D01*
X932372Y179224D01*
X932334Y179311D01*
X932276Y179397D01*
X932267Y179407D01*
X932247Y179436D01*
X932199Y179474D01*
X932142Y179532D01*
X932065Y179589D01*
X931969Y179647D01*
X931844Y179714D01*
X931709Y179772D01*
X931699Y179781D01*
X931661Y179791D01*
X931584Y179810D01*
X931536Y179830D01*
X931479Y179849D01*
X931402Y179868D01*
X931325Y179887D01*
X931229Y179916D01*
X931133Y179945D01*
X931017Y179974D01*
X930883Y180002D01*
X930739Y180041D01*
X930585Y180079D01*
X930575D01*
X930546Y180089D01*
X930498Y180099D01*
X930441Y180118D01*
X930373Y180137D01*
X930297Y180156D01*
X930114Y180204D01*
X929912Y180272D01*
X929710Y180339D01*
X929528Y180406D01*
X929441Y180435D01*
X929374Y180473D01*
X929364D01*
X929355Y180483D01*
X929297Y180521D01*
X929220Y180570D01*
X929124Y180637D01*
X929009Y180723D01*
X928903Y180819D01*
X928797Y180935D01*
X928701Y181060D01*
X928692Y181079D01*
X928663Y181127D01*
X928634Y181194D01*
X928596Y181290D01*
X928547Y181405D01*
X928519Y181540D01*
X928490Y181694D01*
X928480Y181848D01*
Y181857D01*
Y181867D01*
Y181896D01*
Y181934D01*
X928499Y182021D01*
X928519Y182136D01*
X928547Y182280D01*
X928596Y182424D01*
X928663Y182588D01*
X928749Y182741D01*
Y182751D01*
X928759Y182761D01*
X928797Y182809D01*
X928865Y182886D01*
X928951Y182982D01*
X929057Y183078D01*
X929191Y183183D01*
X929355Y183289D01*
X929537Y183376D01*
X929547D01*
X929556Y183385D01*
X929585Y183395D01*
X929633Y183414D01*
X929681Y183424D01*
X929739Y183443D01*
X929874Y183491D01*
X930047Y183529D01*
X930239Y183558D01*
X930460Y183587D01*
X930690Y183597D01*
X930806D01*
X930873Y183587D01*
D02*
G37*
G36*
X944836Y177177D02*
X944116D01*
Y177744D01*
X944106Y177734D01*
X944096Y177715D01*
X944068Y177687D01*
X944029Y177638D01*
X943991Y177590D01*
X943933Y177533D01*
X943866Y177475D01*
X943789Y177408D01*
X943702Y177350D01*
X943606Y177283D01*
X943501Y177225D01*
X943395Y177177D01*
X943270Y177129D01*
X943135Y177100D01*
X942991Y177081D01*
X942838Y177071D01*
X942780D01*
X942741Y177081D01*
X942636Y177091D01*
X942511Y177110D01*
X942347Y177148D01*
X942184Y177196D01*
X942002Y177273D01*
X941829Y177369D01*
X941819D01*
X941809Y177379D01*
X941752Y177427D01*
X941675Y177494D01*
X941569Y177590D01*
X941463Y177706D01*
X941338Y177850D01*
X941233Y178013D01*
X941127Y178205D01*
Y178215D01*
X941117Y178234D01*
X941108Y178263D01*
X941088Y178302D01*
X941069Y178350D01*
X941050Y178417D01*
X941002Y178571D01*
X940954Y178753D01*
X940915Y178965D01*
X940887Y179195D01*
X940877Y179455D01*
Y179464D01*
Y179483D01*
Y179522D01*
Y179570D01*
X940887Y179628D01*
Y179705D01*
X940906Y179868D01*
X940935Y180060D01*
X940973Y180262D01*
X941021Y180483D01*
X941098Y180694D01*
Y180704D01*
X941108Y180723D01*
X941127Y180752D01*
X941146Y180790D01*
X941194Y180887D01*
X941271Y181011D01*
X941367Y181156D01*
X941483Y181300D01*
X941617Y181434D01*
X941780Y181559D01*
X941790D01*
X941800Y181569D01*
X941857Y181607D01*
X941953Y181655D01*
X942078Y181713D01*
X942232Y181761D01*
X942405Y181809D01*
X942597Y181848D01*
X942799Y181857D01*
X942866D01*
X942943Y181848D01*
X943049Y181838D01*
X943155Y181809D01*
X943280Y181780D01*
X943404Y181732D01*
X943529Y181675D01*
X943549Y181665D01*
X943587Y181646D01*
X943645Y181607D01*
X943722Y181550D01*
X943799Y181492D01*
X943895Y181415D01*
X943981Y181319D01*
X944058Y181223D01*
Y183491D01*
X944836D01*
Y177177D01*
D02*
G37*
G36*
X923300Y181838D02*
X923435Y181819D01*
X923598Y181780D01*
X923771Y181732D01*
X923944Y181655D01*
X924117Y181550D01*
X924127D01*
X924137Y181540D01*
X924194Y181492D01*
X924271Y181425D01*
X924377Y181329D01*
X924482Y181213D01*
X924598Y181060D01*
X924704Y180896D01*
X924800Y180694D01*
Y180685D01*
X924809Y180666D01*
X924819Y180637D01*
X924838Y180598D01*
X924857Y180550D01*
X924876Y180483D01*
X924915Y180339D01*
X924953Y180156D01*
X924992Y179954D01*
X925021Y179733D01*
X925030Y179493D01*
Y179483D01*
Y179464D01*
Y179426D01*
Y179378D01*
X925021Y179311D01*
Y179243D01*
X925001Y179070D01*
X924963Y178878D01*
X924924Y178667D01*
X924857Y178446D01*
X924771Y178225D01*
Y178215D01*
X924761Y178196D01*
X924742Y178167D01*
X924723Y178129D01*
X924665Y178032D01*
X924588Y177908D01*
X924482Y177773D01*
X924358Y177629D01*
X924213Y177494D01*
X924040Y177369D01*
X924031D01*
X924021Y177360D01*
X923992Y177340D01*
X923954Y177321D01*
X923858Y177273D01*
X923733Y177225D01*
X923579Y177167D01*
X923416Y177120D01*
X923223Y177081D01*
X923031Y177071D01*
X922964D01*
X922897Y177081D01*
X922801Y177091D01*
X922695Y177110D01*
X922580Y177139D01*
X922455Y177177D01*
X922339Y177225D01*
X922330Y177235D01*
X922291Y177254D01*
X922234Y177293D01*
X922166Y177340D01*
X922080Y177398D01*
X922003Y177465D01*
X921917Y177552D01*
X921840Y177638D01*
Y175428D01*
X921061D01*
Y181752D01*
X921772D01*
Y181156D01*
X921782Y181175D01*
X921811Y181213D01*
X921869Y181271D01*
X921936Y181348D01*
X922013Y181434D01*
X922109Y181521D01*
X922215Y181607D01*
X922330Y181675D01*
X922349Y181684D01*
X922387Y181703D01*
X922455Y181732D01*
X922541Y181771D01*
X922657Y181800D01*
X922781Y181828D01*
X922926Y181848D01*
X923089Y181857D01*
X923185D01*
X923300Y181838D01*
D02*
G37*
G36*
X952784Y181848D02*
X952890Y181828D01*
X953005Y181790D01*
X953139Y181752D01*
X953284Y181684D01*
X953437Y181598D01*
X953159Y180887D01*
X953149Y180896D01*
X953111Y180915D01*
X953053Y180944D01*
X952986Y180973D01*
X952899Y181002D01*
X952803Y181031D01*
X952697Y181050D01*
X952592Y181060D01*
X952553D01*
X952505Y181050D01*
X952438Y181040D01*
X952371Y181021D01*
X952294Y180992D01*
X952217Y180954D01*
X952140Y180906D01*
X952130Y180896D01*
X952111Y180877D01*
X952073Y180839D01*
X952034Y180790D01*
X951986Y180733D01*
X951938Y180656D01*
X951900Y180570D01*
X951861Y180473D01*
X951852Y180454D01*
X951842Y180406D01*
X951823Y180320D01*
X951804Y180204D01*
X951775Y180070D01*
X951756Y179916D01*
X951746Y179753D01*
X951736Y179570D01*
Y177177D01*
X950958D01*
Y181752D01*
X951659D01*
Y181069D01*
X951669Y181079D01*
X951708Y181137D01*
X951756Y181223D01*
X951813Y181319D01*
X951890Y181425D01*
X951977Y181530D01*
X952054Y181627D01*
X952140Y181694D01*
X952150Y181703D01*
X952178Y181723D01*
X952227Y181742D01*
X952294Y181780D01*
X952361Y181809D01*
X952448Y181828D01*
X952544Y181848D01*
X952640Y181857D01*
X952707D01*
X952784Y181848D01*
D02*
G37*
G36*
X939964Y177177D02*
X939186D01*
Y183491D01*
X939964D01*
Y177177D01*
D02*
G37*
G36*
X915401Y182751D02*
X913325D01*
Y177177D01*
X912489D01*
Y182751D01*
X910413D01*
Y183491D01*
X915401D01*
Y182751D01*
D02*
G37*
G36*
X948085Y181848D02*
X948162Y181838D01*
X948258Y181828D01*
X948354Y181809D01*
X948469Y181780D01*
X948700Y181703D01*
X948825Y181655D01*
X948950Y181588D01*
X949074Y181521D01*
X949199Y181434D01*
X949315Y181338D01*
X949430Y181223D01*
X949440Y181213D01*
X949459Y181194D01*
X949488Y181156D01*
X949526Y181108D01*
X949564Y181040D01*
X949613Y180964D01*
X949670Y180877D01*
X949728Y180771D01*
X949776Y180646D01*
X949834Y180521D01*
X949882Y180377D01*
X949930Y180214D01*
X949959Y180051D01*
X949987Y179868D01*
X950007Y179676D01*
X950016Y179464D01*
Y179455D01*
Y179416D01*
Y179349D01*
X950007Y179262D01*
X946605D01*
Y179253D01*
Y179234D01*
X946614Y179186D01*
Y179138D01*
X946624Y179070D01*
X946634Y179003D01*
X946672Y178830D01*
X946730Y178647D01*
X946797Y178455D01*
X946903Y178263D01*
X947027Y178100D01*
X947047Y178080D01*
X947095Y178042D01*
X947181Y177975D01*
X947287Y177908D01*
X947431Y177831D01*
X947595Y177763D01*
X947777Y177725D01*
X947979Y177706D01*
X948056D01*
X948133Y177715D01*
X948229Y177734D01*
X948344Y177763D01*
X948469Y177802D01*
X948594Y177850D01*
X948709Y177927D01*
X948719Y177936D01*
X948757Y177975D01*
X948815Y178023D01*
X948882Y178109D01*
X948959Y178205D01*
X949036Y178330D01*
X949113Y178484D01*
X949190Y178657D01*
X949987Y178551D01*
Y178542D01*
X949978Y178523D01*
X949968Y178484D01*
X949949Y178436D01*
X949930Y178378D01*
X949901Y178311D01*
X949824Y178148D01*
X949728Y177975D01*
X949613Y177792D01*
X949459Y177610D01*
X949286Y177456D01*
X949276D01*
X949267Y177437D01*
X949238Y177417D01*
X949190Y177398D01*
X949142Y177369D01*
X949084Y177331D01*
X949017Y177302D01*
X948930Y177264D01*
X948748Y177196D01*
X948517Y177129D01*
X948267Y177091D01*
X947979Y177071D01*
X947883D01*
X947816Y177081D01*
X947729Y177091D01*
X947633Y177100D01*
X947527Y177120D01*
X947402Y177148D01*
X947152Y177225D01*
X947018Y177273D01*
X946893Y177331D01*
X946758Y177398D01*
X946634Y177485D01*
X946509Y177581D01*
X946393Y177687D01*
X946384Y177696D01*
X946364Y177715D01*
X946336Y177754D01*
X946307Y177802D01*
X946259Y177859D01*
X946211Y177936D01*
X946153Y178032D01*
X946105Y178138D01*
X946047Y178253D01*
X945990Y178378D01*
X945942Y178523D01*
X945903Y178676D01*
X945865Y178840D01*
X945836Y179022D01*
X945817Y179215D01*
X945807Y179416D01*
Y179426D01*
Y179464D01*
Y179532D01*
X945817Y179609D01*
X945826Y179705D01*
X945836Y179820D01*
X945855Y179945D01*
X945884Y180079D01*
X945951Y180368D01*
X945999Y180512D01*
X946057Y180666D01*
X946124Y180810D01*
X946201Y180954D01*
X946288Y181088D01*
X946393Y181213D01*
X946403Y181223D01*
X946422Y181242D01*
X946451Y181271D01*
X946499Y181319D01*
X946557Y181367D01*
X946634Y181415D01*
X946710Y181473D01*
X946807Y181540D01*
X946912Y181598D01*
X947027Y181655D01*
X947152Y181703D01*
X947297Y181761D01*
X947441Y181800D01*
X947595Y181828D01*
X947758Y181848D01*
X947931Y181857D01*
X948017D01*
X948085Y181848D01*
D02*
G37*
G36*
X936303D02*
X936389Y181838D01*
X936476Y181828D01*
X936581Y181809D01*
X936697Y181780D01*
X936937Y181703D01*
X937062Y181655D01*
X937197Y181598D01*
X937321Y181521D01*
X937446Y181434D01*
X937571Y181338D01*
X937687Y181233D01*
X937696Y181223D01*
X937715Y181204D01*
X937744Y181165D01*
X937783Y181117D01*
X937831Y181060D01*
X937879Y180983D01*
X937936Y180887D01*
X937994Y180790D01*
X938042Y180675D01*
X938100Y180541D01*
X938148Y180406D01*
X938196Y180252D01*
X938234Y180089D01*
X938263Y179906D01*
X938282Y179724D01*
X938292Y179522D01*
Y179512D01*
Y179483D01*
Y179436D01*
Y179378D01*
X938282Y179301D01*
Y179215D01*
X938273Y179118D01*
X938263Y179013D01*
X938225Y178792D01*
X938177Y178561D01*
X938109Y178330D01*
X938023Y178129D01*
Y178119D01*
X938013Y178109D01*
X937975Y178042D01*
X937908Y177956D01*
X937821Y177840D01*
X937715Y177715D01*
X937581Y177590D01*
X937427Y177465D01*
X937245Y177350D01*
X937235D01*
X937225Y177340D01*
X937197Y177321D01*
X937158Y177312D01*
X937052Y177264D01*
X936918Y177216D01*
X936754Y177158D01*
X936572Y177120D01*
X936370Y177081D01*
X936149Y177071D01*
X936053D01*
X935986Y177081D01*
X935909Y177091D01*
X935813Y177100D01*
X935707Y177120D01*
X935592Y177148D01*
X935351Y177225D01*
X935217Y177273D01*
X935092Y177331D01*
X934957Y177398D01*
X934832Y177485D01*
X934708Y177581D01*
X934592Y177687D01*
X934583Y177696D01*
X934563Y177715D01*
X934534Y177754D01*
X934506Y177802D01*
X934458Y177869D01*
X934410Y177946D01*
X934352Y178032D01*
X934304Y178138D01*
X934246Y178263D01*
X934188Y178388D01*
X934140Y178542D01*
X934102Y178695D01*
X934064Y178868D01*
X934035Y179051D01*
X934016Y179253D01*
X934006Y179464D01*
Y179483D01*
Y179522D01*
X934016Y179589D01*
Y179676D01*
X934025Y179781D01*
X934044Y179897D01*
X934064Y180031D01*
X934092Y180175D01*
X934131Y180329D01*
X934179Y180483D01*
X934237Y180637D01*
X934304Y180790D01*
X934381Y180944D01*
X934477Y181088D01*
X934583Y181223D01*
X934708Y181348D01*
X934717Y181358D01*
X934736Y181367D01*
X934765Y181396D01*
X934813Y181425D01*
X934871Y181463D01*
X934938Y181511D01*
X935015Y181559D01*
X935111Y181607D01*
X935207Y181646D01*
X935313Y181694D01*
X935563Y181780D01*
X935841Y181838D01*
X935995Y181848D01*
X936149Y181857D01*
X936236D01*
X936303Y181848D01*
D02*
G37*
G36*
X918169D02*
X918255Y181838D01*
X918342Y181828D01*
X918447Y181809D01*
X918563Y181780D01*
X918803Y181703D01*
X918928Y181655D01*
X919062Y181598D01*
X919187Y181521D01*
X919312Y181434D01*
X919437Y181338D01*
X919553Y181233D01*
X919562Y181223D01*
X919581Y181204D01*
X919610Y181165D01*
X919649Y181117D01*
X919697Y181060D01*
X919745Y180983D01*
X919802Y180887D01*
X919860Y180790D01*
X919908Y180675D01*
X919966Y180541D01*
X920014Y180406D01*
X920062Y180252D01*
X920100Y180089D01*
X920129Y179906D01*
X920148Y179724D01*
X920158Y179522D01*
Y179512D01*
Y179483D01*
Y179436D01*
Y179378D01*
X920148Y179301D01*
Y179215D01*
X920139Y179118D01*
X920129Y179013D01*
X920091Y178792D01*
X920043Y178561D01*
X919975Y178330D01*
X919889Y178129D01*
Y178119D01*
X919879Y178109D01*
X919841Y178042D01*
X919773Y177956D01*
X919687Y177840D01*
X919581Y177715D01*
X919447Y177590D01*
X919293Y177465D01*
X919110Y177350D01*
X919101D01*
X919091Y177340D01*
X919062Y177321D01*
X919024Y177312D01*
X918918Y177264D01*
X918784Y177216D01*
X918620Y177158D01*
X918438Y177120D01*
X918236Y177081D01*
X918015Y177071D01*
X917919D01*
X917852Y177081D01*
X917775Y177091D01*
X917679Y177100D01*
X917573Y177120D01*
X917457Y177148D01*
X917217Y177225D01*
X917083Y177273D01*
X916958Y177331D01*
X916823Y177398D01*
X916698Y177485D01*
X916573Y177581D01*
X916458Y177687D01*
X916448Y177696D01*
X916429Y177715D01*
X916400Y177754D01*
X916372Y177802D01*
X916323Y177869D01*
X916276Y177946D01*
X916218Y178032D01*
X916170Y178138D01*
X916112Y178263D01*
X916055Y178388D01*
X916006Y178542D01*
X915968Y178695D01*
X915930Y178868D01*
X915901Y179051D01*
X915882Y179253D01*
X915872Y179464D01*
Y179483D01*
Y179522D01*
X915882Y179589D01*
Y179676D01*
X915891Y179781D01*
X915910Y179897D01*
X915930Y180031D01*
X915958Y180175D01*
X915997Y180329D01*
X916045Y180483D01*
X916103Y180637D01*
X916170Y180790D01*
X916247Y180944D01*
X916343Y181088D01*
X916448Y181223D01*
X916573Y181348D01*
X916583Y181358D01*
X916602Y181367D01*
X916631Y181396D01*
X916679Y181425D01*
X916737Y181463D01*
X916804Y181511D01*
X916881Y181559D01*
X916977Y181607D01*
X917073Y181646D01*
X917179Y181694D01*
X917429Y181780D01*
X917707Y181838D01*
X917861Y181848D01*
X918015Y181857D01*
X918101D01*
X918169Y181848D01*
D02*
G37*
%LPC*%
G36*
X942972Y181213D02*
X942828D01*
X942789Y181204D01*
X942693Y181194D01*
X942578Y181165D01*
X942443Y181108D01*
X942299Y181031D01*
X942155Y180935D01*
X942088Y180867D01*
X942021Y180790D01*
X942002Y180771D01*
X941992Y180743D01*
X941963Y180714D01*
X941944Y180666D01*
X941915Y180608D01*
X941877Y180541D01*
X941848Y180464D01*
X941819Y180377D01*
X941780Y180281D01*
X941752Y180166D01*
X941732Y180051D01*
X941704Y179916D01*
X941694Y179772D01*
X941675Y179618D01*
Y179455D01*
Y179445D01*
Y179416D01*
Y179368D01*
X941684Y179311D01*
Y179234D01*
X941694Y179157D01*
X941723Y178955D01*
X941761Y178744D01*
X941829Y178523D01*
X941915Y178321D01*
X941973Y178225D01*
X942040Y178138D01*
X942059Y178119D01*
X942107Y178071D01*
X942184Y178004D01*
X942290Y177927D01*
X942415Y177840D01*
X942559Y177773D01*
X942732Y177725D01*
X942818Y177715D01*
X942914Y177706D01*
X942962D01*
X943001Y177715D01*
X943097Y177725D01*
X943212Y177754D01*
X943347Y177811D01*
X943491Y177879D01*
X943645Y177984D01*
X943712Y178042D01*
X943779Y178119D01*
Y178129D01*
X943799Y178138D01*
X943808Y178167D01*
X943837Y178196D01*
X943866Y178244D01*
X943895Y178292D01*
X943923Y178359D01*
X943962Y178436D01*
X943991Y178513D01*
X944020Y178609D01*
X944048Y178715D01*
X944077Y178830D01*
X944106Y178955D01*
X944116Y179089D01*
X944135Y179234D01*
Y179387D01*
Y179397D01*
Y179426D01*
Y179474D01*
X944125Y179541D01*
Y179618D01*
X944116Y179705D01*
X944087Y179916D01*
X944048Y180137D01*
X943981Y180368D01*
X943895Y180589D01*
X943837Y180685D01*
X943770Y180771D01*
Y180781D01*
X943750Y180790D01*
X943702Y180839D01*
X943626Y180915D01*
X943520Y180992D01*
X943395Y181069D01*
X943241Y181146D01*
X943068Y181194D01*
X942972Y181213D01*
D02*
G37*
G36*
X923108Y181252D02*
X922974D01*
X922935Y181242D01*
X922849Y181223D01*
X922724Y181194D01*
X922589Y181137D01*
X922445Y181050D01*
X922368Y181002D01*
X922291Y180935D01*
X922215Y180867D01*
X922147Y180781D01*
Y180771D01*
X922128Y180762D01*
X922109Y180733D01*
X922089Y180694D01*
X922061Y180646D01*
X922032Y180589D01*
X921993Y180521D01*
X921965Y180445D01*
X921926Y180349D01*
X921888Y180252D01*
X921859Y180137D01*
X921830Y180022D01*
X921811Y179887D01*
X921792Y179743D01*
X921772Y179599D01*
Y179436D01*
Y179426D01*
Y179397D01*
Y179349D01*
X921782Y179291D01*
Y179215D01*
X921792Y179138D01*
X921821Y178945D01*
X921859Y178724D01*
X921917Y178513D01*
X922003Y178311D01*
X922061Y178215D01*
X922118Y178129D01*
X922138Y178109D01*
X922186Y178061D01*
X922262Y177994D01*
X922359Y177917D01*
X922484Y177840D01*
X922637Y177773D01*
X922801Y177725D01*
X922887Y177715D01*
X922983Y177706D01*
X923031D01*
X923070Y177715D01*
X923166Y177725D01*
X923281Y177763D01*
X923425Y177811D01*
X923569Y177888D01*
X923714Y177994D01*
X923790Y178061D01*
X923858Y178138D01*
Y178148D01*
X923877Y178157D01*
X923896Y178186D01*
X923915Y178225D01*
X923944Y178273D01*
X923973Y178330D01*
X924012Y178398D01*
X924050Y178474D01*
X924079Y178561D01*
X924117Y178667D01*
X924146Y178772D01*
X924175Y178897D01*
X924194Y179032D01*
X924213Y179176D01*
X924233Y179330D01*
Y179493D01*
Y179503D01*
Y179532D01*
Y179580D01*
X924223Y179637D01*
Y179714D01*
X924213Y179801D01*
X924185Y179993D01*
X924146Y180204D01*
X924079Y180425D01*
X923992Y180627D01*
X923935Y180723D01*
X923867Y180810D01*
Y180819D01*
X923848Y180829D01*
X923800Y180877D01*
X923733Y180954D01*
X923627Y181031D01*
X923502Y181108D01*
X923358Y181184D01*
X923195Y181233D01*
X923108Y181252D01*
D02*
G37*
G36*
X947940Y181223D02*
X947892D01*
X947854Y181213D01*
X947748Y181204D01*
X947623Y181175D01*
X947479Y181137D01*
X947335Y181069D01*
X947181Y180983D01*
X947037Y180858D01*
X947018Y180839D01*
X946979Y180790D01*
X946922Y180714D01*
X946854Y180598D01*
X946787Y180464D01*
X946720Y180300D01*
X946672Y180108D01*
X946643Y179897D01*
X949199D01*
Y179906D01*
Y179926D01*
X949190Y179954D01*
Y179993D01*
X949170Y180099D01*
X949142Y180224D01*
X949103Y180358D01*
X949046Y180502D01*
X948988Y180646D01*
X948901Y180762D01*
Y180771D01*
X948882Y180781D01*
X948834Y180839D01*
X948748Y180906D01*
X948642Y180992D01*
X948498Y181079D01*
X948334Y181156D01*
X948152Y181204D01*
X948046Y181213D01*
X947940Y181223D01*
D02*
G37*
G36*
X936255Y181213D02*
X936091D01*
X936053Y181204D01*
X935947Y181194D01*
X935813Y181156D01*
X935659Y181108D01*
X935495Y181031D01*
X935332Y180915D01*
X935255Y180848D01*
X935178Y180771D01*
X935159Y180752D01*
X935140Y180723D01*
X935121Y180694D01*
X935092Y180646D01*
X935063Y180589D01*
X935025Y180521D01*
X934996Y180445D01*
X934957Y180358D01*
X934919Y180262D01*
X934890Y180156D01*
X934861Y180031D01*
X934842Y179906D01*
X934823Y179762D01*
X934804Y179618D01*
Y179455D01*
Y179445D01*
Y179416D01*
Y179368D01*
X934813Y179311D01*
Y179243D01*
X934823Y179157D01*
X934852Y178965D01*
X934900Y178753D01*
X934957Y178532D01*
X935053Y178321D01*
X935111Y178225D01*
X935178Y178138D01*
X935198Y178119D01*
X935246Y178071D01*
X935332Y178004D01*
X935447Y177927D01*
X935582Y177840D01*
X935755Y177773D01*
X935938Y177725D01*
X936043Y177715D01*
X936149Y177706D01*
X936207D01*
X936245Y177715D01*
X936351Y177725D01*
X936485Y177763D01*
X936639Y177811D01*
X936802Y177888D01*
X936956Y177994D01*
X937033Y178061D01*
X937110Y178138D01*
Y178148D01*
X937129Y178157D01*
X937148Y178186D01*
X937168Y178225D01*
X937197Y178273D01*
X937235Y178330D01*
X937264Y178398D01*
X937302Y178474D01*
X937341Y178561D01*
X937369Y178657D01*
X937408Y178772D01*
X937437Y178897D01*
X937456Y179022D01*
X937475Y179166D01*
X937494Y179320D01*
Y179483D01*
Y179493D01*
Y179522D01*
Y179560D01*
X937485Y179628D01*
Y179695D01*
X937475Y179772D01*
X937446Y179964D01*
X937398Y180166D01*
X937331Y180387D01*
X937235Y180589D01*
X937100Y180771D01*
Y180781D01*
X937081Y180790D01*
X937033Y180839D01*
X936947Y180915D01*
X936841Y180992D01*
X936697Y181069D01*
X936533Y181146D01*
X936351Y181194D01*
X936255Y181213D01*
D02*
G37*
G36*
X918121D02*
X917957D01*
X917919Y181204D01*
X917813Y181194D01*
X917679Y181156D01*
X917525Y181108D01*
X917361Y181031D01*
X917198Y180915D01*
X917121Y180848D01*
X917044Y180771D01*
X917025Y180752D01*
X917006Y180723D01*
X916987Y180694D01*
X916958Y180646D01*
X916929Y180589D01*
X916891Y180521D01*
X916862Y180445D01*
X916823Y180358D01*
X916785Y180262D01*
X916756Y180156D01*
X916727Y180031D01*
X916708Y179906D01*
X916689Y179762D01*
X916669Y179618D01*
Y179455D01*
Y179445D01*
Y179416D01*
Y179368D01*
X916679Y179311D01*
Y179243D01*
X916689Y179157D01*
X916718Y178965D01*
X916766Y178753D01*
X916823Y178532D01*
X916919Y178321D01*
X916977Y178225D01*
X917044Y178138D01*
X917064Y178119D01*
X917112Y178071D01*
X917198Y178004D01*
X917313Y177927D01*
X917448Y177840D01*
X917621Y177773D01*
X917803Y177725D01*
X917909Y177715D01*
X918015Y177706D01*
X918073D01*
X918111Y177715D01*
X918217Y177725D01*
X918351Y177763D01*
X918505Y177811D01*
X918668Y177888D01*
X918822Y177994D01*
X918899Y178061D01*
X918976Y178138D01*
Y178148D01*
X918995Y178157D01*
X919014Y178186D01*
X919034Y178225D01*
X919062Y178273D01*
X919101Y178330D01*
X919130Y178398D01*
X919168Y178474D01*
X919207Y178561D01*
X919235Y178657D01*
X919274Y178772D01*
X919303Y178897D01*
X919322Y179022D01*
X919341Y179166D01*
X919360Y179320D01*
Y179483D01*
Y179493D01*
Y179522D01*
Y179560D01*
X919351Y179628D01*
Y179695D01*
X919341Y179772D01*
X919312Y179964D01*
X919264Y180166D01*
X919197Y180387D01*
X919101Y180589D01*
X918966Y180771D01*
Y180781D01*
X918947Y180790D01*
X918899Y180839D01*
X918812Y180915D01*
X918707Y180992D01*
X918563Y181069D01*
X918399Y181146D01*
X918217Y181194D01*
X918121Y181213D01*
D02*
G37*
%LPD*%
D10*
X276626Y672654D02*
G03*
X261531Y656264I435J-15546D01*
G01*
X561803Y665073D02*
G03*
X550626Y672654I-11018J-4215D01*
G01*
X563022Y661886D02*
G03*
X573076Y654642I10532J4019D01*
G01*
X623365Y641708D02*
G03*
X610925Y654642I-12687J247D01*
G01*
X609075Y337545D02*
G03*
X623365Y351914I30J14260D01*
G01*
X577417Y337545D02*
G03*
X565059Y330674I31J-14604D01*
G01*
X550000Y322736D02*
G03*
X565059Y330674I661J17000D01*
G01*
X290174Y325762D02*
G03*
X296457Y322736I6097J4625D01*
G01*
X290271Y325688D02*
G03*
X281693Y329653I-8805J-7785D01*
G01*
X261532Y341993D02*
G03*
X274182Y329653I12282J-63D01*
G01*
X561803Y665073D02*
X563022Y661886D01*
X276626Y672654D02*
X550785D01*
X573076Y654642D02*
X577020D01*
X610925D01*
X623365Y351914D02*
Y641708D01*
X577417Y337545D02*
X609105D01*
X296457Y322736D02*
X550000D01*
X274182Y329653D02*
X281693D01*
X261531Y656264D02*
X261532Y341993D01*
D16*
X300689Y670327D02*
G03*
X299902Y669539I-0J-787D01*
G01*
X314469D02*
G03*
X313681Y670327I-787J-0D01*
G01*
Y662453D02*
G03*
X314469Y663240I0J787D01*
G01*
X299902D02*
G03*
X300689Y662453I787J0D01*
G01*
X314469Y663240D02*
Y669539D01*
X300689Y670327D02*
X313681D01*
X300689Y662453D02*
X313681D01*
X299902Y663240D02*
Y669539D01*
D48*
X307185Y666390D02*
D03*
D49*
X365178Y410620D02*
D03*
X360178D02*
D03*
X355178D02*
D03*
X350178D02*
D03*
X365178Y386191D02*
D03*
X360178D02*
D03*
X355178D02*
D03*
X350178D02*
D03*
X334947Y462815D02*
D03*
X339947D02*
D03*
X344947D02*
D03*
X349947D02*
D03*
X334947Y487244D02*
D03*
X339947D02*
D03*
X344947D02*
D03*
X349947D02*
D03*
X429082Y487146D02*
D03*
X424082D02*
D03*
X419082D02*
D03*
X414082D02*
D03*
X429082Y462716D02*
D03*
X424082D02*
D03*
X419082D02*
D03*
X414082D02*
D03*
X388649Y487264D02*
D03*
X383649D02*
D03*
X378649D02*
D03*
X373649D02*
D03*
X388649Y462835D02*
D03*
X383649D02*
D03*
X378649D02*
D03*
X373649D02*
D03*
D50*
X343012Y402168D02*
D03*
Y394884D02*
D03*
X384842Y388386D02*
D03*
Y381102D02*
D03*
X491437Y353445D02*
D03*
Y360728D02*
D03*
X553248Y358343D02*
D03*
Y351059D02*
D03*
X479528Y410260D02*
D03*
Y417543D02*
D03*
X289370Y364764D02*
D03*
Y372047D02*
D03*
X285039Y413866D02*
D03*
Y406582D02*
D03*
X277425Y413866D02*
D03*
Y406582D02*
D03*
X501968Y490059D02*
D03*
Y497342D02*
D03*
D51*
X286481Y455020D02*
D03*
Y474705D02*
D03*
Y469783D02*
D03*
Y464862D02*
D03*
Y459941D02*
D03*
Y450098D02*
D03*
D52*
X275064Y484744D02*
D03*
Y440059D02*
D03*
D53*
X356496Y346949D02*
D03*
X336811D02*
D03*
X341732D02*
D03*
X346654D02*
D03*
X351575D02*
D03*
X361417D02*
D03*
D54*
X326772Y335531D02*
D03*
X371457D02*
D03*
D55*
X392520Y380610D02*
D03*
X399213Y388484D02*
D03*
X392323Y388484D02*
D03*
X399213Y380610D02*
D03*
D56*
X448562Y362815D02*
D03*
Y355335D02*
D03*
X459585Y359075D02*
D03*
Y355335D02*
D03*
Y362815D02*
D03*
X448562Y359075D02*
D03*
D57*
X535433Y344075D02*
D03*
Y349075D02*
D03*
Y354075D02*
D03*
Y359075D02*
D03*
X516535Y344075D02*
D03*
Y349075D02*
D03*
Y354075D02*
D03*
Y359075D02*
D03*
D58*
X294146Y418280D02*
D03*
Y413280D02*
D03*
Y408280D02*
D03*
Y403280D02*
D03*
Y398280D02*
D03*
Y393280D02*
D03*
Y388280D02*
D03*
Y383280D02*
D03*
X331248D02*
D03*
Y388280D02*
D03*
Y393280D02*
D03*
Y398280D02*
D03*
Y403280D02*
D03*
Y408280D02*
D03*
Y413280D02*
D03*
Y418280D02*
D03*
D59*
X430387Y376443D02*
D03*
X428995Y377835D02*
D03*
X427603Y379226D02*
D03*
X426211Y380618D02*
D03*
X424819Y382010D02*
D03*
X423427Y383402D02*
D03*
X422035Y384794D02*
D03*
X420643Y386186D02*
D03*
X419251Y387578D02*
D03*
X417859Y388970D02*
D03*
X416467Y390362D02*
D03*
X415075Y391754D02*
D03*
X413683Y393146D02*
D03*
X412291Y394538D02*
D03*
X410899Y395930D02*
D03*
X406724Y400106D02*
D03*
X405332Y401498D02*
D03*
X403940Y402889D02*
D03*
X402548Y404282D02*
D03*
X401156Y405673D02*
D03*
X399764Y407065D02*
D03*
X398372Y408457D02*
D03*
X396980Y409849D02*
D03*
X439156Y452025D02*
D03*
X440548Y450633D02*
D03*
X441940Y449241D02*
D03*
X443332Y447849D02*
D03*
X444724Y446457D02*
D03*
X446116Y445065D02*
D03*
X447508Y443673D02*
D03*
X448900Y442281D02*
D03*
X450291Y440890D02*
D03*
X451683Y439498D02*
D03*
X453075Y438106D02*
D03*
X454467Y436714D02*
D03*
X455859Y435322D02*
D03*
X457251Y433930D02*
D03*
X458643Y432538D02*
D03*
X460035Y431146D02*
D03*
X461427Y429754D02*
D03*
X462819Y428362D02*
D03*
X464211Y426970D02*
D03*
X465603Y425578D02*
D03*
X466995Y424186D02*
D03*
X468387Y422794D02*
D03*
X469779Y421402D02*
D03*
X471171Y420010D02*
D03*
X472563Y418618D02*
D03*
X409508Y397322D02*
D03*
X408116Y398714D02*
D03*
D60*
X396980Y418618D02*
D03*
X398372Y420010D02*
D03*
X399764Y421402D02*
D03*
X401156Y422794D02*
D03*
X402548Y424186D02*
D03*
X403940Y425578D02*
D03*
X405332Y426970D02*
D03*
X406724Y428362D02*
D03*
X408116Y429754D02*
D03*
X409508Y431146D02*
D03*
X410899Y432538D02*
D03*
X412291Y433930D02*
D03*
X413683Y435322D02*
D03*
X415075Y436714D02*
D03*
X416467Y438106D02*
D03*
X417859Y439498D02*
D03*
X419251Y440890D02*
D03*
X420643Y442281D02*
D03*
X422035Y443673D02*
D03*
X423427Y445065D02*
D03*
X424819Y446457D02*
D03*
X426211Y447849D02*
D03*
X427603Y449241D02*
D03*
X428995Y450633D02*
D03*
X430387Y452025D02*
D03*
X472563Y409849D02*
D03*
X471171Y408457D02*
D03*
X469779Y407065D02*
D03*
X468387Y405673D02*
D03*
X466995Y404282D02*
D03*
X465603Y402889D02*
D03*
X464211Y401498D02*
D03*
X462819Y400106D02*
D03*
X461427Y398714D02*
D03*
X460035Y397322D02*
D03*
X458643Y395930D02*
D03*
X457251Y394538D02*
D03*
X455859Y393146D02*
D03*
X454467Y391754D02*
D03*
X453075Y390362D02*
D03*
X451683Y388970D02*
D03*
X450291Y387578D02*
D03*
X448900Y386186D02*
D03*
X447508Y384794D02*
D03*
X446116Y383402D02*
D03*
X444724Y382010D02*
D03*
X443332Y380618D02*
D03*
X441940Y379226D02*
D03*
X440548Y377835D02*
D03*
X439156Y376443D02*
D03*
D61*
X491043Y375689D02*
D03*
Y368406D02*
D03*
X515748Y389828D02*
D03*
Y382544D02*
D03*
D62*
X328386Y557087D02*
D03*
X364528D02*
D03*
X328386Y561024D02*
D03*
X364528D02*
D03*
X328386Y564961D02*
D03*
X364528D02*
D03*
X328386Y568898D02*
D03*
X364528D02*
D03*
X328386Y572835D02*
D03*
X364528D02*
D03*
X328386Y576772D02*
D03*
X364528D02*
D03*
X328386Y580709D02*
D03*
X364528D02*
D03*
X328386Y584646D02*
D03*
X364528D02*
D03*
X328386Y588583D02*
D03*
X364528D02*
D03*
X328386Y592520D02*
D03*
X364528D02*
D03*
D63*
X297047Y352756D02*
D03*
X300787D02*
D03*
X304528D02*
D03*
Y363583D02*
D03*
D64*
X297047D02*
D03*
D65*
X515748Y372047D02*
D03*
X503150D02*
D03*
X515748Y400787D02*
D03*
X503150D02*
D03*
D66*
X281102Y371772D02*
D03*
Y364449D02*
D03*
X503150Y360748D02*
D03*
Y353425D02*
D03*
X487008Y417598D02*
D03*
Y410276D02*
D03*
D67*
X462723Y383118D02*
D03*
X468291Y388686D02*
D03*
D68*
X433858Y652876D02*
D03*
Y660876D02*
D03*
X496063Y652854D02*
D03*
Y660854D02*
D03*
X485714Y652854D02*
D03*
Y660854D02*
D03*
X465017Y652854D02*
D03*
Y660854D02*
D03*
X475365Y652854D02*
D03*
Y660854D02*
D03*
X444319Y652854D02*
D03*
Y660854D02*
D03*
X454668Y652854D02*
D03*
Y660854D02*
D03*
X423465Y652953D02*
D03*
Y660953D02*
D03*
D69*
X354035Y363189D02*
D03*
X361319D02*
D03*
X486713Y426772D02*
D03*
X479429D02*
D03*
X399202Y373467D02*
D03*
X391918D02*
D03*
X545965Y344094D02*
D03*
X553248D02*
D03*
X450295Y373228D02*
D03*
X457579D02*
D03*
X328445Y487146D02*
D03*
X321161D02*
D03*
X367606Y487323D02*
D03*
X360322D02*
D03*
X407582D02*
D03*
X400298D02*
D03*
D70*
X473867Y372772D02*
D03*
X468717Y377922D02*
D03*
X479318Y378232D02*
D03*
X474168Y383382D02*
D03*
D71*
X553874Y525118D02*
D03*
X561874D02*
D03*
X553972Y515748D02*
D03*
X561973D02*
D03*
X553972Y553543D02*
D03*
X561973D02*
D03*
X553972Y544488D02*
D03*
X561973D02*
D03*
X553972Y534646D02*
D03*
X561973D02*
D03*
X329591Y369685D02*
D03*
X321590D02*
D03*
X526709Y371260D02*
D03*
X534709D02*
D03*
X525651Y445177D02*
D03*
X517651D02*
D03*
X339602Y363779D02*
D03*
X347602D02*
D03*
X304787Y333465D02*
D03*
X296787D02*
D03*
X470409Y357106D02*
D03*
X478409D02*
D03*
X449356Y473988D02*
D03*
X441356D02*
D03*
X449529Y483240D02*
D03*
X441529D02*
D03*
X582909Y641339D02*
D03*
X590909D02*
D03*
D72*
X570079Y349150D02*
D03*
Y357150D02*
D03*
X496063Y635868D02*
D03*
Y643868D02*
D03*
X485714Y635868D02*
D03*
Y643868D02*
D03*
X465017Y635951D02*
D03*
Y643951D02*
D03*
X475365Y635951D02*
D03*
Y643951D02*
D03*
X444319Y635951D02*
D03*
Y643951D02*
D03*
X454668Y635951D02*
D03*
Y643951D02*
D03*
X434154Y363449D02*
D03*
Y355449D02*
D03*
X423465Y635459D02*
D03*
Y643459D02*
D03*
X433858Y635786D02*
D03*
Y643786D02*
D03*
X553740Y479724D02*
D03*
Y471724D02*
D03*
Y488715D02*
D03*
Y496715D02*
D03*
X428019Y510004D02*
D03*
Y502004D02*
D03*
X385262Y510024D02*
D03*
Y502024D02*
D03*
X384350Y440390D02*
D03*
Y448390D02*
D03*
X347504Y509669D02*
D03*
Y501669D02*
D03*
Y440640D02*
D03*
Y448640D02*
D03*
X419082Y510004D02*
D03*
Y502004D02*
D03*
X375775Y510024D02*
D03*
Y502024D02*
D03*
X375775Y440784D02*
D03*
Y448783D02*
D03*
X337504Y509905D02*
D03*
Y501905D02*
D03*
Y440640D02*
D03*
Y448640D02*
D03*
X489479Y481658D02*
D03*
Y473658D02*
D03*
X479736Y481658D02*
D03*
Y473658D02*
D03*
X469992Y481658D02*
D03*
Y473658D02*
D03*
X498834Y481658D02*
D03*
Y473658D02*
D03*
D73*
X534090Y466673D02*
D03*
Y471673D02*
D03*
Y476673D02*
D03*
Y481673D02*
D03*
X509661Y466673D02*
D03*
Y471673D02*
D03*
Y476673D02*
D03*
Y481673D02*
D03*
D74*
X586516Y345937D02*
D03*
X515453Y631452D02*
D03*
X271427Y634744D02*
D03*
D75*
X405805Y375000D02*
D03*
D76*
X475394Y332513D02*
D03*
X271778Y528622D02*
D03*
X581181Y621575D02*
D03*
X601161D02*
D03*
X271654Y600216D02*
D03*
X563976Y501575D02*
D03*
D77*
X475394Y342513D02*
D03*
X271778Y518622D02*
D03*
X393425Y342480D02*
D03*
X403425D02*
D03*
X413425D02*
D03*
X423425D02*
D03*
X433425D02*
D03*
X443425D02*
D03*
X453425D02*
D03*
Y332480D02*
D03*
X443425D02*
D03*
X433425D02*
D03*
X423425D02*
D03*
X413425D02*
D03*
X403425D02*
D03*
X591181Y381575D02*
D03*
X581181D02*
D03*
X591181Y391575D02*
D03*
X581181D02*
D03*
X591181Y401575D02*
D03*
X581181D02*
D03*
X591181Y411575D02*
D03*
X581181D02*
D03*
X591181Y421575D02*
D03*
X581181D02*
D03*
X591181Y431575D02*
D03*
X581181D02*
D03*
X591181Y441575D02*
D03*
X581181D02*
D03*
X591181Y451575D02*
D03*
X581181D02*
D03*
X591181Y461575D02*
D03*
X581181D02*
D03*
X591181Y471575D02*
D03*
X581181D02*
D03*
X591181Y481575D02*
D03*
X581181D02*
D03*
X591181Y501575D02*
D03*
X581181D02*
D03*
X591181Y511575D02*
D03*
X581181D02*
D03*
X591181Y521575D02*
D03*
X581181D02*
D03*
X591181Y531575D02*
D03*
X581181D02*
D03*
X591181Y541575D02*
D03*
X581181Y541476D02*
D03*
X591181Y551575D02*
D03*
X581181D02*
D03*
X591181Y561575D02*
D03*
X581181D02*
D03*
X591181Y571575D02*
D03*
X581181D02*
D03*
X591181Y581575D02*
D03*
X581181D02*
D03*
X591181Y591575D02*
D03*
X581181D02*
D03*
X591181Y601575D02*
D03*
X581181D02*
D03*
X591181Y611575D02*
D03*
X581181D02*
D03*
X591181Y621575D02*
D03*
X581181Y371575D02*
D03*
X591181D02*
D03*
X611181D02*
D03*
X601181D02*
D03*
X611181Y621575D02*
D03*
X601181Y611575D02*
D03*
X611181D02*
D03*
X601181Y601575D02*
D03*
X611181D02*
D03*
X601181Y591575D02*
D03*
X611181D02*
D03*
X601161Y581575D02*
D03*
X611181D02*
D03*
X601161Y571575D02*
D03*
X611181D02*
D03*
X601181Y561575D02*
D03*
X611181D02*
D03*
X601181Y551575D02*
D03*
X611181D02*
D03*
X601181Y541476D02*
D03*
X611181Y541575D02*
D03*
X601181Y531575D02*
D03*
X611181D02*
D03*
X601181Y521575D02*
D03*
X611181D02*
D03*
X601181Y511575D02*
D03*
X611181D02*
D03*
X601181Y501575D02*
D03*
X611181D02*
D03*
X601181Y491575D02*
D03*
X611181D02*
D03*
X601181Y481575D02*
D03*
X611181D02*
D03*
X601181Y471575D02*
D03*
X611181D02*
D03*
X601181Y461575D02*
D03*
X611181D02*
D03*
X601181Y451575D02*
D03*
X611181D02*
D03*
X601181Y441575D02*
D03*
X611181D02*
D03*
X601181Y431575D02*
D03*
X611181D02*
D03*
X601181Y421575D02*
D03*
X611181D02*
D03*
X601181Y411575D02*
D03*
X611181D02*
D03*
X601181Y401575D02*
D03*
X611181D02*
D03*
X601181Y391575D02*
D03*
X611181D02*
D03*
X601181Y381575D02*
D03*
X611181D02*
D03*
X591181Y491575D02*
D03*
X581181D02*
D03*
X271654Y550216D02*
D03*
Y560217D02*
D03*
Y570217D02*
D03*
Y580217D02*
D03*
Y590216D02*
D03*
X563976Y491575D02*
D03*
Y481575D02*
D03*
Y471575D02*
D03*
D78*
X393425Y332480D02*
D03*
D79*
X541732Y333013D02*
D03*
X318307Y334547D02*
D03*
X311713Y334646D02*
D03*
X546457Y433268D02*
D03*
X546426Y440390D02*
D03*
Y447047D02*
D03*
X529921Y414173D02*
D03*
X464468Y368307D02*
D03*
X491240Y544488D02*
D03*
X479035Y547835D02*
D03*
X479134Y541142D02*
D03*
Y534449D02*
D03*
X491339Y530512D02*
D03*
X311122Y354921D02*
D03*
X311024Y361614D02*
D03*
X418799Y357579D02*
D03*
X425492Y356496D02*
D03*
X564886Y461997D02*
D03*
X479035Y527559D02*
D03*
X320276Y572835D02*
D03*
X383366D02*
D03*
X376870Y580020D02*
D03*
X313681Y590216D02*
D03*
Y596654D02*
D03*
X493110Y511221D02*
D03*
X499606Y508268D02*
D03*
X517913Y412992D02*
D03*
X497539Y344193D02*
D03*
X306791Y563189D02*
D03*
X552075Y365323D02*
D03*
X285925Y400689D02*
D03*
X334055Y424606D02*
D03*
X306004D02*
D03*
X322047D02*
D03*
X436067Y464983D02*
D03*
X393996Y504724D02*
D03*
X384055Y454429D02*
D03*
X395669Y494557D02*
D03*
X368012Y432185D02*
D03*
X361417Y431979D02*
D03*
X354429Y495768D02*
D03*
X434842Y547441D02*
D03*
X434941Y554214D02*
D03*
X434784Y540689D02*
D03*
X434842Y534252D02*
D03*
X349705Y605020D02*
D03*
X357874Y604823D02*
D03*
X426476Y496457D02*
D03*
X436067Y471654D02*
D03*
X420866Y364173D02*
D03*
X413413Y377165D02*
D03*
D80*
X307087Y503937D02*
D03*
X611200Y641700D02*
D03*
X535433Y645669D02*
D03*
X307087D02*
D03*
X273933Y656843D02*
D03*
Y341783D02*
D03*
X611236Y351626D02*
D03*
X535433Y503937D02*
D03*
D81*
X346457Y557087D02*
D03*
Y592520D02*
D03*
D82*
X279070Y400689D02*
D03*
X556595Y601181D02*
D03*
X409961Y478642D02*
D03*
X374024Y375689D02*
D03*
X402658Y415354D02*
D03*
X295669Y535236D02*
D03*
X356980Y548042D02*
D03*
X309744Y484744D02*
D03*
X411319Y661221D02*
D03*
X449114Y523032D02*
D03*
M02*
