G04*
G04 #@! TF.GenerationSoftware,Altium Limited,Altium Designer,18.1.7 (191)*
G04*
G04 Layer_Color=128*
%FSLAX25Y25*%
%MOIN*%
G70*
G01*
G75*
%ADD11C,0.01000*%
%ADD37R,0.04724X0.04724*%
%ADD40R,0.04134X0.04724*%
%ADD41R,0.04724X0.04134*%
%ADD43R,0.04724X0.06000*%
%ADD44R,0.06000X0.04724*%
%ADD48C,0.05118*%
%ADD96R,0.01772X0.05906*%
%ADD97R,0.05906X0.02244*%
G04:AMPARAMS|DCode=98|XSize=47.24mil|YSize=60mil|CornerRadius=0mil|HoleSize=0mil|Usage=FLASHONLY|Rotation=225.000|XOffset=0mil|YOffset=0mil|HoleType=Round|Shape=Rectangle|*
%AMROTATEDRECTD98*
4,1,4,-0.00451,0.03792,0.03792,-0.00451,0.00451,-0.03792,-0.03792,0.00451,-0.00451,0.03792,0.0*
%
%ADD98ROTATEDRECTD98*%

G04:AMPARAMS|DCode=99|XSize=41.34mil|YSize=47.24mil|CornerRadius=0mil|HoleSize=0mil|Usage=FLASHONLY|Rotation=225.000|XOffset=0mil|YOffset=0mil|HoleType=Round|Shape=Rectangle|*
%AMROTATEDRECTD99*
4,1,4,-0.00209,0.03132,0.03132,-0.00209,0.00209,-0.03132,-0.03132,0.00209,-0.00209,0.03132,0.0*
%
%ADD99ROTATEDRECTD99*%

%ADD100P,0.06681X4X270.0*%
%ADD101R,0.04724X0.04724*%
G04:AMPARAMS|DCode=102|XSize=47.24mil|YSize=60mil|CornerRadius=0mil|HoleSize=0mil|Usage=FLASHONLY|Rotation=315.000|XOffset=0mil|YOffset=0mil|HoleType=Round|Shape=Rectangle|*
%AMROTATEDRECTD102*
4,1,4,-0.03792,-0.00451,0.00451,0.03792,0.03792,0.00451,-0.00451,-0.03792,-0.03792,-0.00451,0.0*
%
%ADD102ROTATEDRECTD102*%

G36*
X935821Y181842D02*
X935885D01*
X935949Y181832D01*
X936104Y181805D01*
X936268Y181760D01*
X936441Y181687D01*
X936614Y181596D01*
X936759Y181468D01*
X936778Y181450D01*
X936814Y181395D01*
X936878Y181313D01*
X936905Y181249D01*
X936942Y181185D01*
X936978Y181104D01*
X937006Y181022D01*
X937042Y180930D01*
X937069Y180821D01*
X937088Y180712D01*
X937106Y180584D01*
X937124Y180457D01*
Y180311D01*
Y177177D01*
X936350D01*
Y180047D01*
Y180056D01*
Y180065D01*
Y180120D01*
Y180202D01*
X936341Y180302D01*
X936331Y180411D01*
X936322Y180520D01*
X936304Y180630D01*
X936277Y180712D01*
Y180721D01*
X936259Y180748D01*
X936240Y180785D01*
X936213Y180830D01*
X936176Y180885D01*
X936131Y180940D01*
X936076Y180994D01*
X936003Y181049D01*
X935994Y181058D01*
X935967Y181067D01*
X935931Y181085D01*
X935867Y181113D01*
X935803Y181140D01*
X935721Y181158D01*
X935639Y181167D01*
X935539Y181176D01*
X935493D01*
X935457Y181167D01*
X935366Y181158D01*
X935256Y181140D01*
X935129Y181095D01*
X934992Y181040D01*
X934855Y180958D01*
X934728Y180849D01*
X934719Y180830D01*
X934682Y180785D01*
X934628Y180712D01*
X934573Y180603D01*
X934509Y180457D01*
X934464Y180284D01*
X934427Y180074D01*
X934409Y179828D01*
Y177177D01*
X933635D01*
Y180138D01*
Y180147D01*
Y180165D01*
Y180183D01*
Y180220D01*
X933626Y180320D01*
X933607Y180429D01*
X933589Y180557D01*
X933553Y180684D01*
X933507Y180803D01*
X933444Y180912D01*
X933434Y180921D01*
X933407Y180958D01*
X933362Y180994D01*
X933298Y181049D01*
X933216Y181095D01*
X933106Y181140D01*
X932979Y181167D01*
X932824Y181176D01*
X932769D01*
X932706Y181167D01*
X932633Y181158D01*
X932542Y181131D01*
X932432Y181104D01*
X932332Y181058D01*
X932223Y181003D01*
X932214Y180994D01*
X932177Y180967D01*
X932132Y180930D01*
X932068Y180876D01*
X932004Y180803D01*
X931940Y180712D01*
X931876Y180612D01*
X931822Y180493D01*
X931813Y180475D01*
X931804Y180429D01*
X931785Y180357D01*
X931758Y180256D01*
X931731Y180120D01*
X931713Y179956D01*
X931703Y179764D01*
X931694Y179546D01*
Y177177D01*
X930920D01*
Y181750D01*
X931612D01*
Y181095D01*
X931621Y181113D01*
X931649Y181149D01*
X931703Y181213D01*
X931767Y181286D01*
X931849Y181377D01*
X931949Y181468D01*
X932059Y181559D01*
X932186Y181641D01*
X932205Y181650D01*
X932250Y181677D01*
X932323Y181705D01*
X932423Y181750D01*
X932542Y181787D01*
X932678Y181814D01*
X932833Y181842D01*
X932997Y181851D01*
X933079D01*
X933179Y181842D01*
X933289Y181823D01*
X933425Y181796D01*
X933562Y181760D01*
X933699Y181705D01*
X933826Y181632D01*
X933844Y181623D01*
X933881Y181596D01*
X933935Y181550D01*
X934008Y181477D01*
X934081Y181395D01*
X934163Y181295D01*
X934236Y181176D01*
X934291Y181040D01*
X934300Y181049D01*
X934318Y181076D01*
X934345Y181113D01*
X934391Y181167D01*
X934446Y181231D01*
X934509Y181295D01*
X934582Y181368D01*
X934673Y181450D01*
X934774Y181523D01*
X934874Y181596D01*
X934992Y181659D01*
X935120Y181723D01*
X935256Y181778D01*
X935402Y181814D01*
X935548Y181842D01*
X935712Y181851D01*
X935776D01*
X935821Y181842D01*
D02*
G37*
G36*
X953185D02*
X953321Y181832D01*
X953467Y181814D01*
X953622Y181778D01*
X953786Y181741D01*
X953941Y181687D01*
X953950D01*
X953959Y181677D01*
X954005Y181659D01*
X954078Y181623D01*
X954169Y181577D01*
X954269Y181514D01*
X954369Y181441D01*
X954460Y181359D01*
X954542Y181267D01*
X954551Y181258D01*
X954570Y181222D01*
X954606Y181158D01*
X954652Y181085D01*
X954697Y180976D01*
X954743Y180858D01*
X954779Y180721D01*
X954815Y180566D01*
X954059Y180466D01*
Y180484D01*
X954050Y180520D01*
X954032Y180584D01*
X954005Y180666D01*
X953959Y180748D01*
X953905Y180839D01*
X953841Y180930D01*
X953750Y181012D01*
X953741Y181022D01*
X953704Y181040D01*
X953650Y181076D01*
X953568Y181113D01*
X953476Y181149D01*
X953358Y181185D01*
X953212Y181204D01*
X953057Y181213D01*
X952966D01*
X952875Y181204D01*
X952757Y181195D01*
X952638Y181167D01*
X952511Y181140D01*
X952392Y181095D01*
X952292Y181031D01*
X952283Y181022D01*
X952256Y181003D01*
X952219Y180967D01*
X952183Y180912D01*
X952137Y180858D01*
X952101Y180785D01*
X952073Y180703D01*
X952064Y180621D01*
Y180612D01*
Y180593D01*
X952073Y180566D01*
Y180530D01*
X952101Y180438D01*
X952155Y180347D01*
X952164Y180338D01*
X952174Y180329D01*
X952192Y180302D01*
X952228Y180274D01*
X952265Y180247D01*
X952319Y180211D01*
X952383Y180183D01*
X952456Y180147D01*
X952465D01*
X952483Y180138D01*
X952520Y180129D01*
X952584Y180102D01*
X952675Y180074D01*
X952793Y180047D01*
X952866Y180019D01*
X952948Y180001D01*
X953039Y179974D01*
X953139Y179947D01*
X953148D01*
X953176Y179938D01*
X953221Y179928D01*
X953276Y179910D01*
X953340Y179892D01*
X953422Y179874D01*
X953595Y179819D01*
X953786Y179764D01*
X953977Y179701D01*
X954150Y179637D01*
X954223Y179610D01*
X954287Y179582D01*
X954305Y179573D01*
X954342Y179555D01*
X954397Y179527D01*
X954478Y179482D01*
X954560Y179427D01*
X954642Y179354D01*
X954724Y179272D01*
X954797Y179181D01*
X954806Y179172D01*
X954825Y179136D01*
X954861Y179081D01*
X954897Y178999D01*
X954925Y178899D01*
X954961Y178790D01*
X954980Y178662D01*
X954989Y178516D01*
Y178498D01*
Y178453D01*
X954980Y178380D01*
X954961Y178279D01*
X954934Y178170D01*
X954888Y178052D01*
X954834Y177915D01*
X954761Y177787D01*
X954752Y177769D01*
X954715Y177733D01*
X954670Y177669D01*
X954597Y177596D01*
X954497Y177514D01*
X954387Y177423D01*
X954260Y177341D01*
X954105Y177259D01*
X954096D01*
X954087Y177250D01*
X954032Y177232D01*
X953941Y177205D01*
X953823Y177168D01*
X953677Y177132D01*
X953513Y177104D01*
X953340Y177086D01*
X953139Y177077D01*
X953057D01*
X952993Y177086D01*
X952921D01*
X952830Y177095D01*
X952738Y177104D01*
X952638Y177122D01*
X952420Y177168D01*
X952192Y177232D01*
X951973Y177323D01*
X951873Y177378D01*
X951782Y177441D01*
X951773Y177451D01*
X951764Y177460D01*
X951709Y177514D01*
X951627Y177596D01*
X951536Y177724D01*
X951436Y177879D01*
X951336Y178061D01*
X951254Y178289D01*
X951190Y178544D01*
X951955Y178662D01*
Y178653D01*
Y178644D01*
X951973Y178589D01*
X951991Y178498D01*
X952028Y178398D01*
X952073Y178289D01*
X952128Y178170D01*
X952210Y178052D01*
X952310Y177952D01*
X952328Y177942D01*
X952365Y177915D01*
X952438Y177879D01*
X952529Y177833D01*
X952647Y177787D01*
X952784Y177751D01*
X952948Y177724D01*
X953139Y177715D01*
X953230D01*
X953321Y177724D01*
X953440Y177742D01*
X953568Y177769D01*
X953704Y177806D01*
X953823Y177851D01*
X953932Y177924D01*
X953941Y177933D01*
X953977Y177961D01*
X954014Y178006D01*
X954068Y178070D01*
X954114Y178143D01*
X954160Y178234D01*
X954187Y178325D01*
X954196Y178434D01*
Y178443D01*
Y178480D01*
X954187Y178525D01*
X954169Y178589D01*
X954141Y178653D01*
X954096Y178717D01*
X954041Y178790D01*
X953959Y178844D01*
X953950Y178853D01*
X953923Y178863D01*
X953877Y178890D01*
X953804Y178917D01*
X953695Y178954D01*
X953631Y178981D01*
X953558Y178999D01*
X953476Y179026D01*
X953385Y179054D01*
X953285Y179081D01*
X953167Y179109D01*
X953158D01*
X953130Y179118D01*
X953085Y179127D01*
X953030Y179145D01*
X952957Y179163D01*
X952875Y179191D01*
X952702Y179236D01*
X952502Y179300D01*
X952310Y179354D01*
X952128Y179418D01*
X952046Y179455D01*
X951982Y179482D01*
X951964Y179491D01*
X951928Y179509D01*
X951873Y179546D01*
X951800Y179591D01*
X951718Y179655D01*
X951636Y179728D01*
X951554Y179810D01*
X951481Y179910D01*
X951472Y179919D01*
X951454Y179956D01*
X951427Y180019D01*
X951399Y180092D01*
X951372Y180183D01*
X951345Y180293D01*
X951326Y180402D01*
X951317Y180530D01*
Y180548D01*
Y180584D01*
X951326Y180639D01*
X951336Y180721D01*
X951354Y180803D01*
X951372Y180903D01*
X951408Y180994D01*
X951454Y181095D01*
X951463Y181104D01*
X951481Y181140D01*
X951509Y181185D01*
X951554Y181249D01*
X951609Y181313D01*
X951673Y181395D01*
X951746Y181468D01*
X951837Y181532D01*
X951846Y181541D01*
X951873Y181550D01*
X951909Y181577D01*
X951964Y181605D01*
X952037Y181641D01*
X952119Y181677D01*
X952219Y181714D01*
X952328Y181750D01*
X952347Y181760D01*
X952383Y181769D01*
X952447Y181787D01*
X952529Y181805D01*
X952629Y181823D01*
X952738Y181832D01*
X952866Y181851D01*
X953085D01*
X953185Y181842D01*
D02*
G37*
G36*
X948730D02*
X948867Y181832D01*
X949022Y181814D01*
X949176Y181787D01*
X949331Y181750D01*
X949477Y181705D01*
X949495Y181696D01*
X949541Y181677D01*
X949605Y181650D01*
X949687Y181614D01*
X949778Y181559D01*
X949869Y181504D01*
X949951Y181431D01*
X950024Y181359D01*
X950033Y181350D01*
X950051Y181322D01*
X950078Y181277D01*
X950115Y181222D01*
X950160Y181140D01*
X950197Y181058D01*
X950233Y180958D01*
X950261Y180839D01*
Y180830D01*
X950270Y180803D01*
X950279Y180748D01*
X950288Y180675D01*
Y180575D01*
X950297Y180457D01*
X950306Y180302D01*
Y180129D01*
Y179090D01*
Y179081D01*
Y179045D01*
Y178990D01*
Y178917D01*
Y178835D01*
Y178735D01*
X950315Y178516D01*
Y178289D01*
X950324Y178061D01*
X950333Y177961D01*
Y177869D01*
X950342Y177787D01*
X950352Y177724D01*
Y177715D01*
X950361Y177678D01*
X950370Y177623D01*
X950397Y177551D01*
X950415Y177469D01*
X950452Y177378D01*
X950497Y177277D01*
X950543Y177177D01*
X949732D01*
X949723Y177186D01*
X949714Y177223D01*
X949696Y177268D01*
X949668Y177341D01*
X949641Y177423D01*
X949623Y177523D01*
X949605Y177633D01*
X949586Y177751D01*
X949577D01*
X949568Y177733D01*
X949514Y177687D01*
X949432Y177623D01*
X949322Y177542D01*
X949185Y177460D01*
X949049Y177368D01*
X948903Y177287D01*
X948748Y177223D01*
X948730Y177214D01*
X948675Y177205D01*
X948593Y177177D01*
X948493Y177150D01*
X948366Y177122D01*
X948220Y177104D01*
X948056Y177086D01*
X947892Y177077D01*
X947819D01*
X947764Y177086D01*
X947701D01*
X947628Y177095D01*
X947464Y177122D01*
X947282Y177168D01*
X947081Y177232D01*
X946899Y177323D01*
X946735Y177441D01*
X946717Y177460D01*
X946671Y177505D01*
X946607Y177587D01*
X946535Y177696D01*
X946462Y177833D01*
X946398Y177988D01*
X946352Y178179D01*
X946343Y178270D01*
X946334Y178380D01*
Y178398D01*
Y178434D01*
X946343Y178498D01*
X946352Y178580D01*
X946371Y178680D01*
X946398Y178780D01*
X946434Y178890D01*
X946480Y178990D01*
X946489Y178999D01*
X946507Y179036D01*
X946544Y179090D01*
X946589Y179154D01*
X946644Y179227D01*
X946717Y179300D01*
X946790Y179373D01*
X946881Y179436D01*
X946890Y179446D01*
X946926Y179464D01*
X946972Y179500D01*
X947045Y179537D01*
X947127Y179573D01*
X947227Y179619D01*
X947327Y179655D01*
X947445Y179692D01*
X947455D01*
X947491Y179701D01*
X947546Y179719D01*
X947619Y179728D01*
X947710Y179746D01*
X947828Y179764D01*
X947965Y179792D01*
X948129Y179810D01*
X948138D01*
X948174Y179819D01*
X948220D01*
X948284Y179828D01*
X948357Y179837D01*
X948448Y179856D01*
X948548Y179865D01*
X948657Y179883D01*
X948876Y179928D01*
X949113Y179974D01*
X949322Y180029D01*
X949422Y180056D01*
X949514Y180083D01*
Y180092D01*
Y180111D01*
X949523Y180165D01*
Y180229D01*
Y180265D01*
Y180284D01*
Y180293D01*
Y180302D01*
Y180357D01*
X949514Y180448D01*
X949495Y180548D01*
X949468Y180657D01*
X949422Y180766D01*
X949368Y180867D01*
X949295Y180949D01*
X949286Y180958D01*
X949240Y180994D01*
X949167Y181031D01*
X949076Y181085D01*
X948949Y181131D01*
X948803Y181176D01*
X948621Y181204D01*
X948411Y181213D01*
X948320D01*
X948229Y181204D01*
X948102Y181185D01*
X947974Y181167D01*
X947837Y181131D01*
X947710Y181085D01*
X947600Y181022D01*
X947591Y181012D01*
X947555Y180985D01*
X947509Y180940D01*
X947455Y180867D01*
X947400Y180776D01*
X947336Y180657D01*
X947282Y180511D01*
X947227Y180347D01*
X946471Y180448D01*
Y180457D01*
X946480Y180466D01*
Y180493D01*
X946489Y180530D01*
X946516Y180612D01*
X946553Y180730D01*
X946598Y180849D01*
X946653Y180976D01*
X946726Y181104D01*
X946808Y181222D01*
X946817Y181231D01*
X946853Y181267D01*
X946908Y181322D01*
X946981Y181395D01*
X947081Y181468D01*
X947200Y181541D01*
X947336Y181623D01*
X947491Y181687D01*
X947500D01*
X947509Y181696D01*
X947537Y181705D01*
X947573Y181714D01*
X947664Y181741D01*
X947792Y181769D01*
X947937Y181796D01*
X948120Y181823D01*
X948311Y181842D01*
X948530Y181851D01*
X948630D01*
X948730Y181842D01*
D02*
G37*
G36*
X943546Y183472D02*
X943701Y183463D01*
X943865Y183454D01*
X944020Y183436D01*
X944157Y183417D01*
X944175D01*
X944239Y183399D01*
X944321Y183381D01*
X944430Y183354D01*
X944549Y183308D01*
X944676Y183254D01*
X944813Y183190D01*
X944931Y183117D01*
X944949Y183108D01*
X944986Y183080D01*
X945041Y183026D01*
X945113Y182962D01*
X945195Y182880D01*
X945277Y182771D01*
X945368Y182652D01*
X945441Y182516D01*
X945450Y182497D01*
X945469Y182452D01*
X945505Y182370D01*
X945541Y182261D01*
X945569Y182133D01*
X945605Y181987D01*
X945623Y181823D01*
X945633Y181650D01*
Y181641D01*
Y181614D01*
Y181577D01*
X945623Y181514D01*
X945614Y181450D01*
X945605Y181368D01*
X945587Y181277D01*
X945569Y181176D01*
X945505Y180967D01*
X945469Y180858D01*
X945414Y180739D01*
X945350Y180621D01*
X945286Y180511D01*
X945205Y180402D01*
X945113Y180293D01*
X945104Y180284D01*
X945086Y180265D01*
X945059Y180238D01*
X945013Y180211D01*
X944958Y180165D01*
X944886Y180120D01*
X944794Y180065D01*
X944694Y180019D01*
X944576Y179965D01*
X944439Y179910D01*
X944293Y179865D01*
X944120Y179828D01*
X943938Y179792D01*
X943738Y179764D01*
X943510Y179746D01*
X943273Y179737D01*
X941661D01*
Y177177D01*
X940823D01*
Y183481D01*
X943410D01*
X943546Y183472D01*
D02*
G37*
G36*
X912955D02*
X913028D01*
X913192Y183454D01*
X913374Y183436D01*
X913566Y183399D01*
X913757Y183354D01*
X913930Y183290D01*
X913939D01*
X913948Y183281D01*
X914003Y183254D01*
X914085Y183208D01*
X914176Y183144D01*
X914285Y183062D01*
X914404Y182962D01*
X914513Y182834D01*
X914613Y182698D01*
X914622Y182680D01*
X914649Y182625D01*
X914695Y182552D01*
X914741Y182443D01*
X914786Y182315D01*
X914832Y182178D01*
X914859Y182024D01*
X914868Y181869D01*
Y181851D01*
Y181805D01*
X914859Y181723D01*
X914841Y181623D01*
X914814Y181504D01*
X914768Y181377D01*
X914713Y181249D01*
X914640Y181113D01*
X914631Y181095D01*
X914604Y181058D01*
X914549Y180985D01*
X914476Y180912D01*
X914385Y180821D01*
X914276Y180721D01*
X914139Y180630D01*
X913984Y180539D01*
X913994D01*
X914012Y180530D01*
X914039Y180520D01*
X914076Y180502D01*
X914185Y180466D01*
X914312Y180402D01*
X914449Y180320D01*
X914604Y180220D01*
X914741Y180102D01*
X914868Y179956D01*
X914877Y179938D01*
X914914Y179883D01*
X914968Y179801D01*
X915023Y179692D01*
X915078Y179546D01*
X915132Y179391D01*
X915169Y179209D01*
X915178Y179008D01*
Y178999D01*
Y178990D01*
Y178935D01*
X915169Y178844D01*
X915151Y178735D01*
X915132Y178607D01*
X915096Y178471D01*
X915050Y178325D01*
X914987Y178179D01*
X914977Y178161D01*
X914950Y178115D01*
X914914Y178052D01*
X914859Y177961D01*
X914786Y177869D01*
X914713Y177769D01*
X914622Y177669D01*
X914522Y177587D01*
X914513Y177578D01*
X914476Y177551D01*
X914413Y177514D01*
X914331Y177478D01*
X914231Y177423D01*
X914112Y177368D01*
X913984Y177323D01*
X913830Y177277D01*
X913811D01*
X913757Y177259D01*
X913666Y177250D01*
X913547Y177232D01*
X913402Y177214D01*
X913228Y177195D01*
X913037Y177186D01*
X912818Y177177D01*
X910413D01*
Y183481D01*
X912891D01*
X912955Y183472D01*
D02*
G37*
G36*
X956811Y181750D02*
X957594D01*
Y181149D01*
X956811D01*
Y178462D01*
Y178443D01*
Y178407D01*
Y178352D01*
X956820Y178289D01*
X956829Y178143D01*
X956838Y178079D01*
X956847Y178033D01*
X956856Y178015D01*
X956884Y177979D01*
X956920Y177933D01*
X956984Y177888D01*
X957002Y177879D01*
X957047Y177860D01*
X957129Y177842D01*
X957248Y177833D01*
X957339D01*
X957384Y177842D01*
X957448D01*
X957521Y177851D01*
X957594Y177860D01*
X957694Y177177D01*
X957676D01*
X957640Y177168D01*
X957576Y177159D01*
X957494Y177150D01*
X957403Y177132D01*
X957303Y177122D01*
X957102Y177113D01*
X957029D01*
X956956Y177122D01*
X956865Y177132D01*
X956756Y177141D01*
X956647Y177168D01*
X956546Y177195D01*
X956446Y177241D01*
X956437Y177250D01*
X956410Y177268D01*
X956373Y177296D01*
X956319Y177341D01*
X956273Y177387D01*
X956219Y177451D01*
X956164Y177514D01*
X956127Y177596D01*
Y177605D01*
X956109Y177642D01*
X956100Y177706D01*
X956082Y177797D01*
X956064Y177915D01*
X956054Y177988D01*
Y178070D01*
X956045Y178170D01*
X956036Y178270D01*
Y178380D01*
Y178507D01*
Y181149D01*
X955462D01*
Y181750D01*
X956036D01*
Y182880D01*
X956811Y183345D01*
Y181750D01*
D02*
G37*
G36*
X924479D02*
X925263D01*
Y181149D01*
X924479D01*
Y178462D01*
Y178443D01*
Y178407D01*
Y178352D01*
X924488Y178289D01*
X924498Y178143D01*
X924507Y178079D01*
X924516Y178033D01*
X924525Y178015D01*
X924552Y177979D01*
X924589Y177933D01*
X924652Y177888D01*
X924671Y177879D01*
X924716Y177860D01*
X924798Y177842D01*
X924916Y177833D01*
X925008D01*
X925053Y177842D01*
X925117D01*
X925190Y177851D01*
X925263Y177860D01*
X925363Y177177D01*
X925345D01*
X925308Y177168D01*
X925245Y177159D01*
X925163Y177150D01*
X925071Y177132D01*
X924971Y177122D01*
X924771Y177113D01*
X924698D01*
X924625Y177122D01*
X924534Y177132D01*
X924425Y177141D01*
X924315Y177168D01*
X924215Y177195D01*
X924115Y177241D01*
X924106Y177250D01*
X924078Y177268D01*
X924042Y177296D01*
X923987Y177341D01*
X923942Y177387D01*
X923887Y177451D01*
X923832Y177514D01*
X923796Y177596D01*
Y177605D01*
X923778Y177642D01*
X923769Y177706D01*
X923750Y177797D01*
X923732Y177915D01*
X923723Y177988D01*
Y178070D01*
X923714Y178170D01*
X923705Y178270D01*
Y178380D01*
Y178507D01*
Y181149D01*
X923131D01*
Y181750D01*
X923705D01*
Y182880D01*
X924479Y183345D01*
Y181750D01*
D02*
G37*
G36*
X922029D02*
X922812D01*
Y181149D01*
X922029D01*
Y178462D01*
Y178443D01*
Y178407D01*
Y178352D01*
X922038Y178289D01*
X922047Y178143D01*
X922056Y178079D01*
X922065Y178033D01*
X922074Y178015D01*
X922101Y177979D01*
X922138Y177933D01*
X922202Y177888D01*
X922220Y177879D01*
X922266Y177860D01*
X922348Y177842D01*
X922466Y177833D01*
X922557D01*
X922603Y177842D01*
X922666D01*
X922739Y177851D01*
X922812Y177860D01*
X922912Y177177D01*
X922894D01*
X922858Y177168D01*
X922794Y177159D01*
X922712Y177150D01*
X922621Y177132D01*
X922521Y177122D01*
X922320Y177113D01*
X922247D01*
X922174Y177122D01*
X922083Y177132D01*
X921974Y177141D01*
X921865Y177168D01*
X921764Y177195D01*
X921664Y177241D01*
X921655Y177250D01*
X921628Y177268D01*
X921591Y177296D01*
X921537Y177341D01*
X921491Y177387D01*
X921437Y177451D01*
X921382Y177514D01*
X921345Y177596D01*
Y177605D01*
X921327Y177642D01*
X921318Y177706D01*
X921300Y177797D01*
X921282Y177915D01*
X921272Y177988D01*
Y178070D01*
X921263Y178170D01*
X921254Y178270D01*
Y178380D01*
Y178507D01*
Y181149D01*
X920680D01*
Y181750D01*
X921254D01*
Y182880D01*
X922029Y183345D01*
Y181750D01*
D02*
G37*
G36*
X960382Y181842D02*
X960455Y181832D01*
X960546Y181814D01*
X960646Y181796D01*
X960764Y181769D01*
X960874Y181741D01*
X961001Y181696D01*
X961120Y181650D01*
X961247Y181586D01*
X961375Y181514D01*
X961502Y181431D01*
X961621Y181331D01*
X961730Y181222D01*
X961739Y181213D01*
X961757Y181195D01*
X961785Y181158D01*
X961821Y181104D01*
X961867Y181040D01*
X961912Y180967D01*
X961967Y180876D01*
X962022Y180766D01*
X962076Y180648D01*
X962131Y180520D01*
X962176Y180375D01*
X962222Y180220D01*
X962258Y180047D01*
X962286Y179865D01*
X962304Y179673D01*
X962313Y179464D01*
Y179455D01*
Y179418D01*
Y179354D01*
X962304Y179263D01*
X958888D01*
Y179254D01*
Y179227D01*
X958897Y179191D01*
Y179136D01*
X958906Y179072D01*
X958924Y178999D01*
X958951Y178835D01*
X959006Y178653D01*
X959079Y178453D01*
X959179Y178270D01*
X959307Y178106D01*
X959316D01*
X959325Y178088D01*
X959380Y178043D01*
X959462Y177979D01*
X959571Y177915D01*
X959717Y177842D01*
X959881Y177778D01*
X960063Y177733D01*
X960163Y177724D01*
X960272Y177715D01*
X960345D01*
X960427Y177724D01*
X960528Y177742D01*
X960637Y177769D01*
X960764Y177806D01*
X960883Y177860D01*
X961001Y177933D01*
X961010Y177942D01*
X961056Y177979D01*
X961110Y178033D01*
X961174Y178106D01*
X961247Y178207D01*
X961329Y178334D01*
X961411Y178480D01*
X961484Y178653D01*
X962286Y178553D01*
Y178544D01*
X962277Y178525D01*
X962267Y178489D01*
X962249Y178434D01*
X962222Y178380D01*
X962195Y178307D01*
X962122Y178152D01*
X962031Y177979D01*
X961903Y177797D01*
X961757Y177623D01*
X961575Y177460D01*
X961566D01*
X961548Y177441D01*
X961520Y177423D01*
X961484Y177396D01*
X961429Y177368D01*
X961375Y177341D01*
X961302Y177305D01*
X961220Y177268D01*
X961129Y177232D01*
X961038Y177195D01*
X960810Y177141D01*
X960555Y177095D01*
X960272Y177077D01*
X960172D01*
X960108Y177086D01*
X960026Y177095D01*
X959926Y177113D01*
X959817Y177132D01*
X959698Y177150D01*
X959443Y177223D01*
X959307Y177277D01*
X959179Y177332D01*
X959043Y177405D01*
X958915Y177487D01*
X958797Y177578D01*
X958678Y177687D01*
X958669Y177696D01*
X958651Y177715D01*
X958624Y177751D01*
X958587Y177806D01*
X958541Y177869D01*
X958496Y177942D01*
X958441Y178033D01*
X958387Y178134D01*
X958332Y178252D01*
X958277Y178380D01*
X958232Y178525D01*
X958186Y178680D01*
X958150Y178844D01*
X958123Y179026D01*
X958104Y179218D01*
X958095Y179418D01*
Y179427D01*
Y179473D01*
Y179527D01*
X958104Y179610D01*
X958113Y179710D01*
X958123Y179819D01*
X958141Y179947D01*
X958168Y180074D01*
X958241Y180366D01*
X958286Y180511D01*
X958341Y180666D01*
X958414Y180812D01*
X958496Y180949D01*
X958587Y181085D01*
X958687Y181213D01*
X958696Y181222D01*
X958715Y181240D01*
X958751Y181267D01*
X958797Y181313D01*
X958851Y181359D01*
X958924Y181413D01*
X959006Y181477D01*
X959106Y181532D01*
X959207Y181596D01*
X959325Y181650D01*
X959453Y181705D01*
X959589Y181750D01*
X959735Y181796D01*
X959890Y181823D01*
X960054Y181842D01*
X960227Y181851D01*
X960318D01*
X960382Y181842D01*
D02*
G37*
G36*
X928032D02*
X928114Y181832D01*
X928205Y181814D01*
X928305Y181796D01*
X928424Y181778D01*
X928670Y181696D01*
X928797Y181650D01*
X928925Y181586D01*
X929052Y181523D01*
X929180Y181431D01*
X929298Y181340D01*
X929417Y181231D01*
X929426Y181222D01*
X929444Y181204D01*
X929471Y181167D01*
X929508Y181122D01*
X929554Y181058D01*
X929608Y180976D01*
X929663Y180885D01*
X929718Y180785D01*
X929772Y180675D01*
X929827Y180539D01*
X929881Y180402D01*
X929927Y180247D01*
X929963Y180083D01*
X929991Y179910D01*
X930009Y179728D01*
X930018Y179527D01*
Y179518D01*
Y179491D01*
Y179446D01*
Y179382D01*
X930009Y179309D01*
X930000Y179218D01*
Y179127D01*
X929982Y179026D01*
X929954Y178799D01*
X929900Y178571D01*
X929836Y178343D01*
X929745Y178134D01*
Y178125D01*
X929736Y178115D01*
X929718Y178088D01*
X929699Y178052D01*
X929636Y177961D01*
X929554Y177851D01*
X929444Y177724D01*
X929307Y177596D01*
X929153Y177469D01*
X928971Y177350D01*
X928961D01*
X928952Y177341D01*
X928925Y177323D01*
X928879Y177305D01*
X928834Y177287D01*
X928779Y177268D01*
X928642Y177214D01*
X928488Y177168D01*
X928296Y177122D01*
X928096Y177086D01*
X927877Y177077D01*
X927786D01*
X927713Y177086D01*
X927631Y177095D01*
X927540Y177113D01*
X927431Y177132D01*
X927322Y177150D01*
X927076Y177223D01*
X926939Y177277D01*
X926811Y177332D01*
X926684Y177405D01*
X926556Y177487D01*
X926438Y177578D01*
X926319Y177687D01*
X926310Y177696D01*
X926292Y177715D01*
X926265Y177751D01*
X926228Y177806D01*
X926183Y177869D01*
X926137Y177942D01*
X926083Y178033D01*
X926028Y178143D01*
X925973Y178261D01*
X925919Y178398D01*
X925873Y178544D01*
X925828Y178699D01*
X925791Y178872D01*
X925764Y179054D01*
X925745Y179254D01*
X925736Y179464D01*
Y179482D01*
Y179518D01*
X925745Y179582D01*
Y179673D01*
X925755Y179773D01*
X925773Y179901D01*
X925791Y180029D01*
X925828Y180174D01*
X925864Y180320D01*
X925910Y180475D01*
X925964Y180639D01*
X926037Y180794D01*
X926110Y180940D01*
X926210Y181085D01*
X926310Y181222D01*
X926438Y181340D01*
X926447Y181350D01*
X926465Y181359D01*
X926502Y181386D01*
X926547Y181422D01*
X926602Y181459D01*
X926675Y181504D01*
X926748Y181550D01*
X926839Y181596D01*
X926939Y181641D01*
X927048Y181687D01*
X927294Y181769D01*
X927577Y181832D01*
X927722Y181842D01*
X927877Y181851D01*
X927968D01*
X928032Y181842D01*
D02*
G37*
G36*
X918230D02*
X918312Y181832D01*
X918403Y181814D01*
X918503Y181796D01*
X918622Y181778D01*
X918867Y181696D01*
X918995Y181650D01*
X919123Y181586D01*
X919250Y181523D01*
X919378Y181431D01*
X919496Y181340D01*
X919615Y181231D01*
X919624Y181222D01*
X919642Y181204D01*
X919669Y181167D01*
X919706Y181122D01*
X919751Y181058D01*
X919806Y180976D01*
X919860Y180885D01*
X919915Y180785D01*
X919970Y180675D01*
X920024Y180539D01*
X920079Y180402D01*
X920125Y180247D01*
X920161Y180083D01*
X920188Y179910D01*
X920207Y179728D01*
X920216Y179527D01*
Y179518D01*
Y179491D01*
Y179446D01*
Y179382D01*
X920207Y179309D01*
X920197Y179218D01*
Y179127D01*
X920179Y179026D01*
X920152Y178799D01*
X920097Y178571D01*
X920033Y178343D01*
X919942Y178134D01*
Y178125D01*
X919933Y178115D01*
X919915Y178088D01*
X919897Y178052D01*
X919833Y177961D01*
X919751Y177851D01*
X919642Y177724D01*
X919505Y177596D01*
X919350Y177469D01*
X919168Y177350D01*
X919159D01*
X919150Y177341D01*
X919123Y177323D01*
X919077Y177305D01*
X919032Y177287D01*
X918977Y177268D01*
X918840Y177214D01*
X918685Y177168D01*
X918494Y177122D01*
X918293Y177086D01*
X918075Y177077D01*
X917984D01*
X917911Y177086D01*
X917829Y177095D01*
X917738Y177113D01*
X917628Y177132D01*
X917519Y177150D01*
X917273Y177223D01*
X917137Y177277D01*
X917009Y177332D01*
X916881Y177405D01*
X916754Y177487D01*
X916636Y177578D01*
X916517Y177687D01*
X916508Y177696D01*
X916490Y177715D01*
X916462Y177751D01*
X916426Y177806D01*
X916380Y177869D01*
X916335Y177942D01*
X916280Y178033D01*
X916226Y178143D01*
X916171Y178261D01*
X916116Y178398D01*
X916071Y178544D01*
X916025Y178699D01*
X915989Y178872D01*
X915961Y179054D01*
X915943Y179254D01*
X915934Y179464D01*
Y179482D01*
Y179518D01*
X915943Y179582D01*
Y179673D01*
X915952Y179773D01*
X915971Y179901D01*
X915989Y180029D01*
X916025Y180174D01*
X916062Y180320D01*
X916107Y180475D01*
X916162Y180639D01*
X916235Y180794D01*
X916308Y180940D01*
X916408Y181085D01*
X916508Y181222D01*
X916636Y181340D01*
X916645Y181350D01*
X916663Y181359D01*
X916699Y181386D01*
X916745Y181422D01*
X916800Y181459D01*
X916872Y181504D01*
X916945Y181550D01*
X917036Y181596D01*
X917137Y181641D01*
X917246Y181687D01*
X917492Y181769D01*
X917774Y181832D01*
X917920Y181842D01*
X918075Y181851D01*
X918166D01*
X918230Y181842D01*
D02*
G37*
%LPC*%
G36*
X949523Y179473D02*
X949514D01*
X949504Y179464D01*
X949477Y179455D01*
X949441Y179446D01*
X949395Y179427D01*
X949340Y179409D01*
X949277Y179391D01*
X949204Y179373D01*
X949122Y179345D01*
X949022Y179327D01*
X948921Y179300D01*
X948803Y179272D01*
X948675Y179245D01*
X948548Y179218D01*
X948402Y179200D01*
X948247Y179172D01*
X948229D01*
X948174Y179163D01*
X948083Y179145D01*
X947983Y179127D01*
X947874Y179109D01*
X947764Y179081D01*
X947664Y179054D01*
X947573Y179017D01*
X947564D01*
X947537Y178999D01*
X947500Y178981D01*
X947464Y178954D01*
X947354Y178881D01*
X947263Y178771D01*
Y178762D01*
X947245Y178744D01*
X947236Y178708D01*
X947218Y178662D01*
X947200Y178607D01*
X947181Y178553D01*
X947172Y178480D01*
X947163Y178407D01*
Y178398D01*
Y178352D01*
X947172Y178298D01*
X947190Y178225D01*
X947218Y178143D01*
X947263Y178061D01*
X947318Y177970D01*
X947391Y177888D01*
X947400Y177879D01*
X947436Y177860D01*
X947491Y177824D01*
X947564Y177787D01*
X947664Y177751D01*
X947783Y177715D01*
X947919Y177696D01*
X948083Y177687D01*
X948156D01*
X948247Y177696D01*
X948347Y177715D01*
X948475Y177733D01*
X948602Y177769D01*
X948739Y177815D01*
X948876Y177879D01*
X948894Y177888D01*
X948930Y177915D01*
X948994Y177961D01*
X949067Y178024D01*
X949149Y178097D01*
X949240Y178188D01*
X949313Y178298D01*
X949386Y178416D01*
X949395Y178425D01*
X949404Y178462D01*
X949422Y178525D01*
X949450Y178607D01*
X949477Y178717D01*
X949495Y178844D01*
X949504Y178999D01*
X949514Y179181D01*
X949523Y179473D01*
D02*
G37*
G36*
X943464Y182734D02*
X941661D01*
Y180484D01*
X943355D01*
X943419Y180493D01*
X943483D01*
X943556Y180502D01*
X943729Y180520D01*
X943920Y180557D01*
X944111Y180612D01*
X944284Y180684D01*
X944366Y180730D01*
X944430Y180785D01*
X944448Y180803D01*
X944485Y180839D01*
X944540Y180912D01*
X944603Y181003D01*
X944667Y181122D01*
X944722Y181267D01*
X944758Y181431D01*
X944776Y181623D01*
Y181632D01*
Y181641D01*
Y181687D01*
X944767Y181769D01*
X944749Y181860D01*
X944731Y181960D01*
X944694Y182078D01*
X944640Y182188D01*
X944576Y182297D01*
X944567Y182306D01*
X944540Y182343D01*
X944494Y182388D01*
X944439Y182452D01*
X944357Y182516D01*
X944266Y182570D01*
X944166Y182625D01*
X944048Y182670D01*
X944038D01*
X944002Y182680D01*
X943947Y182689D01*
X943874Y182707D01*
X943765Y182716D01*
X943628Y182725D01*
X943464Y182734D01*
D02*
G37*
G36*
X912746D02*
X911252D01*
Y180839D01*
X912800D01*
X912919Y180849D01*
X913046Y180858D01*
X913174Y180867D01*
X913301Y180885D01*
X913402Y180903D01*
X913420Y180912D01*
X913456Y180921D01*
X913511Y180949D01*
X913584Y180985D01*
X913657Y181022D01*
X913739Y181076D01*
X913820Y181149D01*
X913884Y181222D01*
X913893Y181231D01*
X913912Y181258D01*
X913939Y181313D01*
X913966Y181377D01*
X913994Y181450D01*
X914021Y181541D01*
X914039Y181650D01*
X914048Y181769D01*
Y181787D01*
Y181823D01*
X914039Y181878D01*
X914030Y181951D01*
X914012Y182042D01*
X913984Y182133D01*
X913948Y182224D01*
X913893Y182315D01*
X913884Y182324D01*
X913866Y182352D01*
X913830Y182397D01*
X913784Y182443D01*
X913720Y182497D01*
X913647Y182552D01*
X913556Y182607D01*
X913456Y182643D01*
X913447D01*
X913402Y182661D01*
X913338Y182670D01*
X913237Y182689D01*
X913101Y182707D01*
X912946Y182716D01*
X912746Y182734D01*
D02*
G37*
G36*
X912910Y180092D02*
X911252D01*
Y177924D01*
X913046D01*
X913237Y177933D01*
X913319Y177942D01*
X913392Y177952D01*
X913402D01*
X913438Y177961D01*
X913493Y177970D01*
X913556Y177988D01*
X913711Y178043D01*
X913866Y178115D01*
X913875Y178125D01*
X913902Y178143D01*
X913939Y178170D01*
X913984Y178207D01*
X914030Y178261D01*
X914094Y178316D01*
X914139Y178389D01*
X914194Y178471D01*
X914203Y178480D01*
X914212Y178507D01*
X914231Y178562D01*
X914258Y178626D01*
X914285Y178699D01*
X914303Y178790D01*
X914312Y178899D01*
X914322Y179008D01*
Y179026D01*
Y179063D01*
X914312Y179136D01*
X914294Y179218D01*
X914276Y179309D01*
X914240Y179409D01*
X914194Y179509D01*
X914130Y179610D01*
X914121Y179619D01*
X914094Y179655D01*
X914057Y179701D01*
X914003Y179755D01*
X913930Y179819D01*
X913839Y179883D01*
X913739Y179938D01*
X913620Y179983D01*
X913602Y179992D01*
X913566Y180001D01*
X913484Y180019D01*
X913383Y180038D01*
X913256Y180056D01*
X913101Y180074D01*
X912910Y180092D01*
D02*
G37*
G36*
X960236Y181213D02*
X960181D01*
X960145Y181204D01*
X960045Y181195D01*
X959926Y181167D01*
X959781Y181122D01*
X959626Y181058D01*
X959480Y180967D01*
X959334Y180849D01*
X959316Y180830D01*
X959279Y180785D01*
X959216Y180703D01*
X959152Y180593D01*
X959079Y180466D01*
X959015Y180302D01*
X958961Y180111D01*
X958933Y179901D01*
X961493D01*
Y179910D01*
Y179928D01*
X961484Y179956D01*
Y179992D01*
X961466Y180102D01*
X961438Y180220D01*
X961393Y180366D01*
X961347Y180502D01*
X961275Y180639D01*
X961193Y180757D01*
Y180766D01*
X961174Y180776D01*
X961129Y180830D01*
X961047Y180903D01*
X960937Y180985D01*
X960801Y181067D01*
X960637Y181140D01*
X960445Y181195D01*
X960345Y181204D01*
X960236Y181213D01*
D02*
G37*
G36*
X927877D02*
X927823D01*
X927777Y181204D01*
X927677Y181195D01*
X927540Y181158D01*
X927385Y181104D01*
X927221Y181031D01*
X927067Y180921D01*
X926985Y180849D01*
X926912Y180776D01*
Y180766D01*
X926893Y180757D01*
X926875Y180730D01*
X926848Y180694D01*
X926820Y180648D01*
X926793Y180593D01*
X926757Y180520D01*
X926720Y180448D01*
X926684Y180357D01*
X926647Y180265D01*
X926620Y180156D01*
X926593Y180038D01*
X926565Y179910D01*
X926547Y179773D01*
X926538Y179619D01*
X926529Y179464D01*
Y179455D01*
Y179427D01*
Y179382D01*
X926538Y179318D01*
Y179245D01*
X926547Y179163D01*
X926575Y178972D01*
X926620Y178753D01*
X926693Y178534D01*
X926784Y178325D01*
X926848Y178234D01*
X926912Y178143D01*
X926921D01*
X926930Y178125D01*
X926985Y178079D01*
X927067Y178006D01*
X927176Y177933D01*
X927312Y177851D01*
X927476Y177778D01*
X927668Y177733D01*
X927768Y177724D01*
X927877Y177715D01*
X927932D01*
X927977Y177724D01*
X928078Y177742D01*
X928214Y177769D01*
X928360Y177824D01*
X928524Y177897D01*
X928679Y178006D01*
X928761Y178079D01*
X928834Y178152D01*
X928843Y178161D01*
X928852Y178170D01*
X928870Y178198D01*
X928898Y178234D01*
X928925Y178279D01*
X928961Y178334D01*
X928998Y178407D01*
X929034Y178480D01*
X929071Y178571D01*
X929098Y178671D01*
X929134Y178780D01*
X929162Y178899D01*
X929189Y179036D01*
X929207Y179172D01*
X929226Y179327D01*
Y179491D01*
Y179500D01*
Y179527D01*
Y179573D01*
X929216Y179628D01*
Y179701D01*
X929207Y179783D01*
X929180Y179974D01*
X929134Y180174D01*
X929062Y180393D01*
X928961Y180593D01*
X928907Y180694D01*
X928834Y180776D01*
Y180785D01*
X928816Y180794D01*
X928761Y180849D01*
X928679Y180912D01*
X928570Y180994D01*
X928433Y181076D01*
X928269Y181149D01*
X928087Y181195D01*
X927987Y181204D01*
X927877Y181213D01*
D02*
G37*
G36*
X918075D02*
X918020D01*
X917975Y181204D01*
X917875Y181195D01*
X917738Y181158D01*
X917583Y181104D01*
X917419Y181031D01*
X917264Y180921D01*
X917182Y180849D01*
X917109Y180776D01*
Y180766D01*
X917091Y180757D01*
X917073Y180730D01*
X917045Y180694D01*
X917018Y180648D01*
X916991Y180593D01*
X916954Y180520D01*
X916918Y180448D01*
X916881Y180357D01*
X916845Y180265D01*
X916818Y180156D01*
X916790Y180038D01*
X916763Y179910D01*
X916745Y179773D01*
X916736Y179619D01*
X916727Y179464D01*
Y179455D01*
Y179427D01*
Y179382D01*
X916736Y179318D01*
Y179245D01*
X916745Y179163D01*
X916772Y178972D01*
X916818Y178753D01*
X916891Y178534D01*
X916982Y178325D01*
X917045Y178234D01*
X917109Y178143D01*
X917118D01*
X917128Y178125D01*
X917182Y178079D01*
X917264Y178006D01*
X917373Y177933D01*
X917510Y177851D01*
X917674Y177778D01*
X917865Y177733D01*
X917966Y177724D01*
X918075Y177715D01*
X918130D01*
X918175Y177724D01*
X918275Y177742D01*
X918412Y177769D01*
X918558Y177824D01*
X918722Y177897D01*
X918877Y178006D01*
X918959Y178079D01*
X919032Y178152D01*
X919041Y178161D01*
X919050Y178170D01*
X919068Y178198D01*
X919095Y178234D01*
X919123Y178279D01*
X919159Y178334D01*
X919195Y178407D01*
X919232Y178480D01*
X919268Y178571D01*
X919296Y178671D01*
X919332Y178780D01*
X919359Y178899D01*
X919387Y179036D01*
X919405Y179172D01*
X919423Y179327D01*
Y179491D01*
Y179500D01*
Y179527D01*
Y179573D01*
X919414Y179628D01*
Y179701D01*
X919405Y179783D01*
X919378Y179974D01*
X919332Y180174D01*
X919259Y180393D01*
X919159Y180593D01*
X919104Y180694D01*
X919032Y180776D01*
Y180785D01*
X919013Y180794D01*
X918959Y180849D01*
X918877Y180912D01*
X918767Y180994D01*
X918631Y181076D01*
X918467Y181149D01*
X918284Y181195D01*
X918184Y181204D01*
X918075Y181213D01*
D02*
G37*
%LPD*%
D11*
X276626Y672654D02*
G03*
X261531Y656264I435J-15546D01*
G01*
X561803Y665073D02*
G03*
X550626Y672654I-11018J-4215D01*
G01*
X563022Y661886D02*
G03*
X573076Y654642I10532J4019D01*
G01*
X623365Y641708D02*
G03*
X610925Y654642I-12687J247D01*
G01*
X609075Y337545D02*
G03*
X623365Y351914I30J14260D01*
G01*
X577417Y337545D02*
G03*
X565059Y330674I31J-14604D01*
G01*
X550000Y322736D02*
G03*
X565059Y330674I661J17000D01*
G01*
X290174Y325762D02*
G03*
X296457Y322736I6097J4625D01*
G01*
X290271Y325688D02*
G03*
X281693Y329653I-8805J-7785D01*
G01*
X261532Y341993D02*
G03*
X274182Y329653I12282J-63D01*
G01*
X561803Y665073D02*
X563022Y661886D01*
X276626Y672654D02*
X550785D01*
X573076Y654642D02*
X577020D01*
X610925D01*
X623365Y351914D02*
Y641708D01*
X577417Y337545D02*
X609105D01*
X296457Y322736D02*
X550000D01*
X274182Y329653D02*
X281693D01*
X261531Y656264D02*
X261532Y341993D01*
D37*
X525295Y462323D02*
D03*
Y455000D02*
D03*
X531496Y380827D02*
D03*
Y373504D02*
D03*
D40*
X470768Y366339D02*
D03*
X478051D02*
D03*
X540256Y342520D02*
D03*
X532972D02*
D03*
X400689Y390551D02*
D03*
X393406D02*
D03*
D41*
X557087Y393012D02*
D03*
Y385728D02*
D03*
X533169Y454626D02*
D03*
Y461909D02*
D03*
X523622Y380807D02*
D03*
Y373524D02*
D03*
D43*
X562268Y621575D02*
D03*
X554268D02*
D03*
X562268Y611575D02*
D03*
X554268D02*
D03*
X563055Y431102D02*
D03*
X555055D02*
D03*
X563055Y440945D02*
D03*
X555055D02*
D03*
X563055Y450394D02*
D03*
X555055D02*
D03*
X563449Y421654D02*
D03*
X555449D02*
D03*
X364110Y438646D02*
D03*
X372110D02*
D03*
X541202Y393307D02*
D03*
X549202D02*
D03*
X364110Y418307D02*
D03*
X372110D02*
D03*
D44*
X531496Y402425D02*
D03*
Y394425D02*
D03*
X332677Y430725D02*
D03*
Y438725D02*
D03*
X341732Y430646D02*
D03*
Y438646D02*
D03*
X314961Y438615D02*
D03*
Y430615D02*
D03*
X323819Y438615D02*
D03*
Y430615D02*
D03*
X301014Y362858D02*
D03*
Y354858D02*
D03*
D48*
X271260Y634744D02*
D03*
X586692Y346063D02*
D03*
X515453Y631496D02*
D03*
D96*
X538681Y364862D02*
D03*
X541240D02*
D03*
X546358D02*
D03*
X543799D02*
D03*
X546358Y380807D02*
D03*
X543799D02*
D03*
X541240D02*
D03*
X538681D02*
D03*
D97*
X546555Y354134D02*
D03*
Y350394D02*
D03*
X532972Y354232D02*
D03*
Y350492D02*
D03*
D98*
X471384Y411640D02*
D03*
X477041Y417297D02*
D03*
X461640Y375223D02*
D03*
X467297Y380880D02*
D03*
D99*
X406879Y429564D02*
D03*
X401729Y424414D02*
D03*
X454436Y383252D02*
D03*
X459586Y388402D02*
D03*
D100*
X406565Y419950D02*
D03*
X411743Y425128D02*
D03*
X454482Y393534D02*
D03*
X449304Y388356D02*
D03*
D101*
X401004Y383268D02*
D03*
X393681D02*
D03*
D102*
X477730Y391385D02*
D03*
X472073Y397042D02*
D03*
X464513Y404214D02*
D03*
X458856Y409871D02*
D03*
X485210Y398254D02*
D03*
X479554Y403911D02*
D03*
M02*
