G04*
G04 #@! TF.GenerationSoftware,Altium Limited,Altium Designer,18.1.7 (191)*
G04*
G04 Layer_Color=16711935*
%FSLAX25Y25*%
%MOIN*%
G70*
G01*
G75*
%ADD10C,0.01000*%
%ADD114C,0.00500*%
%ADD115C,0.00236*%
G36*
X938900Y177000D02*
X938180D01*
Y177574D01*
X938171Y177565D01*
X938162Y177547D01*
X938135Y177510D01*
X938098Y177465D01*
X938053Y177419D01*
X937998Y177364D01*
X937934Y177301D01*
X937852Y177237D01*
X937770Y177173D01*
X937679Y177109D01*
X937570Y177055D01*
X937451Y177009D01*
X937333Y176964D01*
X937197Y176927D01*
X937051Y176909D01*
X936896Y176900D01*
X936841D01*
X936805Y176909D01*
X936695Y176918D01*
X936568Y176936D01*
X936413Y176973D01*
X936240Y177027D01*
X936067Y177100D01*
X935894Y177200D01*
X935885D01*
X935876Y177219D01*
X935821Y177255D01*
X935739Y177328D01*
X935639Y177419D01*
X935520Y177538D01*
X935402Y177683D01*
X935283Y177847D01*
X935183Y178039D01*
Y178048D01*
X935174Y178066D01*
X935165Y178093D01*
X935147Y178130D01*
X935128Y178184D01*
X935101Y178248D01*
X935083Y178312D01*
X935065Y178394D01*
X935019Y178576D01*
X934974Y178786D01*
X934946Y179022D01*
X934937Y179278D01*
Y179287D01*
Y179305D01*
Y179341D01*
Y179396D01*
X934946Y179451D01*
Y179524D01*
X934964Y179687D01*
X934992Y179879D01*
X935037Y180088D01*
X935092Y180307D01*
X935165Y180517D01*
Y180526D01*
X935174Y180544D01*
X935192Y180571D01*
X935211Y180607D01*
X935265Y180708D01*
X935338Y180835D01*
X935429Y180972D01*
X935548Y181109D01*
X935684Y181254D01*
X935848Y181373D01*
X935857D01*
X935866Y181382D01*
X935894Y181400D01*
X935930Y181418D01*
X936021Y181464D01*
X936149Y181528D01*
X936295Y181582D01*
X936468Y181628D01*
X936659Y181664D01*
X936859Y181673D01*
X936932D01*
X937005Y181664D01*
X937105Y181655D01*
X937224Y181628D01*
X937351Y181600D01*
X937479Y181555D01*
X937597Y181491D01*
X937615Y181482D01*
X937652Y181464D01*
X937707Y181418D01*
X937780Y181373D01*
X937871Y181309D01*
X937953Y181227D01*
X938044Y181145D01*
X938126Y181045D01*
Y183304D01*
X938900D01*
Y177000D01*
D02*
G37*
G36*
X912691Y183322D02*
X912809Y183304D01*
X912955Y183277D01*
X913119Y183231D01*
X913283Y183177D01*
X913447Y183104D01*
X913456D01*
X913465Y183095D01*
X913520Y183067D01*
X913602Y183013D01*
X913693Y182949D01*
X913802Y182858D01*
X913911Y182757D01*
X914021Y182639D01*
X914112Y182502D01*
X914121Y182484D01*
X914148Y182439D01*
X914185Y182357D01*
X914230Y182256D01*
X914276Y182138D01*
X914312Y182001D01*
X914340Y181846D01*
X914349Y181692D01*
Y181673D01*
Y181619D01*
X914340Y181546D01*
X914321Y181446D01*
X914294Y181327D01*
X914248Y181200D01*
X914194Y181072D01*
X914121Y180945D01*
X914112Y180926D01*
X914084Y180890D01*
X914030Y180826D01*
X913957Y180753D01*
X913866Y180671D01*
X913756Y180580D01*
X913629Y180498D01*
X913474Y180416D01*
X913483D01*
X913501Y180407D01*
X913529Y180398D01*
X913565Y180389D01*
X913665Y180352D01*
X913793Y180298D01*
X913939Y180225D01*
X914084Y180134D01*
X914221Y180015D01*
X914349Y179879D01*
X914358Y179860D01*
X914394Y179806D01*
X914449Y179715D01*
X914503Y179596D01*
X914558Y179451D01*
X914613Y179278D01*
X914649Y179077D01*
X914658Y178858D01*
Y178849D01*
Y178822D01*
Y178776D01*
X914649Y178722D01*
X914640Y178649D01*
X914622Y178567D01*
X914604Y178476D01*
X914585Y178376D01*
X914513Y178157D01*
X914458Y178039D01*
X914403Y177929D01*
X914330Y177811D01*
X914248Y177692D01*
X914157Y177574D01*
X914048Y177465D01*
X914039Y177455D01*
X914021Y177437D01*
X913984Y177410D01*
X913939Y177374D01*
X913884Y177328D01*
X913811Y177282D01*
X913729Y177228D01*
X913629Y177182D01*
X913529Y177128D01*
X913410Y177073D01*
X913292Y177027D01*
X913155Y176982D01*
X913009Y176945D01*
X912855Y176918D01*
X912700Y176900D01*
X912527Y176891D01*
X912445D01*
X912390Y176900D01*
X912317Y176909D01*
X912235Y176918D01*
X912144Y176936D01*
X912044Y176954D01*
X911825Y177009D01*
X911597Y177100D01*
X911479Y177155D01*
X911370Y177219D01*
X911260Y177301D01*
X911151Y177383D01*
X911142Y177392D01*
X911124Y177410D01*
X911096Y177437D01*
X911069Y177474D01*
X911023Y177519D01*
X910978Y177583D01*
X910923Y177647D01*
X910869Y177729D01*
X910814Y177820D01*
X910759Y177911D01*
X910659Y178130D01*
X910577Y178385D01*
X910550Y178521D01*
X910532Y178667D01*
X911306Y178767D01*
Y178758D01*
X911315Y178740D01*
X911324Y178704D01*
X911333Y178658D01*
X911342Y178603D01*
X911360Y178540D01*
X911406Y178403D01*
X911470Y178239D01*
X911552Y178084D01*
X911643Y177938D01*
X911752Y177811D01*
X911771Y177802D01*
X911807Y177765D01*
X911880Y177720D01*
X911971Y177674D01*
X912080Y177620D01*
X912217Y177574D01*
X912372Y177538D01*
X912536Y177528D01*
X912590D01*
X912627Y177538D01*
X912727Y177547D01*
X912855Y177574D01*
X913000Y177620D01*
X913155Y177683D01*
X913310Y177774D01*
X913456Y177902D01*
X913474Y177920D01*
X913520Y177975D01*
X913574Y178057D01*
X913647Y178166D01*
X913720Y178303D01*
X913775Y178458D01*
X913820Y178640D01*
X913838Y178840D01*
Y178849D01*
Y178867D01*
Y178895D01*
X913829Y178931D01*
X913820Y179032D01*
X913793Y179150D01*
X913756Y179296D01*
X913693Y179441D01*
X913602Y179587D01*
X913483Y179724D01*
X913465Y179742D01*
X913419Y179779D01*
X913346Y179833D01*
X913246Y179897D01*
X913119Y179961D01*
X912964Y180015D01*
X912791Y180052D01*
X912599Y180070D01*
X912518D01*
X912454Y180061D01*
X912372Y180052D01*
X912281Y180034D01*
X912171Y180015D01*
X912053Y179988D01*
X912144Y180671D01*
X912189D01*
X912226Y180662D01*
X912344D01*
X912445Y180680D01*
X912563Y180699D01*
X912700Y180726D01*
X912855Y180772D01*
X913000Y180835D01*
X913155Y180917D01*
X913164D01*
X913173Y180926D01*
X913219Y180963D01*
X913283Y181027D01*
X913356Y181109D01*
X913428Y181227D01*
X913492Y181364D01*
X913538Y181519D01*
X913556Y181610D01*
Y181710D01*
Y181719D01*
Y181728D01*
Y181783D01*
X913538Y181856D01*
X913520Y181956D01*
X913483Y182065D01*
X913438Y182184D01*
X913365Y182302D01*
X913264Y182411D01*
X913255Y182420D01*
X913210Y182457D01*
X913146Y182502D01*
X913064Y182557D01*
X912955Y182603D01*
X912827Y182648D01*
X912681Y182685D01*
X912518Y182694D01*
X912445D01*
X912363Y182676D01*
X912253Y182657D01*
X912135Y182621D01*
X912016Y182575D01*
X911889Y182502D01*
X911771Y182411D01*
X911761Y182402D01*
X911725Y182357D01*
X911670Y182293D01*
X911607Y182202D01*
X911543Y182083D01*
X911479Y181938D01*
X911424Y181764D01*
X911388Y181564D01*
X910614Y181701D01*
Y181710D01*
X910623Y181737D01*
X910632Y181774D01*
X910641Y181828D01*
X910659Y181892D01*
X910686Y181965D01*
X910741Y182138D01*
X910832Y182338D01*
X910942Y182539D01*
X911078Y182730D01*
X911251Y182903D01*
X911260Y182912D01*
X911279Y182922D01*
X911306Y182940D01*
X911342Y182967D01*
X911388Y183003D01*
X911452Y183040D01*
X911515Y183076D01*
X911597Y183122D01*
X911780Y183195D01*
X911989Y183268D01*
X912235Y183313D01*
X912363Y183331D01*
X912590D01*
X912691Y183322D01*
D02*
G37*
G36*
X942134Y176927D02*
Y176918D01*
X942125Y176891D01*
X942107Y176854D01*
X942089Y176809D01*
X942061Y176745D01*
X942034Y176672D01*
X941970Y176517D01*
X941906Y176344D01*
X941833Y176171D01*
X941761Y176016D01*
X941724Y175952D01*
X941697Y175889D01*
X941688Y175870D01*
X941660Y175825D01*
X941615Y175761D01*
X941560Y175679D01*
X941487Y175588D01*
X941405Y175497D01*
X941323Y175406D01*
X941223Y175333D01*
X941214Y175324D01*
X941177Y175305D01*
X941123Y175278D01*
X941041Y175242D01*
X940950Y175205D01*
X940841Y175178D01*
X940722Y175160D01*
X940585Y175151D01*
X940549D01*
X940503Y175160D01*
X940440D01*
X940367Y175178D01*
X940285Y175196D01*
X940194Y175214D01*
X940093Y175251D01*
X940012Y175971D01*
X940021D01*
X940057Y175961D01*
X940103Y175952D01*
X940157Y175934D01*
X940303Y175907D01*
X940449Y175898D01*
X940494D01*
X940540Y175907D01*
X940594D01*
X940731Y175934D01*
X940795Y175961D01*
X940859Y175989D01*
X940868D01*
X940886Y176007D01*
X940913Y176025D01*
X940950Y176052D01*
X941032Y176125D01*
X941105Y176226D01*
Y176235D01*
X941123Y176253D01*
X941141Y176289D01*
X941159Y176344D01*
X941196Y176417D01*
X941232Y176526D01*
X941287Y176654D01*
X941341Y176809D01*
Y176818D01*
X941360Y176854D01*
X941378Y176918D01*
X941414Y177000D01*
X939684Y181573D01*
X940503D01*
X941460Y178922D01*
Y178913D01*
X941469Y178904D01*
X941478Y178877D01*
X941487Y178831D01*
X941506Y178786D01*
X941524Y178731D01*
X941569Y178603D01*
X941624Y178448D01*
X941679Y178266D01*
X941733Y178075D01*
X941788Y177865D01*
Y177875D01*
X941797Y177893D01*
X941806Y177920D01*
X941815Y177956D01*
X941824Y178002D01*
X941843Y178057D01*
X941879Y178193D01*
X941925Y178348D01*
X941988Y178531D01*
X942043Y178713D01*
X942116Y178904D01*
X943100Y181573D01*
X943874D01*
X942134Y176927D01*
D02*
G37*
G36*
X927057Y183295D02*
X927130D01*
X927294Y183277D01*
X927476Y183259D01*
X927667Y183222D01*
X927859Y183177D01*
X928032Y183113D01*
X928041D01*
X928050Y183104D01*
X928105Y183076D01*
X928187Y183031D01*
X928278Y182967D01*
X928387Y182885D01*
X928506Y182785D01*
X928615Y182657D01*
X928715Y182521D01*
X928724Y182502D01*
X928751Y182448D01*
X928797Y182375D01*
X928843Y182266D01*
X928888Y182138D01*
X928934Y182001D01*
X928961Y181846D01*
X928970Y181692D01*
Y181673D01*
Y181628D01*
X928961Y181546D01*
X928943Y181446D01*
X928916Y181327D01*
X928870Y181200D01*
X928815Y181072D01*
X928742Y180936D01*
X928733Y180917D01*
X928706Y180881D01*
X928651Y180808D01*
X928578Y180735D01*
X928487Y180644D01*
X928378Y180544D01*
X928241Y180453D01*
X928086Y180362D01*
X928096D01*
X928114Y180352D01*
X928141Y180343D01*
X928178Y180325D01*
X928287Y180289D01*
X928414Y180225D01*
X928551Y180143D01*
X928706Y180043D01*
X928843Y179924D01*
X928970Y179779D01*
X928979Y179760D01*
X929016Y179706D01*
X929070Y179624D01*
X929125Y179514D01*
X929180Y179369D01*
X929234Y179214D01*
X929271Y179032D01*
X929280Y178831D01*
Y178822D01*
Y178813D01*
Y178758D01*
X929271Y178667D01*
X929253Y178558D01*
X929234Y178430D01*
X929198Y178294D01*
X929152Y178148D01*
X929089Y178002D01*
X929080Y177984D01*
X929052Y177938D01*
X929016Y177875D01*
X928961Y177783D01*
X928888Y177692D01*
X928815Y177592D01*
X928724Y177492D01*
X928624Y177410D01*
X928615Y177401D01*
X928578Y177374D01*
X928515Y177337D01*
X928433Y177301D01*
X928332Y177246D01*
X928214Y177191D01*
X928086Y177146D01*
X927932Y177100D01*
X927913D01*
X927859Y177082D01*
X927768Y177073D01*
X927649Y177055D01*
X927503Y177036D01*
X927330Y177018D01*
X927139Y177009D01*
X926920Y177000D01*
X924515D01*
Y183304D01*
X926993D01*
X927057Y183295D01*
D02*
G37*
G36*
X918330D02*
X918512Y183286D01*
X918694Y183268D01*
X918876Y183240D01*
X919031Y183213D01*
X919040D01*
X919059Y183204D01*
X919086D01*
X919122Y183186D01*
X919222Y183158D01*
X919350Y183113D01*
X919496Y183049D01*
X919651Y182967D01*
X919806Y182876D01*
X919951Y182757D01*
X919960Y182748D01*
X919969Y182739D01*
X919997Y182712D01*
X920033Y182685D01*
X920124Y182594D01*
X920234Y182466D01*
X920352Y182311D01*
X920480Y182129D01*
X920598Y181919D01*
X920698Y181683D01*
Y181673D01*
X920707Y181655D01*
X920726Y181619D01*
X920735Y181564D01*
X920762Y181500D01*
X920780Y181427D01*
X920798Y181345D01*
X920826Y181245D01*
X920853Y181145D01*
X920871Y181027D01*
X920917Y180772D01*
X920944Y180489D01*
X920953Y180179D01*
Y180170D01*
Y180152D01*
Y180106D01*
Y180061D01*
X920944Y179997D01*
Y179924D01*
X920935Y179751D01*
X920908Y179551D01*
X920881Y179341D01*
X920835Y179123D01*
X920780Y178904D01*
Y178895D01*
X920771Y178877D01*
X920762Y178849D01*
X920753Y178813D01*
X920716Y178713D01*
X920662Y178585D01*
X920607Y178439D01*
X920534Y178294D01*
X920443Y178139D01*
X920352Y177993D01*
X920343Y177975D01*
X920306Y177929D01*
X920252Y177865D01*
X920179Y177783D01*
X920097Y177692D01*
X919997Y177601D01*
X919897Y177501D01*
X919778Y177419D01*
X919760Y177410D01*
X919724Y177383D01*
X919660Y177346D01*
X919569Y177301D01*
X919459Y177246D01*
X919332Y177200D01*
X919186Y177146D01*
X919022Y177100D01*
X919004D01*
X918976Y177091D01*
X918949Y177082D01*
X918858Y177073D01*
X918731Y177055D01*
X918585Y177036D01*
X918412Y177018D01*
X918220Y177009D01*
X918011Y177000D01*
X915742D01*
Y183304D01*
X918166D01*
X918330Y183295D01*
D02*
G37*
G36*
X932332Y181664D02*
X932414Y181655D01*
X932505Y181637D01*
X932605Y181619D01*
X932724Y181600D01*
X932969Y181519D01*
X933097Y181473D01*
X933224Y181409D01*
X933352Y181345D01*
X933480Y181254D01*
X933598Y181163D01*
X933716Y181054D01*
X933726Y181045D01*
X933744Y181027D01*
X933771Y180990D01*
X933808Y180945D01*
X933853Y180881D01*
X933908Y180799D01*
X933962Y180708D01*
X934017Y180607D01*
X934072Y180498D01*
X934126Y180362D01*
X934181Y180225D01*
X934227Y180070D01*
X934263Y179906D01*
X934290Y179733D01*
X934309Y179551D01*
X934318Y179350D01*
Y179341D01*
Y179314D01*
Y179268D01*
Y179205D01*
X934309Y179132D01*
X934299Y179041D01*
Y178949D01*
X934281Y178849D01*
X934254Y178622D01*
X934199Y178394D01*
X934136Y178166D01*
X934044Y177956D01*
Y177947D01*
X934035Y177938D01*
X934017Y177911D01*
X933999Y177875D01*
X933935Y177783D01*
X933853Y177674D01*
X933744Y177547D01*
X933607Y177419D01*
X933452Y177292D01*
X933270Y177173D01*
X933261D01*
X933252Y177164D01*
X933224Y177146D01*
X933179Y177128D01*
X933133Y177109D01*
X933079Y177091D01*
X932942Y177036D01*
X932787Y176991D01*
X932596Y176945D01*
X932395Y176909D01*
X932177Y176900D01*
X932086D01*
X932013Y176909D01*
X931931Y176918D01*
X931840Y176936D01*
X931730Y176954D01*
X931621Y176973D01*
X931375Y177046D01*
X931238Y177100D01*
X931111Y177155D01*
X930984Y177228D01*
X930856Y177310D01*
X930737Y177401D01*
X930619Y177510D01*
X930610Y177519D01*
X930592Y177538D01*
X930564Y177574D01*
X930528Y177629D01*
X930482Y177692D01*
X930437Y177765D01*
X930382Y177856D01*
X930328Y177966D01*
X930273Y178084D01*
X930218Y178221D01*
X930173Y178366D01*
X930127Y178521D01*
X930091Y178694D01*
X930063Y178877D01*
X930045Y179077D01*
X930036Y179287D01*
Y179305D01*
Y179341D01*
X930045Y179405D01*
Y179496D01*
X930054Y179596D01*
X930072Y179724D01*
X930091Y179851D01*
X930127Y179997D01*
X930164Y180143D01*
X930209Y180298D01*
X930264Y180462D01*
X930337Y180617D01*
X930410Y180762D01*
X930510Y180908D01*
X930610Y181045D01*
X930737Y181163D01*
X930747Y181172D01*
X930765Y181182D01*
X930801Y181209D01*
X930847Y181245D01*
X930902Y181282D01*
X930974Y181327D01*
X931047Y181373D01*
X931138Y181418D01*
X931238Y181464D01*
X931348Y181509D01*
X931594Y181591D01*
X931876Y181655D01*
X932022Y181664D01*
X932177Y181673D01*
X932268D01*
X932332Y181664D01*
D02*
G37*
%LPC*%
G36*
X936941Y181036D02*
X936896D01*
X936859Y181027D01*
X936759Y181017D01*
X936641Y180981D01*
X936504Y180936D01*
X936358Y180853D01*
X936213Y180753D01*
X936140Y180680D01*
X936076Y180607D01*
Y180598D01*
X936058Y180589D01*
X936049Y180562D01*
X936021Y180526D01*
X935994Y180480D01*
X935967Y180425D01*
X935939Y180362D01*
X935903Y180289D01*
X935866Y180198D01*
X935839Y180097D01*
X935812Y179988D01*
X935784Y179870D01*
X935766Y179742D01*
X935748Y179596D01*
X935730Y179441D01*
Y179278D01*
Y179268D01*
Y179241D01*
Y179195D01*
X935739Y179132D01*
Y179059D01*
X935748Y178977D01*
X935775Y178786D01*
X935821Y178576D01*
X935885Y178357D01*
X935976Y178148D01*
X936030Y178057D01*
X936094Y177966D01*
X936103D01*
X936112Y177947D01*
X936158Y177902D01*
X936240Y177829D01*
X936340Y177756D01*
X936468Y177674D01*
X936623Y177601D01*
X936786Y177556D01*
X936878Y177547D01*
X936969Y177538D01*
X937014D01*
X937051Y177547D01*
X937151Y177556D01*
X937269Y177592D01*
X937406Y177638D01*
X937552Y177711D01*
X937698Y177811D01*
X937770Y177875D01*
X937834Y177947D01*
Y177956D01*
X937852Y177966D01*
X937871Y177993D01*
X937889Y178029D01*
X937916Y178075D01*
X937953Y178121D01*
X937980Y178193D01*
X938016Y178266D01*
X938053Y178348D01*
X938080Y178439D01*
X938117Y178549D01*
X938144Y178658D01*
X938162Y178786D01*
X938180Y178913D01*
X938199Y179059D01*
Y179214D01*
Y179223D01*
Y179259D01*
Y179305D01*
X938190Y179369D01*
Y179441D01*
X938180Y179533D01*
X938171Y179633D01*
X938153Y179742D01*
X938107Y179961D01*
X938044Y180189D01*
X937953Y180407D01*
X937898Y180498D01*
X937834Y180589D01*
Y180598D01*
X937816Y180607D01*
X937770Y180662D01*
X937688Y180735D01*
X937588Y180817D01*
X937461Y180899D01*
X937306Y180963D01*
X937133Y181017D01*
X937042Y181027D01*
X936941Y181036D01*
D02*
G37*
G36*
X926847Y182557D02*
X925354D01*
Y180662D01*
X926902D01*
X927021Y180671D01*
X927148Y180680D01*
X927276Y180690D01*
X927403Y180708D01*
X927503Y180726D01*
X927522Y180735D01*
X927558Y180744D01*
X927613Y180772D01*
X927686Y180808D01*
X927759Y180844D01*
X927841Y180899D01*
X927923Y180972D01*
X927986Y181045D01*
X927995Y181054D01*
X928014Y181081D01*
X928041Y181136D01*
X928068Y181200D01*
X928096Y181273D01*
X928123Y181364D01*
X928141Y181473D01*
X928150Y181591D01*
Y181610D01*
Y181646D01*
X928141Y181701D01*
X928132Y181774D01*
X928114Y181865D01*
X928086Y181956D01*
X928050Y182047D01*
X927995Y182138D01*
X927986Y182147D01*
X927968Y182175D01*
X927932Y182220D01*
X927886Y182266D01*
X927822Y182320D01*
X927749Y182375D01*
X927658Y182430D01*
X927558Y182466D01*
X927549D01*
X927503Y182484D01*
X927440Y182493D01*
X927339Y182511D01*
X927203Y182530D01*
X927048Y182539D01*
X926847Y182557D01*
D02*
G37*
G36*
X927011Y179915D02*
X925354D01*
Y177747D01*
X927148D01*
X927339Y177756D01*
X927421Y177765D01*
X927494Y177774D01*
X927503D01*
X927540Y177783D01*
X927594Y177793D01*
X927658Y177811D01*
X927813Y177865D01*
X927968Y177938D01*
X927977Y177947D01*
X928004Y177966D01*
X928041Y177993D01*
X928086Y178029D01*
X928132Y178084D01*
X928196Y178139D01*
X928241Y178212D01*
X928296Y178294D01*
X928305Y178303D01*
X928314Y178330D01*
X928332Y178385D01*
X928360Y178448D01*
X928387Y178521D01*
X928405Y178612D01*
X928414Y178722D01*
X928424Y178831D01*
Y178849D01*
Y178886D01*
X928414Y178959D01*
X928396Y179041D01*
X928378Y179132D01*
X928341Y179232D01*
X928296Y179332D01*
X928232Y179432D01*
X928223Y179441D01*
X928196Y179478D01*
X928159Y179524D01*
X928105Y179578D01*
X928032Y179642D01*
X927941Y179706D01*
X927841Y179760D01*
X927722Y179806D01*
X927704Y179815D01*
X927667Y179824D01*
X927585Y179842D01*
X927485Y179860D01*
X927358Y179879D01*
X927203Y179897D01*
X927011Y179915D01*
D02*
G37*
G36*
X918038Y182557D02*
X916580D01*
Y177747D01*
X918075D01*
X918138Y177756D01*
X918275Y177765D01*
X918430Y177774D01*
X918594Y177793D01*
X918758Y177820D01*
X918894Y177856D01*
X918913Y177865D01*
X918958Y177875D01*
X919022Y177902D01*
X919104Y177938D01*
X919195Y177993D01*
X919286Y178048D01*
X919377Y178111D01*
X919468Y178184D01*
X919477Y178202D01*
X919514Y178239D01*
X919569Y178303D01*
X919632Y178394D01*
X919705Y178512D01*
X919787Y178649D01*
X919860Y178804D01*
X919924Y178977D01*
Y178986D01*
X919933Y179004D01*
X919942Y179032D01*
X919951Y179068D01*
X919960Y179113D01*
X919979Y179177D01*
X919997Y179241D01*
X920015Y179314D01*
X920042Y179496D01*
X920070Y179706D01*
X920088Y179943D01*
X920097Y180198D01*
Y180207D01*
Y180243D01*
Y180289D01*
X920088Y180362D01*
Y180444D01*
X920079Y180535D01*
X920070Y180644D01*
X920061Y180753D01*
X920015Y180999D01*
X919960Y181254D01*
X919878Y181491D01*
X919824Y181610D01*
X919769Y181710D01*
Y181719D01*
X919751Y181737D01*
X919733Y181764D01*
X919714Y181801D01*
X919641Y181892D01*
X919550Y182001D01*
X919432Y182120D01*
X919295Y182238D01*
X919141Y182338D01*
X918976Y182420D01*
X918958Y182430D01*
X918913Y182439D01*
X918831Y182466D01*
X918712Y182493D01*
X918567Y182511D01*
X918384Y182539D01*
X918275Y182548D01*
X918157D01*
X918038Y182557D01*
D02*
G37*
G36*
X932177Y181036D02*
X932122D01*
X932077Y181027D01*
X931976Y181017D01*
X931840Y180981D01*
X931685Y180926D01*
X931521Y180853D01*
X931366Y180744D01*
X931284Y180671D01*
X931211Y180598D01*
Y180589D01*
X931193Y180580D01*
X931175Y180553D01*
X931147Y180517D01*
X931120Y180471D01*
X931093Y180416D01*
X931056Y180343D01*
X931020Y180271D01*
X930984Y180179D01*
X930947Y180088D01*
X930920Y179979D01*
X930892Y179860D01*
X930865Y179733D01*
X930847Y179596D01*
X930838Y179441D01*
X930829Y179287D01*
Y179278D01*
Y179250D01*
Y179205D01*
X930838Y179141D01*
Y179068D01*
X930847Y178986D01*
X930874Y178795D01*
X930920Y178576D01*
X930993Y178357D01*
X931084Y178148D01*
X931147Y178057D01*
X931211Y177966D01*
X931220D01*
X931229Y177947D01*
X931284Y177902D01*
X931366Y177829D01*
X931475Y177756D01*
X931612Y177674D01*
X931776Y177601D01*
X931967Y177556D01*
X932067Y177547D01*
X932177Y177538D01*
X932232D01*
X932277Y177547D01*
X932377Y177565D01*
X932514Y177592D01*
X932660Y177647D01*
X932824Y177720D01*
X932979Y177829D01*
X933060Y177902D01*
X933133Y177975D01*
X933142Y177984D01*
X933152Y177993D01*
X933170Y178020D01*
X933197Y178057D01*
X933224Y178102D01*
X933261Y178157D01*
X933297Y178230D01*
X933334Y178303D01*
X933370Y178394D01*
X933398Y178494D01*
X933434Y178603D01*
X933461Y178722D01*
X933489Y178858D01*
X933507Y178995D01*
X933525Y179150D01*
Y179314D01*
Y179323D01*
Y179350D01*
Y179396D01*
X933516Y179451D01*
Y179524D01*
X933507Y179605D01*
X933480Y179797D01*
X933434Y179997D01*
X933361Y180216D01*
X933261Y180416D01*
X933206Y180517D01*
X933133Y180598D01*
Y180607D01*
X933115Y180617D01*
X933060Y180671D01*
X932979Y180735D01*
X932869Y180817D01*
X932733Y180899D01*
X932569Y180972D01*
X932386Y181017D01*
X932286Y181027D01*
X932177Y181036D01*
D02*
G37*
%LPD*%
D10*
X276626Y672654D02*
G03*
X261531Y656264I435J-15546D01*
G01*
X561803Y665073D02*
G03*
X550626Y672654I-11018J-4215D01*
G01*
X563022Y661886D02*
G03*
X573076Y654642I10532J4019D01*
G01*
X623365Y641708D02*
G03*
X610925Y654642I-12687J247D01*
G01*
X609075Y337545D02*
G03*
X623365Y351914I30J14260D01*
G01*
X577417Y337545D02*
G03*
X565059Y330674I31J-14604D01*
G01*
X550000Y322736D02*
G03*
X565059Y330674I661J17000D01*
G01*
X290174Y325762D02*
G03*
X296457Y322736I6097J4625D01*
G01*
X290271Y325688D02*
G03*
X281693Y329653I-8805J-7785D01*
G01*
X261532Y341993D02*
G03*
X274182Y329653I12282J-63D01*
G01*
X561803Y665073D02*
X563022Y661886D01*
X276626Y672654D02*
X550785D01*
X573076Y654642D02*
X577020D01*
X610925D01*
X623365Y351914D02*
Y641708D01*
X577417Y337545D02*
X609105D01*
X296457Y322736D02*
X550000D01*
X274182Y329653D02*
X281693D01*
X261531Y656264D02*
X261532Y341993D01*
D114*
X442664Y377695D02*
G03*
X442719Y377695I28J28D01*
G01*
X443415Y378391D02*
G03*
X443415Y378447I-28J28D01*
G01*
X417664Y386799D02*
G03*
X417664Y386743I28J-28D01*
G01*
X418360Y386047D02*
G03*
X418416Y386047I28J28D01*
G01*
X402353Y402110D02*
G03*
X402353Y402054I28J-28D01*
G01*
X403049Y401358D02*
G03*
X403105Y401358I28J28D01*
G01*
X426768Y450772D02*
G03*
X426712Y450772I-28J-28D01*
G01*
X426016Y450076D02*
G03*
X426016Y450021I28J-28D01*
G01*
X418416Y442421D02*
G03*
X418360Y442421I-28J-28D01*
G01*
X417664Y441725D02*
G03*
X417664Y441669I28J-28D01*
G01*
X403105Y427109D02*
G03*
X403049Y427109I-28J-28D01*
G01*
X402353Y426413D02*
G03*
X402353Y426358I28J-28D01*
G01*
X451767Y441669D02*
G03*
X451767Y441725I-28J28D01*
G01*
X451071Y442421D02*
G03*
X451015Y442421I-28J-28D01*
G01*
X467078Y426358D02*
G03*
X467078Y426413I-28J28D01*
G01*
X466382Y427109D02*
G03*
X466327Y427109I-28J-28D01*
G01*
X466327Y401358D02*
G03*
X466382Y401358I28J28D01*
G01*
X467078Y402054D02*
G03*
X467078Y402110I-28J28D01*
G01*
X451015Y386047D02*
G03*
X451071Y386047I28J28D01*
G01*
X451767Y386743D02*
G03*
X451767Y386799I-28J28D01*
G01*
X426016Y378447D02*
G03*
X426016Y378391I28J-28D01*
G01*
X426712Y377695D02*
G03*
X426768Y377695I28J28D01*
G01*
X410705Y393758D02*
G03*
X410705Y393703I28J-28D01*
G01*
X411401Y393007D02*
G03*
X411456Y393007I28J28D01*
G01*
X395393Y409070D02*
G03*
X395393Y409014I28J-28D01*
G01*
X396089Y408318D02*
G03*
X396145Y408318I28J28D01*
G01*
X443415Y450021D02*
G03*
X443415Y450076I-28J28D01*
G01*
X442719Y450772D02*
G03*
X442664Y450772I-28J-28D01*
G01*
X410064Y434069D02*
G03*
X410009Y434069I-28J-28D01*
G01*
X409313Y433373D02*
G03*
X409313Y433317I28J-28D01*
G01*
X458727Y434709D02*
G03*
X458727Y434765I-28J28D01*
G01*
X458031Y435461D02*
G03*
X457975Y435461I-28J-28D01*
G01*
X474038Y419398D02*
G03*
X474038Y419454I-28J28D01*
G01*
X473342Y420150D02*
G03*
X473286Y420150I-28J-28D01*
G01*
X459367Y394399D02*
G03*
X459423Y394399I28J28D01*
G01*
X460119Y395095D02*
G03*
X460119Y395150I-28J28D01*
G01*
X444056Y379087D02*
G03*
X444111Y379087I28J28D01*
G01*
X444807Y379783D02*
G03*
X444807Y379839I-28J28D01*
G01*
X419056Y385407D02*
G03*
X419056Y385351I28J-28D01*
G01*
X419752Y384655D02*
G03*
X419808Y384655I28J28D01*
G01*
X403745Y400718D02*
G03*
X403745Y400663I28J-28D01*
G01*
X404441Y399967D02*
G03*
X404497Y399966I28J28D01*
G01*
X425376Y449380D02*
G03*
X425320Y449380I-28J-28D01*
G01*
X424624Y448684D02*
G03*
X424624Y448629I28J-28D01*
G01*
X417024Y441029D02*
G03*
X416968Y441029I-28J-28D01*
G01*
X416272Y440333D02*
G03*
X416272Y440277I28J-28D01*
G01*
X401713Y425717D02*
G03*
X401657Y425717I-28J-28D01*
G01*
X400961Y425022D02*
G03*
X400961Y424966I28J-28D01*
G01*
X450375Y443061D02*
G03*
X450375Y443117I-28J28D01*
G01*
X449679Y443813D02*
G03*
X449623Y443813I-28J-28D01*
G01*
X465686Y427750D02*
G03*
X465686Y427805I-28J28D01*
G01*
X464990Y428501D02*
G03*
X464935Y428501I-28J-28D01*
G01*
X467719Y402750D02*
G03*
X467774Y402750I28J28D01*
G01*
X468470Y403446D02*
G03*
X468470Y403502I-28J28D01*
G01*
X452407Y387439D02*
G03*
X452463Y387439I28J28D01*
G01*
X453159Y388135D02*
G03*
X453159Y388191I-28J28D01*
G01*
X427408Y377055D02*
G03*
X427408Y376999I28J-28D01*
G01*
X428104Y376303D02*
G03*
X428160Y376303I28J28D01*
G01*
X412097Y392366D02*
G03*
X412097Y392311I28J-28D01*
G01*
X412793Y391615D02*
G03*
X412848Y391615I28J28D01*
G01*
X396785Y407678D02*
G03*
X396785Y407622I28J-28D01*
G01*
X397481Y406926D02*
G03*
X397537Y406926I28J28D01*
G01*
X442023Y451413D02*
G03*
X442023Y451468I-28J28D01*
G01*
X441327Y452164D02*
G03*
X441272Y452164I-28J-28D01*
G01*
X408672Y432677D02*
G03*
X408617Y432677I-28J-28D01*
G01*
X407921Y431981D02*
G03*
X407921Y431925I28J-28D01*
G01*
X457335Y436101D02*
G03*
X457335Y436157I-28J28D01*
G01*
X456639Y436853D02*
G03*
X456583Y436853I-28J-28D01*
G01*
X472646Y420790D02*
G03*
X472646Y420846I-28J28D01*
G01*
X471950Y421542D02*
G03*
X471894Y421542I-28J-28D01*
G01*
X460759Y395791D02*
G03*
X460815Y395791I28J28D01*
G01*
X461511Y396487D02*
G03*
X461511Y396542I-28J28D01*
G01*
X445448Y380479D02*
G03*
X445503Y380479I28J28D01*
G01*
X446199Y381175D02*
G03*
X446199Y381231I-28J28D01*
G01*
X420448Y384015D02*
G03*
X420448Y383959I28J-28D01*
G01*
X421144Y383263D02*
G03*
X421200Y383263I28J28D01*
G01*
X405137Y399326D02*
G03*
X405137Y399271I28J-28D01*
G01*
X405833Y398574D02*
G03*
X405889Y398574I28J28D01*
G01*
X423984Y447989D02*
G03*
X423928Y447989I-28J-28D01*
G01*
X423232Y447293D02*
G03*
X423232Y447237I28J-28D01*
G01*
X415632Y439637D02*
G03*
X415577Y439637I-28J-28D01*
G01*
X414881Y438941D02*
G03*
X414881Y438885I28J-28D01*
G01*
X400321Y424326D02*
G03*
X400265Y424326I-28J-28D01*
G01*
X399569Y423630D02*
G03*
X399569Y423574I28J-28D01*
G01*
X448983Y444453D02*
G03*
X448983Y444509I-28J28D01*
G01*
X448287Y445205D02*
G03*
X448232Y445204I-28J-28D01*
G01*
X464294Y429142D02*
G03*
X464294Y429197I-28J28D01*
G01*
X463598Y429893D02*
G03*
X463543Y429893I-28J-28D01*
G01*
X469111Y404142D02*
G03*
X469166Y404142I28J28D01*
G01*
X469862Y404838D02*
G03*
X469862Y404894I-28J28D01*
G01*
X453799Y388831D02*
G03*
X453855Y388831I28J28D01*
G01*
X454551Y389527D02*
G03*
X454551Y389582I-28J28D01*
G01*
X428800Y375663D02*
G03*
X428800Y375607I28J-28D01*
G01*
X429496Y374911D02*
G03*
X429552Y374911I28J28D01*
G01*
X413488Y390974D02*
G03*
X413489Y390919I28J-28D01*
G01*
X414185Y390223D02*
G03*
X414240Y390223I28J28D01*
G01*
X398177Y406286D02*
G03*
X398177Y406230I28J-28D01*
G01*
X398873Y405534D02*
G03*
X398929Y405534I28J28D01*
G01*
X440631Y452805D02*
G03*
X440631Y452860I-28J28D01*
G01*
X439935Y453556D02*
G03*
X439880Y453556I-28J-28D01*
G01*
X407280Y431285D02*
G03*
X407225Y431285I-28J-28D01*
G01*
X406529Y430589D02*
G03*
X406529Y430534I28J-28D01*
G01*
X455943Y437493D02*
G03*
X455943Y437549I-28J28D01*
G01*
X455247Y438245D02*
G03*
X455191Y438245I-28J-28D01*
G01*
X457975Y393007D02*
G03*
X458031Y393007I28J28D01*
G01*
X458727Y393703D02*
G03*
X458727Y393758I-28J28D01*
G01*
X471254Y422182D02*
G03*
X471254Y422238I-28J28D01*
G01*
X470558Y422933D02*
G03*
X470503Y422933I-28J-28D01*
G01*
X462151Y397183D02*
G03*
X462207Y397183I28J28D01*
G01*
X462902Y397879D02*
G03*
X462902Y397934I-28J28D01*
G01*
X446840Y381871D02*
G03*
X446895Y381871I28J28D01*
G01*
X447591Y382567D02*
G03*
X447591Y382623I-28J28D01*
G01*
X421840D02*
G03*
X421840Y382567I28J-28D01*
G01*
X422536Y381871D02*
G03*
X422592Y381871I28J28D01*
G01*
X406529Y397934D02*
G03*
X406529Y397879I28J-28D01*
G01*
X407225Y397183D02*
G03*
X407280Y397182I28J28D01*
G01*
X422592Y446597D02*
G03*
X422536Y446597I-28J-28D01*
G01*
X421840Y445901D02*
G03*
X421840Y445845I28J-28D01*
G01*
X414240Y438245D02*
G03*
X414185Y438245I-28J-28D01*
G01*
X413488Y437549D02*
G03*
X413488Y437493I28J-28D01*
G01*
X398929Y422933D02*
G03*
X398873Y422933I-28J-28D01*
G01*
X398177Y422238D02*
G03*
X398177Y422182I28J-28D01*
G01*
X447591Y445845D02*
G03*
X447591Y445901I-28J28D01*
G01*
X446895Y446597D02*
G03*
X446840Y446596I-28J-28D01*
G01*
X462902Y430534D02*
G03*
X462902Y430589I-28J28D01*
G01*
X462207Y431285D02*
G03*
X462151Y431285I-28J-28D01*
G01*
X470503Y405534D02*
G03*
X470558Y405534I28J28D01*
G01*
X471254Y406230D02*
G03*
X471254Y406286I-28J28D01*
G01*
X455191Y390223D02*
G03*
X455247Y390223I28J28D01*
G01*
X455943Y390919D02*
G03*
X455943Y390974I-28J28D01*
G01*
X439880Y374911D02*
G03*
X439935Y374911I28J28D01*
G01*
X440631Y375607D02*
G03*
X440631Y375663I-28J28D01*
G01*
X414881Y389582D02*
G03*
X414881Y389527I28J-28D01*
G01*
X415577Y388831D02*
G03*
X415632Y388831I28J28D01*
G01*
X399569Y404894D02*
G03*
X399569Y404838I28J-28D01*
G01*
X400265Y404142D02*
G03*
X400321Y404142I28J28D01*
G01*
X429552Y453556D02*
G03*
X429496Y453556I-28J-28D01*
G01*
X428800Y452860D02*
G03*
X428800Y452805I28J-28D01*
G01*
X405889Y429893D02*
G03*
X405833Y429893I-28J-28D01*
G01*
X405137Y429197D02*
G03*
X405137Y429142I28J-28D01*
G01*
X454551Y438885D02*
G03*
X454551Y438941I-28J28D01*
G01*
X453855Y439637D02*
G03*
X453799Y439637I-28J-28D01*
G01*
X469862Y423574D02*
G03*
X469862Y423630I-28J28D01*
G01*
X469166Y424326D02*
G03*
X469110Y424326I-28J-28D01*
G01*
X463543Y398574D02*
G03*
X463598Y398574I28J28D01*
G01*
X464294Y399271D02*
G03*
X464294Y399326I-28J28D01*
G01*
X448232Y383263D02*
G03*
X448287Y383263I28J28D01*
G01*
X448983Y383959D02*
G03*
X448983Y384015I-28J28D01*
G01*
X423232Y381231D02*
G03*
X423232Y381175I28J-28D01*
G01*
X423928Y380479D02*
G03*
X423984Y380479I28J28D01*
G01*
X407921Y396542D02*
G03*
X407921Y396487I28J-28D01*
G01*
X408617Y395791D02*
G03*
X408672Y395791I28J28D01*
G01*
X421200Y445205D02*
G03*
X421144Y445205I-28J-28D01*
G01*
X420448Y444509D02*
G03*
X420448Y444453I28J-28D01*
G01*
X397537Y421542D02*
G03*
X397481Y421542I-28J-28D01*
G01*
X396785Y420846D02*
G03*
X396785Y420790I28J-28D01*
G01*
X446199Y447237D02*
G03*
X446199Y447293I-28J28D01*
G01*
X445503Y447989D02*
G03*
X445448Y447988I-28J-28D01*
G01*
X412848Y436853D02*
G03*
X412793Y436853I-28J-28D01*
G01*
X412097Y436157D02*
G03*
X412097Y436101I28J-28D01*
G01*
X461511Y431925D02*
G03*
X461511Y431981I-28J28D01*
G01*
X460815Y432677D02*
G03*
X460759Y432677I-28J-28D01*
G01*
X471895Y406926D02*
G03*
X471950Y406926I28J28D01*
G01*
X472646Y407622D02*
G03*
X472646Y407678I-28J28D01*
G01*
X456583Y391615D02*
G03*
X456639Y391615I28J28D01*
G01*
X457335Y392311D02*
G03*
X457335Y392366I-28J28D01*
G01*
X441272Y376303D02*
G03*
X441327Y376304I28J28D01*
G01*
X442023Y376999D02*
G03*
X442023Y377055I-28J28D01*
G01*
X416272Y388191D02*
G03*
X416272Y388135I28J-28D01*
G01*
X416968Y387439D02*
G03*
X417024Y387439I28J28D01*
G01*
X400961Y403502D02*
G03*
X400961Y403446I28J-28D01*
G01*
X401657Y402750D02*
G03*
X401713Y402750I28J28D01*
G01*
X428160Y452164D02*
G03*
X428104Y452164I-28J-28D01*
G01*
X427408Y451468D02*
G03*
X427408Y451413I28J-28D01*
G01*
X419808Y443813D02*
G03*
X419752Y443813I-28J-28D01*
G01*
X419056Y443117D02*
G03*
X419056Y443061I28J-28D01*
G01*
X404497Y428501D02*
G03*
X404441Y428501I-28J-28D01*
G01*
X403745Y427805D02*
G03*
X403745Y427750I28J-28D01*
G01*
X453159Y440277D02*
G03*
X453159Y440333I-28J28D01*
G01*
X452463Y441029D02*
G03*
X452407Y441029I-28J-28D01*
G01*
X468470Y424966D02*
G03*
X468470Y425022I-28J28D01*
G01*
X467774Y425717D02*
G03*
X467719Y425717I-28J-28D01*
G01*
X464935Y399967D02*
G03*
X464990Y399967I28J28D01*
G01*
X465686Y400663D02*
G03*
X465686Y400718I-28J28D01*
G01*
X449623Y384655D02*
G03*
X449679Y384655I28J28D01*
G01*
X450375Y385351D02*
G03*
X450375Y385407I-28J28D01*
G01*
X424624Y379839D02*
G03*
X424624Y379783I28J-28D01*
G01*
X425320Y379087D02*
G03*
X425376Y379087I28J28D01*
G01*
X409313Y395150D02*
G03*
X409313Y395095I28J-28D01*
G01*
X410009Y394399D02*
G03*
X410064Y394399I28J28D01*
G01*
X396145Y420150D02*
G03*
X396089Y420150I-28J-28D01*
G01*
X395393Y419454D02*
G03*
X395393Y419398I28J-28D01*
G01*
X444807Y448629D02*
G03*
X444807Y448684I-28J28D01*
G01*
X444111Y449380D02*
G03*
X444056Y449380I-28J-28D01*
G01*
X411456Y435461D02*
G03*
X411401Y435461I-28J-28D01*
G01*
X410705Y434765D02*
G03*
X410705Y434709I28J-28D01*
G01*
X460119Y433317D02*
G03*
X460119Y433373I-28J28D01*
G01*
X459423Y434069D02*
G03*
X459367Y434069I-28J-28D01*
G01*
X473286Y408318D02*
G03*
X473342Y408318I28J28D01*
G01*
X474038Y409014D02*
G03*
X474038Y409070I-28J28D01*
G01*
X433324Y385003D02*
G03*
X436108Y382219I1392J-1392D01*
G01*
D02*
G03*
X433324Y385003I-1392J1392D01*
G01*
X441728Y380134D02*
X442127Y379735D01*
X441218Y380644D02*
X441728Y380134D01*
X440659Y381203D02*
X441218Y380644D01*
X442719Y377695D02*
X443415Y378391D01*
X440466Y379893D02*
X440977Y379382D01*
X441652Y378707D02*
X442664Y377695D01*
X440977Y379382D02*
X441375Y378984D01*
X442127Y379735D02*
X442404Y379458D01*
X443415Y378447D01*
X441375Y378984D02*
X441652Y378707D01*
X439908Y380451D02*
X440466Y379893D01*
X419704Y387335D02*
X420103Y387734D01*
X420613Y388245D01*
X421172Y388803D01*
X417664Y386743D02*
X418360Y386047D01*
X419351Y388485D02*
X419862Y388996D01*
X417664Y386799D02*
X418676Y387810D01*
X418953Y388087D02*
X419351Y388485D01*
X419427Y387058D02*
X419704Y387335D01*
X418416Y386047D02*
X419427Y387058D01*
X418676Y387810D02*
X418953Y388087D01*
X419862Y388996D02*
X420420Y389555D01*
X404393Y402647D02*
X404791Y403045D01*
X405302Y403556D01*
X405861Y404114D01*
X402353Y402054D02*
X403049Y401358D01*
X404040Y403797D02*
X404551Y404308D01*
X402353Y402110D02*
X403364Y403121D01*
X403641Y403398D02*
X404040Y403797D01*
X404116Y402370D02*
X404393Y402647D01*
X403105Y401358D02*
X404116Y402370D01*
X403364Y403121D02*
X403641Y403398D01*
X404551Y404308D02*
X405109Y404866D01*
X427304Y448733D02*
X427703Y448334D01*
X428214Y447823D01*
X428772Y447265D01*
X426016Y450076D02*
X426712Y450772D01*
X428454Y449086D02*
X428965Y448575D01*
X426768Y450772D02*
X427779Y449761D01*
X428056Y449484D02*
X428454Y449086D01*
X427027Y449009D02*
X427304Y448733D01*
X426016Y450021D02*
X427027Y449009D01*
X427779Y449761D02*
X428056Y449484D01*
X428965Y448575D02*
X429524Y448016D01*
X418953Y440381D02*
X419351Y439982D01*
X419862Y439472D01*
X420420Y438913D01*
X417664Y441725D02*
X418360Y442421D01*
X420103Y440734D02*
X420613Y440223D01*
X418416Y442421D02*
X419427Y441409D01*
X419704Y441132D02*
X420103Y440734D01*
X418676Y440658D02*
X418953Y440381D01*
X417664Y441669D02*
X418676Y440658D01*
X419427Y441409D02*
X419704Y441132D01*
X420613Y440223D02*
X421172Y439665D01*
X403641Y425070D02*
X404040Y424671D01*
X404551Y424160D01*
X405109Y423602D01*
X402353Y426413D02*
X403049Y427109D01*
X404791Y425422D02*
X405302Y424912D01*
X403105Y427109D02*
X404116Y426098D01*
X404393Y425821D02*
X404791Y425422D01*
X403364Y425346D02*
X403641Y425070D01*
X402353Y426358D02*
X403364Y425346D01*
X404116Y426098D02*
X404393Y425821D01*
X405302Y424912D02*
X405861Y424353D01*
X449329Y440734D02*
X449727Y441132D01*
X448818Y440223D02*
X449329Y440734D01*
X448259Y439665D02*
X448818Y440223D01*
X451071Y442421D02*
X451767Y441725D01*
X449570Y439472D02*
X450080Y439982D01*
X450756Y440658D02*
X451767Y441669D01*
X450080Y439982D02*
X450479Y440381D01*
X449727Y441132D02*
X450004Y441409D01*
X451015Y442421D01*
X450479Y440381D02*
X450756Y440658D01*
X449011Y438913D02*
X449570Y439472D01*
X464640Y425422D02*
X465038Y425821D01*
X464129Y424912D02*
X464640Y425422D01*
X463571Y424353D02*
X464129Y424912D01*
X466382Y427109D02*
X467078Y426413D01*
X464881Y424160D02*
X465391Y424671D01*
X466067Y425346D02*
X467078Y426358D01*
X465391Y424671D02*
X465790Y425070D01*
X465038Y425821D02*
X465315Y426098D01*
X466327Y427109D01*
X465790Y425070D02*
X466067Y425346D01*
X464322Y423602D02*
X464881Y424160D01*
X465392Y403797D02*
X465790Y403398D01*
X464881Y404308D02*
X465392Y403797D01*
X464322Y404866D02*
X464881Y404308D01*
X466382Y401358D02*
X467078Y402054D01*
X464129Y403556D02*
X464640Y403045D01*
X465315Y402370D02*
X466327Y401358D01*
X464640Y403045D02*
X465038Y402647D01*
X465790Y403398D02*
X466067Y403121D01*
X467078Y402110D01*
X465038Y402647D02*
X465315Y402370D01*
X463571Y404114D02*
X464129Y403556D01*
X450080Y388485D02*
X450479Y388087D01*
X449570Y388996D02*
X450080Y388485D01*
X449011Y389555D02*
X449570Y388996D01*
X451071Y386047D02*
X451767Y386743D01*
X448818Y388245D02*
X449329Y387734D01*
X450004Y387058D02*
X451015Y386047D01*
X449329Y387734D02*
X449727Y387335D01*
X450479Y388087D02*
X450756Y387810D01*
X451767Y386799D01*
X449727Y387335D02*
X450004Y387058D01*
X448259Y388803D02*
X448818Y388245D01*
X428056Y378984D02*
X428454Y379382D01*
X428965Y379893D01*
X429524Y380451D01*
X426016Y378391D02*
X426712Y377695D01*
X427703Y380134D02*
X428214Y380644D01*
X426016Y378447D02*
X427027Y379458D01*
X427304Y379735D02*
X427703Y380134D01*
X427779Y378707D02*
X428056Y378984D01*
X426768Y377695D02*
X427779Y378707D01*
X427027Y379458D02*
X427304Y379735D01*
X428214Y380644D02*
X428772Y381203D01*
X412745Y394295D02*
X413143Y394693D01*
X413654Y395204D01*
X414212Y395763D01*
X410705Y393703D02*
X411401Y393007D01*
X412392Y395445D02*
X412902Y395956D01*
X410705Y393758D02*
X411716Y394770D01*
X411993Y395047D02*
X412392Y395445D01*
X412468Y394018D02*
X412745Y394295D01*
X411456Y393007D02*
X412468Y394018D01*
X411716Y394770D02*
X411993Y395047D01*
X412902Y395956D02*
X413461Y396514D01*
X397433Y409606D02*
X397832Y410005D01*
X398342Y410516D01*
X398901Y411074D01*
X395393Y409014D02*
X396089Y408318D01*
X397080Y410757D02*
X397591Y411267D01*
X395393Y409070D02*
X396405Y410081D01*
X396681Y410358D02*
X397080Y410757D01*
X397156Y409329D02*
X397433Y409606D01*
X396145Y408318D02*
X397156Y409329D01*
X396405Y410081D02*
X396681Y410358D01*
X397591Y411267D02*
X398149Y411826D01*
X440977Y449086D02*
X441375Y449484D01*
X440466Y448575D02*
X440977Y449086D01*
X439908Y448016D02*
X440466Y448575D01*
X442719Y450772D02*
X443415Y450076D01*
X441218Y447823D02*
X441728Y448334D01*
X442404Y449009D02*
X443415Y450021D01*
X441728Y448334D02*
X442127Y448733D01*
X441375Y449484D02*
X441652Y449761D01*
X442664Y450772D01*
X442127Y448733D02*
X442404Y449009D01*
X440659Y447265D02*
X441218Y447823D01*
X410601Y432029D02*
X410999Y431631D01*
X411510Y431120D01*
X412069Y430561D01*
X409313Y433373D02*
X410009Y434069D01*
X411751Y432382D02*
X412262Y431872D01*
X410064Y434069D02*
X411076Y433058D01*
X411353Y432781D02*
X411751Y432382D01*
X410324Y432306D02*
X410601Y432029D01*
X409313Y433317D02*
X410324Y432306D01*
X411076Y433058D02*
X411353Y432781D01*
X412262Y431872D02*
X412820Y431313D01*
X456288Y433774D02*
X456687Y434173D01*
X455778Y433264D02*
X456288Y433774D01*
X455219Y432705D02*
X455778Y433264D01*
X458031Y435461D02*
X458727Y434765D01*
X456529Y432512D02*
X457040Y433022D01*
X457715Y433698D02*
X458727Y434709D01*
X457040Y433022D02*
X457439Y433421D01*
X456687Y434173D02*
X456964Y434450D01*
X457975Y435461D01*
X457439Y433421D02*
X457715Y433698D01*
X455971Y431953D02*
X456529Y432512D01*
X471600Y418463D02*
X471998Y418861D01*
X471089Y417952D02*
X471600Y418463D01*
X470530Y417394D02*
X471089Y417952D01*
X473342Y420150D02*
X474038Y419454D01*
X471841Y417201D02*
X472351Y417711D01*
X473027Y418387D02*
X474038Y419398D01*
X472351Y417711D02*
X472750Y418110D01*
X471998Y418861D02*
X472275Y419138D01*
X473286Y420150D01*
X472750Y418110D02*
X473027Y418387D01*
X471282Y416642D02*
X471841Y417201D01*
X458432Y396837D02*
X458830Y396439D01*
X457921Y397348D02*
X458432Y396837D01*
X457363Y397906D02*
X457921Y397348D01*
X459423Y394399D02*
X460119Y395095D01*
X457169Y396596D02*
X457680Y396085D01*
X458356Y395410D02*
X459367Y394399D01*
X457680Y396085D02*
X458079Y395687D01*
X458830Y396439D02*
X459107Y396162D01*
X460119Y395150D01*
X458079Y395687D02*
X458356Y395410D01*
X456611Y397155D02*
X457169Y396596D01*
X443120Y381526D02*
X443519Y381127D01*
X442610Y382036D02*
X443120Y381526D01*
X442051Y382595D02*
X442610Y382036D01*
X444111Y379087D02*
X444807Y379783D01*
X441858Y381285D02*
X442369Y380774D01*
X443044Y380099D02*
X444056Y379087D01*
X442369Y380774D02*
X442767Y380376D01*
X443519Y381127D02*
X443796Y380850D01*
X444807Y379839D01*
X442767Y380376D02*
X443044Y380099D01*
X441299Y381843D02*
X441858Y381285D01*
X421096Y385943D02*
X421495Y386342D01*
X422005Y386853D01*
X422564Y387411D01*
X419056Y385351D02*
X419752Y384655D01*
X420743Y387093D02*
X421254Y387604D01*
X419056Y385407D02*
X420068Y386418D01*
X420345Y386695D02*
X420743Y387093D01*
X420819Y385666D02*
X421096Y385943D01*
X419808Y384655D02*
X420819Y385666D01*
X420068Y386418D02*
X420345Y386695D01*
X421254Y387604D02*
X421812Y388163D01*
X405785Y401255D02*
X406183Y401653D01*
X406694Y402164D01*
X407253Y402723D01*
X403745Y400663D02*
X404441Y399967D01*
X405432Y402405D02*
X405942Y402915D01*
X403745Y400718D02*
X404756Y401729D01*
X405033Y402006D02*
X405432Y402405D01*
X405508Y400978D02*
X405785Y401255D01*
X404497Y399966D02*
X405508Y400978D01*
X404756Y401729D02*
X405033Y402006D01*
X405942Y402915D02*
X406501Y403474D01*
X425912Y447341D02*
X426311Y446942D01*
X426822Y446431D01*
X427380Y445873D01*
X424624Y448684D02*
X425320Y449380D01*
X427063Y447694D02*
X427573Y447183D01*
X425376Y449380D02*
X426387Y448369D01*
X426664Y448092D02*
X427063Y447694D01*
X425635Y447617D02*
X425912Y447341D01*
X424624Y448629D02*
X425635Y447617D01*
X426387Y448369D02*
X426664Y448092D01*
X427573Y447183D02*
X428132Y446624D01*
X417561Y438989D02*
X417959Y438590D01*
X418470Y438080D01*
X419028Y437521D01*
X416272Y440333D02*
X416968Y441029D01*
X418711Y439342D02*
X419222Y438831D01*
X417024Y441029D02*
X418035Y440017D01*
X418312Y439741D02*
X418711Y439342D01*
X417284Y439266D02*
X417561Y438989D01*
X416272Y440277D02*
X417284Y439266D01*
X418035Y440017D02*
X418312Y439741D01*
X419222Y438831D02*
X419780Y438273D01*
X402249Y423677D02*
X402648Y423279D01*
X403159Y422768D01*
X403717Y422210D01*
X400961Y425022D02*
X401657Y425717D01*
X403400Y424031D02*
X403910Y423520D01*
X401713Y425717D02*
X402724Y424706D01*
X403001Y424429D02*
X403400Y424031D01*
X401972Y423954D02*
X402249Y423677D01*
X400961Y424966D02*
X401972Y423954D01*
X402724Y424706D02*
X403001Y424429D01*
X403910Y423520D02*
X404469Y422961D01*
X447937Y442126D02*
X448335Y442524D01*
X447426Y441615D02*
X447937Y442126D01*
X446867Y441057D02*
X447426Y441615D01*
X449679Y443813D02*
X450375Y443117D01*
X448178Y440864D02*
X448688Y441374D01*
X449364Y442050D02*
X450375Y443061D01*
X448688Y441374D02*
X449087Y441773D01*
X448335Y442524D02*
X448612Y442801D01*
X449623Y443813D01*
X449087Y441773D02*
X449364Y442050D01*
X447619Y440305D02*
X448178Y440864D01*
X463248Y426815D02*
X463647Y427213D01*
X462737Y426304D02*
X463248Y426815D01*
X462179Y425745D02*
X462737Y426304D01*
X464990Y428501D02*
X465686Y427805D01*
X463489Y425552D02*
X464000Y426063D01*
X464675Y426738D02*
X465686Y427750D01*
X464000Y426063D02*
X464398Y426461D01*
X463647Y427213D02*
X463923Y427490D01*
X464935Y428501D01*
X464398Y426461D02*
X464675Y426738D01*
X462930Y424994D02*
X463489Y425552D01*
X466784Y405189D02*
X467182Y404790D01*
X466273Y405699D02*
X466784Y405189D01*
X465714Y406258D02*
X466273Y405699D01*
X467774Y402750D02*
X468470Y403446D01*
X465521Y404948D02*
X466032Y404437D01*
X466707Y403762D02*
X467719Y402750D01*
X466032Y404437D02*
X466430Y404039D01*
X467182Y404790D02*
X467459Y404513D01*
X468470Y403502D01*
X466430Y404039D02*
X466707Y403762D01*
X464963Y405506D02*
X465521Y404948D01*
X451472Y389877D02*
X451871Y389479D01*
X450961Y390388D02*
X451472Y389877D01*
X450403Y390947D02*
X450961Y390388D01*
X452463Y387439D02*
X453159Y388135D01*
X450210Y389636D02*
X450721Y389126D01*
X451396Y388450D02*
X452407Y387439D01*
X450721Y389126D02*
X451119Y388727D01*
X451871Y389479D02*
X452148Y389202D01*
X453159Y388191D01*
X451119Y388727D02*
X451396Y388450D01*
X449651Y390195D02*
X450210Y389636D01*
X429448Y377592D02*
X429846Y377990D01*
X430357Y378501D01*
X430916Y379060D01*
X427408Y376999D02*
X428104Y376303D01*
X429095Y378742D02*
X429605Y379253D01*
X427408Y377055D02*
X428419Y378066D01*
X428696Y378343D02*
X429095Y378742D01*
X429171Y377315D02*
X429448Y377592D01*
X428160Y376303D02*
X429171Y377315D01*
X428419Y378066D02*
X428696Y378343D01*
X429605Y379253D02*
X430164Y379811D01*
X414137Y392903D02*
X414535Y393302D01*
X415046Y393812D01*
X415604Y394371D01*
X412097Y392311D02*
X412793Y391615D01*
X413783Y394053D02*
X414294Y394564D01*
X412097Y392366D02*
X413108Y393378D01*
X413385Y393655D02*
X413783Y394053D01*
X413860Y392626D02*
X414137Y392903D01*
X412848Y391615D02*
X413860Y392626D01*
X413108Y393378D02*
X413385Y393655D01*
X414294Y394564D02*
X414853Y395123D01*
X398825Y408214D02*
X399224Y408613D01*
X399734Y409124D01*
X400293Y409682D01*
X396785Y407622D02*
X397481Y406926D01*
X398472Y409365D02*
X398983Y409875D01*
X396785Y407678D02*
X397797Y408689D01*
X398074Y408966D02*
X398472Y409365D01*
X398548Y407937D02*
X398825Y408214D01*
X397537Y406926D02*
X398548Y407937D01*
X397797Y408689D02*
X398074Y408966D01*
X398983Y409875D02*
X399541Y410434D01*
X439585Y450478D02*
X439984Y450876D01*
X439074Y449967D02*
X439585Y450478D01*
X438516Y449408D02*
X439074Y449967D01*
X441327Y452164D02*
X442023Y451468D01*
X439826Y449215D02*
X440337Y449726D01*
X441012Y450401D02*
X442023Y451413D01*
X440337Y449726D02*
X440735Y450124D01*
X439984Y450876D02*
X440260Y451153D01*
X441272Y452164D01*
X440735Y450124D02*
X441012Y450401D01*
X439267Y448657D02*
X439826Y449215D01*
X409209Y430637D02*
X409608Y430239D01*
X410118Y429728D01*
X410677Y429169D01*
X407921Y431981D02*
X408617Y432677D01*
X410359Y430990D02*
X410870Y430480D01*
X408672Y432677D02*
X409684Y431666D01*
X409961Y431389D02*
X410359Y430990D01*
X408932Y430914D02*
X409209Y430637D01*
X407921Y431925D02*
X408932Y430914D01*
X409684Y431666D02*
X409961Y431389D01*
X410870Y430480D02*
X411428Y429921D01*
X454896Y435166D02*
X455295Y435565D01*
X454386Y434656D02*
X454896Y435166D01*
X453827Y434097D02*
X454386Y434656D01*
X456639Y436853D02*
X457335Y436157D01*
X455137Y433904D02*
X455648Y434414D01*
X456323Y435090D02*
X457335Y436101D01*
X455648Y434414D02*
X456046Y434813D01*
X455295Y435565D02*
X455572Y435842D01*
X456583Y436853D01*
X456046Y434813D02*
X456323Y435090D01*
X454579Y433345D02*
X455137Y433904D01*
X470208Y419855D02*
X470606Y420253D01*
X469697Y419344D02*
X470208Y419855D01*
X469138Y418785D02*
X469697Y419344D01*
X471950Y421542D02*
X472646Y420846D01*
X470449Y418593D02*
X470959Y419103D01*
X471635Y419779D02*
X472646Y420790D01*
X470959Y419103D02*
X471358Y419502D01*
X470606Y420253D02*
X470883Y420530D01*
X471894Y421542D01*
X471358Y419502D02*
X471635Y419779D01*
X469890Y418034D02*
X470449Y418593D01*
X459824Y398229D02*
X460222Y397831D01*
X459313Y398740D02*
X459824Y398229D01*
X458754Y399298D02*
X459313Y398740D01*
X460815Y395791D02*
X461511Y396487D01*
X458561Y397988D02*
X459072Y397477D01*
X459748Y396802D02*
X460759Y395791D01*
X459072Y397477D02*
X459471Y397079D01*
X460222Y397831D02*
X460499Y397553D01*
X461511Y396542D01*
X459471Y397079D02*
X459748Y396802D01*
X458003Y398547D02*
X458561Y397988D01*
X444512Y382918D02*
X444911Y382519D01*
X444002Y383428D02*
X444512Y382918D01*
X443443Y383987D02*
X444002Y383428D01*
X445503Y380479D02*
X446199Y381175D01*
X443250Y382677D02*
X443761Y382166D01*
X444436Y381490D02*
X445448Y380479D01*
X443761Y382166D02*
X444159Y381768D01*
X444911Y382519D02*
X445188Y382242D01*
X446199Y381231D01*
X444159Y381768D02*
X444436Y381490D01*
X442692Y383235D02*
X443250Y382677D01*
X422488Y384551D02*
X422887Y384950D01*
X423397Y385461D01*
X423956Y386019D01*
X420448Y383959D02*
X421144Y383263D01*
X422135Y385702D02*
X422646Y386212D01*
X420448Y384015D02*
X421459Y385026D01*
X421736Y385303D02*
X422135Y385702D01*
X422211Y384274D02*
X422488Y384551D01*
X421200Y383263D02*
X422211Y384274D01*
X421459Y385026D02*
X421736Y385303D01*
X422646Y386212D02*
X423204Y386771D01*
X407177Y399863D02*
X407575Y400261D01*
X408086Y400772D01*
X408645Y401331D01*
X405137Y399271D02*
X405833Y398574D01*
X406824Y401013D02*
X407334Y401524D01*
X405137Y399326D02*
X406148Y400337D01*
X406425Y400614D02*
X406824Y401013D01*
X406900Y399586D02*
X407177Y399863D01*
X405889Y398574D02*
X406900Y399586D01*
X406148Y400337D02*
X406425Y400614D01*
X407334Y401524D02*
X407893Y402082D01*
X424520Y445949D02*
X424919Y445550D01*
X425430Y445039D01*
X425988Y444481D01*
X423232Y447293D02*
X423928Y447989D01*
X425671Y446302D02*
X426181Y445791D01*
X423984Y447989D02*
X424995Y446977D01*
X425272Y446700D02*
X425671Y446302D01*
X424243Y446226D02*
X424520Y445949D01*
X423232Y447237D02*
X424243Y446226D01*
X424995Y446977D02*
X425272Y446700D01*
X426181Y445791D02*
X426740Y445232D01*
X416169Y437597D02*
X416567Y437198D01*
X417078Y436688D01*
X417636Y436129D01*
X414881Y438941D02*
X415577Y439637D01*
X417319Y437950D02*
X417830Y437439D01*
X415632Y439637D02*
X416643Y438625D01*
X416920Y438349D02*
X417319Y437950D01*
X415892Y437874D02*
X416169Y437597D01*
X414881Y438885D02*
X415892Y437874D01*
X416643Y438625D02*
X416920Y438349D01*
X417830Y437439D02*
X418388Y436881D01*
X400857Y422286D02*
X401256Y421887D01*
X401767Y421376D01*
X402325Y420818D01*
X399569Y423630D02*
X400265Y424326D01*
X402008Y422639D02*
X402518Y422128D01*
X400321Y424326D02*
X401332Y423314D01*
X401609Y423037D02*
X402008Y422639D01*
X400581Y422563D02*
X400857Y422286D01*
X399569Y423574D02*
X400581Y422563D01*
X401332Y423314D02*
X401609Y423037D01*
X402518Y422128D02*
X403077Y421569D01*
X446545Y443518D02*
X446943Y443916D01*
X446034Y443007D02*
X446545Y443518D01*
X445475Y442449D02*
X446034Y443007D01*
X448287Y445205D02*
X448983Y444509D01*
X446786Y442255D02*
X447296Y442766D01*
X447972Y443442D02*
X448983Y444453D01*
X447296Y442766D02*
X447695Y443165D01*
X446943Y443916D02*
X447220Y444193D01*
X448232Y445204D01*
X447695Y443165D02*
X447972Y443442D01*
X446227Y441697D02*
X446786Y442255D01*
X461856Y428206D02*
X462255Y428605D01*
X461345Y427696D02*
X461856Y428206D01*
X460787Y427137D02*
X461345Y427696D01*
X463598Y429893D02*
X464294Y429197D01*
X462097Y426944D02*
X462608Y427455D01*
X463283Y428130D02*
X464294Y429142D01*
X462608Y427455D02*
X463006Y427853D01*
X462255Y428605D02*
X462532Y428882D01*
X463543Y429893D01*
X463006Y427853D02*
X463283Y428130D01*
X461538Y426385D02*
X462097Y426944D01*
X468176Y406581D02*
X468574Y406182D01*
X467665Y407091D02*
X468176Y406581D01*
X467106Y407650D02*
X467665Y407091D01*
X469166Y404142D02*
X469862Y404838D01*
X466913Y406340D02*
X467424Y405829D01*
X468099Y405154D02*
X469111Y404142D01*
X467424Y405829D02*
X467822Y405431D01*
X468574Y406182D02*
X468851Y405905D01*
X469862Y404894D01*
X467822Y405431D02*
X468099Y405154D01*
X466355Y406898D02*
X466913Y406340D01*
X452864Y391269D02*
X453263Y390871D01*
X452353Y391780D02*
X452864Y391269D01*
X451795Y392339D02*
X452353Y391780D01*
X453855Y388831D02*
X454551Y389527D01*
X451602Y391028D02*
X452112Y390518D01*
X452788Y389842D02*
X453799Y388831D01*
X452112Y390518D02*
X452511Y390119D01*
X453263Y390871D02*
X453540Y390594D01*
X454551Y389582D01*
X452511Y390119D02*
X452788Y389842D01*
X451043Y391587D02*
X451602Y391028D01*
X430840Y376200D02*
X431238Y376598D01*
X431749Y377109D01*
X432308Y377668D01*
X428800Y375607D02*
X429496Y374911D01*
X430487Y377350D02*
X430997Y377861D01*
X428800Y375663D02*
X429811Y376674D01*
X430088Y376951D02*
X430487Y377350D01*
X430563Y375923D02*
X430840Y376200D01*
X429552Y374911D02*
X430563Y375923D01*
X429811Y376674D02*
X430088Y376951D01*
X430997Y377861D02*
X431556Y378419D01*
X415528Y391511D02*
X415927Y391910D01*
X416438Y392420D01*
X416996Y392979D01*
X413489Y390919D02*
X414185Y390223D01*
X415175Y392661D02*
X415686Y393172D01*
X413488Y390974D02*
X414500Y391986D01*
X414777Y392263D02*
X415175Y392661D01*
X415251Y391234D02*
X415528Y391511D01*
X414240Y390223D02*
X415251Y391234D01*
X414500Y391986D02*
X414777Y392263D01*
X415686Y393172D02*
X416245Y393730D01*
X400217Y406822D02*
X400616Y407221D01*
X401126Y407732D01*
X401685Y408290D01*
X398177Y406230D02*
X398873Y405534D01*
X399864Y407973D02*
X400375Y408483D01*
X398177Y406286D02*
X399188Y407297D01*
X399465Y407574D02*
X399864Y407973D01*
X399940Y406545D02*
X400217Y406822D01*
X398929Y405534D02*
X399940Y406545D01*
X399188Y407297D02*
X399465Y407574D01*
X400375Y408483D02*
X400933Y409042D01*
X438193Y451869D02*
X438591Y452268D01*
X437682Y451359D02*
X438193Y451869D01*
X437124Y450800D02*
X437682Y451359D01*
X439935Y453556D02*
X440631Y452860D01*
X438434Y450607D02*
X438945Y451118D01*
X439620Y451793D02*
X440631Y452805D01*
X438945Y451118D02*
X439343Y451516D01*
X438591Y452268D02*
X438869Y452545D01*
X439880Y453556D01*
X439343Y451516D02*
X439620Y451793D01*
X437875Y450049D02*
X438434Y450607D01*
X407817Y429245D02*
X408216Y428847D01*
X408726Y428336D01*
X409285Y427777D01*
X406529Y430589D02*
X407225Y431285D01*
X408967Y429598D02*
X409478Y429088D01*
X407280Y431285D02*
X408292Y430274D01*
X408569Y429997D02*
X408967Y429598D01*
X407540Y429522D02*
X407817Y429245D01*
X406529Y430534D02*
X407540Y429522D01*
X408292Y430274D02*
X408569Y429997D01*
X409478Y429088D02*
X410037Y428529D01*
X453504Y436558D02*
X453903Y436957D01*
X452994Y436047D02*
X453504Y436558D01*
X452435Y435489D02*
X452994Y436047D01*
X455247Y438245D02*
X455943Y437549D01*
X453745Y435296D02*
X454256Y435806D01*
X454931Y436482D02*
X455943Y437493D01*
X454256Y435806D02*
X454655Y436205D01*
X453903Y436957D02*
X454180Y437233D01*
X455191Y438245D01*
X454655Y436205D02*
X454931Y436482D01*
X453187Y434737D02*
X453745Y435296D01*
X457040Y395445D02*
X457438Y395047D01*
X456529Y395956D02*
X457040Y395445D01*
X455971Y396514D02*
X456529Y395956D01*
X458031Y393007D02*
X458727Y393703D01*
X455778Y395204D02*
X456288Y394693D01*
X456964Y394018D02*
X457975Y393007D01*
X456288Y394693D02*
X456687Y394295D01*
X457438Y395047D02*
X457715Y394770D01*
X458727Y393758D01*
X456687Y394295D02*
X456964Y394018D01*
X455219Y395763D02*
X455778Y395204D01*
X468816Y421247D02*
X469214Y421645D01*
X468305Y420736D02*
X468816Y421247D01*
X467746Y420178D02*
X468305Y420736D01*
X470558Y422933D02*
X471254Y422238D01*
X469057Y419984D02*
X469567Y420495D01*
X470243Y421171D02*
X471254Y422182D01*
X469567Y420495D02*
X469966Y420894D01*
X469214Y421645D02*
X469491Y421922D01*
X470503Y422933D01*
X469966Y420894D02*
X470243Y421171D01*
X468498Y419426D02*
X469057Y419984D01*
X461216Y399621D02*
X461614Y399222D01*
X460705Y400132D02*
X461216Y399621D01*
X460146Y400690D02*
X460705Y400132D01*
X462207Y397183D02*
X462902Y397879D01*
X459953Y399380D02*
X460464Y398869D01*
X461140Y398194D02*
X462151Y397183D01*
X460464Y398869D02*
X460863Y398471D01*
X461614Y399222D02*
X461891Y398945D01*
X462902Y397934D01*
X460863Y398471D02*
X461140Y398194D01*
X459395Y399939D02*
X459953Y399380D01*
X445904Y384310D02*
X446303Y383911D01*
X445394Y384820D02*
X445904Y384310D01*
X444835Y385379D02*
X445394Y384820D01*
X446895Y381871D02*
X447591Y382567D01*
X444642Y384069D02*
X445153Y383558D01*
X445828Y382882D02*
X446840Y381871D01*
X445153Y383558D02*
X445551Y383159D01*
X446303Y383911D02*
X446580Y383634D01*
X447591Y382623D01*
X445551Y383159D02*
X445828Y382882D01*
X444083Y384627D02*
X444642Y384069D01*
X423880Y383159D02*
X424279Y383558D01*
X424789Y384069D01*
X425348Y384627D01*
X421840Y382567D02*
X422536Y381871D01*
X423527Y384310D02*
X424038Y384820D01*
X421840Y382623D02*
X422852Y383634D01*
X423128Y383911D02*
X423527Y384310D01*
X423603Y382882D02*
X423880Y383159D01*
X422592Y381871D02*
X423603Y382882D01*
X422852Y383634D02*
X423128Y383911D01*
X424038Y384820D02*
X424596Y385379D01*
X408569Y398471D02*
X408967Y398869D01*
X409478Y399380D01*
X410037Y399939D01*
X406529Y397879D02*
X407225Y397183D01*
X408216Y399621D02*
X408726Y400132D01*
X406529Y397934D02*
X407540Y398945D01*
X407817Y399222D02*
X408216Y399621D01*
X408292Y398194D02*
X408569Y398471D01*
X407280Y397182D02*
X408292Y398194D01*
X407540Y398945D02*
X407817Y399222D01*
X408726Y400132D02*
X409285Y400690D01*
X423128Y444557D02*
X423527Y444158D01*
X424038Y443647D01*
X424596Y443089D01*
X421840Y445901D02*
X422536Y446597D01*
X424279Y444910D02*
X424789Y444399D01*
X422592Y446597D02*
X423603Y445585D01*
X423880Y445308D02*
X424279Y444910D01*
X422852Y444834D02*
X423128Y444557D01*
X421840Y445845D02*
X422852Y444834D01*
X423603Y445585D02*
X423880Y445308D01*
X424789Y444399D02*
X425348Y443841D01*
X414777Y436205D02*
X415175Y435806D01*
X415686Y435296D01*
X416245Y434737D01*
X413488Y437549D02*
X414185Y438245D01*
X415927Y436558D02*
X416438Y436047D01*
X414240Y438245D02*
X415251Y437233D01*
X415528Y436957D02*
X415927Y436558D01*
X414500Y436482D02*
X414777Y436205D01*
X413488Y437493D02*
X414500Y436482D01*
X415251Y437233D02*
X415528Y436957D01*
X416438Y436047D02*
X416996Y435489D01*
X399465Y420894D02*
X399864Y420495D01*
X400375Y419984D01*
X400933Y419426D01*
X398177Y422238D02*
X398873Y422933D01*
X400616Y421247D02*
X401126Y420736D01*
X398929Y422933D02*
X399940Y421922D01*
X400217Y421645D02*
X400616Y421247D01*
X399188Y421171D02*
X399465Y420894D01*
X398177Y422182D02*
X399188Y421171D01*
X399940Y421922D02*
X400217Y421645D01*
X401126Y420736D02*
X401685Y420178D01*
X445153Y444910D02*
X445551Y445308D01*
X444642Y444399D02*
X445153Y444910D01*
X444083Y443841D02*
X444642Y444399D01*
X446895Y446597D02*
X447591Y445901D01*
X445394Y443647D02*
X445904Y444158D01*
X446580Y444834D02*
X447591Y445845D01*
X445904Y444158D02*
X446303Y444557D01*
X445551Y445308D02*
X445828Y445585D01*
X446840Y446596D01*
X446303Y444557D02*
X446580Y444834D01*
X444835Y443089D02*
X445394Y443647D01*
X460464Y429598D02*
X460863Y429997D01*
X459953Y429088D02*
X460464Y429598D01*
X459395Y428529D02*
X459953Y429088D01*
X462207Y431285D02*
X462902Y430589D01*
X460705Y428336D02*
X461216Y428847D01*
X461891Y429522D02*
X462902Y430534D01*
X461216Y428847D02*
X461614Y429245D01*
X460863Y429997D02*
X461140Y430274D01*
X462151Y431285D01*
X461614Y429245D02*
X461891Y429522D01*
X460147Y427777D02*
X460705Y428336D01*
X469567Y407973D02*
X469966Y407574D01*
X469057Y408483D02*
X469567Y407973D01*
X468498Y409042D02*
X469057Y408483D01*
X470558Y405534D02*
X471254Y406230D01*
X468305Y407732D02*
X468816Y407221D01*
X469491Y406545D02*
X470503Y405534D01*
X468816Y407221D02*
X469214Y406822D01*
X469966Y407574D02*
X470243Y407297D01*
X471254Y406286D01*
X469214Y406822D02*
X469491Y406545D01*
X467746Y408290D02*
X468305Y407732D01*
X454256Y392661D02*
X454655Y392263D01*
X453745Y393172D02*
X454256Y392661D01*
X453187Y393731D02*
X453745Y393172D01*
X455247Y390223D02*
X455943Y390919D01*
X452994Y392420D02*
X453504Y391910D01*
X454180Y391234D02*
X455191Y390223D01*
X453504Y391910D02*
X453903Y391511D01*
X454655Y392263D02*
X454931Y391986D01*
X455943Y390974D01*
X453903Y391511D02*
X454180Y391234D01*
X452435Y392979D02*
X452994Y392420D01*
X438945Y377350D02*
X439343Y376951D01*
X438434Y377861D02*
X438945Y377350D01*
X437875Y378419D02*
X438434Y377861D01*
X439935Y374911D02*
X440631Y375607D01*
X437682Y377109D02*
X438193Y376598D01*
X438869Y375923D02*
X439880Y374911D01*
X438193Y376598D02*
X438591Y376200D01*
X439343Y376951D02*
X439620Y376674D01*
X440631Y375663D01*
X438591Y376200D02*
X438869Y375923D01*
X437124Y377668D02*
X437682Y377109D01*
X416920Y390119D02*
X417319Y390518D01*
X417830Y391028D01*
X418388Y391587D01*
X414881Y389527D02*
X415577Y388831D01*
X416567Y391269D02*
X417078Y391780D01*
X414881Y389582D02*
X415892Y390594D01*
X416169Y390871D02*
X416567Y391269D01*
X416643Y389842D02*
X416920Y390119D01*
X415632Y388831D02*
X416643Y389842D01*
X415892Y390594D02*
X416169Y390871D01*
X417078Y391780D02*
X417637Y392339D01*
X401609Y405431D02*
X402007Y405829D01*
X402518Y406340D01*
X403077Y406898D01*
X399569Y404838D02*
X400265Y404142D01*
X401256Y406581D02*
X401767Y407091D01*
X399569Y404894D02*
X400581Y405905D01*
X400857Y406182D02*
X401256Y406581D01*
X401332Y405154D02*
X401609Y405431D01*
X400321Y404142D02*
X401332Y405154D01*
X400581Y405905D02*
X400857Y406182D01*
X401767Y407091D02*
X402325Y407650D01*
X430088Y451516D02*
X430487Y451118D01*
X430997Y450607D01*
X431556Y450049D01*
X428800Y452860D02*
X429496Y453556D01*
X431238Y451869D02*
X431749Y451359D01*
X429552Y453556D02*
X430563Y452545D01*
X430840Y452268D02*
X431238Y451869D01*
X429811Y451793D02*
X430088Y451516D01*
X428800Y452805D02*
X429811Y451793D01*
X430563Y452545D02*
X430840Y452268D01*
X431749Y451359D02*
X432308Y450800D01*
X406425Y427853D02*
X406824Y427455D01*
X407334Y426944D01*
X407893Y426385D01*
X405137Y429197D02*
X405833Y429893D01*
X407575Y428206D02*
X408086Y427696D01*
X405889Y429893D02*
X406900Y428882D01*
X407177Y428605D02*
X407575Y428206D01*
X406148Y428130D02*
X406425Y427853D01*
X405137Y429142D02*
X406148Y428130D01*
X406900Y428882D02*
X407177Y428605D01*
X408086Y427696D02*
X408645Y427137D01*
X452112Y437950D02*
X452511Y438349D01*
X451602Y437439D02*
X452112Y437950D01*
X451043Y436881D02*
X451602Y437439D01*
X453855Y439637D02*
X454551Y438941D01*
X452353Y436688D02*
X452864Y437198D01*
X453540Y437874D02*
X454551Y438885D01*
X452864Y437198D02*
X453263Y437597D01*
X452511Y438349D02*
X452788Y438625D01*
X453799Y439637D01*
X453263Y437597D02*
X453540Y437874D01*
X451795Y436129D02*
X452353Y436688D01*
X467424Y422639D02*
X467822Y423037D01*
X466913Y422128D02*
X467424Y422639D01*
X466355Y421569D02*
X466913Y422128D01*
X469166Y424326D02*
X469862Y423630D01*
X467665Y421376D02*
X468175Y421887D01*
X468851Y422563D02*
X469862Y423574D01*
X468175Y421887D02*
X468574Y422286D01*
X467822Y423037D02*
X468099Y423314D01*
X469110Y424326D01*
X468574Y422286D02*
X468851Y422563D01*
X467106Y420818D02*
X467665Y421376D01*
X462608Y401013D02*
X463006Y400614D01*
X462097Y401524D02*
X462608Y401013D01*
X461538Y402082D02*
X462097Y401524D01*
X463598Y398574D02*
X464294Y399271D01*
X461345Y400772D02*
X461856Y400261D01*
X462532Y399586D02*
X463543Y398574D01*
X461856Y400261D02*
X462255Y399863D01*
X463006Y400614D02*
X463283Y400337D01*
X464294Y399326D01*
X462255Y399863D02*
X462532Y399586D01*
X460787Y401331D02*
X461345Y400772D01*
X447296Y385702D02*
X447695Y385303D01*
X446786Y386212D02*
X447296Y385702D01*
X446227Y386771D02*
X446786Y386212D01*
X448287Y383263D02*
X448983Y383959D01*
X446034Y385461D02*
X446545Y384950D01*
X447220Y384274D02*
X448232Y383263D01*
X446545Y384950D02*
X446943Y384551D01*
X447695Y385303D02*
X447972Y385026D01*
X448983Y384015D01*
X446943Y384551D02*
X447220Y384274D01*
X445475Y386019D02*
X446034Y385461D01*
X425272Y381768D02*
X425671Y382166D01*
X426181Y382677D01*
X426740Y383235D01*
X423232Y381175D02*
X423928Y380479D01*
X424919Y382918D02*
X425430Y383428D01*
X423232Y381231D02*
X424243Y382242D01*
X424520Y382519D02*
X424919Y382918D01*
X424995Y381490D02*
X425272Y381768D01*
X423984Y380479D02*
X424995Y381490D01*
X424243Y382242D02*
X424520Y382519D01*
X425430Y383428D02*
X425988Y383987D01*
X409961Y397079D02*
X410359Y397477D01*
X410870Y397988D01*
X411428Y398547D01*
X407921Y396487D02*
X408617Y395791D01*
X409608Y398229D02*
X410118Y398740D01*
X407921Y396542D02*
X408932Y397553D01*
X409209Y397831D02*
X409608Y398229D01*
X409684Y396802D02*
X409961Y397079D01*
X408672Y395791D02*
X409684Y396802D01*
X408932Y397553D02*
X409209Y397831D01*
X410118Y398740D02*
X410677Y399298D01*
X421736Y443165D02*
X422135Y442766D01*
X422646Y442255D01*
X423204Y441697D01*
X420448Y444509D02*
X421144Y445205D01*
X422887Y443518D02*
X423397Y443007D01*
X421200Y445205D02*
X422211Y444193D01*
X422488Y443916D02*
X422887Y443518D01*
X421460Y443442D02*
X421736Y443165D01*
X420448Y444453D02*
X421460Y443442D01*
X422211Y444193D02*
X422488Y443916D01*
X423397Y443007D02*
X423956Y442449D01*
X398074Y419502D02*
X398472Y419103D01*
X398983Y418592D01*
X399541Y418034D01*
X396785Y420846D02*
X397481Y421542D01*
X399224Y419855D02*
X399734Y419344D01*
X397537Y421542D02*
X398548Y420530D01*
X398825Y420253D02*
X399224Y419855D01*
X397797Y419779D02*
X398074Y419502D01*
X396785Y420790D02*
X397797Y419779D01*
X398548Y420530D02*
X398825Y420253D01*
X399734Y419344D02*
X400293Y418785D01*
X443761Y446302D02*
X444159Y446700D01*
X443250Y445791D02*
X443761Y446302D01*
X442692Y445232D02*
X443250Y445791D01*
X445503Y447989D02*
X446199Y447293D01*
X444002Y445039D02*
X444512Y445550D01*
X445188Y446226D02*
X446199Y447237D01*
X444512Y445550D02*
X444911Y445949D01*
X444159Y446700D02*
X444436Y446977D01*
X445448Y447988D01*
X444911Y445949D02*
X445188Y446226D01*
X443443Y444481D02*
X444002Y445039D01*
X413385Y434813D02*
X413783Y434414D01*
X414294Y433904D01*
X414853Y433345D01*
X412097Y436157D02*
X412793Y436853D01*
X414535Y435166D02*
X415046Y434655D01*
X412848Y436853D02*
X413860Y435842D01*
X414137Y435565D02*
X414535Y435166D01*
X413108Y435090D02*
X413385Y434813D01*
X412097Y436101D02*
X413108Y435090D01*
X413860Y435842D02*
X414137Y435565D01*
X415046Y434655D02*
X415604Y434097D01*
X459072Y430990D02*
X459471Y431389D01*
X458562Y430480D02*
X459072Y430990D01*
X458003Y429921D02*
X458562Y430480D01*
X460815Y432677D02*
X461511Y431981D01*
X459313Y429728D02*
X459824Y430239D01*
X460499Y430914D02*
X461511Y431925D01*
X459824Y430239D02*
X460222Y430637D01*
X459471Y431389D02*
X459748Y431666D01*
X460759Y432677D01*
X460222Y430637D02*
X460499Y430914D01*
X458755Y429169D02*
X459313Y429728D01*
X470959Y409365D02*
X471358Y408966D01*
X470449Y409875D02*
X470959Y409365D01*
X469890Y410434D02*
X470449Y409875D01*
X471950Y406926D02*
X472646Y407622D01*
X469697Y409124D02*
X470208Y408613D01*
X470883Y407937D02*
X471895Y406926D01*
X470208Y408613D02*
X470606Y408214D01*
X471358Y408966D02*
X471635Y408689D01*
X472646Y407678D01*
X470606Y408214D02*
X470883Y407937D01*
X469138Y409682D02*
X469697Y409124D01*
X455648Y394053D02*
X456046Y393655D01*
X455137Y394564D02*
X455648Y394053D01*
X454579Y395123D02*
X455137Y394564D01*
X456639Y391615D02*
X457335Y392311D01*
X454386Y393812D02*
X454896Y393302D01*
X455572Y392626D02*
X456583Y391615D01*
X454896Y393302D02*
X455295Y392903D01*
X456046Y393655D02*
X456323Y393378D01*
X457335Y392366D01*
X455295Y392903D02*
X455572Y392626D01*
X453827Y394371D02*
X454386Y393812D01*
X440337Y378742D02*
X440735Y378343D01*
X439826Y379253D02*
X440337Y378742D01*
X439267Y379811D02*
X439826Y379253D01*
X441327Y376304D02*
X442023Y376999D01*
X439074Y378501D02*
X439585Y377990D01*
X440261Y377315D02*
X441272Y376303D01*
X439585Y377990D02*
X439984Y377592D01*
X440735Y378343D02*
X441012Y378066D01*
X442023Y377055D01*
X439984Y377592D02*
X440261Y377315D01*
X438516Y379060D02*
X439074Y378501D01*
X418312Y388727D02*
X418711Y389126D01*
X419222Y389636D01*
X419780Y390195D01*
X416272Y388135D02*
X416968Y387439D01*
X417959Y389877D02*
X418470Y390388D01*
X416272Y388191D02*
X417284Y389202D01*
X417561Y389479D02*
X417959Y389877D01*
X418035Y388450D02*
X418312Y388727D01*
X417024Y387439D02*
X418035Y388450D01*
X417284Y389202D02*
X417561Y389479D01*
X418470Y390388D02*
X419029Y390947D01*
X403001Y404039D02*
X403400Y404437D01*
X403910Y404948D01*
X404469Y405506D01*
X400961Y403446D02*
X401657Y402750D01*
X402648Y405189D02*
X403159Y405699D01*
X400961Y403502D02*
X401972Y404513D01*
X402249Y404790D02*
X402648Y405189D01*
X402724Y403762D02*
X403001Y404039D01*
X401713Y402750D02*
X402724Y403762D01*
X401972Y404513D02*
X402249Y404790D01*
X403159Y405699D02*
X403717Y406258D01*
X428696Y450124D02*
X429095Y449726D01*
X429605Y449215D01*
X430164Y448657D01*
X427408Y451468D02*
X428104Y452164D01*
X429846Y450478D02*
X430357Y449967D01*
X428160Y452164D02*
X429171Y451153D01*
X429448Y450876D02*
X429846Y450478D01*
X428419Y450401D02*
X428696Y450124D01*
X427408Y451413D02*
X428419Y450401D01*
X429171Y451153D02*
X429448Y450876D01*
X430357Y449967D02*
X430916Y449408D01*
X420345Y441773D02*
X420743Y441374D01*
X421254Y440864D01*
X421812Y440305D01*
X419056Y443117D02*
X419752Y443813D01*
X421495Y442126D02*
X422005Y441615D01*
X419808Y443813D02*
X420819Y442801D01*
X421096Y442524D02*
X421495Y442126D01*
X420068Y442050D02*
X420345Y441773D01*
X419056Y443061D02*
X420068Y442050D01*
X420819Y442801D02*
X421096Y442524D01*
X422005Y441615D02*
X422564Y441057D01*
X405033Y426461D02*
X405432Y426063D01*
X405942Y425552D01*
X406501Y424994D01*
X403745Y427805D02*
X404441Y428501D01*
X406183Y426815D02*
X406694Y426304D01*
X404497Y428501D02*
X405508Y427490D01*
X405785Y427213D02*
X406183Y426815D01*
X404756Y426738D02*
X405033Y426461D01*
X403745Y427750D02*
X404756Y426738D01*
X405508Y427490D02*
X405785Y427213D01*
X406694Y426304D02*
X407253Y425745D01*
X450721Y439342D02*
X451119Y439741D01*
X450210Y438831D02*
X450721Y439342D01*
X449651Y438273D02*
X450210Y438831D01*
X452463Y441029D02*
X453159Y440333D01*
X450961Y438080D02*
X451472Y438590D01*
X452148Y439266D02*
X453159Y440277D01*
X451472Y438590D02*
X451871Y438989D01*
X451119Y439741D02*
X451396Y440017D01*
X452407Y441029D01*
X451871Y438989D02*
X452148Y439266D01*
X450403Y437521D02*
X450961Y438080D01*
X466032Y424031D02*
X466430Y424429D01*
X465521Y423520D02*
X466032Y424031D01*
X464963Y422961D02*
X465521Y423520D01*
X467774Y425717D02*
X468470Y425022D01*
X466273Y422768D02*
X466784Y423279D01*
X467459Y423954D02*
X468470Y424966D01*
X466784Y423279D02*
X467182Y423677D01*
X466430Y424429D02*
X466707Y424706D01*
X467719Y425717D01*
X467182Y423677D02*
X467459Y423954D01*
X465714Y422210D02*
X466273Y422768D01*
X464000Y402405D02*
X464398Y402006D01*
X463489Y402916D02*
X464000Y402405D01*
X462930Y403474D02*
X463489Y402916D01*
X464990Y399967D02*
X465686Y400663D01*
X462737Y402164D02*
X463248Y401653D01*
X463924Y400978D02*
X464935Y399967D01*
X463248Y401653D02*
X463647Y401255D01*
X464398Y402006D02*
X464675Y401729D01*
X465686Y400718D01*
X463647Y401255D02*
X463924Y400978D01*
X462179Y402723D02*
X462737Y402164D01*
X448688Y387093D02*
X449087Y386695D01*
X448178Y387604D02*
X448688Y387093D01*
X447619Y388163D02*
X448178Y387604D01*
X449679Y384655D02*
X450375Y385351D01*
X447426Y386853D02*
X447937Y386342D01*
X448612Y385666D02*
X449623Y384655D01*
X447937Y386342D02*
X448335Y385943D01*
X449087Y386695D02*
X449364Y386418D01*
X450375Y385407D01*
X448335Y385943D02*
X448612Y385666D01*
X446867Y387411D02*
X447426Y386853D01*
X426664Y380376D02*
X427063Y380774D01*
X427573Y381285D01*
X428132Y381843D01*
X424624Y379783D02*
X425320Y379087D01*
X426311Y381526D02*
X426822Y382036D01*
X424624Y379839D02*
X425635Y380850D01*
X425912Y381127D02*
X426311Y381526D01*
X426387Y380099D02*
X426664Y380376D01*
X425376Y379087D02*
X426387Y380099D01*
X425635Y380850D02*
X425912Y381127D01*
X426822Y382036D02*
X427380Y382595D01*
X411353Y395687D02*
X411751Y396085D01*
X412262Y396596D01*
X412820Y397155D01*
X409313Y395095D02*
X410009Y394399D01*
X410999Y396837D02*
X411510Y397348D01*
X409313Y395150D02*
X410324Y396162D01*
X410601Y396439D02*
X410999Y396837D01*
X411076Y395410D02*
X411353Y395687D01*
X410064Y394399D02*
X411076Y395410D01*
X410324Y396162D02*
X410601Y396439D01*
X411510Y397348D02*
X412069Y397906D01*
X396681Y418110D02*
X397080Y417711D01*
X397591Y417201D01*
X398149Y416642D01*
X395393Y419454D02*
X396089Y420150D01*
X397832Y418463D02*
X398342Y417952D01*
X396145Y420150D02*
X397156Y419138D01*
X397433Y418861D02*
X397832Y418463D01*
X396405Y418387D02*
X396681Y418110D01*
X395393Y419398D02*
X396405Y418387D01*
X397156Y419138D02*
X397433Y418861D01*
X398342Y417952D02*
X398901Y417394D01*
X442369Y447694D02*
X442767Y448092D01*
X441858Y447183D02*
X442369Y447694D01*
X441300Y446624D02*
X441858Y447183D01*
X444111Y449380D02*
X444807Y448684D01*
X442610Y446431D02*
X443120Y446942D01*
X443796Y447617D02*
X444807Y448629D01*
X443120Y446942D02*
X443519Y447341D01*
X442767Y448092D02*
X443044Y448369D01*
X444056Y449380D01*
X443519Y447341D02*
X443796Y447617D01*
X442051Y445873D02*
X442610Y446431D01*
X411993Y433421D02*
X412392Y433022D01*
X412902Y432512D01*
X413461Y431953D01*
X410705Y434765D02*
X411401Y435461D01*
X413143Y433774D02*
X413654Y433263D01*
X411456Y435461D02*
X412468Y434450D01*
X412745Y434173D02*
X413143Y433774D01*
X411716Y433698D02*
X411993Y433421D01*
X410705Y434709D02*
X411716Y433698D01*
X412468Y434450D02*
X412745Y434173D01*
X413654Y433263D02*
X414212Y432705D01*
X457680Y432382D02*
X458079Y432781D01*
X457170Y431872D02*
X457680Y432382D01*
X456611Y431313D02*
X457170Y431872D01*
X459423Y434069D02*
X460119Y433373D01*
X457921Y431120D02*
X458432Y431631D01*
X459107Y432306D02*
X460119Y433317D01*
X458432Y431631D02*
X458830Y432029D01*
X458079Y432781D02*
X458356Y433058D01*
X459367Y434069D01*
X458830Y432029D02*
X459107Y432306D01*
X457363Y430561D02*
X457921Y431120D01*
X472351Y410757D02*
X472750Y410358D01*
X471841Y411267D02*
X472351Y410757D01*
X471282Y411826D02*
X471841Y411267D01*
X473342Y408318D02*
X474038Y409014D01*
X471089Y410516D02*
X471600Y410005D01*
X472275Y409329D02*
X473286Y408318D01*
X471600Y410005D02*
X471998Y409606D01*
X472750Y410358D02*
X473027Y410081D01*
X474038Y409070D01*
X471998Y409606D02*
X472275Y409329D01*
X470530Y411074D02*
X471089Y410516D01*
X435863Y377242D02*
X471708Y413087D01*
X397724Y413087D02*
X397724Y415381D01*
X471708Y413087D02*
X472298Y412842D01*
X433324Y451816D02*
X436108D01*
Y376652D02*
X472298Y412842D01*
X397133Y415626D02*
X433324Y451816D01*
X397133Y412842D02*
Y415626D01*
X471707Y415381D02*
X471708Y413087D01*
X435863Y451226D02*
X471707Y415381D01*
X433568Y451226D02*
X435863D01*
X471707Y415381D02*
X472298Y415626D01*
X433324Y376652D02*
X436108D01*
X433568Y377242D02*
X435863D01*
X435863Y451226D02*
X436108Y451816D01*
X435863Y377242D02*
X436108Y376652D01*
Y451816D02*
X472298Y415626D01*
X397133Y412842D02*
X397724Y413087D01*
X397133Y412842D02*
X433324Y376652D01*
X397724Y413087D02*
X433568Y377242D01*
X433324Y451816D02*
X433568Y451226D01*
X433324Y376652D02*
X433568Y377242D01*
X397724Y415381D02*
X433568Y451226D01*
X472298Y412842D02*
Y415626D01*
X397133Y415626D02*
X397724Y415381D01*
D115*
X300213Y355669D02*
X301525D01*
X301787Y355932D01*
Y356456D01*
X301525Y356719D01*
X300213D01*
X301787Y357244D02*
Y357768D01*
Y357506D01*
X300213D01*
X300476Y357244D01*
M02*
