G04*
G04 #@! TF.GenerationSoftware,Altium Limited,Altium Designer,18.1.7 (191)*
G04*
G04 Layer_Color=16711935*
%FSLAX25Y25*%
%MOIN*%
G70*
G01*
G75*
%ADD10C,0.01000*%
%ADD16C,0.00787*%
%ADD117C,0.03000*%
D10*
X276597Y672489D02*
G03*
X261646Y656932I303J-15254D01*
G01*
X290890Y324854D02*
G03*
X283185Y329480I-9648J-7340D01*
G01*
X261630Y341685D02*
G03*
X274031Y329480I12303J98D01*
G01*
X550457Y322678D02*
G03*
X564903Y330081I1333J15195D01*
G01*
X576653Y337354D02*
G03*
X564903Y330081I1070J-14856D01*
G01*
X610430Y337365D02*
G03*
X623535Y352792I-1579J14621D01*
G01*
X623343Y641705D02*
G03*
X611138Y654480I-12490J285D01*
G01*
X290890Y324854D02*
G03*
X295980Y322574I5012J4367D01*
G01*
X563097Y661806D02*
G03*
X573853Y654480I10806J4307D01*
G01*
X563183Y661511D02*
G03*
X547433Y672377I-15489J-5603D01*
G01*
X261630Y341685D02*
Y657235D01*
X276689Y672492D02*
X547694D01*
X274031Y329480D02*
X283185D01*
X576653Y337354D02*
X610567D01*
X573903Y654480D02*
X611138D01*
X623551Y352787D02*
Y641794D01*
X295980Y322574D02*
X553268D01*
X276626Y672654D02*
G03*
X261531Y656264I435J-15546D01*
G01*
X561803Y665073D02*
G03*
X550626Y672654I-11018J-4215D01*
G01*
X563022Y661886D02*
G03*
X573076Y654642I10532J4019D01*
G01*
X623365Y641708D02*
G03*
X610925Y654642I-12687J247D01*
G01*
X609075Y337545D02*
G03*
X623365Y351914I30J14260D01*
G01*
X577417Y337545D02*
G03*
X565059Y330674I31J-14604D01*
G01*
X550000Y322736D02*
G03*
X565059Y330674I661J17000D01*
G01*
X290174Y325762D02*
G03*
X296457Y322736I6097J4625D01*
G01*
X290271Y325688D02*
G03*
X281693Y329653I-8805J-7785D01*
G01*
X261532Y341993D02*
G03*
X274182Y329653I12282J-63D01*
G01*
X561803Y665073D02*
X563022Y661886D01*
X276626Y672654D02*
X550785D01*
X573076Y654642D02*
X577020D01*
X610925D01*
X623365Y351914D02*
Y641708D01*
X577417Y337545D02*
X609105D01*
X296457Y322736D02*
X550000D01*
X274182Y329653D02*
X281693D01*
X261531Y656264D02*
X261532Y341993D01*
D16*
X313681Y663240D02*
Y669539D01*
X300689Y663240D02*
Y669539D01*
X313681D01*
X300689Y663240D02*
X313681D01*
D117*
X563040Y664922D02*
G03*
X548583Y673504I-13889J-6929D01*
G01*
X563159Y664795D02*
G03*
X574921Y655543I12705J4049D01*
G01*
X624061Y639820D02*
G03*
X609082Y655500I-15329J350D01*
G01*
X611221Y336142D02*
G03*
X622853Y344302I-1578J14621D01*
G01*
X576947Y335935D02*
G03*
X565197Y328661I1070J-14856D01*
G01*
X551037Y321689D02*
G03*
X564764Y327992I1333J15195D01*
G01*
X289772Y323642D02*
G03*
X282067Y328268I-9648J-7340D01*
G01*
X290107Y323343D02*
G03*
X295197Y321063I5012J4367D01*
G01*
X260512Y340473D02*
G03*
X272913Y328268I12303J98D01*
G01*
X274991Y673667D02*
G03*
X260039Y658110I2889J-17740D01*
G01*
X574921Y655543D02*
X610346D01*
X577307Y336142D02*
X611221D01*
X272913Y328268D02*
X282067D01*
M02*
