G04*
G04 #@! TF.GenerationSoftware,Altium Limited,Altium Designer,18.1.7 (191)*
G04*
G04 Layer_Color=16711935*
%FSLAX25Y25*%
%MOIN*%
G70*
G01*
G75*
%ADD10C,0.01000*%
%ADD16C,0.00787*%
%ADD48R,0.14567X0.07874*%
%ADD50R,0.06124X0.05534*%
%ADD66R,0.06124X0.06124*%
%ADD69R,0.05534X0.06124*%
%ADD71R,0.06124X0.07400*%
%ADD72R,0.07400X0.06124*%
%ADD74C,0.09843*%
%ADD75R,0.07306X0.07306*%
%ADD76C,0.07306*%
%ADD77R,0.07306X0.07306*%
%ADD78C,0.05337*%
%ADD79C,0.25022*%
%ADD80C,0.06085*%
%ADD81C,0.04550*%
%ADD104R,0.03172X0.07306*%
%ADD105R,0.07306X0.03644*%
G04:AMPARAMS|DCode=106|XSize=61.24mil|YSize=74mil|CornerRadius=0mil|HoleSize=0mil|Usage=FLASHONLY|Rotation=225.000|XOffset=0mil|YOffset=0mil|HoleType=Round|Shape=Rectangle|*
%AMROTATEDRECTD106*
4,1,4,-0.00451,0.04782,0.04782,-0.00451,0.00451,-0.04782,-0.04782,0.00451,-0.00451,0.04782,0.0*
%
%ADD106ROTATEDRECTD106*%

G04:AMPARAMS|DCode=107|XSize=55.34mil|YSize=61.24mil|CornerRadius=0mil|HoleSize=0mil|Usage=FLASHONLY|Rotation=225.000|XOffset=0mil|YOffset=0mil|HoleType=Round|Shape=Rectangle|*
%AMROTATEDRECTD107*
4,1,4,-0.00209,0.04122,0.04122,-0.00209,0.00209,-0.04122,-0.04122,0.00209,-0.00209,0.04122,0.0*
%
%ADD107ROTATEDRECTD107*%

%ADD108P,0.08661X4X270.0*%
%ADD109R,0.06124X0.06124*%
G04:AMPARAMS|DCode=110|XSize=61.24mil|YSize=74mil|CornerRadius=0mil|HoleSize=0mil|Usage=FLASHONLY|Rotation=315.000|XOffset=0mil|YOffset=0mil|HoleType=Round|Shape=Rectangle|*
%AMROTATEDRECTD110*
4,1,4,-0.04782,-0.00451,0.00451,0.04782,0.04782,0.00451,-0.00451,-0.04782,-0.04782,-0.00451,0.0*
%
%ADD110ROTATEDRECTD110*%

G36*
X943173Y183581D02*
X943237D01*
X943410Y183563D01*
X943601Y183536D01*
X943801Y183490D01*
X944020Y183436D01*
X944221Y183363D01*
X944230D01*
X944248Y183354D01*
X944275Y183335D01*
X944312Y183317D01*
X944403Y183272D01*
X944521Y183190D01*
X944658Y183099D01*
X944794Y182980D01*
X944922Y182844D01*
X945041Y182689D01*
Y182680D01*
X945050Y182670D01*
X945068Y182643D01*
X945086Y182616D01*
X945132Y182525D01*
X945186Y182406D01*
X945250Y182261D01*
X945296Y182087D01*
X945341Y181905D01*
X945359Y181705D01*
X944558Y181641D01*
Y181650D01*
Y181668D01*
X944549Y181696D01*
X944540Y181741D01*
X944512Y181842D01*
X944476Y181978D01*
X944421Y182124D01*
X944339Y182270D01*
X944239Y182406D01*
X944111Y182534D01*
X944093Y182543D01*
X944048Y182579D01*
X943956Y182634D01*
X943838Y182689D01*
X943683Y182743D01*
X943501Y182798D01*
X943273Y182834D01*
X943018Y182844D01*
X942890D01*
X942836Y182834D01*
X942763Y182825D01*
X942599Y182807D01*
X942417Y182771D01*
X942235Y182725D01*
X942062Y182652D01*
X941989Y182607D01*
X941916Y182561D01*
X941898Y182552D01*
X941861Y182516D01*
X941807Y182452D01*
X941752Y182379D01*
X941688Y182279D01*
X941633Y182169D01*
X941597Y182042D01*
X941579Y181896D01*
Y181878D01*
Y181842D01*
X941588Y181778D01*
X941606Y181705D01*
X941633Y181614D01*
X941679Y181523D01*
X941734Y181431D01*
X941816Y181340D01*
X941825Y181331D01*
X941870Y181304D01*
X941907Y181277D01*
X941943Y181258D01*
X941998Y181231D01*
X942062Y181195D01*
X942144Y181167D01*
X942235Y181131D01*
X942335Y181095D01*
X942453Y181049D01*
X942581Y181012D01*
X942727Y180967D01*
X942890Y180930D01*
X943073Y180885D01*
X943082D01*
X943118Y180876D01*
X943173Y180867D01*
X943237Y180849D01*
X943319Y180830D01*
X943419Y180803D01*
X943519Y180776D01*
X943628Y180748D01*
X943865Y180684D01*
X944093Y180621D01*
X944202Y180584D01*
X944303Y180548D01*
X944394Y180520D01*
X944467Y180484D01*
X944476D01*
X944494Y180475D01*
X944521Y180457D01*
X944558Y180438D01*
X944658Y180384D01*
X944776Y180311D01*
X944913Y180211D01*
X945050Y180102D01*
X945177Y179974D01*
X945286Y179837D01*
X945296Y179819D01*
X945332Y179773D01*
X945368Y179692D01*
X945423Y179582D01*
X945469Y179455D01*
X945514Y179300D01*
X945541Y179127D01*
X945551Y178945D01*
Y178935D01*
Y178926D01*
Y178899D01*
Y178863D01*
X945532Y178762D01*
X945514Y178635D01*
X945478Y178489D01*
X945432Y178334D01*
X945359Y178170D01*
X945259Y177997D01*
Y177988D01*
X945250Y177979D01*
X945205Y177924D01*
X945141Y177842D01*
X945050Y177751D01*
X944931Y177642D01*
X944785Y177523D01*
X944621Y177414D01*
X944430Y177314D01*
X944421D01*
X944403Y177305D01*
X944376Y177296D01*
X944339Y177277D01*
X944284Y177259D01*
X944221Y177232D01*
X944075Y177195D01*
X943902Y177150D01*
X943692Y177104D01*
X943464Y177077D01*
X943219Y177068D01*
X943073D01*
X943000Y177077D01*
X942918D01*
X942827Y177086D01*
X942717Y177095D01*
X942490Y177132D01*
X942253Y177168D01*
X942016Y177232D01*
X941788Y177314D01*
X941779D01*
X941761Y177323D01*
X941734Y177341D01*
X941697Y177359D01*
X941588Y177414D01*
X941460Y177496D01*
X941315Y177605D01*
X941160Y177733D01*
X941014Y177888D01*
X940877Y178061D01*
Y178070D01*
X940859Y178088D01*
X940850Y178115D01*
X940823Y178152D01*
X940804Y178198D01*
X940777Y178252D01*
X940713Y178389D01*
X940650Y178562D01*
X940595Y178753D01*
X940558Y178972D01*
X940540Y179200D01*
X941324Y179272D01*
Y179263D01*
Y179254D01*
X941333Y179227D01*
Y179191D01*
X941351Y179109D01*
X941378Y178990D01*
X941415Y178872D01*
X941451Y178735D01*
X941515Y178607D01*
X941579Y178489D01*
X941588Y178480D01*
X941615Y178443D01*
X941661Y178380D01*
X941734Y178316D01*
X941825Y178234D01*
X941925Y178152D01*
X942062Y178070D01*
X942207Y177997D01*
X942216D01*
X942225Y177988D01*
X942253Y177979D01*
X942280Y177970D01*
X942371Y177942D01*
X942490Y177906D01*
X942636Y177869D01*
X942799Y177842D01*
X942982Y177824D01*
X943182Y177815D01*
X943264D01*
X943355Y177824D01*
X943464Y177833D01*
X943592Y177851D01*
X943738Y177869D01*
X943884Y177906D01*
X944020Y177952D01*
X944038Y177961D01*
X944084Y177979D01*
X944148Y178015D01*
X944230Y178052D01*
X944312Y178115D01*
X944403Y178179D01*
X944494Y178252D01*
X944567Y178343D01*
X944576Y178352D01*
X944594Y178389D01*
X944621Y178434D01*
X944658Y178507D01*
X944694Y178580D01*
X944722Y178671D01*
X944740Y178771D01*
X944749Y178881D01*
Y178890D01*
Y178935D01*
X944740Y178990D01*
X944731Y179063D01*
X944703Y179136D01*
X944676Y179227D01*
X944631Y179318D01*
X944567Y179400D01*
X944558Y179409D01*
X944530Y179436D01*
X944494Y179473D01*
X944430Y179527D01*
X944357Y179582D01*
X944257Y179646D01*
X944139Y179710D01*
X944002Y179764D01*
X943993Y179773D01*
X943947Y179783D01*
X943874Y179810D01*
X943829Y179819D01*
X943765Y179837D01*
X943701Y179865D01*
X943619Y179883D01*
X943528Y179910D01*
X943419Y179938D01*
X943310Y179965D01*
X943182Y180001D01*
X943036Y180038D01*
X942881Y180074D01*
X942872D01*
X942845Y180083D01*
X942799Y180092D01*
X942745Y180111D01*
X942672Y180129D01*
X942590Y180147D01*
X942408Y180202D01*
X942207Y180265D01*
X941998Y180329D01*
X941816Y180393D01*
X941734Y180429D01*
X941661Y180466D01*
X941652D01*
X941642Y180475D01*
X941588Y180511D01*
X941506Y180557D01*
X941415Y180630D01*
X941305Y180712D01*
X941196Y180812D01*
X941087Y180930D01*
X940996Y181058D01*
X940987Y181076D01*
X940959Y181122D01*
X940923Y181195D01*
X940886Y181286D01*
X940850Y181404D01*
X940814Y181541D01*
X940786Y181687D01*
X940777Y181842D01*
Y181851D01*
Y181860D01*
Y181887D01*
Y181923D01*
X940795Y182015D01*
X940814Y182133D01*
X940841Y182270D01*
X940886Y182424D01*
X940950Y182579D01*
X941041Y182734D01*
Y182743D01*
X941050Y182753D01*
X941096Y182807D01*
X941160Y182880D01*
X941242Y182971D01*
X941351Y183071D01*
X941488Y183181D01*
X941652Y183281D01*
X941834Y183372D01*
X941843D01*
X941861Y183381D01*
X941888Y183390D01*
X941925Y183408D01*
X941970Y183427D01*
X942034Y183445D01*
X942171Y183481D01*
X942344Y183518D01*
X942544Y183554D01*
X942754Y183581D01*
X942991Y183591D01*
X943109D01*
X943173Y183581D01*
D02*
G37*
G36*
X957129Y177177D02*
X956410D01*
Y177751D01*
X956401Y177742D01*
X956392Y177724D01*
X956364Y177687D01*
X956328Y177642D01*
X956282Y177596D01*
X956228Y177542D01*
X956164Y177478D01*
X956082Y177414D01*
X956000Y177350D01*
X955909Y177287D01*
X955799Y177232D01*
X955681Y177186D01*
X955563Y177141D01*
X955426Y177104D01*
X955280Y177086D01*
X955125Y177077D01*
X955071D01*
X955034Y177086D01*
X954925Y177095D01*
X954797Y177113D01*
X954642Y177150D01*
X954469Y177205D01*
X954296Y177277D01*
X954123Y177378D01*
X954114D01*
X954105Y177396D01*
X954050Y177432D01*
X953968Y177505D01*
X953868Y177596D01*
X953750Y177715D01*
X953631Y177860D01*
X953513Y178024D01*
X953413Y178216D01*
Y178225D01*
X953403Y178243D01*
X953394Y178270D01*
X953376Y178307D01*
X953358Y178361D01*
X953331Y178425D01*
X953312Y178489D01*
X953294Y178571D01*
X953249Y178753D01*
X953203Y178963D01*
X953176Y179200D01*
X953167Y179455D01*
Y179464D01*
Y179482D01*
Y179518D01*
Y179573D01*
X953176Y179628D01*
Y179701D01*
X953194Y179865D01*
X953221Y180056D01*
X953267Y180265D01*
X953321Y180484D01*
X953394Y180694D01*
Y180703D01*
X953403Y180721D01*
X953422Y180748D01*
X953440Y180785D01*
X953495Y180885D01*
X953568Y181012D01*
X953659Y181149D01*
X953777Y181286D01*
X953914Y181431D01*
X954078Y181550D01*
X954087D01*
X954096Y181559D01*
X954123Y181577D01*
X954160Y181596D01*
X954251Y181641D01*
X954378Y181705D01*
X954524Y181760D01*
X954697Y181805D01*
X954888Y181842D01*
X955089Y181851D01*
X955162D01*
X955235Y181842D01*
X955335Y181832D01*
X955453Y181805D01*
X955581Y181778D01*
X955708Y181732D01*
X955827Y181668D01*
X955845Y181659D01*
X955881Y181641D01*
X955936Y181596D01*
X956009Y181550D01*
X956100Y181486D01*
X956182Y181404D01*
X956273Y181322D01*
X956355Y181222D01*
Y183481D01*
X957129D01*
Y177177D01*
D02*
G37*
G36*
X965082Y181842D02*
X965183Y181823D01*
X965301Y181787D01*
X965429Y181741D01*
X965574Y181677D01*
X965729Y181596D01*
X965447Y180885D01*
X965438Y180894D01*
X965401Y180912D01*
X965347Y180940D01*
X965274Y180967D01*
X965192Y180994D01*
X965092Y181022D01*
X964991Y181040D01*
X964891Y181049D01*
X964846D01*
X964800Y181040D01*
X964736Y181031D01*
X964673Y181012D01*
X964591Y180985D01*
X964509Y180949D01*
X964436Y180894D01*
X964427Y180885D01*
X964399Y180867D01*
X964372Y180830D01*
X964326Y180785D01*
X964281Y180721D01*
X964235Y180648D01*
X964190Y180566D01*
X964153Y180466D01*
X964144Y180448D01*
X964135Y180393D01*
X964117Y180311D01*
X964089Y180202D01*
X964062Y180065D01*
X964044Y179910D01*
X964035Y179746D01*
X964026Y179564D01*
Y177177D01*
X963251D01*
Y181750D01*
X963953D01*
Y181058D01*
X963962Y181067D01*
X963998Y181131D01*
X964044Y181213D01*
X964117Y181313D01*
X964190Y181413D01*
X964272Y181523D01*
X964354Y181614D01*
X964436Y181687D01*
X964445Y181696D01*
X964472Y181714D01*
X964527Y181741D01*
X964581Y181769D01*
X964654Y181796D01*
X964745Y181823D01*
X964837Y181842D01*
X964937Y181851D01*
X965001D01*
X965082Y181842D01*
D02*
G37*
G36*
X935821D02*
X935885D01*
X935949Y181832D01*
X936104Y181805D01*
X936268Y181760D01*
X936441Y181687D01*
X936614Y181596D01*
X936759Y181468D01*
X936778Y181450D01*
X936814Y181395D01*
X936878Y181313D01*
X936905Y181249D01*
X936942Y181185D01*
X936978Y181104D01*
X937006Y181022D01*
X937042Y180930D01*
X937069Y180821D01*
X937088Y180712D01*
X937106Y180584D01*
X937124Y180457D01*
Y180311D01*
Y177177D01*
X936350D01*
Y180047D01*
Y180056D01*
Y180065D01*
Y180120D01*
Y180202D01*
X936341Y180302D01*
X936331Y180411D01*
X936322Y180520D01*
X936304Y180630D01*
X936277Y180712D01*
Y180721D01*
X936259Y180748D01*
X936240Y180785D01*
X936213Y180830D01*
X936176Y180885D01*
X936131Y180940D01*
X936076Y180994D01*
X936003Y181049D01*
X935994Y181058D01*
X935967Y181067D01*
X935931Y181085D01*
X935867Y181113D01*
X935803Y181140D01*
X935721Y181158D01*
X935639Y181167D01*
X935539Y181176D01*
X935493D01*
X935457Y181167D01*
X935366Y181158D01*
X935256Y181140D01*
X935129Y181095D01*
X934992Y181040D01*
X934855Y180958D01*
X934728Y180849D01*
X934719Y180830D01*
X934682Y180785D01*
X934628Y180712D01*
X934573Y180603D01*
X934509Y180457D01*
X934464Y180284D01*
X934427Y180074D01*
X934409Y179828D01*
Y177177D01*
X933635D01*
Y180138D01*
Y180147D01*
Y180165D01*
Y180183D01*
Y180220D01*
X933626Y180320D01*
X933607Y180429D01*
X933589Y180557D01*
X933553Y180684D01*
X933507Y180803D01*
X933444Y180912D01*
X933434Y180921D01*
X933407Y180958D01*
X933362Y180994D01*
X933298Y181049D01*
X933216Y181095D01*
X933106Y181140D01*
X932979Y181167D01*
X932824Y181176D01*
X932769D01*
X932706Y181167D01*
X932633Y181158D01*
X932542Y181131D01*
X932432Y181104D01*
X932332Y181058D01*
X932223Y181003D01*
X932214Y180994D01*
X932177Y180967D01*
X932132Y180930D01*
X932068Y180876D01*
X932004Y180803D01*
X931940Y180712D01*
X931876Y180612D01*
X931822Y180493D01*
X931813Y180475D01*
X931804Y180429D01*
X931785Y180357D01*
X931758Y180256D01*
X931731Y180120D01*
X931713Y179956D01*
X931703Y179764D01*
X931694Y179546D01*
Y177177D01*
X930920D01*
Y181750D01*
X931612D01*
Y181095D01*
X931621Y181113D01*
X931649Y181149D01*
X931703Y181213D01*
X931767Y181286D01*
X931849Y181377D01*
X931949Y181468D01*
X932059Y181559D01*
X932186Y181641D01*
X932205Y181650D01*
X932250Y181677D01*
X932323Y181705D01*
X932423Y181750D01*
X932542Y181787D01*
X932678Y181814D01*
X932833Y181842D01*
X932997Y181851D01*
X933079D01*
X933179Y181842D01*
X933289Y181823D01*
X933425Y181796D01*
X933562Y181760D01*
X933699Y181705D01*
X933826Y181632D01*
X933844Y181623D01*
X933881Y181596D01*
X933935Y181550D01*
X934008Y181477D01*
X934081Y181395D01*
X934163Y181295D01*
X934236Y181176D01*
X934291Y181040D01*
X934300Y181049D01*
X934318Y181076D01*
X934345Y181113D01*
X934391Y181167D01*
X934446Y181231D01*
X934509Y181295D01*
X934582Y181368D01*
X934673Y181450D01*
X934774Y181523D01*
X934874Y181596D01*
X934992Y181659D01*
X935120Y181723D01*
X935256Y181778D01*
X935402Y181814D01*
X935548Y181842D01*
X935712Y181851D01*
X935776D01*
X935821Y181842D01*
D02*
G37*
G36*
X952256Y177177D02*
X951481D01*
Y183481D01*
X952256D01*
Y177177D01*
D02*
G37*
G36*
X912955Y183472D02*
X913028D01*
X913192Y183454D01*
X913374Y183436D01*
X913566Y183399D01*
X913757Y183354D01*
X913930Y183290D01*
X913939D01*
X913948Y183281D01*
X914003Y183254D01*
X914085Y183208D01*
X914176Y183144D01*
X914285Y183062D01*
X914404Y182962D01*
X914513Y182834D01*
X914613Y182698D01*
X914622Y182680D01*
X914649Y182625D01*
X914695Y182552D01*
X914741Y182443D01*
X914786Y182315D01*
X914832Y182178D01*
X914859Y182024D01*
X914868Y181869D01*
Y181851D01*
Y181805D01*
X914859Y181723D01*
X914841Y181623D01*
X914814Y181504D01*
X914768Y181377D01*
X914713Y181249D01*
X914640Y181113D01*
X914631Y181095D01*
X914604Y181058D01*
X914549Y180985D01*
X914476Y180912D01*
X914385Y180821D01*
X914276Y180721D01*
X914139Y180630D01*
X913984Y180539D01*
X913994D01*
X914012Y180530D01*
X914039Y180520D01*
X914076Y180502D01*
X914185Y180466D01*
X914312Y180402D01*
X914449Y180320D01*
X914604Y180220D01*
X914741Y180102D01*
X914868Y179956D01*
X914877Y179938D01*
X914914Y179883D01*
X914968Y179801D01*
X915023Y179692D01*
X915078Y179546D01*
X915132Y179391D01*
X915169Y179209D01*
X915178Y179008D01*
Y178999D01*
Y178990D01*
Y178935D01*
X915169Y178844D01*
X915151Y178735D01*
X915132Y178607D01*
X915096Y178471D01*
X915050Y178325D01*
X914987Y178179D01*
X914977Y178161D01*
X914950Y178115D01*
X914914Y178052D01*
X914859Y177961D01*
X914786Y177869D01*
X914713Y177769D01*
X914622Y177669D01*
X914522Y177587D01*
X914513Y177578D01*
X914476Y177551D01*
X914413Y177514D01*
X914331Y177478D01*
X914231Y177423D01*
X914112Y177368D01*
X913984Y177323D01*
X913830Y177277D01*
X913811D01*
X913757Y177259D01*
X913666Y177250D01*
X913547Y177232D01*
X913402Y177214D01*
X913228Y177195D01*
X913037Y177186D01*
X912818Y177177D01*
X910413D01*
Y183481D01*
X912891D01*
X912955Y183472D01*
D02*
G37*
G36*
X924479Y181750D02*
X925263D01*
Y181149D01*
X924479D01*
Y178462D01*
Y178443D01*
Y178407D01*
Y178352D01*
X924488Y178289D01*
X924498Y178143D01*
X924507Y178079D01*
X924516Y178033D01*
X924525Y178015D01*
X924552Y177979D01*
X924589Y177933D01*
X924652Y177888D01*
X924671Y177879D01*
X924716Y177860D01*
X924798Y177842D01*
X924916Y177833D01*
X925008D01*
X925053Y177842D01*
X925117D01*
X925190Y177851D01*
X925263Y177860D01*
X925363Y177177D01*
X925345D01*
X925308Y177168D01*
X925245Y177159D01*
X925163Y177150D01*
X925071Y177132D01*
X924971Y177122D01*
X924771Y177113D01*
X924698D01*
X924625Y177122D01*
X924534Y177132D01*
X924425Y177141D01*
X924315Y177168D01*
X924215Y177195D01*
X924115Y177241D01*
X924106Y177250D01*
X924078Y177268D01*
X924042Y177296D01*
X923987Y177341D01*
X923942Y177387D01*
X923887Y177451D01*
X923832Y177514D01*
X923796Y177596D01*
Y177605D01*
X923778Y177642D01*
X923769Y177706D01*
X923750Y177797D01*
X923732Y177915D01*
X923723Y177988D01*
Y178070D01*
X923714Y178170D01*
X923705Y178270D01*
Y178380D01*
Y178507D01*
Y181149D01*
X923131D01*
Y181750D01*
X923705D01*
Y182880D01*
X924479Y183345D01*
Y181750D01*
D02*
G37*
G36*
X922029D02*
X922812D01*
Y181149D01*
X922029D01*
Y178462D01*
Y178443D01*
Y178407D01*
Y178352D01*
X922038Y178289D01*
X922047Y178143D01*
X922056Y178079D01*
X922065Y178033D01*
X922074Y178015D01*
X922101Y177979D01*
X922138Y177933D01*
X922202Y177888D01*
X922220Y177879D01*
X922266Y177860D01*
X922348Y177842D01*
X922466Y177833D01*
X922557D01*
X922603Y177842D01*
X922666D01*
X922739Y177851D01*
X922812Y177860D01*
X922912Y177177D01*
X922894D01*
X922858Y177168D01*
X922794Y177159D01*
X922712Y177150D01*
X922621Y177132D01*
X922521Y177122D01*
X922320Y177113D01*
X922247D01*
X922174Y177122D01*
X922083Y177132D01*
X921974Y177141D01*
X921865Y177168D01*
X921764Y177195D01*
X921664Y177241D01*
X921655Y177250D01*
X921628Y177268D01*
X921591Y177296D01*
X921537Y177341D01*
X921491Y177387D01*
X921437Y177451D01*
X921382Y177514D01*
X921345Y177596D01*
Y177605D01*
X921327Y177642D01*
X921318Y177706D01*
X921300Y177797D01*
X921282Y177915D01*
X921272Y177988D01*
Y178070D01*
X921263Y178170D01*
X921254Y178270D01*
Y178380D01*
Y178507D01*
Y181149D01*
X920680D01*
Y181750D01*
X921254D01*
Y182880D01*
X922029Y183345D01*
Y181750D01*
D02*
G37*
G36*
X960382Y181842D02*
X960455Y181832D01*
X960546Y181814D01*
X960646Y181796D01*
X960764Y181769D01*
X960874Y181741D01*
X961001Y181696D01*
X961120Y181650D01*
X961247Y181586D01*
X961375Y181514D01*
X961502Y181431D01*
X961621Y181331D01*
X961730Y181222D01*
X961739Y181213D01*
X961757Y181195D01*
X961785Y181158D01*
X961821Y181104D01*
X961867Y181040D01*
X961912Y180967D01*
X961967Y180876D01*
X962022Y180766D01*
X962076Y180648D01*
X962131Y180520D01*
X962176Y180375D01*
X962222Y180220D01*
X962258Y180047D01*
X962286Y179865D01*
X962304Y179673D01*
X962313Y179464D01*
Y179455D01*
Y179418D01*
Y179354D01*
X962304Y179263D01*
X958888D01*
Y179254D01*
Y179227D01*
X958897Y179191D01*
Y179136D01*
X958906Y179072D01*
X958924Y178999D01*
X958951Y178835D01*
X959006Y178653D01*
X959079Y178453D01*
X959179Y178270D01*
X959307Y178106D01*
X959316D01*
X959325Y178088D01*
X959380Y178043D01*
X959462Y177979D01*
X959571Y177915D01*
X959717Y177842D01*
X959881Y177778D01*
X960063Y177733D01*
X960163Y177724D01*
X960272Y177715D01*
X960345D01*
X960427Y177724D01*
X960528Y177742D01*
X960637Y177769D01*
X960764Y177806D01*
X960883Y177860D01*
X961001Y177933D01*
X961010Y177942D01*
X961056Y177979D01*
X961110Y178033D01*
X961174Y178106D01*
X961247Y178207D01*
X961329Y178334D01*
X961411Y178480D01*
X961484Y178653D01*
X962286Y178553D01*
Y178544D01*
X962277Y178525D01*
X962267Y178489D01*
X962249Y178434D01*
X962222Y178380D01*
X962195Y178307D01*
X962122Y178152D01*
X962031Y177979D01*
X961903Y177797D01*
X961757Y177623D01*
X961575Y177460D01*
X961566D01*
X961548Y177441D01*
X961520Y177423D01*
X961484Y177396D01*
X961429Y177368D01*
X961375Y177341D01*
X961302Y177305D01*
X961220Y177268D01*
X961129Y177232D01*
X961038Y177195D01*
X960810Y177141D01*
X960555Y177095D01*
X960272Y177077D01*
X960172D01*
X960108Y177086D01*
X960026Y177095D01*
X959926Y177113D01*
X959817Y177132D01*
X959698Y177150D01*
X959443Y177223D01*
X959307Y177277D01*
X959179Y177332D01*
X959043Y177405D01*
X958915Y177487D01*
X958797Y177578D01*
X958678Y177687D01*
X958669Y177696D01*
X958651Y177715D01*
X958624Y177751D01*
X958587Y177806D01*
X958541Y177869D01*
X958496Y177942D01*
X958441Y178033D01*
X958387Y178134D01*
X958332Y178252D01*
X958277Y178380D01*
X958232Y178525D01*
X958186Y178680D01*
X958150Y178844D01*
X958123Y179026D01*
X958104Y179218D01*
X958095Y179418D01*
Y179427D01*
Y179473D01*
Y179527D01*
X958104Y179610D01*
X958113Y179710D01*
X958123Y179819D01*
X958141Y179947D01*
X958168Y180074D01*
X958241Y180366D01*
X958286Y180511D01*
X958341Y180666D01*
X958414Y180812D01*
X958496Y180949D01*
X958587Y181085D01*
X958687Y181213D01*
X958696Y181222D01*
X958715Y181240D01*
X958751Y181267D01*
X958797Y181313D01*
X958851Y181359D01*
X958924Y181413D01*
X959006Y181477D01*
X959106Y181532D01*
X959207Y181596D01*
X959325Y181650D01*
X959453Y181705D01*
X959589Y181750D01*
X959735Y181796D01*
X959890Y181823D01*
X960054Y181842D01*
X960227Y181851D01*
X960318D01*
X960382Y181842D01*
D02*
G37*
G36*
X948602D02*
X948685Y181832D01*
X948776Y181814D01*
X948876Y181796D01*
X948994Y181778D01*
X949240Y181696D01*
X949368Y181650D01*
X949495Y181586D01*
X949623Y181523D01*
X949750Y181431D01*
X949869Y181340D01*
X949987Y181231D01*
X949996Y181222D01*
X950015Y181204D01*
X950042Y181167D01*
X950078Y181122D01*
X950124Y181058D01*
X950179Y180976D01*
X950233Y180885D01*
X950288Y180785D01*
X950342Y180675D01*
X950397Y180539D01*
X950452Y180402D01*
X950497Y180247D01*
X950534Y180083D01*
X950561Y179910D01*
X950579Y179728D01*
X950589Y179527D01*
Y179518D01*
Y179491D01*
Y179446D01*
Y179382D01*
X950579Y179309D01*
X950570Y179218D01*
Y179127D01*
X950552Y179026D01*
X950525Y178799D01*
X950470Y178571D01*
X950406Y178343D01*
X950315Y178134D01*
Y178125D01*
X950306Y178115D01*
X950288Y178088D01*
X950270Y178052D01*
X950206Y177961D01*
X950124Y177851D01*
X950015Y177724D01*
X949878Y177596D01*
X949723Y177469D01*
X949541Y177350D01*
X949532D01*
X949523Y177341D01*
X949495Y177323D01*
X949450Y177305D01*
X949404Y177287D01*
X949349Y177268D01*
X949213Y177214D01*
X949058Y177168D01*
X948867Y177122D01*
X948666Y177086D01*
X948448Y177077D01*
X948357D01*
X948284Y177086D01*
X948202Y177095D01*
X948111Y177113D01*
X948001Y177132D01*
X947892Y177150D01*
X947646Y177223D01*
X947509Y177277D01*
X947382Y177332D01*
X947254Y177405D01*
X947127Y177487D01*
X947008Y177578D01*
X946890Y177687D01*
X946881Y177696D01*
X946863Y177715D01*
X946835Y177751D01*
X946799Y177806D01*
X946753Y177869D01*
X946708Y177942D01*
X946653Y178033D01*
X946598Y178143D01*
X946544Y178261D01*
X946489Y178398D01*
X946443Y178544D01*
X946398Y178699D01*
X946361Y178872D01*
X946334Y179054D01*
X946316Y179254D01*
X946307Y179464D01*
Y179482D01*
Y179518D01*
X946316Y179582D01*
Y179673D01*
X946325Y179773D01*
X946343Y179901D01*
X946361Y180029D01*
X946398Y180174D01*
X946434Y180320D01*
X946480Y180475D01*
X946535Y180639D01*
X946607Y180794D01*
X946680Y180940D01*
X946780Y181085D01*
X946881Y181222D01*
X947008Y181340D01*
X947017Y181350D01*
X947036Y181359D01*
X947072Y181386D01*
X947118Y181422D01*
X947172Y181459D01*
X947245Y181504D01*
X947318Y181550D01*
X947409Y181596D01*
X947509Y181641D01*
X947619Y181687D01*
X947865Y181769D01*
X948147Y181832D01*
X948293Y181842D01*
X948448Y181851D01*
X948539D01*
X948602Y181842D01*
D02*
G37*
G36*
X928032D02*
X928114Y181832D01*
X928205Y181814D01*
X928305Y181796D01*
X928424Y181778D01*
X928670Y181696D01*
X928797Y181650D01*
X928925Y181586D01*
X929052Y181523D01*
X929180Y181431D01*
X929298Y181340D01*
X929417Y181231D01*
X929426Y181222D01*
X929444Y181204D01*
X929471Y181167D01*
X929508Y181122D01*
X929554Y181058D01*
X929608Y180976D01*
X929663Y180885D01*
X929718Y180785D01*
X929772Y180675D01*
X929827Y180539D01*
X929881Y180402D01*
X929927Y180247D01*
X929963Y180083D01*
X929991Y179910D01*
X930009Y179728D01*
X930018Y179527D01*
Y179518D01*
Y179491D01*
Y179446D01*
Y179382D01*
X930009Y179309D01*
X930000Y179218D01*
Y179127D01*
X929982Y179026D01*
X929954Y178799D01*
X929900Y178571D01*
X929836Y178343D01*
X929745Y178134D01*
Y178125D01*
X929736Y178115D01*
X929718Y178088D01*
X929699Y178052D01*
X929636Y177961D01*
X929554Y177851D01*
X929444Y177724D01*
X929307Y177596D01*
X929153Y177469D01*
X928971Y177350D01*
X928961D01*
X928952Y177341D01*
X928925Y177323D01*
X928879Y177305D01*
X928834Y177287D01*
X928779Y177268D01*
X928642Y177214D01*
X928488Y177168D01*
X928296Y177122D01*
X928096Y177086D01*
X927877Y177077D01*
X927786D01*
X927713Y177086D01*
X927631Y177095D01*
X927540Y177113D01*
X927431Y177132D01*
X927322Y177150D01*
X927076Y177223D01*
X926939Y177277D01*
X926811Y177332D01*
X926684Y177405D01*
X926556Y177487D01*
X926438Y177578D01*
X926319Y177687D01*
X926310Y177696D01*
X926292Y177715D01*
X926265Y177751D01*
X926228Y177806D01*
X926183Y177869D01*
X926137Y177942D01*
X926083Y178033D01*
X926028Y178143D01*
X925973Y178261D01*
X925919Y178398D01*
X925873Y178544D01*
X925828Y178699D01*
X925791Y178872D01*
X925764Y179054D01*
X925745Y179254D01*
X925736Y179464D01*
Y179482D01*
Y179518D01*
X925745Y179582D01*
Y179673D01*
X925755Y179773D01*
X925773Y179901D01*
X925791Y180029D01*
X925828Y180174D01*
X925864Y180320D01*
X925910Y180475D01*
X925964Y180639D01*
X926037Y180794D01*
X926110Y180940D01*
X926210Y181085D01*
X926310Y181222D01*
X926438Y181340D01*
X926447Y181350D01*
X926465Y181359D01*
X926502Y181386D01*
X926547Y181422D01*
X926602Y181459D01*
X926675Y181504D01*
X926748Y181550D01*
X926839Y181596D01*
X926939Y181641D01*
X927048Y181687D01*
X927294Y181769D01*
X927577Y181832D01*
X927722Y181842D01*
X927877Y181851D01*
X927968D01*
X928032Y181842D01*
D02*
G37*
G36*
X918230D02*
X918312Y181832D01*
X918403Y181814D01*
X918503Y181796D01*
X918622Y181778D01*
X918867Y181696D01*
X918995Y181650D01*
X919123Y181586D01*
X919250Y181523D01*
X919378Y181431D01*
X919496Y181340D01*
X919615Y181231D01*
X919624Y181222D01*
X919642Y181204D01*
X919669Y181167D01*
X919706Y181122D01*
X919751Y181058D01*
X919806Y180976D01*
X919860Y180885D01*
X919915Y180785D01*
X919970Y180675D01*
X920024Y180539D01*
X920079Y180402D01*
X920125Y180247D01*
X920161Y180083D01*
X920188Y179910D01*
X920207Y179728D01*
X920216Y179527D01*
Y179518D01*
Y179491D01*
Y179446D01*
Y179382D01*
X920207Y179309D01*
X920197Y179218D01*
Y179127D01*
X920179Y179026D01*
X920152Y178799D01*
X920097Y178571D01*
X920033Y178343D01*
X919942Y178134D01*
Y178125D01*
X919933Y178115D01*
X919915Y178088D01*
X919897Y178052D01*
X919833Y177961D01*
X919751Y177851D01*
X919642Y177724D01*
X919505Y177596D01*
X919350Y177469D01*
X919168Y177350D01*
X919159D01*
X919150Y177341D01*
X919123Y177323D01*
X919077Y177305D01*
X919032Y177287D01*
X918977Y177268D01*
X918840Y177214D01*
X918685Y177168D01*
X918494Y177122D01*
X918293Y177086D01*
X918075Y177077D01*
X917984D01*
X917911Y177086D01*
X917829Y177095D01*
X917738Y177113D01*
X917628Y177132D01*
X917519Y177150D01*
X917273Y177223D01*
X917137Y177277D01*
X917009Y177332D01*
X916881Y177405D01*
X916754Y177487D01*
X916636Y177578D01*
X916517Y177687D01*
X916508Y177696D01*
X916490Y177715D01*
X916462Y177751D01*
X916426Y177806D01*
X916380Y177869D01*
X916335Y177942D01*
X916280Y178033D01*
X916226Y178143D01*
X916171Y178261D01*
X916116Y178398D01*
X916071Y178544D01*
X916025Y178699D01*
X915989Y178872D01*
X915961Y179054D01*
X915943Y179254D01*
X915934Y179464D01*
Y179482D01*
Y179518D01*
X915943Y179582D01*
Y179673D01*
X915952Y179773D01*
X915971Y179901D01*
X915989Y180029D01*
X916025Y180174D01*
X916062Y180320D01*
X916107Y180475D01*
X916162Y180639D01*
X916235Y180794D01*
X916308Y180940D01*
X916408Y181085D01*
X916508Y181222D01*
X916636Y181340D01*
X916645Y181350D01*
X916663Y181359D01*
X916699Y181386D01*
X916745Y181422D01*
X916800Y181459D01*
X916872Y181504D01*
X916945Y181550D01*
X917036Y181596D01*
X917137Y181641D01*
X917246Y181687D01*
X917492Y181769D01*
X917774Y181832D01*
X917920Y181842D01*
X918075Y181851D01*
X918166D01*
X918230Y181842D01*
D02*
G37*
%LPC*%
G36*
X955171Y181213D02*
X955125D01*
X955089Y181204D01*
X954989Y181195D01*
X954870Y181158D01*
X954733Y181113D01*
X954588Y181031D01*
X954442Y180930D01*
X954369Y180858D01*
X954305Y180785D01*
Y180776D01*
X954287Y180766D01*
X954278Y180739D01*
X954251Y180703D01*
X954223Y180657D01*
X954196Y180603D01*
X954169Y180539D01*
X954132Y180466D01*
X954096Y180375D01*
X954068Y180274D01*
X954041Y180165D01*
X954014Y180047D01*
X953996Y179919D01*
X953977Y179773D01*
X953959Y179619D01*
Y179455D01*
Y179446D01*
Y179418D01*
Y179373D01*
X953968Y179309D01*
Y179236D01*
X953977Y179154D01*
X954005Y178963D01*
X954050Y178753D01*
X954114Y178534D01*
X954205Y178325D01*
X954260Y178234D01*
X954324Y178143D01*
X954333D01*
X954342Y178125D01*
X954387Y178079D01*
X954469Y178006D01*
X954570Y177933D01*
X954697Y177851D01*
X954852Y177778D01*
X955016Y177733D01*
X955107Y177724D01*
X955198Y177715D01*
X955244D01*
X955280Y177724D01*
X955380Y177733D01*
X955499Y177769D01*
X955635Y177815D01*
X955781Y177888D01*
X955927Y177988D01*
X956000Y178052D01*
X956064Y178125D01*
Y178134D01*
X956082Y178143D01*
X956100Y178170D01*
X956118Y178207D01*
X956146Y178252D01*
X956182Y178298D01*
X956209Y178371D01*
X956246Y178443D01*
X956282Y178525D01*
X956310Y178616D01*
X956346Y178726D01*
X956373Y178835D01*
X956392Y178963D01*
X956410Y179090D01*
X956428Y179236D01*
Y179391D01*
Y179400D01*
Y179436D01*
Y179482D01*
X956419Y179546D01*
Y179619D01*
X956410Y179710D01*
X956401Y179810D01*
X956382Y179919D01*
X956337Y180138D01*
X956273Y180366D01*
X956182Y180584D01*
X956127Y180675D01*
X956064Y180766D01*
Y180776D01*
X956045Y180785D01*
X956000Y180839D01*
X955918Y180912D01*
X955818Y180994D01*
X955690Y181076D01*
X955535Y181140D01*
X955362Y181195D01*
X955271Y181204D01*
X955171Y181213D01*
D02*
G37*
G36*
X912746Y182734D02*
X911252D01*
Y180839D01*
X912800D01*
X912919Y180849D01*
X913046Y180858D01*
X913174Y180867D01*
X913301Y180885D01*
X913402Y180903D01*
X913420Y180912D01*
X913456Y180921D01*
X913511Y180949D01*
X913584Y180985D01*
X913657Y181022D01*
X913739Y181076D01*
X913820Y181149D01*
X913884Y181222D01*
X913893Y181231D01*
X913912Y181258D01*
X913939Y181313D01*
X913966Y181377D01*
X913994Y181450D01*
X914021Y181541D01*
X914039Y181650D01*
X914048Y181769D01*
Y181787D01*
Y181823D01*
X914039Y181878D01*
X914030Y181951D01*
X914012Y182042D01*
X913984Y182133D01*
X913948Y182224D01*
X913893Y182315D01*
X913884Y182324D01*
X913866Y182352D01*
X913830Y182397D01*
X913784Y182443D01*
X913720Y182497D01*
X913647Y182552D01*
X913556Y182607D01*
X913456Y182643D01*
X913447D01*
X913402Y182661D01*
X913338Y182670D01*
X913237Y182689D01*
X913101Y182707D01*
X912946Y182716D01*
X912746Y182734D01*
D02*
G37*
G36*
X912910Y180092D02*
X911252D01*
Y177924D01*
X913046D01*
X913237Y177933D01*
X913319Y177942D01*
X913392Y177952D01*
X913402D01*
X913438Y177961D01*
X913493Y177970D01*
X913556Y177988D01*
X913711Y178043D01*
X913866Y178115D01*
X913875Y178125D01*
X913902Y178143D01*
X913939Y178170D01*
X913984Y178207D01*
X914030Y178261D01*
X914094Y178316D01*
X914139Y178389D01*
X914194Y178471D01*
X914203Y178480D01*
X914212Y178507D01*
X914231Y178562D01*
X914258Y178626D01*
X914285Y178699D01*
X914303Y178790D01*
X914312Y178899D01*
X914322Y179008D01*
Y179026D01*
Y179063D01*
X914312Y179136D01*
X914294Y179218D01*
X914276Y179309D01*
X914240Y179409D01*
X914194Y179509D01*
X914130Y179610D01*
X914121Y179619D01*
X914094Y179655D01*
X914057Y179701D01*
X914003Y179755D01*
X913930Y179819D01*
X913839Y179883D01*
X913739Y179938D01*
X913620Y179983D01*
X913602Y179992D01*
X913566Y180001D01*
X913484Y180019D01*
X913383Y180038D01*
X913256Y180056D01*
X913101Y180074D01*
X912910Y180092D01*
D02*
G37*
G36*
X960236Y181213D02*
X960181D01*
X960145Y181204D01*
X960045Y181195D01*
X959926Y181167D01*
X959781Y181122D01*
X959626Y181058D01*
X959480Y180967D01*
X959334Y180849D01*
X959316Y180830D01*
X959279Y180785D01*
X959216Y180703D01*
X959152Y180593D01*
X959079Y180466D01*
X959015Y180302D01*
X958961Y180111D01*
X958933Y179901D01*
X961493D01*
Y179910D01*
Y179928D01*
X961484Y179956D01*
Y179992D01*
X961466Y180102D01*
X961438Y180220D01*
X961393Y180366D01*
X961347Y180502D01*
X961275Y180639D01*
X961193Y180757D01*
Y180766D01*
X961174Y180776D01*
X961129Y180830D01*
X961047Y180903D01*
X960937Y180985D01*
X960801Y181067D01*
X960637Y181140D01*
X960445Y181195D01*
X960345Y181204D01*
X960236Y181213D01*
D02*
G37*
G36*
X948448D02*
X948393D01*
X948347Y181204D01*
X948247Y181195D01*
X948111Y181158D01*
X947956Y181104D01*
X947792Y181031D01*
X947637Y180921D01*
X947555Y180849D01*
X947482Y180776D01*
Y180766D01*
X947464Y180757D01*
X947445Y180730D01*
X947418Y180694D01*
X947391Y180648D01*
X947364Y180593D01*
X947327Y180520D01*
X947291Y180448D01*
X947254Y180357D01*
X947218Y180265D01*
X947190Y180156D01*
X947163Y180038D01*
X947136Y179910D01*
X947118Y179773D01*
X947108Y179619D01*
X947099Y179464D01*
Y179455D01*
Y179427D01*
Y179382D01*
X947108Y179318D01*
Y179245D01*
X947118Y179163D01*
X947145Y178972D01*
X947190Y178753D01*
X947263Y178534D01*
X947354Y178325D01*
X947418Y178234D01*
X947482Y178143D01*
X947491D01*
X947500Y178125D01*
X947555Y178079D01*
X947637Y178006D01*
X947746Y177933D01*
X947883Y177851D01*
X948047Y177778D01*
X948238Y177733D01*
X948338Y177724D01*
X948448Y177715D01*
X948502D01*
X948548Y177724D01*
X948648Y177742D01*
X948785Y177769D01*
X948930Y177824D01*
X949094Y177897D01*
X949249Y178006D01*
X949331Y178079D01*
X949404Y178152D01*
X949413Y178161D01*
X949422Y178170D01*
X949441Y178198D01*
X949468Y178234D01*
X949495Y178279D01*
X949532Y178334D01*
X949568Y178407D01*
X949605Y178480D01*
X949641Y178571D01*
X949668Y178671D01*
X949705Y178780D01*
X949732Y178899D01*
X949759Y179036D01*
X949778Y179172D01*
X949796Y179327D01*
Y179491D01*
Y179500D01*
Y179527D01*
Y179573D01*
X949787Y179628D01*
Y179701D01*
X949778Y179783D01*
X949750Y179974D01*
X949705Y180174D01*
X949632Y180393D01*
X949532Y180593D01*
X949477Y180694D01*
X949404Y180776D01*
Y180785D01*
X949386Y180794D01*
X949331Y180849D01*
X949249Y180912D01*
X949140Y180994D01*
X949003Y181076D01*
X948839Y181149D01*
X948657Y181195D01*
X948557Y181204D01*
X948448Y181213D01*
D02*
G37*
G36*
X927877D02*
X927823D01*
X927777Y181204D01*
X927677Y181195D01*
X927540Y181158D01*
X927385Y181104D01*
X927221Y181031D01*
X927067Y180921D01*
X926985Y180849D01*
X926912Y180776D01*
Y180766D01*
X926893Y180757D01*
X926875Y180730D01*
X926848Y180694D01*
X926820Y180648D01*
X926793Y180593D01*
X926757Y180520D01*
X926720Y180448D01*
X926684Y180357D01*
X926647Y180265D01*
X926620Y180156D01*
X926593Y180038D01*
X926565Y179910D01*
X926547Y179773D01*
X926538Y179619D01*
X926529Y179464D01*
Y179455D01*
Y179427D01*
Y179382D01*
X926538Y179318D01*
Y179245D01*
X926547Y179163D01*
X926575Y178972D01*
X926620Y178753D01*
X926693Y178534D01*
X926784Y178325D01*
X926848Y178234D01*
X926912Y178143D01*
X926921D01*
X926930Y178125D01*
X926985Y178079D01*
X927067Y178006D01*
X927176Y177933D01*
X927312Y177851D01*
X927476Y177778D01*
X927668Y177733D01*
X927768Y177724D01*
X927877Y177715D01*
X927932D01*
X927977Y177724D01*
X928078Y177742D01*
X928214Y177769D01*
X928360Y177824D01*
X928524Y177897D01*
X928679Y178006D01*
X928761Y178079D01*
X928834Y178152D01*
X928843Y178161D01*
X928852Y178170D01*
X928870Y178198D01*
X928898Y178234D01*
X928925Y178279D01*
X928961Y178334D01*
X928998Y178407D01*
X929034Y178480D01*
X929071Y178571D01*
X929098Y178671D01*
X929134Y178780D01*
X929162Y178899D01*
X929189Y179036D01*
X929207Y179172D01*
X929226Y179327D01*
Y179491D01*
Y179500D01*
Y179527D01*
Y179573D01*
X929216Y179628D01*
Y179701D01*
X929207Y179783D01*
X929180Y179974D01*
X929134Y180174D01*
X929062Y180393D01*
X928961Y180593D01*
X928907Y180694D01*
X928834Y180776D01*
Y180785D01*
X928816Y180794D01*
X928761Y180849D01*
X928679Y180912D01*
X928570Y180994D01*
X928433Y181076D01*
X928269Y181149D01*
X928087Y181195D01*
X927987Y181204D01*
X927877Y181213D01*
D02*
G37*
G36*
X918075D02*
X918020D01*
X917975Y181204D01*
X917875Y181195D01*
X917738Y181158D01*
X917583Y181104D01*
X917419Y181031D01*
X917264Y180921D01*
X917182Y180849D01*
X917109Y180776D01*
Y180766D01*
X917091Y180757D01*
X917073Y180730D01*
X917045Y180694D01*
X917018Y180648D01*
X916991Y180593D01*
X916954Y180520D01*
X916918Y180448D01*
X916881Y180357D01*
X916845Y180265D01*
X916818Y180156D01*
X916790Y180038D01*
X916763Y179910D01*
X916745Y179773D01*
X916736Y179619D01*
X916727Y179464D01*
Y179455D01*
Y179427D01*
Y179382D01*
X916736Y179318D01*
Y179245D01*
X916745Y179163D01*
X916772Y178972D01*
X916818Y178753D01*
X916891Y178534D01*
X916982Y178325D01*
X917045Y178234D01*
X917109Y178143D01*
X917118D01*
X917128Y178125D01*
X917182Y178079D01*
X917264Y178006D01*
X917373Y177933D01*
X917510Y177851D01*
X917674Y177778D01*
X917865Y177733D01*
X917966Y177724D01*
X918075Y177715D01*
X918130D01*
X918175Y177724D01*
X918275Y177742D01*
X918412Y177769D01*
X918558Y177824D01*
X918722Y177897D01*
X918877Y178006D01*
X918959Y178079D01*
X919032Y178152D01*
X919041Y178161D01*
X919050Y178170D01*
X919068Y178198D01*
X919095Y178234D01*
X919123Y178279D01*
X919159Y178334D01*
X919195Y178407D01*
X919232Y178480D01*
X919268Y178571D01*
X919296Y178671D01*
X919332Y178780D01*
X919359Y178899D01*
X919387Y179036D01*
X919405Y179172D01*
X919423Y179327D01*
Y179491D01*
Y179500D01*
Y179527D01*
Y179573D01*
X919414Y179628D01*
Y179701D01*
X919405Y179783D01*
X919378Y179974D01*
X919332Y180174D01*
X919259Y180393D01*
X919159Y180593D01*
X919104Y180694D01*
X919032Y180776D01*
Y180785D01*
X919013Y180794D01*
X918959Y180849D01*
X918877Y180912D01*
X918767Y180994D01*
X918631Y181076D01*
X918467Y181149D01*
X918284Y181195D01*
X918184Y181204D01*
X918075Y181213D01*
D02*
G37*
%LPD*%
D10*
X276626Y672654D02*
G03*
X261531Y656264I435J-15546D01*
G01*
X561803Y665073D02*
G03*
X550626Y672654I-11018J-4215D01*
G01*
X563022Y661886D02*
G03*
X573076Y654642I10532J4019D01*
G01*
X623365Y641708D02*
G03*
X610925Y654642I-12687J247D01*
G01*
X609075Y337545D02*
G03*
X623365Y351914I30J14260D01*
G01*
X577417Y337545D02*
G03*
X565059Y330674I31J-14604D01*
G01*
X550000Y322736D02*
G03*
X565059Y330674I661J17000D01*
G01*
X290174Y325762D02*
G03*
X296457Y322736I6097J4625D01*
G01*
X290271Y325688D02*
G03*
X281693Y329653I-8805J-7785D01*
G01*
X261532Y341993D02*
G03*
X274182Y329653I12282J-63D01*
G01*
X561803Y665073D02*
X563022Y661886D01*
X276626Y672654D02*
X550785D01*
X573076Y654642D02*
X577020D01*
X610925D01*
X623365Y351914D02*
Y641708D01*
X577417Y337545D02*
X609105D01*
X296457Y322736D02*
X550000D01*
X274182Y329653D02*
X281693D01*
X261531Y656264D02*
X261532Y341993D01*
D16*
X299902Y663240D02*
G03*
X300689Y662453I787J0D01*
G01*
X313681D02*
G03*
X314469Y663240I0J787D01*
G01*
Y669539D02*
G03*
X313681Y670327I-787J-0D01*
G01*
X300689D02*
G03*
X299902Y669539I-0J-787D01*
G01*
X299902Y663240D02*
Y669539D01*
X300689Y662453D02*
X313681D01*
X300689Y670327D02*
X313681D01*
X314469Y663240D02*
Y669539D01*
D48*
X307185Y666390D02*
D03*
D50*
X339469Y407983D02*
D03*
Y400700D02*
D03*
X557087Y385728D02*
D03*
Y393012D02*
D03*
X533169Y461909D02*
D03*
Y454626D02*
D03*
X523622Y373524D02*
D03*
Y380807D02*
D03*
D66*
X525295Y455000D02*
D03*
Y462323D02*
D03*
X531496Y373504D02*
D03*
Y380827D02*
D03*
D69*
X478051Y366339D02*
D03*
X470768D02*
D03*
X532972Y342520D02*
D03*
X540256D02*
D03*
X393406Y390551D02*
D03*
X400689D02*
D03*
D71*
X554268Y621575D02*
D03*
X562268D02*
D03*
X554268Y611575D02*
D03*
X562268D02*
D03*
X555055Y431102D02*
D03*
X563055D02*
D03*
X555055Y440945D02*
D03*
X563055D02*
D03*
X555055Y450394D02*
D03*
X563055D02*
D03*
X555449Y421654D02*
D03*
X563449D02*
D03*
X372110Y438646D02*
D03*
X364110D02*
D03*
X549202Y393307D02*
D03*
X541202D02*
D03*
D72*
X354597Y415122D02*
D03*
Y407122D02*
D03*
X331729Y408172D02*
D03*
Y400172D02*
D03*
X531496Y394425D02*
D03*
Y402425D02*
D03*
X332677Y438725D02*
D03*
Y430725D02*
D03*
X341732Y438646D02*
D03*
Y430646D02*
D03*
X314961Y430615D02*
D03*
Y438615D02*
D03*
X323819Y430615D02*
D03*
Y438615D02*
D03*
X301014Y354858D02*
D03*
Y362858D02*
D03*
D74*
X271260Y634744D02*
D03*
X586692Y346063D02*
D03*
X515453Y631496D02*
D03*
D75*
X475394Y332513D02*
D03*
X271778Y528622D02*
D03*
X581181Y621575D02*
D03*
X601161D02*
D03*
X271654Y600216D02*
D03*
X563976Y501575D02*
D03*
D76*
X475394Y342513D02*
D03*
X271778Y518622D02*
D03*
X393425Y342480D02*
D03*
X403425D02*
D03*
X413425D02*
D03*
X423425D02*
D03*
X433425D02*
D03*
X443425D02*
D03*
X453425D02*
D03*
Y332480D02*
D03*
X443425D02*
D03*
X433425D02*
D03*
X423425D02*
D03*
X413425D02*
D03*
X403425D02*
D03*
X591181Y381575D02*
D03*
X581181D02*
D03*
X591181Y391575D02*
D03*
X581181D02*
D03*
X591181Y401575D02*
D03*
X581181D02*
D03*
X591181Y411575D02*
D03*
X581181D02*
D03*
X591181Y421575D02*
D03*
X581181D02*
D03*
X591181Y431575D02*
D03*
X581181D02*
D03*
X591181Y441575D02*
D03*
X581181D02*
D03*
X591181Y451575D02*
D03*
X581181D02*
D03*
X591181Y461575D02*
D03*
X581181D02*
D03*
X591181Y471575D02*
D03*
X581181D02*
D03*
X591181Y481575D02*
D03*
X581181D02*
D03*
X591181Y501575D02*
D03*
X581181D02*
D03*
X591181Y511575D02*
D03*
X581181D02*
D03*
X591181Y521575D02*
D03*
X581181D02*
D03*
X591181Y531575D02*
D03*
X581181D02*
D03*
X591181Y541575D02*
D03*
X581181Y541476D02*
D03*
X591181Y551575D02*
D03*
X581181D02*
D03*
X591181Y561575D02*
D03*
X581181D02*
D03*
X591181Y571575D02*
D03*
X581181D02*
D03*
X591181Y581575D02*
D03*
X581181D02*
D03*
X591181Y591575D02*
D03*
X581181D02*
D03*
X591181Y601575D02*
D03*
X581181D02*
D03*
X591181Y611575D02*
D03*
X581181D02*
D03*
X591181Y621575D02*
D03*
X581181Y371575D02*
D03*
X591181D02*
D03*
X611181D02*
D03*
X601181D02*
D03*
X611181Y621575D02*
D03*
X601181Y611575D02*
D03*
X611181D02*
D03*
X601181Y601575D02*
D03*
X611181D02*
D03*
X601181Y591575D02*
D03*
X611181D02*
D03*
X601161Y581575D02*
D03*
X611181D02*
D03*
X601161Y571575D02*
D03*
X611181D02*
D03*
X601181Y561575D02*
D03*
X611181D02*
D03*
X601181Y551575D02*
D03*
X611181D02*
D03*
X601181Y541476D02*
D03*
X611181Y541575D02*
D03*
X601181Y531575D02*
D03*
X611181D02*
D03*
X601181Y521575D02*
D03*
X611181D02*
D03*
X601181Y511575D02*
D03*
X611181D02*
D03*
X601181Y501575D02*
D03*
X611181D02*
D03*
X601181Y491575D02*
D03*
X611181D02*
D03*
X601181Y481575D02*
D03*
X611181D02*
D03*
X601181Y471575D02*
D03*
X611181D02*
D03*
X601181Y461575D02*
D03*
X611181D02*
D03*
X601181Y451575D02*
D03*
X611181D02*
D03*
X601181Y441575D02*
D03*
X611181D02*
D03*
X601181Y431575D02*
D03*
X611181D02*
D03*
X601181Y421575D02*
D03*
X611181D02*
D03*
X601181Y411575D02*
D03*
X611181D02*
D03*
X601181Y401575D02*
D03*
X611181D02*
D03*
X601181Y391575D02*
D03*
X611181D02*
D03*
X601181Y381575D02*
D03*
X611181D02*
D03*
X591181Y491575D02*
D03*
X581181D02*
D03*
X271654Y550216D02*
D03*
Y560217D02*
D03*
Y570217D02*
D03*
Y580217D02*
D03*
Y590216D02*
D03*
X563976Y491575D02*
D03*
Y481575D02*
D03*
Y471575D02*
D03*
D77*
X393425Y332480D02*
D03*
D78*
X541732Y333013D02*
D03*
X318307Y334547D02*
D03*
X311713Y334646D02*
D03*
X546457Y433268D02*
D03*
X546426Y440390D02*
D03*
Y447047D02*
D03*
X529921Y414173D02*
D03*
X464468Y368307D02*
D03*
X491240Y544488D02*
D03*
X479035Y547835D02*
D03*
X479134Y541142D02*
D03*
Y534449D02*
D03*
X491339Y530512D02*
D03*
X311122Y354921D02*
D03*
X311024Y361614D02*
D03*
X418799Y357579D02*
D03*
X425492Y356496D02*
D03*
X564886Y461997D02*
D03*
X479035Y527559D02*
D03*
X320276Y572835D02*
D03*
X383366D02*
D03*
X376870Y580020D02*
D03*
X313681Y590216D02*
D03*
Y596654D02*
D03*
X493110Y511221D02*
D03*
X499606Y508268D02*
D03*
X517913Y412992D02*
D03*
X497539Y344193D02*
D03*
X306791Y563189D02*
D03*
X552075Y365323D02*
D03*
X285925Y400689D02*
D03*
X334055Y424606D02*
D03*
X306004D02*
D03*
X322047D02*
D03*
X436067Y464983D02*
D03*
X393996Y504724D02*
D03*
X384055Y454429D02*
D03*
X395669Y494557D02*
D03*
X368012Y432185D02*
D03*
X361417Y431979D02*
D03*
X354429Y495768D02*
D03*
X434842Y547441D02*
D03*
X434941Y554214D02*
D03*
X434784Y540689D02*
D03*
X434842Y534252D02*
D03*
X349705Y605020D02*
D03*
X357874Y604823D02*
D03*
X426476Y496457D02*
D03*
X436067Y471654D02*
D03*
X420866Y364173D02*
D03*
X413413Y377165D02*
D03*
D79*
X307087Y503937D02*
D03*
X611200Y641700D02*
D03*
X535433Y645669D02*
D03*
X307087D02*
D03*
X273933Y656843D02*
D03*
Y341783D02*
D03*
X611236Y351626D02*
D03*
X535433Y503937D02*
D03*
D80*
X346457Y557087D02*
D03*
Y592520D02*
D03*
D81*
X352165Y474606D02*
D03*
X402658Y415354D02*
D03*
X509661Y461221D02*
D03*
X289764Y443110D02*
D03*
X341339Y474606D02*
D03*
X332677Y605315D02*
D03*
X494291Y388825D02*
D03*
X556595Y582283D02*
D03*
X411319Y661221D02*
D03*
X408563Y349508D02*
D03*
D104*
X538681Y380807D02*
D03*
X541240D02*
D03*
X543799D02*
D03*
X546358D02*
D03*
X543799Y364862D02*
D03*
X546358D02*
D03*
X541240D02*
D03*
X538681D02*
D03*
D105*
X532972Y350492D02*
D03*
Y354232D02*
D03*
X546555Y350394D02*
D03*
Y354134D02*
D03*
D106*
X477041Y417297D02*
D03*
X471384Y411640D02*
D03*
X317250Y377880D02*
D03*
X322907Y383537D02*
D03*
X467297Y380880D02*
D03*
X461640Y375223D02*
D03*
D107*
X400747Y425398D02*
D03*
X405897Y430548D02*
D03*
X459586Y388402D02*
D03*
X454436Y383252D02*
D03*
D108*
X410761Y426113D02*
D03*
X405583Y420935D02*
D03*
X449304Y388356D02*
D03*
X454482Y393534D02*
D03*
D109*
X393681Y383268D02*
D03*
X401004D02*
D03*
D110*
X472073Y397042D02*
D03*
X477730Y391385D02*
D03*
X458856Y409871D02*
D03*
X464513Y404214D02*
D03*
X479554Y403911D02*
D03*
X485210Y398254D02*
D03*
M02*
