G04*
G04 #@! TF.GenerationSoftware,Altium Limited,Altium Designer,18.1.7 (191)*
G04*
G04 Layer_Color=16776960*
%FSLAX25Y25*%
%MOIN*%
G70*
G01*
G75*
%ADD10C,0.01000*%
%ADD16C,0.00787*%
G36*
X940973Y182607D02*
X940195D01*
Y183491D01*
X940973D01*
Y182607D01*
D02*
G37*
G36*
X917457D02*
X916679D01*
Y183491D01*
X917457D01*
Y182607D01*
D02*
G37*
G36*
X949353Y181848D02*
X949449Y181838D01*
X949564Y181819D01*
X949699Y181790D01*
X949824Y181752D01*
X949959Y181703D01*
X949978Y181694D01*
X950016Y181675D01*
X950074Y181646D01*
X950151Y181598D01*
X950237Y181540D01*
X950324Y181473D01*
X950410Y181396D01*
X950478Y181309D01*
X950487Y181300D01*
X950506Y181271D01*
X950535Y181213D01*
X950574Y181146D01*
X950612Y181069D01*
X950651Y180973D01*
X950689Y180858D01*
X950718Y180743D01*
Y180733D01*
X950727Y180704D01*
X950737Y180646D01*
X950747Y180570D01*
Y180464D01*
X950756Y180329D01*
X950766Y180175D01*
Y179983D01*
Y177177D01*
X949987D01*
Y179954D01*
Y179964D01*
Y179974D01*
Y180031D01*
Y180118D01*
X949978Y180224D01*
X949968Y180329D01*
X949949Y180454D01*
X949920Y180560D01*
X949891Y180656D01*
Y180666D01*
X949872Y180694D01*
X949853Y180743D01*
X949824Y180790D01*
X949776Y180858D01*
X949718Y180915D01*
X949651Y180983D01*
X949574Y181040D01*
X949564Y181050D01*
X949536Y181060D01*
X949488Y181088D01*
X949420Y181117D01*
X949343Y181137D01*
X949247Y181165D01*
X949151Y181175D01*
X949036Y181184D01*
X948950D01*
X948863Y181165D01*
X948738Y181146D01*
X948604Y181108D01*
X948469Y181050D01*
X948315Y180973D01*
X948181Y180867D01*
X948162Y180848D01*
X948123Y180800D01*
X948065Y180723D01*
X948036Y180666D01*
X948008Y180598D01*
X947969Y180521D01*
X947940Y180435D01*
X947912Y180339D01*
X947883Y180233D01*
X947854Y180108D01*
X947844Y179974D01*
X947825Y179830D01*
Y179676D01*
Y177177D01*
X947047D01*
Y181752D01*
X947748D01*
Y181098D01*
X947758Y181108D01*
X947768Y181127D01*
X947796Y181165D01*
X947844Y181213D01*
X947892Y181271D01*
X947960Y181338D01*
X948027Y181405D01*
X948113Y181482D01*
X948219Y181550D01*
X948325Y181617D01*
X948440Y181684D01*
X948575Y181742D01*
X948709Y181790D01*
X948863Y181828D01*
X949026Y181848D01*
X949199Y181857D01*
X949267D01*
X949353Y181848D01*
D02*
G37*
G36*
X933179D02*
X933276Y181838D01*
X933391Y181819D01*
X933525Y181790D01*
X933650Y181752D01*
X933785Y181703D01*
X933804Y181694D01*
X933843Y181675D01*
X933900Y181646D01*
X933977Y181598D01*
X934064Y181540D01*
X934150Y181473D01*
X934237Y181396D01*
X934304Y181309D01*
X934313Y181300D01*
X934333Y181271D01*
X934361Y181213D01*
X934400Y181146D01*
X934438Y181069D01*
X934477Y180973D01*
X934515Y180858D01*
X934544Y180743D01*
Y180733D01*
X934554Y180704D01*
X934563Y180646D01*
X934573Y180570D01*
Y180464D01*
X934583Y180329D01*
X934592Y180175D01*
Y179983D01*
Y177177D01*
X933814D01*
Y179954D01*
Y179964D01*
Y179974D01*
Y180031D01*
Y180118D01*
X933804Y180224D01*
X933794Y180329D01*
X933775Y180454D01*
X933747Y180560D01*
X933718Y180656D01*
Y180666D01*
X933698Y180694D01*
X933679Y180743D01*
X933650Y180790D01*
X933602Y180858D01*
X933545Y180915D01*
X933477Y180983D01*
X933401Y181040D01*
X933391Y181050D01*
X933362Y181060D01*
X933314Y181088D01*
X933247Y181117D01*
X933170Y181137D01*
X933074Y181165D01*
X932978Y181175D01*
X932862Y181184D01*
X932776D01*
X932689Y181165D01*
X932564Y181146D01*
X932430Y181108D01*
X932295Y181050D01*
X932142Y180973D01*
X932007Y180867D01*
X931988Y180848D01*
X931949Y180800D01*
X931892Y180723D01*
X931863Y180666D01*
X931834Y180598D01*
X931796Y180521D01*
X931767Y180435D01*
X931738Y180339D01*
X931709Y180233D01*
X931680Y180108D01*
X931671Y179974D01*
X931651Y179830D01*
Y179676D01*
Y177177D01*
X930873D01*
Y181752D01*
X931575D01*
Y181098D01*
X931584Y181108D01*
X931594Y181127D01*
X931623Y181165D01*
X931671Y181213D01*
X931719Y181271D01*
X931786Y181338D01*
X931853Y181405D01*
X931940Y181482D01*
X932045Y181550D01*
X932151Y181617D01*
X932267Y181684D01*
X932401Y181742D01*
X932536Y181790D01*
X932689Y181828D01*
X932853Y181848D01*
X933026Y181857D01*
X933093D01*
X933179Y181848D01*
D02*
G37*
G36*
X923541D02*
X923598D01*
X923666Y181838D01*
X923810Y181809D01*
X923983Y181761D01*
X924156Y181694D01*
X924319Y181598D01*
X924473Y181473D01*
X924492Y181454D01*
X924531Y181405D01*
X924588Y181309D01*
X924665Y181184D01*
X924732Y181021D01*
X924790Y180829D01*
X924828Y180589D01*
X924848Y180454D01*
Y180310D01*
Y177177D01*
X924069D01*
Y180051D01*
Y180060D01*
Y180070D01*
Y180127D01*
Y180214D01*
X924060Y180310D01*
X924040Y180531D01*
X924021Y180637D01*
X923992Y180723D01*
Y180733D01*
X923973Y180762D01*
X923954Y180800D01*
X923925Y180848D01*
X923887Y180896D01*
X923839Y180954D01*
X923781Y181011D01*
X923714Y181060D01*
X923704Y181069D01*
X923675Y181079D01*
X923637Y181098D01*
X923589Y181127D01*
X923521Y181146D01*
X923435Y181165D01*
X923349Y181175D01*
X923252Y181184D01*
X923176D01*
X923079Y181165D01*
X922974Y181146D01*
X922849Y181108D01*
X922714Y181050D01*
X922570Y180964D01*
X922445Y180858D01*
X922435Y180839D01*
X922397Y180800D01*
X922349Y180723D01*
X922291Y180608D01*
X922224Y180464D01*
X922176Y180291D01*
X922138Y180079D01*
X922128Y179830D01*
Y177177D01*
X921350D01*
Y180147D01*
Y180156D01*
Y180166D01*
Y180195D01*
Y180233D01*
X921340Y180329D01*
X921330Y180435D01*
X921301Y180570D01*
X921273Y180694D01*
X921225Y180819D01*
X921157Y180925D01*
X921148Y180935D01*
X921119Y180964D01*
X921080Y181011D01*
X921013Y181060D01*
X920927Y181098D01*
X920821Y181146D01*
X920696Y181175D01*
X920542Y181184D01*
X920485D01*
X920427Y181175D01*
X920341Y181165D01*
X920254Y181146D01*
X920148Y181108D01*
X920043Y181069D01*
X919937Y181011D01*
X919927Y181002D01*
X919889Y180983D01*
X919841Y180935D01*
X919783Y180887D01*
X919716Y180810D01*
X919649Y180723D01*
X919591Y180617D01*
X919533Y180502D01*
X919524Y180483D01*
X919514Y180445D01*
X919495Y180368D01*
X919476Y180262D01*
X919447Y180127D01*
X919428Y179964D01*
X919418Y179772D01*
X919408Y179551D01*
Y177177D01*
X918630D01*
Y181752D01*
X919322D01*
Y181108D01*
X919331Y181127D01*
X919360Y181165D01*
X919408Y181223D01*
X919476Y181300D01*
X919553Y181386D01*
X919649Y181473D01*
X919764Y181569D01*
X919889Y181646D01*
X919908Y181655D01*
X919956Y181675D01*
X920033Y181713D01*
X920129Y181752D01*
X920254Y181790D01*
X920389Y181828D01*
X920552Y181848D01*
X920715Y181857D01*
X920802D01*
X920898Y181848D01*
X921013Y181828D01*
X921138Y181809D01*
X921282Y181771D01*
X921417Y181713D01*
X921542Y181646D01*
X921561Y181636D01*
X921599Y181607D01*
X921657Y181559D01*
X921724Y181492D01*
X921801Y181405D01*
X921878Y181309D01*
X921945Y181184D01*
X922003Y181050D01*
X922013Y181060D01*
X922032Y181088D01*
X922061Y181127D01*
X922099Y181175D01*
X922157Y181242D01*
X922224Y181309D01*
X922301Y181377D01*
X922387Y181454D01*
X922484Y181530D01*
X922589Y181598D01*
X922839Y181732D01*
X922974Y181780D01*
X923118Y181819D01*
X923262Y181848D01*
X923425Y181857D01*
X923493D01*
X923541Y181848D01*
D02*
G37*
G36*
X937465D02*
X937591Y181838D01*
X937744Y181819D01*
X937898Y181790D01*
X938061Y181752D01*
X938215Y181694D01*
X938225D01*
X938234Y181684D01*
X938282Y181665D01*
X938359Y181627D01*
X938446Y181588D01*
X938542Y181521D01*
X938648Y181454D01*
X938744Y181367D01*
X938821Y181271D01*
X938830Y181261D01*
X938849Y181223D01*
X938888Y181165D01*
X938936Y181088D01*
X938974Y180992D01*
X939022Y180867D01*
X939061Y180733D01*
X939099Y180579D01*
X938340Y180473D01*
Y180493D01*
X938330Y180531D01*
X938311Y180598D01*
X938282Y180675D01*
X938244Y180762D01*
X938186Y180848D01*
X938119Y180944D01*
X938033Y181021D01*
X938023Y181031D01*
X937984Y181050D01*
X937927Y181088D01*
X937850Y181127D01*
X937754Y181156D01*
X937629Y181194D01*
X937494Y181213D01*
X937331Y181223D01*
X937245D01*
X937148Y181213D01*
X937033Y181204D01*
X936908Y181175D01*
X936783Y181146D01*
X936658Y181098D01*
X936562Y181040D01*
X936553Y181031D01*
X936524Y181011D01*
X936495Y180973D01*
X936456Y180925D01*
X936408Y180867D01*
X936380Y180790D01*
X936351Y180714D01*
X936341Y180627D01*
Y180617D01*
Y180598D01*
X936351Y180570D01*
Y180531D01*
X936380Y180445D01*
X936428Y180349D01*
X936437Y180339D01*
X936447Y180329D01*
X936504Y180281D01*
X936543Y180243D01*
X936591Y180214D01*
X936658Y180175D01*
X936726Y180147D01*
X936735D01*
X936754Y180137D01*
X936793Y180127D01*
X936860Y180108D01*
X936947Y180079D01*
X937072Y180041D01*
X937225Y180002D01*
X937312Y179974D01*
X937418Y179945D01*
X937427D01*
X937456Y179935D01*
X937494Y179926D01*
X937552Y179906D01*
X937619Y179887D01*
X937696Y179868D01*
X937869Y179820D01*
X938061Y179762D01*
X938254Y179695D01*
X938426Y179637D01*
X938503Y179609D01*
X938571Y179580D01*
X938590Y179570D01*
X938628Y179551D01*
X938686Y179522D01*
X938753Y179483D01*
X938840Y179426D01*
X938926Y179349D01*
X939003Y179272D01*
X939080Y179176D01*
X939090Y179166D01*
X939109Y179128D01*
X939138Y179070D01*
X939176Y178993D01*
X939215Y178897D01*
X939243Y178782D01*
X939263Y178657D01*
X939272Y178513D01*
Y178494D01*
Y178446D01*
X939263Y178369D01*
X939243Y178282D01*
X939215Y178167D01*
X939176Y178042D01*
X939118Y177917D01*
X939042Y177783D01*
X939032Y177763D01*
X939003Y177725D01*
X938945Y177667D01*
X938869Y177590D01*
X938782Y177504D01*
X938667Y177417D01*
X938532Y177331D01*
X938379Y177254D01*
X938359Y177244D01*
X938302Y177225D01*
X938215Y177196D01*
X938100Y177167D01*
X937956Y177129D01*
X937792Y177100D01*
X937610Y177081D01*
X937418Y177071D01*
X937331D01*
X937273Y177081D01*
X937197D01*
X937110Y177091D01*
X936908Y177120D01*
X936687Y177158D01*
X936466Y177225D01*
X936245Y177312D01*
X936149Y177369D01*
X936053Y177437D01*
X936043D01*
X936034Y177456D01*
X935976Y177504D01*
X935899Y177590D01*
X935803Y177715D01*
X935707Y177869D01*
X935611Y178061D01*
X935524Y178282D01*
X935467Y178542D01*
X936236Y178667D01*
Y178657D01*
Y178647D01*
X936245Y178590D01*
X936274Y178503D01*
X936303Y178398D01*
X936351Y178282D01*
X936408Y178167D01*
X936495Y178052D01*
X936591Y177946D01*
X936601Y177936D01*
X936649Y177908D01*
X936716Y177869D01*
X936802Y177831D01*
X936927Y177783D01*
X937062Y177744D01*
X937235Y177715D01*
X937418Y177706D01*
X937504D01*
X937600Y177715D01*
X937715Y177734D01*
X937850Y177754D01*
X937984Y177792D01*
X938109Y177850D01*
X938215Y177917D01*
X938225Y177927D01*
X938254Y177956D01*
X938302Y178004D01*
X938350Y178061D01*
X938388Y178138D01*
X938436Y178234D01*
X938465Y178330D01*
X938475Y178436D01*
Y178446D01*
Y178484D01*
X938465Y178523D01*
X938446Y178590D01*
X938417Y178647D01*
X938379Y178724D01*
X938321Y178792D01*
X938244Y178849D01*
X938234Y178859D01*
X938206Y178868D01*
X938157Y178888D01*
X938081Y178926D01*
X937975Y178955D01*
X937840Y179003D01*
X937754Y179032D01*
X937667Y179051D01*
X937562Y179080D01*
X937446Y179109D01*
X937437D01*
X937408Y179118D01*
X937369Y179128D01*
X937312Y179147D01*
X937235Y179166D01*
X937158Y179186D01*
X936975Y179243D01*
X936783Y179301D01*
X936581Y179359D01*
X936399Y179426D01*
X936322Y179455D01*
X936255Y179483D01*
X936245Y179493D01*
X936197Y179512D01*
X936139Y179551D01*
X936072Y179599D01*
X935986Y179657D01*
X935909Y179733D01*
X935822Y179820D01*
X935755Y179916D01*
X935745Y179926D01*
X935726Y179964D01*
X935707Y180022D01*
X935678Y180099D01*
X935640Y180185D01*
X935620Y180291D01*
X935601Y180406D01*
X935592Y180531D01*
Y180541D01*
Y180579D01*
X935601Y180646D01*
X935611Y180714D01*
X935620Y180800D01*
X935649Y180896D01*
X935678Y181002D01*
X935726Y181098D01*
X935736Y181108D01*
X935755Y181146D01*
X935784Y181194D01*
X935832Y181252D01*
X935880Y181319D01*
X935947Y181386D01*
X936024Y181463D01*
X936110Y181530D01*
X936120Y181540D01*
X936149Y181550D01*
X936187Y181579D01*
X936245Y181607D01*
X936312Y181646D01*
X936399Y181684D01*
X936495Y181723D01*
X936601Y181761D01*
X936620D01*
X936658Y181780D01*
X936716Y181790D01*
X936802Y181809D01*
X936908Y181828D01*
X937014Y181838D01*
X937139Y181857D01*
X937360D01*
X937465Y181848D01*
D02*
G37*
G36*
X940973Y177177D02*
X940195D01*
Y181752D01*
X940973D01*
Y177177D01*
D02*
G37*
G36*
X917457D02*
X916679D01*
Y181752D01*
X917457D01*
Y177177D01*
D02*
G37*
G36*
X912998Y183481D02*
X913171Y183472D01*
X913364Y183452D01*
X913546Y183424D01*
X913700Y183395D01*
X913710D01*
X913729Y183385D01*
X913748D01*
X913787Y183366D01*
X913892Y183337D01*
X914017Y183289D01*
X914161Y183231D01*
X914315Y183155D01*
X914469Y183059D01*
X914623Y182943D01*
X914632D01*
X914642Y182924D01*
X914709Y182866D01*
X914796Y182770D01*
X914901Y182645D01*
X915026Y182492D01*
X915151Y182309D01*
X915266Y182097D01*
X915372Y181857D01*
Y181848D01*
X915382Y181828D01*
X915391Y181790D01*
X915411Y181742D01*
X915430Y181684D01*
X915449Y181607D01*
X915478Y181521D01*
X915497Y181425D01*
X915516Y181319D01*
X915545Y181204D01*
X915584Y180954D01*
X915612Y180675D01*
X915622Y180368D01*
Y180358D01*
Y180339D01*
Y180300D01*
Y180243D01*
X915612Y180185D01*
Y180108D01*
X915603Y179935D01*
X915584Y179743D01*
X915545Y179522D01*
X915507Y179301D01*
X915449Y179089D01*
Y179080D01*
X915439Y179061D01*
X915430Y179032D01*
X915420Y178993D01*
X915382Y178897D01*
X915334Y178763D01*
X915276Y178619D01*
X915199Y178465D01*
X915113Y178311D01*
X915017Y178167D01*
X915007Y178148D01*
X914968Y178109D01*
X914921Y178042D01*
X914844Y177956D01*
X914767Y177869D01*
X914661Y177773D01*
X914555Y177677D01*
X914440Y177590D01*
X914430Y177581D01*
X914382Y177562D01*
X914315Y177523D01*
X914229Y177475D01*
X914123Y177427D01*
X913998Y177379D01*
X913854Y177331D01*
X913690Y177283D01*
X913671D01*
X913614Y177264D01*
X913527Y177254D01*
X913402Y177235D01*
X913258Y177216D01*
X913085Y177196D01*
X912893Y177187D01*
X912681Y177177D01*
X910413D01*
Y183491D01*
X912835D01*
X912998Y183481D01*
D02*
G37*
G36*
X944154Y181848D02*
X944241Y181838D01*
X944327Y181828D01*
X944433Y181809D01*
X944548Y181780D01*
X944788Y181703D01*
X944913Y181655D01*
X945048Y181598D01*
X945173Y181521D01*
X945298Y181434D01*
X945423Y181338D01*
X945538Y181233D01*
X945548Y181223D01*
X945567Y181204D01*
X945596Y181165D01*
X945634Y181117D01*
X945682Y181060D01*
X945730Y180983D01*
X945788Y180887D01*
X945846Y180790D01*
X945893Y180675D01*
X945951Y180541D01*
X945999Y180406D01*
X946047Y180252D01*
X946086Y180089D01*
X946115Y179906D01*
X946134Y179724D01*
X946143Y179522D01*
Y179512D01*
Y179483D01*
Y179436D01*
Y179378D01*
X946134Y179301D01*
Y179215D01*
X946124Y179118D01*
X946115Y179013D01*
X946076Y178792D01*
X946028Y178561D01*
X945961Y178330D01*
X945874Y178129D01*
Y178119D01*
X945865Y178109D01*
X945826Y178042D01*
X945759Y177956D01*
X945673Y177840D01*
X945567Y177715D01*
X945432Y177590D01*
X945278Y177465D01*
X945096Y177350D01*
X945086D01*
X945077Y177340D01*
X945048Y177321D01*
X945009Y177312D01*
X944904Y177264D01*
X944769Y177216D01*
X944606Y177158D01*
X944423Y177120D01*
X944221Y177081D01*
X944000Y177071D01*
X943904D01*
X943837Y177081D01*
X943760Y177091D01*
X943664Y177100D01*
X943558Y177120D01*
X943443Y177148D01*
X943203Y177225D01*
X943068Y177273D01*
X942943Y177331D01*
X942809Y177398D01*
X942684Y177485D01*
X942559Y177581D01*
X942443Y177687D01*
X942434Y177696D01*
X942415Y177715D01*
X942386Y177754D01*
X942357Y177802D01*
X942309Y177869D01*
X942261Y177946D01*
X942203Y178032D01*
X942155Y178138D01*
X942098Y178263D01*
X942040Y178388D01*
X941992Y178542D01*
X941953Y178695D01*
X941915Y178868D01*
X941886Y179051D01*
X941867Y179253D01*
X941857Y179464D01*
Y179483D01*
Y179522D01*
X941867Y179589D01*
Y179676D01*
X941877Y179781D01*
X941896Y179897D01*
X941915Y180031D01*
X941944Y180175D01*
X941982Y180329D01*
X942030Y180483D01*
X942088Y180637D01*
X942155Y180790D01*
X942232Y180944D01*
X942328Y181088D01*
X942434Y181223D01*
X942559Y181348D01*
X942568Y181358D01*
X942588Y181367D01*
X942616Y181396D01*
X942665Y181425D01*
X942722Y181463D01*
X942789Y181511D01*
X942866Y181559D01*
X942962Y181607D01*
X943059Y181646D01*
X943164Y181694D01*
X943414Y181780D01*
X943693Y181838D01*
X943847Y181848D01*
X944000Y181857D01*
X944087D01*
X944154Y181848D01*
D02*
G37*
G36*
X928000D02*
X928077Y181838D01*
X928173Y181828D01*
X928269Y181809D01*
X928384Y181780D01*
X928615Y181703D01*
X928740Y181655D01*
X928865Y181588D01*
X928990Y181521D01*
X929115Y181434D01*
X929230Y181338D01*
X929345Y181223D01*
X929355Y181213D01*
X929374Y181194D01*
X929403Y181156D01*
X929441Y181108D01*
X929480Y181040D01*
X929528Y180964D01*
X929585Y180877D01*
X929643Y180771D01*
X929691Y180646D01*
X929749Y180521D01*
X929797Y180377D01*
X929845Y180214D01*
X929874Y180051D01*
X929902Y179868D01*
X929922Y179676D01*
X929931Y179464D01*
Y179455D01*
Y179416D01*
Y179349D01*
X929922Y179262D01*
X926520D01*
Y179253D01*
Y179234D01*
X926529Y179186D01*
Y179138D01*
X926539Y179070D01*
X926549Y179003D01*
X926587Y178830D01*
X926645Y178647D01*
X926712Y178455D01*
X926818Y178263D01*
X926943Y178100D01*
X926962Y178080D01*
X927010Y178042D01*
X927096Y177975D01*
X927202Y177908D01*
X927346Y177831D01*
X927510Y177763D01*
X927692Y177725D01*
X927894Y177706D01*
X927971D01*
X928048Y177715D01*
X928144Y177734D01*
X928259Y177763D01*
X928384Y177802D01*
X928509Y177850D01*
X928624Y177927D01*
X928634Y177936D01*
X928672Y177975D01*
X928730Y178023D01*
X928797Y178109D01*
X928874Y178205D01*
X928951Y178330D01*
X929028Y178484D01*
X929105Y178657D01*
X929902Y178551D01*
Y178542D01*
X929893Y178523D01*
X929883Y178484D01*
X929864Y178436D01*
X929845Y178378D01*
X929816Y178311D01*
X929739Y178148D01*
X929643Y177975D01*
X929528Y177792D01*
X929374Y177610D01*
X929201Y177456D01*
X929191D01*
X929182Y177437D01*
X929153Y177417D01*
X929105Y177398D01*
X929057Y177369D01*
X928999Y177331D01*
X928932Y177302D01*
X928845Y177264D01*
X928663Y177196D01*
X928432Y177129D01*
X928182Y177091D01*
X927894Y177071D01*
X927798D01*
X927731Y177081D01*
X927644Y177091D01*
X927548Y177100D01*
X927442Y177120D01*
X927317Y177148D01*
X927067Y177225D01*
X926933Y177273D01*
X926808Y177331D01*
X926674Y177398D01*
X926549Y177485D01*
X926424Y177581D01*
X926308Y177687D01*
X926299Y177696D01*
X926280Y177715D01*
X926251Y177754D01*
X926222Y177802D01*
X926174Y177859D01*
X926126Y177936D01*
X926068Y178032D01*
X926020Y178138D01*
X925962Y178253D01*
X925905Y178378D01*
X925857Y178523D01*
X925818Y178676D01*
X925780Y178840D01*
X925751Y179022D01*
X925732Y179215D01*
X925722Y179416D01*
Y179426D01*
Y179464D01*
Y179532D01*
X925732Y179609D01*
X925741Y179705D01*
X925751Y179820D01*
X925770Y179945D01*
X925799Y180079D01*
X925866Y180368D01*
X925914Y180512D01*
X925972Y180666D01*
X926039Y180810D01*
X926116Y180954D01*
X926203Y181088D01*
X926308Y181213D01*
X926318Y181223D01*
X926337Y181242D01*
X926366Y181271D01*
X926414Y181319D01*
X926472Y181367D01*
X926549Y181415D01*
X926626Y181473D01*
X926722Y181540D01*
X926827Y181598D01*
X926943Y181655D01*
X927067Y181703D01*
X927212Y181761D01*
X927356Y181800D01*
X927510Y181828D01*
X927673Y181848D01*
X927846Y181857D01*
X927932D01*
X928000Y181848D01*
D02*
G37*
%LPC*%
G36*
X912566Y182751D02*
X911250D01*
Y177917D01*
X912691D01*
X912797Y177927D01*
X912941Y177936D01*
X913095Y177946D01*
X913258Y177965D01*
X913412Y177994D01*
X913556Y178032D01*
X913575Y178042D01*
X913614Y178052D01*
X913681Y178080D01*
X913758Y178119D01*
X913854Y178167D01*
X913950Y178215D01*
X914036Y178282D01*
X914123Y178359D01*
X914132Y178369D01*
X914171Y178417D01*
X914229Y178484D01*
X914296Y178571D01*
X914363Y178686D01*
X914440Y178821D01*
X914517Y178984D01*
X914584Y179157D01*
Y179166D01*
X914594Y179176D01*
X914603Y179205D01*
X914613Y179243D01*
X914623Y179291D01*
X914642Y179349D01*
X914671Y179493D01*
X914699Y179676D01*
X914728Y179887D01*
X914748Y180118D01*
X914757Y180377D01*
Y180387D01*
Y180425D01*
Y180473D01*
Y180541D01*
X914748Y180627D01*
X914738Y180723D01*
X914728Y180829D01*
X914719Y180935D01*
X914680Y181184D01*
X914623Y181434D01*
X914536Y181675D01*
X914488Y181790D01*
X914430Y181896D01*
Y181905D01*
X914411Y181915D01*
X914402Y181944D01*
X914373Y181982D01*
X914305Y182078D01*
X914209Y182184D01*
X914094Y182309D01*
X913960Y182424D01*
X913806Y182530D01*
X913642Y182616D01*
X913623Y182626D01*
X913575Y182636D01*
X913498Y182655D01*
X913383Y182684D01*
X913229Y182712D01*
X913046Y182732D01*
X912825Y182741D01*
X912566Y182751D01*
D02*
G37*
G36*
X944106Y181213D02*
X943943D01*
X943904Y181204D01*
X943799Y181194D01*
X943664Y181156D01*
X943510Y181108D01*
X943347Y181031D01*
X943184Y180915D01*
X943107Y180848D01*
X943030Y180771D01*
X943011Y180752D01*
X942991Y180723D01*
X942972Y180694D01*
X942943Y180646D01*
X942914Y180589D01*
X942876Y180521D01*
X942847Y180445D01*
X942809Y180358D01*
X942770Y180262D01*
X942741Y180156D01*
X942713Y180031D01*
X942693Y179906D01*
X942674Y179762D01*
X942655Y179618D01*
Y179455D01*
Y179445D01*
Y179416D01*
Y179368D01*
X942665Y179311D01*
Y179243D01*
X942674Y179157D01*
X942703Y178965D01*
X942751Y178753D01*
X942809Y178532D01*
X942905Y178321D01*
X942962Y178225D01*
X943030Y178138D01*
X943049Y178119D01*
X943097Y178071D01*
X943184Y178004D01*
X943299Y177927D01*
X943433Y177840D01*
X943606Y177773D01*
X943789Y177725D01*
X943895Y177715D01*
X944000Y177706D01*
X944058D01*
X944096Y177715D01*
X944202Y177725D01*
X944337Y177763D01*
X944491Y177811D01*
X944654Y177888D01*
X944808Y177994D01*
X944884Y178061D01*
X944961Y178138D01*
Y178148D01*
X944981Y178157D01*
X945000Y178186D01*
X945019Y178225D01*
X945048Y178273D01*
X945086Y178330D01*
X945115Y178398D01*
X945154Y178474D01*
X945192Y178561D01*
X945221Y178657D01*
X945259Y178772D01*
X945288Y178897D01*
X945307Y179022D01*
X945327Y179166D01*
X945346Y179320D01*
Y179483D01*
Y179493D01*
Y179522D01*
Y179560D01*
X945336Y179628D01*
Y179695D01*
X945327Y179772D01*
X945298Y179964D01*
X945250Y180166D01*
X945182Y180387D01*
X945086Y180589D01*
X944952Y180771D01*
Y180781D01*
X944932Y180790D01*
X944884Y180839D01*
X944798Y180915D01*
X944692Y180992D01*
X944548Y181069D01*
X944385Y181146D01*
X944202Y181194D01*
X944106Y181213D01*
D02*
G37*
G36*
X927855Y181223D02*
X927808D01*
X927769Y181213D01*
X927663Y181204D01*
X927538Y181175D01*
X927394Y181137D01*
X927250Y181069D01*
X927096Y180983D01*
X926952Y180858D01*
X926933Y180839D01*
X926894Y180790D01*
X926837Y180714D01*
X926770Y180598D01*
X926702Y180464D01*
X926635Y180300D01*
X926587Y180108D01*
X926558Y179897D01*
X929115D01*
Y179906D01*
Y179926D01*
X929105Y179954D01*
Y179993D01*
X929086Y180099D01*
X929057Y180224D01*
X929018Y180358D01*
X928961Y180502D01*
X928903Y180646D01*
X928817Y180762D01*
Y180771D01*
X928797Y180781D01*
X928749Y180839D01*
X928663Y180906D01*
X928557Y180992D01*
X928413Y181079D01*
X928250Y181156D01*
X928067Y181204D01*
X927961Y181213D01*
X927855Y181223D01*
D02*
G37*
%LPD*%
D10*
X276626Y672654D02*
G03*
X261531Y656264I435J-15546D01*
G01*
X561803Y665073D02*
G03*
X550626Y672654I-11018J-4215D01*
G01*
X563022Y661886D02*
G03*
X573076Y654642I10532J4019D01*
G01*
X623365Y641708D02*
G03*
X610925Y654642I-12687J247D01*
G01*
X609075Y337545D02*
G03*
X623365Y351914I30J14260D01*
G01*
X577417Y337545D02*
G03*
X565059Y330674I31J-14604D01*
G01*
X550000Y322736D02*
G03*
X565059Y330674I661J17000D01*
G01*
X290174Y325762D02*
G03*
X296457Y322736I6097J4625D01*
G01*
X290271Y325688D02*
G03*
X281693Y329653I-8805J-7785D01*
G01*
X261532Y341993D02*
G03*
X274182Y329653I12282J-63D01*
G01*
X561803Y665073D02*
X563022Y661886D01*
X276626Y672654D02*
X550785D01*
X573076Y654642D02*
X577020D01*
X610925D01*
X623365Y351914D02*
Y641708D01*
X577417Y337545D02*
X609105D01*
X296457Y322736D02*
X550000D01*
X274182Y329653D02*
X281693D01*
X261531Y656264D02*
X261532Y341993D01*
D16*
X621857Y660887D02*
X623826Y654982D01*
X625794Y660887D01*
X623826Y673032D02*
X625794Y667126D01*
X621857D02*
X623826Y673032D01*
Y654982D02*
Y664007D01*
Y673032D01*
X611937Y654982D02*
X624613D01*
X623038Y673032D02*
X624311D01*
X238189Y327953D02*
X240158Y322047D01*
X242126Y327953D01*
X240158Y673032D02*
X242126Y667126D01*
X238189D02*
X240158Y673032D01*
Y322047D02*
Y475270D01*
Y516234D02*
Y673032D01*
X239370Y322047D02*
X561319D01*
X239370Y673032D02*
X550394D01*
X640158Y678937D02*
X642126Y673032D01*
X644095Y678937D01*
X642126Y641700D02*
X644095Y635794D01*
X640158D02*
X642126Y641700D01*
Y673032D02*
Y682874D01*
Y631857D02*
Y641700D01*
X624498D02*
X642913D01*
X550394Y673032D02*
X642913D01*
X261122Y304429D02*
X267028Y306398D01*
X261122Y304429D02*
X267028Y302461D01*
X289567D02*
X295472Y304429D01*
X289567Y306398D02*
X295472Y304429D01*
X261122D02*
X278297D01*
X295472D01*
X261122Y303642D02*
Y340846D01*
X295472Y303642D02*
Y321949D01*
Y304429D02*
X301378Y306398D01*
X295472Y304429D02*
X301378Y302461D01*
X547722D02*
X553628Y304429D01*
X547722Y306398D02*
X553628Y304429D01*
X295472D02*
X401789D01*
X443737D02*
X553628D01*
X295472Y303642D02*
Y321949D01*
X553628Y303642D02*
Y321438D01*
X261122Y692717D02*
X267028Y694685D01*
X261122Y692717D02*
X267028Y690748D01*
X617920D02*
X623826Y692717D01*
X617920Y694685D02*
X623826Y692717D01*
X261122D02*
X420204D01*
X461168D02*
X623826D01*
X261122Y340846D02*
Y693504D01*
X623826Y344193D02*
Y693504D01*
X553628Y304429D02*
X559534Y306398D01*
X553628Y304429D02*
X559534Y302461D01*
X617920D02*
X623826Y304429D01*
X617920Y306398D02*
X623826Y304429D01*
X553628D02*
X566457D01*
X607421D02*
X623826D01*
X553628Y303642D02*
Y321438D01*
X623826Y303642D02*
Y351196D01*
X640256Y342846D02*
X642224Y336940D01*
X644193Y342846D01*
X642224Y322073D02*
X644193Y316167D01*
X640256D02*
X642224Y322073D01*
Y336940D02*
Y346783D01*
Y312230D02*
Y322073D01*
X554055D02*
X643012D01*
X611637Y336940D02*
X643012D01*
X640158Y342758D02*
X642126Y336853D01*
X644095Y342758D01*
X642126Y641700D02*
X644095Y635794D01*
X640158D02*
X642126Y641700D01*
Y336853D02*
Y466515D01*
Y508463D02*
Y641700D01*
X611354Y336853D02*
X642913D01*
X624498Y641700D02*
X642913D01*
X585339Y661252D02*
Y667156D01*
X582387Y664204D01*
X586323D01*
X588291Y661252D02*
Y662236D01*
X589275D01*
Y661252D01*
X588291D01*
X597146Y667156D02*
X593211D01*
Y664204D01*
X595178Y665188D01*
X596162D01*
X597146Y664204D01*
Y662236D01*
X596162Y661252D01*
X594195D01*
X593211Y662236D01*
X599114D02*
X600098Y661252D01*
X602066D01*
X603050Y662236D01*
Y666172D01*
X602066Y667156D01*
X600098D01*
X599114Y666172D01*
Y665188D01*
X600098Y664204D01*
X603050D01*
X605018Y661252D02*
Y665188D01*
X606002D01*
X606986Y664204D01*
Y661252D01*
Y664204D01*
X607970Y665188D01*
X608954Y664204D01*
Y661252D01*
X610921D02*
Y665188D01*
X611905D01*
X612889Y664204D01*
Y661252D01*
Y664204D01*
X613873Y665188D01*
X614857Y664204D01*
Y661252D01*
X238977Y477057D02*
X237993Y478041D01*
Y480009D01*
X238977Y480993D01*
X239961D01*
X240945Y480009D01*
X241929Y480993D01*
X242913D01*
X243897Y480009D01*
Y478041D01*
X242913Y477057D01*
X241929D01*
X240945Y478041D01*
X239961Y477057D01*
X238977D01*
X240945Y478041D02*
Y480009D01*
X242913Y482961D02*
X243897Y483945D01*
Y485913D01*
X242913Y486897D01*
X238977D01*
X237993Y485913D01*
Y483945D01*
X238977Y482961D01*
X239961D01*
X240945Y483945D01*
Y486897D01*
X243897Y488864D02*
X242913D01*
Y489848D01*
X243897D01*
Y488864D01*
Y493784D02*
Y495752D01*
Y494768D01*
X237993D01*
X238977Y493784D01*
X237993Y502639D02*
Y498704D01*
X240945D01*
X239961Y500672D01*
Y501656D01*
X240945Y502639D01*
X242913D01*
X243897Y501656D01*
Y499688D01*
X242913Y498704D01*
X243897Y504607D02*
X239961D01*
Y505591D01*
X240945Y506575D01*
X243897D01*
X240945D01*
X239961Y507559D01*
X240945Y508543D01*
X243897D01*
Y510511D02*
X239961D01*
Y511495D01*
X240945Y512479D01*
X243897D01*
X240945D01*
X239961Y513463D01*
X240945Y514447D01*
X243897D01*
X651179Y639344D02*
Y643279D01*
X652163D01*
X656099Y639344D01*
X657083D01*
Y645247D02*
X656099D01*
Y646231D01*
X657083D01*
Y645247D01*
X656099Y650167D02*
X657083Y651151D01*
Y653119D01*
X656099Y654103D01*
X652163D01*
X651179Y653119D01*
Y651151D01*
X652163Y650167D01*
X653147D01*
X654131Y651151D01*
Y654103D01*
X651179Y660006D02*
X652163Y658038D01*
X654131Y656070D01*
X656099D01*
X657083Y657054D01*
Y659022D01*
X656099Y660006D01*
X655115D01*
X654131Y659022D01*
Y656070D01*
X657083Y661974D02*
X653147D01*
Y662958D01*
X654131Y663942D01*
X657083D01*
X654131D01*
X653147Y664926D01*
X654131Y665910D01*
X657083D01*
Y667877D02*
X653147D01*
Y668861D01*
X654131Y669845D01*
X657083D01*
X654131D01*
X653147Y670829D01*
X654131Y671813D01*
X657083D01*
X266339Y298522D02*
X267322Y299506D01*
X269290D01*
X270274Y298522D01*
Y297538D01*
X269290Y296554D01*
X270274Y295570D01*
Y294586D01*
X269290Y293602D01*
X267322D01*
X266339Y294586D01*
Y295570D01*
X267322Y296554D01*
X266339Y297538D01*
Y298522D01*
X267322Y296554D02*
X269290D01*
X272242Y293602D02*
Y294586D01*
X273226D01*
Y293602D01*
X272242D01*
X277162Y299506D02*
X281098D01*
Y298522D01*
X277162Y294586D01*
Y293602D01*
X283065Y298522D02*
X284049Y299506D01*
X286017D01*
X287001Y298522D01*
Y297538D01*
X286017Y296554D01*
X285033D01*
X286017D01*
X287001Y295570D01*
Y294586D01*
X286017Y293602D01*
X284049D01*
X283065Y294586D01*
X288969Y293602D02*
Y297538D01*
X289953D01*
X290937Y296554D01*
Y293602D01*
Y296554D01*
X291921Y297538D01*
X292905Y296554D01*
Y293602D01*
X294873D02*
Y297538D01*
X295857D01*
X296841Y296554D01*
Y293602D01*
Y296554D01*
X297824Y297538D01*
X298808Y296554D01*
Y293602D01*
X407512Y306593D02*
X405544Y305610D01*
X403576Y303642D01*
Y301674D01*
X404560Y300690D01*
X406528D01*
X407512Y301674D01*
Y302658D01*
X406528Y303642D01*
X403576D01*
X413415Y306593D02*
X409480D01*
Y303642D01*
X411448Y304626D01*
X412431D01*
X413415Y303642D01*
Y301674D01*
X412431Y300690D01*
X410464D01*
X409480Y301674D01*
X415383Y300690D02*
Y301674D01*
X416367D01*
Y300690D01*
X415383D01*
X424239Y306593D02*
X420303D01*
Y303642D01*
X422271Y304626D01*
X423255D01*
X424239Y303642D01*
Y301674D01*
X423255Y300690D01*
X421287D01*
X420303Y301674D01*
X426207Y306593D02*
X430142D01*
Y305610D01*
X426207Y301674D01*
Y300690D01*
X432110D02*
Y304626D01*
X433094D01*
X434078Y303642D01*
Y300690D01*
Y303642D01*
X435062Y304626D01*
X436046Y303642D01*
Y300690D01*
X438014D02*
Y304626D01*
X438998D01*
X439982Y303642D01*
Y300690D01*
Y303642D01*
X440966Y304626D01*
X441950Y303642D01*
Y300690D01*
X421992Y689961D02*
X422976Y688977D01*
X424943D01*
X425927Y689961D01*
Y693897D01*
X424943Y694881D01*
X422976D01*
X421992Y693897D01*
Y692913D01*
X422976Y691929D01*
X425927D01*
X431831Y688977D02*
X427895D01*
X431831Y692913D01*
Y693897D01*
X430847Y694881D01*
X428879D01*
X427895Y693897D01*
X433799Y688977D02*
Y689961D01*
X434783D01*
Y688977D01*
X433799D01*
X438719D02*
X440686D01*
X439703D01*
Y694881D01*
X438719Y693897D01*
X443638D02*
X444622Y694881D01*
X446590D01*
X447574Y693897D01*
Y692913D01*
X446590Y691929D01*
X445606D01*
X446590D01*
X447574Y690945D01*
Y689961D01*
X446590Y688977D01*
X444622D01*
X443638Y689961D01*
X449542Y688977D02*
Y692913D01*
X450526D01*
X451510Y691929D01*
Y688977D01*
Y691929D01*
X452494Y692913D01*
X453477Y691929D01*
Y688977D01*
X455445D02*
Y692913D01*
X456429D01*
X457413Y691929D01*
Y688977D01*
Y691929D01*
X458397Y692913D01*
X459381Y691929D01*
Y688977D01*
X568245Y300690D02*
X570213D01*
X569229D01*
Y306593D01*
X568245Y305610D01*
X573164Y306593D02*
X577100D01*
Y305610D01*
X573164Y301674D01*
Y300690D01*
X579068D02*
Y301674D01*
X580052D01*
Y300690D01*
X579068D01*
X583988Y305610D02*
X584972Y306593D01*
X586939D01*
X587923Y305610D01*
Y304626D01*
X586939Y303642D01*
X587923Y302658D01*
Y301674D01*
X586939Y300690D01*
X584972D01*
X583988Y301674D01*
Y302658D01*
X584972Y303642D01*
X583988Y304626D01*
Y305610D01*
X584972Y303642D02*
X586939D01*
X589891Y305610D02*
X590875Y306593D01*
X592843D01*
X593827Y305610D01*
Y304626D01*
X592843Y303642D01*
X591859D01*
X592843D01*
X593827Y302658D01*
Y301674D01*
X592843Y300690D01*
X590875D01*
X589891Y301674D01*
X595795Y300690D02*
Y304626D01*
X596779D01*
X597763Y303642D01*
Y300690D01*
Y303642D01*
X598747Y304626D01*
X599730Y303642D01*
Y300690D01*
X601698D02*
Y304626D01*
X602682D01*
X603666Y303642D01*
Y300690D01*
Y303642D01*
X604650Y304626D01*
X605634Y303642D01*
Y300690D01*
X652261Y311484D02*
X651278Y312468D01*
Y314436D01*
X652261Y315420D01*
X653245D01*
X654229Y314436D01*
Y313452D01*
Y314436D01*
X655213Y315420D01*
X656197D01*
X657181Y314436D01*
Y312468D01*
X656197Y311484D01*
X657181Y317388D02*
X656197D01*
Y318372D01*
X657181D01*
Y317388D01*
X651278Y322307D02*
Y326243D01*
X652261D01*
X656197Y322307D01*
X657181D01*
X652261Y328211D02*
X651278Y329195D01*
Y331163D01*
X652261Y332147D01*
X653245D01*
X654229Y331163D01*
X655213Y332147D01*
X656197D01*
X657181Y331163D01*
Y329195D01*
X656197Y328211D01*
X655213D01*
X654229Y329195D01*
X653245Y328211D01*
X652261D01*
X654229Y329195D02*
Y331163D01*
X657181Y334115D02*
X653245D01*
Y335099D01*
X654229Y336083D01*
X657181D01*
X654229D01*
X653245Y337067D01*
X654229Y338050D01*
X657181D01*
Y340018D02*
X653245D01*
Y341002D01*
X654229Y341986D01*
X657181D01*
X654229D01*
X653245Y342970D01*
X654229Y343954D01*
X657181D01*
X639962Y468302D02*
Y472238D01*
X640945D01*
X644881Y468302D01*
X645865D01*
X639962Y474206D02*
Y478142D01*
X640945D01*
X644881Y474206D01*
X645865D01*
Y480110D02*
X644881D01*
Y481094D01*
X645865D01*
Y480110D01*
Y487981D02*
X639962D01*
X642913Y485029D01*
Y488965D01*
X640945Y490933D02*
X639962Y491917D01*
Y493885D01*
X640945Y494869D01*
X641929D01*
X642913Y493885D01*
Y492901D01*
Y493885D01*
X643897Y494869D01*
X644881D01*
X645865Y493885D01*
Y491917D01*
X644881Y490933D01*
X645865Y496836D02*
X641929D01*
Y497820D01*
X642913Y498804D01*
X645865D01*
X642913D01*
X641929Y499788D01*
X642913Y500772D01*
X645865D01*
Y502740D02*
X641929D01*
Y503724D01*
X642913Y504708D01*
X645865D01*
X642913D01*
X641929Y505692D01*
X642913Y506676D01*
X645865D01*
M02*
