G04*
G04 #@! TF.GenerationSoftware,Altium Limited,Altium Designer,18.1.7 (191)*
G04*
G04 Layer_Color=8421504*
%FSLAX25Y25*%
%MOIN*%
G70*
G01*
G75*
%ADD10C,0.01000*%
%ADD22R,0.02756X0.08661*%
%ADD23R,0.04724X0.04134*%
%ADD24R,0.06299X0.03150*%
%ADD25R,0.11811X0.08268*%
%ADD26R,0.03150X0.06299*%
%ADD27R,0.08268X0.11811*%
%ADD28R,0.03937X0.03937*%
%ADD29R,0.05000X0.02000*%
%ADD30R,0.08661X0.02362*%
%ADD31R,0.07579X0.02756*%
G04:AMPARAMS|DCode=32|XSize=3.81mil|YSize=60.9mil|CornerRadius=0mil|HoleSize=0mil|Usage=FLASHONLY|Rotation=135.000|XOffset=0mil|YOffset=0mil|HoleType=Round|Shape=Round|*
%AMOVALD32*
21,1,0.05709,0.00381,0.00000,0.00000,225.0*
1,1,0.00381,0.02018,0.02018*
1,1,0.00381,-0.02018,-0.02018*
%
%ADD32OVALD32*%

G04:AMPARAMS|DCode=33|XSize=3.81mil|YSize=60.9mil|CornerRadius=0mil|HoleSize=0mil|Usage=FLASHONLY|Rotation=225.000|XOffset=0mil|YOffset=0mil|HoleType=Round|Shape=Round|*
%AMOVALD33*
21,1,0.05709,0.00381,0.00000,0.00000,315.0*
1,1,0.00381,-0.02018,0.02018*
1,1,0.00381,0.02018,-0.02018*
%
%ADD33OVALD33*%

%ADD34R,0.04134X0.03150*%
%ADD35R,0.04961X0.02402*%
%ADD36R,0.02362X0.03937*%
G04:AMPARAMS|DCode=37|XSize=23.62mil|YSize=39.37mil|CornerRadius=2.01mil|HoleSize=0mil|Usage=FLASHONLY|Rotation=180.000|XOffset=0mil|YOffset=0mil|HoleType=Round|Shape=RoundedRectangle|*
%AMROUNDEDRECTD37*
21,1,0.02362,0.03535,0,0,180.0*
21,1,0.01961,0.03937,0,0,180.0*
1,1,0.00402,-0.00980,0.01768*
1,1,0.00402,0.00980,0.01768*
1,1,0.00402,0.00980,-0.01768*
1,1,0.00402,-0.00980,-0.01768*
%
%ADD37ROUNDEDRECTD37*%
%ADD38R,0.04331X0.08661*%
%ADD39R,0.04724X0.04724*%
G04:AMPARAMS|DCode=40|XSize=39.37mil|YSize=51.18mil|CornerRadius=0mil|HoleSize=0mil|Usage=FLASHONLY|Rotation=45.000|XOffset=0mil|YOffset=0mil|HoleType=Round|Shape=Rectangle|*
%AMROTATEDRECTD40*
4,1,4,0.00418,-0.03202,-0.03202,0.00418,-0.00418,0.03202,0.03202,-0.00418,0.00418,-0.03202,0.0*
%
%ADD40ROTATEDRECTD40*%

%ADD41R,0.06000X0.04000*%
%ADD42R,0.04134X0.04724*%
G04:AMPARAMS|DCode=43|XSize=41.34mil|YSize=47.24mil|CornerRadius=0mil|HoleSize=0mil|Usage=FLASHONLY|Rotation=135.000|XOffset=0mil|YOffset=0mil|HoleType=Round|Shape=Rectangle|*
%AMROTATEDRECTD43*
4,1,4,0.03132,0.00209,-0.00209,-0.03132,-0.03132,-0.00209,0.00209,0.03132,0.03132,0.00209,0.0*
%
%ADD43ROTATEDRECTD43*%

%ADD44R,0.04724X0.06000*%
%ADD45R,0.06000X0.04724*%
%ADD46R,0.08661X0.02756*%
%ADD47C,0.05118*%
G36*
X923240Y181842D02*
X923304Y181832D01*
X923441Y181814D01*
X923605Y181778D01*
X923778Y181723D01*
X923951Y181641D01*
X924124Y181541D01*
X924133D01*
X924142Y181523D01*
X924197Y181486D01*
X924279Y181413D01*
X924379Y181322D01*
X924488Y181204D01*
X924598Y181058D01*
X924707Y180885D01*
X924798Y180694D01*
Y180684D01*
X924807Y180666D01*
X924816Y180639D01*
X924835Y180603D01*
X924853Y180548D01*
X924871Y180484D01*
X924916Y180338D01*
X924962Y180156D01*
X924998Y179956D01*
X925026Y179728D01*
X925035Y179491D01*
Y179482D01*
Y179464D01*
Y179427D01*
Y179373D01*
X925026Y179309D01*
Y179236D01*
X925008Y179072D01*
X924971Y178872D01*
X924926Y178662D01*
X924862Y178443D01*
X924780Y178225D01*
Y178216D01*
X924771Y178198D01*
X924753Y178170D01*
X924734Y178134D01*
X924671Y178033D01*
X924589Y177906D01*
X924488Y177769D01*
X924361Y177633D01*
X924215Y177496D01*
X924042Y177368D01*
X924033D01*
X924024Y177359D01*
X923996Y177341D01*
X923960Y177323D01*
X923869Y177277D01*
X923741Y177223D01*
X923586Y177168D01*
X923423Y177122D01*
X923231Y177086D01*
X923040Y177077D01*
X922976D01*
X922903Y177086D01*
X922812Y177095D01*
X922703Y177113D01*
X922584Y177141D01*
X922466Y177177D01*
X922348Y177232D01*
X922338Y177241D01*
X922293Y177259D01*
X922238Y177296D01*
X922165Y177350D01*
X922092Y177405D01*
X922001Y177478D01*
X921919Y177560D01*
X921846Y177651D01*
Y175428D01*
X921072D01*
Y181750D01*
X921774D01*
Y181149D01*
X921783Y181167D01*
X921819Y181204D01*
X921865Y181267D01*
X921937Y181340D01*
X922019Y181431D01*
X922111Y181514D01*
X922220Y181596D01*
X922329Y181668D01*
X922348Y181677D01*
X922384Y181696D01*
X922457Y181723D01*
X922548Y181760D01*
X922657Y181796D01*
X922785Y181823D01*
X922931Y181842D01*
X923094Y181851D01*
X923195D01*
X923240Y181842D01*
D02*
G37*
G36*
X940886D02*
X941023Y181832D01*
X941169Y181814D01*
X941324Y181778D01*
X941488Y181741D01*
X941642Y181687D01*
X941652D01*
X941661Y181677D01*
X941706Y181659D01*
X941779Y181623D01*
X941870Y181577D01*
X941970Y181514D01*
X942071Y181441D01*
X942162Y181359D01*
X942244Y181267D01*
X942253Y181258D01*
X942271Y181222D01*
X942307Y181158D01*
X942353Y181085D01*
X942399Y180976D01*
X942444Y180858D01*
X942481Y180721D01*
X942517Y180566D01*
X941761Y180466D01*
Y180484D01*
X941752Y180520D01*
X941734Y180584D01*
X941706Y180666D01*
X941661Y180748D01*
X941606Y180839D01*
X941542Y180930D01*
X941451Y181012D01*
X941442Y181022D01*
X941406Y181040D01*
X941351Y181076D01*
X941269Y181113D01*
X941178Y181149D01*
X941059Y181185D01*
X940914Y181204D01*
X940759Y181213D01*
X940668D01*
X940577Y181204D01*
X940458Y181195D01*
X940340Y181167D01*
X940212Y181140D01*
X940094Y181095D01*
X939994Y181031D01*
X939984Y181022D01*
X939957Y181003D01*
X939921Y180967D01*
X939884Y180912D01*
X939839Y180858D01*
X939802Y180785D01*
X939775Y180703D01*
X939766Y180621D01*
Y180612D01*
Y180593D01*
X939775Y180566D01*
Y180530D01*
X939802Y180438D01*
X939857Y180347D01*
X939866Y180338D01*
X939875Y180329D01*
X939893Y180302D01*
X939930Y180274D01*
X939966Y180247D01*
X940021Y180211D01*
X940085Y180183D01*
X940158Y180147D01*
X940167D01*
X940185Y180138D01*
X940221Y180129D01*
X940285Y180102D01*
X940376Y180074D01*
X940495Y180047D01*
X940567Y180019D01*
X940650Y180001D01*
X940741Y179974D01*
X940841Y179947D01*
X940850D01*
X940877Y179938D01*
X940923Y179928D01*
X940977Y179910D01*
X941041Y179892D01*
X941123Y179874D01*
X941296Y179819D01*
X941488Y179764D01*
X941679Y179701D01*
X941852Y179637D01*
X941925Y179610D01*
X941989Y179582D01*
X942007Y179573D01*
X942043Y179555D01*
X942098Y179527D01*
X942180Y179482D01*
X942262Y179427D01*
X942344Y179354D01*
X942426Y179272D01*
X942499Y179181D01*
X942508Y179172D01*
X942526Y179136D01*
X942563Y179081D01*
X942599Y178999D01*
X942626Y178899D01*
X942663Y178790D01*
X942681Y178662D01*
X942690Y178516D01*
Y178498D01*
Y178453D01*
X942681Y178380D01*
X942663Y178279D01*
X942636Y178170D01*
X942590Y178052D01*
X942535Y177915D01*
X942462Y177787D01*
X942453Y177769D01*
X942417Y177733D01*
X942371Y177669D01*
X942298Y177596D01*
X942198Y177514D01*
X942089Y177423D01*
X941961Y177341D01*
X941807Y177259D01*
X941797D01*
X941788Y177250D01*
X941734Y177232D01*
X941642Y177205D01*
X941524Y177168D01*
X941378Y177132D01*
X941214Y177104D01*
X941041Y177086D01*
X940841Y177077D01*
X940759D01*
X940695Y177086D01*
X940622D01*
X940531Y177095D01*
X940440Y177104D01*
X940340Y177122D01*
X940121Y177168D01*
X939893Y177232D01*
X939675Y177323D01*
X939575Y177378D01*
X939483Y177441D01*
X939474Y177451D01*
X939465Y177460D01*
X939410Y177514D01*
X939328Y177596D01*
X939237Y177724D01*
X939137Y177879D01*
X939037Y178061D01*
X938955Y178289D01*
X938891Y178544D01*
X939657Y178662D01*
Y178653D01*
Y178644D01*
X939675Y178589D01*
X939693Y178498D01*
X939729Y178398D01*
X939775Y178289D01*
X939830Y178170D01*
X939912Y178052D01*
X940012Y177952D01*
X940030Y177942D01*
X940066Y177915D01*
X940139Y177879D01*
X940230Y177833D01*
X940349Y177787D01*
X940485Y177751D01*
X940650Y177724D01*
X940841Y177715D01*
X940932D01*
X941023Y177724D01*
X941141Y177742D01*
X941269Y177769D01*
X941406Y177806D01*
X941524Y177851D01*
X941633Y177924D01*
X941642Y177933D01*
X941679Y177961D01*
X941715Y178006D01*
X941770Y178070D01*
X941816Y178143D01*
X941861Y178234D01*
X941888Y178325D01*
X941898Y178434D01*
Y178443D01*
Y178480D01*
X941888Y178525D01*
X941870Y178589D01*
X941843Y178653D01*
X941797Y178717D01*
X941743Y178790D01*
X941661Y178844D01*
X941652Y178853D01*
X941624Y178863D01*
X941579Y178890D01*
X941506Y178917D01*
X941397Y178954D01*
X941333Y178981D01*
X941260Y178999D01*
X941178Y179026D01*
X941087Y179054D01*
X940987Y179081D01*
X940868Y179109D01*
X940859D01*
X940832Y179118D01*
X940786Y179127D01*
X940732Y179145D01*
X940659Y179163D01*
X940577Y179191D01*
X940403Y179236D01*
X940203Y179300D01*
X940012Y179354D01*
X939830Y179418D01*
X939748Y179455D01*
X939684Y179482D01*
X939666Y179491D01*
X939629Y179509D01*
X939575Y179546D01*
X939502Y179591D01*
X939420Y179655D01*
X939338Y179728D01*
X939256Y179810D01*
X939183Y179910D01*
X939174Y179919D01*
X939155Y179956D01*
X939128Y180019D01*
X939101Y180092D01*
X939073Y180183D01*
X939046Y180293D01*
X939028Y180402D01*
X939019Y180530D01*
Y180548D01*
Y180584D01*
X939028Y180639D01*
X939037Y180721D01*
X939055Y180803D01*
X939073Y180903D01*
X939110Y180994D01*
X939155Y181095D01*
X939165Y181104D01*
X939183Y181140D01*
X939210Y181185D01*
X939256Y181249D01*
X939310Y181313D01*
X939374Y181395D01*
X939447Y181468D01*
X939538Y181532D01*
X939547Y181541D01*
X939575Y181550D01*
X939611Y181577D01*
X939666Y181605D01*
X939738Y181641D01*
X939820Y181677D01*
X939921Y181714D01*
X940030Y181750D01*
X940048Y181760D01*
X940085Y181769D01*
X940148Y181787D01*
X940230Y181805D01*
X940331Y181823D01*
X940440Y181832D01*
X940567Y181851D01*
X940786D01*
X940886Y181842D01*
D02*
G37*
G36*
X936432D02*
X936568Y181832D01*
X936723Y181814D01*
X936878Y181787D01*
X937033Y181750D01*
X937179Y181705D01*
X937197Y181696D01*
X937242Y181677D01*
X937306Y181650D01*
X937388Y181614D01*
X937479Y181559D01*
X937570Y181504D01*
X937652Y181431D01*
X937725Y181359D01*
X937734Y181350D01*
X937753Y181322D01*
X937780Y181277D01*
X937816Y181222D01*
X937862Y181140D01*
X937898Y181058D01*
X937935Y180958D01*
X937962Y180839D01*
Y180830D01*
X937971Y180803D01*
X937980Y180748D01*
X937989Y180675D01*
Y180575D01*
X937998Y180457D01*
X938008Y180302D01*
Y180129D01*
Y179090D01*
Y179081D01*
Y179045D01*
Y178990D01*
Y178917D01*
Y178835D01*
Y178735D01*
X938017Y178516D01*
Y178289D01*
X938026Y178061D01*
X938035Y177961D01*
Y177869D01*
X938044Y177787D01*
X938053Y177724D01*
Y177715D01*
X938062Y177678D01*
X938071Y177623D01*
X938099Y177551D01*
X938117Y177469D01*
X938153Y177378D01*
X938199Y177277D01*
X938244Y177177D01*
X937434D01*
X937424Y177186D01*
X937415Y177223D01*
X937397Y177268D01*
X937370Y177341D01*
X937342Y177423D01*
X937324Y177523D01*
X937306Y177633D01*
X937288Y177751D01*
X937279D01*
X937270Y177733D01*
X937215Y177687D01*
X937133Y177623D01*
X937024Y177542D01*
X936887Y177460D01*
X936750Y177368D01*
X936605Y177287D01*
X936450Y177223D01*
X936432Y177214D01*
X936377Y177205D01*
X936295Y177177D01*
X936195Y177150D01*
X936067Y177122D01*
X935921Y177104D01*
X935757Y177086D01*
X935593Y177077D01*
X935521D01*
X935466Y177086D01*
X935402D01*
X935329Y177095D01*
X935165Y177122D01*
X934983Y177168D01*
X934783Y177232D01*
X934600Y177323D01*
X934437Y177441D01*
X934418Y177460D01*
X934373Y177505D01*
X934309Y177587D01*
X934236Y177696D01*
X934163Y177833D01*
X934099Y177988D01*
X934054Y178179D01*
X934045Y178270D01*
X934036Y178380D01*
Y178398D01*
Y178434D01*
X934045Y178498D01*
X934054Y178580D01*
X934072Y178680D01*
X934099Y178780D01*
X934136Y178890D01*
X934181Y178990D01*
X934190Y178999D01*
X934209Y179036D01*
X934245Y179090D01*
X934291Y179154D01*
X934345Y179227D01*
X934418Y179300D01*
X934491Y179373D01*
X934582Y179436D01*
X934591Y179446D01*
X934628Y179464D01*
X934673Y179500D01*
X934746Y179537D01*
X934828Y179573D01*
X934928Y179619D01*
X935029Y179655D01*
X935147Y179692D01*
X935156D01*
X935193Y179701D01*
X935247Y179719D01*
X935320Y179728D01*
X935411Y179746D01*
X935530Y179764D01*
X935666Y179792D01*
X935830Y179810D01*
X935839D01*
X935876Y179819D01*
X935921D01*
X935985Y179828D01*
X936058Y179837D01*
X936149Y179856D01*
X936249Y179865D01*
X936359Y179883D01*
X936577Y179928D01*
X936814Y179974D01*
X937024Y180029D01*
X937124Y180056D01*
X937215Y180083D01*
Y180092D01*
Y180111D01*
X937224Y180165D01*
Y180229D01*
Y180265D01*
Y180284D01*
Y180293D01*
Y180302D01*
Y180357D01*
X937215Y180448D01*
X937197Y180548D01*
X937169Y180657D01*
X937124Y180766D01*
X937069Y180867D01*
X936996Y180949D01*
X936987Y180958D01*
X936942Y180994D01*
X936869Y181031D01*
X936778Y181085D01*
X936650Y181131D01*
X936504Y181176D01*
X936322Y181204D01*
X936113Y181213D01*
X936022D01*
X935931Y181204D01*
X935803Y181185D01*
X935675Y181167D01*
X935539Y181131D01*
X935411Y181085D01*
X935302Y181022D01*
X935293Y181012D01*
X935256Y180985D01*
X935211Y180940D01*
X935156Y180867D01*
X935102Y180776D01*
X935038Y180657D01*
X934983Y180511D01*
X934928Y180347D01*
X934172Y180448D01*
Y180457D01*
X934181Y180466D01*
Y180493D01*
X934190Y180530D01*
X934218Y180612D01*
X934254Y180730D01*
X934300Y180849D01*
X934354Y180976D01*
X934427Y181104D01*
X934509Y181222D01*
X934518Y181231D01*
X934555Y181267D01*
X934610Y181322D01*
X934682Y181395D01*
X934783Y181468D01*
X934901Y181541D01*
X935038Y181623D01*
X935193Y181687D01*
X935202D01*
X935211Y181696D01*
X935238Y181705D01*
X935275Y181714D01*
X935366Y181741D01*
X935493Y181769D01*
X935639Y181796D01*
X935821Y181823D01*
X936012Y181842D01*
X936231Y181851D01*
X936331D01*
X936432Y181842D01*
D02*
G37*
G36*
X931248Y183472D02*
X931403Y183463D01*
X931567Y183454D01*
X931722Y183436D01*
X931858Y183417D01*
X931876D01*
X931940Y183399D01*
X932022Y183381D01*
X932132Y183354D01*
X932250Y183308D01*
X932378Y183254D01*
X932514Y183190D01*
X932633Y183117D01*
X932651Y183108D01*
X932687Y183080D01*
X932742Y183026D01*
X932815Y182962D01*
X932897Y182880D01*
X932979Y182771D01*
X933070Y182652D01*
X933143Y182516D01*
X933152Y182497D01*
X933170Y182452D01*
X933207Y182370D01*
X933243Y182261D01*
X933270Y182133D01*
X933307Y181987D01*
X933325Y181823D01*
X933334Y181650D01*
Y181641D01*
Y181614D01*
Y181577D01*
X933325Y181514D01*
X933316Y181450D01*
X933307Y181368D01*
X933289Y181277D01*
X933270Y181176D01*
X933207Y180967D01*
X933170Y180858D01*
X933115Y180739D01*
X933052Y180621D01*
X932988Y180511D01*
X932906Y180402D01*
X932815Y180293D01*
X932806Y180284D01*
X932788Y180265D01*
X932760Y180238D01*
X932715Y180211D01*
X932660Y180165D01*
X932587Y180120D01*
X932496Y180065D01*
X932396Y180019D01*
X932277Y179965D01*
X932141Y179910D01*
X931995Y179865D01*
X931822Y179828D01*
X931640Y179792D01*
X931439Y179764D01*
X931211Y179746D01*
X930975Y179737D01*
X929362D01*
Y177177D01*
X928524D01*
Y183481D01*
X931111D01*
X931248Y183472D01*
D02*
G37*
G36*
X915406Y182734D02*
X913329D01*
Y177177D01*
X912490D01*
Y182734D01*
X910413D01*
Y183481D01*
X915406D01*
Y182734D01*
D02*
G37*
G36*
X944512Y181750D02*
X945296D01*
Y181149D01*
X944512D01*
Y178462D01*
Y178443D01*
Y178407D01*
Y178352D01*
X944521Y178289D01*
X944530Y178143D01*
X944540Y178079D01*
X944549Y178033D01*
X944558Y178015D01*
X944585Y177979D01*
X944621Y177933D01*
X944685Y177888D01*
X944703Y177879D01*
X944749Y177860D01*
X944831Y177842D01*
X944949Y177833D01*
X945041D01*
X945086Y177842D01*
X945150D01*
X945223Y177851D01*
X945296Y177860D01*
X945396Y177177D01*
X945378D01*
X945341Y177168D01*
X945277Y177159D01*
X945195Y177150D01*
X945104Y177132D01*
X945004Y177122D01*
X944804Y177113D01*
X944731D01*
X944658Y177122D01*
X944567Y177132D01*
X944458Y177141D01*
X944348Y177168D01*
X944248Y177195D01*
X944148Y177241D01*
X944139Y177250D01*
X944111Y177268D01*
X944075Y177296D01*
X944020Y177341D01*
X943975Y177387D01*
X943920Y177451D01*
X943865Y177514D01*
X943829Y177596D01*
Y177605D01*
X943811Y177642D01*
X943801Y177706D01*
X943783Y177797D01*
X943765Y177915D01*
X943756Y177988D01*
Y178070D01*
X943747Y178170D01*
X943738Y178270D01*
Y178380D01*
Y178507D01*
Y181149D01*
X943164D01*
Y181750D01*
X943738D01*
Y182880D01*
X944512Y183345D01*
Y181750D01*
D02*
G37*
G36*
X948083Y181842D02*
X948156Y181832D01*
X948247Y181814D01*
X948347Y181796D01*
X948466Y181769D01*
X948575Y181741D01*
X948703Y181696D01*
X948821Y181650D01*
X948949Y181586D01*
X949076Y181514D01*
X949204Y181431D01*
X949322Y181331D01*
X949432Y181222D01*
X949441Y181213D01*
X949459Y181195D01*
X949486Y181158D01*
X949523Y181104D01*
X949568Y181040D01*
X949614Y180967D01*
X949668Y180876D01*
X949723Y180766D01*
X949778Y180648D01*
X949832Y180520D01*
X949878Y180375D01*
X949924Y180220D01*
X949960Y180047D01*
X949987Y179865D01*
X950006Y179673D01*
X950015Y179464D01*
Y179455D01*
Y179418D01*
Y179354D01*
X950006Y179263D01*
X946589D01*
Y179254D01*
Y179227D01*
X946598Y179191D01*
Y179136D01*
X946607Y179072D01*
X946626Y178999D01*
X946653Y178835D01*
X946708Y178653D01*
X946780Y178453D01*
X946881Y178270D01*
X947008Y178106D01*
X947017D01*
X947027Y178088D01*
X947081Y178043D01*
X947163Y177979D01*
X947272Y177915D01*
X947418Y177842D01*
X947582Y177778D01*
X947764Y177733D01*
X947865Y177724D01*
X947974Y177715D01*
X948047D01*
X948129Y177724D01*
X948229Y177742D01*
X948338Y177769D01*
X948466Y177806D01*
X948584Y177860D01*
X948703Y177933D01*
X948712Y177942D01*
X948757Y177979D01*
X948812Y178033D01*
X948876Y178106D01*
X948949Y178207D01*
X949031Y178334D01*
X949113Y178480D01*
X949185Y178653D01*
X949987Y178553D01*
Y178544D01*
X949978Y178525D01*
X949969Y178489D01*
X949951Y178434D01*
X949924Y178380D01*
X949896Y178307D01*
X949823Y178152D01*
X949732Y177979D01*
X949605Y177797D01*
X949459Y177623D01*
X949277Y177460D01*
X949267D01*
X949249Y177441D01*
X949222Y177423D01*
X949185Y177396D01*
X949131Y177368D01*
X949076Y177341D01*
X949003Y177305D01*
X948921Y177268D01*
X948830Y177232D01*
X948739Y177195D01*
X948511Y177141D01*
X948256Y177095D01*
X947974Y177077D01*
X947874D01*
X947810Y177086D01*
X947728Y177095D01*
X947628Y177113D01*
X947518Y177132D01*
X947400Y177150D01*
X947145Y177223D01*
X947008Y177277D01*
X946881Y177332D01*
X946744Y177405D01*
X946616Y177487D01*
X946498Y177578D01*
X946380Y177687D01*
X946371Y177696D01*
X946352Y177715D01*
X946325Y177751D01*
X946289Y177806D01*
X946243Y177869D01*
X946198Y177942D01*
X946143Y178033D01*
X946088Y178134D01*
X946033Y178252D01*
X945979Y178380D01*
X945933Y178525D01*
X945888Y178680D01*
X945851Y178844D01*
X945824Y179026D01*
X945806Y179218D01*
X945797Y179418D01*
Y179427D01*
Y179473D01*
Y179527D01*
X945806Y179610D01*
X945815Y179710D01*
X945824Y179819D01*
X945842Y179947D01*
X945870Y180074D01*
X945942Y180366D01*
X945988Y180511D01*
X946043Y180666D01*
X946115Y180812D01*
X946198Y180949D01*
X946289Y181085D01*
X946389Y181213D01*
X946398Y181222D01*
X946416Y181240D01*
X946453Y181267D01*
X946498Y181313D01*
X946553Y181359D01*
X946626Y181413D01*
X946708Y181477D01*
X946808Y181532D01*
X946908Y181596D01*
X947027Y181650D01*
X947154Y181705D01*
X947291Y181750D01*
X947436Y181796D01*
X947591Y181823D01*
X947755Y181842D01*
X947928Y181851D01*
X948020D01*
X948083Y181842D01*
D02*
G37*
G36*
X918175D02*
X918257Y181832D01*
X918348Y181814D01*
X918448Y181796D01*
X918567Y181778D01*
X918813Y181696D01*
X918940Y181650D01*
X919068Y181586D01*
X919195Y181523D01*
X919323Y181431D01*
X919441Y181340D01*
X919560Y181231D01*
X919569Y181222D01*
X919587Y181204D01*
X919615Y181167D01*
X919651Y181122D01*
X919697Y181058D01*
X919751Y180976D01*
X919806Y180885D01*
X919860Y180785D01*
X919915Y180675D01*
X919970Y180539D01*
X920024Y180402D01*
X920070Y180247D01*
X920106Y180083D01*
X920134Y179910D01*
X920152Y179728D01*
X920161Y179527D01*
Y179518D01*
Y179491D01*
Y179446D01*
Y179382D01*
X920152Y179309D01*
X920143Y179218D01*
Y179127D01*
X920125Y179026D01*
X920097Y178799D01*
X920043Y178571D01*
X919979Y178343D01*
X919888Y178134D01*
Y178125D01*
X919879Y178115D01*
X919860Y178088D01*
X919842Y178052D01*
X919779Y177961D01*
X919697Y177851D01*
X919587Y177724D01*
X919450Y177596D01*
X919296Y177469D01*
X919113Y177350D01*
X919104D01*
X919095Y177341D01*
X919068Y177323D01*
X919022Y177305D01*
X918977Y177287D01*
X918922Y177268D01*
X918785Y177214D01*
X918631Y177168D01*
X918439Y177122D01*
X918239Y177086D01*
X918020Y177077D01*
X917929D01*
X917856Y177086D01*
X917774Y177095D01*
X917683Y177113D01*
X917574Y177132D01*
X917465Y177150D01*
X917219Y177223D01*
X917082Y177277D01*
X916954Y177332D01*
X916827Y177405D01*
X916699Y177487D01*
X916581Y177578D01*
X916462Y177687D01*
X916453Y177696D01*
X916435Y177715D01*
X916408Y177751D01*
X916371Y177806D01*
X916326Y177869D01*
X916280Y177942D01*
X916226Y178033D01*
X916171Y178143D01*
X916116Y178261D01*
X916062Y178398D01*
X916016Y178544D01*
X915971Y178699D01*
X915934Y178872D01*
X915907Y179054D01*
X915889Y179254D01*
X915879Y179464D01*
Y179482D01*
Y179518D01*
X915889Y179582D01*
Y179673D01*
X915898Y179773D01*
X915916Y179901D01*
X915934Y180029D01*
X915971Y180174D01*
X916007Y180320D01*
X916053Y180475D01*
X916107Y180639D01*
X916180Y180794D01*
X916253Y180940D01*
X916353Y181085D01*
X916453Y181222D01*
X916581Y181340D01*
X916590Y181350D01*
X916608Y181359D01*
X916645Y181386D01*
X916690Y181422D01*
X916745Y181459D01*
X916818Y181504D01*
X916891Y181550D01*
X916982Y181596D01*
X917082Y181641D01*
X917191Y181687D01*
X917437Y181769D01*
X917720Y181832D01*
X917865Y181842D01*
X918020Y181851D01*
X918111D01*
X918175Y181842D01*
D02*
G37*
%LPC*%
G36*
X923022Y181240D02*
X922976D01*
X922940Y181231D01*
X922849Y181213D01*
X922730Y181185D01*
X922593Y181131D01*
X922448Y181049D01*
X922366Y180994D01*
X922293Y180930D01*
X922220Y180858D01*
X922147Y180776D01*
Y180766D01*
X922129Y180757D01*
X922111Y180730D01*
X922092Y180694D01*
X922065Y180639D01*
X922029Y180584D01*
X921992Y180511D01*
X921965Y180438D01*
X921928Y180347D01*
X921892Y180247D01*
X921865Y180138D01*
X921828Y180019D01*
X921810Y179883D01*
X921792Y179746D01*
X921774Y179600D01*
Y179436D01*
Y179427D01*
Y179400D01*
Y179354D01*
X921783Y179291D01*
Y179218D01*
X921792Y179136D01*
X921819Y178945D01*
X921865Y178726D01*
X921919Y178516D01*
X922010Y178307D01*
X922065Y178216D01*
X922129Y178134D01*
X922147Y178115D01*
X922193Y178070D01*
X922266Y177997D01*
X922366Y177924D01*
X922493Y177851D01*
X922639Y177778D01*
X922803Y177733D01*
X922894Y177724D01*
X922985Y177715D01*
X923040D01*
X923076Y177724D01*
X923167Y177742D01*
X923295Y177769D01*
X923432Y177824D01*
X923577Y177897D01*
X923723Y178006D01*
X923796Y178070D01*
X923869Y178143D01*
Y178152D01*
X923887Y178161D01*
X923905Y178188D01*
X923923Y178225D01*
X923960Y178270D01*
X923987Y178334D01*
X924024Y178398D01*
X924060Y178480D01*
X924088Y178562D01*
X924124Y178671D01*
X924160Y178780D01*
X924188Y178899D01*
X924206Y179036D01*
X924224Y179181D01*
X924242Y179336D01*
Y179500D01*
Y179509D01*
Y179537D01*
Y179582D01*
X924233Y179646D01*
Y179719D01*
X924224Y179801D01*
X924197Y179992D01*
X924151Y180202D01*
X924088Y180411D01*
X923996Y180621D01*
X923942Y180721D01*
X923878Y180803D01*
Y180812D01*
X923860Y180821D01*
X923814Y180876D01*
X923741Y180940D01*
X923641Y181022D01*
X923514Y181104D01*
X923368Y181176D01*
X923204Y181222D01*
X923113Y181231D01*
X923022Y181240D01*
D02*
G37*
G36*
X937224Y179473D02*
X937215D01*
X937206Y179464D01*
X937179Y179455D01*
X937142Y179446D01*
X937097Y179427D01*
X937042Y179409D01*
X936978Y179391D01*
X936905Y179373D01*
X936823Y179345D01*
X936723Y179327D01*
X936623Y179300D01*
X936504Y179272D01*
X936377Y179245D01*
X936249Y179218D01*
X936104Y179200D01*
X935949Y179172D01*
X935931D01*
X935876Y179163D01*
X935785Y179145D01*
X935684Y179127D01*
X935575Y179109D01*
X935466Y179081D01*
X935366Y179054D01*
X935275Y179017D01*
X935266D01*
X935238Y178999D01*
X935202Y178981D01*
X935165Y178954D01*
X935056Y178881D01*
X934965Y178771D01*
Y178762D01*
X934947Y178744D01*
X934937Y178708D01*
X934919Y178662D01*
X934901Y178607D01*
X934883Y178553D01*
X934874Y178480D01*
X934865Y178407D01*
Y178398D01*
Y178352D01*
X934874Y178298D01*
X934892Y178225D01*
X934919Y178143D01*
X934965Y178061D01*
X935019Y177970D01*
X935092Y177888D01*
X935102Y177879D01*
X935138Y177860D01*
X935193Y177824D01*
X935266Y177787D01*
X935366Y177751D01*
X935484Y177715D01*
X935621Y177696D01*
X935785Y177687D01*
X935858D01*
X935949Y177696D01*
X936049Y177715D01*
X936176Y177733D01*
X936304Y177769D01*
X936441Y177815D01*
X936577Y177879D01*
X936596Y177888D01*
X936632Y177915D01*
X936696Y177961D01*
X936769Y178024D01*
X936851Y178097D01*
X936942Y178188D01*
X937015Y178298D01*
X937088Y178416D01*
X937097Y178425D01*
X937106Y178462D01*
X937124Y178525D01*
X937151Y178607D01*
X937179Y178717D01*
X937197Y178844D01*
X937206Y178999D01*
X937215Y179181D01*
X937224Y179473D01*
D02*
G37*
G36*
X931166Y182734D02*
X929362D01*
Y180484D01*
X931057D01*
X931120Y180493D01*
X931184D01*
X931257Y180502D01*
X931430Y180520D01*
X931621Y180557D01*
X931813Y180612D01*
X931986Y180684D01*
X932068Y180730D01*
X932132Y180785D01*
X932150Y180803D01*
X932186Y180839D01*
X932241Y180912D01*
X932305Y181003D01*
X932368Y181122D01*
X932423Y181267D01*
X932460Y181431D01*
X932478Y181623D01*
Y181632D01*
Y181641D01*
Y181687D01*
X932469Y181769D01*
X932450Y181860D01*
X932432Y181960D01*
X932396Y182078D01*
X932341Y182188D01*
X932277Y182297D01*
X932268Y182306D01*
X932241Y182343D01*
X932195Y182388D01*
X932141Y182452D01*
X932059Y182516D01*
X931968Y182570D01*
X931867Y182625D01*
X931749Y182670D01*
X931740D01*
X931703Y182680D01*
X931649Y182689D01*
X931576Y182707D01*
X931467Y182716D01*
X931330Y182725D01*
X931166Y182734D01*
D02*
G37*
G36*
X947937Y181213D02*
X947883D01*
X947846Y181204D01*
X947746Y181195D01*
X947628Y181167D01*
X947482Y181122D01*
X947327Y181058D01*
X947181Y180967D01*
X947036Y180849D01*
X947017Y180830D01*
X946981Y180785D01*
X946917Y180703D01*
X946853Y180593D01*
X946780Y180466D01*
X946717Y180302D01*
X946662Y180111D01*
X946635Y179901D01*
X949195D01*
Y179910D01*
Y179928D01*
X949185Y179956D01*
Y179992D01*
X949167Y180102D01*
X949140Y180220D01*
X949094Y180366D01*
X949049Y180502D01*
X948976Y180639D01*
X948894Y180757D01*
Y180766D01*
X948876Y180776D01*
X948830Y180830D01*
X948748Y180903D01*
X948639Y180985D01*
X948502Y181067D01*
X948338Y181140D01*
X948147Y181195D01*
X948047Y181204D01*
X947937Y181213D01*
D02*
G37*
G36*
X918020D02*
X917966D01*
X917920Y181204D01*
X917820Y181195D01*
X917683Y181158D01*
X917528Y181104D01*
X917364Y181031D01*
X917209Y180921D01*
X917128Y180849D01*
X917055Y180776D01*
Y180766D01*
X917036Y180757D01*
X917018Y180730D01*
X916991Y180694D01*
X916963Y180648D01*
X916936Y180593D01*
X916900Y180520D01*
X916863Y180448D01*
X916827Y180357D01*
X916790Y180265D01*
X916763Y180156D01*
X916736Y180038D01*
X916708Y179910D01*
X916690Y179773D01*
X916681Y179619D01*
X916672Y179464D01*
Y179455D01*
Y179427D01*
Y179382D01*
X916681Y179318D01*
Y179245D01*
X916690Y179163D01*
X916718Y178972D01*
X916763Y178753D01*
X916836Y178534D01*
X916927Y178325D01*
X916991Y178234D01*
X917055Y178143D01*
X917064D01*
X917073Y178125D01*
X917128Y178079D01*
X917209Y178006D01*
X917319Y177933D01*
X917455Y177851D01*
X917619Y177778D01*
X917811Y177733D01*
X917911Y177724D01*
X918020Y177715D01*
X918075D01*
X918120Y177724D01*
X918221Y177742D01*
X918357Y177769D01*
X918503Y177824D01*
X918667Y177897D01*
X918822Y178006D01*
X918904Y178079D01*
X918977Y178152D01*
X918986Y178161D01*
X918995Y178170D01*
X919013Y178198D01*
X919041Y178234D01*
X919068Y178279D01*
X919104Y178334D01*
X919141Y178407D01*
X919177Y178480D01*
X919214Y178571D01*
X919241Y178671D01*
X919277Y178780D01*
X919305Y178899D01*
X919332Y179036D01*
X919350Y179172D01*
X919368Y179327D01*
Y179491D01*
Y179500D01*
Y179527D01*
Y179573D01*
X919359Y179628D01*
Y179701D01*
X919350Y179783D01*
X919323Y179974D01*
X919277Y180174D01*
X919205Y180393D01*
X919104Y180593D01*
X919050Y180694D01*
X918977Y180776D01*
Y180785D01*
X918959Y180794D01*
X918904Y180849D01*
X918822Y180912D01*
X918713Y180994D01*
X918576Y181076D01*
X918412Y181149D01*
X918230Y181195D01*
X918130Y181204D01*
X918020Y181213D01*
D02*
G37*
%LPD*%
D10*
X276626Y672654D02*
G03*
X261531Y656264I435J-15546D01*
G01*
X561803Y665073D02*
G03*
X550626Y672654I-11018J-4215D01*
G01*
X563022Y661886D02*
G03*
X573076Y654642I10532J4019D01*
G01*
X623365Y641708D02*
G03*
X610925Y654642I-12687J247D01*
G01*
X609075Y337545D02*
G03*
X623365Y351914I30J14260D01*
G01*
X577417Y337545D02*
G03*
X565059Y330674I31J-14604D01*
G01*
X550000Y322736D02*
G03*
X565059Y330674I661J17000D01*
G01*
X290174Y325762D02*
G03*
X296457Y322736I6097J4625D01*
G01*
X290271Y325688D02*
G03*
X281693Y329653I-8805J-7785D01*
G01*
X261532Y341993D02*
G03*
X274182Y329653I12282J-63D01*
G01*
X561803Y665073D02*
X563022Y661886D01*
X276626Y672654D02*
X550785D01*
X573076Y654642D02*
X577020D01*
X610925D01*
X623365Y351914D02*
Y641708D01*
X577417Y337545D02*
X609105D01*
X296457Y322736D02*
X550000D01*
X274182Y329653D02*
X281693D01*
X261531Y656264D02*
X261532Y341993D01*
D22*
X365178Y410620D02*
D03*
X360178D02*
D03*
X355178D02*
D03*
X350178D02*
D03*
X365178Y386191D02*
D03*
X360178D02*
D03*
X355178D02*
D03*
X350178D02*
D03*
X334947Y462815D02*
D03*
X339947D02*
D03*
X344947D02*
D03*
X349947D02*
D03*
X334947Y487244D02*
D03*
X339947D02*
D03*
X344947D02*
D03*
X349947D02*
D03*
X429082Y487146D02*
D03*
X424082D02*
D03*
X419082D02*
D03*
X414082D02*
D03*
X429082Y462716D02*
D03*
X424082D02*
D03*
X419082D02*
D03*
X414082D02*
D03*
X388649Y487264D02*
D03*
X383649D02*
D03*
X378649D02*
D03*
X373649D02*
D03*
X388649Y462835D02*
D03*
X383649D02*
D03*
X378649D02*
D03*
X373649D02*
D03*
D23*
X343012Y402168D02*
D03*
Y394884D02*
D03*
X384842Y388386D02*
D03*
Y381102D02*
D03*
X491437Y353445D02*
D03*
Y360728D02*
D03*
X553248Y358343D02*
D03*
Y351059D02*
D03*
X479528Y410260D02*
D03*
Y417543D02*
D03*
X289370Y364764D02*
D03*
Y372047D02*
D03*
X285039Y413866D02*
D03*
Y406582D02*
D03*
X277425Y413866D02*
D03*
Y406582D02*
D03*
X501968Y490059D02*
D03*
Y497342D02*
D03*
D24*
X286481Y455020D02*
D03*
Y474705D02*
D03*
Y469783D02*
D03*
Y464862D02*
D03*
Y459941D02*
D03*
Y450098D02*
D03*
D25*
X275064Y484744D02*
D03*
Y440059D02*
D03*
D26*
X356496Y346949D02*
D03*
X336811D02*
D03*
X341732D02*
D03*
X346654D02*
D03*
X351575D02*
D03*
X361417D02*
D03*
D27*
X326772Y335531D02*
D03*
X371457D02*
D03*
D28*
X392520Y380610D02*
D03*
X399213Y388484D02*
D03*
X392323Y388484D02*
D03*
X399213Y380610D02*
D03*
D29*
X448562Y362815D02*
D03*
Y355335D02*
D03*
X459585Y359075D02*
D03*
Y355335D02*
D03*
Y362815D02*
D03*
X448562Y359075D02*
D03*
D30*
X535433Y344075D02*
D03*
Y349075D02*
D03*
Y354075D02*
D03*
Y359075D02*
D03*
X516535Y344075D02*
D03*
Y349075D02*
D03*
Y354075D02*
D03*
Y359075D02*
D03*
D31*
X294146Y418280D02*
D03*
Y413280D02*
D03*
Y408280D02*
D03*
Y403280D02*
D03*
Y398280D02*
D03*
Y393280D02*
D03*
Y388280D02*
D03*
Y383280D02*
D03*
X331248D02*
D03*
Y388280D02*
D03*
Y393280D02*
D03*
Y398280D02*
D03*
Y403280D02*
D03*
Y408280D02*
D03*
Y413280D02*
D03*
Y418280D02*
D03*
D32*
X430387Y376443D02*
D03*
X428995Y377835D02*
D03*
X427603Y379226D02*
D03*
X426211Y380618D02*
D03*
X424819Y382010D02*
D03*
X423427Y383402D02*
D03*
X422035Y384794D02*
D03*
X420643Y386186D02*
D03*
X419251Y387578D02*
D03*
X417859Y388970D02*
D03*
X416467Y390362D02*
D03*
X415075Y391754D02*
D03*
X413683Y393146D02*
D03*
X412291Y394538D02*
D03*
X410899Y395930D02*
D03*
X406724Y400106D02*
D03*
X405332Y401498D02*
D03*
X403940Y402889D02*
D03*
X402548Y404282D02*
D03*
X401156Y405673D02*
D03*
X399764Y407065D02*
D03*
X398372Y408457D02*
D03*
X396980Y409849D02*
D03*
X439156Y452025D02*
D03*
X440548Y450633D02*
D03*
X441940Y449241D02*
D03*
X443332Y447849D02*
D03*
X444724Y446457D02*
D03*
X446116Y445065D02*
D03*
X447508Y443673D02*
D03*
X448900Y442281D02*
D03*
X450291Y440890D02*
D03*
X451683Y439498D02*
D03*
X453075Y438106D02*
D03*
X454467Y436714D02*
D03*
X455859Y435322D02*
D03*
X457251Y433930D02*
D03*
X458643Y432538D02*
D03*
X460035Y431146D02*
D03*
X461427Y429754D02*
D03*
X462819Y428362D02*
D03*
X464211Y426970D02*
D03*
X465603Y425578D02*
D03*
X466995Y424186D02*
D03*
X468387Y422794D02*
D03*
X469779Y421402D02*
D03*
X471171Y420010D02*
D03*
X472563Y418618D02*
D03*
X409508Y397322D02*
D03*
X408116Y398714D02*
D03*
D33*
X396980Y418618D02*
D03*
X398372Y420010D02*
D03*
X399764Y421402D02*
D03*
X401156Y422794D02*
D03*
X402548Y424186D02*
D03*
X403940Y425578D02*
D03*
X405332Y426970D02*
D03*
X406724Y428362D02*
D03*
X408116Y429754D02*
D03*
X409508Y431146D02*
D03*
X410899Y432538D02*
D03*
X412291Y433930D02*
D03*
X413683Y435322D02*
D03*
X415075Y436714D02*
D03*
X416467Y438106D02*
D03*
X417859Y439498D02*
D03*
X419251Y440890D02*
D03*
X420643Y442281D02*
D03*
X422035Y443673D02*
D03*
X423427Y445065D02*
D03*
X424819Y446457D02*
D03*
X426211Y447849D02*
D03*
X427603Y449241D02*
D03*
X428995Y450633D02*
D03*
X430387Y452025D02*
D03*
X472563Y409849D02*
D03*
X471171Y408457D02*
D03*
X469779Y407065D02*
D03*
X468387Y405673D02*
D03*
X466995Y404282D02*
D03*
X465603Y402889D02*
D03*
X464211Y401498D02*
D03*
X462819Y400106D02*
D03*
X461427Y398714D02*
D03*
X460035Y397322D02*
D03*
X458643Y395930D02*
D03*
X457251Y394538D02*
D03*
X455859Y393146D02*
D03*
X454467Y391754D02*
D03*
X453075Y390362D02*
D03*
X451683Y388970D02*
D03*
X450291Y387578D02*
D03*
X448900Y386186D02*
D03*
X447508Y384794D02*
D03*
X446116Y383402D02*
D03*
X444724Y382010D02*
D03*
X443332Y380618D02*
D03*
X441940Y379226D02*
D03*
X440548Y377835D02*
D03*
X439156Y376443D02*
D03*
D34*
X491043Y375689D02*
D03*
Y368406D02*
D03*
X515748Y389828D02*
D03*
Y382544D02*
D03*
D35*
X328386Y557087D02*
D03*
X364528D02*
D03*
X328386Y561024D02*
D03*
X364528D02*
D03*
X328386Y564961D02*
D03*
X364528D02*
D03*
X328386Y568898D02*
D03*
X364528D02*
D03*
X328386Y572835D02*
D03*
X364528D02*
D03*
X328386Y576772D02*
D03*
X364528D02*
D03*
X328386Y580709D02*
D03*
X364528D02*
D03*
X328386Y584646D02*
D03*
X364528D02*
D03*
X328386Y588583D02*
D03*
X364528D02*
D03*
X328386Y592520D02*
D03*
X364528D02*
D03*
D36*
X297047Y352756D02*
D03*
X300787D02*
D03*
X304528D02*
D03*
Y363583D02*
D03*
D37*
X297047D02*
D03*
D38*
X515748Y372047D02*
D03*
X503150D02*
D03*
X515748Y400787D02*
D03*
X503150D02*
D03*
D39*
X281102Y371772D02*
D03*
Y364449D02*
D03*
X503150Y360748D02*
D03*
Y353425D02*
D03*
X487008Y417598D02*
D03*
Y410276D02*
D03*
D40*
X462723Y383118D02*
D03*
X468291Y388686D02*
D03*
D41*
X433858Y652876D02*
D03*
Y660876D02*
D03*
X496063Y652854D02*
D03*
Y660854D02*
D03*
X485714Y652854D02*
D03*
Y660854D02*
D03*
X465017Y652854D02*
D03*
Y660854D02*
D03*
X475365Y652854D02*
D03*
Y660854D02*
D03*
X444319Y652854D02*
D03*
Y660854D02*
D03*
X454668Y652854D02*
D03*
Y660854D02*
D03*
X423465Y652953D02*
D03*
Y660953D02*
D03*
D42*
X354035Y363189D02*
D03*
X361319D02*
D03*
X486713Y426772D02*
D03*
X479429D02*
D03*
X399202Y373467D02*
D03*
X391918D02*
D03*
X545965Y344094D02*
D03*
X553248D02*
D03*
X450295Y373228D02*
D03*
X457579D02*
D03*
X328445Y487146D02*
D03*
X321161D02*
D03*
X367606Y487323D02*
D03*
X360322D02*
D03*
X407582D02*
D03*
X400298D02*
D03*
D43*
X473867Y372772D02*
D03*
X468717Y377922D02*
D03*
X479318Y378232D02*
D03*
X474168Y383382D02*
D03*
D44*
X553874Y525118D02*
D03*
X561874D02*
D03*
X553972Y515748D02*
D03*
X561973D02*
D03*
X553972Y553543D02*
D03*
X561973D02*
D03*
X553972Y544488D02*
D03*
X561973D02*
D03*
X553972Y534646D02*
D03*
X561973D02*
D03*
X329591Y369685D02*
D03*
X321590D02*
D03*
X526709Y371260D02*
D03*
X534709D02*
D03*
X525651Y445177D02*
D03*
X517651D02*
D03*
X339602Y363779D02*
D03*
X347602D02*
D03*
X304787Y333465D02*
D03*
X296787D02*
D03*
X470409Y357106D02*
D03*
X478409D02*
D03*
X449356Y473988D02*
D03*
X441356D02*
D03*
X449529Y483240D02*
D03*
X441529D02*
D03*
X582909Y641339D02*
D03*
X590909D02*
D03*
D45*
X570079Y349150D02*
D03*
Y357150D02*
D03*
X496063Y635868D02*
D03*
Y643868D02*
D03*
X485714Y635868D02*
D03*
Y643868D02*
D03*
X465017Y635951D02*
D03*
Y643951D02*
D03*
X475365Y635951D02*
D03*
Y643951D02*
D03*
X444319Y635951D02*
D03*
Y643951D02*
D03*
X454668Y635951D02*
D03*
Y643951D02*
D03*
X434154Y363449D02*
D03*
Y355449D02*
D03*
X423465Y635459D02*
D03*
Y643459D02*
D03*
X433858Y635786D02*
D03*
Y643786D02*
D03*
X553740Y479724D02*
D03*
Y471724D02*
D03*
Y488715D02*
D03*
Y496715D02*
D03*
X428019Y510004D02*
D03*
Y502004D02*
D03*
X385262Y510024D02*
D03*
Y502024D02*
D03*
X384350Y440390D02*
D03*
Y448390D02*
D03*
X347504Y509669D02*
D03*
Y501669D02*
D03*
Y440640D02*
D03*
Y448640D02*
D03*
X419082Y510004D02*
D03*
Y502004D02*
D03*
X375775Y510024D02*
D03*
Y502024D02*
D03*
X375775Y440784D02*
D03*
Y448783D02*
D03*
X337504Y509905D02*
D03*
Y501905D02*
D03*
Y440640D02*
D03*
Y448640D02*
D03*
X489479Y481658D02*
D03*
Y473658D02*
D03*
X479736Y481658D02*
D03*
Y473658D02*
D03*
X469992Y481658D02*
D03*
Y473658D02*
D03*
X498834Y481658D02*
D03*
Y473658D02*
D03*
D46*
X534090Y466673D02*
D03*
Y471673D02*
D03*
Y476673D02*
D03*
Y481673D02*
D03*
X509661Y466673D02*
D03*
Y471673D02*
D03*
Y476673D02*
D03*
Y481673D02*
D03*
D47*
X586516Y345937D02*
D03*
X515453Y631452D02*
D03*
X271427Y634744D02*
D03*
M02*
