G04*
G04 #@! TF.GenerationSoftware,Altium Limited,Altium Designer,18.1.7 (191)*
G04*
G04 Layer_Color=8388736*
%FSLAX25Y25*%
%MOIN*%
G70*
G01*
G75*
%ADD10C,0.01000*%
%ADD16C,0.00787*%
G36*
X940959Y182598D02*
X940185D01*
Y183481D01*
X940959D01*
Y182598D01*
D02*
G37*
G36*
X917446D02*
X916672D01*
Y183481D01*
X917446D01*
Y182598D01*
D02*
G37*
G36*
X949331Y181842D02*
X949432Y181832D01*
X949550Y181814D01*
X949677Y181787D01*
X949814Y181750D01*
X949942Y181696D01*
X949960Y181687D01*
X949996Y181668D01*
X950060Y181641D01*
X950133Y181596D01*
X950224Y181541D01*
X950306Y181468D01*
X950388Y181395D01*
X950461Y181304D01*
X950470Y181295D01*
X950488Y181258D01*
X950516Y181213D01*
X950561Y181149D01*
X950598Y181058D01*
X950634Y180967D01*
X950680Y180858D01*
X950707Y180739D01*
Y180730D01*
X950716Y180694D01*
X950725Y180639D01*
X950734Y180566D01*
Y180457D01*
X950743Y180329D01*
X950753Y180174D01*
Y179983D01*
Y177177D01*
X949978D01*
Y179947D01*
Y179956D01*
Y179965D01*
Y180029D01*
Y180111D01*
X949969Y180211D01*
X949960Y180329D01*
X949942Y180448D01*
X949914Y180557D01*
X949887Y180657D01*
Y180666D01*
X949869Y180694D01*
X949841Y180739D01*
X949814Y180794D01*
X949769Y180849D01*
X949714Y180912D01*
X949641Y180976D01*
X949559Y181031D01*
X949550Y181040D01*
X949523Y181058D01*
X949468Y181076D01*
X949404Y181104D01*
X949331Y181131D01*
X949240Y181158D01*
X949131Y181167D01*
X949022Y181176D01*
X948976D01*
X948940Y181167D01*
X948849Y181158D01*
X948730Y181140D01*
X948602Y181095D01*
X948457Y181040D01*
X948311Y180967D01*
X948174Y180858D01*
X948156Y180839D01*
X948120Y180794D01*
X948092Y180757D01*
X948065Y180712D01*
X948029Y180657D01*
X948001Y180593D01*
X947965Y180520D01*
X947928Y180429D01*
X947901Y180329D01*
X947874Y180220D01*
X947855Y180102D01*
X947837Y179974D01*
X947819Y179819D01*
Y179664D01*
Y177177D01*
X947045D01*
Y181750D01*
X947737D01*
Y181095D01*
X947746Y181104D01*
X947764Y181131D01*
X947792Y181167D01*
X947828Y181213D01*
X947883Y181267D01*
X947947Y181331D01*
X948020Y181404D01*
X948111Y181477D01*
X948202Y181541D01*
X948311Y181614D01*
X948429Y181677D01*
X948557Y181732D01*
X948703Y181778D01*
X948849Y181814D01*
X949012Y181842D01*
X949185Y181851D01*
X949258D01*
X949331Y181842D01*
D02*
G37*
G36*
X933161D02*
X933261Y181832D01*
X933380Y181814D01*
X933507Y181787D01*
X933644Y181750D01*
X933771Y181696D01*
X933790Y181687D01*
X933826Y181668D01*
X933890Y181641D01*
X933963Y181596D01*
X934054Y181541D01*
X934136Y181468D01*
X934218Y181395D01*
X934291Y181304D01*
X934300Y181295D01*
X934318Y181258D01*
X934345Y181213D01*
X934391Y181149D01*
X934427Y181058D01*
X934464Y180967D01*
X934509Y180858D01*
X934537Y180739D01*
Y180730D01*
X934546Y180694D01*
X934555Y180639D01*
X934564Y180566D01*
Y180457D01*
X934573Y180329D01*
X934582Y180174D01*
Y179983D01*
Y177177D01*
X933808D01*
Y179947D01*
Y179956D01*
Y179965D01*
Y180029D01*
Y180111D01*
X933799Y180211D01*
X933790Y180329D01*
X933771Y180448D01*
X933744Y180557D01*
X933717Y180657D01*
Y180666D01*
X933699Y180694D01*
X933671Y180739D01*
X933644Y180794D01*
X933598Y180849D01*
X933544Y180912D01*
X933471Y180976D01*
X933389Y181031D01*
X933380Y181040D01*
X933352Y181058D01*
X933298Y181076D01*
X933234Y181104D01*
X933161Y181131D01*
X933070Y181158D01*
X932961Y181167D01*
X932851Y181176D01*
X932806D01*
X932769Y181167D01*
X932678Y181158D01*
X932560Y181140D01*
X932432Y181095D01*
X932286Y181040D01*
X932141Y180967D01*
X932004Y180858D01*
X931986Y180839D01*
X931949Y180794D01*
X931922Y180757D01*
X931895Y180712D01*
X931858Y180657D01*
X931831Y180593D01*
X931795Y180520D01*
X931758Y180429D01*
X931731Y180329D01*
X931703Y180220D01*
X931685Y180102D01*
X931667Y179974D01*
X931649Y179819D01*
Y179664D01*
Y177177D01*
X930875D01*
Y181750D01*
X931567D01*
Y181095D01*
X931576Y181104D01*
X931594Y181131D01*
X931621Y181167D01*
X931658Y181213D01*
X931713Y181267D01*
X931776Y181331D01*
X931849Y181404D01*
X931940Y181477D01*
X932031Y181541D01*
X932141Y181614D01*
X932259Y181677D01*
X932387Y181732D01*
X932533Y181778D01*
X932678Y181814D01*
X932842Y181842D01*
X933015Y181851D01*
X933088D01*
X933161Y181842D01*
D02*
G37*
G36*
X923523D02*
X923586D01*
X923650Y181832D01*
X923805Y181805D01*
X923969Y181760D01*
X924142Y181687D01*
X924315Y181596D01*
X924461Y181468D01*
X924479Y181450D01*
X924516Y181395D01*
X924579Y181313D01*
X924607Y181249D01*
X924643Y181185D01*
X924680Y181104D01*
X924707Y181022D01*
X924743Y180930D01*
X924771Y180821D01*
X924789Y180712D01*
X924807Y180584D01*
X924825Y180457D01*
Y180311D01*
Y177177D01*
X924051D01*
Y180047D01*
Y180056D01*
Y180065D01*
Y180120D01*
Y180202D01*
X924042Y180302D01*
X924033Y180411D01*
X924024Y180520D01*
X924006Y180630D01*
X923978Y180712D01*
Y180721D01*
X923960Y180748D01*
X923942Y180785D01*
X923914Y180830D01*
X923878Y180885D01*
X923832Y180940D01*
X923778Y180994D01*
X923705Y181049D01*
X923696Y181058D01*
X923668Y181067D01*
X923632Y181085D01*
X923568Y181113D01*
X923505Y181140D01*
X923423Y181158D01*
X923341Y181167D01*
X923240Y181176D01*
X923195D01*
X923158Y181167D01*
X923067Y181158D01*
X922958Y181140D01*
X922830Y181095D01*
X922694Y181040D01*
X922557Y180958D01*
X922429Y180849D01*
X922420Y180830D01*
X922384Y180785D01*
X922329Y180712D01*
X922275Y180603D01*
X922211Y180457D01*
X922165Y180284D01*
X922129Y180074D01*
X922111Y179828D01*
Y177177D01*
X921336D01*
Y180138D01*
Y180147D01*
Y180165D01*
Y180183D01*
Y180220D01*
X921327Y180320D01*
X921309Y180429D01*
X921291Y180557D01*
X921254Y180684D01*
X921209Y180803D01*
X921145Y180912D01*
X921136Y180921D01*
X921109Y180958D01*
X921063Y180994D01*
X920999Y181049D01*
X920917Y181095D01*
X920808Y181140D01*
X920680Y181167D01*
X920525Y181176D01*
X920471D01*
X920407Y181167D01*
X920334Y181158D01*
X920243Y181131D01*
X920134Y181104D01*
X920033Y181058D01*
X919924Y181003D01*
X919915Y180994D01*
X919879Y180967D01*
X919833Y180930D01*
X919769Y180876D01*
X919706Y180803D01*
X919642Y180712D01*
X919578Y180612D01*
X919523Y180493D01*
X919514Y180475D01*
X919505Y180429D01*
X919487Y180357D01*
X919460Y180256D01*
X919432Y180120D01*
X919414Y179956D01*
X919405Y179764D01*
X919396Y179546D01*
Y177177D01*
X918622D01*
Y181750D01*
X919314D01*
Y181095D01*
X919323Y181113D01*
X919350Y181149D01*
X919405Y181213D01*
X919469Y181286D01*
X919551Y181377D01*
X919651Y181468D01*
X919760Y181559D01*
X919888Y181641D01*
X919906Y181650D01*
X919952Y181677D01*
X920024Y181705D01*
X920125Y181750D01*
X920243Y181787D01*
X920380Y181814D01*
X920535Y181842D01*
X920699Y181851D01*
X920781D01*
X920881Y181842D01*
X920990Y181823D01*
X921127Y181796D01*
X921263Y181760D01*
X921400Y181705D01*
X921528Y181632D01*
X921546Y181623D01*
X921582Y181596D01*
X921637Y181550D01*
X921710Y181477D01*
X921783Y181395D01*
X921865Y181295D01*
X921937Y181176D01*
X921992Y181040D01*
X922001Y181049D01*
X922019Y181076D01*
X922047Y181113D01*
X922092Y181167D01*
X922147Y181231D01*
X922211Y181295D01*
X922284Y181368D01*
X922375Y181450D01*
X922475Y181523D01*
X922575Y181596D01*
X922694Y181659D01*
X922821Y181723D01*
X922958Y181778D01*
X923104Y181814D01*
X923249Y181842D01*
X923413Y181851D01*
X923477D01*
X923523Y181842D01*
D02*
G37*
G36*
X937461D02*
X937598Y181832D01*
X937743Y181814D01*
X937898Y181778D01*
X938062Y181741D01*
X938217Y181687D01*
X938226D01*
X938235Y181677D01*
X938281Y181659D01*
X938354Y181623D01*
X938445Y181577D01*
X938545Y181514D01*
X938645Y181441D01*
X938736Y181359D01*
X938818Y181267D01*
X938828Y181258D01*
X938846Y181222D01*
X938882Y181158D01*
X938928Y181085D01*
X938973Y180976D01*
X939019Y180858D01*
X939055Y180721D01*
X939092Y180566D01*
X938336Y180466D01*
Y180484D01*
X938326Y180520D01*
X938308Y180584D01*
X938281Y180666D01*
X938235Y180748D01*
X938181Y180839D01*
X938117Y180930D01*
X938026Y181012D01*
X938017Y181022D01*
X937980Y181040D01*
X937926Y181076D01*
X937844Y181113D01*
X937753Y181149D01*
X937634Y181185D01*
X937488Y181204D01*
X937333Y181213D01*
X937242D01*
X937151Y181204D01*
X937033Y181195D01*
X936914Y181167D01*
X936787Y181140D01*
X936668Y181095D01*
X936568Y181031D01*
X936559Y181022D01*
X936532Y181003D01*
X936495Y180967D01*
X936459Y180912D01*
X936413Y180858D01*
X936377Y180785D01*
X936350Y180703D01*
X936341Y180621D01*
Y180612D01*
Y180593D01*
X936350Y180566D01*
Y180530D01*
X936377Y180438D01*
X936432Y180347D01*
X936441Y180338D01*
X936450Y180329D01*
X936468Y180302D01*
X936504Y180274D01*
X936541Y180247D01*
X936596Y180211D01*
X936659Y180183D01*
X936732Y180147D01*
X936741D01*
X936759Y180138D01*
X936796Y180129D01*
X936860Y180102D01*
X936951Y180074D01*
X937069Y180047D01*
X937142Y180019D01*
X937224Y180001D01*
X937315Y179974D01*
X937415Y179947D01*
X937424D01*
X937452Y179938D01*
X937497Y179928D01*
X937552Y179910D01*
X937616Y179892D01*
X937698Y179874D01*
X937871Y179819D01*
X938062Y179764D01*
X938253Y179701D01*
X938427Y179637D01*
X938500Y179610D01*
X938563Y179582D01*
X938581Y179573D01*
X938618Y179555D01*
X938673Y179527D01*
X938755Y179482D01*
X938837Y179427D01*
X938919Y179354D01*
X939001Y179272D01*
X939073Y179181D01*
X939083Y179172D01*
X939101Y179136D01*
X939137Y179081D01*
X939174Y178999D01*
X939201Y178899D01*
X939237Y178790D01*
X939256Y178662D01*
X939265Y178516D01*
Y178498D01*
Y178453D01*
X939256Y178380D01*
X939237Y178279D01*
X939210Y178170D01*
X939165Y178052D01*
X939110Y177915D01*
X939037Y177787D01*
X939028Y177769D01*
X938992Y177733D01*
X938946Y177669D01*
X938873Y177596D01*
X938773Y177514D01*
X938663Y177423D01*
X938536Y177341D01*
X938381Y177259D01*
X938372D01*
X938363Y177250D01*
X938308Y177232D01*
X938217Y177205D01*
X938099Y177168D01*
X937953Y177132D01*
X937789Y177104D01*
X937616Y177086D01*
X937415Y177077D01*
X937333D01*
X937270Y177086D01*
X937197D01*
X937106Y177095D01*
X937015Y177104D01*
X936914Y177122D01*
X936696Y177168D01*
X936468Y177232D01*
X936249Y177323D01*
X936149Y177378D01*
X936058Y177441D01*
X936049Y177451D01*
X936040Y177460D01*
X935985Y177514D01*
X935903Y177596D01*
X935812Y177724D01*
X935712Y177879D01*
X935612Y178061D01*
X935530Y178289D01*
X935466Y178544D01*
X936231Y178662D01*
Y178653D01*
Y178644D01*
X936249Y178589D01*
X936268Y178498D01*
X936304Y178398D01*
X936350Y178289D01*
X936404Y178170D01*
X936486Y178052D01*
X936586Y177952D01*
X936605Y177942D01*
X936641Y177915D01*
X936714Y177879D01*
X936805Y177833D01*
X936924Y177787D01*
X937060Y177751D01*
X937224Y177724D01*
X937415Y177715D01*
X937506D01*
X937598Y177724D01*
X937716Y177742D01*
X937844Y177769D01*
X937980Y177806D01*
X938099Y177851D01*
X938208Y177924D01*
X938217Y177933D01*
X938253Y177961D01*
X938290Y178006D01*
X938345Y178070D01*
X938390Y178143D01*
X938436Y178234D01*
X938463Y178325D01*
X938472Y178434D01*
Y178443D01*
Y178480D01*
X938463Y178525D01*
X938445Y178589D01*
X938418Y178653D01*
X938372Y178717D01*
X938317Y178790D01*
X938235Y178844D01*
X938226Y178853D01*
X938199Y178863D01*
X938153Y178890D01*
X938081Y178917D01*
X937971Y178954D01*
X937907Y178981D01*
X937834Y178999D01*
X937753Y179026D01*
X937661Y179054D01*
X937561Y179081D01*
X937443Y179109D01*
X937434D01*
X937406Y179118D01*
X937361Y179127D01*
X937306Y179145D01*
X937233Y179163D01*
X937151Y179191D01*
X936978Y179236D01*
X936778Y179300D01*
X936586Y179354D01*
X936404Y179418D01*
X936322Y179455D01*
X936259Y179482D01*
X936240Y179491D01*
X936204Y179509D01*
X936149Y179546D01*
X936076Y179591D01*
X935994Y179655D01*
X935912Y179728D01*
X935830Y179810D01*
X935757Y179910D01*
X935748Y179919D01*
X935730Y179956D01*
X935703Y180019D01*
X935675Y180092D01*
X935648Y180183D01*
X935621Y180293D01*
X935602Y180402D01*
X935593Y180530D01*
Y180548D01*
Y180584D01*
X935602Y180639D01*
X935612Y180721D01*
X935630Y180803D01*
X935648Y180903D01*
X935684Y180994D01*
X935730Y181095D01*
X935739Y181104D01*
X935757Y181140D01*
X935785Y181185D01*
X935830Y181249D01*
X935885Y181313D01*
X935949Y181395D01*
X936022Y181468D01*
X936113Y181532D01*
X936122Y181541D01*
X936149Y181550D01*
X936186Y181577D01*
X936240Y181605D01*
X936313Y181641D01*
X936395Y181677D01*
X936495Y181714D01*
X936605Y181750D01*
X936623Y181760D01*
X936659Y181769D01*
X936723Y181787D01*
X936805Y181805D01*
X936905Y181823D01*
X937015Y181832D01*
X937142Y181851D01*
X937361D01*
X937461Y181842D01*
D02*
G37*
G36*
X940959Y177177D02*
X940185D01*
Y181750D01*
X940959D01*
Y177177D01*
D02*
G37*
G36*
X917446D02*
X916672D01*
Y181750D01*
X917446D01*
Y177177D01*
D02*
G37*
G36*
X913001Y183472D02*
X913183Y183463D01*
X913365Y183445D01*
X913547Y183417D01*
X913702Y183390D01*
X913711D01*
X913729Y183381D01*
X913757D01*
X913793Y183363D01*
X913893Y183335D01*
X914021Y183290D01*
X914167Y183226D01*
X914322Y183144D01*
X914476Y183053D01*
X914622Y182935D01*
X914631Y182926D01*
X914640Y182916D01*
X914668Y182889D01*
X914704Y182862D01*
X914795Y182771D01*
X914905Y182643D01*
X915023Y182488D01*
X915151Y182306D01*
X915269Y182097D01*
X915369Y181860D01*
Y181851D01*
X915378Y181832D01*
X915397Y181796D01*
X915406Y181741D01*
X915433Y181677D01*
X915451Y181605D01*
X915469Y181523D01*
X915497Y181422D01*
X915524Y181322D01*
X915542Y181204D01*
X915588Y180949D01*
X915615Y180666D01*
X915624Y180357D01*
Y180347D01*
Y180329D01*
Y180284D01*
Y180238D01*
X915615Y180174D01*
Y180102D01*
X915606Y179928D01*
X915579Y179728D01*
X915551Y179518D01*
X915506Y179300D01*
X915451Y179081D01*
Y179072D01*
X915442Y179054D01*
X915433Y179026D01*
X915424Y178990D01*
X915387Y178890D01*
X915333Y178762D01*
X915278Y178616D01*
X915205Y178471D01*
X915114Y178316D01*
X915023Y178170D01*
X915014Y178152D01*
X914977Y178106D01*
X914923Y178043D01*
X914850Y177961D01*
X914768Y177869D01*
X914668Y177778D01*
X914567Y177678D01*
X914449Y177596D01*
X914431Y177587D01*
X914394Y177560D01*
X914331Y177523D01*
X914240Y177478D01*
X914130Y177423D01*
X914003Y177378D01*
X913857Y177323D01*
X913693Y177277D01*
X913675D01*
X913647Y177268D01*
X913620Y177259D01*
X913529Y177250D01*
X913402Y177232D01*
X913256Y177214D01*
X913083Y177195D01*
X912891Y177186D01*
X912682Y177177D01*
X910413D01*
Y183481D01*
X912837D01*
X913001Y183472D01*
D02*
G37*
G36*
X944148Y181842D02*
X944230Y181832D01*
X944321Y181814D01*
X944421Y181796D01*
X944540Y181778D01*
X944785Y181696D01*
X944913Y181650D01*
X945041Y181586D01*
X945168Y181523D01*
X945296Y181431D01*
X945414Y181340D01*
X945532Y181231D01*
X945541Y181222D01*
X945560Y181204D01*
X945587Y181167D01*
X945623Y181122D01*
X945669Y181058D01*
X945724Y180976D01*
X945778Y180885D01*
X945833Y180785D01*
X945888Y180675D01*
X945942Y180539D01*
X945997Y180402D01*
X946043Y180247D01*
X946079Y180083D01*
X946106Y179910D01*
X946125Y179728D01*
X946134Y179527D01*
Y179518D01*
Y179491D01*
Y179446D01*
Y179382D01*
X946125Y179309D01*
X946115Y179218D01*
Y179127D01*
X946097Y179026D01*
X946070Y178799D01*
X946015Y178571D01*
X945951Y178343D01*
X945860Y178134D01*
Y178125D01*
X945851Y178115D01*
X945833Y178088D01*
X945815Y178052D01*
X945751Y177961D01*
X945669Y177851D01*
X945560Y177724D01*
X945423Y177596D01*
X945268Y177469D01*
X945086Y177350D01*
X945077D01*
X945068Y177341D01*
X945041Y177323D01*
X944995Y177305D01*
X944949Y177287D01*
X944895Y177268D01*
X944758Y177214D01*
X944603Y177168D01*
X944412Y177122D01*
X944211Y177086D01*
X943993Y177077D01*
X943902D01*
X943829Y177086D01*
X943747Y177095D01*
X943656Y177113D01*
X943546Y177132D01*
X943437Y177150D01*
X943191Y177223D01*
X943054Y177277D01*
X942927Y177332D01*
X942799Y177405D01*
X942672Y177487D01*
X942554Y177578D01*
X942435Y177687D01*
X942426Y177696D01*
X942408Y177715D01*
X942380Y177751D01*
X942344Y177806D01*
X942298Y177869D01*
X942253Y177942D01*
X942198Y178033D01*
X942144Y178143D01*
X942089Y178261D01*
X942034Y178398D01*
X941989Y178544D01*
X941943Y178699D01*
X941907Y178872D01*
X941879Y179054D01*
X941861Y179254D01*
X941852Y179464D01*
Y179482D01*
Y179518D01*
X941861Y179582D01*
Y179673D01*
X941870Y179773D01*
X941888Y179901D01*
X941907Y180029D01*
X941943Y180174D01*
X941980Y180320D01*
X942025Y180475D01*
X942080Y180639D01*
X942153Y180794D01*
X942225Y180940D01*
X942326Y181085D01*
X942426Y181222D01*
X942554Y181340D01*
X942563Y181350D01*
X942581Y181359D01*
X942617Y181386D01*
X942663Y181422D01*
X942717Y181459D01*
X942790Y181504D01*
X942863Y181550D01*
X942954Y181596D01*
X943054Y181641D01*
X943164Y181687D01*
X943410Y181769D01*
X943692Y181832D01*
X943838Y181842D01*
X943993Y181851D01*
X944084D01*
X944148Y181842D01*
D02*
G37*
G36*
X927996D02*
X928069Y181832D01*
X928160Y181814D01*
X928260Y181796D01*
X928378Y181769D01*
X928488Y181741D01*
X928615Y181696D01*
X928734Y181650D01*
X928861Y181586D01*
X928989Y181514D01*
X929116Y181431D01*
X929235Y181331D01*
X929344Y181222D01*
X929353Y181213D01*
X929371Y181195D01*
X929399Y181158D01*
X929435Y181104D01*
X929481Y181040D01*
X929526Y180967D01*
X929581Y180876D01*
X929636Y180766D01*
X929690Y180648D01*
X929745Y180520D01*
X929790Y180375D01*
X929836Y180220D01*
X929872Y180047D01*
X929900Y179865D01*
X929918Y179673D01*
X929927Y179464D01*
Y179455D01*
Y179418D01*
Y179354D01*
X929918Y179263D01*
X926502D01*
Y179254D01*
Y179227D01*
X926511Y179191D01*
Y179136D01*
X926520Y179072D01*
X926538Y178999D01*
X926565Y178835D01*
X926620Y178653D01*
X926693Y178453D01*
X926793Y178270D01*
X926921Y178106D01*
X926930D01*
X926939Y178088D01*
X926994Y178043D01*
X927076Y177979D01*
X927185Y177915D01*
X927331Y177842D01*
X927495Y177778D01*
X927677Y177733D01*
X927777Y177724D01*
X927886Y177715D01*
X927959D01*
X928041Y177724D01*
X928141Y177742D01*
X928251Y177769D01*
X928378Y177806D01*
X928497Y177860D01*
X928615Y177933D01*
X928624Y177942D01*
X928670Y177979D01*
X928724Y178033D01*
X928788Y178106D01*
X928861Y178207D01*
X928943Y178334D01*
X929025Y178480D01*
X929098Y178653D01*
X929900Y178553D01*
Y178544D01*
X929891Y178525D01*
X929881Y178489D01*
X929863Y178434D01*
X929836Y178380D01*
X929809Y178307D01*
X929736Y178152D01*
X929645Y177979D01*
X929517Y177797D01*
X929371Y177623D01*
X929189Y177460D01*
X929180D01*
X929162Y177441D01*
X929134Y177423D01*
X929098Y177396D01*
X929043Y177368D01*
X928989Y177341D01*
X928916Y177305D01*
X928834Y177268D01*
X928743Y177232D01*
X928652Y177195D01*
X928424Y177141D01*
X928169Y177095D01*
X927886Y177077D01*
X927786D01*
X927722Y177086D01*
X927640Y177095D01*
X927540Y177113D01*
X927431Y177132D01*
X927312Y177150D01*
X927057Y177223D01*
X926921Y177277D01*
X926793Y177332D01*
X926657Y177405D01*
X926529Y177487D01*
X926410Y177578D01*
X926292Y177687D01*
X926283Y177696D01*
X926265Y177715D01*
X926237Y177751D01*
X926201Y177806D01*
X926155Y177869D01*
X926110Y177942D01*
X926055Y178033D01*
X926001Y178134D01*
X925946Y178252D01*
X925891Y178380D01*
X925846Y178525D01*
X925800Y178680D01*
X925764Y178844D01*
X925736Y179026D01*
X925718Y179218D01*
X925709Y179418D01*
Y179427D01*
Y179473D01*
Y179527D01*
X925718Y179610D01*
X925727Y179710D01*
X925736Y179819D01*
X925755Y179947D01*
X925782Y180074D01*
X925855Y180366D01*
X925900Y180511D01*
X925955Y180666D01*
X926028Y180812D01*
X926110Y180949D01*
X926201Y181085D01*
X926301Y181213D01*
X926310Y181222D01*
X926329Y181240D01*
X926365Y181267D01*
X926410Y181313D01*
X926465Y181359D01*
X926538Y181413D01*
X926620Y181477D01*
X926720Y181532D01*
X926820Y181596D01*
X926939Y181650D01*
X927067Y181705D01*
X927203Y181750D01*
X927349Y181796D01*
X927504Y181823D01*
X927668Y181842D01*
X927841Y181851D01*
X927932D01*
X927996Y181842D01*
D02*
G37*
%LPC*%
G36*
X912709Y182734D02*
X911252D01*
Y177924D01*
X912746D01*
X912809Y177933D01*
X912946Y177942D01*
X913101Y177952D01*
X913265Y177970D01*
X913429Y177997D01*
X913566Y178033D01*
X913584Y178043D01*
X913629Y178052D01*
X913693Y178079D01*
X913775Y178115D01*
X913866Y178170D01*
X913957Y178225D01*
X914048Y178289D01*
X914139Y178361D01*
X914149Y178380D01*
X914185Y178416D01*
X914240Y178480D01*
X914303Y178571D01*
X914376Y178689D01*
X914458Y178826D01*
X914531Y178981D01*
X914595Y179154D01*
Y179163D01*
X914604Y179181D01*
X914613Y179209D01*
X914622Y179245D01*
X914631Y179291D01*
X914649Y179354D01*
X914668Y179418D01*
X914686Y179491D01*
X914713Y179673D01*
X914741Y179883D01*
X914759Y180120D01*
X914768Y180375D01*
Y180384D01*
Y180420D01*
Y180466D01*
X914759Y180539D01*
Y180621D01*
X914750Y180712D01*
X914741Y180821D01*
X914732Y180930D01*
X914686Y181176D01*
X914631Y181431D01*
X914549Y181668D01*
X914495Y181787D01*
X914440Y181887D01*
Y181896D01*
X914422Y181914D01*
X914404Y181942D01*
X914385Y181978D01*
X914312Y182069D01*
X914221Y182178D01*
X914103Y182297D01*
X913966Y182415D01*
X913811Y182516D01*
X913647Y182598D01*
X913629Y182607D01*
X913584Y182616D01*
X913502Y182643D01*
X913383Y182670D01*
X913237Y182689D01*
X913055Y182716D01*
X912946Y182725D01*
X912827D01*
X912709Y182734D01*
D02*
G37*
G36*
X943993Y181213D02*
X943938D01*
X943893Y181204D01*
X943792Y181195D01*
X943656Y181158D01*
X943501Y181104D01*
X943337Y181031D01*
X943182Y180921D01*
X943100Y180849D01*
X943027Y180776D01*
Y180766D01*
X943009Y180757D01*
X942991Y180730D01*
X942963Y180694D01*
X942936Y180648D01*
X942909Y180593D01*
X942872Y180520D01*
X942836Y180448D01*
X942799Y180357D01*
X942763Y180265D01*
X942736Y180156D01*
X942708Y180038D01*
X942681Y179910D01*
X942663Y179773D01*
X942654Y179619D01*
X942645Y179464D01*
Y179455D01*
Y179427D01*
Y179382D01*
X942654Y179318D01*
Y179245D01*
X942663Y179163D01*
X942690Y178972D01*
X942736Y178753D01*
X942809Y178534D01*
X942900Y178325D01*
X942963Y178234D01*
X943027Y178143D01*
X943036D01*
X943045Y178125D01*
X943100Y178079D01*
X943182Y178006D01*
X943291Y177933D01*
X943428Y177851D01*
X943592Y177778D01*
X943783Y177733D01*
X943884Y177724D01*
X943993Y177715D01*
X944048D01*
X944093Y177724D01*
X944193Y177742D01*
X944330Y177769D01*
X944476Y177824D01*
X944640Y177897D01*
X944794Y178006D01*
X944876Y178079D01*
X944949Y178152D01*
X944958Y178161D01*
X944968Y178170D01*
X944986Y178198D01*
X945013Y178234D01*
X945041Y178279D01*
X945077Y178334D01*
X945113Y178407D01*
X945150Y178480D01*
X945186Y178571D01*
X945214Y178671D01*
X945250Y178780D01*
X945277Y178899D01*
X945305Y179036D01*
X945323Y179172D01*
X945341Y179327D01*
Y179491D01*
Y179500D01*
Y179527D01*
Y179573D01*
X945332Y179628D01*
Y179701D01*
X945323Y179783D01*
X945296Y179974D01*
X945250Y180174D01*
X945177Y180393D01*
X945077Y180593D01*
X945022Y180694D01*
X944949Y180776D01*
Y180785D01*
X944931Y180794D01*
X944876Y180849D01*
X944794Y180912D01*
X944685Y180994D01*
X944549Y181076D01*
X944385Y181149D01*
X944202Y181195D01*
X944102Y181204D01*
X943993Y181213D01*
D02*
G37*
G36*
X927850D02*
X927795D01*
X927759Y181204D01*
X927659Y181195D01*
X927540Y181167D01*
X927394Y181122D01*
X927240Y181058D01*
X927094Y180967D01*
X926948Y180849D01*
X926930Y180830D01*
X926893Y180785D01*
X926830Y180703D01*
X926766Y180593D01*
X926693Y180466D01*
X926629Y180302D01*
X926575Y180111D01*
X926547Y179901D01*
X929107D01*
Y179910D01*
Y179928D01*
X929098Y179956D01*
Y179992D01*
X929080Y180102D01*
X929052Y180220D01*
X929007Y180366D01*
X928961Y180502D01*
X928889Y180639D01*
X928806Y180757D01*
Y180766D01*
X928788Y180776D01*
X928743Y180830D01*
X928661Y180903D01*
X928551Y180985D01*
X928415Y181067D01*
X928251Y181140D01*
X928059Y181195D01*
X927959Y181204D01*
X927850Y181213D01*
D02*
G37*
%LPD*%
D10*
X276626Y672654D02*
G03*
X261531Y656264I435J-15546D01*
G01*
X561803Y665073D02*
G03*
X550626Y672654I-11018J-4215D01*
G01*
X563022Y661886D02*
G03*
X573076Y654642I10532J4019D01*
G01*
X623365Y641708D02*
G03*
X610925Y654642I-12687J247D01*
G01*
X609075Y337545D02*
G03*
X623365Y351914I30J14260D01*
G01*
X577417Y337545D02*
G03*
X565059Y330674I31J-14604D01*
G01*
X550000Y322736D02*
G03*
X565059Y330674I661J17000D01*
G01*
X290174Y325762D02*
G03*
X296457Y322736I6097J4625D01*
G01*
X290271Y325688D02*
G03*
X281693Y329653I-8805J-7785D01*
G01*
X261532Y341993D02*
G03*
X274182Y329653I12282J-63D01*
G01*
X561803Y665073D02*
X563022Y661886D01*
X276626Y672654D02*
X550785D01*
X573076Y654642D02*
X577020D01*
X610925D01*
X623365Y351914D02*
Y641708D01*
X577417Y337545D02*
X609105D01*
X296457Y322736D02*
X550000D01*
X274182Y329653D02*
X281693D01*
X261531Y656264D02*
X261532Y341993D01*
D16*
X621857Y660887D02*
X623826Y654982D01*
X625794Y660887D01*
X623826Y673032D02*
X625794Y667126D01*
X621857D02*
X623826Y673032D01*
Y654982D02*
Y664007D01*
Y673032D01*
X611937Y654982D02*
X624613D01*
X623038Y673032D02*
X624311D01*
X238189Y327953D02*
X240158Y322047D01*
X242126Y327953D01*
X240158Y673032D02*
X242126Y667126D01*
X238189D02*
X240158Y673032D01*
Y322047D02*
Y474778D01*
Y516726D02*
Y673032D01*
X239370Y322047D02*
X561319D01*
X239370Y673032D02*
X550394D01*
X640158Y678937D02*
X642126Y673032D01*
X644095Y678937D01*
X642126Y641700D02*
X644095Y635794D01*
X640158D02*
X642126Y641700D01*
Y673032D02*
Y682874D01*
Y631857D02*
Y641700D01*
X624498D02*
X642913D01*
X550394Y673032D02*
X642913D01*
X261122Y304429D02*
X267028Y306398D01*
X261122Y304429D02*
X267028Y302461D01*
X289567D02*
X295472Y304429D01*
X289567Y306398D02*
X295472Y304429D01*
X261122D02*
X278297D01*
X295472D01*
X261122Y303642D02*
Y340846D01*
X295472Y303642D02*
Y321949D01*
Y304429D02*
X301378Y306398D01*
X295472Y304429D02*
X301378Y302461D01*
X547722D02*
X553628Y304429D01*
X547722Y306398D02*
X553628Y304429D01*
X295472D02*
X401297D01*
X444229D02*
X553628D01*
X295472Y303642D02*
Y321949D01*
X553628Y303642D02*
Y321438D01*
X261122Y692717D02*
X267028Y694685D01*
X261122Y692717D02*
X267028Y690748D01*
X617920D02*
X623826Y692717D01*
X617920Y694685D02*
X623826Y692717D01*
X261122D02*
X419712D01*
X461660D02*
X623826D01*
X261122Y340846D02*
Y693504D01*
X623826Y344193D02*
Y693504D01*
X553628Y304429D02*
X559534Y306398D01*
X553628Y304429D02*
X559534Y302461D01*
X617920D02*
X623826Y304429D01*
X617920Y306398D02*
X623826Y304429D01*
X553628D02*
X565965D01*
X607913D02*
X623826D01*
X553628Y303642D02*
Y321438D01*
X623826Y303642D02*
Y351196D01*
X640256Y342846D02*
X642224Y336940D01*
X644193Y342846D01*
X642224Y322073D02*
X644193Y316167D01*
X640256D02*
X642224Y322073D01*
Y336940D02*
Y346783D01*
Y312230D02*
Y322073D01*
X554055D02*
X643012D01*
X611637Y336940D02*
X643012D01*
X640158Y342758D02*
X642126Y336853D01*
X644095Y342758D01*
X642126Y641700D02*
X644095Y635794D01*
X640158D02*
X642126Y641700D01*
Y336853D02*
Y466023D01*
Y508955D02*
Y641700D01*
X611354Y336853D02*
X642913D01*
X624498Y641700D02*
X642913D01*
X585339Y661252D02*
Y667156D01*
X582387Y664204D01*
X586323D01*
X589275Y660268D02*
X590259Y661252D01*
Y662236D01*
X589275D01*
Y661252D01*
X590259D01*
X589275Y660268D01*
X588291Y659284D01*
X598130Y667156D02*
X594195D01*
Y664204D01*
X596162Y665188D01*
X597146D01*
X598130Y664204D01*
Y662236D01*
X597146Y661252D01*
X595178D01*
X594195Y662236D01*
X600098D02*
X601082Y661252D01*
X603050D01*
X604034Y662236D01*
Y666172D01*
X603050Y667156D01*
X601082D01*
X600098Y666172D01*
Y665188D01*
X601082Y664204D01*
X604034D01*
X606002Y661252D02*
Y665188D01*
X606986D01*
X607970Y664204D01*
Y661252D01*
Y664204D01*
X608954Y665188D01*
X609937Y664204D01*
Y661252D01*
X611905D02*
Y665188D01*
X612889D01*
X613873Y664204D01*
Y661252D01*
Y664204D01*
X614857Y665188D01*
X615841Y664204D01*
Y661252D01*
X239961Y476565D02*
X238977Y477549D01*
Y479517D01*
X239961Y480501D01*
X240945D01*
X241929Y479517D01*
X242913Y480501D01*
X243897D01*
X244881Y479517D01*
Y477549D01*
X243897Y476565D01*
X242913D01*
X241929Y477549D01*
X240945Y476565D01*
X239961D01*
X241929Y477549D02*
Y479517D01*
X243897Y482469D02*
X244881Y483453D01*
Y485421D01*
X243897Y486405D01*
X239961D01*
X238977Y485421D01*
Y483453D01*
X239961Y482469D01*
X240945D01*
X241929Y483453D01*
Y486405D01*
X245865Y489356D02*
X244881Y490340D01*
X243897D01*
Y489356D01*
X244881D01*
Y490340D01*
X245865Y489356D01*
X246849Y488373D01*
X244881Y494276D02*
Y496244D01*
Y495260D01*
X238977D01*
X239961Y494276D01*
X238977Y503131D02*
Y499196D01*
X241929D01*
X240945Y501164D01*
Y502147D01*
X241929Y503131D01*
X243897D01*
X244881Y502147D01*
Y500180D01*
X243897Y499196D01*
X244881Y505099D02*
X240945D01*
Y506083D01*
X241929Y507067D01*
X244881D01*
X241929D01*
X240945Y508051D01*
X241929Y509035D01*
X244881D01*
Y511003D02*
X240945D01*
Y511987D01*
X241929Y512971D01*
X244881D01*
X241929D01*
X240945Y513955D01*
X241929Y514939D01*
X244881D01*
X655115Y638851D02*
Y642787D01*
X656099D01*
X660035Y638851D01*
X661019D01*
X662003Y645739D02*
X661019Y646723D01*
X660035D01*
Y645739D01*
X661019D01*
Y646723D01*
X662003Y645739D01*
X662986Y644755D01*
X660035Y650659D02*
X661019Y651643D01*
Y653611D01*
X660035Y654594D01*
X656099D01*
X655115Y653611D01*
Y651643D01*
X656099Y650659D01*
X657083D01*
X658067Y651643D01*
Y654594D01*
X655115Y660498D02*
X656099Y658530D01*
X658067Y656562D01*
X660035D01*
X661019Y657546D01*
Y659514D01*
X660035Y660498D01*
X659051D01*
X658067Y659514D01*
Y656562D01*
X661019Y662466D02*
X657083D01*
Y663450D01*
X658067Y664434D01*
X661019D01*
X658067D01*
X657083Y665418D01*
X658067Y666402D01*
X661019D01*
Y668369D02*
X657083D01*
Y669353D01*
X658067Y670337D01*
X661019D01*
X658067D01*
X657083Y671321D01*
X658067Y672305D01*
X661019D01*
X266339Y298522D02*
X267322Y299506D01*
X269290D01*
X270274Y298522D01*
Y297538D01*
X269290Y296554D01*
X270274Y295570D01*
Y294586D01*
X269290Y293602D01*
X267322D01*
X266339Y294586D01*
Y295570D01*
X267322Y296554D01*
X266339Y297538D01*
Y298522D01*
X267322Y296554D02*
X269290D01*
X273226Y292618D02*
X274210Y293602D01*
Y294586D01*
X273226D01*
Y293602D01*
X274210D01*
X273226Y292618D01*
X272242Y291634D01*
X278146Y299506D02*
X282082D01*
Y298522D01*
X278146Y294586D01*
Y293602D01*
X284049Y298522D02*
X285033Y299506D01*
X287001D01*
X287985Y298522D01*
Y297538D01*
X287001Y296554D01*
X286017D01*
X287001D01*
X287985Y295570D01*
Y294586D01*
X287001Y293602D01*
X285033D01*
X284049Y294586D01*
X289953Y293602D02*
Y297538D01*
X290937D01*
X291921Y296554D01*
Y293602D01*
Y296554D01*
X292905Y297538D01*
X293889Y296554D01*
Y293602D01*
X295857D02*
Y297538D01*
X296841D01*
X297824Y296554D01*
Y293602D01*
Y296554D01*
X298808Y297538D01*
X299792Y296554D01*
Y293602D01*
X407020Y305610D02*
X405052Y304626D01*
X403084Y302658D01*
Y300690D01*
X404068Y299706D01*
X406036D01*
X407020Y300690D01*
Y301674D01*
X406036Y302658D01*
X403084D01*
X412923Y305610D02*
X408988D01*
Y302658D01*
X410956Y303642D01*
X411940D01*
X412923Y302658D01*
Y300690D01*
X411940Y299706D01*
X409972D01*
X408988Y300690D01*
X415875Y298722D02*
X416859Y299706D01*
Y300690D01*
X415875D01*
Y299706D01*
X416859D01*
X415875Y298722D01*
X414891Y297738D01*
X424731Y305610D02*
X420795D01*
Y302658D01*
X422763Y303642D01*
X423747D01*
X424731Y302658D01*
Y300690D01*
X423747Y299706D01*
X421779D01*
X420795Y300690D01*
X426699Y305610D02*
X430634D01*
Y304626D01*
X426699Y300690D01*
Y299706D01*
X432602D02*
Y303642D01*
X433586D01*
X434570Y302658D01*
Y299706D01*
Y302658D01*
X435554Y303642D01*
X436538Y302658D01*
Y299706D01*
X438506D02*
Y303642D01*
X439490D01*
X440474Y302658D01*
Y299706D01*
Y302658D01*
X441458Y303642D01*
X442442Y302658D01*
Y299706D01*
X421500Y688977D02*
X422484Y687993D01*
X424451D01*
X425435Y688977D01*
Y692913D01*
X424451Y693897D01*
X422484D01*
X421500Y692913D01*
Y691929D01*
X422484Y690945D01*
X425435D01*
X431339Y687993D02*
X427403D01*
X431339Y691929D01*
Y692913D01*
X430355Y693897D01*
X428387D01*
X427403Y692913D01*
X434291Y687009D02*
X435275Y687993D01*
Y688977D01*
X434291D01*
Y687993D01*
X435275D01*
X434291Y687009D01*
X433307Y686025D01*
X439211Y687993D02*
X441178D01*
X440194D01*
Y693897D01*
X439211Y692913D01*
X444130D02*
X445114Y693897D01*
X447082D01*
X448066Y692913D01*
Y691929D01*
X447082Y690945D01*
X446098D01*
X447082D01*
X448066Y689961D01*
Y688977D01*
X447082Y687993D01*
X445114D01*
X444130Y688977D01*
X450034Y687993D02*
Y691929D01*
X451018D01*
X452002Y690945D01*
Y687993D01*
Y690945D01*
X452986Y691929D01*
X453969Y690945D01*
Y687993D01*
X455937D02*
Y691929D01*
X456921D01*
X457905Y690945D01*
Y687993D01*
Y690945D01*
X458889Y691929D01*
X459873Y690945D01*
Y687993D01*
X567753Y299706D02*
X569721D01*
X568737D01*
Y305610D01*
X567753Y304626D01*
X572672Y305610D02*
X576608D01*
Y304626D01*
X572672Y300690D01*
Y299706D01*
X579560Y298722D02*
X580544Y299706D01*
Y300690D01*
X579560D01*
Y299706D01*
X580544D01*
X579560Y298722D01*
X578576Y297738D01*
X584480Y304626D02*
X585463Y305610D01*
X587431D01*
X588415Y304626D01*
Y303642D01*
X587431Y302658D01*
X588415Y301674D01*
Y300690D01*
X587431Y299706D01*
X585463D01*
X584480Y300690D01*
Y301674D01*
X585463Y302658D01*
X584480Y303642D01*
Y304626D01*
X585463Y302658D02*
X587431D01*
X590383Y304626D02*
X591367Y305610D01*
X593335D01*
X594319Y304626D01*
Y303642D01*
X593335Y302658D01*
X592351D01*
X593335D01*
X594319Y301674D01*
Y300690D01*
X593335Y299706D01*
X591367D01*
X590383Y300690D01*
X596287Y299706D02*
Y303642D01*
X597271D01*
X598255Y302658D01*
Y299706D01*
Y302658D01*
X599239Y303642D01*
X600222Y302658D01*
Y299706D01*
X602190D02*
Y303642D01*
X603174D01*
X604158Y302658D01*
Y299706D01*
Y302658D01*
X605142Y303642D01*
X606126Y302658D01*
Y299706D01*
X656197Y310992D02*
X655213Y311976D01*
Y313944D01*
X656197Y314928D01*
X657181D01*
X658165Y313944D01*
Y312960D01*
Y313944D01*
X659149Y314928D01*
X660133D01*
X661117Y313944D01*
Y311976D01*
X660133Y310992D01*
X662101Y317880D02*
X661117Y318864D01*
X660133D01*
Y317880D01*
X661117D01*
Y318864D01*
X662101Y317880D01*
X663085Y316896D01*
X655213Y322799D02*
Y326735D01*
X656197D01*
X660133Y322799D01*
X661117D01*
X656197Y328703D02*
X655213Y329687D01*
Y331655D01*
X656197Y332639D01*
X657181D01*
X658165Y331655D01*
X659149Y332639D01*
X660133D01*
X661117Y331655D01*
Y329687D01*
X660133Y328703D01*
X659149D01*
X658165Y329687D01*
X657181Y328703D01*
X656197D01*
X658165Y329687D02*
Y331655D01*
X661117Y334607D02*
X657181D01*
Y335591D01*
X658165Y336575D01*
X661117D01*
X658165D01*
X657181Y337558D01*
X658165Y338542D01*
X661117D01*
Y340510D02*
X657181D01*
Y341494D01*
X658165Y342478D01*
X661117D01*
X658165D01*
X657181Y343462D01*
X658165Y344446D01*
X661117D01*
X640945Y467810D02*
Y471746D01*
X641929D01*
X645865Y467810D01*
X646849D01*
X640945Y473714D02*
Y477650D01*
X641929D01*
X645865Y473714D01*
X646849D01*
X647833Y480602D02*
X646849Y481585D01*
X645865D01*
Y480602D01*
X646849D01*
Y481585D01*
X647833Y480602D01*
X648817Y479618D01*
X646849Y488473D02*
X640945D01*
X643897Y485521D01*
Y489457D01*
X641929Y491425D02*
X640945Y492409D01*
Y494377D01*
X641929Y495361D01*
X642913D01*
X643897Y494377D01*
Y493393D01*
Y494377D01*
X644881Y495361D01*
X645865D01*
X646849Y494377D01*
Y492409D01*
X645865Y491425D01*
X646849Y497328D02*
X642913D01*
Y498312D01*
X643897Y499296D01*
X646849D01*
X643897D01*
X642913Y500280D01*
X643897Y501264D01*
X646849D01*
Y503232D02*
X642913D01*
Y504216D01*
X643897Y505200D01*
X646849D01*
X643897D01*
X642913Y506184D01*
X643897Y507168D01*
X646849D01*
M02*
