G04*
G04 #@! TF.GenerationSoftware,Altium Limited,Altium Designer,18.1.7 (191)*
G04*
G04 Layer_Color=8388736*
%FSLAX25Y25*%
%MOIN*%
G70*
G01*
G75*
%ADD10C,0.01000*%
%ADD16C,0.00787*%
%ADD48R,0.14567X0.07874*%
%ADD49R,0.04156X0.10061*%
%ADD50R,0.06124X0.05534*%
%ADD51R,0.07699X0.04550*%
%ADD52R,0.13211X0.09668*%
%ADD53R,0.04550X0.07699*%
%ADD54R,0.09668X0.13211*%
%ADD55R,0.05337X0.05337*%
%ADD56R,0.06400X0.03400*%
%ADD57R,0.10061X0.03762*%
%ADD58R,0.08979X0.04156*%
G04:AMPARAMS|DCode=59|XSize=15.81mil|YSize=72.9mil|CornerRadius=0mil|HoleSize=0mil|Usage=FLASHONLY|Rotation=135.000|XOffset=0mil|YOffset=0mil|HoleType=Round|Shape=Round|*
%AMOVALD59*
21,1,0.05709,0.01581,0.00000,0.00000,225.0*
1,1,0.01581,0.02018,0.02018*
1,1,0.01581,-0.02018,-0.02018*
%
%ADD59OVALD59*%

G04:AMPARAMS|DCode=60|XSize=15.81mil|YSize=72.9mil|CornerRadius=0mil|HoleSize=0mil|Usage=FLASHONLY|Rotation=225.000|XOffset=0mil|YOffset=0mil|HoleType=Round|Shape=Round|*
%AMOVALD60*
21,1,0.05709,0.01581,0.00000,0.00000,315.0*
1,1,0.01581,-0.02018,0.02018*
1,1,0.01581,0.02018,-0.02018*
%
%ADD60OVALD60*%

%ADD61R,0.05534X0.04550*%
%ADD62R,0.06361X0.03802*%
%ADD63R,0.03762X0.05337*%
G04:AMPARAMS|DCode=64|XSize=37.62mil|YSize=53.37mil|CornerRadius=9.01mil|HoleSize=0mil|Usage=FLASHONLY|Rotation=180.000|XOffset=0mil|YOffset=0mil|HoleType=Round|Shape=RoundedRectangle|*
%AMROUNDEDRECTD64*
21,1,0.03762,0.03535,0,0,180.0*
21,1,0.01961,0.05337,0,0,180.0*
1,1,0.01802,-0.00980,0.01768*
1,1,0.01802,0.00980,0.01768*
1,1,0.01802,0.00980,-0.01768*
1,1,0.01802,-0.00980,-0.01768*
%
%ADD64ROUNDEDRECTD64*%
%ADD65R,0.05731X0.10061*%
%ADD66R,0.06124X0.06124*%
G04:AMPARAMS|DCode=67|XSize=53.37mil|YSize=65.18mil|CornerRadius=0mil|HoleSize=0mil|Usage=FLASHONLY|Rotation=45.000|XOffset=0mil|YOffset=0mil|HoleType=Round|Shape=Rectangle|*
%AMROTATEDRECTD67*
4,1,4,0.00418,-0.04191,-0.04191,0.00418,-0.00418,0.04191,0.04191,-0.00418,0.00418,-0.04191,0.0*
%
%ADD67ROTATEDRECTD67*%

%ADD68R,0.07400X0.05400*%
%ADD69R,0.05534X0.06124*%
G04:AMPARAMS|DCode=70|XSize=55.34mil|YSize=61.24mil|CornerRadius=0mil|HoleSize=0mil|Usage=FLASHONLY|Rotation=135.000|XOffset=0mil|YOffset=0mil|HoleType=Round|Shape=Rectangle|*
%AMROTATEDRECTD70*
4,1,4,0.04122,0.00209,-0.00209,-0.04122,-0.04122,-0.00209,0.00209,0.04122,0.04122,0.00209,0.0*
%
%ADD70ROTATEDRECTD70*%

%ADD71R,0.06124X0.07400*%
%ADD72R,0.07400X0.06124*%
%ADD73R,0.10061X0.04156*%
%ADD74C,0.09843*%
%ADD75R,0.07306X0.07306*%
%ADD76C,0.07306*%
%ADD77R,0.07306X0.07306*%
%ADD78C,0.05337*%
%ADD79C,0.25022*%
%ADD80C,0.06085*%
%ADD81C,0.04550*%
G36*
X930875Y183581D02*
X930938D01*
X931111Y183563D01*
X931303Y183536D01*
X931503Y183490D01*
X931722Y183436D01*
X931922Y183363D01*
X931931D01*
X931949Y183354D01*
X931977Y183335D01*
X932013Y183317D01*
X932104Y183272D01*
X932223Y183190D01*
X932359Y183099D01*
X932496Y182980D01*
X932624Y182844D01*
X932742Y182689D01*
Y182680D01*
X932751Y182670D01*
X932769Y182643D01*
X932788Y182616D01*
X932833Y182525D01*
X932888Y182406D01*
X932952Y182261D01*
X932997Y182087D01*
X933043Y181905D01*
X933061Y181705D01*
X932259Y181641D01*
Y181650D01*
Y181668D01*
X932250Y181696D01*
X932241Y181741D01*
X932214Y181842D01*
X932177Y181978D01*
X932123Y182124D01*
X932041Y182270D01*
X931940Y182406D01*
X931813Y182534D01*
X931795Y182543D01*
X931749Y182579D01*
X931658Y182634D01*
X931540Y182689D01*
X931385Y182743D01*
X931202Y182798D01*
X930975Y182834D01*
X930720Y182844D01*
X930592D01*
X930537Y182834D01*
X930464Y182825D01*
X930301Y182807D01*
X930118Y182771D01*
X929936Y182725D01*
X929763Y182652D01*
X929690Y182607D01*
X929617Y182561D01*
X929599Y182552D01*
X929563Y182516D01*
X929508Y182452D01*
X929453Y182379D01*
X929389Y182279D01*
X929335Y182169D01*
X929298Y182042D01*
X929280Y181896D01*
Y181878D01*
Y181842D01*
X929289Y181778D01*
X929307Y181705D01*
X929335Y181614D01*
X929380Y181523D01*
X929435Y181431D01*
X929517Y181340D01*
X929526Y181331D01*
X929572Y181304D01*
X929608Y181277D01*
X929645Y181258D01*
X929699Y181231D01*
X929763Y181195D01*
X929845Y181167D01*
X929936Y181131D01*
X930036Y181095D01*
X930155Y181049D01*
X930282Y181012D01*
X930428Y180967D01*
X930592Y180930D01*
X930774Y180885D01*
X930783D01*
X930820Y180876D01*
X930875Y180867D01*
X930938Y180849D01*
X931020Y180830D01*
X931120Y180803D01*
X931221Y180776D01*
X931330Y180748D01*
X931567Y180684D01*
X931795Y180621D01*
X931904Y180584D01*
X932004Y180548D01*
X932095Y180520D01*
X932168Y180484D01*
X932177D01*
X932195Y180475D01*
X932223Y180457D01*
X932259Y180438D01*
X932359Y180384D01*
X932478Y180311D01*
X932615Y180211D01*
X932751Y180102D01*
X932879Y179974D01*
X932988Y179837D01*
X932997Y179819D01*
X933033Y179773D01*
X933070Y179692D01*
X933125Y179582D01*
X933170Y179455D01*
X933216Y179300D01*
X933243Y179127D01*
X933252Y178945D01*
Y178935D01*
Y178926D01*
Y178899D01*
Y178863D01*
X933234Y178762D01*
X933216Y178635D01*
X933179Y178489D01*
X933134Y178334D01*
X933061Y178170D01*
X932961Y177997D01*
Y177988D01*
X932952Y177979D01*
X932906Y177924D01*
X932842Y177842D01*
X932751Y177751D01*
X932633Y177642D01*
X932487Y177523D01*
X932323Y177414D01*
X932132Y177314D01*
X932123D01*
X932104Y177305D01*
X932077Y177296D01*
X932041Y177277D01*
X931986Y177259D01*
X931922Y177232D01*
X931776Y177195D01*
X931603Y177150D01*
X931394Y177104D01*
X931166Y177077D01*
X930920Y177068D01*
X930774D01*
X930701Y177077D01*
X930619D01*
X930528Y177086D01*
X930419Y177095D01*
X930191Y177132D01*
X929954Y177168D01*
X929718Y177232D01*
X929490Y177314D01*
X929481D01*
X929462Y177323D01*
X929435Y177341D01*
X929399Y177359D01*
X929289Y177414D01*
X929162Y177496D01*
X929016Y177605D01*
X928861Y177733D01*
X928715Y177888D01*
X928579Y178061D01*
Y178070D01*
X928561Y178088D01*
X928551Y178115D01*
X928524Y178152D01*
X928506Y178198D01*
X928479Y178252D01*
X928415Y178389D01*
X928351Y178562D01*
X928296Y178753D01*
X928260Y178972D01*
X928242Y179200D01*
X929025Y179272D01*
Y179263D01*
Y179254D01*
X929034Y179227D01*
Y179191D01*
X929052Y179109D01*
X929080Y178990D01*
X929116Y178872D01*
X929153Y178735D01*
X929216Y178607D01*
X929280Y178489D01*
X929289Y178480D01*
X929317Y178443D01*
X929362Y178380D01*
X929435Y178316D01*
X929526Y178234D01*
X929626Y178152D01*
X929763Y178070D01*
X929909Y177997D01*
X929918D01*
X929927Y177988D01*
X929954Y177979D01*
X929982Y177970D01*
X930073Y177942D01*
X930191Y177906D01*
X930337Y177869D01*
X930501Y177842D01*
X930683Y177824D01*
X930884Y177815D01*
X930966D01*
X931057Y177824D01*
X931166Y177833D01*
X931293Y177851D01*
X931439Y177869D01*
X931585Y177906D01*
X931722Y177952D01*
X931740Y177961D01*
X931785Y177979D01*
X931849Y178015D01*
X931931Y178052D01*
X932013Y178115D01*
X932104Y178179D01*
X932195Y178252D01*
X932268Y178343D01*
X932277Y178352D01*
X932296Y178389D01*
X932323Y178434D01*
X932359Y178507D01*
X932396Y178580D01*
X932423Y178671D01*
X932441Y178771D01*
X932450Y178881D01*
Y178890D01*
Y178935D01*
X932441Y178990D01*
X932432Y179063D01*
X932405Y179136D01*
X932378Y179227D01*
X932332Y179318D01*
X932268Y179400D01*
X932259Y179409D01*
X932232Y179436D01*
X932195Y179473D01*
X932132Y179527D01*
X932059Y179582D01*
X931958Y179646D01*
X931840Y179710D01*
X931703Y179764D01*
X931694Y179773D01*
X931649Y179783D01*
X931576Y179810D01*
X931530Y179819D01*
X931467Y179837D01*
X931403Y179865D01*
X931321Y179883D01*
X931230Y179910D01*
X931120Y179938D01*
X931011Y179965D01*
X930884Y180001D01*
X930738Y180038D01*
X930583Y180074D01*
X930574D01*
X930546Y180083D01*
X930501Y180092D01*
X930446Y180111D01*
X930373Y180129D01*
X930291Y180147D01*
X930109Y180202D01*
X929909Y180265D01*
X929699Y180329D01*
X929517Y180393D01*
X929435Y180429D01*
X929362Y180466D01*
X929353D01*
X929344Y180475D01*
X929289Y180511D01*
X929207Y180557D01*
X929116Y180630D01*
X929007Y180712D01*
X928898Y180812D01*
X928788Y180930D01*
X928697Y181058D01*
X928688Y181076D01*
X928661Y181122D01*
X928624Y181195D01*
X928588Y181286D01*
X928551Y181404D01*
X928515Y181541D01*
X928488Y181687D01*
X928479Y181842D01*
Y181851D01*
Y181860D01*
Y181887D01*
Y181923D01*
X928497Y182015D01*
X928515Y182133D01*
X928542Y182270D01*
X928588Y182424D01*
X928652Y182579D01*
X928743Y182734D01*
Y182743D01*
X928752Y182753D01*
X928797Y182807D01*
X928861Y182880D01*
X928943Y182971D01*
X929052Y183071D01*
X929189Y183181D01*
X929353Y183281D01*
X929535Y183372D01*
X929544D01*
X929563Y183381D01*
X929590Y183390D01*
X929626Y183408D01*
X929672Y183427D01*
X929736Y183445D01*
X929872Y183481D01*
X930045Y183518D01*
X930246Y183554D01*
X930455Y183581D01*
X930692Y183591D01*
X930811D01*
X930875Y183581D01*
D02*
G37*
G36*
X944831Y177177D02*
X944111D01*
Y177751D01*
X944102Y177742D01*
X944093Y177724D01*
X944066Y177687D01*
X944029Y177642D01*
X943984Y177596D01*
X943929Y177542D01*
X943865Y177478D01*
X943783Y177414D01*
X943701Y177350D01*
X943610Y177287D01*
X943501Y177232D01*
X943382Y177186D01*
X943264Y177141D01*
X943127Y177104D01*
X942982Y177086D01*
X942827Y177077D01*
X942772D01*
X942736Y177086D01*
X942626Y177095D01*
X942499Y177113D01*
X942344Y177150D01*
X942171Y177205D01*
X941998Y177277D01*
X941825Y177378D01*
X941816D01*
X941807Y177396D01*
X941752Y177432D01*
X941670Y177505D01*
X941570Y177596D01*
X941451Y177715D01*
X941333Y177860D01*
X941214Y178024D01*
X941114Y178216D01*
Y178225D01*
X941105Y178243D01*
X941096Y178270D01*
X941078Y178307D01*
X941059Y178361D01*
X941032Y178425D01*
X941014Y178489D01*
X940996Y178571D01*
X940950Y178753D01*
X940905Y178963D01*
X940877Y179200D01*
X940868Y179455D01*
Y179464D01*
Y179482D01*
Y179518D01*
Y179573D01*
X940877Y179628D01*
Y179701D01*
X940895Y179865D01*
X940923Y180056D01*
X940968Y180265D01*
X941023Y180484D01*
X941096Y180694D01*
Y180703D01*
X941105Y180721D01*
X941123Y180748D01*
X941141Y180785D01*
X941196Y180885D01*
X941269Y181012D01*
X941360Y181149D01*
X941479Y181286D01*
X941615Y181431D01*
X941779Y181550D01*
X941788D01*
X941797Y181559D01*
X941825Y181577D01*
X941861Y181596D01*
X941952Y181641D01*
X942080Y181705D01*
X942225Y181760D01*
X942399Y181805D01*
X942590Y181842D01*
X942790Y181851D01*
X942863D01*
X942936Y181842D01*
X943036Y181832D01*
X943155Y181805D01*
X943282Y181778D01*
X943410Y181732D01*
X943528Y181668D01*
X943546Y181659D01*
X943583Y181641D01*
X943638Y181596D01*
X943710Y181550D01*
X943801Y181486D01*
X943884Y181404D01*
X943975Y181322D01*
X944057Y181222D01*
Y183481D01*
X944831D01*
Y177177D01*
D02*
G37*
G36*
X923240Y181842D02*
X923304Y181832D01*
X923441Y181814D01*
X923605Y181778D01*
X923778Y181723D01*
X923951Y181641D01*
X924124Y181541D01*
X924133D01*
X924142Y181523D01*
X924197Y181486D01*
X924279Y181413D01*
X924379Y181322D01*
X924488Y181204D01*
X924598Y181058D01*
X924707Y180885D01*
X924798Y180694D01*
Y180684D01*
X924807Y180666D01*
X924816Y180639D01*
X924835Y180603D01*
X924853Y180548D01*
X924871Y180484D01*
X924916Y180338D01*
X924962Y180156D01*
X924998Y179956D01*
X925026Y179728D01*
X925035Y179491D01*
Y179482D01*
Y179464D01*
Y179427D01*
Y179373D01*
X925026Y179309D01*
Y179236D01*
X925008Y179072D01*
X924971Y178872D01*
X924926Y178662D01*
X924862Y178443D01*
X924780Y178225D01*
Y178216D01*
X924771Y178198D01*
X924753Y178170D01*
X924734Y178134D01*
X924671Y178033D01*
X924589Y177906D01*
X924488Y177769D01*
X924361Y177633D01*
X924215Y177496D01*
X924042Y177368D01*
X924033D01*
X924024Y177359D01*
X923996Y177341D01*
X923960Y177323D01*
X923869Y177277D01*
X923741Y177223D01*
X923586Y177168D01*
X923423Y177122D01*
X923231Y177086D01*
X923040Y177077D01*
X922976D01*
X922903Y177086D01*
X922812Y177095D01*
X922703Y177113D01*
X922584Y177141D01*
X922466Y177177D01*
X922348Y177232D01*
X922338Y177241D01*
X922293Y177259D01*
X922238Y177296D01*
X922165Y177350D01*
X922092Y177405D01*
X922001Y177478D01*
X921919Y177560D01*
X921846Y177651D01*
Y175428D01*
X921072D01*
Y181750D01*
X921774D01*
Y181149D01*
X921783Y181167D01*
X921819Y181204D01*
X921865Y181267D01*
X921937Y181340D01*
X922019Y181431D01*
X922111Y181514D01*
X922220Y181596D01*
X922329Y181668D01*
X922348Y181677D01*
X922384Y181696D01*
X922457Y181723D01*
X922548Y181760D01*
X922657Y181796D01*
X922785Y181823D01*
X922931Y181842D01*
X923094Y181851D01*
X923195D01*
X923240Y181842D01*
D02*
G37*
G36*
X952784D02*
X952884Y181823D01*
X953003Y181787D01*
X953130Y181741D01*
X953276Y181677D01*
X953431Y181596D01*
X953148Y180885D01*
X953139Y180894D01*
X953103Y180912D01*
X953048Y180940D01*
X952975Y180967D01*
X952893Y180994D01*
X952793Y181022D01*
X952693Y181040D01*
X952593Y181049D01*
X952547D01*
X952502Y181040D01*
X952438Y181031D01*
X952374Y181012D01*
X952292Y180985D01*
X952210Y180949D01*
X952137Y180894D01*
X952128Y180885D01*
X952101Y180867D01*
X952073Y180830D01*
X952028Y180785D01*
X951982Y180721D01*
X951937Y180648D01*
X951891Y180566D01*
X951855Y180466D01*
X951846Y180448D01*
X951837Y180393D01*
X951818Y180311D01*
X951791Y180202D01*
X951764Y180065D01*
X951746Y179910D01*
X951736Y179746D01*
X951727Y179564D01*
Y177177D01*
X950953D01*
Y181750D01*
X951654D01*
Y181058D01*
X951663Y181067D01*
X951700Y181131D01*
X951746Y181213D01*
X951818Y181313D01*
X951891Y181413D01*
X951973Y181523D01*
X952055Y181614D01*
X952137Y181687D01*
X952146Y181696D01*
X952174Y181714D01*
X952228Y181741D01*
X952283Y181769D01*
X952356Y181796D01*
X952447Y181823D01*
X952538Y181842D01*
X952638Y181851D01*
X952702D01*
X952784Y181842D01*
D02*
G37*
G36*
X939957Y177177D02*
X939183D01*
Y183481D01*
X939957D01*
Y177177D01*
D02*
G37*
G36*
X915406Y182734D02*
X913329D01*
Y177177D01*
X912490D01*
Y182734D01*
X910413D01*
Y183481D01*
X915406D01*
Y182734D01*
D02*
G37*
G36*
X948083Y181842D02*
X948156Y181832D01*
X948247Y181814D01*
X948347Y181796D01*
X948466Y181769D01*
X948575Y181741D01*
X948703Y181696D01*
X948821Y181650D01*
X948949Y181586D01*
X949076Y181514D01*
X949204Y181431D01*
X949322Y181331D01*
X949432Y181222D01*
X949441Y181213D01*
X949459Y181195D01*
X949486Y181158D01*
X949523Y181104D01*
X949568Y181040D01*
X949614Y180967D01*
X949668Y180876D01*
X949723Y180766D01*
X949778Y180648D01*
X949832Y180520D01*
X949878Y180375D01*
X949924Y180220D01*
X949960Y180047D01*
X949987Y179865D01*
X950006Y179673D01*
X950015Y179464D01*
Y179455D01*
Y179418D01*
Y179354D01*
X950006Y179263D01*
X946589D01*
Y179254D01*
Y179227D01*
X946598Y179191D01*
Y179136D01*
X946607Y179072D01*
X946626Y178999D01*
X946653Y178835D01*
X946708Y178653D01*
X946780Y178453D01*
X946881Y178270D01*
X947008Y178106D01*
X947017D01*
X947027Y178088D01*
X947081Y178043D01*
X947163Y177979D01*
X947272Y177915D01*
X947418Y177842D01*
X947582Y177778D01*
X947764Y177733D01*
X947865Y177724D01*
X947974Y177715D01*
X948047D01*
X948129Y177724D01*
X948229Y177742D01*
X948338Y177769D01*
X948466Y177806D01*
X948584Y177860D01*
X948703Y177933D01*
X948712Y177942D01*
X948757Y177979D01*
X948812Y178033D01*
X948876Y178106D01*
X948949Y178207D01*
X949031Y178334D01*
X949113Y178480D01*
X949185Y178653D01*
X949987Y178553D01*
Y178544D01*
X949978Y178525D01*
X949969Y178489D01*
X949951Y178434D01*
X949924Y178380D01*
X949896Y178307D01*
X949823Y178152D01*
X949732Y177979D01*
X949605Y177797D01*
X949459Y177623D01*
X949277Y177460D01*
X949267D01*
X949249Y177441D01*
X949222Y177423D01*
X949185Y177396D01*
X949131Y177368D01*
X949076Y177341D01*
X949003Y177305D01*
X948921Y177268D01*
X948830Y177232D01*
X948739Y177195D01*
X948511Y177141D01*
X948256Y177095D01*
X947974Y177077D01*
X947874D01*
X947810Y177086D01*
X947728Y177095D01*
X947628Y177113D01*
X947518Y177132D01*
X947400Y177150D01*
X947145Y177223D01*
X947008Y177277D01*
X946881Y177332D01*
X946744Y177405D01*
X946616Y177487D01*
X946498Y177578D01*
X946380Y177687D01*
X946371Y177696D01*
X946352Y177715D01*
X946325Y177751D01*
X946289Y177806D01*
X946243Y177869D01*
X946198Y177942D01*
X946143Y178033D01*
X946088Y178134D01*
X946033Y178252D01*
X945979Y178380D01*
X945933Y178525D01*
X945888Y178680D01*
X945851Y178844D01*
X945824Y179026D01*
X945806Y179218D01*
X945797Y179418D01*
Y179427D01*
Y179473D01*
Y179527D01*
X945806Y179610D01*
X945815Y179710D01*
X945824Y179819D01*
X945842Y179947D01*
X945870Y180074D01*
X945942Y180366D01*
X945988Y180511D01*
X946043Y180666D01*
X946115Y180812D01*
X946198Y180949D01*
X946289Y181085D01*
X946389Y181213D01*
X946398Y181222D01*
X946416Y181240D01*
X946453Y181267D01*
X946498Y181313D01*
X946553Y181359D01*
X946626Y181413D01*
X946708Y181477D01*
X946808Y181532D01*
X946908Y181596D01*
X947027Y181650D01*
X947154Y181705D01*
X947291Y181750D01*
X947436Y181796D01*
X947591Y181823D01*
X947755Y181842D01*
X947928Y181851D01*
X948020D01*
X948083Y181842D01*
D02*
G37*
G36*
X936304D02*
X936386Y181832D01*
X936477Y181814D01*
X936577Y181796D01*
X936696Y181778D01*
X936942Y181696D01*
X937069Y181650D01*
X937197Y181586D01*
X937324Y181523D01*
X937452Y181431D01*
X937570Y181340D01*
X937689Y181231D01*
X937698Y181222D01*
X937716Y181204D01*
X937743Y181167D01*
X937780Y181122D01*
X937825Y181058D01*
X937880Y180976D01*
X937935Y180885D01*
X937989Y180785D01*
X938044Y180675D01*
X938099Y180539D01*
X938153Y180402D01*
X938199Y180247D01*
X938235Y180083D01*
X938263Y179910D01*
X938281Y179728D01*
X938290Y179527D01*
Y179518D01*
Y179491D01*
Y179446D01*
Y179382D01*
X938281Y179309D01*
X938272Y179218D01*
Y179127D01*
X938253Y179026D01*
X938226Y178799D01*
X938172Y178571D01*
X938108Y178343D01*
X938017Y178134D01*
Y178125D01*
X938008Y178115D01*
X937989Y178088D01*
X937971Y178052D01*
X937907Y177961D01*
X937825Y177851D01*
X937716Y177724D01*
X937579Y177596D01*
X937424Y177469D01*
X937242Y177350D01*
X937233D01*
X937224Y177341D01*
X937197Y177323D01*
X937151Y177305D01*
X937106Y177287D01*
X937051Y177268D01*
X936914Y177214D01*
X936759Y177168D01*
X936568Y177122D01*
X936368Y177086D01*
X936149Y177077D01*
X936058D01*
X935985Y177086D01*
X935903Y177095D01*
X935812Y177113D01*
X935703Y177132D01*
X935593Y177150D01*
X935347Y177223D01*
X935211Y177277D01*
X935083Y177332D01*
X934956Y177405D01*
X934828Y177487D01*
X934710Y177578D01*
X934591Y177687D01*
X934582Y177696D01*
X934564Y177715D01*
X934537Y177751D01*
X934500Y177806D01*
X934455Y177869D01*
X934409Y177942D01*
X934354Y178033D01*
X934300Y178143D01*
X934245Y178261D01*
X934190Y178398D01*
X934145Y178544D01*
X934099Y178699D01*
X934063Y178872D01*
X934036Y179054D01*
X934017Y179254D01*
X934008Y179464D01*
Y179482D01*
Y179518D01*
X934017Y179582D01*
Y179673D01*
X934027Y179773D01*
X934045Y179901D01*
X934063Y180029D01*
X934099Y180174D01*
X934136Y180320D01*
X934181Y180475D01*
X934236Y180639D01*
X934309Y180794D01*
X934382Y180940D01*
X934482Y181085D01*
X934582Y181222D01*
X934710Y181340D01*
X934719Y181350D01*
X934737Y181359D01*
X934774Y181386D01*
X934819Y181422D01*
X934874Y181459D01*
X934947Y181504D01*
X935019Y181550D01*
X935111Y181596D01*
X935211Y181641D01*
X935320Y181687D01*
X935566Y181769D01*
X935849Y181832D01*
X935994Y181842D01*
X936149Y181851D01*
X936240D01*
X936304Y181842D01*
D02*
G37*
G36*
X918175D02*
X918257Y181832D01*
X918348Y181814D01*
X918448Y181796D01*
X918567Y181778D01*
X918813Y181696D01*
X918940Y181650D01*
X919068Y181586D01*
X919195Y181523D01*
X919323Y181431D01*
X919441Y181340D01*
X919560Y181231D01*
X919569Y181222D01*
X919587Y181204D01*
X919615Y181167D01*
X919651Y181122D01*
X919697Y181058D01*
X919751Y180976D01*
X919806Y180885D01*
X919860Y180785D01*
X919915Y180675D01*
X919970Y180539D01*
X920024Y180402D01*
X920070Y180247D01*
X920106Y180083D01*
X920134Y179910D01*
X920152Y179728D01*
X920161Y179527D01*
Y179518D01*
Y179491D01*
Y179446D01*
Y179382D01*
X920152Y179309D01*
X920143Y179218D01*
Y179127D01*
X920125Y179026D01*
X920097Y178799D01*
X920043Y178571D01*
X919979Y178343D01*
X919888Y178134D01*
Y178125D01*
X919879Y178115D01*
X919860Y178088D01*
X919842Y178052D01*
X919779Y177961D01*
X919697Y177851D01*
X919587Y177724D01*
X919450Y177596D01*
X919296Y177469D01*
X919113Y177350D01*
X919104D01*
X919095Y177341D01*
X919068Y177323D01*
X919022Y177305D01*
X918977Y177287D01*
X918922Y177268D01*
X918785Y177214D01*
X918631Y177168D01*
X918439Y177122D01*
X918239Y177086D01*
X918020Y177077D01*
X917929D01*
X917856Y177086D01*
X917774Y177095D01*
X917683Y177113D01*
X917574Y177132D01*
X917465Y177150D01*
X917219Y177223D01*
X917082Y177277D01*
X916954Y177332D01*
X916827Y177405D01*
X916699Y177487D01*
X916581Y177578D01*
X916462Y177687D01*
X916453Y177696D01*
X916435Y177715D01*
X916408Y177751D01*
X916371Y177806D01*
X916326Y177869D01*
X916280Y177942D01*
X916226Y178033D01*
X916171Y178143D01*
X916116Y178261D01*
X916062Y178398D01*
X916016Y178544D01*
X915971Y178699D01*
X915934Y178872D01*
X915907Y179054D01*
X915889Y179254D01*
X915879Y179464D01*
Y179482D01*
Y179518D01*
X915889Y179582D01*
Y179673D01*
X915898Y179773D01*
X915916Y179901D01*
X915934Y180029D01*
X915971Y180174D01*
X916007Y180320D01*
X916053Y180475D01*
X916107Y180639D01*
X916180Y180794D01*
X916253Y180940D01*
X916353Y181085D01*
X916453Y181222D01*
X916581Y181340D01*
X916590Y181350D01*
X916608Y181359D01*
X916645Y181386D01*
X916690Y181422D01*
X916745Y181459D01*
X916818Y181504D01*
X916891Y181550D01*
X916982Y181596D01*
X917082Y181641D01*
X917191Y181687D01*
X917437Y181769D01*
X917720Y181832D01*
X917865Y181842D01*
X918020Y181851D01*
X918111D01*
X918175Y181842D01*
D02*
G37*
%LPC*%
G36*
X942872Y181213D02*
X942827D01*
X942790Y181204D01*
X942690Y181195D01*
X942572Y181158D01*
X942435Y181113D01*
X942289Y181031D01*
X942144Y180930D01*
X942071Y180858D01*
X942007Y180785D01*
Y180776D01*
X941989Y180766D01*
X941980Y180739D01*
X941952Y180703D01*
X941925Y180657D01*
X941898Y180603D01*
X941870Y180539D01*
X941834Y180466D01*
X941797Y180375D01*
X941770Y180274D01*
X941743Y180165D01*
X941715Y180047D01*
X941697Y179919D01*
X941679Y179773D01*
X941661Y179619D01*
Y179455D01*
Y179446D01*
Y179418D01*
Y179373D01*
X941670Y179309D01*
Y179236D01*
X941679Y179154D01*
X941706Y178963D01*
X941752Y178753D01*
X941816Y178534D01*
X941907Y178325D01*
X941961Y178234D01*
X942025Y178143D01*
X942034D01*
X942043Y178125D01*
X942089Y178079D01*
X942171Y178006D01*
X942271Y177933D01*
X942399Y177851D01*
X942554Y177778D01*
X942717Y177733D01*
X942809Y177724D01*
X942900Y177715D01*
X942945D01*
X942982Y177724D01*
X943082Y177733D01*
X943200Y177769D01*
X943337Y177815D01*
X943483Y177888D01*
X943628Y177988D01*
X943701Y178052D01*
X943765Y178125D01*
Y178134D01*
X943783Y178143D01*
X943801Y178170D01*
X943820Y178207D01*
X943847Y178252D01*
X943884Y178298D01*
X943911Y178371D01*
X943947Y178443D01*
X943984Y178525D01*
X944011Y178616D01*
X944048Y178726D01*
X944075Y178835D01*
X944093Y178963D01*
X944111Y179090D01*
X944129Y179236D01*
Y179391D01*
Y179400D01*
Y179436D01*
Y179482D01*
X944120Y179546D01*
Y179619D01*
X944111Y179710D01*
X944102Y179810D01*
X944084Y179919D01*
X944038Y180138D01*
X943975Y180366D01*
X943884Y180584D01*
X943829Y180675D01*
X943765Y180766D01*
Y180776D01*
X943747Y180785D01*
X943701Y180839D01*
X943619Y180912D01*
X943519Y180994D01*
X943392Y181076D01*
X943237Y181140D01*
X943064Y181195D01*
X942972Y181204D01*
X942872Y181213D01*
D02*
G37*
G36*
X923022Y181240D02*
X922976D01*
X922940Y181231D01*
X922849Y181213D01*
X922730Y181185D01*
X922593Y181131D01*
X922448Y181049D01*
X922366Y180994D01*
X922293Y180930D01*
X922220Y180858D01*
X922147Y180776D01*
Y180766D01*
X922129Y180757D01*
X922111Y180730D01*
X922092Y180694D01*
X922065Y180639D01*
X922029Y180584D01*
X921992Y180511D01*
X921965Y180438D01*
X921928Y180347D01*
X921892Y180247D01*
X921865Y180138D01*
X921828Y180019D01*
X921810Y179883D01*
X921792Y179746D01*
X921774Y179600D01*
Y179436D01*
Y179427D01*
Y179400D01*
Y179354D01*
X921783Y179291D01*
Y179218D01*
X921792Y179136D01*
X921819Y178945D01*
X921865Y178726D01*
X921919Y178516D01*
X922010Y178307D01*
X922065Y178216D01*
X922129Y178134D01*
X922147Y178115D01*
X922193Y178070D01*
X922266Y177997D01*
X922366Y177924D01*
X922493Y177851D01*
X922639Y177778D01*
X922803Y177733D01*
X922894Y177724D01*
X922985Y177715D01*
X923040D01*
X923076Y177724D01*
X923167Y177742D01*
X923295Y177769D01*
X923432Y177824D01*
X923577Y177897D01*
X923723Y178006D01*
X923796Y178070D01*
X923869Y178143D01*
Y178152D01*
X923887Y178161D01*
X923905Y178188D01*
X923923Y178225D01*
X923960Y178270D01*
X923987Y178334D01*
X924024Y178398D01*
X924060Y178480D01*
X924088Y178562D01*
X924124Y178671D01*
X924160Y178780D01*
X924188Y178899D01*
X924206Y179036D01*
X924224Y179181D01*
X924242Y179336D01*
Y179500D01*
Y179509D01*
Y179537D01*
Y179582D01*
X924233Y179646D01*
Y179719D01*
X924224Y179801D01*
X924197Y179992D01*
X924151Y180202D01*
X924088Y180411D01*
X923996Y180621D01*
X923942Y180721D01*
X923878Y180803D01*
Y180812D01*
X923860Y180821D01*
X923814Y180876D01*
X923741Y180940D01*
X923641Y181022D01*
X923514Y181104D01*
X923368Y181176D01*
X923204Y181222D01*
X923113Y181231D01*
X923022Y181240D01*
D02*
G37*
G36*
X947937Y181213D02*
X947883D01*
X947846Y181204D01*
X947746Y181195D01*
X947628Y181167D01*
X947482Y181122D01*
X947327Y181058D01*
X947181Y180967D01*
X947036Y180849D01*
X947017Y180830D01*
X946981Y180785D01*
X946917Y180703D01*
X946853Y180593D01*
X946780Y180466D01*
X946717Y180302D01*
X946662Y180111D01*
X946635Y179901D01*
X949195D01*
Y179910D01*
Y179928D01*
X949185Y179956D01*
Y179992D01*
X949167Y180102D01*
X949140Y180220D01*
X949094Y180366D01*
X949049Y180502D01*
X948976Y180639D01*
X948894Y180757D01*
Y180766D01*
X948876Y180776D01*
X948830Y180830D01*
X948748Y180903D01*
X948639Y180985D01*
X948502Y181067D01*
X948338Y181140D01*
X948147Y181195D01*
X948047Y181204D01*
X947937Y181213D01*
D02*
G37*
G36*
X936149D02*
X936094D01*
X936049Y181204D01*
X935949Y181195D01*
X935812Y181158D01*
X935657Y181104D01*
X935493Y181031D01*
X935338Y180921D01*
X935256Y180849D01*
X935184Y180776D01*
Y180766D01*
X935165Y180757D01*
X935147Y180730D01*
X935120Y180694D01*
X935092Y180648D01*
X935065Y180593D01*
X935029Y180520D01*
X934992Y180448D01*
X934956Y180357D01*
X934919Y180265D01*
X934892Y180156D01*
X934865Y180038D01*
X934837Y179910D01*
X934819Y179773D01*
X934810Y179619D01*
X934801Y179464D01*
Y179455D01*
Y179427D01*
Y179382D01*
X934810Y179318D01*
Y179245D01*
X934819Y179163D01*
X934846Y178972D01*
X934892Y178753D01*
X934965Y178534D01*
X935056Y178325D01*
X935120Y178234D01*
X935184Y178143D01*
X935193D01*
X935202Y178125D01*
X935256Y178079D01*
X935338Y178006D01*
X935448Y177933D01*
X935584Y177851D01*
X935748Y177778D01*
X935940Y177733D01*
X936040Y177724D01*
X936149Y177715D01*
X936204D01*
X936249Y177724D01*
X936350Y177742D01*
X936486Y177769D01*
X936632Y177824D01*
X936796Y177897D01*
X936951Y178006D01*
X937033Y178079D01*
X937106Y178152D01*
X937115Y178161D01*
X937124Y178170D01*
X937142Y178198D01*
X937169Y178234D01*
X937197Y178279D01*
X937233Y178334D01*
X937270Y178407D01*
X937306Y178480D01*
X937342Y178571D01*
X937370Y178671D01*
X937406Y178780D01*
X937434Y178899D01*
X937461Y179036D01*
X937479Y179172D01*
X937497Y179327D01*
Y179491D01*
Y179500D01*
Y179527D01*
Y179573D01*
X937488Y179628D01*
Y179701D01*
X937479Y179783D01*
X937452Y179974D01*
X937406Y180174D01*
X937333Y180393D01*
X937233Y180593D01*
X937179Y180694D01*
X937106Y180776D01*
Y180785D01*
X937088Y180794D01*
X937033Y180849D01*
X936951Y180912D01*
X936841Y180994D01*
X936705Y181076D01*
X936541Y181149D01*
X936359Y181195D01*
X936259Y181204D01*
X936149Y181213D01*
D02*
G37*
G36*
X918020D02*
X917966D01*
X917920Y181204D01*
X917820Y181195D01*
X917683Y181158D01*
X917528Y181104D01*
X917364Y181031D01*
X917209Y180921D01*
X917128Y180849D01*
X917055Y180776D01*
Y180766D01*
X917036Y180757D01*
X917018Y180730D01*
X916991Y180694D01*
X916963Y180648D01*
X916936Y180593D01*
X916900Y180520D01*
X916863Y180448D01*
X916827Y180357D01*
X916790Y180265D01*
X916763Y180156D01*
X916736Y180038D01*
X916708Y179910D01*
X916690Y179773D01*
X916681Y179619D01*
X916672Y179464D01*
Y179455D01*
Y179427D01*
Y179382D01*
X916681Y179318D01*
Y179245D01*
X916690Y179163D01*
X916718Y178972D01*
X916763Y178753D01*
X916836Y178534D01*
X916927Y178325D01*
X916991Y178234D01*
X917055Y178143D01*
X917064D01*
X917073Y178125D01*
X917128Y178079D01*
X917209Y178006D01*
X917319Y177933D01*
X917455Y177851D01*
X917619Y177778D01*
X917811Y177733D01*
X917911Y177724D01*
X918020Y177715D01*
X918075D01*
X918120Y177724D01*
X918221Y177742D01*
X918357Y177769D01*
X918503Y177824D01*
X918667Y177897D01*
X918822Y178006D01*
X918904Y178079D01*
X918977Y178152D01*
X918986Y178161D01*
X918995Y178170D01*
X919013Y178198D01*
X919041Y178234D01*
X919068Y178279D01*
X919104Y178334D01*
X919141Y178407D01*
X919177Y178480D01*
X919214Y178571D01*
X919241Y178671D01*
X919277Y178780D01*
X919305Y178899D01*
X919332Y179036D01*
X919350Y179172D01*
X919368Y179327D01*
Y179491D01*
Y179500D01*
Y179527D01*
Y179573D01*
X919359Y179628D01*
Y179701D01*
X919350Y179783D01*
X919323Y179974D01*
X919277Y180174D01*
X919205Y180393D01*
X919104Y180593D01*
X919050Y180694D01*
X918977Y180776D01*
Y180785D01*
X918959Y180794D01*
X918904Y180849D01*
X918822Y180912D01*
X918713Y180994D01*
X918576Y181076D01*
X918412Y181149D01*
X918230Y181195D01*
X918130Y181204D01*
X918020Y181213D01*
D02*
G37*
%LPD*%
D10*
X276626Y672654D02*
G03*
X261531Y656264I435J-15546D01*
G01*
X561803Y665073D02*
G03*
X550626Y672654I-11018J-4215D01*
G01*
X563022Y661886D02*
G03*
X573076Y654642I10532J4019D01*
G01*
X623365Y641708D02*
G03*
X610925Y654642I-12687J247D01*
G01*
X609075Y337545D02*
G03*
X623365Y351914I30J14260D01*
G01*
X577417Y337545D02*
G03*
X565059Y330674I31J-14604D01*
G01*
X550000Y322736D02*
G03*
X565059Y330674I661J17000D01*
G01*
X290174Y325762D02*
G03*
X296457Y322736I6097J4625D01*
G01*
X290271Y325688D02*
G03*
X281693Y329653I-8805J-7785D01*
G01*
X261532Y341993D02*
G03*
X274182Y329653I12282J-63D01*
G01*
X561803Y665073D02*
X563022Y661886D01*
X276626Y672654D02*
X550785D01*
X573076Y654642D02*
X577020D01*
X610925D01*
X623365Y351914D02*
Y641708D01*
X577417Y337545D02*
X609105D01*
X296457Y322736D02*
X550000D01*
X274182Y329653D02*
X281693D01*
X261531Y656264D02*
X261532Y341993D01*
D16*
X300689Y670327D02*
G03*
X299902Y669539I-0J-787D01*
G01*
X314469D02*
G03*
X313681Y670327I-787J-0D01*
G01*
Y662453D02*
G03*
X314469Y663240I0J787D01*
G01*
X299902D02*
G03*
X300689Y662453I787J0D01*
G01*
X314469Y663240D02*
Y669539D01*
X300689Y670327D02*
X313681D01*
X300689Y662453D02*
X313681D01*
X299902Y663240D02*
Y669539D01*
D48*
X307185Y666390D02*
D03*
D49*
X365178Y410620D02*
D03*
X360178D02*
D03*
X355178D02*
D03*
X350178D02*
D03*
X365178Y386191D02*
D03*
X360178D02*
D03*
X355178D02*
D03*
X350178D02*
D03*
X334947Y462815D02*
D03*
X339947D02*
D03*
X344947D02*
D03*
X349947D02*
D03*
X334947Y487244D02*
D03*
X339947D02*
D03*
X344947D02*
D03*
X349947D02*
D03*
X429082Y487146D02*
D03*
X424082D02*
D03*
X419082D02*
D03*
X414082D02*
D03*
X429082Y462716D02*
D03*
X424082D02*
D03*
X419082D02*
D03*
X414082D02*
D03*
X388649Y487264D02*
D03*
X383649D02*
D03*
X378649D02*
D03*
X373649D02*
D03*
X388649Y462835D02*
D03*
X383649D02*
D03*
X378649D02*
D03*
X373649D02*
D03*
D50*
X343012Y402168D02*
D03*
Y394884D02*
D03*
X384842Y388386D02*
D03*
Y381102D02*
D03*
X491437Y353445D02*
D03*
Y360728D02*
D03*
X553248Y358343D02*
D03*
Y351059D02*
D03*
X479528Y410260D02*
D03*
Y417543D02*
D03*
X289370Y364764D02*
D03*
Y372047D02*
D03*
X285039Y413866D02*
D03*
Y406582D02*
D03*
X277425Y413866D02*
D03*
Y406582D02*
D03*
X501968Y490059D02*
D03*
Y497342D02*
D03*
D51*
X286481Y455020D02*
D03*
Y474705D02*
D03*
Y469783D02*
D03*
Y464862D02*
D03*
Y459941D02*
D03*
Y450098D02*
D03*
D52*
X275064Y484744D02*
D03*
Y440059D02*
D03*
D53*
X356496Y346949D02*
D03*
X336811D02*
D03*
X341732D02*
D03*
X346654D02*
D03*
X351575D02*
D03*
X361417D02*
D03*
D54*
X326772Y335531D02*
D03*
X371457D02*
D03*
D55*
X392520Y380610D02*
D03*
X399213Y388484D02*
D03*
X392323Y388484D02*
D03*
X399213Y380610D02*
D03*
D56*
X448562Y362815D02*
D03*
Y355335D02*
D03*
X459585Y359075D02*
D03*
Y355335D02*
D03*
Y362815D02*
D03*
X448562Y359075D02*
D03*
D57*
X535433Y344075D02*
D03*
Y349075D02*
D03*
Y354075D02*
D03*
Y359075D02*
D03*
X516535Y344075D02*
D03*
Y349075D02*
D03*
Y354075D02*
D03*
Y359075D02*
D03*
D58*
X294146Y418280D02*
D03*
Y413280D02*
D03*
Y408280D02*
D03*
Y403280D02*
D03*
Y398280D02*
D03*
Y393280D02*
D03*
Y388280D02*
D03*
Y383280D02*
D03*
X331248D02*
D03*
Y388280D02*
D03*
Y393280D02*
D03*
Y398280D02*
D03*
Y403280D02*
D03*
Y408280D02*
D03*
Y413280D02*
D03*
Y418280D02*
D03*
D59*
X430387Y376443D02*
D03*
X428995Y377835D02*
D03*
X427603Y379226D02*
D03*
X426211Y380618D02*
D03*
X424819Y382010D02*
D03*
X423427Y383402D02*
D03*
X422035Y384794D02*
D03*
X420643Y386186D02*
D03*
X419251Y387578D02*
D03*
X417859Y388970D02*
D03*
X416467Y390362D02*
D03*
X415075Y391754D02*
D03*
X413683Y393146D02*
D03*
X412291Y394538D02*
D03*
X410899Y395930D02*
D03*
X406724Y400106D02*
D03*
X405332Y401498D02*
D03*
X403940Y402889D02*
D03*
X402548Y404282D02*
D03*
X401156Y405673D02*
D03*
X399764Y407065D02*
D03*
X398372Y408457D02*
D03*
X396980Y409849D02*
D03*
X439156Y452025D02*
D03*
X440548Y450633D02*
D03*
X441940Y449241D02*
D03*
X443332Y447849D02*
D03*
X444724Y446457D02*
D03*
X446116Y445065D02*
D03*
X447508Y443673D02*
D03*
X448900Y442281D02*
D03*
X450291Y440890D02*
D03*
X451683Y439498D02*
D03*
X453075Y438106D02*
D03*
X454467Y436714D02*
D03*
X455859Y435322D02*
D03*
X457251Y433930D02*
D03*
X458643Y432538D02*
D03*
X460035Y431146D02*
D03*
X461427Y429754D02*
D03*
X462819Y428362D02*
D03*
X464211Y426970D02*
D03*
X465603Y425578D02*
D03*
X466995Y424186D02*
D03*
X468387Y422794D02*
D03*
X469779Y421402D02*
D03*
X471171Y420010D02*
D03*
X472563Y418618D02*
D03*
X409508Y397322D02*
D03*
X408116Y398714D02*
D03*
D60*
X396980Y418618D02*
D03*
X398372Y420010D02*
D03*
X399764Y421402D02*
D03*
X401156Y422794D02*
D03*
X402548Y424186D02*
D03*
X403940Y425578D02*
D03*
X405332Y426970D02*
D03*
X406724Y428362D02*
D03*
X408116Y429754D02*
D03*
X409508Y431146D02*
D03*
X410899Y432538D02*
D03*
X412291Y433930D02*
D03*
X413683Y435322D02*
D03*
X415075Y436714D02*
D03*
X416467Y438106D02*
D03*
X417859Y439498D02*
D03*
X419251Y440890D02*
D03*
X420643Y442281D02*
D03*
X422035Y443673D02*
D03*
X423427Y445065D02*
D03*
X424819Y446457D02*
D03*
X426211Y447849D02*
D03*
X427603Y449241D02*
D03*
X428995Y450633D02*
D03*
X430387Y452025D02*
D03*
X472563Y409849D02*
D03*
X471171Y408457D02*
D03*
X469779Y407065D02*
D03*
X468387Y405673D02*
D03*
X466995Y404282D02*
D03*
X465603Y402889D02*
D03*
X464211Y401498D02*
D03*
X462819Y400106D02*
D03*
X461427Y398714D02*
D03*
X460035Y397322D02*
D03*
X458643Y395930D02*
D03*
X457251Y394538D02*
D03*
X455859Y393146D02*
D03*
X454467Y391754D02*
D03*
X453075Y390362D02*
D03*
X451683Y388970D02*
D03*
X450291Y387578D02*
D03*
X448900Y386186D02*
D03*
X447508Y384794D02*
D03*
X446116Y383402D02*
D03*
X444724Y382010D02*
D03*
X443332Y380618D02*
D03*
X441940Y379226D02*
D03*
X440548Y377835D02*
D03*
X439156Y376443D02*
D03*
D61*
X491043Y375689D02*
D03*
Y368406D02*
D03*
X515748Y389828D02*
D03*
Y382544D02*
D03*
D62*
X328386Y557087D02*
D03*
X364528D02*
D03*
X328386Y561024D02*
D03*
X364528D02*
D03*
X328386Y564961D02*
D03*
X364528D02*
D03*
X328386Y568898D02*
D03*
X364528D02*
D03*
X328386Y572835D02*
D03*
X364528D02*
D03*
X328386Y576772D02*
D03*
X364528D02*
D03*
X328386Y580709D02*
D03*
X364528D02*
D03*
X328386Y584646D02*
D03*
X364528D02*
D03*
X328386Y588583D02*
D03*
X364528D02*
D03*
X328386Y592520D02*
D03*
X364528D02*
D03*
D63*
X297047Y352756D02*
D03*
X300787D02*
D03*
X304528D02*
D03*
Y363583D02*
D03*
D64*
X297047D02*
D03*
D65*
X515748Y372047D02*
D03*
X503150D02*
D03*
X515748Y400787D02*
D03*
X503150D02*
D03*
D66*
X281102Y371772D02*
D03*
Y364449D02*
D03*
X503150Y360748D02*
D03*
Y353425D02*
D03*
X487008Y417598D02*
D03*
Y410276D02*
D03*
D67*
X462723Y383118D02*
D03*
X468291Y388686D02*
D03*
D68*
X433858Y652876D02*
D03*
Y660876D02*
D03*
X496063Y652854D02*
D03*
Y660854D02*
D03*
X485714Y652854D02*
D03*
Y660854D02*
D03*
X465017Y652854D02*
D03*
Y660854D02*
D03*
X475365Y652854D02*
D03*
Y660854D02*
D03*
X444319Y652854D02*
D03*
Y660854D02*
D03*
X454668Y652854D02*
D03*
Y660854D02*
D03*
X423465Y652953D02*
D03*
Y660953D02*
D03*
D69*
X354035Y363189D02*
D03*
X361319D02*
D03*
X486713Y426772D02*
D03*
X479429D02*
D03*
X399202Y373467D02*
D03*
X391918D02*
D03*
X545965Y344094D02*
D03*
X553248D02*
D03*
X450295Y373228D02*
D03*
X457579D02*
D03*
X328445Y487146D02*
D03*
X321161D02*
D03*
X367606Y487323D02*
D03*
X360322D02*
D03*
X407582D02*
D03*
X400298D02*
D03*
D70*
X473867Y372772D02*
D03*
X468717Y377922D02*
D03*
X479318Y378232D02*
D03*
X474168Y383382D02*
D03*
D71*
X553874Y525118D02*
D03*
X561874D02*
D03*
X553972Y515748D02*
D03*
X561973D02*
D03*
X553972Y553543D02*
D03*
X561973D02*
D03*
X553972Y544488D02*
D03*
X561973D02*
D03*
X553972Y534646D02*
D03*
X561973D02*
D03*
X329591Y369685D02*
D03*
X321590D02*
D03*
X526709Y371260D02*
D03*
X534709D02*
D03*
X525651Y445177D02*
D03*
X517651D02*
D03*
X339602Y363779D02*
D03*
X347602D02*
D03*
X304787Y333465D02*
D03*
X296787D02*
D03*
X470409Y357106D02*
D03*
X478409D02*
D03*
X449356Y473988D02*
D03*
X441356D02*
D03*
X449529Y483240D02*
D03*
X441529D02*
D03*
X582909Y641339D02*
D03*
X590909D02*
D03*
D72*
X570079Y349150D02*
D03*
Y357150D02*
D03*
X496063Y635868D02*
D03*
Y643868D02*
D03*
X485714Y635868D02*
D03*
Y643868D02*
D03*
X465017Y635951D02*
D03*
Y643951D02*
D03*
X475365Y635951D02*
D03*
Y643951D02*
D03*
X444319Y635951D02*
D03*
Y643951D02*
D03*
X454668Y635951D02*
D03*
Y643951D02*
D03*
X434154Y363449D02*
D03*
Y355449D02*
D03*
X423465Y635459D02*
D03*
Y643459D02*
D03*
X433858Y635786D02*
D03*
Y643786D02*
D03*
X553740Y479724D02*
D03*
Y471724D02*
D03*
Y488715D02*
D03*
Y496715D02*
D03*
X428019Y510004D02*
D03*
Y502004D02*
D03*
X385262Y510024D02*
D03*
Y502024D02*
D03*
X384350Y440390D02*
D03*
Y448390D02*
D03*
X347504Y509669D02*
D03*
Y501669D02*
D03*
Y440640D02*
D03*
Y448640D02*
D03*
X419082Y510004D02*
D03*
Y502004D02*
D03*
X375775Y510024D02*
D03*
Y502024D02*
D03*
X375775Y440784D02*
D03*
Y448783D02*
D03*
X337504Y509905D02*
D03*
Y501905D02*
D03*
Y440640D02*
D03*
Y448640D02*
D03*
X489479Y481658D02*
D03*
Y473658D02*
D03*
X479736Y481658D02*
D03*
Y473658D02*
D03*
X469992Y481658D02*
D03*
Y473658D02*
D03*
X498834Y481658D02*
D03*
Y473658D02*
D03*
D73*
X534090Y466673D02*
D03*
Y471673D02*
D03*
Y476673D02*
D03*
Y481673D02*
D03*
X509661Y466673D02*
D03*
Y471673D02*
D03*
Y476673D02*
D03*
Y481673D02*
D03*
D74*
X586516Y345937D02*
D03*
X515453Y631452D02*
D03*
X271427Y634744D02*
D03*
D75*
X475394Y332513D02*
D03*
X271778Y528622D02*
D03*
X581181Y621575D02*
D03*
X601161D02*
D03*
X271654Y600216D02*
D03*
X563976Y501575D02*
D03*
D76*
X475394Y342513D02*
D03*
X271778Y518622D02*
D03*
X393425Y342480D02*
D03*
X403425D02*
D03*
X413425D02*
D03*
X423425D02*
D03*
X433425D02*
D03*
X443425D02*
D03*
X453425D02*
D03*
Y332480D02*
D03*
X443425D02*
D03*
X433425D02*
D03*
X423425D02*
D03*
X413425D02*
D03*
X403425D02*
D03*
X591181Y381575D02*
D03*
X581181D02*
D03*
X591181Y391575D02*
D03*
X581181D02*
D03*
X591181Y401575D02*
D03*
X581181D02*
D03*
X591181Y411575D02*
D03*
X581181D02*
D03*
X591181Y421575D02*
D03*
X581181D02*
D03*
X591181Y431575D02*
D03*
X581181D02*
D03*
X591181Y441575D02*
D03*
X581181D02*
D03*
X591181Y451575D02*
D03*
X581181D02*
D03*
X591181Y461575D02*
D03*
X581181D02*
D03*
X591181Y471575D02*
D03*
X581181D02*
D03*
X591181Y481575D02*
D03*
X581181D02*
D03*
X591181Y501575D02*
D03*
X581181D02*
D03*
X591181Y511575D02*
D03*
X581181D02*
D03*
X591181Y521575D02*
D03*
X581181D02*
D03*
X591181Y531575D02*
D03*
X581181D02*
D03*
X591181Y541575D02*
D03*
X581181Y541476D02*
D03*
X591181Y551575D02*
D03*
X581181D02*
D03*
X591181Y561575D02*
D03*
X581181D02*
D03*
X591181Y571575D02*
D03*
X581181D02*
D03*
X591181Y581575D02*
D03*
X581181D02*
D03*
X591181Y591575D02*
D03*
X581181D02*
D03*
X591181Y601575D02*
D03*
X581181D02*
D03*
X591181Y611575D02*
D03*
X581181D02*
D03*
X591181Y621575D02*
D03*
X581181Y371575D02*
D03*
X591181D02*
D03*
X611181D02*
D03*
X601181D02*
D03*
X611181Y621575D02*
D03*
X601181Y611575D02*
D03*
X611181D02*
D03*
X601181Y601575D02*
D03*
X611181D02*
D03*
X601181Y591575D02*
D03*
X611181D02*
D03*
X601161Y581575D02*
D03*
X611181D02*
D03*
X601161Y571575D02*
D03*
X611181D02*
D03*
X601181Y561575D02*
D03*
X611181D02*
D03*
X601181Y551575D02*
D03*
X611181D02*
D03*
X601181Y541476D02*
D03*
X611181Y541575D02*
D03*
X601181Y531575D02*
D03*
X611181D02*
D03*
X601181Y521575D02*
D03*
X611181D02*
D03*
X601181Y511575D02*
D03*
X611181D02*
D03*
X601181Y501575D02*
D03*
X611181D02*
D03*
X601181Y491575D02*
D03*
X611181D02*
D03*
X601181Y481575D02*
D03*
X611181D02*
D03*
X601181Y471575D02*
D03*
X611181D02*
D03*
X601181Y461575D02*
D03*
X611181D02*
D03*
X601181Y451575D02*
D03*
X611181D02*
D03*
X601181Y441575D02*
D03*
X611181D02*
D03*
X601181Y431575D02*
D03*
X611181D02*
D03*
X601181Y421575D02*
D03*
X611181D02*
D03*
X601181Y411575D02*
D03*
X611181D02*
D03*
X601181Y401575D02*
D03*
X611181D02*
D03*
X601181Y391575D02*
D03*
X611181D02*
D03*
X601181Y381575D02*
D03*
X611181D02*
D03*
X591181Y491575D02*
D03*
X581181D02*
D03*
X271654Y550216D02*
D03*
Y560217D02*
D03*
Y570217D02*
D03*
Y580217D02*
D03*
Y590216D02*
D03*
X563976Y491575D02*
D03*
Y481575D02*
D03*
Y471575D02*
D03*
D77*
X393425Y332480D02*
D03*
D78*
X541732Y333013D02*
D03*
X318307Y334547D02*
D03*
X311713Y334646D02*
D03*
X546457Y433268D02*
D03*
X546426Y440390D02*
D03*
Y447047D02*
D03*
X529921Y414173D02*
D03*
X464468Y368307D02*
D03*
X491240Y544488D02*
D03*
X479035Y547835D02*
D03*
X479134Y541142D02*
D03*
Y534449D02*
D03*
X491339Y530512D02*
D03*
X311122Y354921D02*
D03*
X311024Y361614D02*
D03*
X418799Y357579D02*
D03*
X425492Y356496D02*
D03*
X564886Y461997D02*
D03*
X479035Y527559D02*
D03*
X320276Y572835D02*
D03*
X383366D02*
D03*
X376870Y580020D02*
D03*
X313681Y590216D02*
D03*
Y596654D02*
D03*
X493110Y511221D02*
D03*
X499606Y508268D02*
D03*
X517913Y412992D02*
D03*
X497539Y344193D02*
D03*
X306791Y563189D02*
D03*
X552075Y365323D02*
D03*
X285925Y400689D02*
D03*
X334055Y424606D02*
D03*
X306004D02*
D03*
X322047D02*
D03*
X436067Y464983D02*
D03*
X393996Y504724D02*
D03*
X384055Y454429D02*
D03*
X395669Y494557D02*
D03*
X368012Y432185D02*
D03*
X361417Y431979D02*
D03*
X354429Y495768D02*
D03*
X434842Y547441D02*
D03*
X434941Y554214D02*
D03*
X434784Y540689D02*
D03*
X434842Y534252D02*
D03*
X349705Y605020D02*
D03*
X357874Y604823D02*
D03*
X426476Y496457D02*
D03*
X436067Y471654D02*
D03*
X420866Y364173D02*
D03*
X413413Y377165D02*
D03*
D79*
X307087Y503937D02*
D03*
X611200Y641700D02*
D03*
X535433Y645669D02*
D03*
X307087D02*
D03*
X273933Y656843D02*
D03*
Y341783D02*
D03*
X611236Y351626D02*
D03*
X535433Y503937D02*
D03*
D80*
X346457Y557087D02*
D03*
Y592520D02*
D03*
D81*
X279070Y400689D02*
D03*
X556595Y601181D02*
D03*
X409961Y478642D02*
D03*
X374024Y375689D02*
D03*
X402658Y415354D02*
D03*
X295669Y535236D02*
D03*
X356980Y548042D02*
D03*
X309744Y484744D02*
D03*
X411319Y661221D02*
D03*
X449114Y523032D02*
D03*
M02*
