M48
;Layer_Color=9474304
;FILE_FORMAT=2:5
INCH,LZ
;TYPE=PLATED
T1F00S00C0.01181
T2F00S00C0.01575
T3F00S00C0.01968
T4F00S00C0.03543
T5F00S00C0.03937
T6F00S00C0.12598
;TYPE=NON_PLATED
T7F00S00C0.04685
%
T01
X0291339Y0335925
X0292323Y0353839
X0288533Y0356644
X029941Y0369587
X0301291Y038328
X0302264Y0409154
X0302461Y041828
X0285739Y041939
X0282022
X0278304
X0279921Y0454626
Y0459547
X030748Y0457087
X0310236Y0453937
X0312204Y0450393
X0271358Y0368744
X0323819Y0358661
X0327559
X0322539Y0348721
X0318969Y0344783
X0334941Y0330487
X0346457Y0338779
X0351378
X0356299
X0342224Y037079
X0339862Y0368602
X0330807Y0379626
X0317648Y0391339
X0357028Y0394425
X0360531Y0403937
Y0419579
X0343627Y0419587
X033809Y04165
X0345965Y0412205
Y0408563
X0371161Y0408957
X0375Y0410138
X0381594Y0418996
X0379232Y0424079
X0380118Y0428543
X0383071Y0432298
X0388386Y0432185
X0390059Y0428445
Y0444333
X0399838Y0444247
X0401927Y044659
X0404016Y0448933
X0398206Y0449921
X0400295Y0452264
X0396555Y045544
X0397362Y0438091
X0400492Y0438135
X0405315
X0409414Y0418341
X0411817Y0420298
X0417773Y0415992
X041751Y0412253
X0420965Y0411221
X0430777Y0414665
X042874Y0418012
Y0425394
X0433858Y0425197
X0436614Y0422047
X0442126Y0422117
X0439559Y0418012
X0445276
X0448825
X0446457Y0429581
X0442536
X0433071Y0438615
X0437992Y0443673
X0435039Y044685
X0426497Y045642
X0424824Y0422047
X0417618Y0400295
X0434252Y0399902
X0448622Y0404232
X0453087Y040187
X0464468Y0413287
X0466799Y041565
X0467826Y0463992
X0462598Y0461811
Y0466831
X036811Y0465354
X0367717Y0457874
X0364961Y0460236
X0356299Y045544
X0358661Y0452914
X0360827Y0450492
X0356693Y0468504
X0329528Y0458661
X0323622Y0458268
X0325689Y0462008
X0388977Y0408302
X0388995Y0404941
X0389075Y0398241
X0384449Y0398044
X0409779Y0386458
X0414665Y0371161
X0414468Y0366043
X0424016Y0373404
X0429331Y0370105
X0442122Y0368683
X044498Y0371333
X0450787Y0367606
X0439764Y0354134
X0465059Y0355217
X0364178Y0379331
X0486024Y0367224
X0483661Y0364681
X049311Y0394674
Y0398192
Y040171
X05Y0416831
X0502559Y0421063
X0505512Y0418209
X0513583Y0414665
X051624Y0416831
X0505905Y044124
X0506496Y0447047
X0502165Y0444587
X0500492Y0460236
X0499213Y0465748
X0490846
X0485827
X048211Y0463015
X0477559Y0460236
X0473327Y0466732
X0470669Y0456102
X0488202
X0490256Y0460236
X0474712Y0431575
X0472441Y0428248
X0532087Y0436417
X0545079Y0463091
X0548819Y0463386
X0552881Y0466263
X0557239Y0466142
X0558661Y0462617
X0556299Y0409055
X0565846Y0409154
X0570472Y041811
X0541276Y0399213
X0535936Y0384394
X0551575Y0386221
X0555512Y0378781
X0557972Y0375722
X0543803Y0370457
X0532087Y036437
X0559154Y0345374
X0557239Y0343209
X061752Y0436319
X0568898Y0507972
X0571457Y0516732
X0521949Y0519179
X0519805Y051612
X0517414Y0513583
X051752Y0525984
X0521949Y0526062
X0524832Y0523002
X0512894Y0525984
X051998Y0543996
X0523774
X0535236Y0544291
X0542028Y0541306
X0545204Y0544219
X0538071Y0557362
X0538583Y0561319
X0536417Y0583366
X0571457Y056875
X0615551Y0556299
X053435Y0486753
X0517323Y0474803
X0517224Y0470374
X0478937Y0513123
X0470866Y0536614
Y0541437
X0466634
X0461024Y0521161
X0431846Y0520755
X0434784Y0517526
X0437722Y0514297
X0425537Y0521161
X0421797
X0405426Y0530118
X0408284Y053376
X0405236Y0544416
X0402362Y0548228
X0388512Y0538991
X038683Y053605
X0371323Y0544095
X0367878
X0371949Y0527264
X0369748Y0524883
X0375295Y0517697
X0376101Y0514297
X0377873Y0519514
X0372244Y0495571
X0354232Y0502264
X0353856Y0526378
X0350394Y0529134
X0347117Y0532087
X0332807Y053756
X0329591Y0534877
X0320374Y0567028
X0315862Y0579414
X0335039Y0588189
X0340158Y0587795
X0351575Y0588189
Y0585827
X0348819Y0573622
Y056811
Y0562992
X038189Y0562821
X0454808Y0562125
X0454857Y0565551
X0456912Y0559771
X045502Y0621161
X0443898Y0621949
X0433932Y0495472
X0419082Y0496063
X0424082Y0479232
X0433563Y0479134
X0420374Y0470276
X0415075Y0470374
X0410039Y0473975
X0377766Y0471457
X0362402Y0474252
X0462598Y0474826
Y0478346
Y0471232
X029626Y0469587
X0286024Y0490846
X0279935Y0494315
X0283563Y0498425
X0292323Y0579414
X029603
X0299738
X0303445
X0307185Y0576772
X0311221Y0579414
X0303445Y0589665
X0300998Y059282
X0298552Y0595974
X0296105Y0599128
X044685Y0625
X045502
T02
X0287106Y033376
X0300787Y0347835
X0276969Y0384744
X027907Y0400689
X0289764Y044311
X0301772Y0463878
X0313583Y0397342
X0337992Y0390354
X0349606Y03973
X037211Y0419095
X0367717Y0444587
X0402658Y0415354
X0420571Y0397146
X0408563Y0349508
X0374291Y035315
X0374024Y0375689
X0361221Y0332513
X0337008Y0353839
X0494291Y0388825
X0493701Y0418575
X0523524Y0424394
X0509661Y0461221
X0595472Y0356988
X0509233Y0496654
X0504134Y053238
X0535925Y0532382
X0556595Y0563674
Y0582283
Y0601181
X0517224Y0582579
X0497146Y0613813
X0466634Y0613878
X0421752Y0614272
X0393898Y0572933
X035698Y0548042
X0322539Y0545447
X0332677Y0605315
X0341339Y0474606
X0352165
X0409961Y0478642
X0449114Y0523032
X0295669Y0535236
X0309744Y0484744
X0269783Y0614173
X029394Y0663733
X0411319Y0661221
T03
X0311713Y0334646
X0311122Y0354921
X0311024Y0361614
X0285925Y0400689
X0306004Y0424606
X0322047
X0334055
X0361417Y0431979
X0368012Y0432185
X0384055Y0454429
X0436067Y0464983
X0413413Y0377165
X0420866Y0364173
X0418799Y0357579
X0425492Y0356496
X0464468Y0368307
X0318307Y0334547
X0497539Y0344193
X0541732Y0333013
X0552075Y0365323
X0529921Y0414173
X0517913Y0412992
X0546457Y0433268
X0546426Y044039
Y0447047
X0564886Y0461997
X0499606Y0508268
X049311Y0511221
X0491339Y0530512
X049124Y0544488
X0479134Y0541142
Y0534449
X0479035Y0527559
Y0547835
X0434842Y0547441
X0434784Y0540689
X0434842Y0534252
X0434941Y0554214
X0426476Y0496457
X0395669Y0494557
X0393996Y0504724
X0354429Y0495768
X0436067Y0471654
X0383366Y0572835
X037687Y058002
X0357874Y0604823
X0349705Y060502
X0313681Y0596654
Y0590216
X0320276Y0572835
X0306791Y0563189
T04
X0581181Y0371575
Y0381575
X0591181
Y0391575
X0581181
Y0401575
X0591181
Y0411575
X0581181
Y0421575
X0591181
Y0431575
X0581181
Y0441575
X0591181
Y0451575
X0581181
Y0461575
X0591181
X0601181
X0611181
Y0451575
X0601181
Y0441575
X0611181
Y0431575
X0601181
Y0421575
X0611181
Y0411575
X0601181
Y0401575
X0611181
Y0391575
X0601181
Y0381575
Y0371575
X0591181
X0611181
Y0381575
Y0471575
Y0481575
Y0491575
Y0501575
Y0511575
Y0521575
Y0531575
Y0541575
Y0551575
Y0561575
Y0571575
Y0581575
Y0591575
Y0601575
Y0611575
Y0621575
X0601161
X0591181
Y0611575
Y0601575
Y0591575
Y0581575
X0601161
Y0571575
X0591181
Y0561575
Y0551575
Y0541575
Y0531575
Y0521575
Y0511575
Y0501575
X0581181
Y0511575
Y0521575
Y0531575
Y0541476
Y0551575
Y0561575
Y0571575
Y0581575
Y0591575
Y0601575
Y0611575
Y0621575
X0601181Y0611575
Y0601575
Y0591575
Y0561575
Y0551575
Y0541476
Y0531575
Y0521575
Y0511575
Y0501575
Y0491575
Y0481575
X0591181
Y0471575
X0581181
Y0481575
Y0491575
X0591181
X0563976
Y0501575
Y0481575
Y0471575
X0601181
X0271654Y0550216
Y0560217
Y0570217
Y0580217
Y0590216
Y0600216
T05
X0393425Y033248
Y034248
X0403425
X0413425
X0423425
X0433425
X0443425
X0453425
Y033248
X0443425
X0433425
X0423425
X0413425
X0403425
X0475394Y0332513
Y0342513
X0271778Y0518622
Y0528622
T06
X0273933Y0341783
X0611236Y0351626
X0535433Y0503937
X0307087
Y0645669
X0273933Y0656843
X0535433Y0645669
X06112Y06417
T07
X0346457Y0557087
Y059252
M30
