G04*
G04 #@! TF.GenerationSoftware,Altium Limited,Altium Designer,18.1.7 (191)*
G04*
G04 Layer_Color=32896*
%FSLAX44Y44*%
%MOMM*%
G71*
G01*
G75*
%ADD10C,0.2540*%
%ADD12C,0.2500*%
%ADD15C,0.2000*%
%ADD17C,0.0119*%
%ADD18C,0.1000*%
%ADD19C,0.0254*%
%ADD20C,0.1778*%
%ADD22R,0.5080X1.5240*%
%ADD23R,1.5240X0.5080*%
G04:AMPARAMS|DCode=109|XSize=0.508mm|YSize=1.524mm|CornerRadius=0mm|HoleSize=0mm|Usage=FLASHONLY|Rotation=225.000|XOffset=0mm|YOffset=0mm|HoleType=Round|Shape=Rectangle|*
%AMROTATEDRECTD109*
4,1,4,-0.3592,0.7184,0.7184,-0.3592,0.3592,-0.7184,-0.7184,0.3592,-0.3592,0.7184,0.0*
%
%ADD109ROTATEDRECTD109*%

%ADD110R,0.6350X1.5240*%
G36*
X869827Y1632923D02*
X874827Y1627923D01*
X869827Y1622923D01*
Y1632923D01*
D02*
G37*
G36*
X844577Y1648173D02*
X849577Y1653173D01*
X854577Y1648173D01*
X844577D01*
D02*
G37*
D10*
X849931Y1627923D02*
G03*
X849931Y1627923I-354J0D01*
G01*
X857427D02*
G03*
X857427Y1627923I-7850J0D01*
G01*
X1389000Y1286500D02*
X1445200D01*
Y1185250D02*
Y1286500D01*
X1389000Y1185250D02*
X1445200D01*
X1389000D02*
Y1286500D01*
X1465750Y1238000D02*
Y1284750D01*
X921750Y1525750D02*
Y1595250D01*
X912750Y1604250D02*
X921750Y1595250D01*
X874750Y1604250D02*
X912750D01*
X857427Y1627923D02*
X876077D01*
X871077Y1632923D02*
X876077Y1627923D01*
X871077Y1622923D02*
X876077Y1627923D01*
X849577Y1635773D02*
Y1654423D01*
X844577Y1649423D02*
X849577Y1654423D01*
X854577Y1649423D01*
X1336250Y1547500D02*
Y1593750D01*
Y1547500D02*
X1343750Y1540000D01*
X1442250D01*
X1349000Y1615500D02*
X1359500D01*
X1349500Y1664000D02*
X1360000D01*
X1335500Y1629000D02*
Y1640000D01*
Y1650000D01*
X1359500Y1615500D02*
X1370250D01*
X1360000Y1664000D02*
X1369750D01*
X1335500Y1629000D02*
X1349000Y1615500D01*
X1335500Y1650000D02*
X1349500Y1664000D01*
X1370250Y1615500D02*
X1384000Y1629250D01*
Y1639500D01*
X1369750Y1664000D02*
X1384000Y1649750D01*
Y1639500D02*
Y1649750D01*
X1541448Y1605418D02*
X1551948D01*
X1541948Y1653918D02*
X1552448D01*
X1527948Y1618918D02*
Y1629918D01*
Y1639918D01*
X1551948Y1605418D02*
X1562698D01*
X1552448Y1653918D02*
X1562198D01*
X1527948Y1618918D02*
X1541448Y1605418D01*
X1527948Y1639918D02*
X1541948Y1653918D01*
X1562698Y1605418D02*
X1576448Y1619168D01*
Y1629418D01*
X1562198Y1653918D02*
X1576448Y1639668D01*
Y1629418D02*
Y1639668D01*
X685250Y844000D02*
X695750D01*
X685750Y892500D02*
X696250D01*
X671750Y857500D02*
Y868500D01*
Y878500D01*
X695750Y844000D02*
X706500D01*
X696250Y892500D02*
X706000D01*
X671750Y857500D02*
X685250Y844000D01*
X671750Y878500D02*
X685750Y892500D01*
X706500Y844000D02*
X720250Y857750D01*
Y868000D01*
X706000Y892500D02*
X720250Y878250D01*
Y868000D02*
Y878250D01*
X1542500Y869000D02*
X1553000D01*
X1543000Y917500D02*
X1553500D01*
X1529000Y882500D02*
Y893500D01*
Y903500D01*
X1553000Y869000D02*
X1563750D01*
X1553500Y917500D02*
X1563250D01*
X1529000Y882500D02*
X1542500Y869000D01*
X1529000Y903500D02*
X1543000Y917500D01*
X1563750Y869000D02*
X1577500Y882750D01*
Y893000D01*
X1563250Y917500D02*
X1577500Y903250D01*
Y893000D02*
Y903250D01*
X1349250Y1255500D02*
X1359750D01*
X1349750Y1304000D02*
X1360250D01*
X1335750Y1269000D02*
Y1280000D01*
Y1290000D01*
X1359750Y1255500D02*
X1370500D01*
X1360250Y1304000D02*
X1370000D01*
X1335750Y1269000D02*
X1349250Y1255500D01*
X1335750Y1290000D02*
X1349750Y1304000D01*
X1370500Y1255500D02*
X1384250Y1269250D01*
Y1279500D01*
X1370000Y1304000D02*
X1384250Y1289750D01*
Y1279500D02*
Y1289750D01*
X769250Y1255500D02*
X779750D01*
X769750Y1304000D02*
X780250D01*
X755750Y1269000D02*
Y1280000D01*
Y1290000D01*
X779750Y1255500D02*
X790500D01*
X780250Y1304000D02*
X790000D01*
X755750Y1269000D02*
X769250Y1255500D01*
X755750Y1290000D02*
X769750Y1304000D01*
X790500Y1255500D02*
X804250Y1269250D01*
Y1279500D01*
X790000Y1304000D02*
X804250Y1289750D01*
Y1279500D02*
Y1289750D01*
X685000Y1643750D02*
X695500D01*
X685500Y1692250D02*
X696000D01*
X671500Y1657250D02*
Y1668250D01*
Y1678250D01*
X695500Y1643750D02*
X706250D01*
X696000Y1692250D02*
X705750D01*
X671500Y1657250D02*
X685000Y1643750D01*
X671500Y1678250D02*
X685500Y1692250D01*
X706250Y1643750D02*
X720000Y1657500D01*
Y1667750D01*
X705750Y1692250D02*
X720000Y1678000D01*
Y1667750D02*
Y1678000D01*
X769500Y1615750D02*
X780000D01*
X770000Y1664250D02*
X780500D01*
X756000Y1629250D02*
Y1640250D01*
Y1650250D01*
X780000Y1615750D02*
X790750D01*
X780500Y1664250D02*
X790250D01*
X756000Y1629250D02*
X769500Y1615750D01*
X756000Y1650250D02*
X770000Y1664250D01*
X790750Y1615750D02*
X804500Y1629500D01*
Y1639750D01*
X790250Y1664250D02*
X804500Y1650000D01*
Y1639750D02*
Y1650000D01*
X1360750Y1336000D02*
X1490750D01*
X1491250D02*
Y1386500D01*
X1486750Y1339750D02*
Y1386750D01*
X1465000D02*
X1486750D01*
X1465000Y1339750D02*
Y1386750D01*
Y1339750D02*
X1486750D01*
X1336250Y1593750D02*
X1442250D01*
X1465250Y1542500D02*
X1487000D01*
X1465250D02*
Y1591140D01*
X1487000D01*
Y1542500D02*
Y1591140D01*
X1397500Y1312500D02*
X1516250D01*
X1538000D01*
Y1361000D01*
X1563500Y1312500D02*
Y1386500D01*
X1541750D02*
X1563500D01*
X1541750Y1312500D02*
Y1386500D01*
Y1312500D02*
X1563500D01*
X1516250Y1361000D02*
X1538000D01*
X1516250Y1312500D02*
Y1361000D01*
X1516750Y1060000D02*
X1562750D01*
Y1106750D01*
X1516750D02*
X1562750D01*
X1516750Y1060000D02*
Y1106750D01*
X1396000Y1084750D02*
Y1142250D01*
X1390000Y1148250D02*
X1396000Y1142250D01*
X1341500Y1148250D02*
X1390000D01*
X1466000Y1034750D02*
Y1039500D01*
X1341500Y1084750D02*
X1396000D01*
X1491000Y1034750D02*
Y1080750D01*
X1466000D02*
X1491000D01*
X1466000Y1039500D02*
Y1080750D01*
Y1034750D02*
X1491000D01*
X1537750Y933250D02*
Y979750D01*
X1516000D02*
X1537750D01*
X1516000Y933250D02*
Y979750D01*
Y933250D02*
X1537750D01*
X1465750Y1238000D02*
X1486750D01*
Y1284750D01*
X1465750D02*
X1486750D01*
X1465250Y1441250D02*
X1511250D01*
Y1513500D01*
X1465250D02*
X1511250D01*
X1465250Y1441250D02*
Y1513500D01*
X1516500Y1415750D02*
Y1462500D01*
X1562500D01*
Y1415750D02*
Y1462500D01*
X1516500Y1415750D02*
X1562500D01*
X1491250Y1336000D02*
X1512500D01*
X1491250Y1386500D02*
X1512500D01*
Y1336000D02*
Y1386500D01*
X1516500Y1135500D02*
Y1160000D01*
X1562500D01*
Y1135500D02*
Y1160000D01*
X1516500Y1135500D02*
X1562500D01*
Y1184250D02*
Y1233750D01*
X1466000Y1184250D02*
X1562500D01*
X1466000D02*
Y1233750D01*
X1562500D01*
X1516500Y1009250D02*
X1562500D01*
Y1030750D01*
X1516500D02*
X1562500D01*
X1516500Y1009250D02*
Y1030750D01*
X1466000Y1009250D02*
Y1030750D01*
X1511750D01*
Y1009250D02*
Y1030750D01*
X1466000Y1009250D02*
X1511750D01*
X1196500Y918000D02*
X1253500D01*
X1188000Y909500D02*
X1196500Y918000D01*
X1188000Y822250D02*
Y909500D01*
Y822250D02*
X1253500D01*
Y918000D01*
X1408250Y1161750D02*
X1491250D01*
X1400000Y1153500D02*
X1408250Y1161750D01*
X1400000Y1084750D02*
Y1153500D01*
Y1084750D02*
X1491250D01*
Y1161750D01*
X1440750Y1367396D02*
Y1414544D01*
X1431750Y1423544D02*
X1440750Y1414544D01*
X1331750Y1423544D02*
X1431750D01*
X1331750Y1367396D02*
Y1423544D01*
Y1367396D02*
X1440750D01*
X1442250Y1540000D02*
Y1593750D01*
X1341500Y1084750D02*
Y1148250D01*
X823250Y846750D02*
Y889250D01*
X815500Y839000D02*
X823250Y846750D01*
X779000Y839000D02*
X815500D01*
X873750Y994750D02*
Y1085500D01*
X866750Y987750D02*
X873750Y994750D01*
X732000Y987750D02*
X866750D01*
X984000Y1441750D02*
Y1490500D01*
X975197Y1432947D02*
X984000Y1441750D01*
X821803Y1432947D02*
X975197D01*
X757500Y1497250D02*
X821803Y1432947D01*
X757500Y1497250D02*
X802125Y1541875D01*
X853500Y1490500D01*
X984000D01*
X1039250Y970750D02*
X1129750D01*
X1136750Y963750D01*
Y885000D02*
Y963750D01*
X1039250Y885000D02*
X1136750D01*
X1039250D02*
Y970750D01*
X744250Y934750D02*
X792500D01*
X800500Y926750D01*
Y893000D02*
Y926750D01*
X744250Y893000D02*
X800500D01*
X744250D02*
Y934750D01*
X779000Y839000D02*
Y889250D01*
X823250D01*
X732000Y1085500D02*
X873750D01*
X732000Y987750D02*
Y1085500D01*
X874750Y1525750D02*
Y1604250D01*
Y1525750D02*
X921750D01*
X1117230Y1339750D02*
Y1410020D01*
X1109750Y1417500D02*
X1117230Y1410020D01*
X1045500Y1417500D02*
X1109750D01*
X1307500Y1323500D02*
Y1398250D01*
X1301250Y1404500D02*
X1307500Y1398250D01*
X1157000Y1404500D02*
X1301250D01*
X1045500Y1339750D02*
Y1417500D01*
Y1339750D02*
X1117230D01*
X1157000Y1323500D02*
Y1404500D01*
Y1323500D02*
X1307500D01*
D12*
X1361750Y967250D02*
G03*
X1361750Y967250I-1250J0D01*
G01*
D15*
X1394000Y938250D02*
Y955750D01*
X1362000Y938250D02*
Y955750D01*
Y938250D02*
X1394000D01*
X1362000Y955750D02*
X1394000D01*
X1161895Y1588584D02*
X1163709Y1587980D01*
X1164919Y1586770D01*
X1165523Y1585561D01*
X1166128Y1583143D01*
Y1581329D01*
X1165523Y1578910D01*
X1164919Y1577701D01*
X1163709Y1576492D01*
X1161895Y1575887D01*
X1160686D01*
X1158872Y1576492D01*
X1157663Y1577701D01*
X1157058Y1578910D01*
X1156454Y1581329D01*
Y1583143D01*
X1157058Y1585561D01*
X1157663Y1586770D01*
X1158872Y1587980D01*
X1160686Y1588584D01*
X1161895D01*
X1163105Y1587980D01*
X1164314Y1586770D01*
X1164919Y1585561D01*
X1165523Y1583143D01*
Y1581329D01*
X1164919Y1578910D01*
X1164314Y1577701D01*
X1163105Y1576492D01*
X1161895Y1575887D01*
X1160686D02*
X1159477Y1576492D01*
X1158268Y1577701D01*
X1157663Y1578910D01*
X1157058Y1581329D01*
Y1583143D01*
X1157663Y1585561D01*
X1158268Y1586770D01*
X1159477Y1587980D01*
X1160686Y1588584D01*
X1152886D02*
Y1575887D01*
X1152282Y1588584D02*
Y1575887D01*
X1154700Y1588584D02*
X1147445D01*
X1145631Y1587980D01*
X1145026Y1587375D01*
X1144421Y1586166D01*
Y1584956D01*
X1145026Y1583747D01*
X1145631Y1583143D01*
X1147445Y1582538D01*
Y1588584D02*
X1146235Y1587980D01*
X1145631Y1587375D01*
X1145026Y1586166D01*
Y1584956D01*
X1145631Y1583747D01*
X1146235Y1583143D01*
X1147445Y1582538D01*
X1152282D02*
X1147445D01*
X1145631Y1581933D01*
X1145026Y1581329D01*
X1144421Y1580119D01*
Y1578306D01*
X1145026Y1577096D01*
X1145631Y1576492D01*
X1147445Y1575887D01*
X1154700D01*
X1147445Y1582538D02*
X1146235Y1581933D01*
X1145631Y1581329D01*
X1145026Y1580119D01*
Y1578306D01*
X1145631Y1577096D01*
X1146235Y1576492D01*
X1147445Y1575887D01*
X1140915Y1588584D02*
Y1575887D01*
X1140310Y1588584D02*
Y1575887D01*
X1142729Y1588584D02*
X1136682D01*
X1134868Y1587980D01*
X1133659Y1586770D01*
X1133054Y1585561D01*
X1132450Y1583747D01*
Y1580724D01*
X1133054Y1578910D01*
X1133659Y1577701D01*
X1134868Y1576492D01*
X1136682Y1575887D01*
X1142729D01*
X1136682Y1588584D02*
X1135473Y1587980D01*
X1134264Y1586770D01*
X1133659Y1585561D01*
X1133054Y1583747D01*
Y1580724D01*
X1133659Y1578910D01*
X1134264Y1577701D01*
X1135473Y1576492D01*
X1136682Y1575887D01*
X1128943Y1588584D02*
Y1575887D01*
X1128338Y1588584D02*
Y1575887D01*
X1121083Y1588584D02*
Y1575887D01*
X1120478Y1588584D02*
Y1575887D01*
X1130757Y1588584D02*
X1126524D01*
X1122897D02*
X1118664D01*
X1128338Y1582538D02*
X1121083D01*
X1130757Y1575887D02*
X1126524D01*
X1122897D02*
X1118664D01*
X1105120Y1586166D02*
X1104516Y1585561D01*
X1105120Y1584956D01*
X1105725Y1585561D01*
Y1586166D01*
X1105120Y1587375D01*
X1104516Y1587980D01*
X1102702Y1588584D01*
X1100283D01*
X1098469Y1587980D01*
X1097865Y1587375D01*
X1097260Y1586166D01*
Y1584956D01*
X1097865Y1583747D01*
X1099679Y1582538D01*
X1102702Y1581329D01*
X1103911Y1580724D01*
X1105120Y1579515D01*
X1105725Y1577701D01*
Y1575887D01*
X1100283Y1588584D02*
X1099074Y1587980D01*
X1098469Y1587375D01*
X1097865Y1586166D01*
Y1584956D01*
X1098469Y1583747D01*
X1100283Y1582538D01*
X1102702Y1581329D01*
X1105725Y1577096D02*
X1105120Y1577701D01*
X1103911D01*
X1100888Y1576492D01*
X1099074D01*
X1097865Y1577096D01*
X1097260Y1577701D01*
Y1578910D01*
X1103911Y1577701D02*
X1100888Y1575887D01*
X1098469D01*
X1097865Y1576492D01*
X1097260Y1577701D01*
X1165674Y1566734D02*
X1165070Y1568548D01*
Y1564920D01*
X1165674Y1566734D01*
X1166884Y1567943D01*
X1168698Y1568548D01*
X1170511D01*
X1172325Y1567943D01*
X1173535Y1566734D01*
Y1565524D01*
X1172930Y1564315D01*
X1172325Y1563710D01*
X1171116Y1563106D01*
X1167488Y1561897D01*
X1166279Y1561292D01*
X1165070Y1560083D01*
X1173535Y1565524D02*
X1172325Y1564315D01*
X1171116Y1563710D01*
X1167488Y1562501D01*
X1166279Y1561897D01*
X1165674Y1561292D01*
X1165070Y1560083D01*
Y1557664D01*
X1166279Y1556455D01*
X1168093Y1555850D01*
X1169907D01*
X1171721Y1556455D01*
X1172930Y1557664D01*
X1173535Y1559478D01*
Y1555850D01*
X1172930Y1557664D01*
X1161381Y1564315D02*
Y1551618D01*
X1160777Y1564315D02*
Y1551618D01*
Y1562501D02*
X1159567Y1563710D01*
X1158358Y1564315D01*
X1157149D01*
X1155335Y1563710D01*
X1154126Y1562501D01*
X1153521Y1560687D01*
Y1559478D01*
X1154126Y1557664D01*
X1155335Y1556455D01*
X1157149Y1555850D01*
X1158358D01*
X1159567Y1556455D01*
X1160777Y1557664D01*
X1157149Y1564315D02*
X1155940Y1563710D01*
X1154731Y1562501D01*
X1154126Y1560687D01*
Y1559478D01*
X1154731Y1557664D01*
X1155940Y1556455D01*
X1157149Y1555850D01*
X1163195Y1564315D02*
X1160777D01*
X1163195Y1551618D02*
X1158963D01*
X1150558Y1563106D02*
Y1562501D01*
X1151163D01*
Y1563106D01*
X1150558Y1563710D01*
X1149349Y1564315D01*
X1146931D01*
X1145722Y1563710D01*
X1145117Y1563106D01*
X1144512Y1561897D01*
Y1557664D01*
X1143907Y1556455D01*
X1143303Y1555850D01*
X1145117Y1563106D02*
Y1557664D01*
X1144512Y1556455D01*
X1143303Y1555850D01*
X1142698D01*
X1145117Y1561897D02*
X1145722Y1561292D01*
X1149349Y1560687D01*
X1151163Y1560083D01*
X1151768Y1558873D01*
Y1557664D01*
X1151163Y1556455D01*
X1149349Y1555850D01*
X1147535D01*
X1146326Y1556455D01*
X1145117Y1557664D01*
X1149349Y1560687D02*
X1150558Y1560083D01*
X1151163Y1558873D01*
Y1557664D01*
X1150558Y1556455D01*
X1149349Y1555850D01*
X1133629Y1562501D02*
X1134233Y1561897D01*
X1133629Y1561292D01*
X1133024Y1561897D01*
Y1562501D01*
X1134233Y1563710D01*
X1135443Y1564315D01*
X1137257D01*
X1139071Y1563710D01*
X1140280Y1562501D01*
X1140884Y1560687D01*
Y1559478D01*
X1140280Y1557664D01*
X1139071Y1556455D01*
X1137257Y1555850D01*
X1136047D01*
X1134233Y1556455D01*
X1133024Y1557664D01*
X1137257Y1564315D02*
X1138466Y1563710D01*
X1139675Y1562501D01*
X1140280Y1560687D01*
Y1559478D01*
X1139675Y1557664D01*
X1138466Y1556455D01*
X1137257Y1555850D01*
X1130485Y1560687D02*
X1123229D01*
Y1561897D01*
X1123834Y1563106D01*
X1124438Y1563710D01*
X1125648Y1564315D01*
X1127461D01*
X1129275Y1563710D01*
X1130485Y1562501D01*
X1131089Y1560687D01*
Y1559478D01*
X1130485Y1557664D01*
X1129275Y1556455D01*
X1127461Y1555850D01*
X1126252D01*
X1124438Y1556455D01*
X1123229Y1557664D01*
X1123834Y1560687D02*
Y1562501D01*
X1124438Y1563710D01*
X1127461Y1564315D02*
X1128671Y1563710D01*
X1129880Y1562501D01*
X1130485Y1560687D01*
Y1559478D01*
X1129880Y1557664D01*
X1128671Y1556455D01*
X1127461Y1555850D01*
X1119480Y1568548D02*
Y1555850D01*
X1118876Y1568548D02*
Y1555850D01*
X1121294Y1568548D02*
X1117062D01*
X1121294Y1555850D02*
X1112225D01*
Y1559478D01*
X1112829Y1555850D01*
X1109202Y1563106D02*
Y1562501D01*
X1109806D01*
Y1563106D01*
X1109202Y1563710D01*
X1107992Y1564315D01*
X1105574D01*
X1104365Y1563710D01*
X1103760Y1563106D01*
X1103155Y1561897D01*
Y1557664D01*
X1102551Y1556455D01*
X1101946Y1555850D01*
X1103760Y1563106D02*
Y1557664D01*
X1103155Y1556455D01*
X1101946Y1555850D01*
X1101341D01*
X1103760Y1561897D02*
X1104365Y1561292D01*
X1107992Y1560687D01*
X1109806Y1560083D01*
X1110411Y1558873D01*
Y1557664D01*
X1109806Y1556455D01*
X1107992Y1555850D01*
X1106179D01*
X1104969Y1556455D01*
X1103760Y1557664D01*
X1107992Y1560687D02*
X1109202Y1560083D01*
X1109806Y1558873D01*
Y1557664D01*
X1109202Y1556455D01*
X1107992Y1555850D01*
X1097714Y1568548D02*
Y1555850D01*
X1097109Y1568548D02*
Y1555850D01*
Y1562501D02*
X1095900Y1563710D01*
X1094690Y1564315D01*
X1093481D01*
X1091667Y1563710D01*
X1090458Y1562501D01*
X1089853Y1560687D01*
Y1559478D01*
X1090458Y1557664D01*
X1091667Y1556455D01*
X1093481Y1555850D01*
X1094690D01*
X1095900Y1556455D01*
X1097109Y1557664D01*
X1093481Y1564315D02*
X1092272Y1563710D01*
X1091063Y1562501D01*
X1090458Y1560687D01*
Y1559478D01*
X1091063Y1557664D01*
X1092272Y1556455D01*
X1093481Y1555850D01*
X1099528Y1568548D02*
X1097109D01*
X1152100Y1544278D02*
Y1535209D01*
X1151496Y1533395D01*
X1150286Y1532186D01*
X1148473Y1531581D01*
X1147263D01*
X1145449Y1532186D01*
X1144240Y1533395D01*
X1143635Y1535209D01*
Y1544278D01*
X1151496D02*
Y1535209D01*
X1150891Y1533395D01*
X1149682Y1532186D01*
X1148473Y1531581D01*
X1153914Y1544278D02*
X1149682D01*
X1145449D02*
X1141822D01*
X1138496D02*
Y1531581D01*
X1137891Y1544278D02*
Y1531581D01*
X1134264Y1540650D02*
Y1535813D01*
X1140310Y1544278D02*
X1130636D01*
Y1540650D01*
X1131240Y1544278D01*
X1137891Y1538232D02*
X1134264D01*
X1140310Y1531581D02*
X1136078D01*
X1121022Y1542464D02*
X1120418Y1544278D01*
Y1540650D01*
X1121022Y1542464D01*
X1122232Y1543674D01*
X1124045Y1544278D01*
X1125859D01*
X1127673Y1543674D01*
X1128882Y1542464D01*
Y1541255D01*
X1128278Y1540046D01*
X1127673Y1539441D01*
X1126464Y1538837D01*
X1122836Y1537627D01*
X1121627Y1537023D01*
X1120418Y1535813D01*
X1128882Y1541255D02*
X1127673Y1540046D01*
X1126464Y1539441D01*
X1122836Y1538232D01*
X1121627Y1537627D01*
X1121022Y1537023D01*
X1120418Y1535813D01*
Y1533395D01*
X1121627Y1532186D01*
X1123441Y1531581D01*
X1125255D01*
X1127068Y1532186D01*
X1128278Y1533395D01*
X1128882Y1535209D01*
Y1531581D01*
X1128278Y1533395D01*
X1110078Y1542464D02*
X1109474Y1540650D01*
Y1544278D01*
X1110078Y1542464D01*
X1111288Y1543674D01*
X1113102Y1544278D01*
X1114311D01*
X1116125Y1543674D01*
X1117334Y1542464D01*
X1117939Y1541255D01*
X1118543Y1539441D01*
Y1536418D01*
X1117939Y1534604D01*
X1117334Y1533395D01*
X1116125Y1532186D01*
X1114311Y1531581D01*
X1113102D01*
X1111288Y1532186D01*
X1110078Y1533395D01*
X1109474Y1534604D01*
X1114311Y1544278D02*
X1115520Y1543674D01*
X1116729Y1542464D01*
X1117334Y1541255D01*
X1117939Y1539441D01*
Y1536418D01*
X1117334Y1534604D01*
X1116729Y1533395D01*
X1115520Y1532186D01*
X1114311Y1531581D01*
D17*
X1012810Y1566475D02*
X1031752D01*
X1015311Y1546222D02*
X1033420D01*
X1030799Y1584822D02*
X1046643D01*
X1030560Y1584702D02*
X1047001D01*
X1030203Y1584583D02*
X1047239D01*
X1029965Y1584464D02*
X1047477D01*
X1029607Y1584345D02*
X1047835D01*
X1029369Y1584226D02*
X1048073D01*
X1029012Y1584107D02*
X1048430D01*
X1028773Y1583988D02*
X1048669D01*
X1028535Y1583869D02*
X1049026D01*
X1028178Y1583749D02*
X1049264D01*
X1027939Y1583630D02*
X1049622D01*
X1027582Y1583511D02*
X1049860D01*
X1027344Y1583392D02*
X1050098D01*
X1026986Y1583273D02*
X1050456D01*
X1026748Y1583154D02*
X1050694D01*
X1026391Y1583035D02*
X1051051D01*
X1026152Y1582915D02*
X1051290D01*
X1025914Y1582796D02*
X1051647D01*
X1025557Y1582677D02*
X1051885D01*
X1011618Y1582558D02*
X1065824D01*
X1011499Y1582439D02*
X1065943D01*
X1011380Y1582320D02*
X1066062D01*
X1011261Y1582201D02*
X1066181D01*
X1011142Y1582081D02*
X1066301D01*
X1011022Y1581962D02*
X1066420D01*
X1010903Y1581843D02*
X1066539D01*
X1010784Y1581724D02*
X1066658D01*
X1010665Y1581605D02*
X1066777D01*
X1010546Y1581486D02*
X1066896D01*
X1010546Y1581367D02*
X1067015D01*
X1010427Y1581248D02*
X1067015D01*
X1010427Y1581129D02*
X1067015D01*
X1010427Y1581009D02*
X1067015D01*
X1010546Y1580890D02*
X1067015D01*
X1010546Y1580771D02*
X1066896D01*
X1010665Y1580652D02*
X1066777D01*
X1010784Y1580533D02*
X1066777D01*
X1010784Y1580414D02*
X1066658D01*
X1010903Y1580294D02*
X1066539D01*
X1011022Y1580175D02*
X1066539D01*
X1011022Y1580056D02*
X1066420D01*
X1011142Y1579937D02*
X1066301D01*
X1011261Y1579818D02*
X1066301D01*
X1011261Y1579699D02*
X1066181D01*
X1011380Y1579580D02*
X1066062D01*
X1011499Y1579461D02*
X1065943D01*
X1011499Y1579341D02*
X1065943D01*
X1011618Y1579222D02*
X1065824D01*
X1011737Y1579103D02*
X1065705D01*
X1011856Y1578984D02*
X1065705D01*
X1011856Y1578865D02*
X1065586D01*
X1011975Y1578746D02*
X1065467D01*
X1012095Y1578627D02*
X1065467D01*
X1012095Y1578508D02*
X1065348D01*
X1012214Y1578388D02*
X1065228D01*
X1012333Y1578269D02*
X1065228D01*
X1012333Y1578150D02*
X1065109D01*
X1012452Y1578031D02*
X1064990D01*
X1012571Y1577912D02*
X1064990D01*
X1012571Y1577793D02*
X1064871D01*
X1012690Y1577674D02*
X1064752D01*
X1012810Y1577554D02*
X1064633D01*
X1012810Y1577435D02*
X1064633D01*
X1012929Y1577316D02*
X1064513D01*
X1013048Y1577197D02*
X1064394D01*
X1013167Y1577078D02*
X1064394D01*
X1013167Y1576959D02*
X1064275D01*
X1013286Y1576840D02*
X1064156D01*
X1013405Y1576720D02*
X1064156D01*
X1013405Y1576601D02*
X1064037D01*
X1013524Y1576482D02*
X1063918D01*
X1013643Y1576363D02*
X1063918D01*
X1013643Y1576244D02*
X1063799D01*
X1013763Y1576125D02*
X1063680D01*
X1013882Y1576006D02*
X1063680D01*
X1013882Y1575887D02*
X1063560D01*
X1014001Y1575767D02*
X1063441D01*
X1014120Y1575648D02*
X1063322D01*
X1014120Y1575529D02*
X1063322D01*
X1014239Y1575410D02*
X1063203D01*
X1014358Y1575291D02*
X1063084D01*
X1014477Y1575172D02*
X1063084D01*
X1014477Y1575053D02*
X1062965D01*
X1014596Y1574933D02*
X1062846D01*
X1014716Y1574814D02*
X1062846D01*
X1014716Y1574695D02*
X1062727D01*
X1014835Y1574576D02*
X1062607D01*
X1014954Y1574457D02*
X1062607D01*
X1014954Y1574338D02*
X1062488D01*
X1015073Y1574219D02*
X1062369D01*
X1015192Y1574100D02*
X1062369D01*
X1015192Y1573980D02*
X1062250D01*
X1015311Y1573861D02*
X1062131D01*
X1015430Y1573742D02*
X1062131D01*
X1015430Y1573623D02*
X1062012D01*
X1015550Y1573504D02*
X1061893D01*
X1015669Y1573385D02*
X1061893D01*
X1015669Y1573266D02*
X1061774D01*
X1015669Y1573147D02*
X1061774D01*
X1015669Y1573027D02*
X1061774D01*
X1015669Y1572908D02*
X1061893D01*
X1015550Y1572789D02*
X1061893D01*
X1015550Y1572670D02*
X1061893D01*
X1015430Y1572551D02*
X1062012D01*
X1015430Y1572432D02*
X1062012D01*
X1015430Y1572313D02*
X1062131D01*
X1015311Y1572193D02*
X1062131D01*
X1015311Y1572074D02*
X1062250D01*
X1015192Y1571955D02*
X1062250D01*
X1015192Y1571836D02*
X1062250D01*
X1015073Y1571717D02*
X1062369D01*
X1015073Y1571598D02*
X1062369D01*
X1015073Y1571479D02*
X1062488D01*
X1014954Y1571360D02*
X1062488D01*
X1014954Y1571240D02*
X1062607D01*
X1014835Y1571121D02*
X1062607D01*
X1014835Y1571002D02*
X1062607D01*
X1014716Y1570883D02*
X1062727D01*
X1014716Y1570764D02*
X1062727D01*
X1014716Y1570645D02*
X1062846D01*
X1014596Y1570526D02*
X1062846D01*
X1014596Y1570406D02*
X1062965D01*
X1014477Y1570287D02*
X1062965D01*
X1014477Y1570168D02*
X1062965D01*
X1014358Y1570049D02*
X1063084D01*
X1014358Y1569930D02*
X1063084D01*
X1014358Y1569811D02*
X1063203D01*
X1014239Y1569692D02*
X1063203D01*
X1014239Y1569572D02*
X1063322D01*
X1014120Y1569453D02*
X1063322D01*
X1014120Y1569334D02*
X1037351D01*
X1014001Y1569215D02*
X1036636D01*
X1014001Y1569096D02*
X1036160D01*
X1014001Y1568977D02*
X1035802D01*
X1013882Y1568858D02*
X1035445D01*
X1013882Y1568739D02*
X1035088D01*
X1013763Y1568619D02*
X1034849D01*
X1013763Y1568500D02*
X1034611D01*
X1013643Y1568381D02*
X1034373D01*
X1013643Y1568262D02*
X1034134D01*
X1013643Y1568143D02*
X1033896D01*
X1013524Y1568024D02*
X1033658D01*
X1013524Y1567905D02*
X1033539D01*
X1013405Y1567785D02*
X1033300D01*
X1013405Y1567666D02*
X1033181D01*
X1013286Y1567547D02*
X1032943D01*
X1013286Y1567428D02*
X1032824D01*
X1013286Y1567309D02*
X1032705D01*
X1013167Y1567190D02*
X1032586D01*
X1013167Y1567071D02*
X1032347D01*
X1013048Y1566951D02*
X1032228D01*
X1013048Y1566832D02*
X1032109D01*
X1012929Y1566713D02*
X1031990D01*
X1012929Y1566594D02*
X1031871D01*
X1012690Y1566356D02*
X1031633D01*
X1012214Y1566237D02*
X1031514D01*
X1011618Y1566118D02*
X1031394D01*
X1010903Y1565998D02*
X1031275D01*
X1010308Y1565879D02*
X1031156D01*
X1009593Y1565760D02*
X1031156D01*
X1008997Y1565641D02*
X1031037D01*
X1009831Y1553609D02*
X1031037D01*
X1010427Y1553489D02*
X1031156D01*
X1011022Y1553370D02*
X1031275D01*
X1011737Y1553251D02*
X1031394D01*
X1012333Y1553132D02*
X1031514D01*
X1012571Y1553013D02*
X1031514D01*
X1012690Y1552894D02*
X1031633D01*
X1012690Y1552775D02*
X1031752D01*
X1012810Y1552655D02*
X1031871D01*
X1012810Y1552536D02*
X1031990D01*
X1012929Y1552417D02*
X1032228D01*
X1012929Y1552298D02*
X1032347D01*
X1012929Y1552179D02*
X1032467D01*
X1013048Y1552060D02*
X1032586D01*
X1013048Y1551941D02*
X1032705D01*
X1013167Y1551821D02*
X1032943D01*
X1013167Y1551702D02*
X1033062D01*
X1013167Y1551583D02*
X1033181D01*
X1013286Y1551464D02*
X1033420D01*
X1013286Y1551345D02*
X1033539D01*
X1013405Y1551226D02*
X1033658D01*
X1013405Y1551107D02*
X1033896D01*
X1013405Y1550988D02*
X1034015D01*
X1013524Y1550869D02*
X1034253D01*
X1013524Y1550749D02*
X1034492D01*
X1013643Y1550630D02*
X1034611D01*
X1013643Y1550511D02*
X1034849D01*
X1013643Y1550392D02*
X1034849D01*
X1013763Y1550273D02*
X1034968D01*
X1013763Y1550154D02*
X1034968D01*
X1013882Y1550034D02*
X1034968D01*
X1013882Y1549915D02*
X1034968D01*
X1013882Y1549796D02*
X1034849D01*
X1014001Y1549677D02*
X1034849D01*
X1014001Y1549558D02*
X1034730D01*
X1014120Y1549439D02*
X1034730D01*
X1014120Y1549320D02*
X1034730D01*
X1014120Y1549201D02*
X1034611D01*
X1014239Y1549082D02*
X1034611D01*
X1014239Y1548962D02*
X1034492D01*
X1014358Y1548843D02*
X1034492D01*
X1014358Y1548724D02*
X1034373D01*
X1014358Y1548605D02*
X1034373D01*
X1014477Y1548486D02*
X1034373D01*
X1014477Y1548367D02*
X1034253D01*
X1014596Y1548248D02*
X1034253D01*
X1014596Y1548128D02*
X1034134D01*
X1014596Y1548009D02*
X1034134D01*
X1014716Y1547890D02*
X1034134D01*
X1014716Y1547771D02*
X1034015D01*
X1014835Y1547652D02*
X1034015D01*
X1014835Y1547533D02*
X1033896D01*
X1014835Y1547414D02*
X1033896D01*
X1014954Y1547294D02*
X1033777D01*
X1014954Y1547175D02*
X1033777D01*
X1015073Y1547056D02*
X1033777D01*
X1015073Y1546937D02*
X1033658D01*
X1015073Y1546818D02*
X1033658D01*
X1015192Y1546699D02*
X1033539D01*
X1015192Y1546580D02*
X1033539D01*
X1015311Y1546461D02*
X1033539D01*
X1015311Y1546341D02*
X1033420D01*
X1015430Y1546103D02*
X1033300D01*
X1015430Y1545984D02*
X1033300D01*
X1015430Y1545865D02*
X1033300D01*
X1015430Y1545746D02*
X1033181D01*
X1015430Y1545627D02*
X1033181D01*
X1015311Y1545508D02*
X1033062D01*
X1015192Y1545388D02*
X1033062D01*
X1015192Y1545269D02*
X1032943D01*
X1015073Y1545150D02*
X1032943D01*
X1014954Y1545031D02*
X1032943D01*
X1014835Y1544912D02*
X1032824D01*
X1014835Y1544793D02*
X1032824D01*
X1014716Y1544673D02*
X1032705D01*
X1014596Y1544554D02*
X1032705D01*
X1014596Y1544435D02*
X1032705D01*
X1014477Y1544316D02*
X1032586D01*
X1014358Y1544197D02*
X1032586D01*
X1014358Y1544078D02*
X1032467D01*
X1014239Y1543959D02*
X1032467D01*
X1014120Y1543840D02*
X1032347D01*
X1014120Y1543720D02*
X1032347D01*
X1014001Y1543601D02*
X1032347D01*
X1013882Y1543482D02*
X1032228D01*
X1013882Y1543363D02*
X1032228D01*
X1013763Y1543244D02*
X1032109D01*
X1013643Y1543125D02*
X1032109D01*
X1013524Y1543006D02*
X1032109D01*
X1013524Y1542887D02*
X1031990D01*
X1013405Y1542767D02*
X1031990D01*
X1013286Y1542648D02*
X1031871D01*
X1013286Y1542529D02*
X1031871D01*
X1013167Y1542410D02*
X1031871D01*
X1013048Y1542291D02*
X1031752D01*
X1013048Y1542172D02*
X1031752D01*
X1012929Y1542053D02*
X1031633D01*
X1012810Y1541933D02*
X1031633D01*
X1012810Y1541814D02*
X1031514D01*
X1012690Y1541695D02*
X1031514D01*
X1012571Y1541576D02*
X1031514D01*
X1012571Y1541457D02*
X1031394D01*
X1012452Y1541338D02*
X1031394D01*
X1012333Y1541219D02*
X1031275D01*
X1012333Y1541100D02*
X1031275D01*
X1012214Y1540980D02*
X1031275D01*
X1012095Y1540861D02*
X1031156D01*
X1011975Y1540742D02*
X1031156D01*
X1011975Y1540623D02*
X1031037D01*
X1011856Y1540504D02*
X1031037D01*
X1032347Y1586847D02*
X1045214D01*
X1058319D02*
X1061535D01*
X1045690Y1566475D02*
X1064633D01*
X1044023Y1546222D02*
X1062131D01*
X1034015Y1594948D02*
X1043427D01*
X1033896Y1594829D02*
X1043665D01*
X1033777Y1594710D02*
X1043665D01*
X1033777Y1594591D02*
X1043665D01*
X1033777Y1594471D02*
X1043784D01*
X1033658Y1594352D02*
X1043784D01*
X1033658Y1594233D02*
X1043784D01*
X1033658Y1594114D02*
X1043784D01*
X1033658Y1593995D02*
X1043784D01*
X1033658Y1593876D02*
X1043903D01*
X1033539Y1593757D02*
X1043903D01*
X1033539Y1593638D02*
X1043903D01*
X1033539Y1593518D02*
X1043903D01*
X1033539Y1593399D02*
X1043903D01*
X1033539Y1593280D02*
X1043903D01*
X1033539Y1593161D02*
X1044023D01*
X1033420Y1593042D02*
X1044023D01*
X1033420Y1592923D02*
X1044023D01*
X1033420Y1592804D02*
X1044023D01*
X1033420Y1592684D02*
X1044023D01*
X1033420Y1592565D02*
X1044142D01*
X1033300Y1592446D02*
X1044142D01*
X1033300Y1592327D02*
X1044142D01*
X1033300Y1592208D02*
X1044142D01*
X1033300Y1592089D02*
X1044142D01*
X1033300Y1591970D02*
X1044261D01*
X1033300Y1591850D02*
X1044261D01*
X1033181Y1591731D02*
X1044261D01*
X1033181Y1591612D02*
X1044261D01*
X1033181Y1591493D02*
X1044261D01*
X1033181Y1591374D02*
X1044261D01*
X1033181Y1591255D02*
X1044380D01*
X1033062Y1591136D02*
X1044380D01*
X1033062Y1591017D02*
X1044380D01*
X1033062Y1590897D02*
X1044380D01*
X1033062Y1590778D02*
X1044380D01*
X1033062Y1590659D02*
X1044499D01*
X1032943Y1590540D02*
X1044499D01*
X1032943Y1590421D02*
X1044499D01*
X1032943Y1590302D02*
X1044499D01*
X1032943Y1590183D02*
X1044499D01*
X1032943Y1590063D02*
X1044618D01*
X1032943Y1589944D02*
X1044618D01*
X1032824Y1589825D02*
X1044618D01*
X1032824Y1589706D02*
X1044618D01*
X1032824Y1589587D02*
X1044618D01*
X1032824Y1589468D02*
X1044618D01*
X1032824Y1589349D02*
X1044737D01*
X1032705Y1589229D02*
X1044737D01*
X1032705Y1589110D02*
X1044737D01*
X1032705Y1588991D02*
X1044737D01*
X1032705Y1588872D02*
X1044737D01*
X1032705Y1588753D02*
X1044856D01*
X1032586Y1588634D02*
X1044856D01*
X1032586Y1588515D02*
X1044856D01*
X1032586Y1588396D02*
X1044856D01*
X1032586Y1588277D02*
X1044856D01*
X1032586Y1588157D02*
X1044856D01*
X1032586Y1588038D02*
X1044976D01*
X1032467Y1587919D02*
X1044976D01*
X1032467Y1587800D02*
X1044976D01*
X1032467Y1587681D02*
X1044976D01*
X1032467Y1587562D02*
X1044976D01*
X1032467Y1587442D02*
X1045095D01*
X1032347Y1587323D02*
X1045095D01*
X1032347Y1587204D02*
X1045095D01*
X1032347Y1587085D02*
X1045095D01*
X1032347Y1586966D02*
X1045095D01*
X1032347Y1586728D02*
X1045214D01*
X1058199D02*
X1061654D01*
X1032228Y1586609D02*
X1045214D01*
X1057961D02*
X1061774D01*
X1032228Y1586490D02*
X1045214D01*
X1057842D02*
X1061893D01*
X1032228Y1586370D02*
X1045214D01*
X1057604D02*
X1062012D01*
X1032228Y1586251D02*
X1045214D01*
X1057485D02*
X1062131D01*
X1032228Y1586132D02*
X1045333D01*
X1057246D02*
X1062250D01*
X1032109Y1586013D02*
X1045333D01*
X1057127D02*
X1062369D01*
X1032109Y1585894D02*
X1045333D01*
X1056889D02*
X1062488D01*
X1032109Y1585775D02*
X1045333D01*
X1056770D02*
X1062607D01*
X1032109Y1585656D02*
X1045333D01*
X1056651D02*
X1062727D01*
X1031990Y1585536D02*
X1045452D01*
X1056412D02*
X1062846D01*
X1031990Y1585417D02*
X1045452D01*
X1056293D02*
X1062965D01*
X1031871Y1585298D02*
X1045571D01*
X1056055D02*
X1063084D01*
X1031633Y1585179D02*
X1045809D01*
X1055936D02*
X1063203D01*
X1031394Y1585060D02*
X1046048D01*
X1055698D02*
X1063322D01*
X1031156Y1584941D02*
X1046405D01*
X1055579D02*
X1063441D01*
X1055340Y1584822D02*
X1063560D01*
X1055221Y1584702D02*
X1063680D01*
X1054983Y1584583D02*
X1063799D01*
X1054864Y1584464D02*
X1063918D01*
X1054745Y1584345D02*
X1064037D01*
X1054506Y1584226D02*
X1064156D01*
X1054387Y1584107D02*
X1064275D01*
X1054149Y1583988D02*
X1064394D01*
X1054030Y1583869D02*
X1064513D01*
X1053792Y1583749D02*
X1064633D01*
X1053672Y1583630D02*
X1064752D01*
X1053434Y1583511D02*
X1064871D01*
X1053315Y1583392D02*
X1064990D01*
X1053077Y1583273D02*
X1065109D01*
X1052958Y1583154D02*
X1065228D01*
X1052838Y1583035D02*
X1065348D01*
X1052600Y1582915D02*
X1065467D01*
X1052481Y1582796D02*
X1065586D01*
X1052243Y1582677D02*
X1065705D01*
X1040091Y1569334D02*
X1063322D01*
X1040806Y1569215D02*
X1063441D01*
X1041282Y1569096D02*
X1063441D01*
X1041640Y1568977D02*
X1063560D01*
X1041997Y1568858D02*
X1063560D01*
X1042355Y1568739D02*
X1063680D01*
X1042593Y1568619D02*
X1063680D01*
X1042831Y1568500D02*
X1063680D01*
X1043069Y1568381D02*
X1063799D01*
X1043308Y1568262D02*
X1063799D01*
X1043546Y1568143D02*
X1063918D01*
X1043784Y1568024D02*
X1063918D01*
X1043903Y1567905D02*
X1064037D01*
X1044142Y1567785D02*
X1064037D01*
X1044261Y1567666D02*
X1064037D01*
X1044499Y1567547D02*
X1064156D01*
X1044618Y1567428D02*
X1064156D01*
X1044856Y1567309D02*
X1064275D01*
X1044976Y1567190D02*
X1064275D01*
X1045095Y1567071D02*
X1064394D01*
X1045214Y1566951D02*
X1064394D01*
X1045333Y1566832D02*
X1064394D01*
X1045452Y1566713D02*
X1064513D01*
X1045571Y1566594D02*
X1064513D01*
X1045809Y1566356D02*
X1064871D01*
X1045929Y1566237D02*
X1065228D01*
X1046048Y1566118D02*
X1065943D01*
X1046167Y1565998D02*
X1066539D01*
X1046286Y1565879D02*
X1067134D01*
X1046405Y1565760D02*
X1067849D01*
X1046405Y1565641D02*
X1068445D01*
X1046524Y1565522D02*
X1069160D01*
X1046643Y1565403D02*
X1069755D01*
X1046763Y1565284D02*
X1070351D01*
X1046763Y1565164D02*
X1071066D01*
X1046882Y1565045D02*
X1071662D01*
X1047001Y1564926D02*
X1072257D01*
X1047001Y1564807D02*
X1072972D01*
X1047120Y1564688D02*
X1073568D01*
X1047120Y1564569D02*
X1073925D01*
X1047239Y1564450D02*
X1073925D01*
X1047358Y1564331D02*
X1074044D01*
X1047358Y1564211D02*
X1074044D01*
X1047477Y1564092D02*
X1074044D01*
X1047477Y1563973D02*
X1074044D01*
X1047597Y1563854D02*
X1074044D01*
X1047597Y1563735D02*
X1074044D01*
X1047716Y1563616D02*
X1074044D01*
X1047716Y1563497D02*
X1074044D01*
X1047716Y1563378D02*
X1074044D01*
X1047835Y1563258D02*
X1074044D01*
X1047835Y1563139D02*
X1074044D01*
X1047954Y1563020D02*
X1074044D01*
X1047954Y1562901D02*
X1074044D01*
X1047954Y1562782D02*
X1074044D01*
X1048073Y1562663D02*
X1074044D01*
X1048073Y1562544D02*
X1074044D01*
X1048073Y1562424D02*
X1074044D01*
X1048192Y1562305D02*
X1074044D01*
X1048192Y1562186D02*
X1074044D01*
X1048192Y1562067D02*
X1074044D01*
X1048192Y1561948D02*
X1074044D01*
X1048311Y1561829D02*
X1074044D01*
X1048311Y1561710D02*
X1074044D01*
X1048311Y1561591D02*
X1074044D01*
X1048311Y1561471D02*
X1074044D01*
X1048311Y1561352D02*
X1074044D01*
X1048430Y1561233D02*
X1074044D01*
X1048430Y1561114D02*
X1074044D01*
X1048430Y1560995D02*
X1074044D01*
X1048430Y1560876D02*
X1074044D01*
X1048430Y1560757D02*
X1074044D01*
X1048430Y1560637D02*
X1074044D01*
X1048430Y1560518D02*
X1074044D01*
X1048550Y1560399D02*
X1074044D01*
X1048550Y1560280D02*
X1074044D01*
X1048550Y1560161D02*
X1074044D01*
X1048550Y1560042D02*
X1074044D01*
X1048550Y1559923D02*
X1074044D01*
X1048550Y1559803D02*
X1074044D01*
X1048550Y1559684D02*
X1074044D01*
X1048550Y1559565D02*
X1074044D01*
X1048550Y1559446D02*
X1074044D01*
X1048550Y1559327D02*
X1074044D01*
X1048550Y1559208D02*
X1074044D01*
X1048550Y1559089D02*
X1074044D01*
X1048550Y1558970D02*
X1074044D01*
X1048550Y1558850D02*
X1074044D01*
X1048430Y1558731D02*
X1074044D01*
X1048430Y1558612D02*
X1074044D01*
X1048430Y1558493D02*
X1074044D01*
X1048430Y1558374D02*
X1074044D01*
X1048430Y1558255D02*
X1074044D01*
X1048430Y1558136D02*
X1074044D01*
X1048430Y1558017D02*
X1074044D01*
X1048311Y1557897D02*
X1074044D01*
X1048311Y1557778D02*
X1074044D01*
X1048311Y1557659D02*
X1074044D01*
X1048311Y1557540D02*
X1074044D01*
X1048311Y1557421D02*
X1074044D01*
X1048192Y1557302D02*
X1074044D01*
X1048192Y1557183D02*
X1074044D01*
X1048192Y1557063D02*
X1074044D01*
X1048192Y1556944D02*
X1074044D01*
X1048073Y1556825D02*
X1074044D01*
X1048073Y1556706D02*
X1074044D01*
X1048073Y1556587D02*
X1074044D01*
X1047954Y1556468D02*
X1074044D01*
X1047954Y1556349D02*
X1074044D01*
X1047954Y1556230D02*
X1074044D01*
X1047835Y1556110D02*
X1074044D01*
X1047835Y1555991D02*
X1074044D01*
X1047716Y1555872D02*
X1074044D01*
X1047716Y1555753D02*
X1074044D01*
X1047597Y1555634D02*
X1074044D01*
X1047597Y1555515D02*
X1074044D01*
X1047477Y1555396D02*
X1074044D01*
X1047477Y1555276D02*
X1074044D01*
X1047358Y1555157D02*
X1074044D01*
X1047358Y1555038D02*
X1074044D01*
X1047239Y1554919D02*
X1073925D01*
X1047239Y1554800D02*
X1073806D01*
X1047120Y1554681D02*
X1073449D01*
X1047120Y1554562D02*
X1072853D01*
X1047001Y1554442D02*
X1072138D01*
X1046882Y1554323D02*
X1071542D01*
X1046882Y1554204D02*
X1070828D01*
X1046763Y1554085D02*
X1070232D01*
X1046643Y1553966D02*
X1069636D01*
X1046643Y1553847D02*
X1068922D01*
X1046524Y1553728D02*
X1068326D01*
X1046405Y1553609D02*
X1067730D01*
X1046286Y1553489D02*
X1067015D01*
X1046167Y1553370D02*
X1066420D01*
X1046167Y1553251D02*
X1065705D01*
X1046048Y1553132D02*
X1065109D01*
X1045929Y1553013D02*
X1064990D01*
X1045809Y1552894D02*
X1064871D01*
X1045690Y1552775D02*
X1064752D01*
X1045571Y1552655D02*
X1064752D01*
X1045452Y1552536D02*
X1064633D01*
X1045333Y1552417D02*
X1064633D01*
X1045214Y1552298D02*
X1064513D01*
X1044976Y1552179D02*
X1064513D01*
X1044856Y1552060D02*
X1064513D01*
X1044737Y1551941D02*
X1064394D01*
X1044618Y1551821D02*
X1064394D01*
X1044380Y1551702D02*
X1064275D01*
X1044261Y1551583D02*
X1064275D01*
X1044023Y1551464D02*
X1064275D01*
X1043903Y1551345D02*
X1064156D01*
X1043784Y1551226D02*
X1064156D01*
X1043546Y1551107D02*
X1064037D01*
X1043427Y1550988D02*
X1064037D01*
X1043189Y1550869D02*
X1064037D01*
X1043069Y1550749D02*
X1063918D01*
X1042831Y1550630D02*
X1063918D01*
X1042712Y1550511D02*
X1063799D01*
X1042593Y1550392D02*
X1063799D01*
X1042593Y1550273D02*
X1063799D01*
X1042474Y1550154D02*
X1063680D01*
X1042474Y1550034D02*
X1063680D01*
X1042593Y1549915D02*
X1063560D01*
X1042593Y1549796D02*
X1063560D01*
X1042593Y1549677D02*
X1063560D01*
X1042712Y1549558D02*
X1063441D01*
X1042712Y1549439D02*
X1063441D01*
X1042831Y1549320D02*
X1063322D01*
X1042831Y1549201D02*
X1063322D01*
X1042950Y1549082D02*
X1063322D01*
X1042950Y1548962D02*
X1063203D01*
X1042950Y1548843D02*
X1063203D01*
X1043069Y1548724D02*
X1063084D01*
X1043069Y1548605D02*
X1063084D01*
X1043189Y1548486D02*
X1063084D01*
X1043189Y1548367D02*
X1062965D01*
X1043189Y1548248D02*
X1062965D01*
X1043308Y1548128D02*
X1062846D01*
X1043308Y1548009D02*
X1062846D01*
X1043427Y1547890D02*
X1062846D01*
X1043427Y1547771D02*
X1062727D01*
X1043546Y1547652D02*
X1062727D01*
X1043546Y1547533D02*
X1062607D01*
X1043546Y1547414D02*
X1062607D01*
X1043665Y1547294D02*
X1062607D01*
X1043665Y1547175D02*
X1062488D01*
X1043784Y1547056D02*
X1062488D01*
X1043784Y1546937D02*
X1062369D01*
X1043784Y1546818D02*
X1062369D01*
X1043903Y1546699D02*
X1062369D01*
X1043903Y1546580D02*
X1062250D01*
X1044023Y1546461D02*
X1062250D01*
X1044023Y1546341D02*
X1062131D01*
X1044142Y1546103D02*
X1062131D01*
X1044142Y1545984D02*
X1062012D01*
X1044261Y1545865D02*
X1062012D01*
X1044261Y1545746D02*
X1062012D01*
X1044380Y1545627D02*
X1062131D01*
X1044380Y1545508D02*
X1062131D01*
X1044380Y1545388D02*
X1062250D01*
X1044499Y1545269D02*
X1062369D01*
X1044499Y1545150D02*
X1062369D01*
X1044618Y1545031D02*
X1062488D01*
X1044618Y1544912D02*
X1062607D01*
X1044618Y1544793D02*
X1062607D01*
X1044737Y1544673D02*
X1062727D01*
X1044737Y1544554D02*
X1062846D01*
X1044856Y1544435D02*
X1062965D01*
X1044856Y1544316D02*
X1062965D01*
X1044976Y1544197D02*
X1063084D01*
X1044976Y1544078D02*
X1063203D01*
X1044976Y1543959D02*
X1063203D01*
X1045095Y1543840D02*
X1063322D01*
X1045095Y1543720D02*
X1063441D01*
X1045214Y1543601D02*
X1063441D01*
X1045214Y1543482D02*
X1063560D01*
X1045214Y1543363D02*
X1063680D01*
X1045333Y1543244D02*
X1063680D01*
X1045333Y1543125D02*
X1063799D01*
X1045452Y1543006D02*
X1063918D01*
X1045452Y1542887D02*
X1063918D01*
X1045452Y1542767D02*
X1064037D01*
X1045571Y1542648D02*
X1064156D01*
X1045571Y1542529D02*
X1064275D01*
X1045690Y1542410D02*
X1064275D01*
X1045690Y1542291D02*
X1064394D01*
X1045809Y1542172D02*
X1064513D01*
X1045809Y1542053D02*
X1064513D01*
X1045809Y1541933D02*
X1064633D01*
X1045929Y1541814D02*
X1064752D01*
X1045929Y1541695D02*
X1064752D01*
X1046048Y1541576D02*
X1064871D01*
X1046048Y1541457D02*
X1064990D01*
X1046048Y1541338D02*
X1064990D01*
X1046167Y1541219D02*
X1065109D01*
X1046167Y1541100D02*
X1065228D01*
X1046286Y1540980D02*
X1065228D01*
X1046286Y1540861D02*
X1065348D01*
X1046405Y1540742D02*
X1065467D01*
X1046405Y1540623D02*
X1065467D01*
X1046405Y1540504D02*
X1065586D01*
X1046524Y1540385D02*
X1065705D01*
X1046524Y1540266D02*
X1065824D01*
X1046643Y1540146D02*
X1065824D01*
X1046643Y1540027D02*
X1065943D01*
X1046643Y1539908D02*
X1066062D01*
X1046763Y1539789D02*
X1066062D01*
X1046763Y1539670D02*
X1066181D01*
X1046882Y1539551D02*
X1066301D01*
X1046882Y1539432D02*
X1066301D01*
X1046882Y1539312D02*
X1066420D01*
X1047001Y1539193D02*
X1066539D01*
X1047001Y1539074D02*
X1066539D01*
X1047120Y1538955D02*
X1066658D01*
X1047120Y1538836D02*
X1066777D01*
X1047239Y1538717D02*
X1066777D01*
X1047239Y1538598D02*
X1066896D01*
X1047239Y1538479D02*
X1067015D01*
X1047358Y1538359D02*
X1067015D01*
X1047358Y1538240D02*
X1067015D01*
X1047477Y1538121D02*
X1067015D01*
X1047477Y1538002D02*
X1067015D01*
X1047477Y1537883D02*
X1066896D01*
X1047597Y1537764D02*
X1066777D01*
X1047597Y1537645D02*
X1066658D01*
X1047716Y1537525D02*
X1066539D01*
X1047716Y1537406D02*
X1066420D01*
X1047835Y1537287D02*
X1066301D01*
X1047835Y1537168D02*
X1066181D01*
X1047835Y1537049D02*
X1066062D01*
X1047954Y1536930D02*
X1065943D01*
X1047954Y1536811D02*
X1065824D01*
X1048073Y1536691D02*
X1065705D01*
X1048073Y1536572D02*
X1065586D01*
X1048073Y1536453D02*
X1065467D01*
X1048192Y1536334D02*
X1065348D01*
X1052958Y1536215D02*
X1065228D01*
X1053196Y1536096D02*
X1065109D01*
X1053315Y1535977D02*
X1064990D01*
X1053553Y1535858D02*
X1064871D01*
X1053672Y1535739D02*
X1064752D01*
X1053911Y1535619D02*
X1064633D01*
X1054030Y1535500D02*
X1064513D01*
X1054268Y1535381D02*
X1064394D01*
X1054387Y1535262D02*
X1064275D01*
X1054506Y1535143D02*
X1064156D01*
X1054745Y1535024D02*
X1064037D01*
X1054864Y1534904D02*
X1063918D01*
X1055102Y1534785D02*
X1063799D01*
X1055221Y1534666D02*
X1063680D01*
X1055459Y1534547D02*
X1063560D01*
X1055579Y1534428D02*
X1063441D01*
X1055817Y1534309D02*
X1063322D01*
X1055936Y1534190D02*
X1063203D01*
X1056174Y1534071D02*
X1063084D01*
X1056293Y1533952D02*
X1062965D01*
X1056412Y1533832D02*
X1062846D01*
X1056651Y1533713D02*
X1062727D01*
X1056770Y1533594D02*
X1062607D01*
X1057008Y1533475D02*
X1062488D01*
X1057127Y1533356D02*
X1062369D01*
X1057365Y1533237D02*
X1062250D01*
X1057485Y1533118D02*
X1062131D01*
X1057723Y1532998D02*
X1062012D01*
X1057842Y1532879D02*
X1061893D01*
X1058080Y1532760D02*
X1061774D01*
X1058199Y1532641D02*
X1061654D01*
X1058319Y1532522D02*
X1061535D01*
X1014716Y1585656D02*
X1020911D01*
X1014596Y1585536D02*
X1021030D01*
X1014477Y1585417D02*
X1021268D01*
X1014358Y1585298D02*
X1021387D01*
X1014239Y1585179D02*
X1021625D01*
X1014120Y1585060D02*
X1021745D01*
X1014001Y1584941D02*
X1021864D01*
X1013882Y1584822D02*
X1022102D01*
X1013763Y1584702D02*
X1022221D01*
X1013643Y1584583D02*
X1022459D01*
X1013524Y1584464D02*
X1022578D01*
X1013405Y1584345D02*
X1022817D01*
X1013286Y1584226D02*
X1022936D01*
X1013167Y1584107D02*
X1023174D01*
X1013048Y1583988D02*
X1023293D01*
X1012929Y1583869D02*
X1023531D01*
X1012810Y1583749D02*
X1023651D01*
X1012690Y1583630D02*
X1023770D01*
X1012571Y1583511D02*
X1024008D01*
X1012452Y1583392D02*
X1024127D01*
X1012333Y1583273D02*
X1024365D01*
X1012214Y1583154D02*
X1024485D01*
X1012095Y1583035D02*
X1024723D01*
X1011975Y1582915D02*
X1024842D01*
X1011856Y1582796D02*
X1025080D01*
X1011737Y1582677D02*
X1025319D01*
X1008401Y1565522D02*
X1030918D01*
X1007687Y1565403D02*
X1030799D01*
X1007091Y1565284D02*
X1030799D01*
X1006495Y1565164D02*
X1030679D01*
X1005781Y1565045D02*
X1030560D01*
X1005185Y1564926D02*
X1030560D01*
X1004470Y1564807D02*
X1030441D01*
X1003874Y1564688D02*
X1030322D01*
X1003636Y1564569D02*
X1030322D01*
X1003517Y1564450D02*
X1030203D01*
X1003398Y1564331D02*
X1030203D01*
X1003398Y1564211D02*
X1030084D01*
X1003398Y1564092D02*
X1030084D01*
X1003398Y1563973D02*
X1029965D01*
X1003398Y1563854D02*
X1029965D01*
X1003398Y1563735D02*
X1029846D01*
X1003398Y1563616D02*
X1029846D01*
X1003398Y1563497D02*
X1029726D01*
X1003398Y1563378D02*
X1029726D01*
X1003398Y1563258D02*
X1029607D01*
X1003398Y1563139D02*
X1029607D01*
X1003398Y1563020D02*
X1029607D01*
X1003398Y1562901D02*
X1029488D01*
X1003398Y1562782D02*
X1029488D01*
X1003398Y1562663D02*
X1029488D01*
X1003398Y1562544D02*
X1029369D01*
X1003398Y1562424D02*
X1029369D01*
X1003398Y1562305D02*
X1029369D01*
X1003398Y1562186D02*
X1029250D01*
X1003398Y1562067D02*
X1029250D01*
X1003398Y1561948D02*
X1029250D01*
X1003398Y1561829D02*
X1029250D01*
X1003398Y1561710D02*
X1029131D01*
X1003398Y1561591D02*
X1029131D01*
X1003398Y1561471D02*
X1029131D01*
X1003398Y1561352D02*
X1029131D01*
X1003398Y1561233D02*
X1029131D01*
X1003398Y1561114D02*
X1029012D01*
X1003398Y1560995D02*
X1029012D01*
X1003398Y1560876D02*
X1029012D01*
X1003398Y1560757D02*
X1029012D01*
X1003398Y1560637D02*
X1029012D01*
X1003398Y1560518D02*
X1029012D01*
X1003398Y1560399D02*
X1029012D01*
X1003398Y1560280D02*
X1029012D01*
X1003398Y1560161D02*
X1029012D01*
X1003398Y1560042D02*
X1029012D01*
X1003398Y1559923D02*
X1028893D01*
X1003398Y1559803D02*
X1028893D01*
X1003398Y1559684D02*
X1028893D01*
X1003398Y1559565D02*
X1028893D01*
X1003398Y1559446D02*
X1028893D01*
X1003398Y1559327D02*
X1028893D01*
X1003398Y1559208D02*
X1029012D01*
X1003398Y1559089D02*
X1029012D01*
X1003398Y1558970D02*
X1029012D01*
X1003398Y1558850D02*
X1029012D01*
X1003398Y1558731D02*
X1029012D01*
X1003398Y1558612D02*
X1029012D01*
X1003398Y1558493D02*
X1029012D01*
X1003398Y1558374D02*
X1029012D01*
X1003398Y1558255D02*
X1029012D01*
X1003398Y1558136D02*
X1029012D01*
X1003398Y1558017D02*
X1029131D01*
X1003398Y1557897D02*
X1029131D01*
X1003398Y1557778D02*
X1029131D01*
X1003398Y1557659D02*
X1029131D01*
X1003398Y1557540D02*
X1029131D01*
X1003398Y1557421D02*
X1029250D01*
X1003398Y1557302D02*
X1029250D01*
X1003398Y1557183D02*
X1029250D01*
X1003398Y1557063D02*
X1029250D01*
X1003398Y1556944D02*
X1029369D01*
X1003398Y1556825D02*
X1029369D01*
X1003398Y1556706D02*
X1029369D01*
X1003398Y1556587D02*
X1029488D01*
X1003398Y1556468D02*
X1029488D01*
X1003398Y1556349D02*
X1029488D01*
X1003398Y1556230D02*
X1029607D01*
X1003398Y1556110D02*
X1029607D01*
X1003398Y1555991D02*
X1029726D01*
X1003398Y1555872D02*
X1029726D01*
X1003398Y1555753D02*
X1029726D01*
X1003398Y1555634D02*
X1029846D01*
X1003398Y1555515D02*
X1029846D01*
X1003398Y1555396D02*
X1029965D01*
X1003398Y1555276D02*
X1029965D01*
X1003398Y1555157D02*
X1030084D01*
X1003398Y1555038D02*
X1030084D01*
X1003517Y1554919D02*
X1030203D01*
X1003636Y1554800D02*
X1030203D01*
X1003994Y1554681D02*
X1030322D01*
X1004708Y1554562D02*
X1030441D01*
X1005304Y1554442D02*
X1030441D01*
X1005900Y1554323D02*
X1030560D01*
X1006615Y1554204D02*
X1030679D01*
X1007210Y1554085D02*
X1030679D01*
X1007925Y1553966D02*
X1030799D01*
X1008521Y1553847D02*
X1030918D01*
X1009116Y1553728D02*
X1030918D01*
X1011737Y1540385D02*
X1030918D01*
X1011737Y1540266D02*
X1030918D01*
X1011618Y1540146D02*
X1030918D01*
X1011499Y1540027D02*
X1030799D01*
X1011499Y1539908D02*
X1030799D01*
X1011380Y1539789D02*
X1030679D01*
X1011261Y1539670D02*
X1030679D01*
X1011261Y1539551D02*
X1030679D01*
X1011142Y1539432D02*
X1030560D01*
X1011022Y1539312D02*
X1030560D01*
X1011022Y1539193D02*
X1030441D01*
X1010903Y1539074D02*
X1030441D01*
X1010784Y1538955D02*
X1030441D01*
X1010665Y1538836D02*
X1030322D01*
X1010665Y1538717D02*
X1030322D01*
X1010546Y1538598D02*
X1030203D01*
X1010546Y1538479D02*
X1030203D01*
X1010427Y1538359D02*
X1030084D01*
X1010427Y1538240D02*
X1030084D01*
X1010427Y1538121D02*
X1030084D01*
X1010546Y1538002D02*
X1029965D01*
X1010546Y1537883D02*
X1029965D01*
X1010665Y1537764D02*
X1029846D01*
X1010784Y1537645D02*
X1029846D01*
X1010903Y1537525D02*
X1029846D01*
X1011022Y1537406D02*
X1029726D01*
X1011142Y1537287D02*
X1029726D01*
X1011261Y1537168D02*
X1029607D01*
X1011380Y1537049D02*
X1029607D01*
X1011499Y1536930D02*
X1029488D01*
X1011618Y1536811D02*
X1029488D01*
X1011737Y1536691D02*
X1029488D01*
X1011856Y1536572D02*
X1029369D01*
X1011975Y1536453D02*
X1029369D01*
X1012095Y1536334D02*
X1029250D01*
X1012214Y1536215D02*
X1024485D01*
X1012333Y1536096D02*
X1024246D01*
X1012452Y1535977D02*
X1024127D01*
X1012571Y1535858D02*
X1024008D01*
X1012690Y1535739D02*
X1023770D01*
X1012810Y1535619D02*
X1023651D01*
X1012929Y1535500D02*
X1023412D01*
X1013048Y1535381D02*
X1023293D01*
X1013167Y1535262D02*
X1023055D01*
X1013286Y1535143D02*
X1022936D01*
X1013405Y1535024D02*
X1022698D01*
X1013524Y1534904D02*
X1022578D01*
X1013643Y1534785D02*
X1022340D01*
X1013763Y1534666D02*
X1022221D01*
X1013882Y1534547D02*
X1022102D01*
X1014001Y1534428D02*
X1021864D01*
X1014120Y1534309D02*
X1021745D01*
X1014239Y1534190D02*
X1021506D01*
X1014358Y1534071D02*
X1021387D01*
X1014477Y1533952D02*
X1021149D01*
X1014596Y1533832D02*
X1021030D01*
X1015907Y1586847D02*
X1019124D01*
X1059867Y1587919D02*
X1060463D01*
X1059748Y1587800D02*
X1060582D01*
X1059510Y1587681D02*
X1060701D01*
X1059391Y1587562D02*
X1060820D01*
X1059153Y1587442D02*
X1060939D01*
X1059033Y1587323D02*
X1061059D01*
X1058914Y1587204D02*
X1061178D01*
X1058676Y1587085D02*
X1061297D01*
X1058557Y1586966D02*
X1061416D01*
X1048192Y1536215D02*
X1052362D01*
X1048311Y1536096D02*
X1052124D01*
X1048311Y1535977D02*
X1052004D01*
X1048311Y1535858D02*
X1051766D01*
X1048430Y1535739D02*
X1051528D01*
X1048430Y1535619D02*
X1051290D01*
X1048550Y1535500D02*
X1051051D01*
X1048550Y1535381D02*
X1050813D01*
X1048669Y1535262D02*
X1050575D01*
X1048669Y1535143D02*
X1050337D01*
X1048669Y1535024D02*
X1050218D01*
X1048788Y1534904D02*
X1049979D01*
X1048788Y1534785D02*
X1049741D01*
X1048907Y1534666D02*
X1049503D01*
X1058557Y1532403D02*
X1061416D01*
X1058676Y1532284D02*
X1061297D01*
X1058914Y1532164D02*
X1061178D01*
X1059033Y1532045D02*
X1061059D01*
X1059272Y1531926D02*
X1060939D01*
X1059391Y1531807D02*
X1060820D01*
X1059629Y1531688D02*
X1060701D01*
X1059748Y1531569D02*
X1060582D01*
X1059986Y1531450D02*
X1060344D01*
X1025080Y1536215D02*
X1029250D01*
X1025319Y1536096D02*
X1029250D01*
X1025557Y1535977D02*
X1029131D01*
X1025795Y1535858D02*
X1029131D01*
X1025914Y1535739D02*
X1029012D01*
X1026152Y1535619D02*
X1029012D01*
X1026391Y1535500D02*
X1029012D01*
X1026629Y1535381D02*
X1028893D01*
X1026867Y1535262D02*
X1028893D01*
X1027105Y1535143D02*
X1028773D01*
X1027344Y1535024D02*
X1028773D01*
X1027582Y1534904D02*
X1028654D01*
X1027701Y1534785D02*
X1028654D01*
X1027939Y1534666D02*
X1028535D01*
X1016979Y1587919D02*
X1017575D01*
X1016860Y1587800D02*
X1017694D01*
X1016741Y1587681D02*
X1017932D01*
X1016622Y1587562D02*
X1018051D01*
X1016503Y1587442D02*
X1018290D01*
X1016384Y1587323D02*
X1018409D01*
X1016264Y1587204D02*
X1018647D01*
X1016145Y1587085D02*
X1018766D01*
X1016026Y1586966D02*
X1019004D01*
X1015788Y1586728D02*
X1019362D01*
X1015669Y1586609D02*
X1019481D01*
X1015550Y1586490D02*
X1019600D01*
X1015430Y1586370D02*
X1019838D01*
X1015311Y1586251D02*
X1019958D01*
X1015192Y1586132D02*
X1020196D01*
X1015073Y1586013D02*
X1020315D01*
X1014954Y1585894D02*
X1020553D01*
X1014835Y1585775D02*
X1020672D01*
X1014716Y1533713D02*
X1020791D01*
X1014835Y1533594D02*
X1020672D01*
X1014954Y1533475D02*
X1020434D01*
X1015073Y1533356D02*
X1020315D01*
X1015192Y1533237D02*
X1020196D01*
X1015311Y1533118D02*
X1019958D01*
X1015430Y1532998D02*
X1019838D01*
X1015550Y1532879D02*
X1019600D01*
X1015669Y1532760D02*
X1019481D01*
X1015788Y1532641D02*
X1019243D01*
X1015907Y1532522D02*
X1019124D01*
X1016026Y1532403D02*
X1018885D01*
X1016145Y1532284D02*
X1018766D01*
X1016264Y1532164D02*
X1018528D01*
X1016384Y1532045D02*
X1018409D01*
X1016503Y1531926D02*
X1018170D01*
X1016622Y1531807D02*
X1018051D01*
X1016741Y1531688D02*
X1017932D01*
X1016860Y1531569D02*
X1017694D01*
X1017098Y1531450D02*
X1017456D01*
D18*
X1202000Y925500D02*
X1208000D01*
X1202000Y935500D02*
X1208000D01*
X1005500Y997000D02*
X1011500D01*
X1005500Y987000D02*
X1011500D01*
X1020660Y1085478D02*
X1024902Y1089721D01*
X1027731Y1078407D02*
X1031973Y1082649D01*
X1040048Y1066977D02*
X1042523Y1069452D01*
X1045175Y1088721D02*
X1054897Y1078998D01*
X1032800Y1074225D02*
X1035275Y1076700D01*
X1006750Y978750D02*
X1010250D01*
X1025750Y966500D02*
Y980250D01*
X1006750Y968500D02*
X1010250D01*
X1329250Y1163250D02*
Y1166750D01*
X1327250Y1147750D02*
X1341000D01*
X1339500Y1163250D02*
Y1166750D01*
X1359250Y1161000D02*
Y1167000D01*
X1349250Y1161000D02*
Y1167000D01*
X1325000Y955000D02*
Y961000D01*
X1335000Y955000D02*
Y961000D01*
X1143035Y995298D02*
X1145509Y997773D01*
X1130660Y985752D02*
X1140383Y976030D01*
X1150283Y988050D02*
X1152757Y990525D01*
X1162222Y974343D02*
X1166464Y978586D01*
X1155151Y981414D02*
X1159393Y985657D01*
X1344750Y956250D02*
Y959750D01*
X1343250Y975250D02*
X1357000D01*
X1355000Y956250D02*
Y959750D01*
X1360000Y875000D02*
X1366000D01*
X1360000Y865000D02*
X1366000D01*
X1410000Y986000D02*
Y992000D01*
X1420000Y986000D02*
Y992000D01*
D19*
X1229846Y1567264D02*
X1254484D01*
X1218416Y1546944D02*
X1243054D01*
X1189460Y1566502D02*
X1192254D01*
X1190476Y1566248D02*
X1192762D01*
X1191238Y1565994D02*
X1193524D01*
X1191746Y1565740D02*
X1194032D01*
X1191746Y1559136D02*
X1194286D01*
X1190984Y1558882D02*
X1193778D01*
X1190222Y1558628D02*
X1193016D01*
X1189460Y1558374D02*
X1192000D01*
X1227814Y1592918D02*
X1236196D01*
X1226290Y1592664D02*
X1237720D01*
X1225020Y1592410D02*
X1238990D01*
X1224004Y1592156D02*
X1240006D01*
X1222988Y1591902D02*
X1241022D01*
X1222226Y1591648D02*
X1241784D01*
X1221464Y1591394D02*
X1242546D01*
X1212066Y1586060D02*
X1215114D01*
X1211812Y1585806D02*
X1214860D01*
X1211558Y1585552D02*
X1214606D01*
X1249912Y1585298D02*
X1252706D01*
X1211050D02*
X1214098D01*
X1250166Y1585044D02*
X1253214D01*
X1231370D02*
X1232640D01*
X1210796D02*
X1213844D01*
X1250420Y1584790D02*
X1253468D01*
X1228322D02*
X1235434D01*
X1210542D02*
X1213590D01*
X1250674Y1584536D02*
X1253722D01*
X1227052D02*
X1236958D01*
X1210288D02*
X1213336D01*
X1251182Y1584282D02*
X1253976D01*
X1226036D02*
X1237974D01*
X1210034D02*
X1212828D01*
X1251436Y1584028D02*
X1254230D01*
X1225020D02*
X1238736D01*
X1209780D02*
X1212574D01*
X1251690Y1583774D02*
X1254484D01*
X1209526D02*
X1212320D01*
X1251944Y1583520D02*
X1254738D01*
X1209272D02*
X1212066D01*
X1252198Y1583266D02*
X1254992D01*
X1252452Y1583012D02*
X1255246D01*
X1252706Y1582758D02*
X1255246D01*
X1212066Y1581996D02*
X1214860D01*
X1212066Y1581742D02*
X1215114D01*
X1212066Y1581488D02*
X1215368D01*
X1212066Y1581234D02*
X1215622D01*
X1232386Y1574884D02*
X1233656D01*
X1232132Y1574630D02*
X1233402D01*
X1231878Y1574376D02*
X1233402D01*
X1231624Y1574122D02*
X1233148D01*
X1231370Y1573868D02*
X1232894D01*
X1212066D02*
X1213590D01*
X1231370Y1573614D02*
X1232640D01*
X1212066D02*
X1213336D01*
X1231116Y1573360D02*
X1232386D01*
X1211812D02*
X1213082D01*
X1211558Y1573106D02*
X1213082D01*
X1211558Y1572852D02*
X1212828D01*
X1211304Y1572598D02*
X1212828D01*
X1237720Y1572344D02*
X1252706D01*
X1211304D02*
X1212574D01*
X1236958Y1572090D02*
X1252706D01*
X1211050D02*
X1212320D01*
X1232894Y1571836D02*
X1252960D01*
X1211050D02*
X1212320D01*
X1231878Y1571582D02*
X1252960D01*
X1210796D02*
X1212320D01*
X1231624Y1571328D02*
X1253214D01*
X1210796D02*
X1212066D01*
X1231370Y1571074D02*
X1253214D01*
X1210796D02*
X1212066D01*
X1231116Y1570820D02*
X1253468D01*
X1231116Y1570566D02*
X1253468D01*
X1230862Y1570312D02*
X1253468D01*
X1230608Y1570058D02*
X1253722D01*
X1230608Y1569804D02*
X1253722D01*
X1230354Y1569550D02*
X1253722D01*
X1230354Y1569296D02*
X1253976D01*
X1230100Y1569042D02*
X1253976D01*
X1230100Y1568788D02*
X1253976D01*
X1230100Y1568534D02*
X1254230D01*
X1229846Y1568280D02*
X1254230D01*
X1229846Y1568026D02*
X1254230D01*
X1229846Y1567772D02*
X1254484D01*
X1229846Y1567518D02*
X1254484D01*
X1229592Y1567010D02*
X1254484D01*
X1229592Y1566756D02*
X1254484D01*
X1229592Y1566502D02*
X1254738D01*
X1229592Y1566248D02*
X1254738D01*
X1211812D02*
X1213844D01*
X1229592Y1565994D02*
X1254738D01*
X1211050D02*
X1213336D01*
X1229592Y1565740D02*
X1254738D01*
X1209272D02*
X1212574D01*
X1229592Y1565486D02*
X1254738D01*
X1229338Y1565232D02*
X1254992D01*
X1229338Y1564978D02*
X1254992D01*
X1229338Y1564724D02*
X1254992D01*
X1229084Y1564470D02*
X1253468D01*
X1229084Y1564216D02*
X1253214D01*
X1229084Y1563962D02*
X1253214D01*
X1228830Y1563708D02*
X1253214D01*
X1228830Y1563454D02*
X1253468D01*
X1228830Y1563200D02*
X1253468D01*
X1228576Y1562946D02*
X1253722D01*
X1228576Y1562692D02*
X1253722D01*
X1228322Y1562438D02*
X1254992D01*
X1228322Y1562184D02*
X1254992D01*
X1228322Y1561930D02*
X1255246D01*
X1228322Y1561676D02*
X1255246D01*
X1228068Y1561422D02*
X1255246D01*
X1228068Y1561168D02*
X1254992D01*
X1228068Y1560914D02*
X1254992D01*
X1227814Y1560660D02*
X1254992D01*
X1227814Y1560406D02*
X1253722D01*
X1227814Y1560152D02*
X1253722D01*
X1227814Y1559898D02*
X1253722D01*
X1227814Y1559644D02*
X1253468D01*
X1227814Y1559390D02*
X1253468D01*
X1227814Y1559136D02*
X1253468D01*
X1208764D02*
X1212574D01*
X1227814Y1558882D02*
X1253214D01*
X1210796D02*
X1213336D01*
X1227814Y1558628D02*
X1253214D01*
X1211558D02*
X1214098D01*
X1227814Y1558374D02*
X1252960D01*
X1228068Y1558120D02*
X1252960D01*
X1228068Y1557866D02*
X1252960D01*
X1228322Y1557612D02*
X1252706D01*
X1228576Y1557358D02*
X1252452D01*
X1228830Y1557104D02*
X1251944D01*
X1208764D02*
X1212066D01*
X1228830Y1556850D02*
X1251436D01*
X1208764D02*
X1212574D01*
X1228830Y1556596D02*
X1250928D01*
X1208764D02*
X1213082D01*
X1228830Y1556342D02*
X1250166D01*
X1208764D02*
X1213590D01*
X1228830Y1556088D02*
X1249658D01*
X1208764D02*
X1214098D01*
X1228830Y1555834D02*
X1249150D01*
X1208764D02*
X1214606D01*
X1228830Y1555580D02*
X1248642D01*
X1208764D02*
X1215114D01*
X1228830Y1555326D02*
X1248134D01*
X1208764D02*
X1215622D01*
X1228830Y1555072D02*
X1247626D01*
X1208764D02*
X1216130D01*
X1252706Y1554818D02*
X1253976D01*
X1228830D02*
X1246864D01*
X1207240D02*
X1216638D01*
X1252706Y1554564D02*
X1253976D01*
X1228830D02*
X1246356D01*
X1207748D02*
X1217146D01*
X1252706Y1554310D02*
X1253722D01*
X1228830D02*
X1245848D01*
X1208002D02*
X1217654D01*
X1252452Y1554056D02*
X1253722D01*
X1228830D02*
X1245340D01*
X1207240D02*
X1218162D01*
X1252452Y1553802D02*
X1253722D01*
X1228830D02*
X1244578D01*
X1206478D02*
X1218670D01*
X1252198Y1553548D02*
X1253468D01*
X1228830D02*
X1244070D01*
X1205970D02*
X1219178D01*
X1252198Y1553294D02*
X1253468D01*
X1228830D02*
X1243308D01*
X1205208D02*
X1219940D01*
X1252198Y1553040D02*
X1253214D01*
X1228830D02*
X1242546D01*
X1204446D02*
X1220448D01*
X1251944Y1552786D02*
X1253214D01*
X1228830D02*
X1241530D01*
X1203938D02*
X1220956D01*
X1251944Y1552532D02*
X1252960D01*
X1228830D02*
X1240514D01*
X1204700D02*
X1221718D01*
X1251690Y1552278D02*
X1252960D01*
X1228830D02*
X1239752D01*
X1204954D02*
X1222226D01*
X1251690Y1552024D02*
X1252960D01*
X1228830D02*
X1239752D01*
X1205462D02*
X1222988D01*
X1251436Y1551770D02*
X1252706D01*
X1228830D02*
X1239752D01*
X1205970D02*
X1223496D01*
X1251436Y1551516D02*
X1252706D01*
X1228830D02*
X1239498D01*
X1206478D02*
X1224258D01*
X1228830Y1551262D02*
X1239498D01*
X1206986D02*
X1225782D01*
X1228830Y1551008D02*
X1239244D01*
X1207494D02*
X1225782D01*
X1228830Y1550754D02*
X1239244D01*
X1208256D02*
X1226544D01*
X1228830Y1550500D02*
X1239244D01*
X1208764D02*
X1227052D01*
X1228830Y1550246D02*
X1238990D01*
X1209272D02*
X1228068D01*
X1209780Y1549992D02*
X1238990D01*
X1210542Y1549738D02*
X1238736D01*
X1211050Y1549484D02*
X1238736D01*
X1211812Y1549230D02*
X1238736D01*
X1212320Y1548976D02*
X1238482D01*
X1212828Y1548722D02*
X1238482D01*
X1213082Y1548468D02*
X1238482D01*
X1213336Y1548214D02*
X1238228D01*
X1213590Y1547960D02*
X1238228D01*
X1215876Y1547706D02*
X1238228D01*
X1216638Y1547452D02*
X1239752D01*
X1217400Y1547198D02*
X1241276D01*
X1219178Y1546690D02*
X1244832D01*
X1220194Y1546436D02*
X1249150D01*
X1221210Y1546182D02*
X1263882D01*
X1222226Y1545928D02*
X1263120D01*
X1223496Y1545674D02*
X1262612D01*
X1224766Y1545420D02*
X1261850D01*
X1225782Y1545166D02*
X1261088D01*
X1226544Y1544912D02*
X1260326D01*
X1228068Y1544658D02*
X1259564D01*
X1229592Y1544404D02*
X1258294D01*
X1230354Y1544150D02*
X1257786D01*
X1230354Y1543896D02*
X1254992D01*
X1230608Y1543642D02*
X1253214D01*
X1230608Y1543388D02*
X1236958D01*
X1230608Y1543134D02*
X1236704D01*
X1230862Y1542880D02*
X1236704D01*
X1230862Y1542626D02*
X1236704D01*
X1231116Y1542372D02*
X1236450D01*
X1231116Y1542118D02*
X1236450D01*
X1231370Y1541864D02*
X1236450D01*
X1231370Y1541610D02*
X1236196D01*
X1231370Y1541356D02*
X1236196D01*
X1252706Y1541102D02*
X1255246D01*
X1231624D02*
X1236196D01*
X1252452Y1540848D02*
X1254992D01*
X1231624D02*
X1236196D01*
X1252198Y1540594D02*
X1254738D01*
X1231624D02*
X1236196D01*
X1251944Y1540340D02*
X1254484D01*
X1231878D02*
X1240260D01*
X1209272D02*
X1212066D01*
X1251690Y1540086D02*
X1254230D01*
X1231878D02*
X1239498D01*
X1209526D02*
X1212320D01*
X1251436Y1539832D02*
X1253976D01*
X1225274D02*
X1238736D01*
X1209780D02*
X1212574D01*
X1251182Y1539578D02*
X1253722D01*
X1226290D02*
X1237974D01*
X1210034D02*
X1212828D01*
X1250928Y1539324D02*
X1253468D01*
X1227306D02*
X1236958D01*
X1210288D02*
X1213082D01*
X1250420Y1539070D02*
X1253214D01*
X1228830D02*
X1235434D01*
X1210542D02*
X1213336D01*
X1250166Y1538816D02*
X1252960D01*
X1210796D02*
X1213844D01*
X1249912Y1538562D02*
X1252706D01*
X1211050D02*
X1214098D01*
X1211304Y1538308D02*
X1214352D01*
X1211812Y1538054D02*
X1214860D01*
X1212066Y1537800D02*
X1215114D01*
X1232386Y1537546D02*
X1235434D01*
X1232386Y1537292D02*
X1235434D01*
X1232386Y1537038D02*
X1235434D01*
X1232386Y1536784D02*
X1235434D01*
X1232386Y1536530D02*
X1235688D01*
X1221718Y1532466D02*
X1242546D01*
X1222480Y1532212D02*
X1241784D01*
X1223242Y1531958D02*
X1240768D01*
X1224004Y1531704D02*
X1240006D01*
X1225020Y1531450D02*
X1238990D01*
X1226290Y1531196D02*
X1237720D01*
X1228068Y1530942D02*
X1235942D01*
X1209526Y1567264D02*
X1210796D01*
X1201144D02*
X1202922D01*
X1204446Y1546944D02*
X1206732D01*
X1229084Y1587584D02*
X1232132D01*
X1224766D02*
X1227814D01*
X1219940D02*
X1222734D01*
X1214098D02*
X1217654D01*
X1227306Y1567264D02*
X1228576D01*
X1214606D02*
X1215876D01*
X1214352Y1546944D02*
X1215876D01*
X1246356Y1587584D02*
X1249912D01*
X1240768D02*
X1243816D01*
X1236196D02*
X1239244D01*
X1233148D02*
X1234672D01*
X1248134Y1546944D02*
X1249658D01*
X1260834Y1567264D02*
X1262866D01*
X1261088Y1546944D02*
X1265152D01*
X1257278D02*
X1259564D01*
X1209018Y1583266D02*
X1211812D01*
X1208764Y1583012D02*
X1211558D01*
X1208510Y1582758D02*
X1211304D01*
X1208510Y1582504D02*
X1211050D01*
X1208256Y1582250D02*
X1210796D01*
X1208002Y1581996D02*
X1210542D01*
X1207748Y1581742D02*
X1210288D01*
X1207494Y1581488D02*
X1210034D01*
X1207240Y1581234D02*
X1209780D01*
X1207240Y1580980D02*
X1209526D01*
X1206986Y1580726D02*
X1209526D01*
X1206732Y1580472D02*
X1209272D01*
X1206478Y1580218D02*
X1209018D01*
X1206478Y1579964D02*
X1208764D01*
X1206224Y1579710D02*
X1208510D01*
X1205970Y1579456D02*
X1208510D01*
X1205970Y1579202D02*
X1208256D01*
X1205716Y1578948D02*
X1208002D01*
X1205462Y1578694D02*
X1207748D01*
X1205462Y1578440D02*
X1207748D01*
X1205208Y1578186D02*
X1207494D01*
X1204954Y1577932D02*
X1207240D01*
X1204954Y1577678D02*
X1207240D01*
X1204700Y1577424D02*
X1206986D01*
X1204700Y1577170D02*
X1206732D01*
X1204446Y1576916D02*
X1206732D01*
X1204446Y1576662D02*
X1206478D01*
X1204192Y1576408D02*
X1206478D01*
X1204192Y1576154D02*
X1206224D01*
X1203938Y1575900D02*
X1206224D01*
X1203938Y1575646D02*
X1205970D01*
X1203684Y1575392D02*
X1205716D01*
X1203684Y1575138D02*
X1205716D01*
X1203430Y1574884D02*
X1205462D01*
X1203430Y1574630D02*
X1205462D01*
X1203176Y1574376D02*
X1205208D01*
X1203176Y1574122D02*
X1205208D01*
X1202922Y1573868D02*
X1204954D01*
X1202922Y1573614D02*
X1204954D01*
X1202922Y1573360D02*
X1204954D01*
X1202668Y1573106D02*
X1204700D01*
X1202668Y1572852D02*
X1204700D01*
X1202414Y1572598D02*
X1204446D01*
X1202414Y1572344D02*
X1204446D01*
X1202414Y1572090D02*
X1204446D01*
X1202160Y1571836D02*
X1204192D01*
X1202160Y1571582D02*
X1204192D01*
X1202160Y1571328D02*
X1203938D01*
X1201906Y1571074D02*
X1203938D01*
X1210542Y1570820D02*
X1211812D01*
X1201906D02*
X1203938D01*
X1210542Y1570566D02*
X1211812D01*
X1201906D02*
X1203684D01*
X1210288Y1570312D02*
X1211558D01*
X1201906D02*
X1203684D01*
X1210288Y1570058D02*
X1211558D01*
X1201652D02*
X1203684D01*
X1210288Y1569804D02*
X1211558D01*
X1201652D02*
X1203684D01*
X1210034Y1569550D02*
X1211304D01*
X1201652D02*
X1203430D01*
X1210034Y1569296D02*
X1211304D01*
X1201652D02*
X1203430D01*
X1210034Y1569042D02*
X1211304D01*
X1201398D02*
X1203430D01*
X1209780Y1568788D02*
X1211050D01*
X1201398D02*
X1203430D01*
X1209780Y1568534D02*
X1211050D01*
X1201398D02*
X1203176D01*
X1209780Y1568280D02*
X1211050D01*
X1201398D02*
X1203176D01*
X1209526Y1568026D02*
X1210796D01*
X1201144D02*
X1203176D01*
X1209526Y1567772D02*
X1210796D01*
X1201144D02*
X1203176D01*
X1209526Y1567518D02*
X1210796D01*
X1201144D02*
X1202922D01*
X1209272Y1567010D02*
X1210542D01*
X1201144D02*
X1202922D01*
X1209272Y1566756D02*
X1210542D01*
X1201144D02*
X1202922D01*
X1209272Y1566502D02*
X1210542D01*
X1200890D02*
X1202922D01*
X1209272Y1566248D02*
X1210288D01*
X1200890D02*
X1202922D01*
X1209272Y1565994D02*
X1210288D01*
X1200890D02*
X1202922D01*
X1200890Y1565740D02*
X1202668D01*
X1209018Y1565486D02*
X1211812D01*
X1200890D02*
X1202668D01*
X1192508D02*
X1194794D01*
X1208764Y1565232D02*
X1211050D01*
X1200890D02*
X1202668D01*
X1193270D02*
X1195556D01*
X1208256Y1564978D02*
X1210542D01*
X1200890D02*
X1202922D01*
X1193778D02*
X1196318D01*
X1207494Y1564724D02*
X1210034D01*
X1200128D02*
X1203684D01*
X1194540D02*
X1197080D01*
X1206732Y1564470D02*
X1210034D01*
X1202414D02*
X1204446D01*
X1201652D02*
X1202160D01*
X1199366D02*
X1201398D01*
X1195302D02*
X1197842D01*
X1209018Y1564216D02*
X1210034D01*
X1206224D02*
X1208510D01*
X1202668D02*
X1205462D01*
X1201652D02*
X1202160D01*
X1196064D02*
X1200636D01*
X1209018Y1563962D02*
X1210034D01*
X1202668D02*
X1208002D01*
X1201652D02*
X1202160D01*
X1200128D02*
X1201398D01*
X1196572D02*
X1199874D01*
X1209018Y1563708D02*
X1210034D01*
X1204954D02*
X1207240D01*
X1202668D02*
X1204700D01*
X1201652D02*
X1202160D01*
X1199366D02*
X1201398D01*
X1197334D02*
X1199112D01*
X1209018Y1563454D02*
X1210034D01*
X1203430D02*
X1206732D01*
X1202668D02*
X1203176D01*
X1201652D02*
X1202160D01*
X1198604D02*
X1201398D01*
X1196572D02*
X1198350D01*
X1208764Y1563200D02*
X1210034D01*
X1204192D02*
X1207494D01*
X1202668D02*
X1203176D01*
X1201652D02*
X1202160D01*
X1200636D02*
X1201398D01*
X1195810D02*
X1199620D01*
X1208764Y1562946D02*
X1210034D01*
X1204954D02*
X1208256D01*
X1202668D02*
X1203176D01*
X1201652D02*
X1202160D01*
X1200636D02*
X1201398D01*
X1195048D02*
X1199112D01*
X1205716Y1562692D02*
X1210034D01*
X1202668D02*
X1203176D01*
X1201652D02*
X1202160D01*
X1200636D02*
X1201398D01*
X1194794D02*
X1198350D01*
X1206478Y1562438D02*
X1210034D01*
X1202668D02*
X1203176D01*
X1201652D02*
X1202160D01*
X1200636D02*
X1201144D01*
X1195810D02*
X1197588D01*
X1194540D02*
X1195556D01*
X1206986Y1562184D02*
X1210034D01*
X1202668D02*
X1203430D01*
X1201652D02*
X1202160D01*
X1200636D02*
X1201144D01*
X1195556D02*
X1196826D01*
X1194540D02*
X1195302D01*
X1207748Y1561930D02*
X1210034D01*
X1202668D02*
X1203430D01*
X1201652D02*
X1202160D01*
X1200636D02*
X1201144D01*
X1195556D02*
X1196318D01*
X1194540D02*
X1195048D01*
X1208002Y1561676D02*
X1210034D01*
X1202922D02*
X1203684D01*
X1201652D02*
X1202160D01*
X1200382D02*
X1201144D01*
X1195556D02*
X1196064D01*
X1194540D02*
X1195048D01*
X1208764Y1561422D02*
X1210034D01*
X1208002D02*
X1208510D01*
X1202922D02*
X1203938D01*
X1201652D02*
X1202160D01*
X1200128D02*
X1200890D01*
X1195556D02*
X1196064D01*
X1194540D02*
X1195048D01*
X1208764Y1561168D02*
X1210034D01*
X1208002D02*
X1208510D01*
X1203176D02*
X1203938D01*
X1201652D02*
X1202160D01*
X1199874D02*
X1200890D01*
X1195556D02*
X1196064D01*
X1194540D02*
X1195048D01*
X1208764Y1560914D02*
X1210034D01*
X1208002D02*
X1208510D01*
X1203430D02*
X1204446D01*
X1201652D02*
X1202160D01*
X1199620D02*
X1200636D01*
X1195556D02*
X1196064D01*
X1194540D02*
X1195048D01*
X1208764Y1560660D02*
X1210034D01*
X1207748D02*
X1208510D01*
X1203684D02*
X1204954D01*
X1202668D02*
X1203176D01*
X1201652D02*
X1202160D01*
X1199112D02*
X1200382D01*
X1195556D02*
X1196064D01*
X1194540D02*
X1195048D01*
X1208764Y1560406D02*
X1210034D01*
X1207748D02*
X1208510D01*
X1202668D02*
X1205716D01*
X1201652D02*
X1202160D01*
X1198350D02*
X1201398D01*
X1195556D02*
X1196064D01*
X1194540D02*
X1195048D01*
X1208764Y1560152D02*
X1210034D01*
X1207494D02*
X1208510D01*
X1202668D02*
X1206478D01*
X1201652D02*
X1202160D01*
X1197588D02*
X1201398D01*
X1195556D02*
X1196572D01*
X1194540D02*
X1195048D01*
X1208764Y1559898D02*
X1210288D01*
X1203684D02*
X1208256D01*
X1202668D02*
X1203176D01*
X1201652D02*
X1202160D01*
X1200636D02*
X1201398D01*
X1195556D02*
X1200382D01*
X1194032D02*
X1195048D01*
X1208764Y1559644D02*
X1211050D01*
X1204446D02*
X1208002D01*
X1202668D02*
X1203176D01*
X1201652D02*
X1202160D01*
X1200636D02*
X1201398D01*
X1196064D02*
X1199620D01*
X1193270D02*
X1195048D01*
X1208764Y1559390D02*
X1211812D01*
X1205208D02*
X1207240D01*
X1202668D02*
X1203430D01*
X1201652D02*
X1202160D01*
X1200636D02*
X1201398D01*
X1196572D02*
X1198858D01*
X1192508D02*
X1195048D01*
X1205716Y1559136D02*
X1207748D01*
X1202668D02*
X1203430D01*
X1201652D02*
X1202160D01*
X1200636D02*
X1201398D01*
X1196318D02*
X1198096D01*
X1194540D02*
X1195048D01*
X1208764Y1558882D02*
X1210288D01*
X1206478D02*
X1208256D01*
X1202668D02*
X1203430D01*
X1201652D02*
X1202160D01*
X1200636D02*
X1201144D01*
X1195556D02*
X1197588D01*
X1194540D02*
X1195048D01*
X1208764Y1558628D02*
X1210288D01*
X1207240D02*
X1208510D01*
X1202668D02*
X1203430D01*
X1201652D02*
X1202160D01*
X1200636D02*
X1201144D01*
X1195556D02*
X1196826D01*
X1194540D02*
X1195048D01*
X1208764Y1558374D02*
X1210288D01*
X1207748D02*
X1208510D01*
X1202922D02*
X1203430D01*
X1201652D02*
X1202160D01*
X1200382D02*
X1201144D01*
X1195556D02*
X1196064D01*
X1194540D02*
X1195048D01*
X1208764Y1558120D02*
X1210542D01*
X1207748D02*
X1208510D01*
X1202922D02*
X1203684D01*
X1201652D02*
X1202160D01*
X1200382D02*
X1201144D01*
X1195556D02*
X1196064D01*
X1194540D02*
X1195048D01*
X1208764Y1557866D02*
X1211050D01*
X1207748D02*
X1208510D01*
X1202922D02*
X1203684D01*
X1201652D02*
X1202160D01*
X1200128D02*
X1200890D01*
X1195556D02*
X1196064D01*
X1194540D02*
X1195048D01*
X1208764Y1557612D02*
X1211304D01*
X1207748D02*
X1208510D01*
X1203176D02*
X1203938D01*
X1201652D02*
X1202160D01*
X1199874D02*
X1200890D01*
X1195556D02*
X1196064D01*
X1194540D02*
X1195048D01*
X1208764Y1557358D02*
X1211812D01*
X1208002D02*
X1208510D01*
X1203430D02*
X1204446D01*
X1201652D02*
X1202160D01*
X1199366D02*
X1200636D01*
X1195556D02*
X1196064D01*
X1194540D02*
X1195048D01*
X1208002Y1557104D02*
X1208510D01*
X1203684D02*
X1204954D01*
X1201398D02*
X1202668D01*
X1198858D02*
X1200382D01*
X1195556D02*
X1196064D01*
X1194540D02*
X1195048D01*
X1207748Y1556850D02*
X1208510D01*
X1203938D02*
X1205716D01*
X1200636D02*
X1203430D01*
X1198096D02*
X1199874D01*
X1195556D02*
X1196064D01*
X1194540D02*
X1195048D01*
X1207494Y1556596D02*
X1208510D01*
X1204700D02*
X1206478D01*
X1202160D02*
X1204192D01*
X1199874D02*
X1201906D01*
X1197588D02*
X1199366D01*
X1195556D02*
X1196572D01*
X1194540D02*
X1195048D01*
X1205208Y1556342D02*
X1208256D01*
X1202922D02*
X1204700D01*
X1199366D02*
X1201144D01*
X1195556D02*
X1198604D01*
X1194540D02*
X1195048D01*
X1205970Y1556088D02*
X1207748D01*
X1203684D02*
X1205462D01*
X1198604D02*
X1200382D01*
X1196064D02*
X1198096D01*
X1194540D02*
X1195048D01*
X1204192Y1555834D02*
X1206224D01*
X1197842D02*
X1199620D01*
X1196826D02*
X1197080D01*
X1194540D02*
X1195048D01*
X1204954Y1555580D02*
X1206986D01*
X1197080D02*
X1199112D01*
X1194540D02*
X1195048D01*
X1205716Y1555326D02*
X1207748D01*
X1196318D02*
X1198350D01*
X1194540D02*
X1195302D01*
X1206478Y1555072D02*
X1208256D01*
X1195810D02*
X1197588D01*
X1194540D02*
X1195302D01*
X1194540Y1554818D02*
X1196826D01*
X1194540Y1554564D02*
X1196318D01*
X1194794Y1554310D02*
X1196064D01*
X1195048Y1554056D02*
X1196826D01*
X1195556Y1553802D02*
X1197588D01*
X1196318Y1553548D02*
X1198096D01*
X1197080Y1553294D02*
X1198858D01*
X1197588Y1553040D02*
X1199620D01*
X1198350Y1552786D02*
X1200382D01*
X1203176Y1552532D02*
X1204192D01*
X1199112D02*
X1200890D01*
X1199874Y1552278D02*
X1204192D01*
X1200382Y1552024D02*
X1204192D01*
X1201398Y1551770D02*
X1204446D01*
X1202414Y1551516D02*
X1204446D01*
X1202414Y1551262D02*
X1204700D01*
X1202668Y1551008D02*
X1204700D01*
X1202668Y1550754D02*
X1204700D01*
X1202668Y1550500D02*
X1204954D01*
X1202922Y1550246D02*
X1204954D01*
X1202922Y1549992D02*
X1205208D01*
X1203176Y1549738D02*
X1205208D01*
X1203176Y1549484D02*
X1205462D01*
X1203430Y1549230D02*
X1205462D01*
X1203430Y1548976D02*
X1205716D01*
X1203430Y1548722D02*
X1205716D01*
X1203684Y1548468D02*
X1205970D01*
X1203684Y1548214D02*
X1205970D01*
X1203938Y1547960D02*
X1206224D01*
X1203938Y1547706D02*
X1206224D01*
X1204192Y1547452D02*
X1206478D01*
X1204192Y1547198D02*
X1206478D01*
X1204446Y1546690D02*
X1206732D01*
X1204700Y1546436D02*
X1206986D01*
X1204954Y1546182D02*
X1207240D01*
X1204954Y1545928D02*
X1207240D01*
X1205208Y1545674D02*
X1207494D01*
X1205208Y1545420D02*
X1207494D01*
X1205462Y1545166D02*
X1207748D01*
X1205716Y1544912D02*
X1208002D01*
X1205716Y1544658D02*
X1208002D01*
X1205970Y1544404D02*
X1208256D01*
X1206224Y1544150D02*
X1208510D01*
X1206224Y1543896D02*
X1208764D01*
X1206478Y1543642D02*
X1208764D01*
X1206732Y1543388D02*
X1209018D01*
X1206986Y1543134D02*
X1209272D01*
X1207240Y1542880D02*
X1209526D01*
X1207494Y1542626D02*
X1209780D01*
X1207494Y1542372D02*
X1210034D01*
X1207748Y1542118D02*
X1210288D01*
X1208002Y1541864D02*
X1210542D01*
X1208256Y1541610D02*
X1210796D01*
X1208510Y1541356D02*
X1211050D01*
X1208764Y1541102D02*
X1211304D01*
X1208764Y1540848D02*
X1211558D01*
X1209018Y1540594D02*
X1211812D01*
X1220702Y1591140D02*
X1228322D01*
X1219940Y1590886D02*
X1226798D01*
X1219432Y1590632D02*
X1225528D01*
X1218924Y1590378D02*
X1224512D01*
X1229592Y1590124D02*
X1231878D01*
X1218416D02*
X1223750D01*
X1229084Y1589870D02*
X1231878D01*
X1217908D02*
X1222734D01*
X1228830Y1589616D02*
X1231878D01*
X1217400D02*
X1221972D01*
X1228830Y1589362D02*
X1231878D01*
X1225274D02*
X1226290D01*
X1216892D02*
X1221464D01*
X1228576Y1589108D02*
X1231878D01*
X1225274D02*
X1226544D01*
X1216384D02*
X1220702D01*
X1228576Y1588854D02*
X1231878D01*
X1225020D02*
X1226798D01*
X1215876D02*
X1220194D01*
X1230608Y1588600D02*
X1232132D01*
X1228576D02*
X1230100D01*
X1225020D02*
X1227052D01*
X1215622D02*
X1219686D01*
X1228576Y1588346D02*
X1232132D01*
X1225020D02*
X1227306D01*
X1215114D02*
X1219178D01*
X1228830Y1588092D02*
X1232132D01*
X1225020D02*
X1227306D01*
X1221210D02*
X1222226D01*
X1214860D02*
X1218670D01*
X1228830Y1587838D02*
X1232132D01*
X1224766D02*
X1227560D01*
X1220448D02*
X1222734D01*
X1214352D02*
X1218162D01*
X1230608Y1587330D02*
X1232132D01*
X1229846D02*
X1230100D01*
X1224766D02*
X1228068D01*
X1219940D02*
X1222988D01*
X1213590D02*
X1217146D01*
X1230608Y1587076D02*
X1232132D01*
X1224766D02*
X1228068D01*
X1219940D02*
X1222988D01*
X1213336D02*
X1216638D01*
X1230608Y1586822D02*
X1232132D01*
X1224766D02*
X1228322D01*
X1219940D02*
X1223242D01*
X1213082D02*
X1216384D01*
X1230608Y1586568D02*
X1232132D01*
X1224766D02*
X1228322D01*
X1221464D02*
X1223242D01*
X1219940D02*
X1221210D01*
X1212574D02*
X1215876D01*
X1230862Y1586314D02*
X1232132D01*
X1224766D02*
X1228322D01*
X1220956D02*
X1222988D01*
X1212320D02*
X1215622D01*
X1230862Y1586060D02*
X1231878D01*
X1227052D02*
X1228322D01*
X1224766D02*
X1226290D01*
X1220448D02*
X1222988D01*
X1227306Y1585806D02*
X1228322D01*
X1224766D02*
X1226036D01*
X1220448D02*
X1222734D01*
X1224766Y1585552D02*
X1226036D01*
X1222480D02*
X1223496D01*
X1220448D02*
X1222226D01*
X1216130D02*
X1217146D01*
X1224766Y1585298D02*
X1226036D01*
X1220448D02*
X1223750D01*
X1216130D02*
X1217654D01*
X1220448Y1585044D02*
X1223750D01*
X1216130D02*
X1218162D01*
X1220448Y1584790D02*
X1223750D01*
X1216130D02*
X1218416D01*
X1220702Y1584536D02*
X1223750D01*
X1216130D02*
X1218924D01*
X1220702Y1584282D02*
X1223242D01*
X1216130D02*
X1219178D01*
X1220956Y1584028D02*
X1222734D01*
X1216130D02*
X1219686D01*
X1224258Y1583774D02*
X1229084D01*
X1216130D02*
X1219940D01*
X1223750Y1583520D02*
X1227560D01*
X1216384D02*
X1220194D01*
X1213590D02*
X1214606D01*
X1222988Y1583266D02*
X1226544D01*
X1216384D02*
X1220194D01*
X1213336D02*
X1214860D01*
X1222480Y1583012D02*
X1225528D01*
X1216384D02*
X1220194D01*
X1213082D02*
X1214860D01*
X1221972Y1582758D02*
X1224766D01*
X1218924D02*
X1220194D01*
X1216384D02*
X1218670D01*
X1212574D02*
X1214860D01*
X1221464Y1582504D02*
X1224004D01*
X1216384D02*
X1218162D01*
X1212574D02*
X1214606D01*
X1220956Y1582250D02*
X1223496D01*
X1216638D02*
X1218162D01*
X1212320D02*
X1214606D01*
X1220448Y1581996D02*
X1222988D01*
X1216638D02*
X1218162D01*
X1219940Y1581742D02*
X1222480D01*
X1216638D02*
X1218162D01*
X1219686Y1581488D02*
X1221972D01*
X1216892D02*
X1217908D01*
X1219178Y1581234D02*
X1221464D01*
X1217146D02*
X1217654D01*
X1218924Y1580980D02*
X1220956D01*
X1213590D02*
X1215876D01*
X1218416Y1580726D02*
X1220448D01*
X1213844D02*
X1215876D01*
X1218162Y1580472D02*
X1220194D01*
X1214098D02*
X1216130D01*
X1217908Y1580218D02*
X1219686D01*
X1214352D02*
X1216130D01*
X1217400Y1579964D02*
X1219432D01*
X1214606D02*
X1216130D01*
X1217146Y1579710D02*
X1219178D01*
X1214860D02*
X1215876D01*
X1216892Y1579456D02*
X1218670D01*
X1216638Y1579202D02*
X1218416D01*
X1216384Y1578948D02*
X1218162D01*
X1216130Y1578694D02*
X1217908D01*
X1215876Y1578440D02*
X1217400D01*
X1215622Y1578186D02*
X1217146D01*
X1215368Y1577932D02*
X1216892D01*
X1223496Y1577678D02*
X1223750D01*
X1215114D02*
X1216638D01*
X1222988Y1577424D02*
X1224004D01*
X1214860D02*
X1216384D01*
X1222734Y1577170D02*
X1224004D01*
X1214606D02*
X1216130D01*
X1222734Y1576916D02*
X1224004D01*
X1214352D02*
X1215876D01*
X1222988Y1576662D02*
X1224004D01*
X1214098D02*
X1215622D01*
X1222988Y1576408D02*
X1223496D01*
X1213844D02*
X1215368D01*
X1213590Y1576154D02*
X1215368D01*
X1219686Y1575900D02*
X1220448D01*
X1213590D02*
X1215114D01*
X1219432Y1575646D02*
X1220448D01*
X1213336D02*
X1214860D01*
X1219432Y1575392D02*
X1220702D01*
X1213082D02*
X1214606D01*
X1219432Y1575138D02*
X1220702D01*
X1212828D02*
X1214352D01*
X1219686Y1574884D02*
X1220194D01*
X1212828D02*
X1214352D01*
X1212574Y1574630D02*
X1214098D01*
X1212320Y1574376D02*
X1213844D01*
X1212320Y1574122D02*
X1213590D01*
X1224766Y1573868D02*
X1225274D01*
X1224258Y1573614D02*
X1225528D01*
X1224004Y1573360D02*
X1225528D01*
X1220194D02*
X1221210D01*
X1230862Y1573106D02*
X1232132D01*
X1224004D02*
X1225528D01*
X1220194D02*
X1221464D01*
X1230608Y1572852D02*
X1231878D01*
X1224258D02*
X1225528D01*
X1220448D02*
X1221210D01*
X1230354Y1572598D02*
X1231878D01*
X1224512D02*
X1225020D01*
X1220448D02*
X1220956D01*
X1230354Y1572344D02*
X1231624D01*
X1230100Y1572090D02*
X1231370D01*
X1229846Y1571836D02*
X1231116D01*
X1229846Y1571582D02*
X1231116D01*
X1229592Y1571328D02*
X1230862D01*
X1229338Y1571074D02*
X1230608D01*
X1229338Y1570820D02*
X1230608D01*
X1229084Y1570566D02*
X1230354D01*
X1228830Y1570312D02*
X1230100D01*
X1228830Y1570058D02*
X1230100D01*
X1228576Y1569804D02*
X1229846D01*
X1228576Y1569550D02*
X1229592D01*
X1220448D02*
X1221210D01*
X1228322Y1569296D02*
X1229592D01*
X1220194D02*
X1221464D01*
X1228322Y1569042D02*
X1229338D01*
X1219940D02*
X1221464D01*
X1228068Y1568788D02*
X1229338D01*
X1219940D02*
X1221718D01*
X1228068Y1568534D02*
X1229084D01*
X1220194D02*
X1221464D01*
X1227814Y1568280D02*
X1229084D01*
X1220448D02*
X1220956D01*
X1227814Y1568026D02*
X1228830D01*
X1227560Y1567772D02*
X1228830D01*
X1227560Y1567518D02*
X1228576D01*
X1227306Y1567010D02*
X1228322D01*
X1213844D02*
X1215622D01*
X1227052Y1566756D02*
X1228322D01*
X1213082D02*
X1215114D01*
X1227052Y1566502D02*
X1228068D01*
X1212320D02*
X1214606D01*
X1226798Y1566248D02*
X1228068D01*
X1226798Y1565994D02*
X1227814D01*
X1226798Y1565740D02*
X1227814D01*
X1226544Y1565486D02*
X1227814D01*
X1226544Y1565232D02*
X1227560D01*
X1226290Y1564978D02*
X1227560D01*
X1226290Y1564724D02*
X1227306D01*
X1226290Y1564470D02*
X1227306D01*
X1226036Y1564216D02*
X1227306D01*
X1226036Y1563962D02*
X1227052D01*
X1226036Y1563708D02*
X1227052D01*
X1225782Y1563454D02*
X1227052D01*
X1225782Y1563200D02*
X1226798D01*
X1225782Y1562946D02*
X1226798D01*
X1225782Y1562692D02*
X1226798D01*
X1225528Y1562438D02*
X1226798D01*
X1225528Y1562184D02*
X1226544D01*
X1225528Y1561930D02*
X1226544D01*
X1225528Y1561676D02*
X1226544D01*
X1225274Y1561422D02*
X1226544D01*
X1225274Y1561168D02*
X1226290D01*
X1225274Y1560914D02*
X1226290D01*
X1225274Y1560660D02*
X1226290D01*
X1225274Y1560406D02*
X1226290D01*
X1225020Y1560152D02*
X1226290D01*
X1225020Y1559898D02*
X1226036D01*
X1225020Y1559644D02*
X1226036D01*
X1225020Y1559390D02*
X1226036D01*
X1225020Y1559136D02*
X1226036D01*
X1225020Y1558882D02*
X1226036D01*
X1225020Y1558628D02*
X1226036D01*
X1224766Y1558374D02*
X1226036D01*
X1212320D02*
X1214606D01*
X1224766Y1558120D02*
X1226036D01*
X1213082D02*
X1215368D01*
X1224766Y1557866D02*
X1225782D01*
X1213590D02*
X1215876D01*
X1224766Y1557612D02*
X1225782D01*
X1214352D02*
X1215876D01*
X1224766Y1557358D02*
X1225782D01*
X1224766Y1557104D02*
X1225782D01*
X1224766Y1556850D02*
X1225782D01*
X1224766Y1556596D02*
X1225782D01*
X1224766Y1556342D02*
X1225782D01*
X1224766Y1556088D02*
X1225782D01*
X1224766Y1555834D02*
X1225782D01*
X1224766Y1555580D02*
X1225782D01*
X1224766Y1555326D02*
X1225782D01*
X1224766Y1555072D02*
X1225782D01*
X1224766Y1554818D02*
X1225782D01*
X1224766Y1554564D02*
X1225782D01*
X1224766Y1554310D02*
X1225782D01*
X1224766Y1554056D02*
X1225782D01*
X1224766Y1553802D02*
X1225782D01*
X1224766Y1553548D02*
X1225782D01*
X1224766Y1553294D02*
X1225782D01*
X1224766Y1553040D02*
X1225782D01*
X1224766Y1552786D02*
X1225782D01*
X1224766Y1552532D02*
X1225782D01*
X1224766Y1552278D02*
X1225782D01*
X1225020Y1552024D02*
X1225782D01*
X1225020Y1551770D02*
X1225782D01*
X1225020Y1551516D02*
X1225782D01*
X1213844Y1547706D02*
X1215368D01*
X1213844Y1547452D02*
X1215368D01*
X1214098Y1547198D02*
X1215622D01*
X1214606Y1546690D02*
X1216130D01*
X1214860Y1546436D02*
X1216384D01*
X1215114Y1546182D02*
X1216638D01*
X1215368Y1545928D02*
X1216892D01*
X1215622Y1545674D02*
X1217146D01*
X1215876Y1545420D02*
X1217400D01*
X1216130Y1545166D02*
X1217908D01*
X1216384Y1544912D02*
X1218162D01*
X1226798Y1544658D02*
X1227560D01*
X1216638D02*
X1218416D01*
X1226798Y1544404D02*
X1227560D01*
X1216892D02*
X1218670D01*
X1227052Y1544150D02*
X1227560D01*
X1217146D02*
X1219178D01*
X1227052Y1543896D02*
X1227814D01*
X1217400D02*
X1219432D01*
X1227306Y1543642D02*
X1227814D01*
X1217908D02*
X1219940D01*
X1227306Y1543388D02*
X1228068D01*
X1218162D02*
X1220194D01*
X1227306Y1543134D02*
X1228068D01*
X1218416D02*
X1220702D01*
X1227560Y1542880D02*
X1228068D01*
X1218924D02*
X1220956D01*
X1227560Y1542626D02*
X1228322D01*
X1219178D02*
X1221464D01*
X1227814Y1542372D02*
X1228322D01*
X1219686D02*
X1221972D01*
X1227814Y1542118D02*
X1228322D01*
X1220194D02*
X1222480D01*
X1228068Y1541864D02*
X1228322D01*
X1220448D02*
X1223242D01*
X1220956Y1541610D02*
X1223750D01*
X1221464Y1541356D02*
X1224258D01*
X1221972Y1541102D02*
X1225020D01*
X1222480Y1540848D02*
X1225528D01*
X1223242Y1540594D02*
X1226544D01*
X1223750Y1540340D02*
X1227306D01*
X1224512Y1540086D02*
X1230354D01*
X1224512Y1538562D02*
X1225782D01*
X1224512Y1538308D02*
X1226290D01*
X1224258Y1538054D02*
X1226544D01*
X1229084Y1537800D02*
X1230354D01*
X1224258D02*
X1226798D01*
X1228576Y1537546D02*
X1230862D01*
X1224512D02*
X1227052D01*
X1212320D02*
X1215622D01*
X1228576Y1537292D02*
X1231116D01*
X1224766D02*
X1227052D01*
X1212574D02*
X1215876D01*
X1228576Y1537038D02*
X1231370D01*
X1225528D02*
X1227052D01*
X1213082D02*
X1216384D01*
X1228576Y1536784D02*
X1231370D01*
X1225782D02*
X1227052D01*
X1213336D02*
X1216638D01*
X1228830Y1536530D02*
X1231370D01*
X1225782D02*
X1227306D01*
X1213844D02*
X1217146D01*
X1229338Y1536276D02*
X1231370D01*
X1225782D02*
X1227306D01*
X1214098D02*
X1217654D01*
X1228576Y1536022D02*
X1231370D01*
X1225782D02*
X1227052D01*
X1214352D02*
X1218162D01*
X1228322Y1535768D02*
X1231370D01*
X1224258D02*
X1227052D01*
X1214860D02*
X1218416D01*
X1228068Y1535514D02*
X1231370D01*
X1223750D02*
X1227052D01*
X1215368D02*
X1218924D01*
X1228068Y1535260D02*
X1231116D01*
X1223750D02*
X1226798D01*
X1215622D02*
X1219432D01*
X1228068Y1535006D02*
X1230100D01*
X1223496D02*
X1226798D01*
X1216130D02*
X1220194D01*
X1228068Y1534752D02*
X1230862D01*
X1223750D02*
X1226544D01*
X1216638D02*
X1220702D01*
X1228068Y1534498D02*
X1231116D01*
X1224004D02*
X1226036D01*
X1217146D02*
X1221210D01*
X1228068Y1534244D02*
X1231116D01*
X1217654D02*
X1221972D01*
X1228322Y1533990D02*
X1231116D01*
X1218162D02*
X1222734D01*
X1228576Y1533736D02*
X1231116D01*
X1218670D02*
X1223496D01*
X1229592Y1533482D02*
X1230862D01*
X1219178D02*
X1224512D01*
X1219686Y1533228D02*
X1225528D01*
X1220194Y1532974D02*
X1226798D01*
X1220956Y1532720D02*
X1228576D01*
X1235434Y1591140D02*
X1243308D01*
X1237212Y1590886D02*
X1244070D01*
X1238482Y1590632D02*
X1244578D01*
X1239498Y1590378D02*
X1245086D01*
X1240260Y1590124D02*
X1245594D01*
X1233656D02*
X1234418D01*
X1241276Y1589870D02*
X1246102D01*
X1233402D02*
X1234672D01*
X1241784Y1589616D02*
X1246610D01*
X1236704D02*
X1238482D01*
X1233402D02*
X1234672D01*
X1242546Y1589362D02*
X1247118D01*
X1236196D02*
X1238990D01*
X1233402D02*
X1234672D01*
X1243308Y1589108D02*
X1247626D01*
X1236196D02*
X1239244D01*
X1233402D02*
X1234672D01*
X1243816Y1588854D02*
X1248134D01*
X1235942D02*
X1239244D01*
X1233402D02*
X1234672D01*
X1244324Y1588600D02*
X1248388D01*
X1235942D02*
X1239244D01*
X1233402D02*
X1234672D01*
X1244832Y1588346D02*
X1248896D01*
X1235942D02*
X1239244D01*
X1233148D02*
X1234672D01*
X1245340Y1588092D02*
X1249150D01*
X1241530D02*
X1243054D01*
X1237720D02*
X1239244D01*
X1235942D02*
X1237466D01*
X1233148D02*
X1234672D01*
X1245848Y1587838D02*
X1249658D01*
X1241022D02*
X1243562D01*
X1235942D02*
X1239244D01*
X1233148D02*
X1234672D01*
X1246864Y1587330D02*
X1250420D01*
X1240514D02*
X1244070D01*
X1236196D02*
X1239244D01*
X1233148D02*
X1234672D01*
X1247118Y1587076D02*
X1250674D01*
X1240260D02*
X1244324D01*
X1235942D02*
X1239244D01*
X1233148D02*
X1234672D01*
X1247626Y1586822D02*
X1250928D01*
X1240260D02*
X1244324D01*
X1235688D02*
X1238990D01*
X1233148D02*
X1234672D01*
X1248134Y1586568D02*
X1251182D01*
X1242800D02*
X1244324D01*
X1240260D02*
X1241784D01*
X1235688D02*
X1238990D01*
X1233148D02*
X1234418D01*
X1248388Y1586314D02*
X1251690D01*
X1243054D02*
X1244578D01*
X1240260D02*
X1241530D01*
X1235434D02*
X1238990D01*
X1233148D02*
X1234418D01*
X1248896Y1586060D02*
X1251944D01*
X1243054D02*
X1244578D01*
X1240006D02*
X1241530D01*
X1237466D02*
X1238990D01*
X1235434D02*
X1237212D01*
X1233402D02*
X1234418D01*
X1249150Y1585806D02*
X1252198D01*
X1243054D02*
X1244578D01*
X1240260D02*
X1241530D01*
X1237466D02*
X1238736D01*
X1235688D02*
X1236704D01*
X1249404Y1585552D02*
X1252452D01*
X1246864D02*
X1247880D01*
X1242800D02*
X1244578D01*
X1240260D02*
X1241784D01*
X1237466D02*
X1238736D01*
X1246610Y1585298D02*
X1247880D01*
X1242546D02*
X1244324D01*
X1240260D02*
X1242038D01*
X1237974D02*
X1238482D01*
X1246610Y1585044D02*
X1247880D01*
X1240260D02*
X1244324D01*
X1246356Y1584790D02*
X1247880D01*
X1240514D02*
X1244070D01*
X1246102Y1584536D02*
X1247880D01*
X1240768D02*
X1244070D01*
X1245848Y1584282D02*
X1247626D01*
X1241022D02*
X1243816D01*
X1245848Y1584028D02*
X1247626D01*
X1241276D02*
X1243308D01*
X1248896Y1583774D02*
X1250166D01*
X1245594D02*
X1247372D01*
X1234672D02*
X1239498D01*
X1248642Y1583520D02*
X1250420D01*
X1244070D02*
X1247372D01*
X1236196D02*
X1240260D01*
X1248642Y1583266D02*
X1250928D01*
X1244070D02*
X1247118D01*
X1237212D02*
X1241022D01*
X1248896Y1583012D02*
X1251182D01*
X1244070D02*
X1246864D01*
X1238228D02*
X1241530D01*
X1249150Y1582758D02*
X1251436D01*
X1244324D02*
X1246864D01*
X1238990D02*
X1242038D01*
X1248134Y1582504D02*
X1251436D01*
X1244324D02*
X1246610D01*
X1239752D02*
X1242546D01*
X1248134Y1582250D02*
X1251436D01*
X1244832D02*
X1246356D01*
X1240514D02*
X1243054D01*
X1248134Y1581996D02*
X1251436D01*
X1245086D02*
X1246356D01*
X1241022D02*
X1243562D01*
X1248134Y1581742D02*
X1251436D01*
X1241530D02*
X1244070D01*
X1248388Y1581488D02*
X1251436D01*
X1241530D02*
X1244324D01*
X1248642Y1581234D02*
X1251182D01*
X1242546D02*
X1244832D01*
X1240768D02*
X1242292D01*
X1248896Y1580980D02*
X1250928D01*
X1243054D02*
X1245086D01*
X1240260D02*
X1241530D01*
X1248642Y1580726D02*
X1250674D01*
X1243562D02*
X1245594D01*
X1239752D02*
X1241022D01*
X1248388Y1580472D02*
X1250420D01*
X1243816D02*
X1245848D01*
X1239498D02*
X1240514D01*
X1248388Y1580218D02*
X1250166D01*
X1244324D02*
X1246102D01*
X1238990D02*
X1240260D01*
X1248388Y1579964D02*
X1249912D01*
X1244578D02*
X1246610D01*
X1238482D02*
X1239752D01*
X1248388Y1579710D02*
X1249912D01*
X1245086D02*
X1246864D01*
X1238228D02*
X1239244D01*
X1248388Y1579456D02*
X1249658D01*
X1245340D02*
X1247118D01*
X1237720D02*
X1238990D01*
X1245594Y1579202D02*
X1247372D01*
X1237466D02*
X1238482D01*
X1245848Y1578948D02*
X1247626D01*
X1237212D02*
X1238228D01*
X1246102Y1578694D02*
X1247880D01*
X1236704D02*
X1237974D01*
X1246356Y1578440D02*
X1248134D01*
X1236450D02*
X1237466D01*
X1246610Y1578186D02*
X1248388D01*
X1235942D02*
X1237212D01*
X1247118Y1577932D02*
X1248642D01*
X1235688D02*
X1236958D01*
X1247372Y1577678D02*
X1248896D01*
X1235434D02*
X1236704D01*
X1247626Y1577424D02*
X1249150D01*
X1235180D02*
X1236450D01*
X1247880Y1577170D02*
X1249404D01*
X1234672D02*
X1235942D01*
X1248134Y1576916D02*
X1249658D01*
X1234418D02*
X1235688D01*
X1248388Y1576662D02*
X1249912D01*
X1234164D02*
X1235434D01*
X1248388Y1576408D02*
X1250166D01*
X1233910D02*
X1235180D01*
X1248642Y1576154D02*
X1250166D01*
X1233656D02*
X1234926D01*
X1248896Y1575900D02*
X1250420D01*
X1233402D02*
X1234672D01*
X1249150Y1575646D02*
X1250674D01*
X1233148D02*
X1234418D01*
X1249404Y1575392D02*
X1250928D01*
X1232894D02*
X1234164D01*
X1249658Y1575138D02*
X1250928D01*
X1232640D02*
X1233910D01*
X1249658Y1574884D02*
X1251182D01*
X1249912Y1574630D02*
X1251436D01*
X1250166Y1574376D02*
X1251436D01*
X1250420Y1574122D02*
X1251690D01*
X1245340D02*
X1247880D01*
X1241022D02*
X1242292D01*
X1250420Y1573868D02*
X1251944D01*
X1243816D02*
X1248896D01*
X1240514D02*
X1243054D01*
X1250674Y1573614D02*
X1251944D01*
X1240006D02*
X1249912D01*
X1239498Y1573360D02*
X1252198D01*
X1238990Y1573106D02*
X1252198D01*
X1238482Y1572852D02*
X1252452D01*
X1237974Y1572598D02*
X1252452D01*
X1251182Y1551262D02*
X1252452D01*
X1250928Y1551008D02*
X1252198D01*
X1250928Y1550754D02*
X1252198D01*
X1250674Y1550500D02*
X1251944D01*
X1250674Y1550246D02*
X1251944D01*
X1250420Y1549992D02*
X1251690D01*
X1250166Y1549738D02*
X1251690D01*
X1250166Y1549484D02*
X1251436D01*
X1249912Y1549230D02*
X1251182D01*
X1249658Y1548976D02*
X1251182D01*
X1249404Y1548722D02*
X1250928D01*
X1249150Y1548468D02*
X1250674D01*
X1249150Y1548214D02*
X1250674D01*
X1248896Y1547960D02*
X1250420D01*
X1248642Y1547706D02*
X1250166D01*
X1248388Y1547452D02*
X1249912D01*
X1248134Y1547198D02*
X1249912D01*
X1247880Y1546690D02*
X1249404D01*
X1240514Y1543388D02*
X1249658D01*
X1243308Y1543134D02*
X1245340D01*
X1243054Y1542880D02*
X1244832D01*
X1242546Y1542626D02*
X1244578D01*
X1242038Y1542372D02*
X1244324D01*
X1241530Y1542118D02*
X1243816D01*
X1241022Y1541864D02*
X1243562D01*
X1240260Y1541610D02*
X1243054D01*
X1239752Y1541356D02*
X1242546D01*
X1238990Y1541102D02*
X1242038D01*
X1238228Y1540848D02*
X1241530D01*
X1237212Y1540594D02*
X1240768D01*
X1238736Y1538562D02*
X1239498D01*
X1249404Y1538308D02*
X1252452D01*
X1238482D02*
X1239752D01*
X1249150Y1538054D02*
X1252198D01*
X1238482D02*
X1239752D01*
X1236450D02*
X1237720D01*
X1248896Y1537800D02*
X1251944D01*
X1238482D02*
X1240006D01*
X1236450D02*
X1237720D01*
X1234164D02*
X1234672D01*
X1248388Y1537546D02*
X1251690D01*
X1238482D02*
X1240006D01*
X1236450D02*
X1237720D01*
X1248134Y1537292D02*
X1251182D01*
X1238482D02*
X1240006D01*
X1236450D02*
X1237974D01*
X1247626Y1537038D02*
X1250928D01*
X1238736D02*
X1240260D01*
X1236450D02*
X1237974D01*
X1247118Y1536784D02*
X1250674D01*
X1238736D02*
X1240260D01*
X1236450D02*
X1237974D01*
X1246864Y1536530D02*
X1250166D01*
X1238736D02*
X1240260D01*
X1236450D02*
X1237974D01*
X1246356Y1536276D02*
X1249912D01*
X1238736D02*
X1240260D01*
X1236450D02*
X1237974D01*
X1234164D02*
X1235688D01*
X1245848Y1536022D02*
X1249404D01*
X1238736D02*
X1240260D01*
X1236704D02*
X1238228D01*
X1232894D02*
X1235688D01*
X1245340Y1535768D02*
X1249150D01*
X1238736D02*
X1240260D01*
X1236704D02*
X1238228D01*
X1232640D02*
X1235688D01*
X1244832Y1535514D02*
X1248642D01*
X1236704D02*
X1240260D01*
X1232640D02*
X1235688D01*
X1244324Y1535260D02*
X1248388D01*
X1236958D02*
X1240260D01*
X1232640D02*
X1235688D01*
X1243816Y1535006D02*
X1247880D01*
X1236958D02*
X1240260D01*
X1232894D02*
X1235688D01*
X1243308Y1534752D02*
X1247372D01*
X1237212D02*
X1240006D01*
X1234164D02*
X1235688D01*
X1242546Y1534498D02*
X1247118D01*
X1237212D02*
X1239752D01*
X1234164D02*
X1235688D01*
X1242038Y1534244D02*
X1246610D01*
X1237720D02*
X1239244D01*
X1234418D02*
X1235688D01*
X1241276Y1533990D02*
X1246102D01*
X1234418D02*
X1235688D01*
X1240260Y1533736D02*
X1245594D01*
X1234418D02*
X1235434D01*
X1239498Y1533482D02*
X1244832D01*
X1238228Y1533228D02*
X1244324D01*
X1236958Y1532974D02*
X1243816D01*
X1235180Y1532720D02*
X1243054D01*
X1252960Y1582504D02*
X1255500D01*
X1253214Y1582250D02*
X1255754D01*
X1253468Y1581996D02*
X1256008D01*
X1253722Y1581742D02*
X1256262D01*
X1253976Y1581488D02*
X1256516D01*
X1254230Y1581234D02*
X1256516D01*
X1254230Y1580980D02*
X1256770D01*
X1254484Y1580726D02*
X1257024D01*
X1254738Y1580472D02*
X1257278D01*
X1254992Y1580218D02*
X1257278D01*
X1255246Y1579964D02*
X1257532D01*
X1255246Y1579710D02*
X1257786D01*
X1255500Y1579456D02*
X1258040D01*
X1255754Y1579202D02*
X1258040D01*
X1256008Y1578948D02*
X1258294D01*
X1256008Y1578694D02*
X1258294D01*
X1256262Y1578440D02*
X1258548D01*
X1256516Y1578186D02*
X1258802D01*
X1256516Y1577932D02*
X1258802D01*
X1256770Y1577678D02*
X1259056D01*
X1257024Y1577424D02*
X1259056D01*
X1257024Y1577170D02*
X1259310D01*
X1257278Y1576916D02*
X1259564D01*
X1257278Y1576662D02*
X1259564D01*
X1257532Y1576408D02*
X1259818D01*
X1257786Y1576154D02*
X1259818D01*
X1257786Y1575900D02*
X1260072D01*
X1258040Y1575646D02*
X1260072D01*
X1258040Y1575392D02*
X1260326D01*
X1258294Y1575138D02*
X1260326D01*
X1258294Y1574884D02*
X1260580D01*
X1258548Y1574630D02*
X1260580D01*
X1258548Y1574376D02*
X1260834D01*
X1258802Y1574122D02*
X1260834D01*
X1258802Y1573868D02*
X1260834D01*
X1258802Y1573614D02*
X1261088D01*
X1259056Y1573360D02*
X1261088D01*
X1259056Y1573106D02*
X1261342D01*
X1259310Y1572852D02*
X1261342D01*
X1259310Y1572598D02*
X1261342D01*
X1259564Y1572344D02*
X1261596D01*
X1259564Y1572090D02*
X1261596D01*
X1259564Y1571836D02*
X1261596D01*
X1259818Y1571582D02*
X1261850D01*
X1259818Y1571328D02*
X1261850D01*
X1259818Y1571074D02*
X1261850D01*
X1260072Y1570820D02*
X1261850D01*
X1260072Y1570566D02*
X1262104D01*
X1260072Y1570312D02*
X1262104D01*
X1260326Y1570058D02*
X1262104D01*
X1260326Y1569804D02*
X1262358D01*
X1260326Y1569550D02*
X1262358D01*
X1260326Y1569296D02*
X1262358D01*
X1260580Y1569042D02*
X1262358D01*
X1260580Y1568788D02*
X1262612D01*
X1260580Y1568534D02*
X1262612D01*
X1260580Y1568280D02*
X1262612D01*
X1260834Y1568026D02*
X1262612D01*
X1260834Y1567772D02*
X1262612D01*
X1260834Y1567518D02*
X1262866D01*
X1260834Y1567010D02*
X1262866D01*
X1261088Y1566756D02*
X1262866D01*
X1261088Y1566502D02*
X1262866D01*
X1261088Y1566248D02*
X1262866D01*
X1261088Y1565994D02*
X1263120D01*
X1261088Y1565740D02*
X1263120D01*
X1261088Y1565486D02*
X1263120D01*
X1261088Y1565232D02*
X1263120D01*
X1261342Y1564978D02*
X1263120D01*
X1261342Y1564724D02*
X1263120D01*
X1261342Y1564470D02*
X1263120D01*
X1253976D02*
X1254992D01*
X1261342Y1564216D02*
X1263120D01*
X1253976D02*
X1254992D01*
X1261342Y1563962D02*
X1263120D01*
X1253976D02*
X1254992D01*
X1261342Y1563708D02*
X1263120D01*
X1253976D02*
X1254992D01*
X1261342Y1563454D02*
X1263120D01*
X1253976D02*
X1254992D01*
X1261342Y1563200D02*
X1263120D01*
X1253976D02*
X1254992D01*
X1261342Y1562946D02*
X1263374D01*
X1253976D02*
X1254992D01*
X1261342Y1562692D02*
X1263374D01*
X1253976D02*
X1254992D01*
X1261342Y1562438D02*
X1263374D01*
X1261342Y1562184D02*
X1263374D01*
X1261342Y1561930D02*
X1263374D01*
X1261342Y1561676D02*
X1263374D01*
X1261342Y1561422D02*
X1263374D01*
X1261342Y1561168D02*
X1263120D01*
X1261342Y1560914D02*
X1263120D01*
X1261342Y1560660D02*
X1263120D01*
X1261342Y1560406D02*
X1263120D01*
X1253976D02*
X1254992D01*
X1261342Y1560152D02*
X1263120D01*
X1253976D02*
X1254992D01*
X1261342Y1559898D02*
X1263120D01*
X1253976D02*
X1254992D01*
X1261342Y1559644D02*
X1263120D01*
X1253722D02*
X1254992D01*
X1261342Y1559390D02*
X1263120D01*
X1253722D02*
X1254992D01*
X1261342Y1559136D02*
X1263120D01*
X1253722D02*
X1254992D01*
X1261342Y1558882D02*
X1263120D01*
X1253722D02*
X1254992D01*
X1261342Y1558628D02*
X1263120D01*
X1253722D02*
X1254992D01*
X1261088Y1558374D02*
X1263120D01*
X1253722D02*
X1254738D01*
X1261088Y1558120D02*
X1263120D01*
X1253468D02*
X1254738D01*
X1261088Y1557866D02*
X1262866D01*
X1253468D02*
X1254738D01*
X1261088Y1557612D02*
X1262866D01*
X1253468D02*
X1254738D01*
X1261088Y1557358D02*
X1262866D01*
X1253468D02*
X1254738D01*
X1261088Y1557104D02*
X1262866D01*
X1253468D02*
X1254738D01*
X1261088Y1556850D02*
X1262866D01*
X1253214D02*
X1254484D01*
X1260834Y1556596D02*
X1262866D01*
X1253214D02*
X1254484D01*
X1260834Y1556342D02*
X1262612D01*
X1253214D02*
X1254484D01*
X1260834Y1556088D02*
X1262612D01*
X1253214D02*
X1254484D01*
X1260834Y1555834D02*
X1262612D01*
X1252960D02*
X1254230D01*
X1260834Y1555580D02*
X1262612D01*
X1252960D02*
X1254230D01*
X1260580Y1555326D02*
X1262612D01*
X1252960D02*
X1254230D01*
X1260580Y1555072D02*
X1262358D01*
X1252960D02*
X1253976D01*
X1260580Y1554818D02*
X1262358D01*
X1260580Y1554564D02*
X1262358D01*
X1260326Y1554310D02*
X1262358D01*
X1260326Y1554056D02*
X1262104D01*
X1260326Y1553802D02*
X1262104D01*
X1260072Y1553548D02*
X1262104D01*
X1264898Y1553294D02*
X1265152D01*
X1260072D02*
X1262104D01*
X1264898Y1553040D02*
X1265660D01*
X1260072D02*
X1261850D01*
X1265152Y1552786D02*
X1265914D01*
X1259818D02*
X1261850D01*
X1265406Y1552532D02*
X1266168D01*
X1259818D02*
X1261850D01*
X1265660Y1552278D02*
X1266422D01*
X1259818D02*
X1261596D01*
X1265660Y1552024D02*
X1266676D01*
X1259564D02*
X1261596D01*
X1265914Y1551770D02*
X1266676D01*
X1259564D02*
X1261596D01*
X1266168Y1551516D02*
X1266930D01*
X1259564D02*
X1261342D01*
X1266168Y1551262D02*
X1266930D01*
X1259310D02*
X1261342D01*
X1266422Y1551008D02*
X1267184D01*
X1259310D02*
X1261342D01*
X1266422Y1550754D02*
X1267184D01*
X1259056D02*
X1261088D01*
X1266422Y1550500D02*
X1267184D01*
X1259056D02*
X1261088D01*
X1266422Y1550246D02*
X1267184D01*
X1258802D02*
X1261088D01*
X1266422Y1549992D02*
X1267184D01*
X1258802D02*
X1260834D01*
X1266422Y1549738D02*
X1267184D01*
X1258802D02*
X1260834D01*
X1266168Y1549484D02*
X1267184D01*
X1258548D02*
X1260580D01*
X1266168Y1549230D02*
X1267184D01*
X1258548D02*
X1260580D01*
X1265914Y1548976D02*
X1267184D01*
X1258294D02*
X1260580D01*
X1265660Y1548722D02*
X1266930D01*
X1258294D02*
X1260326D01*
X1265152Y1548468D02*
X1266930D01*
X1258040D02*
X1260326D01*
X1264898Y1548214D02*
X1266676D01*
X1257786D02*
X1260072D01*
X1264390Y1547960D02*
X1266422D01*
X1257786D02*
X1260072D01*
X1263628Y1547706D02*
X1266168D01*
X1257532D02*
X1259818D01*
X1263120Y1547452D02*
X1265914D01*
X1257532D02*
X1259818D01*
X1262104Y1547198D02*
X1265660D01*
X1257278D02*
X1259564D01*
X1259818Y1546690D02*
X1264644D01*
X1257024D02*
X1259310D01*
X1257024Y1546436D02*
X1264390D01*
X1255246Y1543896D02*
X1257532D01*
X1254992Y1543642D02*
X1257278D01*
X1254738Y1543388D02*
X1257278D01*
X1254738Y1543134D02*
X1257024D01*
X1254484Y1542880D02*
X1256770D01*
X1254230Y1542626D02*
X1256770D01*
X1253976Y1542372D02*
X1256516D01*
X1253722Y1542118D02*
X1256262D01*
X1253468Y1541864D02*
X1256008D01*
X1253214Y1541610D02*
X1255754D01*
X1252960Y1541356D02*
X1255500D01*
D20*
X1577000Y1378500D02*
X1571583D01*
X1568875Y1375792D01*
X1571583Y1373083D01*
X1577000D01*
X1572937D01*
Y1378500D01*
X1568875Y1370375D02*
X1577000D01*
Y1366312D01*
X1575646Y1364958D01*
X1570229D01*
X1568875Y1366312D01*
Y1370375D01*
Y1362249D02*
X1577000D01*
Y1358187D01*
X1575646Y1356832D01*
X1570229D01*
X1568875Y1358187D01*
Y1362249D01*
X1578354Y1354124D02*
Y1348707D01*
X1570229Y1340582D02*
X1568875Y1341936D01*
Y1344644D01*
X1570229Y1345999D01*
X1575646D01*
X1577000Y1344644D01*
Y1341936D01*
X1575646Y1340582D01*
X1572937D01*
Y1343290D01*
X1577000Y1337873D02*
X1568875D01*
Y1333810D01*
X1570229Y1332456D01*
X1572937D01*
X1574292Y1333810D01*
Y1337873D01*
X1568875Y1329748D02*
Y1327039D01*
Y1328394D01*
X1577000D01*
Y1329748D01*
Y1327039D01*
X1568875Y1318914D02*
Y1321622D01*
X1570229Y1322977D01*
X1575646D01*
X1577000Y1321622D01*
Y1318914D01*
X1575646Y1317560D01*
X1570229D01*
X1568875Y1318914D01*
X1414706Y1200465D02*
X1409289D01*
X1411997D01*
Y1192340D01*
X1406580Y1200465D02*
X1401163Y1192340D01*
Y1200465D02*
X1406580Y1192340D01*
X1398455Y1196402D02*
X1393038D01*
X1395747Y1199111D02*
Y1193694D01*
X1414706Y1226125D02*
X1409289D01*
X1411997D01*
Y1218000D01*
X1406580Y1226125D02*
X1401163Y1218000D01*
Y1226125D02*
X1406580Y1218000D01*
X1398455Y1222063D02*
X1393038D01*
X1414706Y1244250D02*
Y1252375D01*
X1410643D01*
X1409289Y1251021D01*
Y1248313D01*
X1410643Y1246958D01*
X1414706D01*
X1411997D02*
X1409289Y1244250D01*
X1406580Y1252375D02*
X1401163Y1244250D01*
Y1252375D02*
X1406580Y1244250D01*
X1398455Y1248313D02*
X1393038D01*
X702333Y1598375D02*
X707750D01*
Y1594313D01*
X705042D01*
X707750D01*
Y1590250D01*
X699625Y1598375D02*
Y1590250D01*
X695562D01*
X694208Y1591604D01*
Y1597021D01*
X695562Y1598375D01*
X699625D01*
X691499Y1588896D02*
X686082D01*
X683374Y1598375D02*
X677957D01*
X680665D01*
Y1590250D01*
X675248Y1598375D02*
Y1590250D01*
X669832D01*
X1320833Y1628875D02*
X1326250D01*
Y1624813D01*
X1323542D01*
X1326250D01*
Y1620750D01*
X1318125Y1628875D02*
Y1620750D01*
X1314062D01*
X1312708Y1622104D01*
Y1627521D01*
X1314062Y1628875D01*
X1318125D01*
X1309999Y1619396D02*
X1304582D01*
X1301874Y1628875D02*
X1296457D01*
X1299165D01*
Y1620750D01*
X1293748D02*
Y1628875D01*
X1289686D01*
X1288332Y1627521D01*
Y1624813D01*
X1289686Y1623458D01*
X1293748D01*
X1291040D02*
X1288332Y1620750D01*
X1501083Y903875D02*
X1506500D01*
Y899813D01*
X1503792D01*
X1506500D01*
Y895750D01*
X1498375Y903875D02*
Y895750D01*
X1494312D01*
X1492958Y897104D01*
Y902521D01*
X1494312Y903875D01*
X1498375D01*
X1490249Y894396D02*
X1484832D01*
X1482124Y903875D02*
Y895750D01*
X1478061D01*
X1476707Y897104D01*
Y898458D01*
X1478061Y899813D01*
X1482124D01*
X1478061D01*
X1476707Y901167D01*
Y902521D01*
X1478061Y903875D01*
X1482124D01*
X1473999Y895750D02*
Y903875D01*
X1469936D01*
X1468582Y902521D01*
Y899813D01*
X1469936Y898458D01*
X1473999D01*
X1471290D02*
X1468582Y895750D01*
X861289Y1208771D02*
X862643Y1210125D01*
X865352D01*
X866706Y1208771D01*
Y1203354D01*
X865352Y1202000D01*
X862643D01*
X861289Y1203354D01*
Y1206063D01*
X863997D01*
X858580Y1202000D02*
Y1210125D01*
X853164Y1202000D01*
Y1210125D01*
X850455D02*
Y1202000D01*
X846392D01*
X845038Y1203354D01*
Y1208771D01*
X846392Y1210125D01*
X850455D01*
X722539Y1128521D02*
X723893Y1129875D01*
X726602D01*
X727956Y1128521D01*
Y1123104D01*
X726602Y1121750D01*
X723893D01*
X722539Y1123104D01*
Y1125813D01*
X725247D01*
X719830Y1121750D02*
Y1129875D01*
X714414Y1121750D01*
Y1129875D01*
X711705D02*
Y1121750D01*
X707642D01*
X706288Y1123104D01*
Y1128521D01*
X707642Y1129875D01*
X711705D01*
X1281077Y998021D02*
X1282431Y999375D01*
X1285140D01*
X1286494Y998021D01*
Y992604D01*
X1285140Y991250D01*
X1282431D01*
X1281077Y992604D01*
Y995313D01*
X1283786D01*
X1278369Y991250D02*
Y999375D01*
X1272952Y991250D01*
Y999375D01*
X1270243D02*
Y991250D01*
X1266181D01*
X1264827Y992604D01*
Y998021D01*
X1266181Y999375D01*
X1270243D01*
X1281077Y1174521D02*
X1282431Y1175875D01*
X1285140D01*
X1286494Y1174521D01*
Y1169104D01*
X1285140Y1167750D01*
X1282431D01*
X1281077Y1169104D01*
Y1171813D01*
X1283786D01*
X1278369Y1167750D02*
Y1175875D01*
X1272952Y1167750D01*
Y1175875D01*
X1270243D02*
Y1167750D01*
X1266181D01*
X1264827Y1169104D01*
Y1174521D01*
X1266181Y1175875D01*
X1270243D01*
X1400289Y1482021D02*
X1401643Y1483375D01*
X1404352D01*
X1405706Y1482021D01*
Y1476604D01*
X1404352Y1475250D01*
X1401643D01*
X1400289Y1476604D01*
Y1479313D01*
X1402997D01*
X1397580Y1475250D02*
Y1483375D01*
X1392164Y1475250D01*
Y1483375D01*
X1389455D02*
Y1475250D01*
X1385392D01*
X1384038Y1476604D01*
Y1482021D01*
X1385392Y1483375D01*
X1389455D01*
X831970Y1553021D02*
X833325Y1554375D01*
X836033D01*
X837387Y1553021D01*
Y1547604D01*
X836033Y1546250D01*
X833325D01*
X831970Y1547604D01*
Y1550313D01*
X834679D01*
X829262Y1546250D02*
Y1554375D01*
X823845Y1546250D01*
Y1554375D01*
X821136D02*
Y1546250D01*
X817074D01*
X815720Y1547604D01*
Y1553021D01*
X817074Y1554375D01*
X821136D01*
X994333Y1690521D02*
X995687Y1691875D01*
X998396D01*
X999750Y1690521D01*
Y1685104D01*
X998396Y1683750D01*
X995687D01*
X994333Y1685104D01*
Y1687813D01*
X997041D01*
X991625Y1683750D02*
Y1691875D01*
X986208Y1683750D01*
Y1691875D01*
X983499D02*
Y1683750D01*
X979436D01*
X978082Y1685104D01*
Y1690521D01*
X979436Y1691875D01*
X983499D01*
X893577Y1627985D02*
X888160D01*
X890869Y1630694D02*
Y1625277D01*
X885452Y1632048D02*
X880035Y1623923D01*
Y1632048D02*
X885452Y1623923D01*
X855577Y1665485D02*
X850160D01*
X852869Y1668194D02*
Y1662777D01*
X847452Y1669548D02*
Y1668194D01*
X844743Y1665485D01*
X842035Y1668194D01*
Y1669548D01*
X844743Y1665485D02*
Y1661423D01*
X839577Y1616236D02*
X834160D01*
X831452Y1620298D02*
X826035D01*
Y1618944D01*
X831452Y1613527D01*
Y1612173D01*
X826035D01*
X1399000Y1679375D02*
Y1671250D01*
X1394937D01*
X1393583Y1672604D01*
Y1678021D01*
X1394937Y1679375D01*
X1399000D01*
X1390875Y1669896D02*
X1385458D01*
X1382749Y1679375D02*
Y1671250D01*
X1378687D01*
X1377332Y1672604D01*
Y1673958D01*
X1378687Y1675313D01*
X1382749D01*
X1378687D01*
X1377332Y1676667D01*
Y1678021D01*
X1378687Y1679375D01*
X1382749D01*
X1370561D02*
X1373270D01*
X1374624Y1678021D01*
Y1672604D01*
X1373270Y1671250D01*
X1370561D01*
X1369207Y1672604D01*
Y1678021D01*
X1370561Y1679375D01*
X1366499Y1671250D02*
Y1676667D01*
X1363790Y1679375D01*
X1361082Y1676667D01*
Y1671250D01*
Y1675313D01*
X1366499D01*
X1358373Y1671250D02*
Y1679375D01*
X1354310D01*
X1352956Y1678021D01*
Y1675313D01*
X1354310Y1673958D01*
X1358373D01*
X1355665D02*
X1352956Y1671250D01*
X1350248Y1679375D02*
Y1671250D01*
X1346185D01*
X1344831Y1672604D01*
Y1678021D01*
X1346185Y1679375D01*
X1350248D01*
X1342122Y1669896D02*
X1336705D01*
X1328580Y1678021D02*
X1329934Y1679375D01*
X1332643D01*
X1333997Y1678021D01*
Y1672604D01*
X1332643Y1671250D01*
X1329934D01*
X1328580Y1672604D01*
Y1675313D01*
X1331288D01*
X1325871Y1671250D02*
Y1679375D01*
X1320455Y1671250D01*
Y1679375D01*
X1317746D02*
Y1671250D01*
X1313683D01*
X1312329Y1672604D01*
Y1678021D01*
X1313683Y1679375D01*
X1317746D01*
X1521000Y1625500D02*
Y1633625D01*
X1516937D01*
X1515583Y1632271D01*
Y1629563D01*
X1516937Y1628208D01*
X1521000D01*
X1512875Y1625500D02*
Y1633625D01*
X1508812D01*
X1507458Y1632271D01*
Y1629563D01*
X1508812Y1628208D01*
X1512875D01*
X1510166D02*
X1507458Y1625500D01*
X1500687Y1633625D02*
X1503395D01*
X1504749Y1632271D01*
Y1626854D01*
X1503395Y1625500D01*
X1500687D01*
X1499332Y1626854D01*
Y1632271D01*
X1500687Y1633625D01*
X1496624D02*
X1491207D01*
X1493915D01*
Y1625500D01*
X1483082Y1633625D02*
X1488499D01*
Y1625500D01*
X1483082D01*
X1488499Y1629563D02*
X1485790D01*
X1474956Y1632271D02*
X1476310Y1633625D01*
X1479019D01*
X1480373Y1632271D01*
Y1626854D01*
X1479019Y1625500D01*
X1476310D01*
X1474956Y1626854D01*
X1472248Y1633625D02*
X1466831D01*
X1469539D01*
Y1625500D01*
X1464122Y1633625D02*
X1461414D01*
X1462768D01*
Y1625500D01*
X1464122D01*
X1461414D01*
X1453289Y1633625D02*
X1455997D01*
X1457351Y1632271D01*
Y1626854D01*
X1455997Y1625500D01*
X1453289D01*
X1451934Y1626854D01*
Y1632271D01*
X1453289Y1633625D01*
X1449226Y1625500D02*
Y1633625D01*
X1443809Y1625500D01*
Y1633625D01*
X1432975Y1625500D02*
Y1633625D01*
X1427558Y1625500D01*
Y1633625D01*
X1424850D02*
Y1626854D01*
X1423495Y1625500D01*
X1420787D01*
X1419433Y1626854D01*
Y1633625D01*
X1416724D02*
X1411307D01*
X1414016D01*
Y1625500D01*
X1515583Y1645021D02*
X1516937Y1646375D01*
X1519646D01*
X1521000Y1645021D01*
Y1643667D01*
X1519646Y1642313D01*
X1516937D01*
X1515583Y1640958D01*
Y1639604D01*
X1516937Y1638250D01*
X1519646D01*
X1521000Y1639604D01*
X1512875Y1638250D02*
Y1643667D01*
X1510166Y1646375D01*
X1507458Y1643667D01*
Y1638250D01*
Y1642313D01*
X1512875D01*
X1504749Y1646375D02*
X1499332D01*
X1502041D01*
Y1638250D01*
X1491207Y1646375D02*
X1496624D01*
Y1638250D01*
X1491207D01*
X1496624Y1642313D02*
X1493915D01*
X1488499Y1646375D02*
Y1638250D01*
X1483082D01*
X1480373Y1646375D02*
Y1638250D01*
X1474956D01*
X1472248Y1646375D02*
X1469539D01*
X1470894D01*
Y1638250D01*
X1472248D01*
X1469539D01*
X1465477Y1646375D02*
X1460060D01*
X1462768D01*
Y1638250D01*
X1451934Y1646375D02*
X1457351D01*
Y1638250D01*
X1451934D01*
X1457351Y1642313D02*
X1454643D01*
X1435683Y1646375D02*
X1441100D01*
Y1638250D01*
X1435683D01*
X1441100Y1642313D02*
X1438392D01*
X1427558Y1645021D02*
X1428912Y1646375D01*
X1431621D01*
X1432975Y1645021D01*
Y1643667D01*
X1431621Y1642313D01*
X1428912D01*
X1427558Y1640958D01*
Y1639604D01*
X1428912Y1638250D01*
X1431621D01*
X1432975Y1639604D01*
X1424850Y1646375D02*
Y1638250D01*
X1420787D01*
X1419433Y1639604D01*
Y1645021D01*
X1420787Y1646375D01*
X1424850D01*
X1458500Y1411750D02*
X1453083D01*
X1450375Y1409042D01*
X1453083Y1406333D01*
X1458500D01*
X1454437D01*
Y1411750D01*
X1450375Y1403625D02*
X1458500D01*
Y1399562D01*
X1457146Y1398208D01*
X1451729D01*
X1450375Y1399562D01*
Y1403625D01*
Y1395499D02*
X1458500D01*
Y1391437D01*
X1457146Y1390082D01*
X1451729D01*
X1450375Y1391437D01*
Y1395499D01*
X1459854Y1387374D02*
Y1381957D01*
X1450375Y1379249D02*
X1457146D01*
X1458500Y1377894D01*
Y1375186D01*
X1457146Y1373832D01*
X1450375D01*
X1458500Y1371123D02*
X1453083D01*
X1450375Y1368415D01*
X1453083Y1365706D01*
X1458500D01*
X1454437D01*
Y1371123D01*
X1458500Y1362998D02*
X1450375D01*
Y1358935D01*
X1451729Y1357581D01*
X1454437D01*
X1455792Y1358935D01*
Y1362998D01*
Y1360289D02*
X1458500Y1357581D01*
X1450375Y1354872D02*
Y1349455D01*
Y1352164D01*
X1458500D01*
X1451729Y1346747D02*
X1450375Y1345393D01*
Y1342684D01*
X1451729Y1341330D01*
X1457146D01*
X1458500Y1342684D01*
Y1345393D01*
X1457146Y1346747D01*
X1451729D01*
X1522250Y1598750D02*
Y1604167D01*
X1519541Y1606875D01*
X1516833Y1604167D01*
Y1598750D01*
Y1602813D01*
X1522250D01*
X1514125Y1606875D02*
Y1598750D01*
X1510062D01*
X1508708Y1600104D01*
Y1605521D01*
X1510062Y1606875D01*
X1514125D01*
X1505999D02*
Y1598750D01*
X1501936D01*
X1500582Y1600104D01*
Y1605521D01*
X1501936Y1606875D01*
X1505999D01*
X1497874Y1597396D02*
X1492457D01*
X1489749Y1606875D02*
X1487040D01*
X1488394D01*
Y1598750D01*
X1489749D01*
X1487040D01*
X1477560D02*
X1482977D01*
X1477560Y1604167D01*
Y1605521D01*
X1478915Y1606875D01*
X1481623D01*
X1482977Y1605521D01*
X1469435D02*
X1470789Y1606875D01*
X1473498D01*
X1474852Y1605521D01*
Y1600104D01*
X1473498Y1598750D01*
X1470789D01*
X1469435Y1600104D01*
X1466727Y1605521D02*
X1465372Y1606875D01*
X1462664D01*
X1461310Y1605521D01*
Y1600104D01*
X1462664Y1598750D01*
X1465372D01*
X1466727Y1600104D01*
Y1605521D01*
X1452250Y1320000D02*
Y1325417D01*
X1449542Y1328125D01*
X1446833Y1325417D01*
Y1320000D01*
Y1324063D01*
X1452250D01*
X1444125Y1328125D02*
Y1320000D01*
X1440062D01*
X1438708Y1321354D01*
Y1326771D01*
X1440062Y1328125D01*
X1444125D01*
X1435999D02*
Y1320000D01*
X1431937D01*
X1430582Y1321354D01*
Y1326771D01*
X1431937Y1328125D01*
X1435999D01*
X1427874Y1318646D02*
X1422457D01*
X1419749Y1328125D02*
X1417040D01*
X1418394D01*
Y1320000D01*
X1419749D01*
X1417040D01*
X1407560D02*
X1412977D01*
X1407560Y1325417D01*
Y1326771D01*
X1408915Y1328125D01*
X1411623D01*
X1412977Y1326771D01*
X1399435D02*
X1400789Y1328125D01*
X1403498D01*
X1404852Y1326771D01*
Y1321354D01*
X1403498Y1320000D01*
X1400789D01*
X1399435Y1321354D01*
X1396727Y1320000D02*
X1394018D01*
X1395372D01*
Y1328125D01*
X1396727Y1326771D01*
X1453375Y1284250D02*
X1460146D01*
X1461500Y1282896D01*
Y1280187D01*
X1460146Y1278833D01*
X1453375D01*
X1461500Y1276125D02*
X1456083D01*
X1453375Y1273416D01*
X1456083Y1270708D01*
X1461500D01*
X1457437D01*
Y1276125D01*
X1461500Y1267999D02*
X1453375D01*
Y1263937D01*
X1454729Y1262582D01*
X1457437D01*
X1458792Y1263937D01*
Y1267999D01*
Y1265291D02*
X1461500Y1262582D01*
X1453375Y1259874D02*
Y1254457D01*
Y1257165D01*
X1461500D01*
Y1251749D02*
Y1249040D01*
Y1250394D01*
X1453375D01*
X1454729Y1251749D01*
X1577500Y1107750D02*
X1572083D01*
X1569375Y1105042D01*
X1572083Y1102333D01*
X1577500D01*
X1573437D01*
Y1107750D01*
X1569375Y1099625D02*
X1577500D01*
Y1095562D01*
X1576146Y1094208D01*
X1570729D01*
X1569375Y1095562D01*
Y1099625D01*
Y1091499D02*
X1577500D01*
Y1087437D01*
X1576146Y1086082D01*
X1570729D01*
X1569375Y1087437D01*
Y1091499D01*
X1578854Y1083374D02*
Y1077957D01*
X1570729Y1069832D02*
X1569375Y1071186D01*
Y1073894D01*
X1570729Y1075248D01*
X1572083D01*
X1573437Y1073894D01*
Y1071186D01*
X1574792Y1069832D01*
X1576146D01*
X1577500Y1071186D01*
Y1073894D01*
X1576146Y1075248D01*
X1577500Y1067123D02*
X1569375D01*
Y1063060D01*
X1570729Y1061706D01*
X1573437D01*
X1574792Y1063060D01*
Y1067123D01*
X1569375Y1058998D02*
Y1056289D01*
Y1057644D01*
X1577500D01*
Y1058998D01*
Y1056289D01*
X1460250Y1040750D02*
Y1048875D01*
X1456187D01*
X1454833Y1047521D01*
Y1044813D01*
X1456187Y1043458D01*
X1460250D01*
X1452125Y1040750D02*
Y1046167D01*
X1449416Y1048875D01*
X1446708Y1046167D01*
Y1040750D01*
Y1044813D01*
X1452125D01*
X1443999Y1048875D02*
Y1047521D01*
X1441291Y1044813D01*
X1438582Y1047521D01*
Y1048875D01*
X1441291Y1044813D02*
Y1040750D01*
X1435874Y1048875D02*
Y1040750D01*
X1430457D01*
X1423686Y1048875D02*
X1426394D01*
X1427749Y1047521D01*
Y1042104D01*
X1426394Y1040750D01*
X1423686D01*
X1422332Y1042104D01*
Y1047521D01*
X1423686Y1048875D01*
X1419623Y1040750D02*
Y1046167D01*
X1416915Y1048875D01*
X1414206Y1046167D01*
Y1040750D01*
Y1044813D01*
X1419623D01*
X1411498Y1048875D02*
Y1040750D01*
X1407435D01*
X1406081Y1042104D01*
Y1047521D01*
X1407435Y1048875D01*
X1411498D01*
X1403372Y1039396D02*
X1397955D01*
X1395247Y1048875D02*
X1392538D01*
X1393893D01*
Y1040750D01*
X1395247D01*
X1392538D01*
X1383059D02*
X1388476D01*
X1383059Y1046167D01*
Y1047521D01*
X1384413Y1048875D01*
X1387122D01*
X1388476Y1047521D01*
X1374933D02*
X1376288Y1048875D01*
X1378996D01*
X1380350Y1047521D01*
Y1042104D01*
X1378996Y1040750D01*
X1376288D01*
X1374933Y1042104D01*
X1531833Y929125D02*
X1537250D01*
Y921000D01*
X1531833D01*
X1537250Y925063D02*
X1534542D01*
X1529125Y921000D02*
Y929125D01*
X1525062D01*
X1523708Y927771D01*
Y925063D01*
X1525062Y923708D01*
X1529125D01*
X1515582Y927771D02*
X1516937Y929125D01*
X1519645D01*
X1520999Y927771D01*
Y926417D01*
X1519645Y925063D01*
X1516937D01*
X1515582Y923708D01*
Y922354D01*
X1516937Y921000D01*
X1519645D01*
X1520999Y922354D01*
X1512874Y919646D02*
X1507457D01*
X1504749Y929125D02*
X1502040D01*
X1503394D01*
Y921000D01*
X1504749D01*
X1502040D01*
X1492560D02*
X1497977D01*
X1492560Y926417D01*
Y927771D01*
X1493915Y929125D01*
X1496623D01*
X1497977Y927771D01*
X1484435D02*
X1485789Y929125D01*
X1488498D01*
X1489852Y927771D01*
Y922354D01*
X1488498Y921000D01*
X1485789D01*
X1484435Y922354D01*
X1414706Y1270250D02*
Y1278375D01*
X1410643D01*
X1409289Y1277021D01*
Y1274313D01*
X1410643Y1272959D01*
X1414706D01*
X1411997D02*
X1409289Y1270250D01*
X1406580Y1278375D02*
X1401163Y1270250D01*
Y1278375D02*
X1406580Y1270250D01*
X1398455Y1274313D02*
X1393038D01*
X1395747Y1277021D02*
Y1271604D01*
X1458500Y1505500D02*
X1450375D01*
X1453083Y1502792D01*
X1450375Y1500083D01*
X1458500D01*
X1459854Y1497375D02*
Y1491958D01*
X1458500Y1489249D02*
X1450375D01*
Y1485187D01*
X1451729Y1483832D01*
X1454437D01*
X1455792Y1485187D01*
Y1489249D01*
Y1486541D02*
X1458500Y1483832D01*
Y1481124D02*
X1453083D01*
X1450375Y1478415D01*
X1453083Y1475707D01*
X1458500D01*
X1454437D01*
Y1481124D01*
X1450375Y1472999D02*
X1458500D01*
Y1468936D01*
X1457146Y1467582D01*
X1451729D01*
X1450375Y1468936D01*
Y1472999D01*
Y1464873D02*
Y1462165D01*
Y1463519D01*
X1458500D01*
Y1464873D01*
Y1462165D01*
X1450375Y1454039D02*
Y1456748D01*
X1451729Y1458102D01*
X1457146D01*
X1458500Y1456748D01*
Y1454039D01*
X1457146Y1452685D01*
X1451729D01*
X1450375Y1454039D01*
X1568875Y1464250D02*
Y1458833D01*
Y1461542D01*
X1577000D01*
X1568875Y1456125D02*
Y1450708D01*
Y1453416D01*
X1577000D01*
X1570229Y1442582D02*
X1568875Y1443937D01*
Y1446645D01*
X1570229Y1447999D01*
X1575646D01*
X1577000Y1446645D01*
Y1443937D01*
X1575646Y1442582D01*
X1578354Y1439874D02*
Y1434457D01*
X1570229Y1426332D02*
X1568875Y1427686D01*
Y1430394D01*
X1570229Y1431749D01*
X1571583D01*
X1572937Y1430394D01*
Y1427686D01*
X1574292Y1426332D01*
X1575646D01*
X1577000Y1427686D01*
Y1430394D01*
X1575646Y1431749D01*
X1577000Y1423623D02*
X1568875D01*
Y1419560D01*
X1570229Y1418206D01*
X1572937D01*
X1574292Y1419560D01*
Y1423623D01*
X1568875Y1415498D02*
Y1412789D01*
Y1414144D01*
X1577000D01*
Y1415498D01*
Y1412789D01*
X1440000Y1341750D02*
Y1349875D01*
X1435937D01*
X1434583Y1348521D01*
Y1345813D01*
X1435937Y1344458D01*
X1440000D01*
X1431875Y1341750D02*
Y1347167D01*
X1429166Y1349875D01*
X1426458Y1347167D01*
Y1341750D01*
Y1345813D01*
X1431875D01*
X1423749Y1349875D02*
Y1348521D01*
X1421041Y1345813D01*
X1418332Y1348521D01*
Y1349875D01*
X1421041Y1345813D02*
Y1341750D01*
X1415624Y1349875D02*
Y1341750D01*
X1410207D01*
X1403436Y1349875D02*
X1406144D01*
X1407498Y1348521D01*
Y1343104D01*
X1406144Y1341750D01*
X1403436D01*
X1402081Y1343104D01*
Y1348521D01*
X1403436Y1349875D01*
X1399373Y1341750D02*
Y1347167D01*
X1396665Y1349875D01*
X1393956Y1347167D01*
Y1341750D01*
Y1345813D01*
X1399373D01*
X1391248Y1349875D02*
Y1341750D01*
X1387185D01*
X1385831Y1343104D01*
Y1348521D01*
X1387185Y1349875D01*
X1391248D01*
X1383122Y1340396D02*
X1377705D01*
X1369580Y1349875D02*
X1374997D01*
Y1341750D01*
X1369580D01*
X1374997Y1345813D02*
X1372289D01*
X1366871Y1341750D02*
Y1349875D01*
X1361455Y1341750D01*
Y1349875D01*
X1577250Y1173250D02*
X1571833D01*
X1569125Y1170542D01*
X1571833Y1167833D01*
X1577250D01*
X1573187D01*
Y1173250D01*
X1577250Y1165125D02*
X1569125D01*
X1577250Y1159708D01*
X1569125D01*
Y1156999D02*
Y1151582D01*
Y1154291D01*
X1577250D01*
X1578604Y1148874D02*
Y1143457D01*
X1569125Y1140749D02*
X1574542D01*
X1577250Y1138040D01*
X1574542Y1135332D01*
X1569125D01*
X1570479Y1127206D02*
X1569125Y1128560D01*
Y1131269D01*
X1570479Y1132623D01*
X1575896D01*
X1577250Y1131269D01*
Y1128560D01*
X1575896Y1127206D01*
X1570479Y1119081D02*
X1569125Y1120435D01*
Y1123143D01*
X1570479Y1124498D01*
X1575896D01*
X1577250Y1123143D01*
Y1120435D01*
X1575896Y1119081D01*
X1570229Y1214083D02*
X1568875Y1215437D01*
Y1218146D01*
X1570229Y1219500D01*
X1575646D01*
X1577000Y1218146D01*
Y1215437D01*
X1575646Y1214083D01*
X1572937D01*
Y1216792D01*
X1577000Y1211375D02*
X1568875D01*
X1577000Y1205958D01*
X1568875D01*
Y1203249D02*
X1577000D01*
Y1199187D01*
X1575646Y1197832D01*
X1570229D01*
X1568875Y1199187D01*
Y1203249D01*
X1569125Y1040000D02*
X1577250D01*
Y1035937D01*
X1575896Y1034583D01*
X1574542D01*
X1573187Y1035937D01*
Y1040000D01*
Y1035937D01*
X1571833Y1034583D01*
X1570479D01*
X1569125Y1035937D01*
Y1040000D01*
X1577250Y1031875D02*
X1571833D01*
X1569125Y1029166D01*
X1571833Y1026458D01*
X1577250D01*
X1573187D01*
Y1031875D01*
X1569125Y1023749D02*
Y1018332D01*
Y1021041D01*
X1577250D01*
X1578604Y1015624D02*
Y1010207D01*
X1569125Y1007498D02*
X1574542D01*
X1577250Y1004790D01*
X1574542Y1002082D01*
X1569125D01*
X1570479Y993956D02*
X1569125Y995310D01*
Y998019D01*
X1570479Y999373D01*
X1575896D01*
X1577250Y998019D01*
Y995310D01*
X1575896Y993956D01*
X1570479Y985831D02*
X1569125Y987185D01*
Y989893D01*
X1570479Y991248D01*
X1575896D01*
X1577250Y989893D01*
Y987185D01*
X1575896Y985831D01*
X1451125Y1025187D02*
Y1027896D01*
X1452479Y1029250D01*
X1457896D01*
X1459250Y1027896D01*
Y1025187D01*
X1457896Y1023833D01*
X1452479D01*
X1451125Y1025187D01*
Y1021125D02*
X1459250D01*
Y1017062D01*
X1457896Y1015708D01*
X1456541D01*
X1455187Y1017062D01*
Y1021125D01*
Y1017062D01*
X1453833Y1015708D01*
X1452479D01*
X1451125Y1017062D01*
Y1021125D01*
Y1012999D02*
X1459250D01*
Y1008937D01*
X1457896Y1007582D01*
X1452479D01*
X1451125Y1008937D01*
Y1012999D01*
Y1004874D02*
X1459250D01*
X1455187D01*
Y999457D01*
X1451125D01*
X1459250D01*
X1460604Y996749D02*
Y991332D01*
X1451125Y988623D02*
X1456541D01*
X1459250Y985915D01*
X1456541Y983206D01*
X1451125D01*
X1452479Y975081D02*
X1451125Y976435D01*
Y979144D01*
X1452479Y980498D01*
X1457896D01*
X1459250Y979144D01*
Y976435D01*
X1457896Y975081D01*
X1452479Y966955D02*
X1451125Y968310D01*
Y971018D01*
X1452479Y972372D01*
X1457896D01*
X1459250Y971018D01*
Y968310D01*
X1457896Y966955D01*
X1238875Y898937D02*
Y901646D01*
X1240229Y903000D01*
X1245646D01*
X1247000Y901646D01*
Y898937D01*
X1245646Y897583D01*
X1240229D01*
X1238875Y898937D01*
X1247000Y894875D02*
X1238875D01*
X1247000Y889458D01*
X1238875D01*
X1242937Y886749D02*
Y881332D01*
X1238875Y873207D02*
Y875915D01*
Y874561D01*
X1245646D01*
X1247000Y875915D01*
Y877270D01*
X1245646Y878624D01*
X1238875Y870499D02*
Y865082D01*
Y867790D01*
X1247000D01*
Y862373D02*
X1241583D01*
X1238875Y859665D01*
X1241583Y856956D01*
X1247000D01*
X1242937D01*
Y862373D01*
X1240229Y848831D02*
X1238875Y850185D01*
Y852894D01*
X1240229Y854248D01*
X1245646D01*
X1247000Y852894D01*
Y850185D01*
X1245646Y848831D01*
X1242937D01*
Y851539D01*
X1224125Y908937D02*
Y911646D01*
X1225479Y913000D01*
X1230896D01*
X1232250Y911646D01*
Y908937D01*
X1230896Y907583D01*
X1225479D01*
X1224125Y908937D01*
Y899458D02*
Y904875D01*
X1228187D01*
Y902166D01*
Y904875D01*
X1232250D01*
X1224125Y891332D02*
Y896749D01*
X1228187D01*
Y894041D01*
Y896749D01*
X1232250D01*
X1228187Y888624D02*
Y883207D01*
X1232250Y880499D02*
X1224125D01*
Y876436D01*
X1225479Y875082D01*
X1228187D01*
X1229542Y876436D01*
Y880499D01*
X1225479Y866956D02*
X1224125Y868310D01*
Y871019D01*
X1225479Y872373D01*
X1230896D01*
X1232250Y871019D01*
Y868310D01*
X1230896Y866956D01*
X1232250Y864248D02*
Y861539D01*
Y862894D01*
X1224125D01*
X1225479Y864248D01*
Y857477D02*
X1224125Y856122D01*
Y853414D01*
X1225479Y852060D01*
X1230896D01*
X1232250Y853414D01*
Y856122D01*
X1230896Y857477D01*
X1225479D01*
X1232250Y845288D02*
X1224125D01*
X1228187Y849351D01*
Y843934D01*
X1174125Y909833D02*
Y912542D01*
Y911187D01*
X1180896D01*
X1182250Y912542D01*
Y913896D01*
X1180896Y915250D01*
X1183604Y907125D02*
Y901708D01*
X1175479Y893582D02*
X1174125Y894937D01*
Y897645D01*
X1175479Y898999D01*
X1176833D01*
X1178187Y897645D01*
Y894937D01*
X1179541Y893582D01*
X1180896D01*
X1182250Y894937D01*
Y897645D01*
X1180896Y898999D01*
X1174125Y890874D02*
X1180896D01*
X1182250Y889520D01*
Y886811D01*
X1180896Y885457D01*
X1174125D01*
X1182250Y882748D02*
X1174125D01*
Y878686D01*
X1175479Y877332D01*
X1178187D01*
X1179541Y878686D01*
Y882748D01*
X1182250Y874623D02*
X1174125D01*
Y870560D01*
X1175479Y869206D01*
X1178187D01*
X1179541Y870560D01*
Y874623D01*
X1174125Y866498D02*
X1182250D01*
Y861081D01*
X1174125Y858372D02*
X1175479D01*
X1178187Y855664D01*
X1175479Y852955D01*
X1174125D01*
X1178187Y855664D02*
X1182250D01*
X982083Y871875D02*
X984792D01*
X983437D01*
Y865104D01*
X984792Y863750D01*
X986146D01*
X987500Y865104D01*
X979375Y871875D02*
X973958D01*
X976666D01*
Y863750D01*
X971249D02*
Y869167D01*
X968541Y871875D01*
X965832Y869167D01*
Y863750D01*
Y867813D01*
X971249D01*
X957707Y870521D02*
X959061Y871875D01*
X961770D01*
X963124Y870521D01*
Y865104D01*
X961770Y863750D01*
X959061D01*
X957707Y865104D01*
Y867813D01*
X960415D01*
X954998Y862396D02*
X949582D01*
X946873Y871875D02*
Y866459D01*
X944165Y863750D01*
X941456Y866459D01*
Y871875D01*
X933331Y870521D02*
X934685Y871875D01*
X937393D01*
X938748Y870521D01*
Y865104D01*
X937393Y863750D01*
X934685D01*
X933331Y865104D01*
X925205Y870521D02*
X926560Y871875D01*
X929268D01*
X930622Y870521D01*
Y865104D01*
X929268Y863750D01*
X926560D01*
X925205Y865104D01*
X987500Y847375D02*
X982083D01*
X984792D01*
Y839250D01*
X979375Y847375D02*
Y839250D01*
X975312D01*
X973958Y840604D01*
Y846021D01*
X975312Y847375D01*
X979375D01*
X967187D02*
X969895D01*
X971249Y846021D01*
Y840604D01*
X969895Y839250D01*
X967187D01*
X965832Y840604D01*
Y846021D01*
X967187Y847375D01*
X963124Y837896D02*
X957707D01*
X954998Y847375D02*
X949582D01*
X952290D01*
Y839250D01*
X946873Y847375D02*
Y839250D01*
X942810D01*
X941456Y840604D01*
Y846021D01*
X942810Y847375D01*
X946873D01*
X938748D02*
X936039D01*
X937393D01*
Y839250D01*
X938748D01*
X936039D01*
X1084250Y831375D02*
X1078833D01*
X1081542D01*
Y823250D01*
X1070708Y830021D02*
X1072062Y831375D01*
X1074770D01*
X1076125Y830021D01*
Y824604D01*
X1074770Y823250D01*
X1072062D01*
X1070708Y824604D01*
X1067999Y831375D02*
Y823250D01*
Y825958D01*
X1062582Y831375D01*
X1066645Y827313D01*
X1062582Y823250D01*
X1113583Y830021D02*
X1114937Y831375D01*
X1117646D01*
X1119000Y830021D01*
Y824604D01*
X1117646Y823250D01*
X1114937D01*
X1113583Y824604D01*
Y827313D01*
X1116292D01*
X1110875Y823250D02*
Y831375D01*
X1105458Y823250D01*
Y831375D01*
X1102749D02*
Y823250D01*
X1098687D01*
X1097332Y824604D01*
Y830021D01*
X1098687Y831375D01*
X1102749D01*
X1465500Y1167500D02*
Y1172917D01*
X1462791Y1175625D01*
X1460083Y1172917D01*
Y1167500D01*
Y1171563D01*
X1465500D01*
X1457375Y1175625D02*
Y1167500D01*
X1453312D01*
X1451958Y1168854D01*
Y1174271D01*
X1453312Y1175625D01*
X1457375D01*
X1449249D02*
Y1167500D01*
X1445186D01*
X1443832Y1168854D01*
Y1174271D01*
X1445186Y1175625D01*
X1449249D01*
X1441124Y1166146D02*
X1435707D01*
X1427581Y1174271D02*
X1428936Y1175625D01*
X1431644D01*
X1432999Y1174271D01*
Y1172917D01*
X1431644Y1171563D01*
X1428936D01*
X1427581Y1170209D01*
Y1168854D01*
X1428936Y1167500D01*
X1431644D01*
X1432999Y1168854D01*
X1424873Y1167500D02*
Y1175625D01*
X1420810D01*
X1419456Y1174271D01*
Y1171563D01*
X1420810Y1170209D01*
X1424873D01*
X1416748Y1175625D02*
X1414039D01*
X1415394D01*
Y1167500D01*
X1416748D01*
X1414039D01*
X1440250Y1431544D02*
Y1436961D01*
X1437542Y1439669D01*
X1434833Y1436961D01*
Y1431544D01*
Y1435607D01*
X1440250D01*
X1432125Y1439669D02*
Y1431544D01*
X1428062D01*
X1426708Y1432898D01*
Y1438315D01*
X1428062Y1439669D01*
X1432125D01*
X1423999D02*
Y1431544D01*
X1419937D01*
X1418582Y1432898D01*
Y1438315D01*
X1419937Y1439669D01*
X1423999D01*
X1415874Y1430190D02*
X1410457D01*
X1407749Y1439669D02*
Y1432898D01*
X1406394Y1431544D01*
X1403686D01*
X1402332Y1432898D01*
Y1439669D01*
X1399623Y1431544D02*
Y1436961D01*
X1396915Y1439669D01*
X1394206Y1436961D01*
Y1431544D01*
Y1435607D01*
X1399623D01*
X1391498Y1431544D02*
Y1439669D01*
X1387435D01*
X1386081Y1438315D01*
Y1435607D01*
X1387435Y1434252D01*
X1391498D01*
X1388789D02*
X1386081Y1431544D01*
X1383372Y1439669D02*
X1377955D01*
X1380664D01*
Y1431544D01*
X1375247Y1438315D02*
X1373893Y1439669D01*
X1371184D01*
X1369830Y1438315D01*
Y1432898D01*
X1371184Y1431544D01*
X1373893D01*
X1375247Y1432898D01*
Y1438315D01*
X1410750Y1524000D02*
Y1529417D01*
X1408042Y1532125D01*
X1405333Y1529417D01*
Y1524000D01*
Y1528063D01*
X1410750D01*
X1402625Y1532125D02*
Y1524000D01*
X1398562D01*
X1397208Y1525354D01*
Y1530771D01*
X1398562Y1532125D01*
X1402625D01*
X1394499D02*
Y1524000D01*
X1390437D01*
X1389082Y1525354D01*
Y1530771D01*
X1390437Y1532125D01*
X1394499D01*
X1386374Y1522646D02*
X1380957D01*
X1378248Y1532125D02*
X1375540D01*
X1376894D01*
Y1524000D01*
X1378248D01*
X1375540D01*
X1366060D02*
X1371477D01*
X1366060Y1529417D01*
Y1530771D01*
X1367415Y1532125D01*
X1370123D01*
X1371477Y1530771D01*
X1357935D02*
X1359289Y1532125D01*
X1361998D01*
X1363352Y1530771D01*
Y1525354D01*
X1361998Y1524000D01*
X1359289D01*
X1357935Y1525354D01*
X1355227Y1530771D02*
X1353872Y1532125D01*
X1351164D01*
X1349810Y1530771D01*
Y1525354D01*
X1351164Y1524000D01*
X1353872D01*
X1355227Y1525354D01*
Y1530771D01*
X983750Y1423375D02*
Y1415250D01*
X979687D01*
X978333Y1416604D01*
Y1422021D01*
X979687Y1423375D01*
X983750D01*
X975625Y1413896D02*
X970208D01*
X967499Y1423375D02*
Y1415250D01*
X963437D01*
X962082Y1416604D01*
Y1417959D01*
X963437Y1419313D01*
X967499D01*
X963437D01*
X962082Y1420667D01*
Y1422021D01*
X963437Y1423375D01*
X967499D01*
X955311D02*
X958020D01*
X959374Y1422021D01*
Y1416604D01*
X958020Y1415250D01*
X955311D01*
X953957Y1416604D01*
Y1422021D01*
X955311Y1423375D01*
X951248Y1415250D02*
Y1420667D01*
X948540Y1423375D01*
X945832Y1420667D01*
Y1415250D01*
Y1419313D01*
X951248D01*
X943123Y1415250D02*
Y1423375D01*
X939060D01*
X937706Y1422021D01*
Y1419313D01*
X939060Y1417959D01*
X943123D01*
X940415D02*
X937706Y1415250D01*
X934998Y1423375D02*
Y1415250D01*
X930935D01*
X929581Y1416604D01*
Y1422021D01*
X930935Y1423375D01*
X934998D01*
X926872Y1413896D02*
X921455D01*
X913330Y1422021D02*
X914684Y1423375D01*
X917393D01*
X918747Y1422021D01*
Y1420667D01*
X917393Y1419313D01*
X914684D01*
X913330Y1417959D01*
Y1416604D01*
X914684Y1415250D01*
X917393D01*
X918747Y1416604D01*
X910621Y1423375D02*
X907913D01*
X909267D01*
Y1415250D01*
X910621D01*
X907913D01*
X898434Y1422021D02*
X899788Y1423375D01*
X902496D01*
X903850Y1422021D01*
Y1416604D01*
X902496Y1415250D01*
X899788D01*
X898434Y1416604D01*
Y1419313D01*
X901142D01*
X895725Y1415250D02*
Y1423375D01*
X890308Y1415250D01*
Y1423375D01*
X887600Y1415250D02*
Y1420667D01*
X884891Y1423375D01*
X882183Y1420667D01*
Y1415250D01*
Y1419313D01*
X887600D01*
X879474Y1423375D02*
Y1415250D01*
X874057D01*
X865932Y1422021D02*
X867286Y1423375D01*
X869995D01*
X871349Y1422021D01*
Y1420667D01*
X869995Y1419313D01*
X867286D01*
X865932Y1417959D01*
Y1416604D01*
X867286Y1415250D01*
X869995D01*
X871349Y1416604D01*
X1389333Y1160021D02*
X1390687Y1161375D01*
X1393396D01*
X1394750Y1160021D01*
Y1158667D01*
X1393396Y1157313D01*
X1390687D01*
X1389333Y1155958D01*
Y1154604D01*
X1390687Y1153250D01*
X1393396D01*
X1394750Y1154604D01*
X1386625Y1153250D02*
Y1161375D01*
X1382562D01*
X1381208Y1160021D01*
Y1157313D01*
X1382562Y1155958D01*
X1386625D01*
X1378499Y1161375D02*
X1375791D01*
X1377145D01*
Y1153250D01*
X1378499D01*
X1375791D01*
X1111583Y985375D02*
X1114292D01*
X1112937D01*
Y978604D01*
X1114292Y977250D01*
X1115646D01*
X1117000Y978604D01*
X1108875Y985375D02*
X1103458D01*
X1106166D01*
Y977250D01*
X1100749D02*
Y982667D01*
X1098041Y985375D01*
X1095332Y982667D01*
Y977250D01*
Y981313D01*
X1100749D01*
X1087207Y984021D02*
X1088561Y985375D01*
X1091270D01*
X1092624Y984021D01*
Y978604D01*
X1091270Y977250D01*
X1088561D01*
X1087207Y978604D01*
Y981313D01*
X1089915D01*
X1084499Y975896D02*
X1079082D01*
X1076373Y977250D02*
Y985375D01*
X1072310D01*
X1070956Y984021D01*
Y981313D01*
X1072310Y979958D01*
X1076373D01*
X1073665D02*
X1070956Y977250D01*
X1062831Y985375D02*
X1068248D01*
Y977250D01*
X1062831D01*
X1068248Y981313D02*
X1065539D01*
X1060122Y985375D02*
Y977250D01*
X1056060D01*
X1054705Y978604D01*
Y984021D01*
X1056060Y985375D01*
X1060122D01*
X815833Y831625D02*
X818541D01*
X817187D01*
Y824854D01*
X818541Y823500D01*
X819896D01*
X821250Y824854D01*
X813125Y831625D02*
X807708D01*
X810416D01*
Y823500D01*
X804999D02*
Y828917D01*
X802291Y831625D01*
X799582Y828917D01*
Y823500D01*
Y827563D01*
X804999D01*
X791457Y830271D02*
X792811Y831625D01*
X795520D01*
X796874Y830271D01*
Y824854D01*
X795520Y823500D01*
X792811D01*
X791457Y824854D01*
Y827563D01*
X794165D01*
X821500Y949125D02*
Y941000D01*
X818792Y943708D01*
X816083Y941000D01*
Y949125D01*
X813375D02*
Y941000D01*
X809312D01*
X807958Y942354D01*
Y947771D01*
X809312Y949125D01*
X813375D01*
X805249Y939646D02*
X799832D01*
X791707Y947771D02*
X793061Y949125D01*
X795770D01*
X797124Y947771D01*
Y946417D01*
X795770Y945063D01*
X793061D01*
X791707Y943708D01*
Y942354D01*
X793061Y941000D01*
X795770D01*
X797124Y942354D01*
X783582Y947771D02*
X784936Y949125D01*
X787644D01*
X788998Y947771D01*
Y942354D01*
X787644Y941000D01*
X784936D01*
X783582Y942354D01*
Y945063D01*
X786290D01*
X780873Y949125D02*
X778165D01*
X779519D01*
Y941000D01*
X780873D01*
X778165D01*
X774102D02*
Y949125D01*
X768685Y941000D01*
Y949125D01*
X765977Y941000D02*
Y946417D01*
X763268Y949125D01*
X760560Y946417D01*
Y941000D01*
Y945063D01*
X765977D01*
X757851Y949125D02*
Y941000D01*
X752434D01*
X744309Y947771D02*
X745663Y949125D01*
X748372D01*
X749726Y947771D01*
Y946417D01*
X748372Y945063D01*
X745663D01*
X744309Y943708D01*
Y942354D01*
X745663Y941000D01*
X748372D01*
X749726Y942354D01*
X865333Y979625D02*
X868042D01*
X866687D01*
Y972854D01*
X868042Y971500D01*
X869396D01*
X870750Y972854D01*
X862625Y979625D02*
X857208D01*
X859916D01*
Y971500D01*
X854499D02*
Y976917D01*
X851791Y979625D01*
X849082Y976917D01*
Y971500D01*
Y975563D01*
X854499D01*
X840957Y978271D02*
X842311Y979625D01*
X845020D01*
X846374Y978271D01*
Y972854D01*
X845020Y971500D01*
X842311D01*
X840957Y972854D01*
Y975563D01*
X843665D01*
X838249Y970146D02*
X832832D01*
X830123Y971500D02*
Y979625D01*
X826060D01*
X824706Y978271D01*
Y975563D01*
X826060Y974208D01*
X830123D01*
X827415D02*
X824706Y971500D01*
X816581Y979625D02*
X821998D01*
Y971500D01*
X816581D01*
X821998Y975563D02*
X819289D01*
X813872Y979625D02*
Y971500D01*
X809810D01*
X808455Y972854D01*
Y978271D01*
X809810Y979625D01*
X813872D01*
X805747D02*
Y972854D01*
X804393Y971500D01*
X801684D01*
X800330Y972854D01*
Y979625D01*
X797622Y971500D02*
Y979625D01*
X792205Y971500D01*
Y979625D01*
X789496D02*
Y971500D01*
X785434D01*
X784079Y972854D01*
Y978271D01*
X785434Y979625D01*
X789496D01*
X781371Y971500D02*
Y976917D01*
X778662Y979625D01*
X775954Y976917D01*
Y971500D01*
Y975563D01*
X781371D01*
X773245Y971500D02*
Y979625D01*
X767829Y971500D01*
Y979625D01*
X765120D02*
X759703D01*
X762412D01*
Y971500D01*
X938250Y1603000D02*
Y1600291D01*
Y1601646D01*
X930125D01*
X931479Y1603000D01*
X938250Y1590812D02*
Y1596229D01*
X932833Y1590812D01*
X931479D01*
X930125Y1592166D01*
Y1594875D01*
X931479Y1596229D01*
Y1582687D02*
X930125Y1584041D01*
Y1586749D01*
X931479Y1588103D01*
X936896D01*
X938250Y1586749D01*
Y1584041D01*
X936896Y1582687D01*
X938250Y1574561D02*
Y1579978D01*
X932833Y1574561D01*
X931479D01*
X930125Y1575915D01*
Y1578624D01*
X931479Y1579978D01*
X939604Y1571853D02*
Y1566436D01*
X930125Y1563727D02*
X938250D01*
Y1559665D01*
X936896Y1558310D01*
X935542D01*
X934187Y1559665D01*
Y1563727D01*
Y1559665D01*
X932833Y1558310D01*
X931479D01*
X930125Y1559665D01*
Y1563727D01*
Y1555602D02*
X936896D01*
X938250Y1554248D01*
Y1551539D01*
X936896Y1550185D01*
X930125D01*
Y1542060D02*
Y1547477D01*
X934187D01*
Y1544768D01*
Y1547477D01*
X938250D01*
X1117738Y1423500D02*
X1115030D01*
X1116384D01*
Y1431625D01*
X1117738Y1430271D01*
X1105550Y1423500D02*
X1110967D01*
X1105550Y1428917D01*
Y1430271D01*
X1106904Y1431625D01*
X1109613D01*
X1110967Y1430271D01*
X1097425D02*
X1098779Y1431625D01*
X1101487D01*
X1102841Y1430271D01*
Y1424854D01*
X1101487Y1423500D01*
X1098779D01*
X1097425Y1424854D01*
X1094716Y1422146D02*
X1089299D01*
X1086591Y1431625D02*
Y1423500D01*
X1082528D01*
X1081174Y1424854D01*
Y1426208D01*
X1082528Y1427563D01*
X1086591D01*
X1082528D01*
X1081174Y1428917D01*
Y1430271D01*
X1082528Y1431625D01*
X1086591D01*
X1078465D02*
Y1424854D01*
X1077111Y1423500D01*
X1074403D01*
X1073048Y1424854D01*
Y1431625D01*
X1064923D02*
X1070340D01*
Y1427563D01*
X1067632D01*
X1070340D01*
Y1423500D01*
X1307000Y1419625D02*
X1301583D01*
X1304292D01*
Y1411500D01*
X1298875Y1419625D02*
X1293458D01*
X1296166D01*
Y1411500D01*
X1285332Y1418271D02*
X1286687Y1419625D01*
X1289395D01*
X1290749Y1418271D01*
Y1412854D01*
X1289395Y1411500D01*
X1286687D01*
X1285332Y1412854D01*
X1282624Y1410146D02*
X1277207D01*
X1269082Y1418271D02*
X1270436Y1419625D01*
X1273144D01*
X1274499Y1418271D01*
Y1416917D01*
X1273144Y1415563D01*
X1270436D01*
X1269082Y1414208D01*
Y1412854D01*
X1270436Y1411500D01*
X1273144D01*
X1274499Y1412854D01*
X1266373Y1419625D02*
X1263665D01*
X1265019D01*
Y1411500D01*
X1266373D01*
X1263665D01*
X1254185Y1418271D02*
X1255539Y1419625D01*
X1258248D01*
X1259602Y1418271D01*
Y1412854D01*
X1258248Y1411500D01*
X1255539D01*
X1254185Y1412854D01*
Y1415563D01*
X1256893D01*
X1251477Y1411500D02*
Y1419625D01*
X1246060Y1411500D01*
Y1419625D01*
X1243351Y1411500D02*
Y1416917D01*
X1240643Y1419625D01*
X1237934Y1416917D01*
Y1411500D01*
Y1415563D01*
X1243351D01*
X1235226Y1419625D02*
Y1411500D01*
X1229809D01*
X1221684Y1418271D02*
X1223038Y1419625D01*
X1225746D01*
X1227100Y1418271D01*
Y1416917D01*
X1225746Y1415563D01*
X1223038D01*
X1221684Y1414208D01*
Y1412854D01*
X1223038Y1411500D01*
X1225746D01*
X1227100Y1412854D01*
X1426000Y849477D02*
X1420583D01*
X1423291D01*
Y841352D01*
X1417875D02*
Y849477D01*
X1413812D01*
X1412458Y848123D01*
Y845415D01*
X1413812Y844060D01*
X1417875D01*
X1405686Y841352D02*
Y849477D01*
X1409749Y845415D01*
X1404332D01*
X1396207Y849477D02*
X1401624D01*
Y845415D01*
X1398915Y846769D01*
X1397561D01*
X1396207Y845415D01*
Y842706D01*
X1397561Y841352D01*
X1400270D01*
X1401624Y842706D01*
X1219000Y993500D02*
X1213254Y999246D01*
X1210382Y996373D01*
X1210382Y994458D01*
X1212297Y992542D01*
X1214212D01*
X1217085Y995415D01*
X1215170Y993500D02*
Y989670D01*
X1208467Y992542D02*
X1206551Y992542D01*
X1204636Y990627D01*
X1204636Y988712D01*
X1205594Y987755D01*
X1207509D01*
X1208467Y988712D01*
X1207509Y987755D01*
Y985839D01*
X1208467Y984882D01*
X1210382D01*
X1212297Y986797D01*
Y988712D01*
X1201764Y987755D02*
X1197933Y983924D01*
X1198891Y982967D01*
X1206551D01*
X1207509Y982009D01*
X1248083Y932521D02*
X1249437Y933875D01*
X1252146D01*
X1253500Y932521D01*
Y927104D01*
X1252146Y925750D01*
X1249437D01*
X1248083Y927104D01*
X1245375Y932521D02*
X1244020Y933875D01*
X1241312D01*
X1239958Y932521D01*
Y931167D01*
X1241312Y929813D01*
X1242666D01*
X1241312D01*
X1239958Y928458D01*
Y927104D01*
X1241312Y925750D01*
X1244020D01*
X1245375Y927104D01*
X1237249Y933875D02*
X1231832D01*
Y932521D01*
X1237249Y927104D01*
Y925750D01*
X1125750Y955125D02*
X1120333D01*
X1123042D01*
Y947000D01*
X1117625D02*
Y955125D01*
X1113562D01*
X1112208Y953771D01*
Y951063D01*
X1113562Y949708D01*
X1117625D01*
X1104082Y947000D02*
X1109499D01*
X1104082Y952417D01*
Y953771D01*
X1105436Y955125D01*
X1108145D01*
X1109499Y953771D01*
X1101374Y947000D02*
X1098665D01*
X1100020D01*
Y955125D01*
X1101374Y953771D01*
X1129136Y937042D02*
X1123719D01*
X1126427D01*
Y928917D01*
X1121010D02*
Y937042D01*
X1116947D01*
X1115593Y935688D01*
Y932979D01*
X1116947Y931625D01*
X1121010D01*
X1107468Y928917D02*
X1112885D01*
X1107468Y934334D01*
Y935688D01*
X1108822Y937042D01*
X1111531D01*
X1112885Y935688D01*
X1099342Y928917D02*
X1104759D01*
X1099342Y934334D01*
Y935688D01*
X1100697Y937042D01*
X1103405D01*
X1104759Y935688D01*
X1132332Y1219705D02*
X1126915D01*
X1129623D01*
Y1211580D01*
X1124207D02*
Y1219705D01*
X1120144D01*
X1118790Y1218351D01*
Y1215643D01*
X1120144Y1214288D01*
X1124207D01*
X1110664Y1219705D02*
X1113373Y1218351D01*
X1116081Y1215643D01*
Y1212934D01*
X1114727Y1211580D01*
X1112019D01*
X1110664Y1212934D01*
Y1214288D01*
X1112019Y1215643D01*
X1116081D01*
X1107956Y1212934D02*
X1106602Y1211580D01*
X1103893D01*
X1102539Y1212934D01*
Y1218351D01*
X1103893Y1219705D01*
X1106602D01*
X1107956Y1218351D01*
Y1216997D01*
X1106602Y1215643D01*
X1102539D01*
X1107948Y1282697D02*
X1102531D01*
X1105239D01*
Y1274572D01*
X1099823D02*
Y1282697D01*
X1095760D01*
X1094406Y1281343D01*
Y1278635D01*
X1095760Y1277281D01*
X1099823D01*
X1086280Y1282697D02*
X1088989Y1281343D01*
X1091697Y1278635D01*
Y1275926D01*
X1090343Y1274572D01*
X1087635D01*
X1086280Y1275926D01*
Y1277281D01*
X1087635Y1278635D01*
X1091697D01*
X1083572Y1281343D02*
X1082218Y1282697D01*
X1079509D01*
X1078155Y1281343D01*
Y1279989D01*
X1079509Y1278635D01*
X1078155Y1277281D01*
Y1275926D01*
X1079509Y1274572D01*
X1082218D01*
X1083572Y1275926D01*
Y1277281D01*
X1082218Y1278635D01*
X1083572Y1279989D01*
Y1281343D01*
X1082218Y1278635D02*
X1079509D01*
X906125Y1587250D02*
Y1581833D01*
Y1584541D01*
X914250D01*
Y1579125D02*
X906125D01*
Y1575062D01*
X907479Y1573708D01*
X910187D01*
X911542Y1575062D01*
Y1579125D01*
X906125Y1565582D02*
X907479Y1568291D01*
X910187Y1570999D01*
X912896D01*
X914250Y1569645D01*
Y1566936D01*
X912896Y1565582D01*
X911542D01*
X910187Y1566936D01*
Y1570999D01*
X907479Y1562874D02*
X906125Y1561520D01*
Y1558811D01*
X907479Y1557457D01*
X908833D01*
X910187Y1558811D01*
Y1560165D01*
Y1558811D01*
X911542Y1557457D01*
X912896D01*
X914250Y1558811D01*
Y1561520D01*
X912896Y1562874D01*
X884375Y1586750D02*
Y1581333D01*
Y1584041D01*
X892500D01*
Y1578625D02*
X884375D01*
Y1574562D01*
X885729Y1573208D01*
X888437D01*
X889791Y1574562D01*
Y1578625D01*
X884375Y1565082D02*
X885729Y1567791D01*
X888437Y1570499D01*
X891146D01*
X892500Y1569145D01*
Y1566436D01*
X891146Y1565082D01*
X889791D01*
X888437Y1566436D01*
Y1570499D01*
X892500Y1556957D02*
Y1562374D01*
X887083Y1556957D01*
X885729D01*
X884375Y1558311D01*
Y1561020D01*
X885729Y1562374D01*
X1092000Y1356875D02*
X1086583D01*
X1089292D01*
Y1348750D01*
X1083875D02*
Y1356875D01*
X1079812D01*
X1078458Y1355521D01*
Y1352813D01*
X1079812Y1351458D01*
X1083875D01*
X1070332Y1356875D02*
X1073041Y1355521D01*
X1075749Y1352813D01*
Y1350104D01*
X1074395Y1348750D01*
X1071687D01*
X1070332Y1350104D01*
Y1351458D01*
X1071687Y1352813D01*
X1075749D01*
X1067624Y1348750D02*
X1064915D01*
X1066270D01*
Y1356875D01*
X1067624Y1355521D01*
X1092000Y1374375D02*
X1086583D01*
X1089292D01*
Y1366250D01*
X1083875D02*
Y1374375D01*
X1079812D01*
X1078458Y1373021D01*
Y1370313D01*
X1079812Y1368958D01*
X1083875D01*
X1070332Y1374375D02*
X1073041Y1373021D01*
X1075749Y1370313D01*
Y1367604D01*
X1074395Y1366250D01*
X1071687D01*
X1070332Y1367604D01*
Y1368958D01*
X1071687Y1370313D01*
X1075749D01*
X1067624Y1373021D02*
X1066270Y1374375D01*
X1063561D01*
X1062207Y1373021D01*
Y1367604D01*
X1063561Y1366250D01*
X1066270D01*
X1067624Y1367604D01*
Y1373021D01*
X1092000Y1409375D02*
X1086583D01*
X1089292D01*
Y1401250D01*
X1083875D02*
Y1409375D01*
X1079812D01*
X1078458Y1408021D01*
Y1405313D01*
X1079812Y1403958D01*
X1083875D01*
X1070332Y1409375D02*
X1075749D01*
Y1405313D01*
X1073041Y1406667D01*
X1071687D01*
X1070332Y1405313D01*
Y1402604D01*
X1071687Y1401250D01*
X1074395D01*
X1075749Y1402604D01*
X1067624D02*
X1066270Y1401250D01*
X1063561D01*
X1062207Y1402604D01*
Y1408021D01*
X1063561Y1409375D01*
X1066270D01*
X1067624Y1408021D01*
Y1406667D01*
X1066270Y1405313D01*
X1062207D01*
X1092000Y1391875D02*
X1086583D01*
X1089292D01*
Y1383750D01*
X1083875D02*
Y1391875D01*
X1079812D01*
X1078458Y1390521D01*
Y1387813D01*
X1079812Y1386458D01*
X1083875D01*
X1070332Y1391875D02*
X1075749D01*
Y1387813D01*
X1073041Y1389167D01*
X1071687D01*
X1070332Y1387813D01*
Y1385104D01*
X1071687Y1383750D01*
X1074395D01*
X1075749Y1385104D01*
X1067624Y1390521D02*
X1066270Y1391875D01*
X1063561D01*
X1062207Y1390521D01*
Y1389167D01*
X1063561Y1387813D01*
X1062207Y1386458D01*
Y1385104D01*
X1063561Y1383750D01*
X1066270D01*
X1067624Y1385104D01*
Y1386458D01*
X1066270Y1387813D01*
X1067624Y1389167D01*
Y1390521D01*
X1066270Y1387813D02*
X1063561D01*
X925068Y1280919D02*
X919651D01*
X922359D01*
Y1272794D01*
X916943D02*
Y1280919D01*
X912880D01*
X911526Y1279565D01*
Y1276857D01*
X912880Y1275502D01*
X916943D01*
X903400Y1280919D02*
X908817D01*
Y1276857D01*
X906109Y1278211D01*
X904755D01*
X903400Y1276857D01*
Y1274148D01*
X904755Y1272794D01*
X907463D01*
X908817Y1274148D01*
X900692Y1280919D02*
X895275D01*
Y1279565D01*
X900692Y1274148D01*
Y1272794D01*
X921500Y1084125D02*
X916083D01*
X918792D01*
Y1076000D01*
X913375D02*
Y1084125D01*
X909312D01*
X907958Y1082771D01*
Y1080063D01*
X909312Y1078708D01*
X913375D01*
X899832Y1084125D02*
X905249D01*
Y1080063D01*
X902541Y1081417D01*
X901187D01*
X899832Y1080063D01*
Y1077354D01*
X901187Y1076000D01*
X903895D01*
X905249Y1077354D01*
X891707Y1084125D02*
X894415Y1082771D01*
X897124Y1080063D01*
Y1077354D01*
X895770Y1076000D01*
X893061D01*
X891707Y1077354D01*
Y1078708D01*
X893061Y1080063D01*
X897124D01*
X970000Y1083875D02*
X964583D01*
X967291D01*
Y1075750D01*
X961875D02*
Y1083875D01*
X957812D01*
X956458Y1082521D01*
Y1079813D01*
X957812Y1078458D01*
X961875D01*
X948332Y1083875D02*
X953749D01*
Y1079813D01*
X951041Y1081167D01*
X949687D01*
X948332Y1079813D01*
Y1077104D01*
X949687Y1075750D01*
X952395D01*
X953749Y1077104D01*
X940207Y1083875D02*
X945624D01*
Y1079813D01*
X942915Y1081167D01*
X941561D01*
X940207Y1079813D01*
Y1077104D01*
X941561Y1075750D01*
X944270D01*
X945624Y1077104D01*
X1029716Y1277871D02*
X1024299D01*
X1027008D01*
Y1269746D01*
X1021591D02*
Y1277871D01*
X1017528D01*
X1016174Y1276517D01*
Y1273809D01*
X1017528Y1272455D01*
X1021591D01*
X1008048Y1277871D02*
X1013465D01*
Y1273809D01*
X1010757Y1275163D01*
X1009403D01*
X1008048Y1273809D01*
Y1271100D01*
X1009403Y1269746D01*
X1012111D01*
X1013465Y1271100D01*
X1001277Y1269746D02*
Y1277871D01*
X1005340Y1273809D01*
X999923D01*
X1030000Y1157625D02*
X1024583D01*
X1027291D01*
Y1149500D01*
X1021875D02*
Y1157625D01*
X1017812D01*
X1016458Y1156271D01*
Y1153563D01*
X1017812Y1152208D01*
X1021875D01*
X1008332Y1157625D02*
X1013749D01*
Y1153563D01*
X1011041Y1154917D01*
X1009687D01*
X1008332Y1153563D01*
Y1150854D01*
X1009687Y1149500D01*
X1012395D01*
X1013749Y1150854D01*
X1005624Y1156271D02*
X1004270Y1157625D01*
X1001561D01*
X1000207Y1156271D01*
Y1154917D01*
X1001561Y1153563D01*
X1002915D01*
X1001561D01*
X1000207Y1152208D01*
Y1150854D01*
X1001561Y1149500D01*
X1004270D01*
X1005624Y1150854D01*
X1025652Y1303779D02*
X1020235D01*
X1022943D01*
Y1295654D01*
X1017527D02*
Y1303779D01*
X1013464D01*
X1012110Y1302425D01*
Y1299717D01*
X1013464Y1298362D01*
X1017527D01*
X1003984Y1303779D02*
X1009401D01*
Y1299717D01*
X1006693Y1301071D01*
X1005339D01*
X1003984Y1299717D01*
Y1297008D01*
X1005339Y1295654D01*
X1008047D01*
X1009401Y1297008D01*
X995859Y1295654D02*
X1001276D01*
X995859Y1301071D01*
Y1302425D01*
X997213Y1303779D01*
X999922D01*
X1001276Y1302425D01*
X1129792Y1202941D02*
X1124375D01*
X1127084D01*
Y1194816D01*
X1121667D02*
Y1202941D01*
X1117604D01*
X1116250Y1201587D01*
Y1198879D01*
X1117604Y1197524D01*
X1121667D01*
X1108124Y1202941D02*
X1113541D01*
Y1198879D01*
X1110833Y1200233D01*
X1109479D01*
X1108124Y1198879D01*
Y1196170D01*
X1109479Y1194816D01*
X1112187D01*
X1113541Y1196170D01*
X1105416Y1194816D02*
X1102707D01*
X1104062D01*
Y1202941D01*
X1105416Y1201587D01*
X820291Y1065500D02*
Y1060083D01*
Y1062792D01*
X828417D01*
Y1057375D02*
X820291D01*
Y1053312D01*
X821646Y1051958D01*
X824354D01*
X825708Y1053312D01*
Y1057375D01*
X820291Y1043832D02*
Y1049249D01*
X824354D01*
X823000Y1046541D01*
Y1045186D01*
X824354Y1043832D01*
X827063D01*
X828417Y1045186D01*
Y1047895D01*
X827063Y1049249D01*
X821646Y1041124D02*
X820291Y1039770D01*
Y1037061D01*
X821646Y1035707D01*
X827063D01*
X828417Y1037061D01*
Y1039770D01*
X827063Y1041124D01*
X821646D01*
X790125Y1065500D02*
Y1060083D01*
Y1062792D01*
X798250D01*
Y1057375D02*
X790125D01*
Y1053312D01*
X791479Y1051958D01*
X794187D01*
X795542Y1053312D01*
Y1057375D01*
X798250Y1045186D02*
X790125D01*
X794187Y1049249D01*
Y1043832D01*
X796896Y1041124D02*
X798250Y1039770D01*
Y1037061D01*
X796896Y1035707D01*
X791479D01*
X790125Y1037061D01*
Y1039770D01*
X791479Y1041124D01*
X792833D01*
X794187Y1039770D01*
Y1035707D01*
X858375Y1065500D02*
Y1060083D01*
Y1062792D01*
X866500D01*
Y1057375D02*
X858375D01*
Y1053312D01*
X859729Y1051958D01*
X862437D01*
X863792Y1053312D01*
Y1057375D01*
X866500Y1045186D02*
X858375D01*
X862437Y1049249D01*
Y1043832D01*
X859729Y1041124D02*
X858375Y1039770D01*
Y1037061D01*
X859729Y1035707D01*
X861083D01*
X862437Y1037061D01*
X863792Y1035707D01*
X865146D01*
X866500Y1037061D01*
Y1039770D01*
X865146Y1041124D01*
X863792D01*
X862437Y1039770D01*
X861083Y1041124D01*
X859729D01*
X862437Y1039770D02*
Y1037061D01*
X794750Y1006625D02*
X789333D01*
X792041D01*
Y998500D01*
X786625D02*
Y1006625D01*
X782562D01*
X781208Y1005271D01*
Y1002563D01*
X782562Y1001208D01*
X786625D01*
X774437Y998500D02*
Y1006625D01*
X778499Y1002563D01*
X773082D01*
X770374Y1006625D02*
X764957D01*
Y1005271D01*
X770374Y999854D01*
Y998500D01*
X1452500Y931125D02*
X1447083D01*
X1449792D01*
Y923000D01*
X1444375D02*
Y931125D01*
X1440312D01*
X1438958Y929771D01*
Y927063D01*
X1440312Y925708D01*
X1444375D01*
X1432186Y923000D02*
Y931125D01*
X1436249Y927063D01*
X1430832D01*
X1422707Y931125D02*
X1425415Y929771D01*
X1428124Y927063D01*
Y924354D01*
X1426770Y923000D01*
X1424061D01*
X1422707Y924354D01*
Y925708D01*
X1424061Y927063D01*
X1428124D01*
X782500Y1414625D02*
X777083D01*
X779792D01*
Y1406500D01*
X774375D02*
Y1414625D01*
X770312D01*
X768958Y1413271D01*
Y1410563D01*
X770312Y1409209D01*
X774375D01*
X762187Y1406500D02*
Y1414625D01*
X766249Y1410563D01*
X760832D01*
X754061Y1406500D02*
Y1414625D01*
X758124Y1410563D01*
X752707D01*
X1313500Y877375D02*
X1308083D01*
X1310791D01*
Y869250D01*
X1305375D02*
Y877375D01*
X1301312D01*
X1299958Y876021D01*
Y873313D01*
X1301312Y871958D01*
X1305375D01*
X1293186Y869250D02*
Y877375D01*
X1297249Y873313D01*
X1291832D01*
X1289124Y876021D02*
X1287770Y877375D01*
X1285061D01*
X1283707Y876021D01*
Y874667D01*
X1285061Y873313D01*
X1286415D01*
X1285061D01*
X1283707Y871958D01*
Y870604D01*
X1285061Y869250D01*
X1287770D01*
X1289124Y870604D01*
X1303250Y1050875D02*
X1297833D01*
X1300542D01*
Y1042750D01*
X1295125D02*
Y1050875D01*
X1291062D01*
X1289708Y1049521D01*
Y1046813D01*
X1291062Y1045459D01*
X1295125D01*
X1282937Y1042750D02*
Y1050875D01*
X1286999Y1046813D01*
X1281582D01*
X1273457Y1042750D02*
X1278874D01*
X1273457Y1048167D01*
Y1049521D01*
X1274811Y1050875D01*
X1277520D01*
X1278874Y1049521D01*
X1316000Y1293845D02*
X1310583D01*
X1313291D01*
Y1285720D01*
X1307875D02*
Y1293845D01*
X1303812D01*
X1302458Y1292491D01*
Y1289783D01*
X1303812Y1288428D01*
X1307875D01*
X1295686Y1285720D02*
Y1293845D01*
X1299749Y1289783D01*
X1294332D01*
X1291624Y1285720D02*
X1288915D01*
X1290270D01*
Y1293845D01*
X1291624Y1292491D01*
X1311750Y1306875D02*
X1306333D01*
X1309042D01*
Y1298750D01*
X1303625D02*
Y1306875D01*
X1299562D01*
X1298208Y1305521D01*
Y1302813D01*
X1299562Y1301458D01*
X1303625D01*
X1291437Y1298750D02*
Y1306875D01*
X1295499Y1302813D01*
X1290082D01*
X1287374Y1305521D02*
X1286020Y1306875D01*
X1283311D01*
X1281957Y1305521D01*
Y1300104D01*
X1283311Y1298750D01*
X1286020D01*
X1287374Y1300104D01*
Y1305521D01*
X835995Y1480495D02*
X832165Y1484326D01*
X834080Y1482411D01*
X828335Y1476665D01*
X824504Y1480495D02*
X830250Y1486241D01*
X827377Y1489114D01*
X825462Y1489114D01*
X823547Y1487199D01*
Y1485283D01*
X826420Y1482411D01*
X823547Y1491029D02*
X823547Y1492944D01*
X821632Y1494859D01*
X819716D01*
X818759Y1493902D01*
Y1491987D01*
X819716Y1491029D01*
X818759Y1491987D01*
X816844D01*
X815886Y1491029D01*
Y1489114D01*
X817801Y1487199D01*
X819716D01*
X813971Y1492944D02*
X812056D01*
X810141Y1494859D01*
Y1496774D01*
X813971Y1500605D01*
X815886Y1500605D01*
X817801Y1498690D01*
Y1496774D01*
X816844Y1495817D01*
X814929D01*
X812056Y1498690D01*
X833245Y1467146D02*
X829415Y1470976D01*
X831330Y1469061D01*
X825585Y1463315D01*
X821755Y1467146D02*
X827500Y1472891D01*
X824627Y1475764D01*
X822712Y1475764D01*
X820797Y1473849D01*
Y1471933D01*
X823670Y1469061D01*
X820797Y1477679D02*
X820797Y1479594D01*
X818882Y1481509D01*
X816966D01*
X816009Y1480552D01*
Y1478636D01*
X816966Y1477679D01*
X816009Y1478636D01*
X814094D01*
X813136Y1477679D01*
Y1475764D01*
X815051Y1473849D01*
X816966D01*
X815051Y1483425D02*
Y1485340D01*
X813136Y1487255D01*
X811221Y1487255D01*
X810264Y1486297D01*
Y1484382D01*
X808348D01*
X807391Y1483425D01*
Y1481509D01*
X809306Y1479594D01*
X811221D01*
X812179Y1480552D01*
Y1482467D01*
X814094D01*
X815051Y1483425D01*
X812179Y1482467D02*
X810264Y1484382D01*
X943000Y1476375D02*
X937583D01*
X940292D01*
Y1468250D01*
X934875D02*
Y1476375D01*
X930812D01*
X929458Y1475021D01*
Y1472313D01*
X930812Y1470958D01*
X934875D01*
X926749Y1475021D02*
X925395Y1476375D01*
X922686D01*
X921332Y1475021D01*
Y1473667D01*
X922686Y1472313D01*
X924041D01*
X922686D01*
X921332Y1470958D01*
Y1469604D01*
X922686Y1468250D01*
X925395D01*
X926749Y1469604D01*
X918624Y1476375D02*
X913207D01*
Y1475021D01*
X918624Y1469604D01*
Y1468250D01*
X943250Y1456625D02*
X937833D01*
X940542D01*
Y1448500D01*
X935125D02*
Y1456625D01*
X931062D01*
X929708Y1455271D01*
Y1452563D01*
X931062Y1451208D01*
X935125D01*
X926999Y1455271D02*
X925645Y1456625D01*
X922937D01*
X921582Y1455271D01*
Y1453917D01*
X922937Y1452563D01*
X924291D01*
X922937D01*
X921582Y1451208D01*
Y1449854D01*
X922937Y1448500D01*
X925645D01*
X926999Y1449854D01*
X913457Y1456625D02*
X916165Y1455271D01*
X918874Y1452563D01*
Y1449854D01*
X917520Y1448500D01*
X914811D01*
X913457Y1449854D01*
Y1451208D01*
X914811Y1452563D01*
X918874D01*
X864500Y1457875D02*
X859083D01*
X861792D01*
Y1449750D01*
X856375D02*
Y1457875D01*
X852312D01*
X850958Y1456521D01*
Y1453813D01*
X852312Y1452458D01*
X856375D01*
X848249Y1456521D02*
X846895Y1457875D01*
X844187D01*
X842832Y1456521D01*
Y1455167D01*
X844187Y1453813D01*
X845541D01*
X844187D01*
X842832Y1452458D01*
Y1451104D01*
X844187Y1449750D01*
X846895D01*
X848249Y1451104D01*
X834707Y1457875D02*
X840124D01*
Y1453813D01*
X837415Y1455167D01*
X836061D01*
X834707Y1453813D01*
Y1451104D01*
X836061Y1449750D01*
X838770D01*
X840124Y1451104D01*
X1205500Y1341375D02*
X1200083D01*
X1202792D01*
Y1333250D01*
X1197375D02*
Y1341375D01*
X1193312D01*
X1191958Y1340021D01*
Y1337313D01*
X1193312Y1335959D01*
X1197375D01*
X1189249Y1340021D02*
X1187895Y1341375D01*
X1185186D01*
X1183832Y1340021D01*
Y1338667D01*
X1185186Y1337313D01*
X1186541D01*
X1185186D01*
X1183832Y1335959D01*
Y1334604D01*
X1185186Y1333250D01*
X1187895D01*
X1189249Y1334604D01*
X1177061Y1333250D02*
Y1341375D01*
X1181124Y1337313D01*
X1175707D01*
X1451125Y1210500D02*
Y1205083D01*
Y1207792D01*
X1459250D01*
Y1202375D02*
X1451125D01*
Y1198312D01*
X1452479Y1196958D01*
X1455187D01*
X1456541Y1198312D01*
Y1202375D01*
X1452479Y1194249D02*
X1451125Y1192895D01*
Y1190186D01*
X1452479Y1188832D01*
X1453833D01*
X1455187Y1190186D01*
Y1191541D01*
Y1190186D01*
X1456541Y1188832D01*
X1457896D01*
X1459250Y1190186D01*
Y1192895D01*
X1457896Y1194249D01*
X1452479Y1186124D02*
X1451125Y1184770D01*
Y1182061D01*
X1452479Y1180707D01*
X1453833D01*
X1455187Y1182061D01*
Y1183415D01*
Y1182061D01*
X1456541Y1180707D01*
X1457896D01*
X1459250Y1182061D01*
Y1184770D01*
X1457896Y1186124D01*
X1128750Y903125D02*
X1123333D01*
X1126041D01*
Y895000D01*
X1120625D02*
Y903125D01*
X1116562D01*
X1115208Y901771D01*
Y899063D01*
X1116562Y897708D01*
X1120625D01*
X1107082Y895000D02*
X1112499D01*
X1107082Y900417D01*
Y901771D01*
X1108437Y903125D01*
X1111145D01*
X1112499Y901771D01*
X1100311Y895000D02*
Y903125D01*
X1104374Y899063D01*
X1098957D01*
X1129136Y918959D02*
X1123719D01*
X1126427D01*
Y910833D01*
X1121010D02*
Y918959D01*
X1116947D01*
X1115593Y917605D01*
Y914896D01*
X1116947Y913542D01*
X1121010D01*
X1107468Y910833D02*
X1112885D01*
X1107468Y916250D01*
Y917605D01*
X1108822Y918959D01*
X1111531D01*
X1112885Y917605D01*
X1104759D02*
X1103405Y918959D01*
X1100697D01*
X1099342Y917605D01*
Y916250D01*
X1100697Y914896D01*
X1102051D01*
X1100697D01*
X1099342Y913542D01*
Y912188D01*
X1100697Y910833D01*
X1103405D01*
X1104759Y912188D01*
X778000Y924875D02*
X772583D01*
X775292D01*
Y916750D01*
X769875D02*
Y924875D01*
X765812D01*
X764458Y923521D01*
Y920813D01*
X765812Y919458D01*
X769875D01*
X761749Y918104D02*
X760395Y916750D01*
X757686D01*
X756332Y918104D01*
Y923521D01*
X757686Y924875D01*
X760395D01*
X761749Y923521D01*
Y922167D01*
X760395Y920813D01*
X756332D01*
X778000Y907625D02*
X772583D01*
X775292D01*
Y899500D01*
X769875D02*
Y907625D01*
X765812D01*
X764458Y906271D01*
Y903563D01*
X765812Y902208D01*
X769875D01*
X761749Y906271D02*
X760395Y907625D01*
X757686D01*
X756332Y906271D01*
Y904917D01*
X757686Y903563D01*
X756332Y902208D01*
Y900854D01*
X757686Y899500D01*
X760395D01*
X761749Y900854D01*
Y902208D01*
X760395Y903563D01*
X761749Y904917D01*
Y906271D01*
X760395Y903563D02*
X757686D01*
X1297750Y1349875D02*
X1292333D01*
X1295042D01*
Y1341750D01*
X1289625D02*
Y1349875D01*
X1285562D01*
X1284208Y1348521D01*
Y1345813D01*
X1285562Y1344458D01*
X1289625D01*
X1281499Y1348521D02*
X1280145Y1349875D01*
X1277437D01*
X1276082Y1348521D01*
Y1347167D01*
X1277437Y1345813D01*
X1278791D01*
X1277437D01*
X1276082Y1344458D01*
Y1343104D01*
X1277437Y1341750D01*
X1280145D01*
X1281499Y1343104D01*
X1267957Y1341750D02*
X1273374D01*
X1267957Y1347167D01*
Y1348521D01*
X1269311Y1349875D01*
X1272020D01*
X1273374Y1348521D01*
X1205500Y1359875D02*
X1200083D01*
X1202792D01*
Y1351750D01*
X1197375D02*
Y1359875D01*
X1193312D01*
X1191958Y1358521D01*
Y1355813D01*
X1193312Y1354458D01*
X1197375D01*
X1189249Y1358521D02*
X1187895Y1359875D01*
X1185187D01*
X1183832Y1358521D01*
Y1357167D01*
X1185187Y1355813D01*
X1186541D01*
X1185187D01*
X1183832Y1354458D01*
Y1353104D01*
X1185187Y1351750D01*
X1187895D01*
X1189249Y1353104D01*
X1181124Y1351750D02*
X1178415D01*
X1179770D01*
Y1359875D01*
X1181124Y1358521D01*
X1205500Y1377875D02*
X1200083D01*
X1202792D01*
Y1369750D01*
X1197375D02*
Y1377875D01*
X1193312D01*
X1191958Y1376521D01*
Y1373813D01*
X1193312Y1372458D01*
X1197375D01*
X1189249Y1376521D02*
X1187895Y1377875D01*
X1185187D01*
X1183832Y1376521D01*
Y1375167D01*
X1185187Y1373813D01*
X1186541D01*
X1185187D01*
X1183832Y1372458D01*
Y1371104D01*
X1185187Y1369750D01*
X1187895D01*
X1189249Y1371104D01*
X1181124Y1376521D02*
X1179770Y1377875D01*
X1177061D01*
X1175707Y1376521D01*
Y1371104D01*
X1177061Y1369750D01*
X1179770D01*
X1181124Y1371104D01*
Y1376521D01*
X1206000Y1395875D02*
X1200583D01*
X1203291D01*
Y1387750D01*
X1197875D02*
Y1395875D01*
X1193812D01*
X1192458Y1394521D01*
Y1391813D01*
X1193812Y1390459D01*
X1197875D01*
X1184332Y1387750D02*
X1189749D01*
X1184332Y1393167D01*
Y1394521D01*
X1185687Y1395875D01*
X1188395D01*
X1189749Y1394521D01*
X1181624Y1389104D02*
X1180270Y1387750D01*
X1177561D01*
X1176207Y1389104D01*
Y1394521D01*
X1177561Y1395875D01*
X1180270D01*
X1181624Y1394521D01*
Y1393167D01*
X1180270Y1391813D01*
X1176207D01*
X1299000Y1387375D02*
X1293583D01*
X1296292D01*
Y1379250D01*
X1290875D02*
Y1387375D01*
X1286812D01*
X1285458Y1386021D01*
Y1383313D01*
X1286812Y1381958D01*
X1290875D01*
X1277332Y1379250D02*
X1282749D01*
X1277332Y1384667D01*
Y1386021D01*
X1278687Y1387375D01*
X1281395D01*
X1282749Y1386021D01*
X1274624D02*
X1273270Y1387375D01*
X1270561D01*
X1269207Y1386021D01*
Y1384667D01*
X1270561Y1383313D01*
X1269207Y1381958D01*
Y1380604D01*
X1270561Y1379250D01*
X1273270D01*
X1274624Y1380604D01*
Y1381958D01*
X1273270Y1383313D01*
X1274624Y1384667D01*
Y1386021D01*
X1273270Y1383313D02*
X1270561D01*
X1170250Y938125D02*
X1164833D01*
X1167542D01*
Y930000D01*
X1162125D02*
Y938125D01*
X1158062D01*
X1156708Y936771D01*
Y934063D01*
X1158062Y932708D01*
X1162125D01*
X1153999Y938125D02*
X1148582D01*
Y936771D01*
X1153999Y931354D01*
Y930000D01*
X1336500Y1067625D02*
X1331083D01*
X1333792D01*
Y1059500D01*
X1328375D02*
Y1067625D01*
X1324312D01*
X1322958Y1066271D01*
Y1063563D01*
X1324312Y1062208D01*
X1328375D01*
X1314832Y1067625D02*
X1317541Y1066271D01*
X1320249Y1063563D01*
Y1060854D01*
X1318895Y1059500D01*
X1316187D01*
X1314832Y1060854D01*
Y1062208D01*
X1316187Y1063563D01*
X1320249D01*
X1374423Y1136375D02*
X1369006D01*
X1371714D01*
Y1128250D01*
X1366297D02*
Y1136375D01*
X1362235D01*
X1360881Y1135021D01*
Y1132313D01*
X1362235Y1130958D01*
X1366297D01*
X1352755Y1136375D02*
X1358172D01*
Y1132313D01*
X1355464Y1133667D01*
X1354109D01*
X1352755Y1132313D01*
Y1129604D01*
X1354109Y1128250D01*
X1356818D01*
X1358172Y1129604D01*
X1374923Y1119967D02*
X1369506D01*
X1372214D01*
Y1111842D01*
X1366797D02*
Y1119967D01*
X1362735D01*
X1361381Y1118613D01*
Y1115904D01*
X1362735Y1114550D01*
X1366797D01*
X1354609Y1111842D02*
Y1119967D01*
X1358672Y1115904D01*
X1353255D01*
X1375000Y1102375D02*
X1369583D01*
X1372292D01*
Y1094250D01*
X1366875D02*
Y1102375D01*
X1362812D01*
X1361458Y1101021D01*
Y1098313D01*
X1362812Y1096958D01*
X1366875D01*
X1358749Y1101021D02*
X1357395Y1102375D01*
X1354686D01*
X1353332Y1101021D01*
Y1099667D01*
X1354686Y1098313D01*
X1356041D01*
X1354686D01*
X1353332Y1096958D01*
Y1095604D01*
X1354686Y1094250D01*
X1357395D01*
X1358749Y1095604D01*
X787875Y885250D02*
Y879833D01*
Y882542D01*
X796000D01*
Y877125D02*
X787875D01*
Y873062D01*
X789229Y871708D01*
X791937D01*
X793292Y873062D01*
Y877125D01*
X796000Y863582D02*
Y868999D01*
X790583Y863582D01*
X789229D01*
X787875Y864937D01*
Y867645D01*
X789229Y868999D01*
X805875Y885250D02*
Y879833D01*
Y882542D01*
X814000D01*
Y877125D02*
X805875D01*
Y873062D01*
X807229Y871708D01*
X809937D01*
X811292Y873062D01*
Y877125D01*
X814000Y868999D02*
Y866291D01*
Y867645D01*
X805875D01*
X807229Y868999D01*
X1417250Y957125D02*
Y950354D01*
X1415896Y949000D01*
X1413187D01*
X1411833Y950354D01*
Y957125D01*
X1409125Y955771D02*
X1407770Y957125D01*
X1405062D01*
X1403708Y955771D01*
Y954417D01*
X1405062Y953063D01*
X1406416D01*
X1405062D01*
X1403708Y951709D01*
Y950354D01*
X1405062Y949000D01*
X1407770D01*
X1409125Y950354D01*
X1338500Y889250D02*
Y897375D01*
X1334437D01*
X1333083Y896021D01*
Y893313D01*
X1334437Y891958D01*
X1338500D01*
X1335791D02*
X1333083Y889250D01*
X1324958Y896021D02*
X1326312Y897375D01*
X1329020D01*
X1330375Y896021D01*
Y894667D01*
X1329020Y893313D01*
X1326312D01*
X1324958Y891958D01*
Y890604D01*
X1326312Y889250D01*
X1329020D01*
X1330375Y890604D01*
X1318186Y889250D02*
X1320895D01*
X1322249Y890604D01*
Y893313D01*
X1320895Y894667D01*
X1318186D01*
X1316832Y893313D01*
Y891958D01*
X1322249D01*
X1314124Y889250D02*
Y894667D01*
X1310061D01*
X1308707Y893313D01*
Y889250D01*
X1305999D02*
X1301936D01*
X1300582Y890604D01*
X1301936Y891958D01*
X1304644D01*
X1305999Y893313D01*
X1304644Y894667D01*
X1300582D01*
X1293810Y889250D02*
X1296519D01*
X1297873Y890604D01*
Y893313D01*
X1296519Y894667D01*
X1293810D01*
X1292456Y893313D01*
Y891958D01*
X1297873D01*
X948000Y1038000D02*
Y1046125D01*
X943937D01*
X942583Y1044771D01*
Y1042063D01*
X943937Y1040708D01*
X948000D01*
X945292D02*
X942583Y1038000D01*
X939875D02*
X937166D01*
X938520D01*
Y1046125D01*
X939875Y1044771D01*
X933103D02*
X931749Y1046125D01*
X929041D01*
X927687Y1044771D01*
Y1043417D01*
X929041Y1042063D01*
X927687Y1040708D01*
Y1039354D01*
X929041Y1038000D01*
X931749D01*
X933103Y1039354D01*
Y1040708D01*
X931749Y1042063D01*
X933103Y1043417D01*
Y1044771D01*
X931749Y1042063D02*
X929041D01*
X827667Y1152500D02*
X819541D01*
Y1148437D01*
X820895Y1147083D01*
X823604D01*
X824958Y1148437D01*
Y1152500D01*
Y1149792D02*
X827667Y1147083D01*
Y1144375D02*
Y1141666D01*
Y1143020D01*
X819541D01*
X820895Y1144375D01*
X819541Y1137604D02*
Y1132187D01*
X820895D01*
X826312Y1137604D01*
X827667D01*
X805000Y1152500D02*
X796875D01*
Y1148437D01*
X798229Y1147083D01*
X800937D01*
X802292Y1148437D01*
Y1152500D01*
Y1149792D02*
X805000Y1147083D01*
Y1144375D02*
Y1141666D01*
Y1143020D01*
X796875D01*
X798229Y1144375D01*
X796875Y1132187D02*
X798229Y1134895D01*
X800937Y1137604D01*
X803646D01*
X805000Y1136249D01*
Y1133541D01*
X803646Y1132187D01*
X802292D01*
X800937Y1133541D01*
Y1137604D01*
X873000Y1152500D02*
X864875D01*
Y1148437D01*
X866229Y1147083D01*
X868937D01*
X870292Y1148437D01*
Y1152500D01*
Y1149792D02*
X873000Y1147083D01*
Y1144375D02*
Y1141666D01*
Y1143020D01*
X864875D01*
X866229Y1144375D01*
X864875Y1132187D02*
Y1137604D01*
X868937D01*
X867583Y1134895D01*
Y1133541D01*
X868937Y1132187D01*
X871646D01*
X873000Y1133541D01*
Y1136249D01*
X871646Y1137604D01*
X850333Y1152500D02*
X842208D01*
Y1148437D01*
X843562Y1147083D01*
X846271D01*
X847625Y1148437D01*
Y1152500D01*
Y1149792D02*
X850333Y1147083D01*
Y1144375D02*
Y1141666D01*
Y1143020D01*
X842208D01*
X843562Y1144375D01*
X850333Y1133541D02*
X842208D01*
X846271Y1137604D01*
Y1132187D01*
X1387250Y1012750D02*
Y1020875D01*
X1383187D01*
X1381833Y1019521D01*
Y1016813D01*
X1383187Y1015458D01*
X1387250D01*
X1384542D02*
X1381833Y1012750D01*
X1379125Y1014104D02*
X1377770Y1012750D01*
X1375062D01*
X1373708Y1014104D01*
Y1019521D01*
X1375062Y1020875D01*
X1377770D01*
X1379125Y1019521D01*
Y1018167D01*
X1377770Y1016813D01*
X1373708D01*
X948833Y1137375D02*
X951542D01*
X950187D01*
Y1130604D01*
X951542Y1129250D01*
X952896D01*
X954250Y1130604D01*
X946125Y1127896D02*
X940708D01*
X937999Y1137375D02*
Y1131958D01*
X935291Y1129250D01*
X932582Y1131958D01*
Y1137375D01*
X925811Y1129250D02*
Y1137375D01*
X929874Y1133313D01*
X924457D01*
X1323125Y1024833D02*
Y1027542D01*
Y1026187D01*
X1329896D01*
X1331250Y1027542D01*
Y1028896D01*
X1329896Y1030250D01*
X1332604Y1022125D02*
Y1016708D01*
X1323125Y1013999D02*
X1328542D01*
X1331250Y1011291D01*
X1328542Y1008582D01*
X1323125D01*
X1331250Y1000457D02*
Y1005874D01*
X1325833Y1000457D01*
X1324479D01*
X1323125Y1001811D01*
Y1004520D01*
X1324479Y1005874D01*
X1389583Y1384125D02*
X1392292D01*
X1390937D01*
Y1377354D01*
X1392292Y1376000D01*
X1393646D01*
X1395000Y1377354D01*
X1386875Y1374646D02*
X1381458D01*
X1378749Y1376000D02*
Y1384125D01*
X1374687D01*
X1373332Y1382771D01*
Y1380063D01*
X1374687Y1378708D01*
X1378749D01*
X1365207Y1382771D02*
X1366561Y1384125D01*
X1369270D01*
X1370624Y1382771D01*
Y1377354D01*
X1369270Y1376000D01*
X1366561D01*
X1365207Y1377354D01*
X1362498Y1376000D02*
X1359790D01*
X1361144D01*
Y1384125D01*
X1362498Y1382771D01*
X1355727D02*
X1354373Y1384125D01*
X1351665D01*
X1350310Y1382771D01*
Y1381417D01*
X1351665Y1380063D01*
X1353019D01*
X1351665D01*
X1350310Y1378708D01*
Y1377354D01*
X1351665Y1376000D01*
X1354373D01*
X1355727Y1377354D01*
X1389583Y1408625D02*
X1392292D01*
X1390937D01*
Y1401854D01*
X1392292Y1400500D01*
X1393646D01*
X1395000Y1401854D01*
X1386875Y1399146D02*
X1381458D01*
X1378749Y1400500D02*
Y1408625D01*
X1374687D01*
X1373332Y1407271D01*
Y1404563D01*
X1374687Y1403208D01*
X1378749D01*
X1365207Y1407271D02*
X1366561Y1408625D01*
X1369270D01*
X1370624Y1407271D01*
Y1401854D01*
X1369270Y1400500D01*
X1366561D01*
X1365207Y1401854D01*
X1362498Y1400500D02*
X1359790D01*
X1361144D01*
Y1408625D01*
X1362498Y1407271D01*
X1350310Y1400500D02*
X1355727D01*
X1350310Y1405917D01*
Y1407271D01*
X1351665Y1408625D01*
X1354373D01*
X1355727Y1407271D01*
X1395333Y1074625D02*
X1398042D01*
X1396687D01*
Y1067854D01*
X1398042Y1066500D01*
X1399396D01*
X1400750Y1067854D01*
X1392625Y1065146D02*
X1387208D01*
X1384499Y1066500D02*
Y1074625D01*
X1380437D01*
X1379082Y1073271D01*
Y1070563D01*
X1380437Y1069209D01*
X1384499D01*
X1370957Y1073271D02*
X1372311Y1074625D01*
X1375020D01*
X1376374Y1073271D01*
Y1067854D01*
X1375020Y1066500D01*
X1372311D01*
X1370957Y1067854D01*
X1368248Y1066500D02*
X1365540D01*
X1366894D01*
Y1074625D01*
X1368248Y1073271D01*
X1361477Y1066500D02*
X1358769D01*
X1360123D01*
Y1074625D01*
X1361477Y1073271D01*
X1481333Y1146875D02*
X1484042D01*
X1482687D01*
Y1140104D01*
X1484042Y1138750D01*
X1485396D01*
X1486750Y1140104D01*
X1478625Y1137396D02*
X1473208D01*
X1470499Y1138750D02*
Y1146875D01*
X1466437D01*
X1465082Y1145521D01*
Y1142813D01*
X1466437Y1141458D01*
X1470499D01*
X1456957Y1145521D02*
X1458311Y1146875D01*
X1461020D01*
X1462374Y1145521D01*
Y1140104D01*
X1461020Y1138750D01*
X1458311D01*
X1456957Y1140104D01*
X1454249Y1146875D02*
X1448832D01*
Y1145521D01*
X1454249Y1140104D01*
Y1138750D01*
X1481583Y1123125D02*
X1484292D01*
X1482937D01*
Y1116354D01*
X1484292Y1115000D01*
X1485646D01*
X1487000Y1116354D01*
X1478875Y1113646D02*
X1473458D01*
X1470749Y1115000D02*
Y1123125D01*
X1466687D01*
X1465332Y1121771D01*
Y1119063D01*
X1466687Y1117709D01*
X1470749D01*
X1457207Y1121771D02*
X1458561Y1123125D01*
X1461270D01*
X1462624Y1121771D01*
Y1116354D01*
X1461270Y1115000D01*
X1458561D01*
X1457207Y1116354D01*
X1449082Y1123125D02*
X1451790Y1121771D01*
X1454498Y1119063D01*
Y1116354D01*
X1453144Y1115000D01*
X1450436D01*
X1449082Y1116354D01*
Y1117709D01*
X1450436Y1119063D01*
X1454498D01*
X1481833Y1099375D02*
X1484542D01*
X1483187D01*
Y1092604D01*
X1484542Y1091250D01*
X1485896D01*
X1487250Y1092604D01*
X1479125Y1089896D02*
X1473708D01*
X1470999Y1091250D02*
Y1099375D01*
X1466937D01*
X1465582Y1098021D01*
Y1095313D01*
X1466937Y1093958D01*
X1470999D01*
X1457457Y1098021D02*
X1458811Y1099375D01*
X1461520D01*
X1462874Y1098021D01*
Y1092604D01*
X1461520Y1091250D01*
X1458811D01*
X1457457Y1092604D01*
X1449332Y1099375D02*
X1454749D01*
Y1095313D01*
X1452040Y1096667D01*
X1450686D01*
X1449332Y1095313D01*
Y1092604D01*
X1450686Y1091250D01*
X1453394D01*
X1454749Y1092604D01*
X1386583Y1557665D02*
X1389292D01*
X1387937D01*
Y1550894D01*
X1389292Y1549540D01*
X1390646D01*
X1392000Y1550894D01*
X1383875Y1548186D02*
X1378458D01*
X1375749Y1549540D02*
Y1557665D01*
X1371687D01*
X1370332Y1556311D01*
Y1553603D01*
X1371687Y1552249D01*
X1375749D01*
X1362207Y1556311D02*
X1363561Y1557665D01*
X1366270D01*
X1367624Y1556311D01*
Y1550894D01*
X1366270Y1549540D01*
X1363561D01*
X1362207Y1550894D01*
X1354082Y1549540D02*
X1359498D01*
X1354082Y1554957D01*
Y1556311D01*
X1355436Y1557665D01*
X1358144D01*
X1359498Y1556311D01*
X1386083Y1582049D02*
X1388792D01*
X1387437D01*
Y1575278D01*
X1388792Y1573924D01*
X1390146D01*
X1391500Y1575278D01*
X1383375Y1572570D02*
X1377958D01*
X1375249Y1573924D02*
Y1582049D01*
X1371187D01*
X1369832Y1580695D01*
Y1577987D01*
X1371187Y1576633D01*
X1375249D01*
X1361707Y1580695D02*
X1363061Y1582049D01*
X1365770D01*
X1367124Y1580695D01*
Y1575278D01*
X1365770Y1573924D01*
X1363061D01*
X1361707Y1575278D01*
X1358999Y1573924D02*
X1356290D01*
X1357644D01*
Y1582049D01*
X1358999Y1580695D01*
X1347979Y931583D02*
X1346625Y932937D01*
Y935646D01*
X1347979Y937000D01*
X1353396D01*
X1354750Y935646D01*
Y932937D01*
X1353396Y931583D01*
X1354750Y923458D02*
Y928875D01*
X1349333Y923458D01*
X1347979D01*
X1346625Y924812D01*
Y927520D01*
X1347979Y928875D01*
X1346625Y915332D02*
X1347979Y918041D01*
X1350687Y920749D01*
X1353396D01*
X1354750Y919395D01*
Y916687D01*
X1353396Y915332D01*
X1352041D01*
X1350687Y916687D01*
Y920749D01*
X1327979Y931083D02*
X1326625Y932437D01*
Y935146D01*
X1327979Y936500D01*
X1333396D01*
X1334750Y935146D01*
Y932437D01*
X1333396Y931083D01*
X1334750Y922958D02*
Y928375D01*
X1329333Y922958D01*
X1327979D01*
X1326625Y924312D01*
Y927020D01*
X1327979Y928375D01*
X1326625Y914832D02*
Y920249D01*
X1330687D01*
X1329333Y917541D01*
Y916187D01*
X1330687Y914832D01*
X1333396D01*
X1334750Y916187D01*
Y918895D01*
X1333396Y920249D01*
X1332481Y1192687D02*
X1333835Y1191333D01*
Y1188624D01*
X1332481Y1187270D01*
X1327064D01*
X1325710Y1188624D01*
Y1191333D01*
X1327064Y1192687D01*
X1325710Y1200812D02*
Y1195395D01*
X1331127Y1200812D01*
X1332481D01*
X1333835Y1199458D01*
Y1196750D01*
X1332481Y1195395D01*
X1325710Y1207583D02*
X1333835D01*
X1329773Y1203521D01*
Y1208938D01*
X1355271Y1191917D02*
X1356625Y1190563D01*
Y1187854D01*
X1355271Y1186500D01*
X1349854D01*
X1348500Y1187854D01*
Y1190563D01*
X1349854Y1191917D01*
X1348500Y1200042D02*
Y1194625D01*
X1353917Y1200042D01*
X1355271D01*
X1356625Y1198688D01*
Y1195980D01*
X1355271Y1194625D01*
Y1202751D02*
X1356625Y1204105D01*
Y1206813D01*
X1355271Y1208168D01*
X1353917D01*
X1352563Y1206813D01*
Y1205459D01*
Y1206813D01*
X1351208Y1208168D01*
X1349854D01*
X1348500Y1206813D01*
Y1204105D01*
X1349854Y1202751D01*
X1178382Y1025708D02*
X1178382Y1027623D01*
X1180297Y1029538D01*
X1182212D01*
X1186042Y1025708D01*
Y1023792D01*
X1184127Y1021877D01*
X1182212D01*
X1177424Y1015174D02*
X1181255Y1019005D01*
X1173594D01*
X1172636Y1019962D01*
X1172636Y1021877D01*
X1174551Y1023792D01*
X1176467Y1023792D01*
X1171679Y1009429D02*
X1175509Y1013259D01*
X1167848D01*
X1166891Y1014217D01*
Y1016132D01*
X1168806Y1018047D01*
X1170721Y1018047D01*
X1189132Y1011708D02*
X1189132Y1013623D01*
X1191047Y1015538D01*
X1192962D01*
X1196792Y1011708D01*
Y1009792D01*
X1194877Y1007877D01*
X1192962D01*
X1188174Y1001174D02*
X1192004Y1005005D01*
X1184344D01*
X1183386Y1005962D01*
X1183386Y1007877D01*
X1185301Y1009792D01*
X1187217Y1009792D01*
X1186259Y999259D02*
X1184344Y997344D01*
X1185301Y998301D01*
X1179556Y1004047D01*
X1181471Y1004047D01*
X981333Y975021D02*
X982687Y976375D01*
X985396D01*
X986750Y975021D01*
Y969604D01*
X985396Y968250D01*
X982687D01*
X981333Y969604D01*
X978625Y968250D02*
X975916D01*
X977270D01*
Y976375D01*
X978625Y975021D01*
X971853Y969604D02*
X970499Y968250D01*
X967791D01*
X966437Y969604D01*
Y975021D01*
X967791Y976375D01*
X970499D01*
X971853Y975021D01*
Y973667D01*
X970499Y972313D01*
X966437D01*
X1068132Y1103458D02*
X1068132Y1105373D01*
X1070047Y1107288D01*
X1071962D01*
X1075792Y1103458D01*
Y1101542D01*
X1073877Y1099627D01*
X1071962D01*
X1071004Y1096755D02*
X1069089Y1094839D01*
X1070047Y1095797D01*
X1064301Y1101542D01*
X1066217Y1101542D01*
X1061429Y1096755D02*
X1059513D01*
X1057598Y1094839D01*
X1057598Y1092924D01*
X1058556Y1091967D01*
X1060471D01*
Y1090051D01*
X1061429Y1089094D01*
X1063344D01*
X1065259Y1091009D01*
Y1092924D01*
X1064301Y1093882D01*
X1062386D01*
Y1095797D01*
X1061429Y1096755D01*
X1062386Y1093882D02*
X1060471Y1091967D01*
X1054882Y1113958D02*
X1054882Y1115873D01*
X1056797Y1117788D01*
X1058712D01*
X1062542Y1113958D01*
Y1112042D01*
X1060627Y1110127D01*
X1058712D01*
X1057755Y1107254D02*
X1055839Y1105339D01*
X1056797Y1106297D01*
X1051051Y1112042D01*
X1052967Y1112042D01*
X1047221Y1108212D02*
X1043391Y1104382D01*
X1044348Y1103424D01*
X1052009D01*
X1052967Y1102467D01*
X981083Y993271D02*
X982437Y994625D01*
X985146D01*
X986500Y993271D01*
Y987854D01*
X985146Y986500D01*
X982437D01*
X981083Y987854D01*
X978375Y986500D02*
X975666D01*
X977020D01*
Y994625D01*
X978375Y993271D01*
X966187Y994625D02*
X968895Y993271D01*
X971603Y990563D01*
Y987854D01*
X970249Y986500D01*
X967541D01*
X966187Y987854D01*
Y989209D01*
X967541Y990563D01*
X971603D01*
X1431979Y997833D02*
X1430625Y999187D01*
Y1001896D01*
X1431979Y1003250D01*
X1437396D01*
X1438750Y1001896D01*
Y999187D01*
X1437396Y997833D01*
X1438750Y995125D02*
Y992416D01*
Y993770D01*
X1430625D01*
X1431979Y995125D01*
X1438750Y984291D02*
X1430625D01*
X1434687Y988354D01*
Y982937D01*
X1404333Y872021D02*
X1405687Y873375D01*
X1408396D01*
X1409750Y872021D01*
Y866604D01*
X1408396Y865250D01*
X1405687D01*
X1404333Y866604D01*
X1401625Y865250D02*
X1398916D01*
X1400270D01*
Y873375D01*
X1401625Y872021D01*
X1394854D02*
X1393499Y873375D01*
X1390791D01*
X1389437Y872021D01*
Y870667D01*
X1390791Y869313D01*
X1392145D01*
X1390791D01*
X1389437Y867959D01*
Y866604D01*
X1390791Y865250D01*
X1393499D01*
X1394854Y866604D01*
D22*
X1418000Y1578800D02*
D03*
X1418000Y1553400D02*
D03*
X1418000Y1406000D02*
D03*
X1418000Y1381000D02*
D03*
X1420000Y1144000D02*
D03*
X1420000Y1120000D02*
D03*
X1419999Y1095000D02*
D03*
X1421000Y1071000D02*
D03*
X1384813Y999000D02*
D03*
X935000Y1114160D02*
D03*
X935001Y1062500D02*
D03*
D23*
X1350000Y1012000D02*
D03*
X868000Y1103994D02*
D03*
X845000Y1104202D02*
D03*
X800000Y1103919D02*
D03*
X822500D02*
D03*
D109*
X1179751Y960251D02*
D03*
D110*
X1371000Y895000D02*
D03*
M02*
