G04*
G04 #@! TF.GenerationSoftware,Altium Limited,Altium Designer,18.1.7 (191)*
G04*
G04 Layer_Color=65535*
%FSLAX44Y44*%
%MOMM*%
G71*
G01*
G75*
%ADD10C,0.2540*%
%ADD11C,0.2500*%
%ADD12C,0.5000*%
%ADD13C,0.6000*%
%ADD14C,0.1500*%
%ADD15C,0.2000*%
%ADD16C,0.1000*%
%ADD17C,0.2032*%
%ADD18C,0.0254*%
%ADD19C,0.1984*%
%ADD20R,0.5080X1.5240*%
%ADD21R,1.5240X0.5080*%
G36*
X869646Y1633000D02*
X874646Y1628000D01*
X869646Y1623000D01*
Y1633000D01*
D02*
G37*
G36*
X844397Y1648250D02*
X849396Y1653250D01*
X854397Y1648250D01*
X844397D01*
D02*
G37*
D10*
X849750Y1628000D02*
G03*
X849750Y1628000I-354J0D01*
G01*
X857247D02*
G03*
X857247Y1628000I-7850J0D01*
G01*
X1164618Y894800D02*
G03*
X1164618Y894800I-1521J0D01*
G01*
X942719Y1203450D02*
G03*
X942719Y1209800I0J3175D01*
G01*
X844415Y1203400D02*
G03*
X844415Y1209750I0J3175D01*
G01*
X1045419Y1203150D02*
G03*
X1045419Y1209500I0J3175D01*
G01*
X1322388Y1229800D02*
G03*
X1328738Y1229800I3175J0D01*
G01*
X849396Y1635850D02*
Y1654500D01*
X857247Y1628000D02*
X875896D01*
X849396Y1654500D02*
X854396Y1649500D01*
X844397Y1649500D02*
X849396Y1654500D01*
X870896Y1633000D02*
X875896Y1628000D01*
X870896Y1623000D02*
X875896Y1628000D01*
X1384250Y1639500D02*
Y1649750D01*
X1370000Y1664000D02*
X1384250Y1649750D01*
X1360250Y1664000D02*
X1370000D01*
X1335750Y1640000D02*
Y1650000D01*
X1349750Y1664000D01*
X1360250D01*
X1349250Y1615500D02*
X1359750D01*
X1335750Y1629000D02*
X1349250Y1615500D01*
X1335750Y1629000D02*
Y1640000D01*
X1384250Y1629250D02*
Y1639500D01*
X1370500Y1615500D02*
X1384250Y1629250D01*
X1359750Y1615500D02*
X1370500D01*
X1377250Y1296250D02*
X1379250Y1294250D01*
X1338000Y1296250D02*
X1340000Y1294250D01*
X1338000Y1296250D02*
X1338000D01*
X1338000D02*
Y1296250D01*
X1379250Y1294250D02*
X1440500D01*
X1327750Y1306500D02*
X1338000Y1296250D01*
X1360000Y1303750D02*
X1369750D01*
X1349500D02*
X1360000D01*
X1369750D02*
X1384000Y1289500D01*
X1335500Y1289750D02*
X1349500Y1303750D01*
X1384000Y1279250D02*
Y1289500D01*
X1335500Y1279750D02*
Y1289750D01*
X1349000Y1255250D02*
X1359500D01*
X1335500Y1268750D02*
X1349000Y1255250D01*
X1335500Y1268750D02*
Y1279750D01*
X1384000Y1269000D02*
Y1279250D01*
X1370250Y1255250D02*
X1384000Y1269000D01*
X1359500Y1255250D02*
X1370250D01*
X804000Y1279750D02*
Y1290000D01*
X789750Y1304250D02*
X804000Y1290000D01*
X780000Y1304250D02*
X789750D01*
X755500Y1280250D02*
Y1290250D01*
X769500Y1304250D01*
X780000D01*
X769000Y1255750D02*
X779500D01*
X755500Y1269250D02*
X769000Y1255750D01*
X755500Y1269250D02*
Y1280250D01*
X804000Y1269500D02*
Y1279750D01*
X790250Y1255750D02*
X804000Y1269500D01*
X779500Y1255750D02*
X790250D01*
X720250Y868000D02*
Y878250D01*
X706000Y892500D02*
X720250Y878250D01*
X696250Y892500D02*
X706000D01*
X671750Y868500D02*
Y878500D01*
X685750Y892500D01*
X696250D01*
X685250Y844000D02*
X695750D01*
X671750Y857500D02*
X685250Y844000D01*
X671750Y857500D02*
Y868500D01*
X720250Y857750D02*
Y868000D01*
X706500Y844000D02*
X720250Y857750D01*
X695750Y844000D02*
X706500D01*
X1576750Y893250D02*
Y903500D01*
X1562500Y917750D02*
X1576750Y903500D01*
X1552750Y917750D02*
X1562500D01*
X1528250Y893750D02*
Y903750D01*
X1542250Y917750D01*
X1552750D01*
X1541750Y869250D02*
X1552250D01*
X1528250Y882750D02*
X1541750Y869250D01*
X1528250Y882750D02*
Y893750D01*
X1576750Y883000D02*
Y893250D01*
X1563000Y869250D02*
X1576750Y883000D01*
X1552250Y869250D02*
X1563000D01*
X1577000Y1630000D02*
Y1640250D01*
X1562750Y1654500D02*
X1577000Y1640250D01*
X1553000Y1654500D02*
X1562750D01*
X1528500Y1630500D02*
Y1640500D01*
X1542500Y1654500D01*
X1553000D01*
X1542000Y1606000D02*
X1552500D01*
X1528500Y1619500D02*
X1542000Y1606000D01*
X1528500Y1619500D02*
Y1630500D01*
X1577000Y1619750D02*
Y1630000D01*
X1563250Y1606000D02*
X1577000Y1619750D01*
X1552500Y1606000D02*
X1563250D01*
X720000Y1668000D02*
Y1678250D01*
X705750Y1692500D02*
X720000Y1678250D01*
X696000Y1692500D02*
X705750D01*
X671500Y1668500D02*
Y1678500D01*
X685500Y1692500D01*
X696000D01*
X685000Y1644000D02*
X695500D01*
X671500Y1657500D02*
X685000Y1644000D01*
X671500Y1657500D02*
Y1668500D01*
X720000Y1657750D02*
Y1668000D01*
X706250Y1644000D02*
X720000Y1657750D01*
X695500Y1644000D02*
X706250D01*
X780000Y1616000D02*
X790750D01*
X804500Y1629750D01*
Y1640000D01*
X756000Y1629500D02*
Y1640500D01*
Y1629500D02*
X769500Y1616000D01*
X780000D01*
X770000Y1664500D02*
X780500D01*
X756000Y1650500D02*
X770000Y1664500D01*
X756000Y1640500D02*
Y1650500D01*
X780500Y1664500D02*
X790250D01*
X804500Y1650250D01*
Y1640000D02*
Y1650250D01*
X1060434Y1568138D02*
X1273500D01*
X1327750Y1344000D02*
X1440500D01*
X1327750Y1306500D02*
Y1344000D01*
X1440500Y1294250D02*
Y1344000D01*
X1327706Y1422484D02*
X1433516D01*
X1440750Y1415250D01*
Y1347750D02*
Y1415250D01*
X1327706Y1347750D02*
Y1398380D01*
Y1422484D01*
Y1347750D02*
X1440750D01*
X925250Y837250D02*
Y867000D01*
X849260Y837250D02*
X925250D01*
X849260Y867000D02*
X925250D01*
X849260Y837250D02*
Y867000D01*
X942719Y1190090D02*
Y1203450D01*
Y1209800D02*
Y1223285D01*
X993519D01*
Y1190090D02*
Y1223285D01*
X942719Y1190090D02*
X993519D01*
X844415Y1190040D02*
Y1203400D01*
Y1209750D02*
Y1223235D01*
X895215D01*
Y1190040D02*
Y1223235D01*
X844415Y1190040D02*
X895215D01*
X1045419Y1189790D02*
Y1203150D01*
Y1209500D02*
Y1222985D01*
X1096219D01*
Y1189790D02*
Y1222985D01*
X1045419Y1189790D02*
X1096219D01*
X1309029Y1229800D02*
X1322388D01*
X1328738D02*
X1342223D01*
Y1179000D02*
Y1229800D01*
X1309029Y1179000D02*
X1342223D01*
X1309029D02*
Y1229800D01*
X1233714Y1671000D02*
X1238714Y1666000D01*
X1228714D02*
X1233714Y1671000D01*
X1228714Y1666000D02*
X1238714D01*
X1228714Y1671000D02*
X1238714D01*
X1260000D02*
X1265000Y1666000D01*
X1255000D02*
X1260000Y1671000D01*
X1255000Y1666000D02*
X1265000D01*
X1255000Y1671000D02*
X1265000D01*
X1207429D02*
X1212429Y1666000D01*
X1202429D02*
X1207429Y1671000D01*
X1202429Y1666000D02*
X1212429D01*
X1202429Y1671000D02*
X1212429D01*
X1181143D02*
X1186143Y1666000D01*
X1176143D02*
X1181143Y1671000D01*
X1176143Y1666000D02*
X1186143D01*
X1176143Y1671000D02*
X1186143D01*
X1154857D02*
X1159857Y1666000D01*
X1149857D02*
X1154857Y1671000D01*
X1149857Y1666000D02*
X1159857D01*
X1149857Y1671000D02*
X1159857D01*
X1128571D02*
X1133571Y1666000D01*
X1123571D02*
X1128571Y1671000D01*
X1123571Y1666000D02*
X1133571D01*
X1123571Y1671000D02*
X1133571D01*
X1102000Y1671056D02*
X1107000Y1666056D01*
X1097000D02*
X1102000Y1671056D01*
X1097000Y1666056D02*
X1107000D01*
X1097000Y1671056D02*
X1107000D01*
X1075600Y1671250D02*
X1080600Y1666250D01*
X1070600D02*
X1075600Y1671250D01*
X1070600Y1666250D02*
X1080600D01*
X1070600Y1671250D02*
X1080600D01*
X685130Y1210340D02*
X714880D01*
Y1134350D02*
Y1210340D01*
X685130Y1134350D02*
Y1210340D01*
Y1134350D02*
X714880D01*
X677578Y1597867D02*
X672500D01*
Y1594059D01*
X675039D01*
X672500D01*
Y1590250D01*
X680117Y1597867D02*
Y1590250D01*
X683926D01*
X685196Y1591520D01*
Y1596598D01*
X683926Y1597867D01*
X680117D01*
X687735Y1588980D02*
X692813D01*
X695353Y1597867D02*
X700431D01*
X697892D01*
Y1590250D01*
X702970Y1597867D02*
Y1590250D01*
X708048D01*
X1295828Y1628367D02*
X1290750D01*
Y1624559D01*
X1293289D01*
X1290750D01*
Y1620750D01*
X1298368Y1628367D02*
Y1620750D01*
X1302176D01*
X1303446Y1622020D01*
Y1627098D01*
X1302176Y1628367D01*
X1298368D01*
X1305985Y1619480D02*
X1311063D01*
X1313603Y1628367D02*
X1318681D01*
X1316142D01*
Y1620750D01*
X1321220D02*
Y1628367D01*
X1325029D01*
X1326299Y1627098D01*
Y1624559D01*
X1325029Y1623289D01*
X1321220D01*
X1323759D02*
X1326299Y1620750D01*
X1476078Y903367D02*
X1471000D01*
Y899559D01*
X1473539D01*
X1471000D01*
Y895750D01*
X1478618Y903367D02*
Y895750D01*
X1482426D01*
X1483696Y897020D01*
Y902098D01*
X1482426Y903367D01*
X1478618D01*
X1486235Y894480D02*
X1491313D01*
X1493853Y903367D02*
Y895750D01*
X1497661D01*
X1498931Y897020D01*
Y898289D01*
X1497661Y899559D01*
X1493853D01*
X1497661D01*
X1498931Y900828D01*
Y902098D01*
X1497661Y903367D01*
X1493853D01*
X1501470Y895750D02*
Y903367D01*
X1505279D01*
X1506548Y902098D01*
Y899559D01*
X1505279Y898289D01*
X1501470D01*
X1504009D02*
X1506548Y895750D01*
X727828Y1361098D02*
X726559Y1362368D01*
X724020D01*
X722750Y1361098D01*
Y1356020D01*
X724020Y1354750D01*
X726559D01*
X727828Y1356020D01*
Y1358559D01*
X725289D01*
X730368Y1354750D02*
Y1362368D01*
X735446Y1354750D01*
Y1362368D01*
X737985D02*
Y1354750D01*
X741794D01*
X743063Y1356020D01*
Y1361098D01*
X741794Y1362368D01*
X737985D01*
X762034Y1233848D02*
X760765Y1235117D01*
X758225D01*
X756956Y1233848D01*
Y1228770D01*
X758225Y1227500D01*
X760765D01*
X762034Y1228770D01*
Y1231309D01*
X759495D01*
X764573Y1227500D02*
Y1235117D01*
X769652Y1227500D01*
Y1235117D01*
X772191D02*
Y1227500D01*
X776000D01*
X777269Y1228770D01*
Y1233848D01*
X776000Y1235117D01*
X772191D01*
X686718Y1035598D02*
X685449Y1036868D01*
X682909D01*
X681640Y1035598D01*
Y1030520D01*
X682909Y1029250D01*
X685449D01*
X686718Y1030520D01*
Y1033059D01*
X684179D01*
X689257Y1029250D02*
Y1036868D01*
X694336Y1029250D01*
Y1036868D01*
X696875D02*
Y1029250D01*
X700684D01*
X701953Y1030520D01*
Y1035598D01*
X700684Y1036868D01*
X696875D01*
X925304Y956848D02*
X924035Y958118D01*
X921495D01*
X920226Y956848D01*
Y951770D01*
X921495Y950500D01*
X924035D01*
X925304Y951770D01*
Y954309D01*
X922765D01*
X927843Y950500D02*
Y958118D01*
X932922Y950500D01*
Y958118D01*
X935461D02*
Y950500D01*
X939270D01*
X940539Y951770D01*
Y956848D01*
X939270Y958118D01*
X935461D01*
X1116034Y1331098D02*
X1114765Y1332368D01*
X1112225D01*
X1110956Y1331098D01*
Y1326020D01*
X1112225Y1324750D01*
X1114765D01*
X1116034Y1326020D01*
Y1328559D01*
X1113495D01*
X1118573Y1324750D02*
Y1332368D01*
X1123652Y1324750D01*
Y1332368D01*
X1126191D02*
Y1324750D01*
X1130000D01*
X1131269Y1326020D01*
Y1331098D01*
X1130000Y1332368D01*
X1126191D01*
X1389034Y1529598D02*
X1387765Y1530867D01*
X1385225D01*
X1383956Y1529598D01*
Y1524520D01*
X1385225Y1523250D01*
X1387765D01*
X1389034Y1524520D01*
Y1527059D01*
X1386495D01*
X1391573Y1523250D02*
Y1530867D01*
X1396652Y1523250D01*
Y1530867D01*
X1399191D02*
Y1523250D01*
X1403000D01*
X1404269Y1524520D01*
Y1529598D01*
X1403000Y1530867D01*
X1399191D01*
X827896Y1615559D02*
X832975D01*
X830436Y1618098D02*
Y1613020D01*
X835514Y1619368D02*
X840592D01*
Y1618098D01*
X835514Y1613020D01*
Y1611750D01*
X840592D01*
X880646Y1628059D02*
X885725D01*
X883186Y1630598D02*
Y1625520D01*
X888264Y1631868D02*
X893342Y1624250D01*
Y1631868D02*
X888264Y1624250D01*
X843646Y1664559D02*
X848725D01*
X846186Y1667098D02*
Y1662020D01*
X851264Y1668367D02*
Y1667098D01*
X853803Y1664559D01*
X856342Y1667098D01*
Y1668367D01*
X853803Y1664559D02*
Y1660750D01*
X983078Y1690098D02*
X981809Y1691367D01*
X979270D01*
X978000Y1690098D01*
Y1685020D01*
X979270Y1683750D01*
X981809D01*
X983078Y1685020D01*
Y1687559D01*
X980539D01*
X985618Y1683750D02*
Y1691367D01*
X990696Y1683750D01*
Y1691367D01*
X993235D02*
Y1683750D01*
X997044D01*
X998313Y1685020D01*
Y1690098D01*
X997044Y1691367D01*
X993235D01*
X791750Y1416207D02*
Y1408590D01*
X795559D01*
X796828Y1409860D01*
Y1414938D01*
X795559Y1416207D01*
X791750D01*
X799368D02*
Y1411129D01*
X801907Y1408590D01*
X804446Y1411129D01*
Y1416207D01*
X812063Y1414938D02*
X810794Y1416207D01*
X808255D01*
X806985Y1414938D01*
Y1409860D01*
X808255Y1408590D01*
X810794D01*
X812063Y1409860D01*
X819681Y1414938D02*
X818411Y1416207D01*
X815872D01*
X814603Y1414938D01*
Y1409860D01*
X815872Y1408590D01*
X818411D01*
X819681Y1409860D01*
X799368Y1420670D02*
Y1425748D01*
X801907Y1428288D01*
X804446Y1425748D01*
Y1420670D01*
Y1424479D01*
X799368D01*
X806985Y1420670D02*
Y1428288D01*
X812063Y1420670D01*
Y1428288D01*
X814603D02*
X819681D01*
X817142D01*
Y1420670D01*
X799368Y1440479D02*
Y1432862D01*
X803176D01*
X804446Y1434131D01*
Y1435401D01*
X803176Y1436671D01*
X799368D01*
X803176D01*
X804446Y1437940D01*
Y1439210D01*
X803176Y1440479D01*
X799368D01*
X806985Y1432862D02*
Y1437940D01*
X809524Y1440479D01*
X812063Y1437940D01*
Y1432862D01*
Y1436671D01*
X806985D01*
X814603Y1440479D02*
X819681D01*
X817142D01*
Y1432862D01*
X798098Y1456872D02*
X796828Y1458141D01*
X794289D01*
X793020Y1456872D01*
Y1451794D01*
X794289Y1450524D01*
X796828D01*
X798098Y1451794D01*
Y1454333D01*
X795559D01*
X800637Y1450524D02*
Y1458141D01*
X804446D01*
X805715Y1456872D01*
Y1454333D01*
X804446Y1453063D01*
X800637D01*
X808255Y1458141D02*
X810794D01*
X809524D01*
Y1450524D01*
X808255D01*
X810794D01*
X818411Y1458141D02*
X815872D01*
X814603Y1456872D01*
Y1451794D01*
X815872Y1450524D01*
X818411D01*
X819681Y1451794D01*
Y1456872D01*
X818411Y1458141D01*
X806985Y1479622D02*
X805715Y1480892D01*
X803176D01*
X801907Y1479622D01*
Y1478352D01*
X803176Y1477083D01*
X805715D01*
X806985Y1475813D01*
Y1474544D01*
X805715Y1473274D01*
X803176D01*
X801907Y1474544D01*
X809524Y1473274D02*
Y1480892D01*
X813333D01*
X814603Y1479622D01*
Y1477083D01*
X813333Y1475813D01*
X809524D01*
X817142Y1480892D02*
X819681D01*
X818411D01*
Y1473274D01*
X817142D01*
X819681D01*
X812063Y1504372D02*
X810794Y1505641D01*
X808255D01*
X806985Y1504372D01*
Y1499294D01*
X808255Y1498024D01*
X810794D01*
X812063Y1499294D01*
X819681Y1504372D02*
X818411Y1505641D01*
X815872D01*
X814603Y1504372D01*
Y1503102D01*
X815872Y1501833D01*
X818411D01*
X819681Y1500563D01*
Y1499294D01*
X818411Y1498024D01*
X815872D01*
X814603Y1499294D01*
X946828Y1426178D02*
X945559Y1427448D01*
X943020D01*
X941750Y1426178D01*
Y1421100D01*
X943020Y1419830D01*
X945559D01*
X946828Y1421100D01*
Y1423639D01*
X944289D01*
X949368Y1419830D02*
Y1427448D01*
X954446Y1419830D01*
Y1427448D01*
X956985D02*
Y1419830D01*
X960794D01*
X962063Y1421100D01*
Y1426178D01*
X960794Y1427448D01*
X956985D01*
X946828Y1454098D02*
X945559Y1455367D01*
X943020D01*
X941750Y1454098D01*
Y1449020D01*
X943020Y1447750D01*
X945559D01*
X946828Y1449020D01*
Y1451559D01*
X944289D01*
X949368Y1447750D02*
Y1455367D01*
X953176D01*
X954446Y1454098D01*
Y1451559D01*
X953176Y1450289D01*
X949368D01*
X956985Y1455367D02*
X959524D01*
X958255D01*
Y1447750D01*
X956985D01*
X959524D01*
X967142Y1455367D02*
X964603D01*
X963333Y1454098D01*
Y1449020D01*
X964603Y1447750D01*
X967142D01*
X968411Y1449020D01*
Y1454098D01*
X967142Y1455367D01*
X941750Y1470750D02*
Y1475828D01*
X944289Y1478368D01*
X946828Y1475828D01*
Y1470750D01*
Y1474559D01*
X941750D01*
X949368Y1478368D02*
Y1470750D01*
X953176D01*
X954446Y1472020D01*
Y1477098D01*
X953176Y1478368D01*
X949368D01*
X962063Y1477098D02*
X960794Y1478368D01*
X958255D01*
X956985Y1477098D01*
Y1472020D01*
X958255Y1470750D01*
X960794D01*
X962063Y1472020D01*
X941750Y1502868D02*
X944289D01*
X943020D01*
Y1495250D01*
X941750D01*
X944289D01*
X953176D02*
X948098D01*
X953176Y1500328D01*
Y1501598D01*
X951907Y1502868D01*
X949368D01*
X948098Y1501598D01*
X960794D02*
X959524Y1502868D01*
X956985D01*
X955715Y1501598D01*
Y1496520D01*
X956985Y1495250D01*
X959524D01*
X960794Y1496520D01*
X1317750Y1678674D02*
Y1671056D01*
X1321559D01*
X1322828Y1672326D01*
Y1677404D01*
X1321559Y1678674D01*
X1317750D01*
X1325367Y1669786D02*
X1330446D01*
X1332985Y1678674D02*
Y1671056D01*
X1336794D01*
X1338063Y1672326D01*
Y1673595D01*
X1336794Y1674865D01*
X1332985D01*
X1336794D01*
X1338063Y1676134D01*
Y1677404D01*
X1336794Y1678674D01*
X1332985D01*
X1344411D02*
X1341872D01*
X1340603Y1677404D01*
Y1672326D01*
X1341872Y1671056D01*
X1344411D01*
X1345681Y1672326D01*
Y1677404D01*
X1344411Y1678674D01*
X1348220Y1671056D02*
Y1676134D01*
X1350759Y1678674D01*
X1353298Y1676134D01*
Y1671056D01*
Y1674865D01*
X1348220D01*
X1355838Y1671056D02*
Y1678674D01*
X1359646D01*
X1360916Y1677404D01*
Y1674865D01*
X1359646Y1673595D01*
X1355838D01*
X1358377D02*
X1360916Y1671056D01*
X1363455Y1678674D02*
Y1671056D01*
X1367264D01*
X1368534Y1672326D01*
Y1677404D01*
X1367264Y1678674D01*
X1363455D01*
X1371073Y1669786D02*
X1376151D01*
X1383769Y1677404D02*
X1382499Y1678674D01*
X1379960D01*
X1378690Y1677404D01*
Y1672326D01*
X1379960Y1671056D01*
X1382499D01*
X1383769Y1672326D01*
Y1674865D01*
X1381230D01*
X1386308Y1671056D02*
Y1678674D01*
X1391386Y1671056D01*
Y1678674D01*
X1393925D02*
Y1671056D01*
X1397734D01*
X1399004Y1672326D01*
Y1677404D01*
X1397734Y1678674D01*
X1393925D01*
X915652Y895618D02*
X914382Y894349D01*
Y891810D01*
X915652Y890540D01*
X920730D01*
X922000Y891810D01*
Y894349D01*
X920730Y895618D01*
X918191D01*
Y893079D01*
X922000Y898158D02*
X914382D01*
X922000Y903236D01*
X914382D01*
Y905775D02*
X922000D01*
Y909584D01*
X920730Y910853D01*
X915652D01*
X914382Y909584D01*
Y905775D01*
X908797Y890540D02*
X901180D01*
Y894349D01*
X902449Y895618D01*
X904989D01*
X906258Y894349D01*
Y890540D01*
Y893079D02*
X908797Y895618D01*
X901180Y898158D02*
X908797Y903236D01*
X901180D02*
X908797Y898158D01*
X888668Y890540D02*
Y895618D01*
Y893079D01*
X896286D01*
X888668Y898158D02*
X896286Y903236D01*
X888668D02*
X896286Y898158D01*
X876156Y890540D02*
Y895618D01*
Y893079D01*
X883774D01*
X877426Y903236D02*
X876156Y901966D01*
Y899427D01*
X877426Y898158D01*
X882504D01*
X883774Y899427D01*
Y901966D01*
X882504Y903236D01*
X876156Y905775D02*
X883774D01*
X881235D01*
X876156Y910853D01*
X879965Y907045D01*
X883774Y910853D01*
X863644Y890540D02*
Y895618D01*
Y893079D01*
X871262D01*
X863644Y898158D02*
X871262D01*
Y901966D01*
X869992Y903236D01*
X864914D01*
X863644Y901966D01*
Y898158D01*
Y909584D02*
Y907045D01*
X864914Y905775D01*
X869992D01*
X871262Y907045D01*
Y909584D01*
X869992Y910853D01*
X864914D01*
X863644Y909584D01*
X851133Y890540D02*
X856211D01*
X858750Y893079D01*
X856211Y895618D01*
X851133D01*
X852402Y903236D02*
X851133Y901966D01*
Y899427D01*
X852402Y898158D01*
X857480D01*
X858750Y899427D01*
Y901966D01*
X857480Y903236D01*
X852402Y910853D02*
X851133Y909584D01*
Y907045D01*
X852402Y905775D01*
X857480D01*
X858750Y907045D01*
Y909584D01*
X857480Y910853D01*
X742750Y1202250D02*
Y1207328D01*
X745289Y1209867D01*
X747828Y1207328D01*
Y1202250D01*
Y1206059D01*
X742750D01*
X750368Y1202250D02*
Y1209867D01*
X755446Y1202250D01*
Y1209867D01*
X757985D02*
X763063D01*
X760524D01*
Y1202250D01*
X765603Y1200980D02*
X770681D01*
X773220Y1209867D02*
Y1204789D01*
X775759Y1202250D01*
X778298Y1204789D01*
Y1209867D01*
X785916Y1208598D02*
X784647Y1209867D01*
X782107D01*
X780838Y1208598D01*
Y1203520D01*
X782107Y1202250D01*
X784647D01*
X785916Y1203520D01*
X793534Y1208598D02*
X792264Y1209867D01*
X789725D01*
X788455Y1208598D01*
Y1203520D01*
X789725Y1202250D01*
X792264D01*
X793534Y1203520D01*
X742750Y1189704D02*
Y1194782D01*
X745289Y1197321D01*
X747828Y1194782D01*
Y1189704D01*
Y1193513D01*
X742750D01*
X750368Y1189704D02*
Y1197321D01*
X755446Y1189704D01*
Y1197321D01*
X757985D02*
X763063D01*
X760524D01*
Y1189704D01*
X765603Y1188434D02*
X770681D01*
X773220Y1197321D02*
Y1192243D01*
X775759Y1189704D01*
X778298Y1192243D01*
Y1197321D01*
X785916Y1196052D02*
X784647Y1197321D01*
X782107D01*
X780838Y1196052D01*
Y1190974D01*
X782107Y1189704D01*
X784647D01*
X785916Y1190974D01*
X793534Y1196052D02*
X792264Y1197321D01*
X789725D01*
X788455Y1196052D01*
Y1190974D01*
X789725Y1189704D01*
X792264D01*
X793534Y1190974D01*
X742750Y1184775D02*
X745289D01*
X744020D01*
Y1177158D01*
X742750D01*
X745289D01*
X754176D02*
X749098D01*
X754176Y1182236D01*
Y1183506D01*
X752907Y1184775D01*
X750368D01*
X749098Y1183506D01*
X761794D02*
X760524Y1184775D01*
X757985D01*
X756715Y1183506D01*
Y1178427D01*
X757985Y1177158D01*
X760524D01*
X761794Y1178427D01*
X764333Y1175888D02*
X769411D01*
X777029Y1183506D02*
X775759Y1184775D01*
X773220D01*
X771951Y1183506D01*
Y1182236D01*
X773220Y1180967D01*
X775759D01*
X777029Y1179697D01*
Y1178427D01*
X775759Y1177158D01*
X773220D01*
X771951Y1178427D01*
X779568Y1184775D02*
Y1177158D01*
X783377D01*
X784646Y1178427D01*
Y1183506D01*
X783377Y1184775D01*
X779568D01*
X787186Y1177158D02*
Y1182236D01*
X789725Y1184775D01*
X792264Y1182236D01*
Y1177158D01*
Y1180967D01*
X787186D01*
X742750Y1172229D02*
X745289D01*
X744020D01*
Y1164612D01*
X742750D01*
X745289D01*
X754176D02*
X749098D01*
X754176Y1169690D01*
Y1170960D01*
X752907Y1172229D01*
X750368D01*
X749098Y1170960D01*
X761794D02*
X760524Y1172229D01*
X757985D01*
X756715Y1170960D01*
Y1165881D01*
X757985Y1164612D01*
X760524D01*
X761794Y1165881D01*
X764333Y1163342D02*
X769411D01*
X777029Y1170960D02*
X775759Y1172229D01*
X773220D01*
X771951Y1170960D01*
Y1169690D01*
X773220Y1168420D01*
X775759D01*
X777029Y1167151D01*
Y1165881D01*
X775759Y1164612D01*
X773220D01*
X771951Y1165881D01*
X784646Y1170960D02*
X783377Y1172229D01*
X780838D01*
X779568Y1170960D01*
Y1165881D01*
X780838Y1164612D01*
X783377D01*
X784646Y1165881D01*
X787186Y1172229D02*
Y1164612D01*
X792264D01*
X747828Y1157144D02*
X746559Y1158414D01*
X744020D01*
X742750Y1157144D01*
Y1152066D01*
X744020Y1150796D01*
X746559D01*
X747828Y1152066D01*
Y1154605D01*
X745289D01*
X750368Y1150796D02*
Y1158414D01*
X754176D01*
X755446Y1157144D01*
Y1154605D01*
X754176Y1153335D01*
X750368D01*
X757985Y1158414D02*
X760524D01*
X759255D01*
Y1150796D01*
X757985D01*
X760524D01*
X768142Y1158414D02*
X765603D01*
X764333Y1157144D01*
Y1152066D01*
X765603Y1150796D01*
X768142D01*
X769411Y1152066D01*
Y1157144D01*
X768142Y1158414D01*
X747828Y1144598D02*
X746559Y1145867D01*
X744020D01*
X742750Y1144598D01*
Y1139520D01*
X744020Y1138250D01*
X746559D01*
X747828Y1139520D01*
Y1142059D01*
X745289D01*
X750368Y1138250D02*
Y1145867D01*
X755446Y1138250D01*
Y1145867D01*
X757985D02*
Y1138250D01*
X761794D01*
X763063Y1139520D01*
Y1144598D01*
X761794Y1145867D01*
X757985D01*
X715078Y1400098D02*
X713809Y1401367D01*
X711270D01*
X710000Y1400098D01*
Y1395020D01*
X711270Y1393750D01*
X713809D01*
X715078Y1395020D01*
Y1397559D01*
X712539D01*
X717617Y1393750D02*
Y1401367D01*
X722696Y1393750D01*
Y1401367D01*
X725235D02*
Y1393750D01*
X729044D01*
X730313Y1395020D01*
Y1400098D01*
X729044Y1401367D01*
X725235D01*
X715078Y1425209D02*
X713809Y1426479D01*
X711270D01*
X710000Y1425209D01*
Y1420131D01*
X711270Y1418861D01*
X713809D01*
X715078Y1420131D01*
Y1422670D01*
X712539D01*
X717617Y1418861D02*
Y1426479D01*
X721426D01*
X722696Y1425209D01*
Y1422670D01*
X721426Y1421401D01*
X717617D01*
X725235Y1426479D02*
X727774D01*
X726505D01*
Y1418861D01*
X725235D01*
X727774D01*
X735392Y1426479D02*
X732853D01*
X731583Y1425209D01*
Y1420131D01*
X732853Y1418861D01*
X735392D01*
X736661Y1420131D01*
Y1425209D01*
X735392Y1426479D01*
X710000Y1453283D02*
X712539D01*
X711270D01*
Y1445666D01*
X710000D01*
X712539D01*
X721426D02*
X716348D01*
X721426Y1450744D01*
Y1452014D01*
X720157Y1453283D01*
X717617D01*
X716348Y1452014D01*
X729044D02*
X727774Y1453283D01*
X725235D01*
X723966Y1452014D01*
Y1446935D01*
X725235Y1445666D01*
X727774D01*
X729044Y1446935D01*
X731583Y1444396D02*
X736661D01*
X744279Y1452014D02*
X743009Y1453283D01*
X740470D01*
X739201Y1452014D01*
Y1450744D01*
X740470Y1449474D01*
X743009D01*
X744279Y1448205D01*
Y1446935D01*
X743009Y1445666D01*
X740470D01*
X739201Y1446935D01*
X751896Y1452014D02*
X750627Y1453283D01*
X748088D01*
X746818Y1452014D01*
Y1446935D01*
X748088Y1445666D01*
X750627D01*
X751896Y1446935D01*
X754436Y1453283D02*
Y1445666D01*
X759514D01*
X710000Y1478395D02*
X712539D01*
X711270D01*
Y1470777D01*
X710000D01*
X712539D01*
X721426D02*
X716348D01*
X721426Y1475855D01*
Y1477125D01*
X720157Y1478395D01*
X717617D01*
X716348Y1477125D01*
X729044D02*
X727774Y1478395D01*
X725235D01*
X723966Y1477125D01*
Y1472047D01*
X725235Y1470777D01*
X727774D01*
X729044Y1472047D01*
X731583Y1469507D02*
X736661D01*
X744279Y1477125D02*
X743009Y1478395D01*
X740470D01*
X739201Y1477125D01*
Y1475855D01*
X740470Y1474586D01*
X743009D01*
X744279Y1473316D01*
Y1472047D01*
X743009Y1470777D01*
X740470D01*
X739201Y1472047D01*
X746818Y1478395D02*
Y1470777D01*
X750627D01*
X751896Y1472047D01*
Y1477125D01*
X750627Y1478395D01*
X746818D01*
X754436Y1470777D02*
Y1475855D01*
X756975Y1478395D01*
X759514Y1475855D01*
Y1470777D01*
Y1474586D01*
X754436D01*
X710000Y1495889D02*
Y1500967D01*
X712539Y1503506D01*
X715078Y1500967D01*
Y1495889D01*
Y1499697D01*
X710000D01*
X717617Y1495889D02*
Y1503506D01*
X722696Y1495889D01*
Y1503506D01*
X725235D02*
X730313D01*
X727774D01*
Y1495889D01*
X732853Y1494619D02*
X737931D01*
X740470Y1503506D02*
Y1498428D01*
X743009Y1495889D01*
X745548Y1498428D01*
Y1503506D01*
X753166Y1502236D02*
X751897Y1503506D01*
X749357D01*
X748088Y1502236D01*
Y1497158D01*
X749357Y1495889D01*
X751897D01*
X753166Y1497158D01*
X760784Y1502236D02*
X759514Y1503506D01*
X756975D01*
X755705Y1502236D01*
Y1497158D01*
X756975Y1495889D01*
X759514D01*
X760784Y1497158D01*
X710000Y1521000D02*
Y1526078D01*
X712539Y1528617D01*
X715078Y1526078D01*
Y1521000D01*
Y1524809D01*
X710000D01*
X717617Y1521000D02*
Y1528617D01*
X722696Y1521000D01*
Y1528617D01*
X725235D02*
X730313D01*
X727774D01*
Y1521000D01*
X732853Y1519730D02*
X737931D01*
X740470Y1528617D02*
Y1523539D01*
X743009Y1521000D01*
X745548Y1523539D01*
Y1528617D01*
X753166Y1527348D02*
X751897Y1528617D01*
X749357D01*
X748088Y1527348D01*
Y1522269D01*
X749357Y1521000D01*
X751897D01*
X753166Y1522269D01*
X760784Y1527348D02*
X759514Y1528617D01*
X756975D01*
X755705Y1527348D01*
Y1522269D01*
X756975Y1521000D01*
X759514D01*
X760784Y1522269D01*
X1229771Y844407D02*
X1226386D01*
X1228078D01*
Y835943D01*
X1226386Y834250D01*
X1224693D01*
X1223000Y835943D01*
X1233157Y832557D02*
X1239928D01*
X1250085Y842714D02*
X1248392Y844407D01*
X1245006D01*
X1243313Y842714D01*
Y841021D01*
X1245006Y839328D01*
X1248392D01*
X1250085Y837636D01*
Y835943D01*
X1248392Y834250D01*
X1245006D01*
X1243313Y835943D01*
X1253470Y844407D02*
Y835943D01*
X1255163Y834250D01*
X1258549D01*
X1260241Y835943D01*
Y844407D01*
X1263627Y834250D02*
Y844407D01*
X1268705D01*
X1270398Y842714D01*
Y839328D01*
X1268705Y837636D01*
X1263627D01*
X1273784Y834250D02*
Y844407D01*
X1278862D01*
X1280555Y842714D01*
Y839328D01*
X1278862Y837636D01*
X1273784D01*
X1283940Y844407D02*
Y834250D01*
X1290712D01*
X1294097Y844407D02*
Y842714D01*
X1297483Y839328D01*
X1300868Y842714D01*
Y844407D01*
X1297483Y839328D02*
Y834250D01*
X804521Y879907D02*
X801136D01*
X802828D01*
Y871443D01*
X801136Y869750D01*
X799443D01*
X797750Y871443D01*
X807907Y879907D02*
X814678D01*
X811292D01*
Y869750D01*
X818063D02*
Y876521D01*
X821449Y879907D01*
X824835Y876521D01*
Y869750D01*
Y874828D01*
X818063D01*
X834991Y878214D02*
X833298Y879907D01*
X829913D01*
X828220Y878214D01*
Y871443D01*
X829913Y869750D01*
X833298D01*
X834991Y871443D01*
Y874828D01*
X831606D01*
X1022521Y899407D02*
X1019136D01*
X1020828D01*
Y890943D01*
X1019136Y889250D01*
X1017443D01*
X1015750Y890943D01*
X1025907Y899407D02*
X1032678D01*
X1029292D01*
Y889250D01*
X1036063D02*
Y896021D01*
X1039449Y899407D01*
X1042835Y896021D01*
Y889250D01*
Y894328D01*
X1036063D01*
X1052991Y897714D02*
X1051299Y899407D01*
X1047913D01*
X1046220Y897714D01*
Y890943D01*
X1047913Y889250D01*
X1051299D01*
X1052991Y890943D01*
Y894328D01*
X1049606D01*
X679500Y1088000D02*
Y1094771D01*
X682886Y1098157D01*
X686271Y1094771D01*
Y1088000D01*
Y1093078D01*
X679500D01*
X689657Y1088000D02*
Y1098157D01*
X696428Y1088000D01*
Y1098157D01*
X699814D02*
X706585D01*
X703199D01*
Y1088000D01*
X677000Y1370500D02*
Y1377271D01*
X680386Y1380657D01*
X683771Y1377271D01*
Y1370500D01*
Y1375578D01*
X677000D01*
X687157Y1370500D02*
Y1380657D01*
X693928Y1370500D01*
Y1380657D01*
X697313D02*
X704085D01*
X700699D01*
Y1370500D01*
X844250Y1396907D02*
Y1386750D01*
X849328D01*
X851021Y1388443D01*
Y1395214D01*
X849328Y1396907D01*
X844250D01*
X854407Y1385057D02*
X861178D01*
X864563Y1396907D02*
Y1386750D01*
X869642D01*
X871335Y1388443D01*
Y1390136D01*
X869642Y1391828D01*
X864563D01*
X869642D01*
X871335Y1393521D01*
Y1395214D01*
X869642Y1396907D01*
X864563D01*
X879799D02*
X876413D01*
X874720Y1395214D01*
Y1388443D01*
X876413Y1386750D01*
X879799D01*
X881491Y1388443D01*
Y1395214D01*
X879799Y1396907D01*
X884877Y1386750D02*
Y1393521D01*
X888262Y1396907D01*
X891648Y1393521D01*
Y1386750D01*
Y1391828D01*
X884877D01*
X895034Y1386750D02*
Y1396907D01*
X900112D01*
X901805Y1395214D01*
Y1391828D01*
X900112Y1390136D01*
X895034D01*
X898419D02*
X901805Y1386750D01*
X905190Y1396907D02*
Y1386750D01*
X910269D01*
X911962Y1388443D01*
Y1395214D01*
X910269Y1396907D01*
X905190D01*
X1077796Y1509470D02*
X1072718D01*
X1070178Y1512009D01*
X1072718Y1514548D01*
X1077796D01*
X1073987D01*
Y1509470D01*
X1077796Y1517088D02*
X1070178D01*
X1077796Y1522166D01*
X1070178D01*
Y1524705D02*
Y1529784D01*
Y1527244D01*
X1077796D01*
X1079065Y1532323D02*
Y1537401D01*
X1070178Y1539940D02*
X1075257D01*
X1077796Y1542480D01*
X1075257Y1545019D01*
X1070178D01*
X1071448Y1552636D02*
X1070178Y1551367D01*
Y1548827D01*
X1071448Y1547558D01*
X1076526D01*
X1077796Y1548827D01*
Y1551367D01*
X1076526Y1552636D01*
X1071448Y1560254D02*
X1070178Y1558984D01*
Y1556445D01*
X1071448Y1555175D01*
X1076526D01*
X1077796Y1556445D01*
Y1558984D01*
X1076526Y1560254D01*
X1096880Y1498044D02*
Y1495505D01*
X1098150Y1494235D01*
X1103228D01*
X1104498Y1495505D01*
Y1498044D01*
X1103228Y1499313D01*
X1098150D01*
X1096880Y1498044D01*
Y1501853D02*
X1104498D01*
Y1505661D01*
X1103228Y1506931D01*
X1101959D01*
X1100689Y1505661D01*
Y1501853D01*
Y1505661D01*
X1099419Y1506931D01*
X1098150D01*
X1096880Y1505661D01*
Y1501853D01*
Y1509470D02*
X1104498D01*
Y1513279D01*
X1103228Y1514548D01*
X1098150D01*
X1096880Y1513279D01*
Y1509470D01*
Y1517088D02*
X1104498D01*
X1100689D01*
Y1522166D01*
X1096880D01*
X1104498D01*
X1105768Y1524705D02*
Y1529784D01*
X1096880Y1532323D02*
X1104498D01*
Y1536131D01*
X1103228Y1537401D01*
X1098150D01*
X1096880Y1536131D01*
Y1532323D01*
Y1539940D02*
X1101959D01*
X1104498Y1542480D01*
X1101959Y1545019D01*
X1096880D01*
X1098150Y1552636D02*
X1096880Y1551367D01*
Y1548827D01*
X1098150Y1547558D01*
X1103228D01*
X1104498Y1548827D01*
Y1551367D01*
X1103228Y1552636D01*
X1098150Y1560254D02*
X1096880Y1558984D01*
Y1556445D01*
X1098150Y1555175D01*
X1103228D01*
X1104498Y1556445D01*
Y1558984D01*
X1103228Y1560254D01*
X1123582Y1503122D02*
X1129930D01*
X1131200Y1504392D01*
Y1506931D01*
X1129930Y1508201D01*
X1123582D01*
X1131200Y1510740D02*
X1126122D01*
X1123582Y1513279D01*
X1126122Y1515818D01*
X1131200D01*
X1127391D01*
Y1510740D01*
X1131200Y1518357D02*
X1123582D01*
Y1522166D01*
X1124852Y1523436D01*
X1127391D01*
X1128661Y1522166D01*
Y1518357D01*
Y1520896D02*
X1131200Y1523436D01*
X1123582Y1525975D02*
Y1531053D01*
Y1528514D01*
X1131200D01*
Y1533592D02*
Y1536132D01*
Y1534862D01*
X1123582D01*
X1124852Y1533592D01*
X1132469Y1539940D02*
Y1545019D01*
X1123582Y1547558D02*
Y1552636D01*
Y1550097D01*
X1131200D01*
X1123582Y1555175D02*
X1131200Y1560254D01*
X1123582D02*
X1131200Y1555175D01*
X1150284Y1503122D02*
X1156632D01*
X1157902Y1504392D01*
Y1506931D01*
X1156632Y1508201D01*
X1150284D01*
X1157902Y1510740D02*
X1152823D01*
X1150284Y1513279D01*
X1152823Y1515818D01*
X1157902D01*
X1154093D01*
Y1510740D01*
X1157902Y1518357D02*
X1150284D01*
Y1522166D01*
X1151554Y1523436D01*
X1154093D01*
X1155363Y1522166D01*
Y1518357D01*
Y1520896D02*
X1157902Y1523436D01*
X1150284Y1525975D02*
Y1531053D01*
Y1528514D01*
X1157902D01*
Y1533592D02*
Y1536131D01*
Y1534862D01*
X1150284D01*
X1151554Y1533592D01*
X1159171Y1539940D02*
Y1545019D01*
X1157902Y1547558D02*
X1150284D01*
Y1551367D01*
X1151554Y1552636D01*
X1154093D01*
X1155363Y1551367D01*
Y1547558D01*
Y1550097D02*
X1157902Y1552636D01*
X1150284Y1555175D02*
X1157902Y1560254D01*
X1150284D02*
X1157902Y1555175D01*
X1176986Y1501853D02*
X1183334D01*
X1184604Y1503122D01*
Y1505661D01*
X1183334Y1506931D01*
X1176986D01*
X1184604Y1509470D02*
X1179525D01*
X1176986Y1512009D01*
X1179525Y1514548D01*
X1184604D01*
X1180795D01*
Y1509470D01*
X1184604Y1517088D02*
X1176986D01*
Y1520896D01*
X1178256Y1522166D01*
X1180795D01*
X1182065Y1520896D01*
Y1517088D01*
Y1519627D02*
X1184604Y1522166D01*
X1176986Y1524705D02*
Y1529784D01*
Y1527244D01*
X1184604D01*
X1178256Y1532323D02*
X1176986Y1533592D01*
Y1536131D01*
X1178256Y1537401D01*
X1183334D01*
X1184604Y1536131D01*
Y1533592D01*
X1183334Y1532323D01*
X1178256D01*
X1185873Y1539940D02*
Y1545019D01*
X1176986Y1547558D02*
Y1552636D01*
Y1550097D01*
X1184604D01*
X1176986Y1555175D02*
X1184604Y1560254D01*
X1176986D02*
X1184604Y1555175D01*
X1203688Y1501853D02*
X1210036D01*
X1211306Y1503122D01*
Y1505661D01*
X1210036Y1506931D01*
X1203688D01*
X1211306Y1509470D02*
X1206227D01*
X1203688Y1512009D01*
X1206227Y1514548D01*
X1211306D01*
X1207497D01*
Y1509470D01*
X1211306Y1517088D02*
X1203688D01*
Y1520896D01*
X1204958Y1522166D01*
X1207497D01*
X1208766Y1520896D01*
Y1517088D01*
Y1519627D02*
X1211306Y1522166D01*
X1203688Y1524705D02*
Y1529784D01*
Y1527244D01*
X1211306D01*
X1204958Y1532323D02*
X1203688Y1533592D01*
Y1536131D01*
X1204958Y1537401D01*
X1210036D01*
X1211306Y1536131D01*
Y1533592D01*
X1210036Y1532323D01*
X1204958D01*
X1212575Y1539940D02*
Y1545019D01*
X1211306Y1547558D02*
X1203688D01*
Y1551367D01*
X1204958Y1552636D01*
X1207497D01*
X1208766Y1551367D01*
Y1547558D01*
Y1550097D02*
X1211306Y1552636D01*
X1203688Y1555175D02*
X1211306Y1560254D01*
X1203688D02*
X1211306Y1555175D01*
X1258362Y1491696D02*
X1257092Y1490426D01*
Y1487887D01*
X1258362Y1486617D01*
X1259631D01*
X1260901Y1487887D01*
Y1490426D01*
X1262170Y1491696D01*
X1263440D01*
X1264710Y1490426D01*
Y1487887D01*
X1263440Y1486617D01*
X1257092Y1494235D02*
X1258362D01*
X1260901Y1496774D01*
X1258362Y1499313D01*
X1257092D01*
X1260901Y1496774D02*
X1264710D01*
X1258362Y1506931D02*
X1257092Y1505661D01*
Y1503122D01*
X1258362Y1501853D01*
X1259631D01*
X1260901Y1503122D01*
Y1505661D01*
X1262170Y1506931D01*
X1263440D01*
X1264710Y1505661D01*
Y1503122D01*
X1263440Y1501853D01*
X1257092Y1509470D02*
Y1514548D01*
Y1512009D01*
X1264710D01*
X1257092Y1522166D02*
Y1517088D01*
X1264710D01*
Y1522166D01*
X1260901Y1517088D02*
Y1519627D01*
X1264710Y1524705D02*
X1257092D01*
X1259631Y1527244D01*
X1257092Y1529784D01*
X1264710D01*
X1265979Y1532323D02*
Y1537401D01*
X1257092Y1539940D02*
X1264710D01*
Y1545019D01*
X1257092Y1552636D02*
Y1547558D01*
X1264710D01*
Y1552636D01*
X1260901Y1547558D02*
Y1550097D01*
X1257092Y1555175D02*
X1264710D01*
Y1558984D01*
X1263440Y1560254D01*
X1258362D01*
X1257092Y1558984D01*
Y1555175D01*
X1230390Y1499313D02*
Y1494235D01*
X1234199D01*
Y1496774D01*
Y1494235D01*
X1238008D01*
Y1501853D02*
X1232929D01*
X1230390Y1504392D01*
X1232929Y1506931D01*
X1238008D01*
X1234199D01*
Y1501853D01*
X1230390Y1509470D02*
X1236738D01*
X1238008Y1510740D01*
Y1513279D01*
X1236738Y1514548D01*
X1230390D01*
Y1517088D02*
X1238008D01*
Y1522166D01*
X1230390Y1524705D02*
Y1529784D01*
Y1527244D01*
X1238008D01*
X1239277Y1532323D02*
Y1537401D01*
X1230390Y1539940D02*
X1238008D01*
Y1545019D01*
X1230390Y1552636D02*
Y1547558D01*
X1238008D01*
Y1552636D01*
X1234199Y1547558D02*
Y1550097D01*
X1230390Y1555175D02*
X1238008D01*
Y1558984D01*
X1236738Y1560254D01*
X1231660D01*
X1230390Y1558984D01*
Y1555175D01*
X1247250Y1298000D02*
Y1304771D01*
X1250636Y1308157D01*
X1254021Y1304771D01*
Y1298000D01*
Y1303078D01*
X1247250D01*
X1257407Y1308157D02*
Y1298000D01*
X1262485D01*
X1264178Y1299693D01*
Y1306464D01*
X1262485Y1308157D01*
X1257407D01*
X1267563D02*
Y1298000D01*
X1272642D01*
X1274335Y1299693D01*
Y1306464D01*
X1272642Y1308157D01*
X1267563D01*
X1277720Y1296307D02*
X1284491D01*
X1287877Y1308157D02*
X1291263D01*
X1289570D01*
Y1298000D01*
X1287877D01*
X1291263D01*
X1303112D02*
X1296341D01*
X1303112Y1304771D01*
Y1306464D01*
X1301419Y1308157D01*
X1298034D01*
X1296341Y1306464D01*
X1313269D02*
X1311576Y1308157D01*
X1308190D01*
X1306498Y1306464D01*
Y1299693D01*
X1308190Y1298000D01*
X1311576D01*
X1313269Y1299693D01*
X1316654Y1298000D02*
X1320040D01*
X1318347D01*
Y1308157D01*
X1316654Y1306464D01*
X1329000Y1430500D02*
Y1437271D01*
X1332386Y1440657D01*
X1335771Y1437271D01*
Y1430500D01*
Y1435578D01*
X1329000D01*
X1339157Y1440657D02*
Y1430500D01*
X1344235D01*
X1345928Y1432193D01*
Y1438964D01*
X1344235Y1440657D01*
X1339157D01*
X1349314D02*
Y1430500D01*
X1354392D01*
X1356085Y1432193D01*
Y1438964D01*
X1354392Y1440657D01*
X1349314D01*
X1359470Y1428807D02*
X1366241D01*
X1376398Y1438964D02*
X1374705Y1440657D01*
X1371320D01*
X1369627Y1438964D01*
Y1432193D01*
X1371320Y1430500D01*
X1374705D01*
X1376398Y1432193D01*
Y1435578D01*
X1373013D01*
X1379784Y1430500D02*
Y1440657D01*
X1384862D01*
X1386555Y1438964D01*
Y1435578D01*
X1384862Y1433886D01*
X1379784D01*
X1389940Y1440657D02*
X1393326D01*
X1391633D01*
Y1430500D01*
X1389940D01*
X1393326D01*
X1403483Y1440657D02*
X1400097D01*
X1398404Y1438964D01*
Y1432193D01*
X1400097Y1430500D01*
X1403483D01*
X1405175Y1432193D01*
Y1438964D01*
X1403483Y1440657D01*
X679500Y1543250D02*
Y1553407D01*
X684578D01*
X686271Y1551714D01*
Y1548328D01*
X684578Y1546636D01*
X679500D01*
X696428Y1553407D02*
X689657D01*
Y1548328D01*
X693042Y1550021D01*
X694735D01*
X696428Y1548328D01*
Y1544943D01*
X694735Y1543250D01*
X691349D01*
X689657Y1544943D01*
X1417250Y1625250D02*
Y1635407D01*
X1422328D01*
X1424021Y1633714D01*
Y1630328D01*
X1422328Y1628636D01*
X1417250D01*
X1420636D02*
X1424021Y1625250D01*
X1427407Y1623557D02*
X1434178D01*
X1444335Y1635407D02*
X1437563D01*
Y1625250D01*
X1444335D01*
X1437563Y1630328D02*
X1440949D01*
X1454491Y1633714D02*
X1452798Y1635407D01*
X1449413D01*
X1447720Y1633714D01*
Y1632021D01*
X1449413Y1630328D01*
X1452798D01*
X1454491Y1628636D01*
Y1626943D01*
X1452798Y1625250D01*
X1449413D01*
X1447720Y1626943D01*
X1457877Y1635407D02*
Y1625250D01*
X1462955D01*
X1464648Y1626943D01*
Y1633714D01*
X1462955Y1635407D01*
X1457877D01*
X1228343Y938271D02*
Y931500D01*
X1233422D01*
Y934886D01*
Y931500D01*
X1238500D01*
X1228343Y941657D02*
X1238500D01*
Y946735D01*
X1236807Y948428D01*
X1235114D01*
X1233422Y946735D01*
Y941657D01*
Y946735D01*
X1231729Y948428D01*
X1230036D01*
X1228343Y946735D01*
Y941657D01*
X1238500Y958585D02*
Y951813D01*
X1231729Y958585D01*
X1230036D01*
X1228343Y956892D01*
Y953506D01*
X1230036Y951813D01*
X1161568Y990432D02*
X1162765Y989235D01*
X1167553D01*
X1167553Y994023D01*
X1166356Y995220D01*
X1167553Y989235D02*
X1171144Y985644D01*
X1180720Y995220D02*
X1175932Y990432D01*
Y1000008D01*
X1174735Y1001205D01*
X1172341D01*
X1169947Y998811D01*
Y996417D01*
X990068Y1014459D02*
Y1012766D01*
X993454Y1009380D01*
X996839Y1012766D01*
Y1014459D01*
X993454Y1009380D02*
Y1004302D01*
X1000225D02*
X1003610D01*
X1001917D01*
Y1014459D01*
X1000225Y1012766D01*
X1311500Y1247907D02*
Y1239443D01*
X1313193Y1237750D01*
X1316578D01*
X1318271Y1239443D01*
Y1247907D01*
X1321657Y1237750D02*
X1325042D01*
X1323349D01*
Y1247907D01*
X1321657Y1246214D01*
X1330121D02*
X1331813Y1247907D01*
X1335199D01*
X1336892Y1246214D01*
Y1239443D01*
X1335199Y1237750D01*
X1331813D01*
X1330121Y1239443D01*
Y1246214D01*
X986184Y1056657D02*
Y1048193D01*
X987877Y1046500D01*
X991262D01*
X992955Y1048193D01*
Y1056657D01*
X996341Y1048193D02*
X998034Y1046500D01*
X1001419D01*
X1003112Y1048193D01*
Y1054964D01*
X1001419Y1056657D01*
X998034D01*
X996341Y1054964D01*
Y1053271D01*
X998034Y1051578D01*
X1003112D01*
X819750Y1211407D02*
Y1202943D01*
X821443Y1201250D01*
X824828D01*
X826521Y1202943D01*
Y1211407D01*
X829907Y1209714D02*
X831600Y1211407D01*
X834985D01*
X836678Y1209714D01*
Y1208021D01*
X834985Y1206328D01*
X836678Y1204636D01*
Y1202943D01*
X834985Y1201250D01*
X831600D01*
X829907Y1202943D01*
Y1204636D01*
X831600Y1206328D01*
X829907Y1208021D01*
Y1209714D01*
X831600Y1206328D02*
X834985D01*
X919500Y1211157D02*
Y1202693D01*
X921193Y1201000D01*
X924578D01*
X926271Y1202693D01*
Y1211157D01*
X929657D02*
X936428D01*
Y1209464D01*
X929657Y1202693D01*
Y1201000D01*
X1021750Y1211907D02*
Y1203443D01*
X1023443Y1201750D01*
X1026828D01*
X1028521Y1203443D01*
Y1211907D01*
X1038678D02*
X1035292Y1210214D01*
X1031907Y1206828D01*
Y1203443D01*
X1033599Y1201750D01*
X1036985D01*
X1038678Y1203443D01*
Y1205136D01*
X1036985Y1206828D01*
X1031907D01*
X787500Y1086407D02*
Y1077943D01*
X789193Y1076250D01*
X792578D01*
X794271Y1077943D01*
Y1086407D01*
X804428D02*
X797657D01*
Y1081328D01*
X801042Y1083021D01*
X802735D01*
X804428Y1081328D01*
Y1077943D01*
X802735Y1076250D01*
X799350D01*
X797657Y1077943D01*
X1130000Y938907D02*
Y930443D01*
X1131693Y928750D01*
X1135078D01*
X1136771Y930443D01*
Y938907D01*
X1145235Y928750D02*
Y938907D01*
X1140157Y933828D01*
X1146928D01*
X1352750Y862157D02*
Y853693D01*
X1354443Y852000D01*
X1357828D01*
X1359521Y853693D01*
Y862157D01*
X1369678Y852000D02*
X1362907D01*
X1369678Y858771D01*
Y860464D01*
X1367985Y862157D01*
X1364599D01*
X1362907Y860464D01*
X723750Y900657D02*
Y892193D01*
X725443Y890500D01*
X728828D01*
X730521Y892193D01*
Y900657D01*
X733907Y890500D02*
X737292D01*
X735600D01*
Y900657D01*
X733907Y898964D01*
X1273000Y1161750D02*
X1262843D01*
Y1166828D01*
X1264536Y1168521D01*
X1267922D01*
X1269614Y1166828D01*
Y1161750D01*
Y1165136D02*
X1273000Y1168521D01*
X1264536Y1171907D02*
X1262843Y1173599D01*
Y1176985D01*
X1264536Y1178678D01*
X1266229D01*
X1267922Y1176985D01*
Y1175292D01*
Y1176985D01*
X1269614Y1178678D01*
X1271307D01*
X1273000Y1176985D01*
Y1173599D01*
X1271307Y1171907D01*
X1262843Y1188835D02*
X1264536Y1185449D01*
X1267922Y1182063D01*
X1271307D01*
X1273000Y1183756D01*
Y1187142D01*
X1271307Y1188835D01*
X1269614D01*
X1267922Y1187142D01*
Y1182063D01*
X1198250Y1161750D02*
X1188093D01*
Y1166828D01*
X1189786Y1168521D01*
X1193172D01*
X1194865Y1166828D01*
Y1161750D01*
Y1165136D02*
X1198250Y1168521D01*
X1189786Y1171907D02*
X1188093Y1173599D01*
Y1176985D01*
X1189786Y1178678D01*
X1191479D01*
X1193172Y1176985D01*
Y1175292D01*
Y1176985D01*
X1194865Y1178678D01*
X1196557D01*
X1198250Y1176985D01*
Y1173599D01*
X1196557Y1171907D01*
X1188093Y1188835D02*
Y1182063D01*
X1193172D01*
X1191479Y1185449D01*
Y1187142D01*
X1193172Y1188835D01*
X1196557D01*
X1198250Y1187142D01*
Y1183756D01*
X1196557Y1182063D01*
X1223167Y1161750D02*
X1213010D01*
Y1166828D01*
X1214703Y1168521D01*
X1218088D01*
X1219781Y1166828D01*
Y1161750D01*
Y1165135D02*
X1223167Y1168521D01*
X1214703Y1171907D02*
X1213010Y1173599D01*
Y1176985D01*
X1214703Y1178678D01*
X1216396D01*
X1218088Y1176985D01*
Y1175292D01*
Y1176985D01*
X1219781Y1178678D01*
X1221474D01*
X1223167Y1176985D01*
Y1173599D01*
X1221474Y1171907D01*
X1223167Y1187142D02*
X1213010D01*
X1218088Y1182063D01*
Y1188835D01*
X1248083Y1161750D02*
X1237927D01*
Y1166828D01*
X1239619Y1168521D01*
X1243005D01*
X1244698Y1166828D01*
Y1161750D01*
Y1165136D02*
X1248083Y1168521D01*
X1239619Y1171907D02*
X1237927Y1173599D01*
Y1176985D01*
X1239619Y1178678D01*
X1241312D01*
X1243005Y1176985D01*
Y1175292D01*
Y1176985D01*
X1244698Y1178678D01*
X1246391D01*
X1248083Y1176985D01*
Y1173599D01*
X1246391Y1171907D01*
X1239619Y1182063D02*
X1237927Y1183756D01*
Y1187142D01*
X1239619Y1188835D01*
X1241312D01*
X1243005Y1187142D01*
Y1185449D01*
Y1187142D01*
X1244698Y1188835D01*
X1246391D01*
X1248083Y1187142D01*
Y1183756D01*
X1246391Y1182063D01*
X862000Y1078250D02*
X851843D01*
Y1083328D01*
X853536Y1085021D01*
X856922D01*
X858614Y1083328D01*
Y1078250D01*
Y1081636D02*
X862000Y1085021D01*
X853536Y1088407D02*
X851843Y1090099D01*
Y1093485D01*
X853536Y1095178D01*
X855229D01*
X856922Y1093485D01*
Y1091792D01*
Y1093485D01*
X858614Y1095178D01*
X860307D01*
X862000Y1093485D01*
Y1090099D01*
X860307Y1088407D01*
X862000Y1105335D02*
Y1098563D01*
X855229Y1105335D01*
X853536D01*
X851843Y1103642D01*
Y1100256D01*
X853536Y1098563D01*
X862250Y1309750D02*
X852093D01*
Y1314828D01*
X853786Y1316521D01*
X857172D01*
X858864Y1314828D01*
Y1309750D01*
Y1313136D02*
X862250Y1316521D01*
X853786Y1319907D02*
X852093Y1321599D01*
Y1324985D01*
X853786Y1326678D01*
X855479D01*
X857172Y1324985D01*
Y1323292D01*
Y1324985D01*
X858864Y1326678D01*
X860557D01*
X862250Y1324985D01*
Y1321599D01*
X860557Y1319907D01*
X862250Y1330063D02*
Y1333449D01*
Y1331756D01*
X852093D01*
X853786Y1330063D01*
X960250Y1078250D02*
X950093D01*
Y1083328D01*
X951786Y1085021D01*
X955172D01*
X956864Y1083328D01*
Y1078250D01*
Y1081636D02*
X960250Y1085021D01*
X951786Y1088407D02*
X950093Y1090099D01*
Y1093485D01*
X951786Y1095178D01*
X953479D01*
X955172Y1093485D01*
Y1091792D01*
Y1093485D01*
X956864Y1095178D01*
X958557D01*
X960250Y1093485D01*
Y1090099D01*
X958557Y1088407D01*
X951786Y1098563D02*
X950093Y1100256D01*
Y1103642D01*
X951786Y1105335D01*
X958557D01*
X960250Y1103642D01*
Y1100256D01*
X958557Y1098563D01*
X951786D01*
X959750Y1309750D02*
X949593D01*
Y1314828D01*
X951286Y1316521D01*
X954672D01*
X956364Y1314828D01*
Y1309750D01*
Y1313136D02*
X959750Y1316521D01*
Y1326678D02*
Y1319907D01*
X952979Y1326678D01*
X951286D01*
X949593Y1324985D01*
Y1321599D01*
X951286Y1319907D01*
X958057Y1330063D02*
X959750Y1331756D01*
Y1335142D01*
X958057Y1336835D01*
X951286D01*
X949593Y1335142D01*
Y1331756D01*
X951286Y1330063D01*
X952979D01*
X954672Y1331756D01*
Y1336835D01*
X1116500Y1238750D02*
Y1248907D01*
X1121578D01*
X1123271Y1247214D01*
Y1243828D01*
X1121578Y1242136D01*
X1116500D01*
X1119886D02*
X1123271Y1238750D01*
X1133428D02*
X1126657D01*
X1133428Y1245521D01*
Y1247214D01*
X1131735Y1248907D01*
X1128350D01*
X1126657Y1247214D01*
X1136813D02*
X1138506Y1248907D01*
X1141892D01*
X1143585Y1247214D01*
Y1245521D01*
X1141892Y1243828D01*
X1143585Y1242136D01*
Y1240443D01*
X1141892Y1238750D01*
X1138506D01*
X1136813Y1240443D01*
Y1242136D01*
X1138506Y1243828D01*
X1136813Y1245521D01*
Y1247214D01*
X1138506Y1243828D02*
X1141892D01*
X1069750Y1309750D02*
X1059593D01*
Y1314828D01*
X1061286Y1316521D01*
X1064672D01*
X1066364Y1314828D01*
Y1309750D01*
Y1313136D02*
X1069750Y1316521D01*
Y1326678D02*
Y1319907D01*
X1062979Y1326678D01*
X1061286D01*
X1059593Y1324985D01*
Y1321599D01*
X1061286Y1319907D01*
X1059593Y1330063D02*
Y1336835D01*
X1061286D01*
X1068057Y1330063D01*
X1069750D01*
X887500Y1078250D02*
X877343D01*
Y1083328D01*
X879036Y1085021D01*
X882422D01*
X884114Y1083328D01*
Y1078250D01*
Y1081636D02*
X887500Y1085021D01*
Y1095178D02*
Y1088407D01*
X880729Y1095178D01*
X879036D01*
X877343Y1093485D01*
Y1090099D01*
X879036Y1088407D01*
X877343Y1105335D02*
X879036Y1101949D01*
X882422Y1098564D01*
X885807D01*
X887500Y1100256D01*
Y1103642D01*
X885807Y1105335D01*
X884114D01*
X882422Y1103642D01*
Y1098564D01*
X887500Y1309750D02*
X877343D01*
Y1314828D01*
X879036Y1316521D01*
X882422D01*
X884114Y1314828D01*
Y1309750D01*
Y1313136D02*
X887500Y1316521D01*
Y1326678D02*
Y1319907D01*
X880729Y1326678D01*
X879036D01*
X877343Y1324985D01*
Y1321599D01*
X879036Y1319907D01*
X877343Y1336835D02*
Y1330063D01*
X882422D01*
X880729Y1333449D01*
Y1335142D01*
X882422Y1336835D01*
X885807D01*
X887500Y1335142D01*
Y1331756D01*
X885807Y1330063D01*
X983750Y1078250D02*
X973593D01*
Y1083328D01*
X975286Y1085021D01*
X978672D01*
X980364Y1083328D01*
Y1078250D01*
Y1081636D02*
X983750Y1085021D01*
Y1095178D02*
Y1088407D01*
X976979Y1095178D01*
X975286D01*
X973593Y1093485D01*
Y1090099D01*
X975286Y1088407D01*
X983750Y1103642D02*
X973593D01*
X978672Y1098564D01*
Y1105335D01*
X984000Y1309750D02*
X973843D01*
Y1314828D01*
X975536Y1316521D01*
X978922D01*
X980614Y1314828D01*
Y1309750D01*
Y1313136D02*
X984000Y1316521D01*
Y1326678D02*
Y1319907D01*
X977229Y1326678D01*
X975536D01*
X973843Y1324985D01*
Y1321599D01*
X975536Y1319907D01*
Y1330063D02*
X973843Y1331756D01*
Y1335142D01*
X975536Y1336835D01*
X977229D01*
X978922Y1335142D01*
Y1333449D01*
Y1335142D01*
X980614Y1336835D01*
X982307D01*
X984000Y1335142D01*
Y1331756D01*
X982307Y1330063D01*
X1115500Y1178000D02*
Y1188157D01*
X1120578D01*
X1122271Y1186464D01*
Y1183078D01*
X1120578Y1181386D01*
X1115500D01*
X1118886D02*
X1122271Y1178000D01*
X1132428D02*
X1125657D01*
X1132428Y1184771D01*
Y1186464D01*
X1130735Y1188157D01*
X1127349D01*
X1125657Y1186464D01*
X1142585Y1178000D02*
X1135814D01*
X1142585Y1184771D01*
Y1186464D01*
X1140892Y1188157D01*
X1137506D01*
X1135814Y1186464D01*
X1092250Y1309750D02*
X1082093D01*
Y1314828D01*
X1083786Y1316521D01*
X1087172D01*
X1088864Y1314828D01*
Y1309750D01*
Y1313136D02*
X1092250Y1316521D01*
Y1326678D02*
Y1319907D01*
X1085479Y1326678D01*
X1083786D01*
X1082093Y1324985D01*
Y1321599D01*
X1083786Y1319907D01*
X1092250Y1330063D02*
Y1333449D01*
Y1331756D01*
X1082093D01*
X1083786Y1330063D01*
X1384750Y1242250D02*
Y1252407D01*
X1389828D01*
X1391521Y1250714D01*
Y1247328D01*
X1389828Y1245636D01*
X1384750D01*
X1388136D02*
X1391521Y1242250D01*
X1401678D02*
X1394907D01*
X1401678Y1249021D01*
Y1250714D01*
X1399985Y1252407D01*
X1396599D01*
X1394907Y1250714D01*
X1405063D02*
X1406756Y1252407D01*
X1410142D01*
X1411835Y1250714D01*
Y1243943D01*
X1410142Y1242250D01*
X1406756D01*
X1405063Y1243943D01*
Y1250714D01*
X1384500Y1203250D02*
Y1213407D01*
X1389578D01*
X1391271Y1211714D01*
Y1208328D01*
X1389578Y1206636D01*
X1384500D01*
X1387886D02*
X1391271Y1203250D01*
X1394657D02*
X1398042D01*
X1396349D01*
Y1213407D01*
X1394657Y1211714D01*
X1403121Y1204943D02*
X1404813Y1203250D01*
X1408199D01*
X1409892Y1204943D01*
Y1211714D01*
X1408199Y1213407D01*
X1404813D01*
X1403121Y1211714D01*
Y1210021D01*
X1404813Y1208328D01*
X1409892D01*
X1107429Y1576250D02*
X1097272D01*
Y1581328D01*
X1098965Y1583021D01*
X1102350D01*
X1104043Y1581328D01*
Y1576250D01*
Y1579636D02*
X1107429Y1583021D01*
Y1586407D02*
Y1589792D01*
Y1588100D01*
X1097272D01*
X1098965Y1586407D01*
Y1594871D02*
X1097272Y1596563D01*
Y1599949D01*
X1098965Y1601642D01*
X1100657D01*
X1102350Y1599949D01*
Y1598256D01*
Y1599949D01*
X1104043Y1601642D01*
X1105736D01*
X1107429Y1599949D01*
Y1596563D01*
X1105736Y1594871D01*
X1081000Y1576250D02*
X1070843D01*
Y1581328D01*
X1072536Y1583021D01*
X1075922D01*
X1077614Y1581328D01*
Y1576250D01*
Y1579636D02*
X1081000Y1583021D01*
Y1586407D02*
Y1589792D01*
Y1588100D01*
X1070843D01*
X1072536Y1586407D01*
X1081000Y1601642D02*
Y1594871D01*
X1074229Y1601642D01*
X1072536D01*
X1070843Y1599949D01*
Y1596563D01*
X1072536Y1594871D01*
X1193811Y921000D02*
Y931157D01*
X1198890D01*
X1200583Y929464D01*
Y926078D01*
X1198890Y924386D01*
X1193811D01*
X1197197D02*
X1200583Y921000D01*
X1203968D02*
X1207354D01*
X1205661D01*
Y931157D01*
X1203968Y929464D01*
X1212432Y921000D02*
X1215818D01*
X1214125D01*
Y931157D01*
X1212432Y929464D01*
X1088750Y899750D02*
X1078593D01*
Y904828D01*
X1080286Y906521D01*
X1083672D01*
X1085364Y904828D01*
Y899750D01*
Y903136D02*
X1088750Y906521D01*
Y909907D02*
Y913292D01*
Y911600D01*
X1078593D01*
X1080286Y909907D01*
Y918371D02*
X1078593Y920063D01*
Y923449D01*
X1080286Y925142D01*
X1087057D01*
X1088750Y923449D01*
Y920063D01*
X1087057Y918371D01*
X1080286D01*
X755500Y860750D02*
Y870907D01*
X760578D01*
X762271Y869214D01*
Y865828D01*
X760578Y864136D01*
X755500D01*
X758886D02*
X762271Y860750D01*
X765657Y869214D02*
X767349Y870907D01*
X770735D01*
X772428Y869214D01*
Y867521D01*
X770735Y865828D01*
X772428Y864136D01*
Y862443D01*
X770735Y860750D01*
X767349D01*
X765657Y862443D01*
Y864136D01*
X767349Y865828D01*
X765657Y867521D01*
Y869214D01*
X767349Y865828D02*
X770735D01*
X1160286Y1576250D02*
X1150129D01*
Y1581328D01*
X1151822Y1583021D01*
X1155207D01*
X1156900Y1581328D01*
Y1576250D01*
Y1579636D02*
X1160286Y1583021D01*
X1150129Y1586407D02*
Y1593178D01*
X1151822D01*
X1158593Y1586407D01*
X1160286D01*
X1133857Y1576250D02*
X1123700D01*
Y1581328D01*
X1125393Y1583021D01*
X1128779D01*
X1130472Y1581328D01*
Y1576250D01*
Y1579636D02*
X1133857Y1583021D01*
X1123700Y1593178D02*
X1125393Y1589792D01*
X1128779Y1586407D01*
X1132164D01*
X1133857Y1588100D01*
Y1591485D01*
X1132164Y1593178D01*
X1130472D01*
X1128779Y1591485D01*
Y1586407D01*
X1213143Y1576250D02*
X1202986D01*
Y1581328D01*
X1204679Y1583021D01*
X1208064D01*
X1209757Y1581328D01*
Y1576250D01*
Y1579636D02*
X1213143Y1583021D01*
X1202986Y1593178D02*
Y1586407D01*
X1208064D01*
X1206372Y1589792D01*
Y1591485D01*
X1208064Y1593178D01*
X1211450D01*
X1213143Y1591485D01*
Y1588100D01*
X1211450Y1586407D01*
X1186714Y1576250D02*
X1176558D01*
Y1581328D01*
X1178250Y1583021D01*
X1181636D01*
X1183329Y1581328D01*
Y1576250D01*
Y1579636D02*
X1186714Y1583021D01*
Y1591485D02*
X1176558D01*
X1181636Y1586407D01*
Y1593178D01*
X1239571Y1576250D02*
X1229415D01*
Y1581328D01*
X1231107Y1583021D01*
X1234493D01*
X1236186Y1581328D01*
Y1576250D01*
Y1579636D02*
X1239571Y1583021D01*
X1231107Y1586407D02*
X1229415Y1588100D01*
Y1591485D01*
X1231107Y1593178D01*
X1232800D01*
X1234493Y1591485D01*
Y1589792D01*
Y1591485D01*
X1236186Y1593178D01*
X1237879D01*
X1239571Y1591485D01*
Y1588100D01*
X1237879Y1586407D01*
X1266000Y1576250D02*
X1255843D01*
Y1581328D01*
X1257536Y1583021D01*
X1260922D01*
X1262614Y1581328D01*
Y1576250D01*
Y1579636D02*
X1266000Y1583021D01*
Y1593178D02*
Y1586407D01*
X1259229Y1593178D01*
X1257536D01*
X1255843Y1591485D01*
Y1588100D01*
X1257536Y1586407D01*
X861000Y947250D02*
Y957407D01*
X866078D01*
X867771Y955714D01*
Y952328D01*
X866078Y950636D01*
X861000D01*
X864386D02*
X867771Y947250D01*
X871157D02*
X874542D01*
X872850D01*
Y957407D01*
X871157Y955714D01*
X1223250Y850000D02*
Y860157D01*
X1228328D01*
X1230021Y858464D01*
Y855078D01*
X1228328Y853386D01*
X1223250D01*
X1240178Y860157D02*
X1236792Y858464D01*
X1233407Y855078D01*
Y851693D01*
X1235099Y850000D01*
X1238485D01*
X1240178Y851693D01*
Y853386D01*
X1238485Y855078D01*
X1233407D01*
X679958Y1252982D02*
Y1263139D01*
X685036D01*
X686729Y1261446D01*
Y1258060D01*
X685036Y1256368D01*
X679958D01*
X695193Y1252982D02*
Y1263139D01*
X690115Y1258060D01*
X696886D01*
X827250Y1525750D02*
Y1535907D01*
X832328D01*
X834021Y1534214D01*
Y1530828D01*
X832328Y1529136D01*
X827250D01*
X837407Y1534214D02*
X839100Y1535907D01*
X842485D01*
X844178Y1534214D01*
Y1532521D01*
X842485Y1530828D01*
X840792D01*
X842485D01*
X844178Y1529136D01*
Y1527443D01*
X842485Y1525750D01*
X839100D01*
X837407Y1527443D01*
X988000Y889000D02*
Y899157D01*
X993078D01*
X994771Y897464D01*
Y894078D01*
X993078Y892386D01*
X988000D01*
X1004928Y889000D02*
X998157D01*
X1004928Y895771D01*
Y897464D01*
X1003235Y899157D01*
X999849D01*
X998157Y897464D01*
X821000Y886250D02*
Y896407D01*
X826078D01*
X827771Y894714D01*
Y891328D01*
X826078Y889636D01*
X821000D01*
X831157Y886250D02*
X834542D01*
X832850D01*
Y896407D01*
X831157Y894714D01*
X1312771Y1116907D02*
X1309386D01*
X1311078D01*
Y1108443D01*
X1309386Y1106750D01*
X1307693D01*
X1306000Y1108443D01*
X1316157Y1105057D02*
X1322928D01*
X1326313Y1116907D02*
Y1110136D01*
X1329699Y1106750D01*
X1333085Y1110136D01*
Y1116907D01*
X1343241D02*
X1336470D01*
Y1111828D01*
X1339856Y1113521D01*
X1341548D01*
X1343241Y1111828D01*
Y1108443D01*
X1341548Y1106750D01*
X1338163D01*
X1336470Y1108443D01*
X1336521Y968157D02*
X1333136D01*
X1334828D01*
Y959693D01*
X1333136Y958000D01*
X1331443D01*
X1329750Y959693D01*
X1339907Y956307D02*
X1346678D01*
X1350063Y968157D02*
Y961386D01*
X1353449Y958000D01*
X1356835Y961386D01*
Y968157D01*
X1360220Y966464D02*
X1361913Y968157D01*
X1365298D01*
X1366991Y966464D01*
Y964771D01*
X1365298Y963078D01*
X1363606D01*
X1365298D01*
X1366991Y961386D01*
Y959693D01*
X1365298Y958000D01*
X1361913D01*
X1360220Y959693D01*
X815021Y921907D02*
X811636D01*
X813328D01*
Y913443D01*
X811636Y911750D01*
X809943D01*
X808250Y913443D01*
X818407Y910057D02*
X825178D01*
X828563Y921907D02*
Y915136D01*
X831949Y911750D01*
X835335Y915136D01*
Y921907D01*
X838720Y911750D02*
X842106D01*
X840413D01*
Y921907D01*
X838720Y920214D01*
X1423343Y885521D02*
Y882136D01*
Y883828D01*
X1431807D01*
X1433500Y882136D01*
Y880443D01*
X1431807Y878750D01*
X1435193Y888907D02*
Y895678D01*
X1423343Y899063D02*
X1430114D01*
X1433500Y902449D01*
X1430114Y905835D01*
X1423343D01*
X1425036Y909220D02*
X1423343Y910913D01*
Y914298D01*
X1425036Y915991D01*
X1431807D01*
X1433500Y914298D01*
Y910913D01*
X1431807Y909220D01*
X1425036D01*
X1344271Y1363782D02*
X1340886D01*
X1342578D01*
Y1355318D01*
X1340886Y1353625D01*
X1339193D01*
X1337500Y1355318D01*
X1347657Y1351932D02*
X1354428D01*
X1357813Y1353625D02*
Y1363782D01*
X1362892D01*
X1364585Y1362089D01*
Y1358703D01*
X1362892Y1357010D01*
X1357813D01*
X1374741Y1362089D02*
X1373049Y1363782D01*
X1369663D01*
X1367970Y1362089D01*
Y1355318D01*
X1369663Y1353625D01*
X1373049D01*
X1374741Y1355318D01*
X1378127Y1353625D02*
X1381512D01*
X1379820D01*
Y1363782D01*
X1378127Y1362089D01*
X1386591D02*
X1388284Y1363782D01*
X1391669D01*
X1393362Y1362089D01*
Y1355318D01*
X1391669Y1353625D01*
X1388284D01*
X1386591Y1355318D01*
Y1362089D01*
X1344271Y1387969D02*
X1340886D01*
X1342578D01*
Y1379505D01*
X1340886Y1377812D01*
X1339193D01*
X1337500Y1379505D01*
X1347657Y1376120D02*
X1354428D01*
X1357813Y1377812D02*
Y1387969D01*
X1362892D01*
X1364585Y1386276D01*
Y1382891D01*
X1362892Y1381198D01*
X1357813D01*
X1374741Y1386276D02*
X1373049Y1387969D01*
X1369663D01*
X1367970Y1386276D01*
Y1379505D01*
X1369663Y1377812D01*
X1373049D01*
X1374741Y1379505D01*
X1378127D02*
X1379820Y1377812D01*
X1383205D01*
X1384898Y1379505D01*
Y1386276D01*
X1383205Y1387969D01*
X1379820D01*
X1378127Y1386276D01*
Y1384584D01*
X1379820Y1382891D01*
X1384898D01*
X1344271Y1412157D02*
X1340886D01*
X1342578D01*
Y1403693D01*
X1340886Y1402000D01*
X1339193D01*
X1337500Y1403693D01*
X1347657Y1400307D02*
X1354428D01*
X1357813Y1402000D02*
Y1412157D01*
X1362892D01*
X1364585Y1410464D01*
Y1407078D01*
X1362892Y1405385D01*
X1357813D01*
X1374741Y1410464D02*
X1373049Y1412157D01*
X1369663D01*
X1367970Y1410464D01*
Y1403693D01*
X1369663Y1402000D01*
X1373049D01*
X1374741Y1403693D01*
X1378127Y1410464D02*
X1379820Y1412157D01*
X1383205D01*
X1384898Y1410464D01*
Y1408771D01*
X1383205Y1407078D01*
X1384898Y1405385D01*
Y1403693D01*
X1383205Y1402000D01*
X1379820D01*
X1378127Y1403693D01*
Y1405385D01*
X1379820Y1407078D01*
X1378127Y1408771D01*
Y1410464D01*
X1379820Y1407078D02*
X1383205D01*
X1344271Y1320407D02*
X1340886D01*
X1342578D01*
Y1311943D01*
X1340886Y1310250D01*
X1339193D01*
X1337500Y1311943D01*
X1347657Y1308557D02*
X1354428D01*
X1357813Y1310250D02*
Y1320407D01*
X1362892D01*
X1364585Y1318714D01*
Y1315328D01*
X1362892Y1313636D01*
X1357813D01*
X1374741Y1318714D02*
X1373049Y1320407D01*
X1369663D01*
X1367970Y1318714D01*
Y1311943D01*
X1369663Y1310250D01*
X1373049D01*
X1374741Y1311943D01*
X1383205Y1310250D02*
Y1320407D01*
X1378127Y1315328D01*
X1384898D01*
X1344271Y1339594D02*
X1340886D01*
X1342578D01*
Y1331130D01*
X1340886Y1329438D01*
X1339193D01*
X1337500Y1331130D01*
X1347657Y1327745D02*
X1354428D01*
X1357813Y1329438D02*
Y1339594D01*
X1362892D01*
X1364585Y1337901D01*
Y1334516D01*
X1362892Y1332823D01*
X1357813D01*
X1374741Y1337901D02*
X1373049Y1339594D01*
X1369663D01*
X1367970Y1337901D01*
Y1331130D01*
X1369663Y1329438D01*
X1373049D01*
X1374741Y1331130D01*
X1378127Y1337901D02*
X1379820Y1339594D01*
X1383205D01*
X1384898Y1337901D01*
Y1336209D01*
X1383205Y1334516D01*
X1381512D01*
X1383205D01*
X1384898Y1332823D01*
Y1331130D01*
X1383205Y1329438D01*
X1379820D01*
X1378127Y1331130D01*
X1329771Y994907D02*
X1323000D01*
Y989828D01*
X1326386D01*
X1323000D01*
Y984750D01*
X1333157Y994907D02*
Y984750D01*
X1338235D01*
X1339928Y986443D01*
Y988136D01*
X1338235Y989828D01*
X1333157D01*
X1338235D01*
X1339928Y991521D01*
Y993214D01*
X1338235Y994907D01*
X1333157D01*
X1343313Y984750D02*
X1346699D01*
X1345006D01*
Y994907D01*
X1343313Y993214D01*
X1093679Y1699407D02*
Y1689250D01*
X1098757D01*
X1100450Y1690943D01*
Y1697714D01*
X1098757Y1699407D01*
X1093679D01*
X1103835Y1697714D02*
X1105528Y1699407D01*
X1108914D01*
X1110606Y1697714D01*
Y1696021D01*
X1108914Y1694328D01*
X1110606Y1692636D01*
Y1690943D01*
X1108914Y1689250D01*
X1105528D01*
X1103835Y1690943D01*
Y1692636D01*
X1105528Y1694328D01*
X1103835Y1696021D01*
Y1697714D01*
X1105528Y1694328D02*
X1108914D01*
X1067000Y1700907D02*
Y1690750D01*
X1072078D01*
X1073771Y1692443D01*
Y1699214D01*
X1072078Y1700907D01*
X1067000D01*
X1077157D02*
X1083928D01*
Y1699214D01*
X1077157Y1692443D01*
Y1690750D01*
X1147036Y1699407D02*
Y1689250D01*
X1152114D01*
X1153807Y1690943D01*
Y1697714D01*
X1152114Y1699407D01*
X1147036D01*
X1163963D02*
X1160578Y1697714D01*
X1157192Y1694328D01*
Y1690943D01*
X1158885Y1689250D01*
X1162271D01*
X1163963Y1690943D01*
Y1692636D01*
X1162271Y1694328D01*
X1157192D01*
X1120357Y1699407D02*
Y1689250D01*
X1125435D01*
X1127128Y1690943D01*
Y1697714D01*
X1125435Y1699407D01*
X1120357D01*
X1137285D02*
X1130514D01*
Y1694328D01*
X1133899Y1696021D01*
X1135592D01*
X1137285Y1694328D01*
Y1690943D01*
X1135592Y1689250D01*
X1132207D01*
X1130514Y1690943D01*
X1200393Y1699407D02*
Y1689250D01*
X1205471D01*
X1207164Y1690943D01*
Y1697714D01*
X1205471Y1699407D01*
X1200393D01*
X1215628Y1689250D02*
Y1699407D01*
X1210549Y1694328D01*
X1217321D01*
X1173714Y1699407D02*
Y1689250D01*
X1178793D01*
X1180485Y1690943D01*
Y1697714D01*
X1178793Y1699407D01*
X1173714D01*
X1183871Y1697714D02*
X1185564Y1699407D01*
X1188949D01*
X1190642Y1697714D01*
Y1696021D01*
X1188949Y1694328D01*
X1187256D01*
X1188949D01*
X1190642Y1692636D01*
Y1690943D01*
X1188949Y1689250D01*
X1185564D01*
X1183871Y1690943D01*
X1227071Y1699407D02*
Y1689250D01*
X1232150D01*
X1233842Y1690943D01*
Y1697714D01*
X1232150Y1699407D01*
X1227071D01*
X1243999Y1689250D02*
X1237228D01*
X1243999Y1696021D01*
Y1697714D01*
X1242306Y1699407D01*
X1238921D01*
X1237228Y1697714D01*
X1253750Y1699407D02*
Y1689250D01*
X1258828D01*
X1260521Y1690943D01*
Y1697714D01*
X1258828Y1699407D01*
X1253750D01*
X1263907Y1689250D02*
X1267292D01*
X1265599D01*
Y1699407D01*
X1263907Y1697714D01*
X1239967Y1265964D02*
X1238274Y1267657D01*
X1234889D01*
X1233196Y1265964D01*
Y1259193D01*
X1234889Y1257500D01*
X1238274D01*
X1239967Y1259193D01*
X1243353Y1265964D02*
X1245045Y1267657D01*
X1248431D01*
X1250124Y1265964D01*
Y1264271D01*
X1248431Y1262578D01*
X1246738D01*
X1248431D01*
X1250124Y1260886D01*
Y1259193D01*
X1248431Y1257500D01*
X1245045D01*
X1243353Y1259193D01*
X1260280Y1267657D02*
X1256895Y1265964D01*
X1253509Y1262578D01*
Y1259193D01*
X1255202Y1257500D01*
X1258588D01*
X1260280Y1259193D01*
Y1260886D01*
X1258588Y1262578D01*
X1253509D01*
X1018771Y1257639D02*
X1017078Y1259331D01*
X1013693D01*
X1012000Y1257639D01*
Y1250867D01*
X1013693Y1249175D01*
X1017078D01*
X1018771Y1250867D01*
X1022157Y1257639D02*
X1023849Y1259331D01*
X1027235D01*
X1028928Y1257639D01*
Y1255946D01*
X1027235Y1254253D01*
X1025542D01*
X1027235D01*
X1028928Y1252560D01*
Y1250867D01*
X1027235Y1249175D01*
X1023849D01*
X1022157Y1250867D01*
X1039085Y1259331D02*
X1032314D01*
Y1254253D01*
X1035699Y1255946D01*
X1037392D01*
X1039085Y1254253D01*
Y1250867D01*
X1037392Y1249175D01*
X1034006D01*
X1032314Y1250867D01*
X917521Y1257964D02*
X915828Y1259657D01*
X912443D01*
X910750Y1257964D01*
Y1251193D01*
X912443Y1249500D01*
X915828D01*
X917521Y1251193D01*
X920907Y1257964D02*
X922599Y1259657D01*
X925985D01*
X927678Y1257964D01*
Y1256271D01*
X925985Y1254578D01*
X924292D01*
X925985D01*
X927678Y1252886D01*
Y1251193D01*
X925985Y1249500D01*
X922599D01*
X920907Y1251193D01*
X936142Y1249500D02*
Y1259657D01*
X931063Y1254578D01*
X937835D01*
X817771Y1259214D02*
X816078Y1260907D01*
X812693D01*
X811000Y1259214D01*
Y1252443D01*
X812693Y1250750D01*
X816078D01*
X817771Y1252443D01*
X821157Y1259214D02*
X822850Y1260907D01*
X826235D01*
X827928Y1259214D01*
Y1257521D01*
X826235Y1255828D01*
X824542D01*
X826235D01*
X827928Y1254136D01*
Y1252443D01*
X826235Y1250750D01*
X822850D01*
X821157Y1252443D01*
X838085Y1250750D02*
X831313D01*
X838085Y1257521D01*
Y1259214D01*
X836392Y1260907D01*
X833006D01*
X831313Y1259214D01*
X728036Y1069771D02*
X726343Y1068078D01*
Y1064693D01*
X728036Y1063000D01*
X734807D01*
X736500Y1064693D01*
Y1068078D01*
X734807Y1069771D01*
X728036Y1073157D02*
X726343Y1074849D01*
Y1078235D01*
X728036Y1079928D01*
X729729D01*
X731422Y1078235D01*
Y1076542D01*
Y1078235D01*
X733114Y1079928D01*
X734807D01*
X736500Y1078235D01*
Y1074849D01*
X734807Y1073157D01*
X736500Y1083314D02*
Y1086699D01*
Y1085006D01*
X726343D01*
X728036Y1083314D01*
X747036Y1069271D02*
X745343Y1067578D01*
Y1064193D01*
X747036Y1062500D01*
X753807D01*
X755500Y1064193D01*
Y1067578D01*
X753807Y1069271D01*
X747036Y1072657D02*
X745343Y1074350D01*
Y1077735D01*
X747036Y1079428D01*
X748729D01*
X750422Y1077735D01*
Y1076042D01*
Y1077735D01*
X752114Y1079428D01*
X753807D01*
X755500Y1077735D01*
Y1074350D01*
X753807Y1072657D01*
X747036Y1082813D02*
X745343Y1084506D01*
Y1087892D01*
X747036Y1089585D01*
X753807D01*
X755500Y1087892D01*
Y1084506D01*
X753807Y1082813D01*
X747036D01*
X711286Y964771D02*
X709593Y963078D01*
Y959693D01*
X711286Y958000D01*
X718057D01*
X719750Y959693D01*
Y963078D01*
X718057Y964771D01*
X719750Y974928D02*
Y968157D01*
X712979Y974928D01*
X711286D01*
X709593Y973235D01*
Y969849D01*
X711286Y968157D01*
X718057Y978313D02*
X719750Y980006D01*
Y983392D01*
X718057Y985085D01*
X711286D01*
X709593Y983392D01*
Y980006D01*
X711286Y978313D01*
X712979D01*
X714672Y980006D01*
Y985085D01*
X731786Y964521D02*
X730093Y962828D01*
Y959443D01*
X731786Y957750D01*
X738557D01*
X740250Y959443D01*
Y962828D01*
X738557Y964521D01*
X740250Y974678D02*
Y967907D01*
X733479Y974678D01*
X731786D01*
X730093Y972985D01*
Y969600D01*
X731786Y967907D01*
Y978063D02*
X730093Y979756D01*
Y983142D01*
X731786Y984835D01*
X733479D01*
X735172Y983142D01*
X736864Y984835D01*
X738557D01*
X740250Y983142D01*
Y979756D01*
X738557Y978063D01*
X736864D01*
X735172Y979756D01*
X733479Y978063D01*
X731786D01*
X735172Y979756D02*
Y983142D01*
X1144521Y966714D02*
X1142828Y968407D01*
X1139443D01*
X1137750Y966714D01*
Y959943D01*
X1139443Y958250D01*
X1142828D01*
X1144521Y959943D01*
X1154678Y958250D02*
X1147907D01*
X1154678Y965021D01*
Y966714D01*
X1152985Y968407D01*
X1149600D01*
X1147907Y966714D01*
X1158063Y968407D02*
X1164835D01*
Y966714D01*
X1158063Y959943D01*
Y958250D01*
X1233036Y1009611D02*
X1231343Y1007918D01*
Y1004533D01*
X1233036Y1002840D01*
X1239807D01*
X1241500Y1004533D01*
Y1007918D01*
X1239807Y1009611D01*
X1241500Y1019768D02*
Y1012997D01*
X1234729Y1019768D01*
X1233036D01*
X1231343Y1018075D01*
Y1014690D01*
X1233036Y1012997D01*
Y1023154D02*
X1231343Y1024846D01*
Y1028232D01*
X1233036Y1029925D01*
X1239807D01*
X1241500Y1028232D01*
Y1024846D01*
X1239807Y1023154D01*
X1233036D01*
X1213536Y1009521D02*
X1211843Y1007828D01*
Y1004443D01*
X1213536Y1002750D01*
X1220307D01*
X1222000Y1004443D01*
Y1007828D01*
X1220307Y1009521D01*
X1222000Y1012907D02*
Y1016292D01*
Y1014600D01*
X1211843D01*
X1213536Y1012907D01*
X1211843Y1028142D02*
Y1021371D01*
X1216922D01*
X1215229Y1024756D01*
Y1026449D01*
X1216922Y1028142D01*
X1220307D01*
X1222000Y1026449D01*
Y1023063D01*
X1220307Y1021371D01*
X1402036Y930271D02*
X1400343Y928578D01*
Y925193D01*
X1402036Y923500D01*
X1408807D01*
X1410500Y925193D01*
Y928578D01*
X1408807Y930271D01*
X1410500Y933657D02*
Y937042D01*
Y935350D01*
X1400343D01*
X1402036Y933657D01*
X1410500Y948892D02*
Y942121D01*
X1403729Y948892D01*
X1402036D01*
X1400343Y947199D01*
Y943813D01*
X1402036Y942121D01*
X1391021Y860714D02*
X1389328Y862407D01*
X1385943D01*
X1384250Y860714D01*
Y853943D01*
X1385943Y852250D01*
X1389328D01*
X1391021Y853943D01*
X1394407Y852250D02*
X1397792D01*
X1396100D01*
Y862407D01*
X1394407Y860714D01*
X1402871Y852250D02*
X1406256D01*
X1404563D01*
Y862407D01*
X1402871Y860714D01*
X1237521Y884464D02*
X1235828Y886157D01*
X1232443D01*
X1230750Y884464D01*
Y877693D01*
X1232443Y876000D01*
X1235828D01*
X1237521Y877693D01*
X1240907Y876000D02*
X1244292D01*
X1242599D01*
Y886157D01*
X1240907Y884464D01*
X1249371D02*
X1251063Y886157D01*
X1254449D01*
X1256142Y884464D01*
Y877693D01*
X1254449Y876000D01*
X1251063D01*
X1249371Y877693D01*
Y884464D01*
X1276271Y883964D02*
X1274578Y885657D01*
X1271193D01*
X1269500Y883964D01*
Y877193D01*
X1271193Y875500D01*
X1274578D01*
X1276271Y877193D01*
X1279657D02*
X1281349Y875500D01*
X1284735D01*
X1286428Y877193D01*
Y883964D01*
X1284735Y885657D01*
X1281349D01*
X1279657Y883964D01*
Y882271D01*
X1281349Y880578D01*
X1286428D01*
X1279021Y970964D02*
X1277328Y972657D01*
X1273943D01*
X1272250Y970964D01*
Y964193D01*
X1273943Y962500D01*
X1277328D01*
X1279021Y964193D01*
X1282407Y970964D02*
X1284099Y972657D01*
X1287485D01*
X1289178Y970964D01*
Y969271D01*
X1287485Y967578D01*
X1289178Y965886D01*
Y964193D01*
X1287485Y962500D01*
X1284099D01*
X1282407Y964193D01*
Y965886D01*
X1284099Y967578D01*
X1282407Y969271D01*
Y970964D01*
X1284099Y967578D02*
X1287485D01*
X1280271Y1040964D02*
X1278578Y1042657D01*
X1275193D01*
X1273500Y1040964D01*
Y1034193D01*
X1275193Y1032500D01*
X1278578D01*
X1280271Y1034193D01*
X1283657Y1042657D02*
X1290428D01*
Y1040964D01*
X1283657Y1034193D01*
Y1032500D01*
X1222553Y982273D02*
X1220159D01*
X1217765Y979879D01*
Y977485D01*
X1222553Y972697D01*
X1224947D01*
X1227341Y975091D01*
Y977485D01*
X1228538Y990652D02*
X1227341Y987061D01*
X1227341Y982273D01*
X1229735Y979879D01*
X1232129D01*
X1234523Y982273D01*
Y984667D01*
X1233326Y985864D01*
X1230932D01*
X1227341Y982273D01*
X1178303Y939273D02*
X1175909D01*
X1173515Y936879D01*
Y934485D01*
X1178303Y929697D01*
X1180697D01*
X1183091Y932091D01*
Y934485D01*
X1184288Y947652D02*
X1179500Y942864D01*
X1183091Y939273D01*
X1184288Y942864D01*
X1185485Y944061D01*
X1187879D01*
X1190273Y941667D01*
Y939273D01*
X1187879Y936879D01*
X1185485D01*
X1032734Y952305D02*
X1031041Y953998D01*
X1027655D01*
X1025962Y952305D01*
Y945534D01*
X1027655Y943841D01*
X1031041D01*
X1032734Y945534D01*
X1041198Y943841D02*
Y953998D01*
X1036119Y948920D01*
X1042890D01*
X954340Y989219D02*
X952647Y990912D01*
X949262D01*
X947569Y989219D01*
Y982448D01*
X949262Y980755D01*
X952647D01*
X954340Y982448D01*
X957726Y989219D02*
X959419Y990912D01*
X962804D01*
X964497Y989219D01*
Y987526D01*
X962804Y985833D01*
X961111D01*
X962804D01*
X964497Y984141D01*
Y982448D01*
X962804Y980755D01*
X959419D01*
X957726Y982448D01*
X1254271Y1087964D02*
X1252578Y1089657D01*
X1249193D01*
X1247500Y1087964D01*
Y1081193D01*
X1249193Y1079500D01*
X1252578D01*
X1254271Y1081193D01*
X1264428Y1079500D02*
X1257657D01*
X1264428Y1086271D01*
Y1087964D01*
X1262735Y1089657D01*
X1259350D01*
X1257657Y1087964D01*
X915521Y936714D02*
X913828Y938407D01*
X910443D01*
X908750Y936714D01*
Y929943D01*
X910443Y928250D01*
X913828D01*
X915521Y929943D01*
X918907Y928250D02*
X922292D01*
X920600D01*
Y938407D01*
X918907Y936714D01*
X1434900Y1564187D02*
Y1556781D01*
X1436381Y1555300D01*
X1439344D01*
X1440825Y1556781D01*
Y1564187D01*
X1443787Y1555300D02*
X1446750D01*
X1445268D01*
Y1564187D01*
X1443787Y1562706D01*
X1457118Y1564187D02*
X1454155Y1562706D01*
X1451193Y1559743D01*
Y1556781D01*
X1452674Y1555300D01*
X1455637D01*
X1457118Y1556781D01*
Y1558262D01*
X1455637Y1559743D01*
X1451193D01*
D11*
X1313250Y920550D02*
G03*
X1313250Y920550I-1250J0D01*
G01*
X747250Y896000D02*
G03*
X747250Y896000I-1250J0D01*
G01*
X1111756Y951215D02*
G03*
X1111756Y951215I-1250J0D01*
G01*
D12*
X844150Y873750D02*
G03*
X844150Y873750I-900J0D01*
G01*
X722530Y1216350D02*
G03*
X722530Y1216350I-900J0D01*
G01*
D13*
X1107319Y977201D02*
G03*
X1107319Y977201I-3000J0D01*
G01*
D14*
X989800Y995250D02*
G03*
X989800Y995250I-800J0D01*
G01*
X935000Y1401200D02*
Y1518800D01*
X825000D02*
X935000D01*
X825000Y1401200D02*
Y1518800D01*
Y1401200D02*
X935000D01*
X1164356Y974180D02*
X1188398Y998222D01*
X1200419Y986201D01*
X1176377Y962160D02*
X1200419Y986201D01*
X1164356Y974180D02*
X1176377Y962160D01*
D15*
X677600Y1536350D02*
X702800D01*
X677600Y1386750D02*
X691350D01*
X702800D02*
Y1536350D01*
X691350Y1386750D02*
X702800D01*
X677600D02*
Y1536350D01*
X986700Y831900D02*
X1164500D01*
X986700Y882700D02*
X1164500D01*
X986700Y831900D02*
Y882700D01*
X1164500Y831900D02*
Y882700D01*
X1327000Y868000D02*
Y918000D01*
X1345000Y868000D02*
Y918000D01*
X1327000D02*
X1345000D01*
X1327000Y868000D02*
X1345000D01*
X748500Y914750D02*
X779500D01*
X748500Y904750D02*
X779500D01*
Y914750D01*
X748500Y904750D02*
Y914750D01*
X763250Y1069180D02*
X782500D01*
X786000Y966230D02*
Y1069230D01*
Y966230D02*
X854000D01*
Y1069230D01*
X786000D02*
X854000D01*
X1104319Y1141249D02*
X1193415Y1052154D01*
X1015224Y1052154D02*
X1104319Y963058D01*
X1015224Y1052154D02*
X1104319Y1141249D01*
Y963058D02*
X1193415Y1052154D01*
X1514348Y930082D02*
Y1595582D01*
X1463598Y930082D02*
Y1595582D01*
X1514398Y930082D02*
Y1595582D01*
X1463598D02*
X1514398D01*
X1463598Y930082D02*
X1514398D01*
X1514348Y1595582D02*
X1565548D01*
X1514348Y930082D02*
X1565548D01*
Y1595582D01*
X1565450Y930050D02*
Y1595550D01*
X1514250Y930050D02*
X1565450D01*
X1514250Y1595550D02*
X1565450D01*
X1463500Y930050D02*
X1514300D01*
X1463500Y1595550D02*
X1514300D01*
Y930050D02*
Y1595550D01*
X1463500Y930050D02*
Y1595550D01*
X1514250Y930050D02*
Y1595550D01*
X1083669Y1442546D02*
X1081855Y1441942D01*
X1080646Y1440732D01*
X1080042Y1439523D01*
X1079437Y1437104D01*
Y1435291D01*
X1080042Y1432872D01*
X1080646Y1431663D01*
X1081855Y1430454D01*
X1083669Y1429849D01*
X1084879D01*
X1086693Y1430454D01*
X1087902Y1431663D01*
X1088506Y1432872D01*
X1089111Y1435291D01*
Y1437104D01*
X1088506Y1439523D01*
X1087902Y1440732D01*
X1086693Y1441942D01*
X1084879Y1442546D01*
X1083669D01*
X1082460Y1441942D01*
X1081251Y1440732D01*
X1080646Y1439523D01*
X1080042Y1437104D01*
Y1435291D01*
X1080646Y1432872D01*
X1081251Y1431663D01*
X1082460Y1430454D01*
X1083669Y1429849D01*
X1084879D02*
X1086088Y1430454D01*
X1087297Y1431663D01*
X1087902Y1432872D01*
X1088506Y1435291D01*
Y1437104D01*
X1087902Y1439523D01*
X1087297Y1440732D01*
X1086088Y1441942D01*
X1084879Y1442546D01*
X1092679D02*
Y1429849D01*
X1093283Y1442546D02*
Y1429849D01*
X1090865Y1442546D02*
X1098120D01*
X1099934Y1441942D01*
X1100539Y1441337D01*
X1101143Y1440128D01*
Y1438918D01*
X1100539Y1437709D01*
X1099934Y1437104D01*
X1098120Y1436500D01*
Y1442546D02*
X1099329Y1441942D01*
X1099934Y1441337D01*
X1100539Y1440128D01*
Y1438918D01*
X1099934Y1437709D01*
X1099329Y1437104D01*
X1098120Y1436500D01*
X1093283D02*
X1098120D01*
X1099934Y1435895D01*
X1100539Y1435291D01*
X1101143Y1434081D01*
Y1432267D01*
X1100539Y1431058D01*
X1099934Y1430454D01*
X1098120Y1429849D01*
X1090865D01*
X1098120Y1436500D02*
X1099329Y1435895D01*
X1099934Y1435291D01*
X1100539Y1434081D01*
Y1432267D01*
X1099934Y1431058D01*
X1099329Y1430454D01*
X1098120Y1429849D01*
X1104650Y1442546D02*
Y1429849D01*
X1105255Y1442546D02*
Y1429849D01*
X1102836Y1442546D02*
X1108883D01*
X1110696Y1441942D01*
X1111906Y1440732D01*
X1112510Y1439523D01*
X1113115Y1437709D01*
Y1434686D01*
X1112510Y1432872D01*
X1111906Y1431663D01*
X1110696Y1430454D01*
X1108883Y1429849D01*
X1102836D01*
X1108883Y1442546D02*
X1110092Y1441942D01*
X1111301Y1440732D01*
X1111906Y1439523D01*
X1112510Y1437709D01*
Y1434686D01*
X1111906Y1432872D01*
X1111301Y1431663D01*
X1110092Y1430454D01*
X1108883Y1429849D01*
X1116622Y1442546D02*
Y1429849D01*
X1117227Y1442546D02*
Y1429849D01*
X1124482Y1442546D02*
Y1429849D01*
X1125087Y1442546D02*
Y1429849D01*
X1114808Y1442546D02*
X1119041D01*
X1122668D02*
X1126901D01*
X1117227Y1436500D02*
X1124482D01*
X1114808Y1429849D02*
X1119041D01*
X1122668D02*
X1126901D01*
X1141654Y1442546D02*
Y1429849D01*
X1142258Y1442546D02*
Y1429849D01*
X1145886Y1438918D02*
Y1434081D01*
X1139840Y1442546D02*
X1149514D01*
Y1438918D01*
X1148909Y1442546D01*
X1142258Y1436500D02*
X1145886D01*
X1139840Y1429849D02*
X1149514D01*
Y1433477D01*
X1148909Y1429849D01*
X1153081Y1442546D02*
Y1429849D01*
X1153686Y1442546D02*
X1157314Y1431663D01*
X1153081Y1442546D02*
X1157314Y1429849D01*
X1161546Y1442546D02*
X1157314Y1429849D01*
X1161546Y1442546D02*
Y1429849D01*
X1162151Y1442546D02*
Y1429849D01*
X1151267Y1442546D02*
X1153686D01*
X1161546D02*
X1163965D01*
X1151267Y1429849D02*
X1154895D01*
X1159732D02*
X1163965D01*
X1177448Y1440128D02*
X1178053Y1439523D01*
X1177448Y1438918D01*
X1176843Y1439523D01*
Y1440128D01*
X1177448Y1441337D01*
X1178053Y1441942D01*
X1179866Y1442546D01*
X1182285D01*
X1184099Y1441942D01*
X1184704Y1441337D01*
X1185308Y1440128D01*
Y1438918D01*
X1184704Y1437709D01*
X1182890Y1436500D01*
X1179866Y1435291D01*
X1178657Y1434686D01*
X1177448Y1433477D01*
X1176843Y1431663D01*
Y1429849D01*
X1182285Y1442546D02*
X1183494Y1441942D01*
X1184099Y1441337D01*
X1184704Y1440128D01*
Y1438918D01*
X1184099Y1437709D01*
X1182285Y1436500D01*
X1179866Y1435291D01*
X1176843Y1431058D02*
X1177448Y1431663D01*
X1178657D01*
X1181680Y1430454D01*
X1183494D01*
X1184704Y1431058D01*
X1185308Y1431663D01*
Y1432872D01*
X1178657Y1431663D02*
X1181680Y1429849D01*
X1184099D01*
X1184704Y1430454D01*
X1185308Y1431663D01*
X1204052Y1442546D02*
X1199819Y1429849D01*
X1204052Y1442546D02*
X1208284Y1429849D01*
X1204052Y1440732D02*
X1207680Y1429849D01*
X1201029Y1433477D02*
X1206470D01*
X1198610Y1429849D02*
X1202238D01*
X1205866D02*
X1209493D01*
X1212940Y1442546D02*
Y1429849D01*
X1213545Y1442546D02*
Y1429849D01*
X1211126Y1442546D02*
X1215359D01*
X1211126Y1429849D02*
X1220195D01*
Y1433477D01*
X1219591Y1429849D01*
X1226242Y1442546D02*
Y1429849D01*
X1226846Y1442546D02*
Y1429849D01*
X1222614Y1442546D02*
X1222009Y1438918D01*
Y1442546D01*
X1231079D01*
Y1438918D01*
X1230474Y1442546D01*
X1224428Y1429849D02*
X1228660D01*
X1097002Y1422509D02*
Y1409812D01*
X1097606Y1422509D02*
Y1409812D01*
X1101234Y1418882D02*
Y1414045D01*
X1095188Y1422509D02*
X1104862D01*
Y1418882D01*
X1104257Y1422509D01*
X1097606Y1416463D02*
X1101234D01*
X1095188Y1409812D02*
X1099420D01*
X1108429Y1422509D02*
Y1409812D01*
X1109034Y1422509D02*
Y1409812D01*
X1106615Y1422509D02*
X1109034D01*
X1106615Y1409812D02*
X1110848D01*
X1116773Y1418277D02*
X1114959Y1417672D01*
X1113750Y1416463D01*
X1113145Y1414649D01*
Y1413440D01*
X1113750Y1411626D01*
X1114959Y1410417D01*
X1116773Y1409812D01*
X1117982D01*
X1119796Y1410417D01*
X1121005Y1411626D01*
X1121610Y1413440D01*
Y1414649D01*
X1121005Y1416463D01*
X1119796Y1417672D01*
X1117982Y1418277D01*
X1116773D01*
X1115564Y1417672D01*
X1114355Y1416463D01*
X1113750Y1414649D01*
Y1413440D01*
X1114355Y1411626D01*
X1115564Y1410417D01*
X1116773Y1409812D01*
X1117982D02*
X1119192Y1410417D01*
X1120401Y1411626D01*
X1121005Y1413440D01*
Y1414649D01*
X1120401Y1416463D01*
X1119192Y1417672D01*
X1117982Y1418277D01*
X1125298D02*
Y1409812D01*
X1125903Y1418277D02*
Y1409812D01*
Y1414649D02*
X1126508Y1416463D01*
X1127717Y1417672D01*
X1128926Y1418277D01*
X1130740D01*
X1131345Y1417672D01*
Y1417068D01*
X1130740Y1416463D01*
X1130135Y1417068D01*
X1130740Y1417672D01*
X1123484Y1418277D02*
X1125903D01*
X1123484Y1409812D02*
X1127717D01*
X1135094Y1422509D02*
X1134489Y1421905D01*
X1135094Y1421300D01*
X1135698Y1421905D01*
X1135094Y1422509D01*
Y1418277D02*
Y1409812D01*
X1135698Y1418277D02*
Y1409812D01*
X1133280Y1418277D02*
X1135698D01*
X1133280Y1409812D02*
X1137512D01*
X1141624Y1418277D02*
Y1405580D01*
X1142228Y1418277D02*
Y1405580D01*
Y1416463D02*
X1143437Y1417672D01*
X1144647Y1418277D01*
X1145856D01*
X1147670Y1417672D01*
X1148879Y1416463D01*
X1149484Y1414649D01*
Y1413440D01*
X1148879Y1411626D01*
X1147670Y1410417D01*
X1145856Y1409812D01*
X1144647D01*
X1143437Y1410417D01*
X1142228Y1411626D01*
X1145856Y1418277D02*
X1147065Y1417672D01*
X1148275Y1416463D01*
X1148879Y1414649D01*
Y1413440D01*
X1148275Y1411626D01*
X1147065Y1410417D01*
X1145856Y1409812D01*
X1139810Y1418277D02*
X1142228D01*
X1139810Y1405580D02*
X1144042D01*
X1152446Y1417068D02*
Y1416463D01*
X1151842D01*
Y1417068D01*
X1152446Y1417672D01*
X1153656Y1418277D01*
X1156074D01*
X1157283Y1417672D01*
X1157888Y1417068D01*
X1158493Y1415858D01*
Y1411626D01*
X1159097Y1410417D01*
X1159702Y1409812D01*
X1157888Y1417068D02*
Y1411626D01*
X1158493Y1410417D01*
X1159702Y1409812D01*
X1160307D01*
X1157888Y1415858D02*
X1157283Y1415254D01*
X1153656Y1414649D01*
X1151842Y1414045D01*
X1151237Y1412835D01*
Y1411626D01*
X1151842Y1410417D01*
X1153656Y1409812D01*
X1155470D01*
X1156679Y1410417D01*
X1157888Y1411626D01*
X1153656Y1414649D02*
X1152446Y1414045D01*
X1151842Y1412835D01*
Y1411626D01*
X1152446Y1410417D01*
X1153656Y1409812D01*
X1169981Y1420696D02*
X1170585Y1422509D01*
Y1418882D01*
X1169981Y1420696D01*
X1168772Y1421905D01*
X1166958Y1422509D01*
X1165144D01*
X1163330Y1421905D01*
X1162121Y1420696D01*
Y1419486D01*
X1162725Y1418277D01*
X1163330Y1417672D01*
X1164539Y1417068D01*
X1168167Y1415858D01*
X1169376Y1415254D01*
X1170585Y1414045D01*
X1162121Y1419486D02*
X1163330Y1418277D01*
X1164539Y1417672D01*
X1168167Y1416463D01*
X1169376Y1415858D01*
X1169981Y1415254D01*
X1170585Y1414045D01*
Y1411626D01*
X1169376Y1410417D01*
X1167562Y1409812D01*
X1165748D01*
X1163934Y1410417D01*
X1162725Y1411626D01*
X1162121Y1413440D01*
Y1409812D01*
X1162725Y1411626D01*
X1173669Y1417068D02*
Y1416463D01*
X1173064D01*
Y1417068D01*
X1173669Y1417672D01*
X1174878Y1418277D01*
X1177297D01*
X1178506Y1417672D01*
X1179111Y1417068D01*
X1179715Y1415858D01*
Y1411626D01*
X1180320Y1410417D01*
X1180925Y1409812D01*
X1179111Y1417068D02*
Y1411626D01*
X1179715Y1410417D01*
X1180925Y1409812D01*
X1181529D01*
X1179111Y1415858D02*
X1178506Y1415254D01*
X1174878Y1414649D01*
X1173064Y1414045D01*
X1172460Y1412835D01*
Y1411626D01*
X1173064Y1410417D01*
X1174878Y1409812D01*
X1176692D01*
X1177902Y1410417D01*
X1179111Y1411626D01*
X1174878Y1414649D02*
X1173669Y1414045D01*
X1173064Y1412835D01*
Y1411626D01*
X1173669Y1410417D01*
X1174878Y1409812D01*
X1186971D02*
X1186366Y1410417D01*
X1185762Y1412231D01*
Y1422509D01*
X1185157D01*
Y1412231D01*
X1185762Y1410417D01*
X1186971Y1409812D01*
X1188180D01*
X1189389Y1410417D01*
X1189994Y1411626D01*
X1183343Y1418277D02*
X1188180D01*
X1192050Y1415254D02*
X1202933D01*
X1206380Y1422509D02*
Y1409812D01*
X1206984Y1422509D02*
Y1409812D01*
X1204566Y1422509D02*
X1208798D01*
X1204566Y1409812D02*
X1208798D01*
X1212910Y1422509D02*
Y1409812D01*
X1213514Y1422509D02*
Y1409812D01*
X1211096Y1422509D02*
X1215328D01*
X1211096Y1409812D02*
X1215328D01*
X1108490Y1398240D02*
Y1389171D01*
X1109094Y1387357D01*
X1110303Y1386148D01*
X1112117Y1385543D01*
X1113327D01*
X1115141Y1386148D01*
X1116350Y1387357D01*
X1116954Y1389171D01*
Y1398240D01*
X1109094D02*
Y1389171D01*
X1109699Y1387357D01*
X1110908Y1386148D01*
X1112117Y1385543D01*
X1106676Y1398240D02*
X1110908D01*
X1115141D02*
X1118768D01*
X1122094D02*
Y1385543D01*
X1122699Y1398240D02*
Y1385543D01*
X1126326Y1394612D02*
Y1389776D01*
X1120280Y1398240D02*
X1129954D01*
Y1394612D01*
X1129349Y1398240D01*
X1122699Y1392194D02*
X1126326D01*
X1120280Y1385543D02*
X1124512D01*
X1139568Y1396426D02*
X1140172Y1398240D01*
Y1394612D01*
X1139568Y1396426D01*
X1138359Y1397636D01*
X1136545Y1398240D01*
X1134731D01*
X1132917Y1397636D01*
X1131708Y1396426D01*
Y1395217D01*
X1132312Y1394008D01*
X1132917Y1393403D01*
X1134126Y1392799D01*
X1137754Y1391589D01*
X1138963Y1390985D01*
X1140172Y1389776D01*
X1131708Y1395217D02*
X1132917Y1394008D01*
X1134126Y1393403D01*
X1137754Y1392194D01*
X1138963Y1391589D01*
X1139568Y1390985D01*
X1140172Y1389776D01*
Y1387357D01*
X1138963Y1386148D01*
X1137149Y1385543D01*
X1135335D01*
X1133521Y1386148D01*
X1132312Y1387357D01*
X1131708Y1389171D01*
Y1385543D01*
X1132312Y1387357D01*
X1150512Y1396426D02*
X1151116Y1394612D01*
Y1398240D01*
X1150512Y1396426D01*
X1149302Y1397636D01*
X1147488Y1398240D01*
X1146279D01*
X1144465Y1397636D01*
X1143256Y1396426D01*
X1142651Y1395217D01*
X1142047Y1393403D01*
Y1390380D01*
X1142651Y1388566D01*
X1143256Y1387357D01*
X1144465Y1386148D01*
X1146279Y1385543D01*
X1147488D01*
X1149302Y1386148D01*
X1150512Y1387357D01*
X1151116Y1388566D01*
X1146279Y1398240D02*
X1145070Y1397636D01*
X1143861Y1396426D01*
X1143256Y1395217D01*
X1142651Y1393403D01*
Y1390380D01*
X1143256Y1388566D01*
X1143861Y1387357D01*
X1145070Y1386148D01*
X1146279Y1385543D01*
X1164962Y1395822D02*
X1165567Y1395217D01*
X1164962Y1394612D01*
X1164358Y1395217D01*
Y1395822D01*
X1164962Y1397031D01*
X1165567Y1397636D01*
X1167381Y1398240D01*
X1169799D01*
X1171613Y1397636D01*
X1172218Y1397031D01*
X1172822Y1395822D01*
Y1394612D01*
X1172218Y1393403D01*
X1170404Y1392194D01*
X1167381Y1390985D01*
X1166172Y1390380D01*
X1164962Y1389171D01*
X1164358Y1387357D01*
Y1385543D01*
X1169799Y1398240D02*
X1171009Y1397636D01*
X1171613Y1397031D01*
X1172218Y1395822D01*
Y1394612D01*
X1171613Y1393403D01*
X1169799Y1392194D01*
X1167381Y1390985D01*
X1164358Y1386752D02*
X1164962Y1387357D01*
X1166172D01*
X1169195Y1386148D01*
X1171009D01*
X1172218Y1386752D01*
X1172822Y1387357D01*
Y1388566D01*
X1166172Y1387357D02*
X1169195Y1385543D01*
X1171613D01*
X1172218Y1386148D01*
X1172822Y1387357D01*
X1178325Y1398240D02*
X1176511Y1397636D01*
X1175302Y1395822D01*
X1174697Y1392799D01*
Y1390985D01*
X1175302Y1387962D01*
X1176511Y1386148D01*
X1178325Y1385543D01*
X1179534D01*
X1181348Y1386148D01*
X1182557Y1387962D01*
X1183162Y1390985D01*
Y1392799D01*
X1182557Y1395822D01*
X1181348Y1397636D01*
X1179534Y1398240D01*
X1178325D01*
X1177115Y1397636D01*
X1176511Y1397031D01*
X1175906Y1395822D01*
X1175302Y1392799D01*
Y1390985D01*
X1175906Y1387962D01*
X1176511Y1386752D01*
X1177115Y1386148D01*
X1178325Y1385543D01*
X1179534D02*
X1180743Y1386148D01*
X1181348Y1386752D01*
X1181953Y1387962D01*
X1182557Y1390985D01*
Y1392799D01*
X1181953Y1395822D01*
X1181348Y1397031D01*
X1180743Y1397636D01*
X1179534Y1398240D01*
X1185641Y1395822D02*
X1186245Y1395217D01*
X1185641Y1394612D01*
X1185036Y1395217D01*
Y1395822D01*
X1185641Y1397031D01*
X1186245Y1397636D01*
X1188059Y1398240D01*
X1190478D01*
X1192292Y1397636D01*
X1192896Y1397031D01*
X1193501Y1395822D01*
Y1394612D01*
X1192896Y1393403D01*
X1191083Y1392194D01*
X1188059Y1390985D01*
X1186850Y1390380D01*
X1185641Y1389171D01*
X1185036Y1387357D01*
Y1385543D01*
X1190478Y1398240D02*
X1191687Y1397636D01*
X1192292Y1397031D01*
X1192896Y1395822D01*
Y1394612D01*
X1192292Y1393403D01*
X1190478Y1392194D01*
X1188059Y1390985D01*
X1185036Y1386752D02*
X1185641Y1387357D01*
X1186850D01*
X1189873Y1386148D01*
X1191687D01*
X1192896Y1386752D01*
X1193501Y1387357D01*
Y1388566D01*
X1186850Y1387357D02*
X1189873Y1385543D01*
X1192292D01*
X1192896Y1386148D01*
X1193501Y1387357D01*
X1199003Y1398240D02*
X1197189Y1397636D01*
X1195980Y1395822D01*
X1195375Y1392799D01*
Y1390985D01*
X1195980Y1387962D01*
X1197189Y1386148D01*
X1199003Y1385543D01*
X1200212D01*
X1202026Y1386148D01*
X1203236Y1387962D01*
X1203840Y1390985D01*
Y1392799D01*
X1203236Y1395822D01*
X1202026Y1397636D01*
X1200212Y1398240D01*
X1199003D01*
X1197794Y1397636D01*
X1197189Y1397031D01*
X1196585Y1395822D01*
X1195980Y1392799D01*
Y1390985D01*
X1196585Y1387962D01*
X1197189Y1386752D01*
X1197794Y1386148D01*
X1199003Y1385543D01*
X1200212D02*
X1201422Y1386148D01*
X1202026Y1386752D01*
X1202631Y1387962D01*
X1203236Y1390985D01*
Y1392799D01*
X1202631Y1395822D01*
X1202026Y1397031D01*
X1201422Y1397636D01*
X1200212Y1398240D01*
X1450152Y1211998D02*
X1448902Y1210749D01*
Y1208250D01*
X1450152Y1207000D01*
X1455150D01*
X1456400Y1208250D01*
Y1210749D01*
X1455150Y1211998D01*
X1452651D01*
Y1209499D01*
X1456400Y1214498D02*
X1448902D01*
X1456400Y1219496D01*
X1448902D01*
Y1221995D02*
X1456400D01*
Y1225744D01*
X1455150Y1226994D01*
X1450152D01*
X1448902Y1225744D01*
Y1221995D01*
X1571152Y1216298D02*
X1569902Y1215049D01*
Y1212550D01*
X1571152Y1211300D01*
X1576150D01*
X1577400Y1212550D01*
Y1215049D01*
X1576150Y1216298D01*
X1573651D01*
Y1213799D01*
X1577400Y1218798D02*
X1569902D01*
X1577400Y1223796D01*
X1569902D01*
Y1226295D02*
X1577400D01*
Y1230044D01*
X1576150Y1231294D01*
X1571152D01*
X1569902Y1230044D01*
Y1226295D01*
X1456800Y1017349D02*
X1449302D01*
X1453051Y1013600D01*
Y1018598D01*
X1449302Y1026096D02*
Y1021098D01*
X1453051D01*
X1451802Y1023597D01*
Y1024846D01*
X1453051Y1026096D01*
X1455550D01*
X1456800Y1024846D01*
Y1022347D01*
X1455550Y1021098D01*
X1577400Y1015949D02*
X1569902D01*
X1573651Y1012200D01*
Y1017198D01*
X1569902Y1024696D02*
X1571152Y1022197D01*
X1573651Y1019698D01*
X1576150D01*
X1577400Y1020947D01*
Y1023446D01*
X1576150Y1024696D01*
X1574901D01*
X1573651Y1023446D01*
Y1019698D01*
X1450552Y1089900D02*
X1449302Y1091150D01*
Y1093649D01*
X1450552Y1094898D01*
X1451802D01*
X1453051Y1093649D01*
Y1092399D01*
Y1093649D01*
X1454301Y1094898D01*
X1455550D01*
X1456800Y1093649D01*
Y1091150D01*
X1455550Y1089900D01*
Y1097398D02*
X1456800Y1098647D01*
Y1101146D01*
X1455550Y1102396D01*
X1450552D01*
X1449302Y1101146D01*
Y1098647D01*
X1450552Y1097398D01*
X1451802D01*
X1453051Y1098647D01*
Y1102396D01*
X1577400Y1091849D02*
X1569902D01*
X1573651Y1088100D01*
Y1093098D01*
X1571152Y1095598D02*
X1569902Y1096847D01*
Y1099346D01*
X1571152Y1100596D01*
X1576150D01*
X1577400Y1099346D01*
Y1096847D01*
X1576150Y1095598D01*
X1571152D01*
X1450552Y1191200D02*
X1449302Y1192450D01*
Y1194949D01*
X1450552Y1196198D01*
X1451802D01*
X1453051Y1194949D01*
Y1193699D01*
Y1194949D01*
X1454301Y1196198D01*
X1455550D01*
X1456800Y1194949D01*
Y1192450D01*
X1455550Y1191200D01*
X1456800Y1198698D02*
Y1201197D01*
Y1199947D01*
X1449302D01*
X1450552Y1198698D01*
X1571152Y1190500D02*
X1569902Y1191750D01*
Y1194249D01*
X1571152Y1195498D01*
X1572402D01*
X1573651Y1194249D01*
Y1192999D01*
Y1194249D01*
X1574901Y1195498D01*
X1576150D01*
X1577400Y1194249D01*
Y1191750D01*
X1576150Y1190500D01*
X1577400Y1202996D02*
Y1197998D01*
X1572402Y1202996D01*
X1571152D01*
X1569902Y1201746D01*
Y1199247D01*
X1571152Y1197998D01*
X1456800Y1298398D02*
Y1293400D01*
X1451802Y1298398D01*
X1450552D01*
X1449302Y1297149D01*
Y1294650D01*
X1450552Y1293400D01*
Y1300898D02*
X1449302Y1302147D01*
Y1304646D01*
X1450552Y1305896D01*
X1451802D01*
X1453051Y1304646D01*
Y1303397D01*
Y1304646D01*
X1454301Y1305896D01*
X1455550D01*
X1456800Y1304646D01*
Y1302147D01*
X1455550Y1300898D01*
X1577400Y1296698D02*
Y1291700D01*
X1572402Y1296698D01*
X1571152D01*
X1569902Y1295449D01*
Y1292950D01*
X1571152Y1291700D01*
X1577400Y1302946D02*
X1569902D01*
X1573651Y1299198D01*
Y1304196D01*
X1456800Y1394200D02*
Y1396699D01*
Y1395450D01*
X1449302D01*
X1450552Y1394200D01*
X1449302Y1405446D02*
Y1400448D01*
X1453051D01*
X1451802Y1402947D01*
Y1404197D01*
X1453051Y1405446D01*
X1455550D01*
X1456800Y1404197D01*
Y1401698D01*
X1455550Y1400448D01*
X1577400Y1394200D02*
Y1396699D01*
Y1395450D01*
X1569902D01*
X1571152Y1394200D01*
X1569902Y1405446D02*
X1571152Y1402947D01*
X1573651Y1400448D01*
X1576150D01*
X1577400Y1401698D01*
Y1404197D01*
X1576150Y1405446D01*
X1574901D01*
X1573651Y1404197D01*
Y1400448D01*
X1449302Y1501200D02*
Y1506198D01*
X1450552D01*
X1455550Y1501200D01*
X1456800D01*
X1571152Y1498800D02*
X1569902Y1500050D01*
Y1502549D01*
X1571152Y1503798D01*
X1572402D01*
X1573651Y1502549D01*
X1574901Y1503798D01*
X1576150D01*
X1577400Y1502549D01*
Y1500050D01*
X1576150Y1498800D01*
X1574901D01*
X1573651Y1500050D01*
X1572402Y1498800D01*
X1571152D01*
X1573651Y1500050D02*
Y1502549D01*
D16*
X1231750Y1049650D02*
Y1053150D01*
X1230250Y1034150D02*
X1244000D01*
X1242000Y1049650D02*
Y1053150D01*
X1223000Y1048310D02*
Y1054310D01*
X1213000Y1048310D02*
Y1054310D01*
X1224000Y1089000D02*
X1230000D01*
X1224000Y1079000D02*
X1230000D01*
X1286000Y1026000D02*
X1302000D01*
X1286000Y1004000D02*
X1302000D01*
X1305000Y977913D02*
Y983913D01*
X1315000Y977913D02*
Y983913D01*
X1244000Y942000D02*
Y948000D01*
X1254000Y942000D02*
Y948000D01*
X1286000Y956000D02*
X1302000D01*
X1286000Y934000D02*
X1302000D01*
X1400250Y897940D02*
Y903940D01*
X1410250Y897940D02*
Y903940D01*
X1393000Y869000D02*
X1399000D01*
X1393000Y879000D02*
X1399000D01*
X1272750Y905250D02*
Y908750D01*
X1271250Y889750D02*
X1285000D01*
X1283000Y905250D02*
Y908750D01*
X1254000Y904050D02*
Y910050D01*
X1244000Y904050D02*
Y910050D01*
X1150000Y943000D02*
X1156000D01*
X1150000Y953000D02*
X1156000D01*
X1198496Y959037D02*
X1202739Y954795D01*
X1191425Y951966D02*
X1195668Y947724D01*
X1213188Y972273D02*
X1217430Y968030D01*
X1206116Y965201D02*
X1210359Y960959D01*
X972500Y974250D02*
Y980250D01*
X982500Y974250D02*
Y980250D01*
X1001723Y953606D02*
X1007723D01*
X1001723Y943606D02*
X1007723D01*
X740000Y932750D02*
Y938750D01*
X730000Y932750D02*
Y938750D01*
X708750Y934000D02*
Y937500D01*
X707250Y918500D02*
X721000D01*
X719000Y934000D02*
Y937500D01*
X905000Y910840D02*
X911000D01*
X905000Y920840D02*
X911000D01*
X744750Y1038719D02*
Y1044719D01*
X754750Y1038719D02*
Y1044719D01*
X725410Y1038719D02*
Y1044719D01*
X735410Y1038719D02*
Y1044719D01*
X822000Y1242350D02*
X828000D01*
X822000Y1232350D02*
X828000D01*
X921469Y1242800D02*
X927469D01*
X921469Y1232800D02*
X927469D01*
X1023007Y1242800D02*
X1029007D01*
X1023007Y1232800D02*
X1029007D01*
X1280000Y1251000D02*
Y1257000D01*
X1270000Y1251000D02*
Y1257000D01*
X1019750Y994250D02*
X1019750Y959250D01*
X991250D02*
X1019750D01*
X991250D02*
Y994250D01*
X1019750Y994250D01*
D17*
X1192300Y831600D02*
X1217700D01*
X1192300D02*
Y882400D01*
X1217700Y831600D02*
Y882400D01*
X1192300D02*
X1217700D01*
X1148297Y897470D02*
X1158457D01*
X1148297D02*
Y926680D01*
X1158457D01*
Y897470D02*
Y926680D01*
X1169500Y838500D02*
X1173732D01*
X1171616D01*
Y851196D01*
X1169500Y849080D01*
X1180080D02*
X1182196Y851196D01*
X1186428D01*
X1188544Y849080D01*
Y846964D01*
X1186428Y844848D01*
X1184312D01*
X1186428D01*
X1188544Y842732D01*
Y840616D01*
X1186428Y838500D01*
X1182196D01*
X1180080Y840616D01*
X1169500Y865250D02*
X1173732D01*
X1171616D01*
Y877946D01*
X1169500Y875830D01*
X1186428Y865250D02*
Y877946D01*
X1180080Y871598D01*
X1188544D01*
X973000Y838500D02*
X977232D01*
X975116D01*
Y851196D01*
X973000Y849080D01*
X978964Y863500D02*
X970500D01*
X978964Y871964D01*
Y874080D01*
X976848Y876196D01*
X972616D01*
X970500Y874080D01*
X1525750Y1600000D02*
Y1602499D01*
Y1601250D01*
X1518252D01*
X1519502Y1600000D01*
X1577000Y1581598D02*
Y1576600D01*
X1572002Y1581598D01*
X1570752D01*
X1569502Y1580349D01*
Y1577850D01*
X1570752Y1576600D01*
X1507100Y1604398D02*
Y1599400D01*
X1502102Y1604398D01*
X1500852D01*
X1499602Y1603149D01*
Y1600650D01*
X1500852Y1599400D01*
X1456600Y1578500D02*
Y1580999D01*
Y1579750D01*
X1449102D01*
X1450352Y1578500D01*
X1569102Y941398D02*
Y936400D01*
X1572851D01*
X1571602Y938899D01*
Y940149D01*
X1572851Y941398D01*
X1575350D01*
X1576600Y940149D01*
Y937650D01*
X1575350Y936400D01*
X1576600Y948896D02*
Y943898D01*
X1571602Y948896D01*
X1570352D01*
X1569102Y947646D01*
Y945147D01*
X1570352Y943898D01*
X1523202Y919998D02*
Y915000D01*
X1526951D01*
X1525702Y917499D01*
Y918749D01*
X1526951Y919998D01*
X1529450D01*
X1530700Y918749D01*
Y916250D01*
X1529450Y915000D01*
X1530700Y922498D02*
Y924997D01*
Y923747D01*
X1523202D01*
X1524452Y922498D01*
X1452102Y942598D02*
Y937600D01*
X1455851D01*
X1454602Y940099D01*
Y941349D01*
X1455851Y942598D01*
X1458350D01*
X1459600Y941349D01*
Y938850D01*
X1458350Y937600D01*
X1459600Y945098D02*
Y947597D01*
Y946347D01*
X1452102D01*
X1453352Y945098D01*
X1499702Y918098D02*
Y913100D01*
X1503451D01*
X1502202Y915599D01*
Y916849D01*
X1503451Y918098D01*
X1505950D01*
X1507200Y916849D01*
Y914350D01*
X1505950Y913100D01*
X1507200Y925596D02*
Y920598D01*
X1502202Y925596D01*
X1500952D01*
X1499702Y924346D01*
Y921847D01*
X1500952Y920598D01*
X1515500Y1613998D02*
Y1606500D01*
Y1610249D01*
X1520498D01*
Y1613998D01*
Y1606500D01*
X1527996D02*
X1522998D01*
X1527996Y1611498D01*
Y1612748D01*
X1526746Y1613998D01*
X1524247D01*
X1522998Y1612748D01*
X1464250Y1609748D02*
Y1602250D01*
Y1605999D01*
X1469248D01*
Y1609748D01*
Y1602250D01*
X1471748D02*
X1474247D01*
X1472997D01*
Y1609748D01*
X1471748Y1608498D01*
D18*
X1033580Y1375106D02*
X1041454D01*
X1031802Y1375360D02*
X1043232D01*
X1030532Y1375614D02*
X1044502D01*
X1029516Y1375868D02*
X1045518D01*
X1028754Y1376122D02*
X1046280D01*
X1027738Y1376376D02*
X1047042D01*
X1026976Y1376630D02*
X1047804D01*
X1040946Y1376884D02*
X1048566D01*
X1026468D02*
X1034342D01*
X1042724Y1377138D02*
X1049328D01*
X1025706D02*
X1032564D01*
X1043994Y1377392D02*
X1049836D01*
X1025198D02*
X1031294D01*
X1045010Y1377646D02*
X1050344D01*
X1038660D02*
X1039930D01*
X1024690D02*
X1030024D01*
X1046026Y1377900D02*
X1050852D01*
X1038406D02*
X1040946D01*
X1034088D02*
X1035104D01*
X1023928D02*
X1029262D01*
X1046788Y1378154D02*
X1051360D01*
X1038406D02*
X1041200D01*
X1033834D02*
X1035104D01*
X1023420D02*
X1028246D01*
X1047550Y1378408D02*
X1051868D01*
X1038406D02*
X1041454D01*
X1033834D02*
X1035104D01*
X1030278D02*
X1031802D01*
X1022912D02*
X1027484D01*
X1048312Y1378662D02*
X1052376D01*
X1043486D02*
X1045518D01*
X1038406D02*
X1041454D01*
X1033834D02*
X1035358D01*
X1029770D02*
X1032310D01*
X1022404D02*
X1026976D01*
X1048820Y1378916D02*
X1052884D01*
X1042978D02*
X1045772D01*
X1038660D02*
X1041454D01*
X1033834D02*
X1035358D01*
X1029516D02*
X1032310D01*
X1022150D02*
X1026214D01*
X1049328Y1379170D02*
X1053392D01*
X1042724D02*
X1046026D01*
X1039422D02*
X1041454D01*
X1033834D02*
X1036628D01*
X1029262D02*
X1032564D01*
X1021642D02*
X1025706D01*
X1050090Y1379424D02*
X1053900D01*
X1042724D02*
X1045772D01*
X1038406D02*
X1041454D01*
X1033834D02*
X1036882D01*
X1029262D02*
X1032564D01*
X1021134D02*
X1025198D01*
X1050598Y1379678D02*
X1054154D01*
X1042470D02*
X1045772D01*
X1038152D02*
X1041454D01*
X1033834D02*
X1036882D01*
X1029262D02*
X1032818D01*
X1020880D02*
X1024690D01*
X1051106Y1379932D02*
X1054662D01*
X1042470D02*
X1045264D01*
X1038152D02*
X1041200D01*
X1033834D02*
X1036882D01*
X1031294D02*
X1032818D01*
X1029262D02*
X1030786D01*
X1020372D02*
X1024182D01*
X1051360Y1380186D02*
X1055170D01*
X1042470D02*
X1043740D01*
X1038152D02*
X1040946D01*
X1033834D02*
X1036628D01*
X1031294D02*
X1032818D01*
X1029262D02*
X1030786D01*
X1020118D02*
X1023674D01*
X1051868Y1380440D02*
X1055424D01*
X1042216D02*
X1043740D01*
X1038152D02*
X1040184D01*
X1033834D02*
X1035358D01*
X1031548D02*
X1033072D01*
X1029262D02*
X1030786D01*
X1019610D02*
X1023166D01*
X1052376Y1380694D02*
X1055678D01*
X1042216D02*
X1043740D01*
X1038152D02*
X1040692D01*
X1033834D02*
X1037136D01*
X1031548D02*
X1033072D01*
X1029262D02*
X1030786D01*
X1019356D02*
X1022658D01*
X1052884Y1380948D02*
X1056186D01*
X1042470D02*
X1043740D01*
X1038152D02*
X1040946D01*
X1034088D02*
X1037136D01*
X1031548D02*
X1033072D01*
X1029262D02*
X1030786D01*
X1018848D02*
X1022404D01*
X1053138Y1381202D02*
X1056440D01*
X1042470D02*
X1043994D01*
X1038152D02*
X1040946D01*
X1034088D02*
X1037136D01*
X1031548D02*
X1033072D01*
X1029262D02*
X1030786D01*
X1018594D02*
X1021896D01*
X1053646Y1381456D02*
X1056948D01*
X1042470D02*
X1044756D01*
X1038406D02*
X1040946D01*
X1034088D02*
X1037136D01*
X1031548D02*
X1033072D01*
X1029516D02*
X1031040D01*
X1018340D02*
X1021388D01*
X1053900Y1381710D02*
X1057202D01*
X1042470D02*
X1045010D01*
X1038660D02*
X1040946D01*
X1034088D02*
X1037136D01*
X1031802D02*
X1033072D01*
X1029516D02*
X1031040D01*
X1017832D02*
X1021134D01*
X1054408Y1381964D02*
X1057456D01*
X1042724D02*
X1045264D01*
X1039168D02*
X1040438D01*
X1034850D02*
X1035358D01*
X1031802D02*
X1033072D01*
X1029516D02*
X1031040D01*
X1017578D02*
X1020626D01*
X1054662Y1382218D02*
X1057710D01*
X1042978D02*
X1045264D01*
X1031802D02*
X1033072D01*
X1029770D02*
X1031040D01*
X1017324D02*
X1020372D01*
X1055170Y1382472D02*
X1058218D01*
X1043232D02*
X1045010D01*
X1029770D02*
X1031040D01*
X1017070D02*
X1020118D01*
X1055424Y1382726D02*
X1058472D01*
X1043740D02*
X1045010D01*
X1030024D02*
X1030786D01*
X1016816D02*
X1019610D01*
X1055678Y1382980D02*
X1058726D01*
X1016562D02*
X1019356D01*
X1056186Y1383234D02*
X1058980D01*
X1034088D02*
X1040692D01*
X1016308D02*
X1019102D01*
X1056440Y1383488D02*
X1059234D01*
X1032564D02*
X1042216D01*
X1016054D02*
X1018594D01*
X1056694Y1383742D02*
X1059488D01*
X1031548D02*
X1043232D01*
X1015800D02*
X1018340D01*
X1056948Y1383996D02*
X1059742D01*
X1030786D02*
X1044248D01*
X1015546D02*
X1018086D01*
X1057202Y1384250D02*
X1059996D01*
X1039168D02*
X1045010D01*
X1030024D02*
X1037644D01*
X1015292D02*
X1017832D01*
X1057456Y1384504D02*
X1060250D01*
X1042216D02*
X1045772D01*
X1029262D02*
X1037644D01*
X1015038D02*
X1017578D01*
X1057710Y1384758D02*
X1060504D01*
X1042978D02*
X1046280D01*
X1033326D02*
X1037898D01*
X1028754D02*
X1032310D01*
X1014784D02*
X1017324D01*
X1057964Y1385012D02*
X1060758D01*
X1043994D02*
X1047042D01*
X1033326D02*
X1037898D01*
X1027992D02*
X1031294D01*
X1014530D02*
X1017070D01*
X1058218Y1385266D02*
X1060758D01*
X1044502D02*
X1047550D01*
X1033326D02*
X1037898D01*
X1027484D02*
X1030532D01*
X1014276D02*
X1016816D01*
X1058472Y1385520D02*
X1061012D01*
X1045264D02*
X1048058D01*
X1033326D02*
X1038152D01*
X1026976D02*
X1029770D01*
X1014022D02*
X1016562D01*
X1058726Y1385774D02*
X1061266D01*
X1045772D02*
X1048566D01*
X1033326D02*
X1038152D01*
X1026468D02*
X1029262D01*
X1013768D02*
X1016308D01*
X1058980Y1386028D02*
X1061520D01*
X1046280D02*
X1049074D01*
X1041200D02*
X1041454D01*
X1033072D02*
X1038152D01*
X1025960D02*
X1028500D01*
X1013514D02*
X1016054D01*
X1059234Y1386282D02*
X1061774D01*
X1047042D02*
X1049328D01*
X1041200D02*
X1041708D01*
X1033072D02*
X1038406D01*
X1025706D02*
X1027992D01*
X1013260D02*
X1015800D01*
X1059488Y1386536D02*
X1062028D01*
X1047550D02*
X1049836D01*
X1041200D02*
X1041708D01*
X1033072D02*
X1038406D01*
X1025198D02*
X1027484D01*
X1013006D02*
X1015546D01*
X1059742Y1386790D02*
X1062028D01*
X1048058D02*
X1050344D01*
X1041200D02*
X1041962D01*
X1032818D02*
X1038660D01*
X1024944D02*
X1026976D01*
X1012752D02*
X1015292D01*
X1059996Y1387044D02*
X1062282D01*
X1048566D02*
X1050598D01*
X1041454D02*
X1041962D01*
X1032818D02*
X1038660D01*
X1024690D02*
X1026468D01*
X1012752D02*
X1015038D01*
X1060250Y1387298D02*
X1062536D01*
X1048820D02*
X1051106D01*
X1041454D02*
X1042216D01*
X1032818D02*
X1038914D01*
X1024182D02*
X1026214D01*
X1012498D02*
X1014784D01*
X1060504Y1387552D02*
X1062790D01*
X1049328D02*
X1051360D01*
X1041454D02*
X1042216D01*
X1032564D02*
X1038914D01*
X1019864D02*
X1029008D01*
X1012244D02*
X1014784D01*
X1060758Y1387806D02*
X1063044D01*
X1049582D02*
X1051614D01*
X1041708D02*
X1042216D01*
X1016308D02*
X1038914D01*
X1012244D02*
X1014530D01*
X1060758Y1388060D02*
X1063298D01*
X1050090D02*
X1052122D01*
X1041708D02*
X1042470D01*
X1014530D02*
X1039168D01*
X1011990D02*
X1014276D01*
X1061012Y1388314D02*
X1063298D01*
X1050344D02*
X1052376D01*
X1041962D02*
X1042470D01*
X1011736D02*
X1039168D01*
X1061266Y1388568D02*
X1063552D01*
X1050852D02*
X1052630D01*
X1041962D02*
X1042724D01*
X1011228D02*
X1039930D01*
X1061520Y1388822D02*
X1063806D01*
X1051106D02*
X1052884D01*
X1041962D02*
X1042724D01*
X1009958D02*
X1041454D01*
X1061520Y1389076D02*
X1063806D01*
X1051360D02*
X1053138D01*
X1009196D02*
X1042978D01*
X1061774Y1389330D02*
X1064060D01*
X1051614D02*
X1053392D01*
X1008434D02*
X1043740D01*
X1062028Y1389584D02*
X1064314D01*
X1052122D02*
X1053646D01*
X1007672D02*
X1044756D01*
X1062028Y1389838D02*
X1064314D01*
X1052376D02*
X1053900D01*
X1006910D02*
X1046026D01*
X1062282Y1390092D02*
X1064568D01*
X1052630D02*
X1054154D01*
X1006402D02*
X1047296D01*
X1062282Y1390346D02*
X1064568D01*
X1052884D02*
X1054408D01*
X1005640D02*
X1048312D01*
X1062536Y1390600D02*
X1064822D01*
X1053138D02*
X1054662D01*
X1020372D02*
X1049328D01*
X1005132D02*
X1012498D01*
X1062790Y1390854D02*
X1065076D01*
X1053392D02*
X1054916D01*
X1024690D02*
X1050344D01*
X1020118D02*
X1021642D01*
X1010212D02*
X1012498D01*
X1004878D02*
X1009704D01*
X1062790Y1391108D02*
X1065076D01*
X1053646D02*
X1055170D01*
X1026468D02*
X1051106D01*
X1019864D02*
X1021388D01*
X1009958D02*
X1012244D01*
X1004370D02*
X1008434D01*
X1063044Y1391362D02*
X1065330D01*
X1053900D02*
X1055424D01*
X1028246D02*
X1052122D01*
X1019610D02*
X1021388D01*
X1009958D02*
X1012244D01*
X1003862D02*
X1007418D01*
X1063044Y1391616D02*
X1065330D01*
X1054154D02*
X1055678D01*
X1029770D02*
X1052884D01*
X1019610D02*
X1021134D01*
X1009704D02*
X1011990D01*
X1003608D02*
X1006402D01*
X1063298Y1391870D02*
X1065584D01*
X1054154D02*
X1055678D01*
X1031294D02*
X1053646D01*
X1019356D02*
X1020880D01*
X1009704D02*
X1011990D01*
X1003354D02*
X1005894D01*
X1063298Y1392124D02*
X1065584D01*
X1031294D02*
X1055932D01*
X1019102D02*
X1020626D01*
X1009450D02*
X1011736D01*
X1003100D02*
X1005132D01*
X1063552Y1392378D02*
X1065838D01*
X1031294D02*
X1056186D01*
X1018848D02*
X1020372D01*
X1009450D02*
X1011736D01*
X1002846D02*
X1004624D01*
X1063552Y1392632D02*
X1065838D01*
X1031040D02*
X1056440D01*
X1018848D02*
X1020372D01*
X1009196D02*
X1011482D01*
X1002592D02*
X1004370D01*
X1063806Y1392886D02*
X1066092D01*
X1031040D02*
X1056694D01*
X1018594D02*
X1020118D01*
X1009196D02*
X1011228D01*
X1002592D02*
X1003862D01*
X1063806Y1393140D02*
X1066092D01*
X1031040D02*
X1057202D01*
X1018340D02*
X1019864D01*
X1008942D02*
X1011228D01*
X1002338D02*
X1003608D01*
X1064060Y1393394D02*
X1066092D01*
X1030786D02*
X1057710D01*
X1018340D02*
X1019610D01*
X1008942D02*
X1010974D01*
X1002338D02*
X1003354D01*
X1064060Y1393648D02*
X1066346D01*
X1030786D02*
X1058472D01*
X1018086D02*
X1019356D01*
X1008942D02*
X1010974D01*
X1002338D02*
X1003354D01*
X1064314Y1393902D02*
X1066346D01*
X1030786D02*
X1058980D01*
X1017832D02*
X1019356D01*
X1008688D02*
X1010720D01*
X1002338D02*
X1003100D01*
X1064314Y1394156D02*
X1066600D01*
X1030532D02*
X1059742D01*
X1017832D02*
X1019102D01*
X1008688D02*
X1010720D01*
X1002338D02*
X1003100D01*
X1064568Y1394410D02*
X1066600D01*
X1041454D02*
X1060250D01*
X1030532D02*
X1040692D01*
X1017578D02*
X1018848D01*
X1008434D02*
X1010720D01*
X1002338D02*
X1003100D01*
X1064568Y1394664D02*
X1066854D01*
X1042470D02*
X1060758D01*
X1030278D02*
X1040692D01*
X1017578D02*
X1018848D01*
X1008434D02*
X1010466D01*
X1002338D02*
X1003100D01*
X1064822Y1394918D02*
X1066854D01*
X1042978D02*
X1061266D01*
X1030278D02*
X1040692D01*
X1017324D02*
X1018594D01*
X1008434D02*
X1010466D01*
X1002338D02*
X1003100D01*
X1064822Y1395172D02*
X1066854D01*
X1043740D02*
X1062028D01*
X1030278D02*
X1040692D01*
X1017324D02*
X1018594D01*
X1008180D02*
X1010212D01*
X1002338D02*
X1003100D01*
X1064822Y1395426D02*
X1067108D01*
X1043740D02*
X1062536D01*
X1030024D02*
X1040692D01*
X1017070D02*
X1018340D01*
X1008180D02*
X1010212D01*
X1002592D02*
X1003354D01*
X1065076Y1395680D02*
X1067108D01*
X1045264D02*
X1063044D01*
X1043740D02*
X1044502D01*
X1030024D02*
X1040692D01*
X1016816D02*
X1018086D01*
X1008180D02*
X1009958D01*
X1002592D02*
X1003354D01*
X1065076Y1395934D02*
X1068124D01*
X1046026D02*
X1063552D01*
X1043740D02*
X1044502D01*
X1029770D02*
X1040692D01*
X1016816D02*
X1018086D01*
X1007926D02*
X1009958D01*
X1002846D02*
X1003608D01*
X1065330Y1396188D02*
X1069140D01*
X1046534D02*
X1064060D01*
X1043740D02*
X1044502D01*
X1029770D02*
X1040692D01*
X1016562D02*
X1017832D01*
X1007926D02*
X1009958D01*
X1002846D02*
X1003862D01*
X1065330Y1396442D02*
X1069648D01*
X1047296D02*
X1064568D01*
X1043740D02*
X1044756D01*
X1029770D02*
X1040692D01*
X1016562D02*
X1017832D01*
X1007926D02*
X1009704D01*
X1003100D02*
X1003862D01*
X1068632Y1396696D02*
X1070410D01*
X1065330D02*
X1066346D01*
X1047804D02*
X1064822D01*
X1043740D02*
X1044756D01*
X1029008D02*
X1040692D01*
X1016562D02*
X1017578D01*
X1007672D02*
X1009704D01*
X1003354D02*
X1004116D01*
X1069140Y1396950D02*
X1071172D01*
X1048566D02*
X1065584D01*
X1043740D02*
X1044756D01*
X1027992D02*
X1040692D01*
X1016308D02*
X1017578D01*
X1007672D02*
X1009704D01*
X1003608D02*
X1004370D01*
X1069902Y1397204D02*
X1071934D01*
X1049074D02*
X1065076D01*
X1043740D02*
X1044756D01*
X1026976D02*
X1040692D01*
X1016308D02*
X1017324D01*
X1007672D02*
X1009450D01*
X1003862D02*
X1004624D01*
X1070664Y1397458D02*
X1072442D01*
X1049582D02*
X1064314D01*
X1043740D02*
X1044756D01*
X1026214D02*
X1040692D01*
X1016054D02*
X1017324D01*
X1007418D02*
X1009450D01*
X1004370D02*
X1004624D01*
X1071426Y1397712D02*
X1073204D01*
X1050344D02*
X1063552D01*
X1043740D02*
X1044756D01*
X1025452D02*
X1040692D01*
X1016054D02*
X1017324D01*
X1007418D02*
X1009450D01*
X1071934Y1397966D02*
X1073966D01*
X1050852D02*
X1063044D01*
X1043740D02*
X1044756D01*
X1024944D02*
X1040692D01*
X1015800D02*
X1017070D01*
X1007418D02*
X1009196D01*
X1072696Y1398220D02*
X1074474D01*
X1051360D02*
X1062282D01*
X1043740D02*
X1044756D01*
X1024182D02*
X1040692D01*
X1015800D02*
X1017070D01*
X1007418D02*
X1009196D01*
X1073458Y1398474D02*
X1074728D01*
X1051868D02*
X1061520D01*
X1043740D02*
X1044756D01*
X1023674D02*
X1040692D01*
X1015800D02*
X1016816D01*
X1007164D02*
X1009196D01*
X1073204Y1398728D02*
X1074982D01*
X1052376D02*
X1061774D01*
X1043740D02*
X1044756D01*
X1023166D02*
X1040692D01*
X1015546D02*
X1016816D01*
X1007164D02*
X1008942D01*
X1072696Y1398982D02*
X1074982D01*
X1052884D02*
X1062282D01*
X1043740D02*
X1044756D01*
X1022658D02*
X1040692D01*
X1015546D02*
X1016816D01*
X1007164D02*
X1008942D01*
X1074220Y1399236D02*
X1074982D01*
X1071934D02*
X1073712D01*
X1061266D02*
X1063044D01*
X1053392D02*
X1060758D01*
X1043740D02*
X1044756D01*
X1021896D02*
X1040692D01*
X1015546D02*
X1016562D01*
X1007164D02*
X1008942D01*
X1074220Y1399490D02*
X1074982D01*
X1071172D02*
X1073204D01*
X1061774D02*
X1063806D01*
X1053900D02*
X1060758D01*
X1043740D02*
X1044756D01*
X1021388D02*
X1040692D01*
X1015292D02*
X1016562D01*
X1006910D02*
X1008942D01*
X1074474Y1399744D02*
X1074982D01*
X1070410D02*
X1072442D01*
X1062536D02*
X1064568D01*
X1054408D02*
X1060758D01*
X1043740D02*
X1044756D01*
X1020880D02*
X1040692D01*
X1015292D02*
X1016562D01*
X1006910D02*
X1008688D01*
X1074474Y1399998D02*
X1074982D01*
X1072442D02*
X1072696D01*
X1069902D02*
X1071680D01*
X1063298D02*
X1065330D01*
X1054916D02*
X1060758D01*
X1043740D02*
X1044756D01*
X1020372D02*
X1040692D01*
X1015292D02*
X1016562D01*
X1006910D02*
X1008688D01*
X1074474Y1400252D02*
X1074982D01*
X1071426D02*
X1073458D01*
X1069140D02*
X1070918D01*
X1064060D02*
X1065838D01*
X1061774D02*
X1063552D01*
X1055424D02*
X1060758D01*
X1043740D02*
X1044756D01*
X1019864D02*
X1040692D01*
X1015038D02*
X1016308D01*
X1006910D02*
X1008688D01*
X1074474Y1400506D02*
X1074982D01*
X1070918D02*
X1073966D01*
X1068378D02*
X1070156D01*
X1064822D02*
X1066600D01*
X1061266D02*
X1064314D01*
X1055932D02*
X1060758D01*
X1043740D02*
X1044756D01*
X1019356D02*
X1040692D01*
X1015038D02*
X1016308D01*
X1006910D02*
X1008688D01*
X1074474Y1400760D02*
X1074982D01*
X1072950D02*
X1073966D01*
X1070156D02*
X1071934D01*
X1067616D02*
X1069648D01*
X1065330D02*
X1067362D01*
X1063044D02*
X1064822D01*
X1061012D02*
X1062028D01*
X1056440D02*
X1060758D01*
X1043740D02*
X1044756D01*
X1018594D02*
X1040692D01*
X1015038D02*
X1016308D01*
X1006656D02*
X1008688D01*
X1074474Y1401014D02*
X1074982D01*
X1073458D02*
X1073966D01*
X1069648D02*
X1071426D01*
X1066092D02*
X1068886D01*
X1063806D02*
X1065584D01*
X1061012D02*
X1061774D01*
X1056948D02*
X1060758D01*
X1043740D02*
X1044756D01*
X1018086D02*
X1040692D01*
X1015038D02*
X1016308D01*
X1006656D02*
X1008434D01*
X1074474Y1401268D02*
X1074982D01*
X1073458D02*
X1073966D01*
X1069140D02*
X1070664D01*
X1066854D02*
X1068124D01*
X1064568D02*
X1065838D01*
X1061012D02*
X1061520D01*
X1057456D02*
X1060758D01*
X1043740D02*
X1044756D01*
X1017578D02*
X1040692D01*
X1014784D02*
X1016054D01*
X1006656D02*
X1008434D01*
X1080316Y1401522D02*
X1081332D01*
X1074474D02*
X1074982D01*
X1073458D02*
X1073966D01*
X1068886D02*
X1070156D01*
X1067362D02*
X1067870D01*
X1065076D02*
X1066092D01*
X1061012D02*
X1061520D01*
X1057710D02*
X1060758D01*
X1043740D02*
X1044756D01*
X1017070D02*
X1040946D01*
X1014784D02*
X1016054D01*
X1006656D02*
X1008434D01*
X1079554Y1401776D02*
X1081332D01*
X1074474D02*
X1074982D01*
X1073458D02*
X1073966D01*
X1068632D02*
X1069648D01*
X1067362D02*
X1067870D01*
X1065584D02*
X1066346D01*
X1061012D02*
X1061774D01*
X1058218D02*
X1060758D01*
X1053646D02*
X1055170D01*
X1043740D02*
X1044756D01*
X1016816D02*
X1041200D01*
X1014784D02*
X1016054D01*
X1006656D02*
X1008434D01*
X1078792Y1402030D02*
X1081078D01*
X1074474D02*
X1074982D01*
X1073458D02*
X1073966D01*
X1068632D02*
X1069394D01*
X1067362D02*
X1067870D01*
X1065838D02*
X1066600D01*
X1061012D02*
X1061774D01*
X1058472D02*
X1060758D01*
X1053646D02*
X1055932D01*
X1043740D02*
X1044756D01*
X1016562D02*
X1041454D01*
X1014784D02*
X1016054D01*
X1006656D02*
X1008434D01*
X1078030Y1402284D02*
X1080570D01*
X1074474D02*
X1074982D01*
X1073458D02*
X1073966D01*
X1068378D02*
X1069140D01*
X1067362D02*
X1067870D01*
X1065838D02*
X1066600D01*
X1061012D02*
X1061774D01*
X1058980D02*
X1060758D01*
X1054154D02*
X1056440D01*
X1043486D02*
X1044756D01*
X1016562D02*
X1041454D01*
X1014784D02*
X1016054D01*
X1006402D02*
X1008434D01*
X1077522Y1402538D02*
X1080062D01*
X1074474D02*
X1074982D01*
X1073458D02*
X1073966D01*
X1068378D02*
X1069140D01*
X1067362D02*
X1067870D01*
X1066092D02*
X1066600D01*
X1061012D02*
X1061774D01*
X1059234D02*
X1060758D01*
X1054916D02*
X1057202D01*
X1043486D02*
X1044756D01*
X1016562D02*
X1041708D01*
X1014784D02*
X1015800D01*
X1006402D02*
X1008434D01*
X1076506Y1402792D02*
X1079300D01*
X1074474D02*
X1074982D01*
X1072696D02*
X1073966D01*
X1068378D02*
X1068886D01*
X1067362D02*
X1067870D01*
X1066092D02*
X1066854D01*
X1061012D02*
X1062282D01*
X1059234D02*
X1060758D01*
X1055424D02*
X1057964D01*
X1043486D02*
X1044502D01*
X1016308D02*
X1041708D01*
X1014530D02*
X1015800D01*
X1006402D02*
X1008180D01*
X1075744Y1403046D02*
X1078538D01*
X1074474D02*
X1074982D01*
X1071934D02*
X1073966D01*
X1068378D02*
X1068886D01*
X1067362D02*
X1067870D01*
X1066092D02*
X1066854D01*
X1061266D02*
X1063044D01*
X1059234D02*
X1060758D01*
X1056186D02*
X1058726D01*
X1043486D02*
X1044502D01*
X1016308D02*
X1041708D01*
X1014530D02*
X1015800D01*
X1006402D02*
X1008180D01*
X1075236Y1403300D02*
X1077776D01*
X1074474D02*
X1074982D01*
X1071426D02*
X1073204D01*
X1068124D02*
X1068886D01*
X1067362D02*
X1067870D01*
X1066092D02*
X1066854D01*
X1061774D02*
X1063806D01*
X1056948D02*
X1060758D01*
X1043486D02*
X1044502D01*
X1016054D02*
X1041708D01*
X1014530D02*
X1015800D01*
X1006402D02*
X1008180D01*
X1074474Y1403554D02*
X1077014D01*
X1070664D02*
X1072950D01*
X1068124D02*
X1068886D01*
X1067362D02*
X1067870D01*
X1066092D02*
X1066854D01*
X1062282D02*
X1064314D01*
X1057710D02*
X1060758D01*
X1043486D02*
X1044502D01*
X1016054D02*
X1041708D01*
X1014530D02*
X1015800D01*
X1006402D02*
X1008180D01*
X1074474Y1403808D02*
X1076252D01*
X1069902D02*
X1073458D01*
X1068124D02*
X1068886D01*
X1067362D02*
X1067870D01*
X1066346D02*
X1066854D01*
X1061520D02*
X1065076D01*
X1058472D02*
X1060758D01*
X1043486D02*
X1044502D01*
X1016054D02*
X1041708D01*
X1014530D02*
X1015800D01*
X1006402D02*
X1008180D01*
X1074474Y1404062D02*
X1075490D01*
X1069140D02*
X1073966D01*
X1068124D02*
X1068886D01*
X1067362D02*
X1067870D01*
X1066346D02*
X1066854D01*
X1061266D02*
X1065838D01*
X1059234D02*
X1060758D01*
X1043486D02*
X1044502D01*
X1015800D02*
X1041708D01*
X1014530D02*
X1015546D01*
X1006402D02*
X1008180D01*
X1074474Y1404316D02*
X1074982D01*
X1072950D02*
X1073966D01*
X1068124D02*
X1071934D01*
X1067362D02*
X1067870D01*
X1063044D02*
X1066854D01*
X1061012D02*
X1062028D01*
X1059488D02*
X1060758D01*
X1043232D02*
X1044502D01*
X1015800D02*
X1041708D01*
X1014530D02*
X1015546D01*
X1006402D02*
X1008180D01*
X1074474Y1404570D02*
X1074982D01*
X1073458D02*
X1073966D01*
X1068124D02*
X1071172D01*
X1067362D02*
X1067870D01*
X1063806D02*
X1066854D01*
X1061012D02*
X1061774D01*
X1059488D02*
X1060758D01*
X1043232D02*
X1044248D01*
X1015800D02*
X1041708D01*
X1014530D02*
X1015546D01*
X1006402D02*
X1008180D01*
X1074474Y1404824D02*
X1074982D01*
X1073458D02*
X1073966D01*
X1069140D02*
X1070410D01*
X1067362D02*
X1067870D01*
X1066346D02*
X1066854D01*
X1064568D02*
X1065838D01*
X1061012D02*
X1061774D01*
X1059488D02*
X1060758D01*
X1043232D02*
X1044248D01*
X1014530D02*
X1041708D01*
X1006402D02*
X1008180D01*
X1074474Y1405078D02*
X1074982D01*
X1073458D02*
X1073966D01*
X1068886D02*
X1069902D01*
X1067362D02*
X1067870D01*
X1065076D02*
X1066092D01*
X1061012D02*
X1061520D01*
X1059488D02*
X1060758D01*
X1043232D02*
X1044248D01*
X1014530D02*
X1041454D01*
X1006402D02*
X1008180D01*
X1074474Y1405332D02*
X1074982D01*
X1073458D02*
X1073966D01*
X1068632D02*
X1069648D01*
X1067362D02*
X1067870D01*
X1065584D02*
X1066346D01*
X1061012D02*
X1061520D01*
X1059488D02*
X1060758D01*
X1043232D02*
X1044248D01*
X1014530D02*
X1041454D01*
X1006402D02*
X1008180D01*
X1074474Y1405586D02*
X1074982D01*
X1073458D02*
X1073966D01*
X1068632D02*
X1069394D01*
X1067362D02*
X1067870D01*
X1065584D02*
X1066600D01*
X1061012D02*
X1061520D01*
X1059488D02*
X1060758D01*
X1042978D02*
X1044248D01*
X1014276D02*
X1041454D01*
X1006148D02*
X1008180D01*
X1074474Y1405840D02*
X1074982D01*
X1073458D02*
X1073966D01*
X1068378D02*
X1069140D01*
X1067362D02*
X1067870D01*
X1065838D02*
X1066600D01*
X1059488D02*
X1061520D01*
X1042978D02*
X1043994D01*
X1014276D02*
X1041200D01*
X1006148D02*
X1008180D01*
X1074474Y1406094D02*
X1074982D01*
X1073204D02*
X1073966D01*
X1068378D02*
X1068886D01*
X1067362D02*
X1067870D01*
X1066092D02*
X1066854D01*
X1059488D02*
X1061774D01*
X1042978D02*
X1043994D01*
X1014276D02*
X1041200D01*
X1006148D02*
X1008180D01*
X1074220Y1406348D02*
X1074982D01*
X1072696D02*
X1073966D01*
X1068378D02*
X1068886D01*
X1067362D02*
X1067870D01*
X1066092D02*
X1066854D01*
X1059488D02*
X1062536D01*
X1042978D02*
X1043994D01*
X1014530D02*
X1041200D01*
X1006148D02*
X1008180D01*
X1073966Y1406602D02*
X1074982D01*
X1071934D02*
X1073712D01*
X1068378D02*
X1068886D01*
X1067362D02*
X1067870D01*
X1066346D02*
X1066854D01*
X1059488D02*
X1063044D01*
X1042724D02*
X1043994D01*
X1014530D02*
X1041200D01*
X1006148D02*
X1008180D01*
X1071172Y1406856D02*
X1074728D01*
X1068124D02*
X1068886D01*
X1067362D02*
X1067870D01*
X1066346D02*
X1066854D01*
X1059488D02*
X1063806D01*
X1042724D02*
X1043740D01*
X1015800D02*
X1040946D01*
X1014530D02*
X1015546D01*
X1006148D02*
X1008180D01*
X1070410Y1407110D02*
X1074474D01*
X1068124D02*
X1068886D01*
X1067362D02*
X1067870D01*
X1066346D02*
X1066854D01*
X1061266D02*
X1064568D01*
X1059488D02*
X1060758D01*
X1042724D02*
X1043740D01*
X1015800D02*
X1040946D01*
X1014530D02*
X1015546D01*
X1006148D02*
X1008180D01*
X1069902Y1407364D02*
X1073712D01*
X1068124D02*
X1068886D01*
X1067362D02*
X1067870D01*
X1066346D02*
X1066854D01*
X1062028D02*
X1065330D01*
X1059488D02*
X1060758D01*
X1042724D02*
X1043740D01*
X1016054D02*
X1040692D01*
X1014530D02*
X1015546D01*
X1006402D02*
X1008180D01*
X1071172Y1407618D02*
X1072950D01*
X1068124D02*
X1070918D01*
X1067362D02*
X1067870D01*
X1066346D02*
X1066854D01*
X1062790D02*
X1066092D01*
X1059488D02*
X1060504D01*
X1042470D02*
X1043740D01*
X1016054D02*
X1040692D01*
X1014530D02*
X1015546D01*
X1006402D02*
X1008180D01*
X1070410Y1407872D02*
X1072188D01*
X1068124D02*
X1070156D01*
X1067362D02*
X1067870D01*
X1064822D02*
X1066854D01*
X1062282D02*
X1064568D01*
X1059488D02*
X1060504D01*
X1042470D02*
X1043486D01*
X1016308D02*
X1040692D01*
X1014530D02*
X1015546D01*
X1006402D02*
X1008180D01*
X1069648Y1408126D02*
X1072950D01*
X1068124D02*
X1069394D01*
X1067362D02*
X1067870D01*
X1061520D02*
X1066854D01*
X1059488D02*
X1060504D01*
X1042470D02*
X1043486D01*
X1016308D02*
X1040438D01*
X1014530D02*
X1015546D01*
X1006402D02*
X1008180D01*
X1068886Y1408380D02*
X1073458D01*
X1067362D02*
X1067870D01*
X1064060D02*
X1066854D01*
X1061012D02*
X1063298D01*
X1059488D02*
X1060504D01*
X1042216D02*
X1043486D01*
X1016308D02*
X1040438D01*
X1014530D02*
X1015546D01*
X1006402D02*
X1008180D01*
X1071680Y1408634D02*
X1074220D01*
X1068124D02*
X1070156D01*
X1067362D02*
X1067870D01*
X1065076D02*
X1067108D01*
X1059488D02*
X1062790D01*
X1042216D02*
X1043232D01*
X1016054D02*
X1040438D01*
X1014530D02*
X1015546D01*
X1006402D02*
X1008180D01*
X1072442Y1408888D02*
X1074982D01*
X1065838D02*
X1069394D01*
X1059488D02*
X1062028D01*
X1042216D02*
X1043232D01*
X1014530D02*
X1040184D01*
X1006402D02*
X1008180D01*
X1073204Y1409142D02*
X1075744D01*
X1066600D02*
X1068632D01*
X1058980D02*
X1061266D01*
X1041962D02*
X1043232D01*
X1014530D02*
X1040184D01*
X1006402D02*
X1008180D01*
X1073966Y1409396D02*
X1076252D01*
X1066854D02*
X1068632D01*
X1058472D02*
X1060758D01*
X1041962D02*
X1042978D01*
X1014530D02*
X1040184D01*
X1006402D02*
X1008434D01*
X1074728Y1409650D02*
X1077014D01*
X1066854D02*
X1068632D01*
X1057710D02*
X1060504D01*
X1041708D02*
X1042978D01*
X1014784D02*
X1039930D01*
X1006402D02*
X1008434D01*
X1075490Y1409904D02*
X1077776D01*
X1066854D02*
X1068632D01*
X1056948D02*
X1060250D01*
X1041708D02*
X1042724D01*
X1014784D02*
X1039930D01*
X1006402D02*
X1008434D01*
X1075998Y1410158D02*
X1078284D01*
X1066600D02*
X1068632D01*
X1059234D02*
X1060250D01*
X1056186D02*
X1058472D01*
X1041708D02*
X1042724D01*
X1014784D02*
X1039930D01*
X1006402D02*
X1008434D01*
X1076760Y1410412D02*
X1079046D01*
X1066600D02*
X1068632D01*
X1059234D02*
X1060250D01*
X1055678D02*
X1057710D01*
X1041454D02*
X1042724D01*
X1014784D02*
X1039930D01*
X1006656D02*
X1008434D01*
X1077268Y1410666D02*
X1080062D01*
X1066600D02*
X1068632D01*
X1058980D02*
X1060250D01*
X1054916D02*
X1057202D01*
X1041454D02*
X1042470D01*
X1014784D02*
X1039930D01*
X1006656D02*
X1008434D01*
X1078030Y1410920D02*
X1080570D01*
X1066600D02*
X1068378D01*
X1058980D02*
X1060250D01*
X1054408D02*
X1056440D01*
X1041200D02*
X1042470D01*
X1015038D02*
X1039930D01*
X1006656D02*
X1008434D01*
X1078792Y1411174D02*
X1081078D01*
X1066600D02*
X1068378D01*
X1058980D02*
X1060250D01*
X1053900D02*
X1055678D01*
X1041200D02*
X1042216D01*
X1015038D02*
X1039930D01*
X1006656D02*
X1008688D01*
X1079554Y1411428D02*
X1081332D01*
X1066600D02*
X1068378D01*
X1058726D02*
X1059996D01*
X1053646D02*
X1054916D01*
X1040946D02*
X1042216D01*
X1015038D02*
X1039676D01*
X1006656D02*
X1008688D01*
X1080316Y1411682D02*
X1081332D01*
X1066600D02*
X1068378D01*
X1058726D02*
X1059996D01*
X1040946D02*
X1041962D01*
X1015038D02*
X1039676D01*
X1006656D02*
X1008688D01*
X1066346Y1411936D02*
X1068378D01*
X1058726D02*
X1059996D01*
X1040692D02*
X1041962D01*
X1015038D02*
X1039676D01*
X1006910D02*
X1008688D01*
X1066346Y1412190D02*
X1068378D01*
X1058726D02*
X1059996D01*
X1040692D02*
X1041708D01*
X1015292D02*
X1039676D01*
X1006910D02*
X1008688D01*
X1066346Y1412444D02*
X1068124D01*
X1058472D02*
X1059742D01*
X1048566D02*
X1049074D01*
X1040438D02*
X1041708D01*
X1015292D02*
X1039676D01*
X1006910D02*
X1008942D01*
X1066346Y1412698D02*
X1068124D01*
X1058472D02*
X1059742D01*
X1048058D02*
X1049328D01*
X1040438D02*
X1041454D01*
X1015292D02*
X1039422D01*
X1006910D02*
X1008942D01*
X1066092Y1412952D02*
X1068124D01*
X1058472D02*
X1059742D01*
X1047804D02*
X1049582D01*
X1040184D02*
X1041454D01*
X1015546D02*
X1039422D01*
X1006910D02*
X1008942D01*
X1066092Y1413206D02*
X1068124D01*
X1058218D02*
X1059488D01*
X1048058D02*
X1049582D01*
X1040184D02*
X1041200D01*
X1015546D02*
X1039422D01*
X1007164D02*
X1008942D01*
X1066092Y1413460D02*
X1067870D01*
X1058218D02*
X1059488D01*
X1048058D02*
X1049328D01*
X1039930D02*
X1041200D01*
X1015546D02*
X1039168D01*
X1007164D02*
X1009196D01*
X1066092Y1413714D02*
X1067870D01*
X1058218D02*
X1059488D01*
X1048312D02*
X1049074D01*
X1039930D02*
X1040946D01*
X1015800D02*
X1039168D01*
X1007164D02*
X1009196D01*
X1065838Y1413968D02*
X1067870D01*
X1057964D02*
X1059234D01*
X1039676D02*
X1040946D01*
X1015800D02*
X1038914D01*
X1007164D02*
X1009196D01*
X1065838Y1414222D02*
X1067870D01*
X1057964D02*
X1059234D01*
X1039422D02*
X1040692D01*
X1015800D02*
X1038914D01*
X1007418D02*
X1009196D01*
X1065838Y1414476D02*
X1067616D01*
X1057964D02*
X1059234D01*
X1039422D02*
X1040692D01*
X1016054D02*
X1038660D01*
X1007418D02*
X1009450D01*
X1065838Y1414730D02*
X1067616D01*
X1057710D02*
X1058980D01*
X1039168D02*
X1040438D01*
X1016054D02*
X1038406D01*
X1007418D02*
X1009450D01*
X1065584Y1414984D02*
X1067616D01*
X1057710D02*
X1058980D01*
X1038914D02*
X1040184D01*
X1016054D02*
X1038406D01*
X1007672D02*
X1009450D01*
X1065584Y1415238D02*
X1067616D01*
X1057456D02*
X1058726D01*
X1038914D02*
X1040184D01*
X1016308D02*
X1038152D01*
X1007672D02*
X1009704D01*
X1065584Y1415492D02*
X1067362D01*
X1057456D02*
X1058726D01*
X1038660D02*
X1039930D01*
X1016308D02*
X1037898D01*
X1007672D02*
X1009704D01*
X1065330Y1415746D02*
X1067362D01*
X1057202D02*
X1058726D01*
X1038406D02*
X1039676D01*
X1016562D02*
X1037644D01*
X1007672D02*
X1009704D01*
X1065330Y1416000D02*
X1067362D01*
X1057202D02*
X1058472D01*
X1038406D02*
X1039676D01*
X1016562D02*
X1036628D01*
X1007926D02*
X1009958D01*
X1065076Y1416254D02*
X1067108D01*
X1057202D02*
X1058472D01*
X1038152D02*
X1039422D01*
X1016816D02*
X1032564D01*
X1007926D02*
X1009958D01*
X1065076Y1416508D02*
X1067108D01*
X1056948D02*
X1058218D01*
X1037898D02*
X1039168D01*
X1016816D02*
X1031802D01*
X1007926D02*
X1009958D01*
X1065076Y1416762D02*
X1067108D01*
X1056694D02*
X1058218D01*
X1048566D02*
X1049074D01*
X1044502D02*
X1045010D01*
X1037644D02*
X1039168D01*
X1017070D02*
X1031548D01*
X1008180D02*
X1010212D01*
X1064822Y1417016D02*
X1066854D01*
X1056694D02*
X1057964D01*
X1048312D02*
X1049074D01*
X1043994D02*
X1045264D01*
X1037644D02*
X1038914D01*
X1017070D02*
X1031040D01*
X1008180D02*
X1010212D01*
X1064822Y1417270D02*
X1066854D01*
X1056440D02*
X1057964D01*
X1048058D02*
X1049328D01*
X1043994D02*
X1045518D01*
X1037390D02*
X1038660D01*
X1017324D02*
X1030532D01*
X1008180D02*
X1010466D01*
X1064568Y1417524D02*
X1066600D01*
X1056440D02*
X1057710D01*
X1048312D02*
X1049328D01*
X1043994D02*
X1045518D01*
X1037136D02*
X1038406D01*
X1017324D02*
X1030024D01*
X1008434D02*
X1010466D01*
X1064568Y1417778D02*
X1066600D01*
X1056186D02*
X1057456D01*
X1043994D02*
X1045264D01*
X1036882D02*
X1038152D01*
X1019610D02*
X1029516D01*
X1017578D02*
X1018848D01*
X1008434D02*
X1010720D01*
X1064568Y1418032D02*
X1066600D01*
X1055932D02*
X1057456D01*
X1044248D02*
X1044756D01*
X1036628D02*
X1038152D01*
X1026468D02*
X1029008D01*
X1020626D02*
X1025706D01*
X1017578D02*
X1019102D01*
X1008688D02*
X1010720D01*
X1064314Y1418286D02*
X1066346D01*
X1055932D02*
X1057202D01*
X1036374D02*
X1037898D01*
X1027230D02*
X1028500D01*
X1021642D02*
X1024182D01*
X1017832D02*
X1019102D01*
X1008688D02*
X1010720D01*
X1064314Y1418540D02*
X1066346D01*
X1055678D02*
X1057202D01*
X1036120D02*
X1037644D01*
X1018086D02*
X1019356D01*
X1008688D02*
X1010974D01*
X1064060Y1418794D02*
X1066092D01*
X1055424D02*
X1056948D01*
X1036120D02*
X1037390D01*
X1018086D02*
X1019610D01*
X1008942D02*
X1010974D01*
X1064060Y1419048D02*
X1066092D01*
X1055170D02*
X1056694D01*
X1049328D02*
X1049836D01*
X1035866D02*
X1037136D01*
X1018340D02*
X1019864D01*
X1008942D02*
X1011228D01*
X1063806Y1419302D02*
X1065838D01*
X1055170D02*
X1056694D01*
X1048820D02*
X1050090D01*
X1035612D02*
X1036882D01*
X1018594D02*
X1019864D01*
X1009196D02*
X1011228D01*
X1063806Y1419556D02*
X1065838D01*
X1054916D02*
X1056440D01*
X1048820D02*
X1050090D01*
X1035358D02*
X1036628D01*
X1018594D02*
X1020118D01*
X1009196D02*
X1011482D01*
X1063552Y1419810D02*
X1065584D01*
X1054662D02*
X1056186D01*
X1049074D02*
X1050090D01*
X1035104D02*
X1036374D01*
X1018848D02*
X1020372D01*
X1009450D02*
X1011482D01*
X1063298Y1420064D02*
X1065584D01*
X1054408D02*
X1055932D01*
X1049074D02*
X1049836D01*
X1034850D02*
X1036120D01*
X1019102D02*
X1020626D01*
X1009450D02*
X1011736D01*
X1063298Y1420318D02*
X1065330D01*
X1054154D02*
X1055932D01*
X1034596D02*
X1035866D01*
X1019356D02*
X1020880D01*
X1009704D02*
X1011736D01*
X1063044Y1420572D02*
X1065330D01*
X1054154D02*
X1055678D01*
X1046026D02*
X1046534D01*
X1034342D02*
X1035612D01*
X1019356D02*
X1021134D01*
X1009704D02*
X1011990D01*
X1063044Y1420826D02*
X1065076D01*
X1053900D02*
X1055424D01*
X1045518D02*
X1046534D01*
X1034088D02*
X1035358D01*
X1019610D02*
X1021134D01*
X1009958D02*
X1012244D01*
X1062790Y1421080D02*
X1065076D01*
X1053646D02*
X1055170D01*
X1045518D02*
X1046788D01*
X1033834D02*
X1035104D01*
X1019864D02*
X1021388D01*
X1009958D02*
X1012244D01*
X1062790Y1421334D02*
X1064822D01*
X1053392D02*
X1054916D01*
X1045518D02*
X1046788D01*
X1033580D02*
X1034850D01*
X1020118D02*
X1021642D01*
X1010212D02*
X1012498D01*
X1062536Y1421588D02*
X1064822D01*
X1053138D02*
X1054662D01*
X1045518D02*
X1046534D01*
X1033072D02*
X1034342D01*
X1020372D02*
X1021896D01*
X1010466D02*
X1012498D01*
X1062282Y1421842D02*
X1064568D01*
X1052884D02*
X1054408D01*
X1045772D02*
X1046026D01*
X1032818D02*
X1034088D01*
X1020626D02*
X1022150D01*
X1010466D02*
X1012752D01*
X1062282Y1422096D02*
X1064568D01*
X1052630D02*
X1054154D01*
X1032564D02*
X1033834D01*
X1020880D02*
X1022404D01*
X1010720D02*
X1013006D01*
X1062028Y1422350D02*
X1064314D01*
X1052376D02*
X1053900D01*
X1032310D02*
X1033580D01*
X1021134D02*
X1022912D01*
X1010720D02*
X1013006D01*
X1061774Y1422604D02*
X1064060D01*
X1052122D02*
X1053646D01*
X1032056D02*
X1033072D01*
X1021388D02*
X1023166D01*
X1010974D02*
X1013260D01*
X1061774Y1422858D02*
X1064060D01*
X1051614D02*
X1053392D01*
X1031548D02*
X1032818D01*
X1021642D02*
X1023420D01*
X1011228D02*
X1013514D01*
X1061520Y1423112D02*
X1063806D01*
X1051360D02*
X1053138D01*
X1031294D02*
X1032310D01*
X1021896D02*
X1023674D01*
X1011228D02*
X1013514D01*
X1061266Y1423366D02*
X1063552D01*
X1051106D02*
X1052884D01*
X1031040D02*
X1032056D01*
X1022150D02*
X1023928D01*
X1011482D02*
X1013768D01*
X1061012Y1423620D02*
X1063552D01*
X1050852D02*
X1052630D01*
X1030532D02*
X1031802D01*
X1022404D02*
X1024182D01*
X1019864D02*
X1021134D01*
X1011482D02*
X1014022D01*
X1061012Y1423874D02*
X1063298D01*
X1053646D02*
X1054662D01*
X1050344D02*
X1052376D01*
X1030278D02*
X1031294D01*
X1022658D02*
X1024436D01*
X1019610D02*
X1021134D01*
X1011736D02*
X1014276D01*
X1060758Y1424128D02*
X1063044D01*
X1053392D02*
X1054916D01*
X1050090D02*
X1052122D01*
X1029770D02*
X1031040D01*
X1022912D02*
X1024944D01*
X1019610D02*
X1021134D01*
X1011990D02*
X1014276D01*
X1060504Y1424382D02*
X1063044D01*
X1053392D02*
X1055170D01*
X1049836D02*
X1051614D01*
X1029262D02*
X1030532D01*
X1023420D02*
X1025198D01*
X1019356D02*
X1021134D01*
X1012244D02*
X1014530D01*
X1060250Y1424636D02*
X1062790D01*
X1053392D02*
X1055424D01*
X1049328D02*
X1051360D01*
X1029008D02*
X1030024D01*
X1023674D02*
X1025706D01*
X1019102D02*
X1021134D01*
X1012244D02*
X1014784D01*
X1059996Y1424890D02*
X1062536D01*
X1053646D02*
X1055678D01*
X1049074D02*
X1051106D01*
X1028500D02*
X1029770D01*
X1023928D02*
X1025960D01*
X1018848D02*
X1020880D01*
X1012498D02*
X1015038D01*
X1059996Y1425144D02*
X1062282D01*
X1053646D02*
X1055932D01*
X1048566D02*
X1050598D01*
X1027992D02*
X1029262D01*
X1024436D02*
X1026468D01*
X1018594D02*
X1020626D01*
X1012752D02*
X1015292D01*
X1059742Y1425398D02*
X1062282D01*
X1053900D02*
X1057456D01*
X1051868D02*
X1052376D01*
X1048058D02*
X1050344D01*
X1027230D02*
X1028754D01*
X1024690D02*
X1026976D01*
X1018340D02*
X1020880D01*
X1013006D02*
X1015292D01*
X1059488Y1425652D02*
X1062028D01*
X1054154D02*
X1057456D01*
X1051614D02*
X1052630D01*
X1047550D02*
X1049836D01*
X1025198D02*
X1027992D01*
X1018086D02*
X1021134D01*
X1013006D02*
X1015546D01*
X1059234Y1425906D02*
X1061774D01*
X1054408D02*
X1057456D01*
X1051360D02*
X1052884D01*
X1047042D02*
X1049582D01*
X1025452D02*
X1027992D01*
X1018086D02*
X1021388D01*
X1013260D02*
X1015800D01*
X1058980Y1426160D02*
X1061520D01*
X1054662D02*
X1057456D01*
X1051360D02*
X1052884D01*
X1046534D02*
X1049074D01*
X1025960D02*
X1028500D01*
X1023166D02*
X1024436D01*
X1018086D02*
X1021388D01*
X1013514D02*
X1016054D01*
X1058726Y1426414D02*
X1061266D01*
X1054916D02*
X1057202D01*
X1051360D02*
X1052884D01*
X1046026D02*
X1048566D01*
X1026468D02*
X1029008D01*
X1023166D02*
X1024690D01*
X1018086D02*
X1021388D01*
X1013768D02*
X1016308D01*
X1058472Y1426668D02*
X1061012D01*
X1054916D02*
X1056948D01*
X1051360D02*
X1053138D01*
X1045518D02*
X1048058D01*
X1026976D02*
X1029770D01*
X1022912D02*
X1025198D01*
X1018086D02*
X1021388D01*
X1014022D02*
X1016562D01*
X1058218Y1426922D02*
X1061012D01*
X1054662D02*
X1056948D01*
X1050852D02*
X1053138D01*
X1049328D02*
X1050598D01*
X1044756D02*
X1047550D01*
X1027484D02*
X1030532D01*
X1022658D02*
X1025198D01*
X1018086D02*
X1020372D01*
X1014276D02*
X1016816D01*
X1057964Y1427176D02*
X1060758D01*
X1054662D02*
X1056440D01*
X1049328D02*
X1053138D01*
X1043994D02*
X1047042D01*
X1027992D02*
X1031294D01*
X1022658D02*
X1025452D01*
X1018340D02*
X1020626D01*
X1014276D02*
X1017070D01*
X1057710Y1427430D02*
X1060504D01*
X1054662D02*
X1056186D01*
X1049328D02*
X1053138D01*
X1042978D02*
X1046534D01*
X1028500D02*
X1032310D01*
X1022404D02*
X1025452D01*
X1018594D02*
X1020880D01*
X1014530D02*
X1017324D01*
X1057456Y1427684D02*
X1060250D01*
X1054916D02*
X1055932D01*
X1049328D02*
X1053138D01*
X1041962D02*
X1045772D01*
X1029262D02*
X1033326D01*
X1022150D02*
X1025452D01*
X1019102D02*
X1020880D01*
X1014784D02*
X1017578D01*
X1057202Y1427938D02*
X1059996D01*
X1049582D02*
X1053392D01*
X1040438D02*
X1045264D01*
X1030024D02*
X1034850D01*
X1022150D02*
X1023928D01*
X1019356D02*
X1020626D01*
X1015038D02*
X1017832D01*
X1056948Y1428192D02*
X1059742D01*
X1049836D02*
X1053392D01*
X1046788D02*
X1048566D01*
X1030786D02*
X1044502D01*
X1026214D02*
X1028246D01*
X1021896D02*
X1023674D01*
X1015292D02*
X1018086D01*
X1056694Y1428446D02*
X1059488D01*
X1050344D02*
X1053392D01*
X1046280D02*
X1048820D01*
X1031548D02*
X1043486D01*
X1025706D02*
X1028500D01*
X1021896D02*
X1023674D01*
X1015546D02*
X1018340D01*
X1056186Y1428700D02*
X1059234D01*
X1050598D02*
X1053392D01*
X1045772D02*
X1048820D01*
X1032564D02*
X1042470D01*
X1025452D02*
X1028754D01*
X1021642D02*
X1023420D01*
X1015800D02*
X1018848D01*
X1055932Y1428954D02*
X1058980D01*
X1051106D02*
X1053392D01*
X1045772D02*
X1049074D01*
X1034088D02*
X1041200D01*
X1025452D02*
X1029008D01*
X1021642D02*
X1023166D01*
X1016054D02*
X1019102D01*
X1055678Y1429208D02*
X1058726D01*
X1051360D02*
X1053392D01*
X1045772D02*
X1049074D01*
X1036882D02*
X1038152D01*
X1025198D02*
X1029262D01*
X1021642D02*
X1022912D01*
X1016308D02*
X1019356D01*
X1055424Y1429462D02*
X1058472D01*
X1051868D02*
X1053392D01*
X1045772D02*
X1049074D01*
X1043486D02*
X1044756D01*
X1031040D02*
X1031548D01*
X1027484D02*
X1029262D01*
X1025198D02*
X1026976D01*
X1021642D02*
X1022912D01*
X1016816D02*
X1019610D01*
X1054916Y1429716D02*
X1057964D01*
X1052376D02*
X1053392D01*
X1047296D02*
X1049074D01*
X1046026D02*
X1047042D01*
X1043486D02*
X1044756D01*
X1030786D02*
X1032056D01*
X1027738D02*
X1029262D01*
X1024944D02*
X1026722D01*
X1021642D02*
X1022658D01*
X1017070D02*
X1020118D01*
X1054662Y1429970D02*
X1057710D01*
X1046788D02*
X1049074D01*
X1043486D02*
X1044756D01*
X1041200D02*
X1042216D01*
X1032818D02*
X1033834D01*
X1030786D02*
X1032056D01*
X1027992D02*
X1029262D01*
X1024944D02*
X1026468D01*
X1017324D02*
X1020372D01*
X1054408Y1430224D02*
X1057456D01*
X1046534D02*
X1049074D01*
X1043232D02*
X1044756D01*
X1041200D02*
X1042470D01*
X1037644D02*
X1038660D01*
X1035104D02*
X1036120D01*
X1032310D02*
X1034088D01*
X1030532D02*
X1032056D01*
X1027992D02*
X1029516D01*
X1024944D02*
X1026468D01*
X1017578D02*
X1020626D01*
X1053900Y1430478D02*
X1057202D01*
X1046534D02*
X1048566D01*
X1041200D02*
X1044756D01*
X1037390D02*
X1038660D01*
X1035104D02*
X1036374D01*
X1030532D02*
X1034088D01*
X1027992D02*
X1029262D01*
X1024944D02*
X1026468D01*
X1017832D02*
X1021134D01*
X1053646Y1430732D02*
X1056948D01*
X1048312D02*
X1049582D01*
X1046280D02*
X1048058D01*
X1041200D02*
X1044756D01*
X1037390D02*
X1038914D01*
X1035104D02*
X1036374D01*
X1030532D02*
X1033834D01*
X1027738D02*
X1029262D01*
X1025198D02*
X1026722D01*
X1018340D02*
X1021388D01*
X1053138Y1430986D02*
X1056440D01*
X1046280D02*
X1049582D01*
X1041200D02*
X1044756D01*
X1037390D02*
X1038914D01*
X1034850D02*
X1036374D01*
X1030532D02*
X1033834D01*
X1025198D02*
X1029262D01*
X1018594D02*
X1021896D01*
X1052884Y1431240D02*
X1056186D01*
X1046534D02*
X1049582D01*
X1041454D02*
X1044756D01*
X1037390D02*
X1038914D01*
X1034850D02*
X1036374D01*
X1030278D02*
X1033580D01*
X1025198D02*
X1029262D01*
X1018848D02*
X1022404D01*
X1052376Y1431494D02*
X1055932D01*
X1046534D02*
X1049582D01*
X1041454D02*
X1044756D01*
X1039422D02*
X1039676D01*
X1037390D02*
X1038914D01*
X1034850D02*
X1036374D01*
X1030278D02*
X1033326D01*
X1025452D02*
X1029008D01*
X1019102D02*
X1022658D01*
X1051868Y1431748D02*
X1055424D01*
X1046788D02*
X1049582D01*
X1041708D02*
X1044756D01*
X1037390D02*
X1040438D01*
X1034850D02*
X1036374D01*
X1030278D02*
X1033326D01*
X1025706D02*
X1028754D01*
X1019610D02*
X1023166D01*
X1051360Y1432002D02*
X1055170D01*
X1046788D02*
X1049074D01*
X1041962D02*
X1044756D01*
X1037390D02*
X1040692D01*
X1034850D02*
X1036374D01*
X1030278D02*
X1033580D01*
X1025960D02*
X1028500D01*
X1019864D02*
X1023674D01*
X1050852Y1432256D02*
X1054662D01*
X1047296D02*
X1048312D01*
X1042216D02*
X1044502D01*
X1037390D02*
X1040692D01*
X1034850D02*
X1036374D01*
X1032056D02*
X1033580D01*
X1030278D02*
X1031802D01*
X1026468D02*
X1027992D01*
X1020372D02*
X1024182D01*
X1050344Y1432510D02*
X1054408D01*
X1042216D02*
X1044502D01*
X1037390D02*
X1040946D01*
X1034850D02*
X1036374D01*
X1030278D02*
X1033580D01*
X1020626D02*
X1024690D01*
X1049836Y1432764D02*
X1053900D01*
X1042470D02*
X1044502D01*
X1039422D02*
X1040946D01*
X1037390D02*
X1038914D01*
X1034850D02*
X1036120D01*
X1030278D02*
X1033580D01*
X1021134D02*
X1025198D01*
X1049328Y1433018D02*
X1053646D01*
X1042724D02*
X1044502D01*
X1037644D02*
X1040946D01*
X1034850D02*
X1036120D01*
X1030278D02*
X1033580D01*
X1021388D02*
X1025706D01*
X1048820Y1433272D02*
X1053138D01*
X1042978D02*
X1044248D01*
X1037644D02*
X1040946D01*
X1034850D02*
X1036120D01*
X1030278D02*
X1033326D01*
X1021896D02*
X1026214D01*
X1048058Y1433526D02*
X1052630D01*
X1043232D02*
X1044248D01*
X1037644D02*
X1040692D01*
X1034850D02*
X1036120D01*
X1030532D02*
X1033326D01*
X1022404D02*
X1026976D01*
X1047550Y1433780D02*
X1052122D01*
X1037644D02*
X1040692D01*
X1034850D02*
X1036120D01*
X1031040D02*
X1032818D01*
X1022912D02*
X1027738D01*
X1046788Y1434034D02*
X1051614D01*
X1037644D02*
X1040438D01*
X1034850D02*
X1036120D01*
X1023420D02*
X1028246D01*
X1045772Y1434288D02*
X1051106D01*
X1037644D02*
X1039930D01*
X1035104D02*
X1035866D01*
X1023928D02*
X1029262D01*
X1045010Y1434542D02*
X1050598D01*
X1024436D02*
X1030024D01*
X1043994Y1434796D02*
X1050090D01*
X1024944D02*
X1031040D01*
X1042724Y1435050D02*
X1049582D01*
X1025452D02*
X1032310D01*
X1041200Y1435304D02*
X1048820D01*
X1026214D02*
X1034088D01*
X1026976Y1435558D02*
X1048058D01*
X1027738Y1435812D02*
X1047296D01*
X1028500Y1436066D02*
X1046534D01*
X1029516Y1436320D02*
X1045518D01*
X1030532Y1436574D02*
X1044502D01*
X1031802Y1436828D02*
X1043232D01*
X1033326Y1437082D02*
X1041708D01*
D19*
X939976Y1403043D02*
Y1403519D01*
X940452Y1404472D01*
X940928Y1404948D01*
X941880Y1405424D01*
X943785D01*
X944737Y1404948D01*
X945213Y1404472D01*
X945689Y1403519D01*
Y1402567D01*
X945213Y1401615D01*
X944261Y1400187D01*
X939500Y1395426D01*
X946165D01*
X817000Y1402249D02*
X817952Y1402726D01*
X819380Y1404154D01*
Y1394156D01*
D20*
X1490750Y1629000D02*
D03*
X1204999Y907050D02*
D03*
X764000Y847000D02*
D03*
X827000Y935750D02*
D03*
X1129712Y1225930D02*
D03*
X1129272Y1202430D02*
D03*
X1324994Y1130750D02*
D03*
X1417249Y1310000D02*
D03*
X1416999Y1333800D02*
D03*
X1417250Y1358000D02*
D03*
X1417250Y1383000D02*
D03*
X1417249Y1406000D02*
D03*
X1348000Y943000D02*
D03*
D21*
X882661Y1284397D02*
D03*
X857261Y1284997D02*
D03*
X954469Y1285303D02*
D03*
X978564Y1285300D02*
D03*
X1087169Y1287503D02*
D03*
X1064469Y1287503D02*
D03*
X1447998Y897000D02*
D03*
X1102750Y913001D02*
D03*
X867500Y926452D02*
D03*
X978568Y1128752D02*
D03*
X954472Y1129749D02*
D03*
X882665Y1129385D02*
D03*
X857262Y1129385D02*
D03*
X1267038Y1213251D02*
D03*
X1243278Y1213249D02*
D03*
X1218529Y1213248D02*
D03*
X1193780D02*
D03*
X1426971Y1218268D02*
D03*
X1426969Y1259269D02*
D03*
X1260000Y1625263D02*
D03*
X1233714Y1625267D02*
D03*
X1207428Y1625477D02*
D03*
X1181143Y1625477D02*
D03*
X1154857Y1625477D02*
D03*
X1128571Y1625475D02*
D03*
X1101998Y1625056D02*
D03*
X1075599Y1624225D02*
D03*
M02*
