G04*
G04 #@! TF.GenerationSoftware,Altium Limited,Altium Designer,18.1.7 (191)*
G04*
G04 Layer_Color=255*
%FSLAX44Y44*%
%MOMM*%
G71*
G01*
G75*
%ADD23R,0.7000X2.2000*%
%ADD24R,3.0000X2.0000*%
%ADD25R,1.6000X0.8000*%
%ADD26R,1.5240X1.2000*%
%ADD27C,0.8128*%
%ADD29R,1.2000X1.5240*%
%ADD30R,1.2600X0.6100*%
%ADD31R,1.2000X1.2000*%
%ADD32R,1.2000X1.0500*%
%ADD33R,1.0500X1.2000*%
%ADD34R,1.1000X2.2000*%
%ADD35R,1.0500X0.8000*%
%ADD36R,2.2000X0.6000*%
G04:AMPARAMS|DCode=37|XSize=1mm|YSize=1.3mm|CornerRadius=0mm|HoleSize=0mm|Usage=FLASHONLY|Rotation=45.000|XOffset=0mm|YOffset=0mm|HoleType=Round|Shape=Rectangle|*
%AMROTATEDRECTD37*
4,1,4,0.1061,-0.8132,-0.8132,0.1061,-0.1061,0.8132,0.8132,-0.1061,0.1061,-0.8132,0.0*
%
%ADD37ROTATEDRECTD37*%

%ADD38R,1.2700X0.5080*%
G04:AMPARAMS|DCode=39|XSize=1.05mm|YSize=1.2mm|CornerRadius=0mm|HoleSize=0mm|Usage=FLASHONLY|Rotation=135.000|XOffset=0mm|YOffset=0mm|HoleType=Round|Shape=Rectangle|*
%AMROTATEDRECTD39*
4,1,4,0.7955,0.0530,-0.0530,-0.7955,-0.7955,-0.0530,0.0530,0.7955,0.7955,0.0530,0.0*
%
%ADD39ROTATEDRECTD39*%

G04:AMPARAMS|DCode=40|XSize=0.6mm|YSize=1mm|CornerRadius=0.051mm|HoleSize=0mm|Usage=FLASHONLY|Rotation=180.000|XOffset=0mm|YOffset=0mm|HoleType=Round|Shape=RoundedRectangle|*
%AMROUNDEDRECTD40*
21,1,0.6000,0.8980,0,0,180.0*
21,1,0.4980,1.0000,0,0,180.0*
1,1,0.1020,-0.2490,0.4490*
1,1,0.1020,0.2490,0.4490*
1,1,0.1020,0.2490,-0.4490*
1,1,0.1020,-0.2490,-0.4490*
%
%ADD40ROUNDEDRECTD40*%
%ADD41R,0.6000X1.0000*%
%ADD42R,2.0000X3.0000*%
%ADD43R,0.8000X1.6000*%
%ADD44R,1.9250X0.7000*%
%ADD46R,2.2000X0.7000*%
%ADD47R,1.5240X1.0160*%
%ADD48R,1.0000X1.0000*%
G04:AMPARAMS|DCode=84|XSize=0.3mm|YSize=1.75mm|CornerRadius=0mm|HoleSize=0mm|Usage=FLASHONLY|Rotation=135.000|XOffset=0mm|YOffset=0mm|HoleType=Round|Shape=Round|*
%AMOVALD84*
21,1,1.4500,0.3000,0.0000,0.0000,225.0*
1,1,0.3000,0.5127,0.5127*
1,1,0.3000,-0.5127,-0.5127*
%
%ADD84OVALD84*%

G04:AMPARAMS|DCode=85|XSize=0.3mm|YSize=1.75mm|CornerRadius=0mm|HoleSize=0mm|Usage=FLASHONLY|Rotation=225.000|XOffset=0mm|YOffset=0mm|HoleType=Round|Shape=Round|*
%AMOVALD85*
21,1,1.4500,0.3000,0.0000,0.0000,315.0*
1,1,0.3000,-0.5127,0.5127*
1,1,0.3000,0.5127,-0.5127*
%
%ADD85OVALD85*%

%ADD89C,1.0000*%
%ADD90C,1.5000*%
%ADD91R,1.5000X1.5000*%
%ADD92C,1.7780*%
%ADD93R,1.7780X1.7780*%
%ADD94R,1.5000X1.5000*%
%ADD95C,1.1900*%
%ADD96C,4.0000*%
D23*
X888865Y1237600D02*
D03*
X876165D02*
D03*
X863465D02*
D03*
X850765D02*
D03*
X888865Y1175550D02*
D03*
X876165D02*
D03*
X863465D02*
D03*
X850765D02*
D03*
X949069Y1175600D02*
D03*
X961769D02*
D03*
X974469D02*
D03*
X987169D02*
D03*
X949069Y1237650D02*
D03*
X961769D02*
D03*
X974469D02*
D03*
X987169D02*
D03*
X1051769Y1175300D02*
D03*
X1064469D02*
D03*
X1077169D02*
D03*
X1089869D02*
D03*
X1051769Y1237350D02*
D03*
X1064469D02*
D03*
X1077169D02*
D03*
X1089869D02*
D03*
D24*
X696880Y1116100D02*
D03*
Y1230600D02*
D03*
D25*
X727880Y1192100D02*
D03*
Y1167100D02*
D03*
Y1142100D02*
D03*
Y1204600D02*
D03*
Y1179600D02*
D03*
Y1154600D02*
D03*
D26*
X1406500Y1198180D02*
D03*
Y1218500D02*
D03*
X882661Y1274240D02*
D03*
Y1294560D02*
D03*
X857261Y1274840D02*
D03*
Y1295160D02*
D03*
X954469Y1275140D02*
D03*
Y1295460D02*
D03*
X978564Y1275140D02*
D03*
Y1295460D02*
D03*
X1087169Y1275090D02*
D03*
Y1295410D02*
D03*
X1064469Y1275090D02*
D03*
Y1295410D02*
D03*
X1448000Y907160D02*
D03*
Y886840D02*
D03*
X1102750Y902840D02*
D03*
Y923160D02*
D03*
X867500Y916290D02*
D03*
Y936610D02*
D03*
X976250Y1138910D02*
D03*
Y1118590D02*
D03*
X954469Y1139910D02*
D03*
Y1119590D02*
D03*
X882661Y1139546D02*
D03*
Y1119226D02*
D03*
X857261Y1139546D02*
D03*
Y1119226D02*
D03*
X1267038Y1203090D02*
D03*
Y1223410D02*
D03*
X1243278Y1203090D02*
D03*
Y1223410D02*
D03*
X1218529Y1203090D02*
D03*
Y1223410D02*
D03*
X1193780Y1203090D02*
D03*
Y1223410D02*
D03*
X1406500Y1261655D02*
D03*
Y1241335D02*
D03*
X1260000Y1615105D02*
D03*
Y1635425D02*
D03*
X1233714Y1615105D02*
D03*
Y1635425D02*
D03*
X1207429Y1615315D02*
D03*
Y1635635D02*
D03*
X1181143Y1615315D02*
D03*
Y1635635D02*
D03*
X1154857Y1615315D02*
D03*
Y1635635D02*
D03*
X1128571Y1615315D02*
D03*
Y1635635D02*
D03*
X1102000Y1635216D02*
D03*
Y1614896D02*
D03*
X1075600Y1634385D02*
D03*
Y1614065D02*
D03*
D27*
X1490000Y879000D02*
D03*
X689250Y1612250D02*
D03*
X1309250Y1604000D02*
D03*
D29*
X1500910Y1629000D02*
D03*
X1480590D02*
D03*
X1215160Y907050D02*
D03*
X1194840D02*
D03*
X753840Y847000D02*
D03*
X774160D02*
D03*
X816840Y935750D02*
D03*
X837160D02*
D03*
X1121484Y1227430D02*
D03*
X1141804D02*
D03*
X1121043Y1203930D02*
D03*
X1141363D02*
D03*
X1314834Y1130750D02*
D03*
X1335154D02*
D03*
X1427410Y1310000D02*
D03*
X1407090D02*
D03*
X1427160Y1333800D02*
D03*
X1406840D02*
D03*
X1427410Y1358000D02*
D03*
X1407090D02*
D03*
X1427410Y1383000D02*
D03*
X1407090D02*
D03*
X1427410Y1406000D02*
D03*
X1407090D02*
D03*
X1358160Y943000D02*
D03*
X1337840D02*
D03*
D30*
X925900Y1505000D02*
D03*
X834100D02*
D03*
X925900Y1495000D02*
D03*
X834100D02*
D03*
X925900Y1485000D02*
D03*
X834100D02*
D03*
X925900Y1475000D02*
D03*
X834100D02*
D03*
X925900Y1465000D02*
D03*
X834100D02*
D03*
X925900Y1455000D02*
D03*
X834100D02*
D03*
X925900Y1445000D02*
D03*
X834100D02*
D03*
X925900Y1435000D02*
D03*
X834100D02*
D03*
X925900Y1425000D02*
D03*
X834100D02*
D03*
X925900Y1415000D02*
D03*
X834100D02*
D03*
D31*
X1237000Y1042100D02*
D03*
Y1060700D02*
D03*
X1278000Y897700D02*
D03*
Y916300D02*
D03*
X714000Y925700D02*
D03*
Y944300D02*
D03*
D32*
X1218000Y1060560D02*
D03*
Y1042060D02*
D03*
X1405250Y891690D02*
D03*
Y910190D02*
D03*
X1248250Y916250D02*
D03*
Y897750D02*
D03*
X977500Y968000D02*
D03*
Y986500D02*
D03*
X735000Y945000D02*
D03*
Y926500D02*
D03*
X749750Y1032469D02*
D03*
Y1050969D02*
D03*
X730410Y1032469D02*
D03*
Y1050969D02*
D03*
X1275000Y1263250D02*
D03*
Y1244750D02*
D03*
D33*
X1217750Y1084000D02*
D03*
X1236250D02*
D03*
X1405250Y874000D02*
D03*
X1386750D02*
D03*
X1162250Y948000D02*
D03*
X1143750D02*
D03*
X995473Y948606D02*
D03*
X1013973D02*
D03*
X917250Y915840D02*
D03*
X898750D02*
D03*
X815750Y1237350D02*
D03*
X834250D02*
D03*
X915219Y1237800D02*
D03*
X933719D02*
D03*
X1016757D02*
D03*
X1035257D02*
D03*
D34*
X1278000Y1018000D02*
D03*
X1310000D02*
D03*
X1278000Y945000D02*
D03*
X1310000D02*
D03*
D35*
Y971663D02*
D03*
Y990163D02*
D03*
X1247250Y935750D02*
D03*
Y954250D02*
D03*
D36*
X1312000Y912050D02*
D03*
Y899350D02*
D03*
Y886650D02*
D03*
Y873950D02*
D03*
X1360000Y912050D02*
D03*
Y899350D02*
D03*
Y886650D02*
D03*
Y873950D02*
D03*
D37*
X1189458Y987262D02*
D03*
X1175316Y973120D02*
D03*
D38*
X1139347Y912050D02*
D03*
X1167347Y921550D02*
D03*
Y902550D02*
D03*
Y912050D02*
D03*
X1139347Y902550D02*
D03*
Y921550D02*
D03*
D39*
X1190542Y959921D02*
D03*
X1203623Y946840D02*
D03*
X1204387Y973791D02*
D03*
X1217468Y960709D02*
D03*
D40*
X754500Y923500D02*
D03*
D41*
X773500D02*
D03*
Y896000D02*
D03*
X764000D02*
D03*
X754500D02*
D03*
D42*
X943500Y849000D02*
D03*
X829000D02*
D03*
D43*
X867500Y880000D02*
D03*
X892500D02*
D03*
X917500D02*
D03*
X855000D02*
D03*
X880000D02*
D03*
X905000D02*
D03*
D44*
X867120Y1062180D02*
D03*
Y1049480D02*
D03*
Y1036780D02*
D03*
Y1024080D02*
D03*
Y1011380D02*
D03*
Y998680D02*
D03*
Y985980D02*
D03*
Y973280D02*
D03*
X772880D02*
D03*
Y985980D02*
D03*
Y998680D02*
D03*
Y1011380D02*
D03*
Y1024080D02*
D03*
Y1036780D02*
D03*
Y1049480D02*
D03*
Y1062180D02*
D03*
D46*
X1294538Y1223450D02*
D03*
Y1210750D02*
D03*
Y1198050D02*
D03*
Y1185350D02*
D03*
X1356588Y1223450D02*
D03*
Y1210750D02*
D03*
Y1198050D02*
D03*
Y1185350D02*
D03*
D47*
X1233714Y1678570D02*
D03*
Y1658250D02*
D03*
X1260000Y1678570D02*
D03*
Y1658250D02*
D03*
X1207429Y1678570D02*
D03*
Y1658250D02*
D03*
X1181143Y1678570D02*
D03*
Y1658250D02*
D03*
X1154857Y1678570D02*
D03*
Y1658250D02*
D03*
X1128571Y1678570D02*
D03*
Y1658250D02*
D03*
X1102000Y1678626D02*
D03*
Y1658306D02*
D03*
X1075600Y1678820D02*
D03*
Y1658500D02*
D03*
D48*
X1014000Y966750D02*
D03*
X996500Y986750D02*
D03*
X1014000Y986750D02*
D03*
X997000Y966750D02*
D03*
D84*
X1036614Y1012733D02*
D03*
X1040149Y1009197D02*
D03*
X1200309Y1063291D02*
D03*
X1196773Y1066826D02*
D03*
X1193238Y1070362D02*
D03*
X1189702Y1073897D02*
D03*
X1186167Y1077433D02*
D03*
X1182631Y1080969D02*
D03*
X1179096Y1084504D02*
D03*
X1175560Y1088040D02*
D03*
X1172025Y1091575D02*
D03*
X1168489Y1095111D02*
D03*
X1164954Y1098646D02*
D03*
X1161418Y1102182D02*
D03*
X1157883Y1105717D02*
D03*
X1154347Y1109253D02*
D03*
X1150811Y1112788D02*
D03*
X1147276Y1116324D02*
D03*
X1143740Y1119859D02*
D03*
X1140205Y1123395D02*
D03*
X1136669Y1126930D02*
D03*
X1133134Y1130466D02*
D03*
X1129598Y1134002D02*
D03*
X1126063Y1137537D02*
D03*
X1122527Y1141073D02*
D03*
X1118992Y1144608D02*
D03*
X1115456Y1148144D02*
D03*
X1008329Y1041017D02*
D03*
X1011865Y1037482D02*
D03*
X1015400Y1033946D02*
D03*
X1018936Y1030411D02*
D03*
X1022471Y1026875D02*
D03*
X1026007Y1023339D02*
D03*
X1029543Y1019804D02*
D03*
X1033078Y1016268D02*
D03*
X1043685Y1005662D02*
D03*
X1047220Y1002126D02*
D03*
X1050756Y998591D02*
D03*
X1054291Y995055D02*
D03*
X1057827Y991520D02*
D03*
X1061362Y987984D02*
D03*
X1064898Y984449D02*
D03*
X1068434Y980913D02*
D03*
X1071969Y977377D02*
D03*
X1075505Y973842D02*
D03*
X1079040Y970306D02*
D03*
X1082576Y966771D02*
D03*
X1086111Y963235D02*
D03*
X1089647Y959700D02*
D03*
X1093182Y956164D02*
D03*
D85*
X1115456D02*
D03*
X1118992Y959700D02*
D03*
X1122527Y963235D02*
D03*
X1126063Y966771D02*
D03*
X1129598Y970306D02*
D03*
X1133134Y973842D02*
D03*
X1136669Y977377D02*
D03*
X1140205Y980913D02*
D03*
X1143740Y984448D02*
D03*
X1147276Y987984D02*
D03*
X1150811Y991520D02*
D03*
X1154347Y995055D02*
D03*
X1157883Y998591D02*
D03*
X1161418Y1002126D02*
D03*
X1164954Y1005662D02*
D03*
X1168489Y1009197D02*
D03*
X1172025Y1012733D02*
D03*
X1175560Y1016268D02*
D03*
X1179096Y1019804D02*
D03*
X1182631Y1023339D02*
D03*
X1186167Y1026875D02*
D03*
X1189702Y1030411D02*
D03*
X1193238Y1033946D02*
D03*
X1196773Y1037482D02*
D03*
X1200309Y1041017D02*
D03*
X1093182Y1148144D02*
D03*
X1089647Y1144608D02*
D03*
X1086111Y1141073D02*
D03*
X1082576Y1137537D02*
D03*
X1079040Y1134002D02*
D03*
X1075505Y1130466D02*
D03*
X1071969Y1126930D02*
D03*
X1068434Y1123395D02*
D03*
X1064898Y1119859D02*
D03*
X1061362Y1116324D02*
D03*
X1057827Y1112788D02*
D03*
X1054291Y1109253D02*
D03*
X1050756Y1105717D02*
D03*
X1047220Y1102182D02*
D03*
X1043685Y1098646D02*
D03*
X1040149Y1095111D02*
D03*
X1036614Y1091575D02*
D03*
X1033078Y1088040D02*
D03*
X1029543Y1084504D02*
D03*
X1026007Y1080969D02*
D03*
X1022471Y1077433D02*
D03*
X1018936Y1073897D02*
D03*
X1015400Y1070362D02*
D03*
X1011865Y1066826D02*
D03*
X1008329Y1063291D02*
D03*
D89*
X1376000Y845852D02*
D03*
X1050068Y958000D02*
D03*
X1069000Y925000D02*
D03*
X1063750Y908250D02*
D03*
X1080750Y905500D02*
D03*
X1179750Y935500D02*
D03*
X1263750Y874250D02*
D03*
X1402270Y927920D02*
D03*
X1388000Y1100500D02*
D03*
X1315500Y1049000D02*
D03*
X1346000Y1052000D02*
D03*
X1387923Y1118592D02*
D03*
Y1135500D02*
D03*
X1434809Y1173472D02*
D03*
X1252500Y1298500D02*
D03*
X1269000Y1291000D02*
D03*
X1248000Y1347500D02*
D03*
X1247750Y1383000D02*
D03*
X1216750Y1391500D02*
D03*
X1217000Y1374500D02*
D03*
Y1357500D02*
D03*
X1216750Y1340000D02*
D03*
X779250Y1430500D02*
D03*
X975500Y1154250D02*
D03*
X934750Y1097750D02*
D03*
X860500Y1078250D02*
D03*
X822500D02*
D03*
X794000D02*
D03*
X918000Y1097227D02*
D03*
X744230Y1004500D02*
D03*
X790000Y918500D02*
D03*
X790250Y901500D02*
D03*
X808500Y849750D02*
D03*
X791750Y850000D02*
D03*
X1107611Y1181058D02*
D03*
Y1198000D02*
D03*
X1104750Y1407704D02*
D03*
X1104500Y1390500D02*
D03*
X1104351Y1373350D02*
D03*
X1104500Y1357000D02*
D03*
X813500Y1455000D02*
D03*
X957250Y1473250D02*
D03*
X973750Y1455000D02*
D03*
X909000Y1536250D02*
D03*
X888250Y1536750D02*
D03*
X796750Y1515500D02*
D03*
Y1499150D02*
D03*
X1083250Y1261000D02*
D03*
X1005000Y1256175D02*
D03*
X1000750Y1282000D02*
D03*
X900250Y1259250D02*
D03*
D90*
X1432500Y1197800D02*
D03*
Y1223200D02*
D03*
Y1248600D02*
D03*
X690000Y1499150D02*
D03*
Y1473750D02*
D03*
Y1448350D02*
D03*
Y1422950D02*
D03*
Y1397550D02*
D03*
X1151800Y870000D02*
D03*
Y844600D02*
D03*
X1126400Y870000D02*
D03*
Y844600D02*
D03*
X1101000Y870000D02*
D03*
Y844600D02*
D03*
X1075600Y870000D02*
D03*
Y844600D02*
D03*
X1050200Y870000D02*
D03*
Y844600D02*
D03*
X1024800Y870000D02*
D03*
Y844600D02*
D03*
X999400Y870000D02*
D03*
X1476200Y1248600D02*
D03*
X1501600D02*
D03*
X1552400Y969200D02*
D03*
X1527000D02*
D03*
X1552400Y994600D02*
D03*
X1527000D02*
D03*
X1552400Y1020000D02*
D03*
X1527000D02*
D03*
X1552400Y1045400D02*
D03*
X1527000D02*
D03*
X1552400Y1070800D02*
D03*
X1527000D02*
D03*
X1552400Y1096200D02*
D03*
X1527000D02*
D03*
X1552400Y1121600D02*
D03*
X1527000D02*
D03*
X1552400Y1147000D02*
D03*
X1527000D02*
D03*
X1552400Y1172400D02*
D03*
X1527000D02*
D03*
X1552400Y1197800D02*
D03*
X1527000D02*
D03*
X1552400Y1223200D02*
D03*
X1527000D02*
D03*
X1552400Y1248600D02*
D03*
X1527000D02*
D03*
X1552400Y1274000D02*
D03*
X1527000D02*
D03*
X1552400Y1299400D02*
D03*
X1527000D02*
D03*
X1552400Y1324800D02*
D03*
X1527000D02*
D03*
X1552400Y1350200D02*
D03*
X1527000D02*
D03*
X1552400Y1375600D02*
D03*
X1527000Y1375350D02*
D03*
X1552400Y1401000D02*
D03*
X1527000D02*
D03*
X1552400Y1426400D02*
D03*
X1527000D02*
D03*
X1552400Y1451800D02*
D03*
X1526950D02*
D03*
X1552400Y1477200D02*
D03*
X1526950D02*
D03*
X1552400Y1502600D02*
D03*
X1527000D02*
D03*
X1552400Y1528000D02*
D03*
X1527000D02*
D03*
X1552400Y1553400D02*
D03*
X1527000D02*
D03*
X1552400Y1578800D02*
D03*
X1527000Y943800D02*
D03*
X1552400D02*
D03*
X1501600D02*
D03*
X1476200D02*
D03*
X1501600Y1578800D02*
D03*
X1476200Y1553400D02*
D03*
X1501600D02*
D03*
X1476200Y1528000D02*
D03*
X1501600D02*
D03*
X1476200Y1502600D02*
D03*
X1501600D02*
D03*
X1476200Y1477200D02*
D03*
X1501600D02*
D03*
X1476200Y1451800D02*
D03*
X1501600D02*
D03*
X1476200Y1426400D02*
D03*
X1501600D02*
D03*
X1476200Y1401000D02*
D03*
X1501600D02*
D03*
X1476200Y1375350D02*
D03*
X1501600Y1375600D02*
D03*
X1476200Y1350200D02*
D03*
X1501600D02*
D03*
X1476200Y1324800D02*
D03*
X1501600D02*
D03*
X1476200Y1299400D02*
D03*
X1501600D02*
D03*
X1476200Y1274000D02*
D03*
X1501600D02*
D03*
X1476200Y1223200D02*
D03*
X1501600D02*
D03*
X1476200Y1197800D02*
D03*
X1501600D02*
D03*
X1476200Y1172400D02*
D03*
X1501600D02*
D03*
X1476200Y1147000D02*
D03*
X1501600D02*
D03*
X1476200Y1121600D02*
D03*
X1501600D02*
D03*
X1476200Y1096200D02*
D03*
X1501600D02*
D03*
X1476200Y1070800D02*
D03*
X1501600D02*
D03*
X1476200Y1045400D02*
D03*
X1501600D02*
D03*
X1476200Y1020000D02*
D03*
X1501600D02*
D03*
X1476200Y994600D02*
D03*
X1501600D02*
D03*
X1476200Y969200D02*
D03*
X1501600D02*
D03*
D91*
X1432500Y1274000D02*
D03*
X690000Y1524550D02*
D03*
X1526950Y1578800D02*
D03*
X1476200D02*
D03*
D92*
X690316Y1317300D02*
D03*
X1207500Y869984D02*
D03*
D93*
X690316Y1342700D02*
D03*
X1207500Y844584D02*
D03*
D94*
X999400Y844600D02*
D03*
D95*
X880000Y1505000D02*
D03*
Y1415000D02*
D03*
D96*
X1360000Y1280000D02*
D03*
Y1640000D02*
D03*
X780000Y1280000D02*
D03*
Y1640000D02*
D03*
X695790Y1668380D02*
D03*
X1552448Y1629918D02*
D03*
X695790Y868130D02*
D03*
X1552540Y893130D02*
D03*
M02*
