G04*
G04 #@! TF.GenerationSoftware,Altium Limited,Altium Designer,18.1.7 (191)*
G04*
G04 Layer_Color=255*
%FSLAX44Y44*%
%MOMM*%
G71*
G01*
G75*
%ADD22R,1.5240X1.2000*%
%ADD23C,0.8128*%
%ADD25R,1.2000X1.5240*%
%ADD27R,1.2000X1.2000*%
%ADD28R,1.2000X1.0500*%
%ADD29R,1.0500X1.2000*%
%ADD84C,1.0160*%
%ADD85R,1.5000X1.5000*%
%ADD86C,1.5000*%
%ADD87R,1.5000X1.5000*%
%ADD88C,1.1900*%
%ADD89R,1.7780X1.7780*%
%ADD90C,1.7780*%
%ADD91C,4.0000*%
G04:AMPARAMS|DCode=93|XSize=1.2mm|YSize=1.524mm|CornerRadius=0mm|HoleSize=0mm|Usage=FLASHONLY|Rotation=225.000|XOffset=0mm|YOffset=0mm|HoleType=Round|Shape=Rectangle|*
%AMROTATEDRECTD93*
4,1,4,-0.1146,0.9631,0.9631,-0.1146,0.1146,-0.9631,-0.9631,0.1146,-0.1146,0.9631,0.0*
%
%ADD93ROTATEDRECTD93*%

G04:AMPARAMS|DCode=94|XSize=1.05mm|YSize=1.2mm|CornerRadius=0mm|HoleSize=0mm|Usage=FLASHONLY|Rotation=225.000|XOffset=0mm|YOffset=0mm|HoleType=Round|Shape=Rectangle|*
%AMROTATEDRECTD94*
4,1,4,-0.0530,0.7955,0.7955,-0.0530,0.0530,-0.7955,-0.7955,0.0530,-0.0530,0.7955,0.0*
%
%ADD94ROTATEDRECTD94*%

%ADD95P,1.6971X4X270.0*%
%ADD96R,1.2000X1.2000*%
%ADD97R,0.4500X1.5000*%
%ADD98R,1.5000X0.5700*%
D22*
X1350000Y1022160D02*
D03*
Y1001840D02*
D03*
X868000Y1093840D02*
D03*
Y1114160D02*
D03*
X845000Y1094042D02*
D03*
Y1114362D02*
D03*
X800000Y1114083D02*
D03*
Y1093763D02*
D03*
X822500Y1114083D02*
D03*
Y1093763D02*
D03*
D23*
X1490000Y879000D02*
D03*
X689250Y1612250D02*
D03*
X1309250Y1604000D02*
D03*
D25*
X1428160Y1578800D02*
D03*
X1407840D02*
D03*
X1428160Y1553400D02*
D03*
X1407840D02*
D03*
X1428160Y1406000D02*
D03*
X1407840D02*
D03*
X1428160Y1381000D02*
D03*
X1407840D02*
D03*
X1430160Y1144000D02*
D03*
X1409840D02*
D03*
X1430160Y1120000D02*
D03*
X1409840D02*
D03*
X1430160Y1095000D02*
D03*
X1409840D02*
D03*
X1431160Y1071000D02*
D03*
X1410840D02*
D03*
X1374653Y999000D02*
D03*
X1394973D02*
D03*
X924840Y1114160D02*
D03*
X945160D02*
D03*
X924840Y1062500D02*
D03*
X945160D02*
D03*
D27*
X1334250Y1174300D02*
D03*
Y1155700D02*
D03*
X1350000Y967300D02*
D03*
Y948700D02*
D03*
D28*
X1354250Y1154750D02*
D03*
Y1173250D02*
D03*
X1330000Y967250D02*
D03*
Y948750D02*
D03*
X1415000Y998250D02*
D03*
Y979750D02*
D03*
D29*
X1195750Y930500D02*
D03*
X1214250D02*
D03*
X1017750Y992000D02*
D03*
X999250D02*
D03*
X1372250Y870000D02*
D03*
X1353750D02*
D03*
D84*
X1409750Y1208500D02*
D03*
X1405364Y1226525D02*
D03*
X1050068Y958000D02*
D03*
X1069000Y925000D02*
D03*
X1063750Y908250D02*
D03*
X1080750Y905500D02*
D03*
X1179750Y935500D02*
D03*
X1376000Y845852D02*
D03*
X1263750Y874250D02*
D03*
X1402270Y927920D02*
D03*
X1388000Y1100500D02*
D03*
X1315500Y1049000D02*
D03*
X1346000Y1052000D02*
D03*
X1387923Y1118592D02*
D03*
Y1135500D02*
D03*
X1438500Y1179250D02*
D03*
X1452250Y1249110D02*
D03*
Y1269430D02*
D03*
X1252250Y1300500D02*
D03*
X1269000Y1291000D02*
D03*
X1248000Y1347500D02*
D03*
X1247750Y1383000D02*
D03*
X1216750Y1391500D02*
D03*
X1217000Y1374500D02*
D03*
Y1357500D02*
D03*
X1216750Y1340000D02*
D03*
X779250Y1430500D02*
D03*
X978564Y1154250D02*
D03*
X934750Y1097750D02*
D03*
X860500Y1078250D02*
D03*
X822500D02*
D03*
X794000D02*
D03*
X918000Y1097227D02*
D03*
X744230Y1004500D02*
D03*
X790000Y918500D02*
D03*
X790250Y901500D02*
D03*
X808500Y849750D02*
D03*
X791750Y850000D02*
D03*
X1107611Y1181058D02*
D03*
X1105500Y1202000D02*
D03*
X1104750Y1407704D02*
D03*
X1104500Y1390500D02*
D03*
X1104351Y1373350D02*
D03*
X1104500Y1357000D02*
D03*
X813500Y1455000D02*
D03*
X957250Y1473250D02*
D03*
X973750Y1455000D02*
D03*
X909000Y1536250D02*
D03*
X888250Y1536750D02*
D03*
X799500Y1522250D02*
D03*
X789500Y1505750D02*
D03*
X1083250Y1261750D02*
D03*
X1005000Y1256175D02*
D03*
X1000750Y1282000D02*
D03*
X900250Y1259250D02*
D03*
D85*
X690000Y1524550D02*
D03*
X1526950Y1578800D02*
D03*
X1476200D02*
D03*
D86*
X690000Y1499150D02*
D03*
Y1473750D02*
D03*
Y1448350D02*
D03*
Y1422950D02*
D03*
Y1397550D02*
D03*
X1151800Y870000D02*
D03*
Y844600D02*
D03*
X1126400Y870000D02*
D03*
Y844600D02*
D03*
X1101000Y870000D02*
D03*
Y844600D02*
D03*
X1075600Y870000D02*
D03*
Y844600D02*
D03*
X1050200Y870000D02*
D03*
Y844600D02*
D03*
X1024800Y870000D02*
D03*
Y844600D02*
D03*
X999400Y870000D02*
D03*
X1476200Y1248600D02*
D03*
X1501600D02*
D03*
X1552400Y969200D02*
D03*
X1527000D02*
D03*
X1552400Y994600D02*
D03*
X1527000D02*
D03*
X1552400Y1020000D02*
D03*
X1527000D02*
D03*
X1552400Y1045400D02*
D03*
X1527000D02*
D03*
X1552400Y1070800D02*
D03*
X1527000D02*
D03*
X1552400Y1096200D02*
D03*
X1527000D02*
D03*
X1552400Y1121600D02*
D03*
X1527000D02*
D03*
X1552400Y1147000D02*
D03*
X1527000D02*
D03*
X1552400Y1172400D02*
D03*
X1527000D02*
D03*
X1552400Y1197800D02*
D03*
X1527000D02*
D03*
X1552400Y1223200D02*
D03*
X1527000D02*
D03*
X1552400Y1248600D02*
D03*
X1527000D02*
D03*
X1552400Y1274000D02*
D03*
X1527000D02*
D03*
X1552400Y1299400D02*
D03*
X1527000D02*
D03*
X1552400Y1324800D02*
D03*
X1527000D02*
D03*
X1552400Y1350200D02*
D03*
X1527000D02*
D03*
X1552400Y1375600D02*
D03*
X1527000Y1375350D02*
D03*
X1552400Y1401000D02*
D03*
X1527000D02*
D03*
X1552400Y1426400D02*
D03*
X1527000D02*
D03*
X1552400Y1451800D02*
D03*
X1526950D02*
D03*
X1552400Y1477200D02*
D03*
X1526950D02*
D03*
X1552400Y1502600D02*
D03*
X1527000D02*
D03*
X1552400Y1528000D02*
D03*
X1527000D02*
D03*
X1552400Y1553400D02*
D03*
X1527000D02*
D03*
X1552400Y1578800D02*
D03*
X1527000Y943800D02*
D03*
X1552400D02*
D03*
X1501600D02*
D03*
X1476200D02*
D03*
X1501600Y1578800D02*
D03*
X1476200Y1553400D02*
D03*
X1501600D02*
D03*
X1476200Y1528000D02*
D03*
X1501600D02*
D03*
X1476200Y1502600D02*
D03*
X1501600D02*
D03*
X1476200Y1477200D02*
D03*
X1501600D02*
D03*
X1476200Y1451800D02*
D03*
X1501600D02*
D03*
X1476200Y1426400D02*
D03*
X1501600D02*
D03*
X1476200Y1401000D02*
D03*
X1501600D02*
D03*
X1476200Y1375350D02*
D03*
X1501600Y1375600D02*
D03*
X1476200Y1350200D02*
D03*
X1501600D02*
D03*
X1476200Y1324800D02*
D03*
X1501600D02*
D03*
X1476200Y1299400D02*
D03*
X1501600D02*
D03*
X1476200Y1274000D02*
D03*
X1501600D02*
D03*
X1476200Y1223200D02*
D03*
X1501600D02*
D03*
X1476200Y1197800D02*
D03*
X1501600D02*
D03*
X1476200Y1172400D02*
D03*
X1501600D02*
D03*
X1476200Y1147000D02*
D03*
X1501600D02*
D03*
X1476200Y1121600D02*
D03*
X1501600D02*
D03*
X1476200Y1096200D02*
D03*
X1501600D02*
D03*
X1476200Y1070800D02*
D03*
X1501600D02*
D03*
X1476200Y1045400D02*
D03*
X1501600D02*
D03*
X1476200Y1020000D02*
D03*
X1501600D02*
D03*
X1476200Y994600D02*
D03*
X1501600D02*
D03*
X1476200Y969200D02*
D03*
X1501600D02*
D03*
D87*
X999400Y844600D02*
D03*
D88*
X880000Y1505000D02*
D03*
Y1415000D02*
D03*
D89*
X1205000Y844300D02*
D03*
D90*
Y869700D02*
D03*
D91*
X1360000Y1280000D02*
D03*
Y1640000D02*
D03*
X780000Y1280000D02*
D03*
Y1640000D02*
D03*
X695790Y1668380D02*
D03*
X1552448Y1629918D02*
D03*
X695790Y868130D02*
D03*
X1552540Y893130D02*
D03*
D93*
X1172566Y953066D02*
D03*
X1186934Y967434D02*
D03*
D94*
X1032857Y1090604D02*
D03*
X1019776Y1077523D02*
D03*
X1154267Y973459D02*
D03*
X1167348Y986541D02*
D03*
D95*
X1031174Y1065174D02*
D03*
X1044326Y1078326D02*
D03*
X1154384Y999576D02*
D03*
X1141232Y986424D02*
D03*
D96*
X1017800Y973500D02*
D03*
X999200D02*
D03*
D97*
X1368250Y926750D02*
D03*
X1374750D02*
D03*
X1387750D02*
D03*
X1381250D02*
D03*
X1387750Y967250D02*
D03*
X1381250D02*
D03*
X1374750D02*
D03*
X1368250D02*
D03*
D98*
X1388250Y899500D02*
D03*
Y890000D02*
D03*
X1353750Y899750D02*
D03*
Y890250D02*
D03*
M02*
