G04*
G04 #@! TF.GenerationSoftware,Altium Limited,Altium Designer,18.1.7 (191)*
G04*
G04 Layer_Color=65535*
%FSLAX44Y44*%
%MOMM*%
G71*
G01*
G75*
%ADD10C,0.2540*%
%ADD11C,0.5000*%
%ADD12C,0.2500*%
%ADD13C,0.6000*%
%ADD14C,0.1500*%
%ADD15C,0.2000*%
%ADD16C,0.2032*%
%ADD17C,0.0119*%
%ADD18C,0.1000*%
%ADD19C,0.0254*%
%ADD20C,0.1778*%
%ADD21C,0.1984*%
%ADD22R,0.5080X1.5240*%
%ADD23R,1.5240X0.5080*%
G36*
X869646Y1633000D02*
X874646Y1628000D01*
X869646Y1623000D01*
Y1633000D01*
D02*
G37*
G36*
X844397Y1648250D02*
X849396Y1653250D01*
X854397Y1648250D01*
X844397D01*
D02*
G37*
D10*
X844415Y1203400D02*
G03*
X844415Y1209750I0J3175D01*
G01*
X849750Y1628000D02*
G03*
X849750Y1628000I-354J0D01*
G01*
X857247D02*
G03*
X857247Y1628000I-7850J0D01*
G01*
X1164618Y894800D02*
G03*
X1164618Y894800I-1521J0D01*
G01*
X942719Y1203450D02*
G03*
X942719Y1209800I0J3175D01*
G01*
X1045419Y1203150D02*
G03*
X1045419Y1209500I0J3175D01*
G01*
X1322388Y1229800D02*
G03*
X1328738Y1229800I3175J0D01*
G01*
X844415Y1190040D02*
X895215D01*
Y1223235D01*
X844415D02*
X895215D01*
X844415Y1209750D02*
Y1223235D01*
Y1190040D02*
Y1203400D01*
X685130Y1134350D02*
X714880D01*
X685130D02*
Y1210340D01*
X714880Y1134350D02*
Y1210340D01*
X685130D02*
X714880D01*
X849396Y1635850D02*
Y1654500D01*
X857247Y1628000D02*
X875896D01*
X849396Y1654500D02*
X854396Y1649500D01*
X844397Y1649500D02*
X849396Y1654500D01*
X870896Y1633000D02*
X875896Y1628000D01*
X870896Y1623000D02*
X875896Y1628000D01*
X1384250Y1639500D02*
Y1649750D01*
X1370000Y1664000D02*
X1384250Y1649750D01*
X1360250Y1664000D02*
X1370000D01*
X1335750Y1640000D02*
Y1650000D01*
X1349750Y1664000D01*
X1360250D01*
X1349250Y1615500D02*
X1359750D01*
X1335750Y1629000D02*
X1349250Y1615500D01*
X1335750Y1629000D02*
Y1640000D01*
X1384250Y1629250D02*
Y1639500D01*
X1370500Y1615500D02*
X1384250Y1629250D01*
X1359750Y1615500D02*
X1370500D01*
X1377250Y1296250D02*
X1379250Y1294250D01*
X1338000Y1296250D02*
X1340000Y1294250D01*
X1338000Y1296250D02*
X1338000D01*
X1338000D02*
Y1296250D01*
X1379250Y1294250D02*
X1440500D01*
X1327750Y1306500D02*
X1338000Y1296250D01*
X1360000Y1303750D02*
X1369750D01*
X1349500D02*
X1360000D01*
X1369750D02*
X1384000Y1289500D01*
X1335500Y1289750D02*
X1349500Y1303750D01*
X1384000Y1279250D02*
Y1289500D01*
X1335500Y1279750D02*
Y1289750D01*
X1349000Y1255250D02*
X1359500D01*
X1335500Y1268750D02*
X1349000Y1255250D01*
X1335500Y1268750D02*
Y1279750D01*
X1384000Y1269000D02*
Y1279250D01*
X1370250Y1255250D02*
X1384000Y1269000D01*
X1359500Y1255250D02*
X1370250D01*
X804000Y1279750D02*
Y1290000D01*
X789750Y1304250D02*
X804000Y1290000D01*
X780000Y1304250D02*
X789750D01*
X755500Y1280250D02*
Y1290250D01*
X769500Y1304250D01*
X780000D01*
X769000Y1255750D02*
X779500D01*
X755500Y1269250D02*
X769000Y1255750D01*
X755500Y1269250D02*
Y1280250D01*
X804000Y1269500D02*
Y1279750D01*
X790250Y1255750D02*
X804000Y1269500D01*
X779500Y1255750D02*
X790250D01*
X720250Y868000D02*
Y878250D01*
X706000Y892500D02*
X720250Y878250D01*
X696250Y892500D02*
X706000D01*
X671750Y868500D02*
Y878500D01*
X685750Y892500D01*
X696250D01*
X685250Y844000D02*
X695750D01*
X671750Y857500D02*
X685250Y844000D01*
X671750Y857500D02*
Y868500D01*
X720250Y857750D02*
Y868000D01*
X706500Y844000D02*
X720250Y857750D01*
X695750Y844000D02*
X706500D01*
X1576750Y893250D02*
Y903500D01*
X1562500Y917750D02*
X1576750Y903500D01*
X1552750Y917750D02*
X1562500D01*
X1528250Y893750D02*
Y903750D01*
X1542250Y917750D01*
X1552750D01*
X1541750Y869250D02*
X1552250D01*
X1528250Y882750D02*
X1541750Y869250D01*
X1528250Y882750D02*
Y893750D01*
X1576750Y883000D02*
Y893250D01*
X1563000Y869250D02*
X1576750Y883000D01*
X1552250Y869250D02*
X1563000D01*
X1577000Y1630000D02*
Y1640250D01*
X1562750Y1654500D02*
X1577000Y1640250D01*
X1553000Y1654500D02*
X1562750D01*
X1528500Y1630500D02*
Y1640500D01*
X1542500Y1654500D01*
X1553000D01*
X1542000Y1606000D02*
X1552500D01*
X1528500Y1619500D02*
X1542000Y1606000D01*
X1528500Y1619500D02*
Y1630500D01*
X1577000Y1619750D02*
Y1630000D01*
X1563250Y1606000D02*
X1577000Y1619750D01*
X1552500Y1606000D02*
X1563250D01*
X720000Y1668000D02*
Y1678250D01*
X705750Y1692500D02*
X720000Y1678250D01*
X696000Y1692500D02*
X705750D01*
X671500Y1668500D02*
Y1678500D01*
X685500Y1692500D01*
X696000D01*
X685000Y1644000D02*
X695500D01*
X671500Y1657500D02*
X685000Y1644000D01*
X671500Y1657500D02*
Y1668500D01*
X720000Y1657750D02*
Y1668000D01*
X706250Y1644000D02*
X720000Y1657750D01*
X695500Y1644000D02*
X706250D01*
X780000Y1616000D02*
X790750D01*
X804500Y1629750D01*
Y1640000D01*
X756000Y1629500D02*
Y1640500D01*
Y1629500D02*
X769500Y1616000D01*
X780000D01*
X770000Y1664500D02*
X780500D01*
X756000Y1650500D02*
X770000Y1664500D01*
X756000Y1640500D02*
Y1650500D01*
X780500Y1664500D02*
X790250D01*
X804500Y1650250D01*
Y1640000D02*
Y1650250D01*
X1060434Y1568138D02*
X1273500D01*
X1327750Y1344000D02*
X1440500D01*
X1327750Y1306500D02*
Y1344000D01*
X1440500Y1294250D02*
Y1344000D01*
X1327706Y1422484D02*
X1433516D01*
X1440750Y1415250D01*
Y1347750D02*
Y1415250D01*
X1327706Y1347750D02*
Y1398380D01*
Y1422484D01*
Y1347750D02*
X1440750D01*
X925250Y837250D02*
Y867000D01*
X849260Y837250D02*
X925250D01*
X849260Y867000D02*
X925250D01*
X849260Y837250D02*
Y867000D01*
X942719Y1190090D02*
Y1203450D01*
Y1209800D02*
Y1223285D01*
X993519D01*
Y1190090D02*
Y1223285D01*
X942719Y1190090D02*
X993519D01*
X1045419Y1189790D02*
Y1203150D01*
Y1209500D02*
Y1222985D01*
X1096219D01*
Y1189790D02*
Y1222985D01*
X1045419Y1189790D02*
X1096219D01*
X1309029Y1229800D02*
X1322388D01*
X1328738D02*
X1342223D01*
Y1179000D02*
Y1229800D01*
X1309029Y1179000D02*
X1342223D01*
X1309029D02*
Y1229800D01*
X1233714Y1671000D02*
X1238714Y1666000D01*
X1228714D02*
X1233714Y1671000D01*
X1228714Y1666000D02*
X1238714D01*
X1228714Y1671000D02*
X1238714D01*
X1260000D02*
X1265000Y1666000D01*
X1255000D02*
X1260000Y1671000D01*
X1255000Y1666000D02*
X1265000D01*
X1255000Y1671000D02*
X1265000D01*
X1207429D02*
X1212429Y1666000D01*
X1202429D02*
X1207429Y1671000D01*
X1202429Y1666000D02*
X1212429D01*
X1202429Y1671000D02*
X1212429D01*
X1181143D02*
X1186143Y1666000D01*
X1176143D02*
X1181143Y1671000D01*
X1176143Y1666000D02*
X1186143D01*
X1176143Y1671000D02*
X1186143D01*
X1154857D02*
X1159857Y1666000D01*
X1149857D02*
X1154857Y1671000D01*
X1149857Y1666000D02*
X1159857D01*
X1149857Y1671000D02*
X1159857D01*
X1128571D02*
X1133571Y1666000D01*
X1123571D02*
X1128571Y1671000D01*
X1123571Y1666000D02*
X1133571D01*
X1123571Y1671000D02*
X1133571D01*
X1102000Y1671056D02*
X1107000Y1666056D01*
X1097000D02*
X1102000Y1671056D01*
X1097000Y1666056D02*
X1107000D01*
X1097000Y1671056D02*
X1107000D01*
X1075600Y1671250D02*
X1080600Y1666250D01*
X1070600D02*
X1075600Y1671250D01*
X1070600Y1666250D02*
X1080600D01*
X1070600Y1671250D02*
X1080600D01*
X1419750Y1164000D02*
Y1179235D01*
X1427368D01*
X1429907Y1176696D01*
Y1171618D01*
X1427368Y1169078D01*
X1419750D01*
X1434985Y1176696D02*
X1437524Y1179235D01*
X1442603D01*
X1445142Y1176696D01*
Y1174157D01*
X1442603Y1171618D01*
X1445142Y1169078D01*
Y1166539D01*
X1442603Y1164000D01*
X1437524D01*
X1434985Y1166539D01*
Y1169078D01*
X1437524Y1171618D01*
X1434985Y1174157D01*
Y1176696D01*
X1437524Y1171618D02*
X1442603D01*
X1434900Y1564187D02*
Y1556781D01*
X1436381Y1555300D01*
X1439344D01*
X1440825Y1556781D01*
Y1564187D01*
X1443787Y1555300D02*
X1446750D01*
X1445268D01*
Y1564187D01*
X1443787Y1562706D01*
X1457118Y1564187D02*
X1454155Y1562706D01*
X1451193Y1559743D01*
Y1556781D01*
X1452674Y1555300D01*
X1455637D01*
X1457118Y1556781D01*
Y1558262D01*
X1455637Y1559743D01*
X1451193D01*
D11*
X722530Y1216350D02*
G03*
X722530Y1216350I-900J0D01*
G01*
X844150Y873750D02*
G03*
X844150Y873750I-900J0D01*
G01*
D12*
X1313250Y920550D02*
G03*
X1313250Y920550I-1250J0D01*
G01*
X747250Y896000D02*
G03*
X747250Y896000I-1250J0D01*
G01*
X1111756Y951215D02*
G03*
X1111756Y951215I-1250J0D01*
G01*
D13*
X1107319Y977201D02*
G03*
X1107319Y977201I-3000J0D01*
G01*
D14*
X989800Y995250D02*
G03*
X989800Y995250I-800J0D01*
G01*
X935000Y1401200D02*
Y1518800D01*
X825000D02*
X935000D01*
X825000Y1401200D02*
Y1518800D01*
Y1401200D02*
X935000D01*
X1164356Y974180D02*
X1188398Y998222D01*
X1200419Y986201D01*
X1176377Y962160D02*
X1200419Y986201D01*
X1164356Y974180D02*
X1176377Y962160D01*
D15*
X1419800Y1185100D02*
X1445200D01*
X1419800D02*
Y1286700D01*
X1445200Y1185100D02*
Y1286700D01*
X1419800D02*
X1445200D01*
X677600Y1536350D02*
X702800D01*
X677600Y1386750D02*
X691350D01*
X702800D02*
Y1536350D01*
X691350Y1386750D02*
X702800D01*
X677600D02*
Y1536350D01*
X986700Y831900D02*
X1164500D01*
X986700Y882700D02*
X1164500D01*
X986700Y831900D02*
Y882700D01*
X1164500Y831900D02*
Y882700D01*
X1327000Y868000D02*
Y918000D01*
X1345000Y868000D02*
Y918000D01*
X1327000D02*
X1345000D01*
X1327000Y868000D02*
X1345000D01*
X748500Y914750D02*
X779500D01*
X748500Y904750D02*
X779500D01*
Y914750D01*
X748500Y904750D02*
Y914750D01*
X763250Y1069180D02*
X782500D01*
X786000Y966230D02*
Y1069230D01*
Y966230D02*
X854000D01*
Y1069230D01*
X786000D02*
X854000D01*
X1104319Y1141249D02*
X1193415Y1052154D01*
X1015224Y1052154D02*
X1104319Y963058D01*
X1015224Y1052154D02*
X1104319Y1141249D01*
Y963058D02*
X1193415Y1052154D01*
X1514348Y930082D02*
Y1595582D01*
X1463598Y930082D02*
Y1595582D01*
X1514398Y930082D02*
Y1595582D01*
X1463598D02*
X1514398D01*
X1463598Y930082D02*
X1514398D01*
X1514348Y1595582D02*
X1565548D01*
X1514348Y930082D02*
X1565548D01*
Y1595582D01*
X1565450Y930050D02*
Y1595550D01*
X1514250Y930050D02*
X1565450D01*
X1514250Y1595550D02*
X1565450D01*
X1463500Y930050D02*
X1514300D01*
X1463500Y1595550D02*
X1514300D01*
Y930050D02*
Y1595550D01*
X1463500Y930050D02*
Y1595550D01*
X1514250Y930050D02*
Y1595550D01*
X1123795Y1443834D02*
X1121981Y1443230D01*
X1120771Y1442020D01*
X1120167Y1440811D01*
X1119562Y1438393D01*
Y1436579D01*
X1120167Y1434160D01*
X1120771Y1432951D01*
X1121981Y1431742D01*
X1123795Y1431137D01*
X1125004D01*
X1126818Y1431742D01*
X1128027Y1432951D01*
X1128632Y1434160D01*
X1129236Y1436579D01*
Y1438393D01*
X1128632Y1440811D01*
X1128027Y1442020D01*
X1126818Y1443230D01*
X1125004Y1443834D01*
X1123795D01*
X1122585Y1443230D01*
X1121376Y1442020D01*
X1120771Y1440811D01*
X1120167Y1438393D01*
Y1436579D01*
X1120771Y1434160D01*
X1121376Y1432951D01*
X1122585Y1431742D01*
X1123795Y1431137D01*
X1125004D02*
X1126213Y1431742D01*
X1127422Y1432951D01*
X1128027Y1434160D01*
X1128632Y1436579D01*
Y1438393D01*
X1128027Y1440811D01*
X1127422Y1442020D01*
X1126213Y1443230D01*
X1125004Y1443834D01*
X1132804D02*
Y1431137D01*
X1133408Y1443834D02*
Y1431137D01*
X1130990Y1443834D02*
X1138245D01*
X1140059Y1443230D01*
X1140664Y1442625D01*
X1141269Y1441416D01*
Y1440206D01*
X1140664Y1438997D01*
X1140059Y1438393D01*
X1138245Y1437788D01*
Y1443834D02*
X1139455Y1443230D01*
X1140059Y1442625D01*
X1140664Y1441416D01*
Y1440206D01*
X1140059Y1438997D01*
X1139455Y1438393D01*
X1138245Y1437788D01*
X1133408D02*
X1138245D01*
X1140059Y1437183D01*
X1140664Y1436579D01*
X1141269Y1435369D01*
Y1433555D01*
X1140664Y1432346D01*
X1140059Y1431742D01*
X1138245Y1431137D01*
X1130990D01*
X1138245Y1437788D02*
X1139455Y1437183D01*
X1140059Y1436579D01*
X1140664Y1435369D01*
Y1433555D01*
X1140059Y1432346D01*
X1139455Y1431742D01*
X1138245Y1431137D01*
X1144775Y1443834D02*
Y1431137D01*
X1145380Y1443834D02*
Y1431137D01*
X1142962Y1443834D02*
X1149008D01*
X1150822Y1443230D01*
X1152031Y1442020D01*
X1152636Y1440811D01*
X1153240Y1438997D01*
Y1435974D01*
X1152636Y1434160D01*
X1152031Y1432951D01*
X1150822Y1431742D01*
X1149008Y1431137D01*
X1142962D01*
X1149008Y1443834D02*
X1150217Y1443230D01*
X1151426Y1442020D01*
X1152031Y1440811D01*
X1152636Y1438997D01*
Y1435974D01*
X1152031Y1434160D01*
X1151426Y1432951D01*
X1150217Y1431742D01*
X1149008Y1431137D01*
X1156747Y1443834D02*
Y1431137D01*
X1157352Y1443834D02*
Y1431137D01*
X1164607Y1443834D02*
Y1431137D01*
X1165212Y1443834D02*
Y1431137D01*
X1154933Y1443834D02*
X1159166D01*
X1162794D02*
X1167026D01*
X1157352Y1437788D02*
X1164607D01*
X1154933Y1431137D02*
X1159166D01*
X1162794D02*
X1167026D01*
X1180570Y1441416D02*
X1181174Y1440811D01*
X1180570Y1440206D01*
X1179965Y1440811D01*
Y1441416D01*
X1180570Y1442625D01*
X1181174Y1443230D01*
X1182988Y1443834D01*
X1185407D01*
X1187221Y1443230D01*
X1187825Y1442625D01*
X1188430Y1441416D01*
Y1440206D01*
X1187825Y1438997D01*
X1186011Y1437788D01*
X1182988Y1436579D01*
X1181779Y1435974D01*
X1180570Y1434765D01*
X1179965Y1432951D01*
Y1431137D01*
X1185407Y1443834D02*
X1186616Y1443230D01*
X1187221Y1442625D01*
X1187825Y1441416D01*
Y1440206D01*
X1187221Y1438997D01*
X1185407Y1437788D01*
X1182988Y1436579D01*
X1179965Y1432346D02*
X1180570Y1432951D01*
X1181779D01*
X1184802Y1431742D01*
X1186616D01*
X1187825Y1432346D01*
X1188430Y1432951D01*
Y1434160D01*
X1181779Y1432951D02*
X1184802Y1431137D01*
X1187221D01*
X1187825Y1431742D01*
X1188430Y1432951D01*
X1120016Y1421984D02*
X1120620Y1423797D01*
Y1420170D01*
X1120016Y1421984D01*
X1118807Y1423193D01*
X1116993Y1423797D01*
X1115179D01*
X1113365Y1423193D01*
X1112156Y1421984D01*
Y1420774D01*
X1112760Y1419565D01*
X1113365Y1418961D01*
X1114574Y1418356D01*
X1118202Y1417146D01*
X1119411Y1416542D01*
X1120620Y1415333D01*
X1112156Y1420774D02*
X1113365Y1419565D01*
X1114574Y1418961D01*
X1118202Y1417751D01*
X1119411Y1417146D01*
X1120016Y1416542D01*
X1120620Y1415333D01*
Y1412914D01*
X1119411Y1411705D01*
X1117597Y1411100D01*
X1115783D01*
X1113969Y1411705D01*
X1112760Y1412914D01*
X1112156Y1414728D01*
Y1411100D01*
X1112760Y1412914D01*
X1124309Y1419565D02*
Y1406868D01*
X1124913Y1419565D02*
Y1406868D01*
Y1417751D02*
X1126123Y1418961D01*
X1127332Y1419565D01*
X1128541D01*
X1130355Y1418961D01*
X1131564Y1417751D01*
X1132169Y1415937D01*
Y1414728D01*
X1131564Y1412914D01*
X1130355Y1411705D01*
X1128541Y1411100D01*
X1127332D01*
X1126123Y1411705D01*
X1124913Y1412914D01*
X1128541Y1419565D02*
X1129750Y1418961D01*
X1130960Y1417751D01*
X1131564Y1415937D01*
Y1414728D01*
X1130960Y1412914D01*
X1129750Y1411705D01*
X1128541Y1411100D01*
X1122495Y1419565D02*
X1124913D01*
X1122495Y1406868D02*
X1126727D01*
X1135132Y1418356D02*
Y1417751D01*
X1134527D01*
Y1418356D01*
X1135132Y1418961D01*
X1136341Y1419565D01*
X1138759D01*
X1139969Y1418961D01*
X1140573Y1418356D01*
X1141178Y1417146D01*
Y1412914D01*
X1141783Y1411705D01*
X1142387Y1411100D01*
X1140573Y1418356D02*
Y1412914D01*
X1141178Y1411705D01*
X1142387Y1411100D01*
X1142992D01*
X1140573Y1417146D02*
X1139969Y1416542D01*
X1136341Y1415937D01*
X1134527Y1415333D01*
X1133922Y1414123D01*
Y1412914D01*
X1134527Y1411705D01*
X1136341Y1411100D01*
X1138155D01*
X1139364Y1411705D01*
X1140573Y1412914D01*
X1136341Y1415937D02*
X1135132Y1415333D01*
X1134527Y1414123D01*
Y1412914D01*
X1135132Y1411705D01*
X1136341Y1411100D01*
X1152061Y1417751D02*
X1151457Y1417146D01*
X1152061Y1416542D01*
X1152666Y1417146D01*
Y1417751D01*
X1151457Y1418961D01*
X1150247Y1419565D01*
X1148434D01*
X1146620Y1418961D01*
X1145410Y1417751D01*
X1144806Y1415937D01*
Y1414728D01*
X1145410Y1412914D01*
X1146620Y1411705D01*
X1148434Y1411100D01*
X1149643D01*
X1151457Y1411705D01*
X1152666Y1412914D01*
X1148434Y1419565D02*
X1147224Y1418961D01*
X1146015Y1417751D01*
X1145410Y1415937D01*
Y1414728D01*
X1146015Y1412914D01*
X1147224Y1411705D01*
X1148434Y1411100D01*
X1155205Y1415937D02*
X1162461D01*
Y1417146D01*
X1161856Y1418356D01*
X1161252Y1418961D01*
X1160042Y1419565D01*
X1158229D01*
X1156415Y1418961D01*
X1155205Y1417751D01*
X1154601Y1415937D01*
Y1414728D01*
X1155205Y1412914D01*
X1156415Y1411705D01*
X1158229Y1411100D01*
X1159438D01*
X1161252Y1411705D01*
X1162461Y1412914D01*
X1161856Y1415937D02*
Y1417751D01*
X1161252Y1418961D01*
X1158229Y1419565D02*
X1157019Y1418961D01*
X1155810Y1417751D01*
X1155205Y1415937D01*
Y1414728D01*
X1155810Y1412914D01*
X1157019Y1411705D01*
X1158229Y1411100D01*
X1166210Y1423797D02*
Y1411100D01*
X1166814Y1423797D02*
Y1411100D01*
X1164396Y1423797D02*
X1168628D01*
X1164396Y1411100D02*
X1173465D01*
Y1414728D01*
X1172861Y1411100D01*
X1176488Y1418356D02*
Y1417751D01*
X1175884D01*
Y1418356D01*
X1176488Y1418961D01*
X1177698Y1419565D01*
X1180116D01*
X1181326Y1418961D01*
X1181930Y1418356D01*
X1182535Y1417146D01*
Y1412914D01*
X1183139Y1411705D01*
X1183744Y1411100D01*
X1181930Y1418356D02*
Y1412914D01*
X1182535Y1411705D01*
X1183744Y1411100D01*
X1184349D01*
X1181930Y1417146D02*
X1181326Y1416542D01*
X1177698Y1415937D01*
X1175884Y1415333D01*
X1175279Y1414123D01*
Y1412914D01*
X1175884Y1411705D01*
X1177698Y1411100D01*
X1179512D01*
X1180721Y1411705D01*
X1181930Y1412914D01*
X1177698Y1415937D02*
X1176488Y1415333D01*
X1175884Y1414123D01*
Y1412914D01*
X1176488Y1411705D01*
X1177698Y1411100D01*
X1187977Y1423797D02*
Y1411100D01*
X1188581Y1423797D02*
Y1411100D01*
Y1417751D02*
X1189790Y1418961D01*
X1191000Y1419565D01*
X1192209D01*
X1194023Y1418961D01*
X1195232Y1417751D01*
X1195837Y1415937D01*
Y1414728D01*
X1195232Y1412914D01*
X1194023Y1411705D01*
X1192209Y1411100D01*
X1191000D01*
X1189790Y1411705D01*
X1188581Y1412914D01*
X1192209Y1419565D02*
X1193418Y1418961D01*
X1194627Y1417751D01*
X1195232Y1415937D01*
Y1414728D01*
X1194627Y1412914D01*
X1193418Y1411705D01*
X1192209Y1411100D01*
X1186163Y1423797D02*
X1188581D01*
X1133590Y1399528D02*
Y1390459D01*
X1134194Y1388645D01*
X1135404Y1387436D01*
X1137217Y1386831D01*
X1138427D01*
X1140241Y1387436D01*
X1141450Y1388645D01*
X1142055Y1390459D01*
Y1399528D01*
X1134194D02*
Y1390459D01*
X1134799Y1388645D01*
X1136008Y1387436D01*
X1137217Y1386831D01*
X1131776Y1399528D02*
X1136008D01*
X1140241D02*
X1143868D01*
X1147194D02*
Y1386831D01*
X1147799Y1399528D02*
Y1386831D01*
X1151426Y1395901D02*
Y1391064D01*
X1145380Y1399528D02*
X1155054D01*
Y1395901D01*
X1154450Y1399528D01*
X1147799Y1393482D02*
X1151426D01*
X1145380Y1386831D02*
X1149613D01*
X1164668Y1397715D02*
X1165273Y1399528D01*
Y1395901D01*
X1164668Y1397715D01*
X1163459Y1398924D01*
X1161645Y1399528D01*
X1159831D01*
X1158017Y1398924D01*
X1156808Y1397715D01*
Y1396505D01*
X1157412Y1395296D01*
X1158017Y1394691D01*
X1159226Y1394087D01*
X1162854Y1392877D01*
X1164063Y1392273D01*
X1165273Y1391064D01*
X1156808Y1396505D02*
X1158017Y1395296D01*
X1159226Y1394691D01*
X1162854Y1393482D01*
X1164063Y1392877D01*
X1164668Y1392273D01*
X1165273Y1391064D01*
Y1388645D01*
X1164063Y1387436D01*
X1162249Y1386831D01*
X1160435D01*
X1158622Y1387436D01*
X1157412Y1388645D01*
X1156808Y1390459D01*
Y1386831D01*
X1157412Y1388645D01*
X1175612Y1397715D02*
X1176216Y1395901D01*
Y1399528D01*
X1175612Y1397715D01*
X1174402Y1398924D01*
X1172589Y1399528D01*
X1171379D01*
X1169565Y1398924D01*
X1168356Y1397715D01*
X1167751Y1396505D01*
X1167147Y1394691D01*
Y1391668D01*
X1167751Y1389854D01*
X1168356Y1388645D01*
X1169565Y1387436D01*
X1171379Y1386831D01*
X1172589D01*
X1174402Y1387436D01*
X1175612Y1388645D01*
X1176216Y1389854D01*
X1171379Y1399528D02*
X1170170Y1398924D01*
X1168961Y1397715D01*
X1168356Y1396505D01*
X1167751Y1394691D01*
Y1391668D01*
X1168356Y1389854D01*
X1168961Y1388645D01*
X1170170Y1387436D01*
X1171379Y1386831D01*
X1450152Y1211998D02*
X1448902Y1210749D01*
Y1208250D01*
X1450152Y1207000D01*
X1455150D01*
X1456400Y1208250D01*
Y1210749D01*
X1455150Y1211998D01*
X1452651D01*
Y1209499D01*
X1456400Y1214498D02*
X1448902D01*
X1456400Y1219496D01*
X1448902D01*
Y1221995D02*
X1456400D01*
Y1225744D01*
X1455150Y1226994D01*
X1450152D01*
X1448902Y1225744D01*
Y1221995D01*
X1571152Y1216298D02*
X1569902Y1215049D01*
Y1212550D01*
X1571152Y1211300D01*
X1576150D01*
X1577400Y1212550D01*
Y1215049D01*
X1576150Y1216298D01*
X1573651D01*
Y1213799D01*
X1577400Y1218798D02*
X1569902D01*
X1577400Y1223796D01*
X1569902D01*
Y1226295D02*
X1577400D01*
Y1230044D01*
X1576150Y1231294D01*
X1571152D01*
X1569902Y1230044D01*
Y1226295D01*
X1456800Y1017349D02*
X1449302D01*
X1453051Y1013600D01*
Y1018598D01*
X1449302Y1026096D02*
Y1021098D01*
X1453051D01*
X1451802Y1023597D01*
Y1024846D01*
X1453051Y1026096D01*
X1455550D01*
X1456800Y1024846D01*
Y1022347D01*
X1455550Y1021098D01*
X1577400Y1015949D02*
X1569902D01*
X1573651Y1012200D01*
Y1017198D01*
X1569902Y1024696D02*
X1571152Y1022197D01*
X1573651Y1019698D01*
X1576150D01*
X1577400Y1020947D01*
Y1023446D01*
X1576150Y1024696D01*
X1574901D01*
X1573651Y1023446D01*
Y1019698D01*
X1450552Y1089900D02*
X1449302Y1091150D01*
Y1093649D01*
X1450552Y1094898D01*
X1451802D01*
X1453051Y1093649D01*
Y1092399D01*
Y1093649D01*
X1454301Y1094898D01*
X1455550D01*
X1456800Y1093649D01*
Y1091150D01*
X1455550Y1089900D01*
Y1097398D02*
X1456800Y1098647D01*
Y1101146D01*
X1455550Y1102396D01*
X1450552D01*
X1449302Y1101146D01*
Y1098647D01*
X1450552Y1097398D01*
X1451802D01*
X1453051Y1098647D01*
Y1102396D01*
X1577400Y1091849D02*
X1569902D01*
X1573651Y1088100D01*
Y1093098D01*
X1571152Y1095598D02*
X1569902Y1096847D01*
Y1099346D01*
X1571152Y1100596D01*
X1576150D01*
X1577400Y1099346D01*
Y1096847D01*
X1576150Y1095598D01*
X1571152D01*
X1450552Y1191200D02*
X1449302Y1192450D01*
Y1194949D01*
X1450552Y1196198D01*
X1451802D01*
X1453051Y1194949D01*
Y1193699D01*
Y1194949D01*
X1454301Y1196198D01*
X1455550D01*
X1456800Y1194949D01*
Y1192450D01*
X1455550Y1191200D01*
X1456800Y1198698D02*
Y1201197D01*
Y1199947D01*
X1449302D01*
X1450552Y1198698D01*
X1571152Y1190500D02*
X1569902Y1191750D01*
Y1194249D01*
X1571152Y1195498D01*
X1572402D01*
X1573651Y1194249D01*
Y1192999D01*
Y1194249D01*
X1574901Y1195498D01*
X1576150D01*
X1577400Y1194249D01*
Y1191750D01*
X1576150Y1190500D01*
X1577400Y1202996D02*
Y1197998D01*
X1572402Y1202996D01*
X1571152D01*
X1569902Y1201746D01*
Y1199247D01*
X1571152Y1197998D01*
X1456800Y1298398D02*
Y1293400D01*
X1451802Y1298398D01*
X1450552D01*
X1449302Y1297149D01*
Y1294650D01*
X1450552Y1293400D01*
Y1300898D02*
X1449302Y1302147D01*
Y1304646D01*
X1450552Y1305896D01*
X1451802D01*
X1453051Y1304646D01*
Y1303397D01*
Y1304646D01*
X1454301Y1305896D01*
X1455550D01*
X1456800Y1304646D01*
Y1302147D01*
X1455550Y1300898D01*
X1577400Y1296698D02*
Y1291700D01*
X1572402Y1296698D01*
X1571152D01*
X1569902Y1295449D01*
Y1292950D01*
X1571152Y1291700D01*
X1577400Y1302946D02*
X1569902D01*
X1573651Y1299198D01*
Y1304196D01*
X1456800Y1394200D02*
Y1396699D01*
Y1395450D01*
X1449302D01*
X1450552Y1394200D01*
X1449302Y1405446D02*
Y1400448D01*
X1453051D01*
X1451802Y1402947D01*
Y1404197D01*
X1453051Y1405446D01*
X1455550D01*
X1456800Y1404197D01*
Y1401698D01*
X1455550Y1400448D01*
X1577400Y1394200D02*
Y1396699D01*
Y1395450D01*
X1569902D01*
X1571152Y1394200D01*
X1569902Y1405446D02*
X1571152Y1402947D01*
X1573651Y1400448D01*
X1576150D01*
X1577400Y1401698D01*
Y1404197D01*
X1576150Y1405446D01*
X1574901D01*
X1573651Y1404197D01*
Y1400448D01*
X1449302Y1501200D02*
Y1506198D01*
X1450552D01*
X1455550Y1501200D01*
X1456800D01*
X1571152Y1498800D02*
X1569902Y1500050D01*
Y1502549D01*
X1571152Y1503798D01*
X1572402D01*
X1573651Y1502549D01*
X1574901Y1503798D01*
X1576150D01*
X1577400Y1502549D01*
Y1500050D01*
X1576150Y1498800D01*
X1574901D01*
X1573651Y1500050D01*
X1572402Y1498800D01*
X1571152D01*
X1573651Y1500050D02*
Y1502549D01*
D16*
X677616Y1304600D02*
X703016D01*
X677616D02*
Y1355400D01*
X703016Y1304600D02*
Y1355400D01*
X677616D02*
X703016D01*
X1194800Y831884D02*
X1220200D01*
X1194800D02*
Y882684D01*
X1220200Y831884D02*
Y882684D01*
X1194800D02*
X1220200D01*
X1148297Y897470D02*
X1158457D01*
X1148297D02*
Y926680D01*
X1158457D01*
Y897470D02*
Y926680D01*
X1169500Y838500D02*
X1173732D01*
X1171616D01*
Y851196D01*
X1169500Y849080D01*
X1180080D02*
X1182196Y851196D01*
X1186428D01*
X1188544Y849080D01*
Y846964D01*
X1186428Y844848D01*
X1184312D01*
X1186428D01*
X1188544Y842732D01*
Y840616D01*
X1186428Y838500D01*
X1182196D01*
X1180080Y840616D01*
X1169500Y865250D02*
X1173732D01*
X1171616D01*
Y877946D01*
X1169500Y875830D01*
X1186428Y865250D02*
Y877946D01*
X1180080Y871598D01*
X1188544D01*
X973000Y838500D02*
X977232D01*
X975116D01*
Y851196D01*
X973000Y849080D01*
X978964Y863500D02*
X970500D01*
X978964Y871964D01*
Y874080D01*
X976848Y876196D01*
X972616D01*
X970500Y874080D01*
X1525750Y1600000D02*
Y1602499D01*
Y1601250D01*
X1518252D01*
X1519502Y1600000D01*
X1577000Y1581598D02*
Y1576600D01*
X1572002Y1581598D01*
X1570752D01*
X1569502Y1580349D01*
Y1577850D01*
X1570752Y1576600D01*
X1507100Y1604398D02*
Y1599400D01*
X1502102Y1604398D01*
X1500852D01*
X1499602Y1603149D01*
Y1600650D01*
X1500852Y1599400D01*
X1456600Y1578500D02*
Y1580999D01*
Y1579750D01*
X1449102D01*
X1450352Y1578500D01*
X1569102Y941398D02*
Y936400D01*
X1572851D01*
X1571602Y938899D01*
Y940149D01*
X1572851Y941398D01*
X1575350D01*
X1576600Y940149D01*
Y937650D01*
X1575350Y936400D01*
X1576600Y948896D02*
Y943898D01*
X1571602Y948896D01*
X1570352D01*
X1569102Y947646D01*
Y945147D01*
X1570352Y943898D01*
X1523202Y919998D02*
Y915000D01*
X1526951D01*
X1525702Y917499D01*
Y918749D01*
X1526951Y919998D01*
X1529450D01*
X1530700Y918749D01*
Y916250D01*
X1529450Y915000D01*
X1530700Y922498D02*
Y924997D01*
Y923747D01*
X1523202D01*
X1524452Y922498D01*
X1452102Y942598D02*
Y937600D01*
X1455851D01*
X1454602Y940099D01*
Y941349D01*
X1455851Y942598D01*
X1458350D01*
X1459600Y941349D01*
Y938850D01*
X1458350Y937600D01*
X1459600Y945098D02*
Y947597D01*
Y946347D01*
X1452102D01*
X1453352Y945098D01*
X1499702Y918098D02*
Y913100D01*
X1503451D01*
X1502202Y915599D01*
Y916849D01*
X1503451Y918098D01*
X1505950D01*
X1507200Y916849D01*
Y914350D01*
X1505950Y913100D01*
X1507200Y925596D02*
Y920598D01*
X1502202Y925596D01*
X1500952D01*
X1499702Y924346D01*
Y921847D01*
X1500952Y920598D01*
X1515500Y1613998D02*
Y1606500D01*
Y1610249D01*
X1520498D01*
Y1613998D01*
Y1606500D01*
X1527996D02*
X1522998D01*
X1527996Y1611498D01*
Y1612748D01*
X1526746Y1613998D01*
X1524247D01*
X1522998Y1612748D01*
X1464250Y1609748D02*
Y1602250D01*
Y1605999D01*
X1469248D01*
Y1609748D01*
Y1602250D01*
X1471748D02*
X1474247D01*
X1472997D01*
Y1609748D01*
X1471748Y1608498D01*
D17*
X1269573Y1385627D02*
X1269930D01*
X1226685D02*
X1227042D01*
X1269335Y1385746D02*
X1270169D01*
X1226447D02*
X1227281D01*
X1269216Y1385865D02*
X1270288D01*
X1226328D02*
X1227519D01*
X1268977Y1385985D02*
X1270407D01*
X1226208D02*
X1227638D01*
X1268858Y1386104D02*
X1270526D01*
X1226089D02*
X1227757D01*
X1268620Y1386223D02*
X1270645D01*
X1225970D02*
X1227995D01*
X1268501Y1386342D02*
X1270764D01*
X1225851D02*
X1228115D01*
X1268263Y1386461D02*
X1270884D01*
X1225732D02*
X1228353D01*
X1268143Y1386580D02*
X1271003D01*
X1225613D02*
X1228472D01*
X1267905Y1386699D02*
X1271122D01*
X1225494D02*
X1228710D01*
X1267786Y1386819D02*
X1271241D01*
X1225375D02*
X1228829D01*
X1267667Y1386938D02*
X1271360D01*
X1225255D02*
X1229068D01*
X1267429Y1387057D02*
X1271479D01*
X1225136D02*
X1229187D01*
X1267310Y1387176D02*
X1271598D01*
X1225017D02*
X1229425D01*
X1267071Y1387295D02*
X1271718D01*
X1224898D02*
X1229544D01*
X1266952Y1387414D02*
X1271837D01*
X1224779D02*
X1229782D01*
X1266714Y1387533D02*
X1271956D01*
X1224660D02*
X1229902D01*
X1266595Y1387652D02*
X1272075D01*
X1224541D02*
X1230021D01*
X1266357Y1387772D02*
X1272194D01*
X1224421D02*
X1230259D01*
X1266237Y1387891D02*
X1272313D01*
X1224302D02*
X1230378D01*
X1265999Y1388010D02*
X1272432D01*
X1224183D02*
X1230616D01*
X1265880Y1388129D02*
X1272551D01*
X1224064D02*
X1230735D01*
X1265761Y1388248D02*
X1272671D01*
X1223945D02*
X1230974D01*
X1265523Y1388367D02*
X1272790D01*
X1223826D02*
X1231093D01*
X1265403Y1388486D02*
X1272909D01*
X1223707D02*
X1231331D01*
X1265165Y1388606D02*
X1273028D01*
X1223587D02*
X1231450D01*
X1265046Y1388725D02*
X1273147D01*
X1223468D02*
X1231689D01*
X1264808Y1388844D02*
X1273266D01*
X1258494D02*
X1259089D01*
X1237526D02*
X1238122D01*
X1223349D02*
X1231808D01*
X1264689Y1388963D02*
X1273385D01*
X1258374D02*
X1259328D01*
X1237288D02*
X1238241D01*
X1223230D02*
X1231927D01*
X1264450Y1389082D02*
X1273504D01*
X1258374D02*
X1259566D01*
X1237169D02*
X1238241D01*
X1223111D02*
X1232165D01*
X1264331Y1389201D02*
X1273624D01*
X1258255D02*
X1259804D01*
X1236930D02*
X1238360D01*
X1222992D02*
X1232284D01*
X1264093Y1389320D02*
X1273743D01*
X1258255D02*
X1259923D01*
X1236692D02*
X1238360D01*
X1222873D02*
X1232523D01*
X1263974Y1389440D02*
X1273862D01*
X1258255D02*
X1260162D01*
X1236454D02*
X1238479D01*
X1222754D02*
X1232642D01*
X1263855Y1389559D02*
X1273981D01*
X1258136D02*
X1260400D01*
X1236216D02*
X1238479D01*
X1222634D02*
X1232880D01*
X1263616Y1389678D02*
X1274100D01*
X1258136D02*
X1260638D01*
X1235977D02*
X1238598D01*
X1222515D02*
X1232999D01*
X1263497Y1389797D02*
X1274219D01*
X1258017D02*
X1260876D01*
X1235739D02*
X1238598D01*
X1222396D02*
X1233237D01*
X1263259Y1389916D02*
X1274339D01*
X1258017D02*
X1261115D01*
X1235501D02*
X1238598D01*
X1222277D02*
X1233356D01*
X1263140Y1390035D02*
X1274458D01*
X1257898D02*
X1261353D01*
X1235382D02*
X1238717D01*
X1222158D02*
X1233595D01*
X1262902Y1390154D02*
X1274577D01*
X1257898D02*
X1261591D01*
X1235144D02*
X1238717D01*
X1222039D02*
X1233714D01*
X1262783Y1390273D02*
X1274696D01*
X1257898D02*
X1261710D01*
X1234905D02*
X1238837D01*
X1221920D02*
X1233833D01*
X1262544Y1390393D02*
X1274815D01*
X1257779D02*
X1261949D01*
X1234667D02*
X1238837D01*
X1221801D02*
X1234071D01*
X1257779Y1390512D02*
X1274934D01*
X1221681D02*
X1238837D01*
X1257660Y1390631D02*
X1275053D01*
X1221562D02*
X1238956D01*
X1257660Y1390750D02*
X1275172D01*
X1221443D02*
X1238956D01*
X1257660Y1390869D02*
X1275292D01*
X1221324D02*
X1239075D01*
X1257541Y1390988D02*
X1275411D01*
X1221205D02*
X1239075D01*
X1257541Y1391107D02*
X1275530D01*
X1221086D02*
X1239075D01*
X1257421Y1391227D02*
X1275649D01*
X1220966D02*
X1239194D01*
X1257421Y1391346D02*
X1275768D01*
X1220847D02*
X1239194D01*
X1257421Y1391465D02*
X1275887D01*
X1220728D02*
X1239313D01*
X1257302Y1391584D02*
X1276006D01*
X1220609D02*
X1239313D01*
X1257302Y1391703D02*
X1276125D01*
X1220490D02*
X1239432D01*
X1257183Y1391822D02*
X1276245D01*
X1220371D02*
X1239432D01*
X1257183Y1391941D02*
X1276364D01*
X1220252D02*
X1239432D01*
X1257064Y1392060D02*
X1276483D01*
X1220133D02*
X1239551D01*
X1257064Y1392180D02*
X1276602D01*
X1220133D02*
X1239551D01*
X1257064Y1392299D02*
X1276602D01*
X1220014D02*
X1239670D01*
X1256945Y1392418D02*
X1276602D01*
X1220014D02*
X1239670D01*
X1256945Y1392537D02*
X1276602D01*
X1220014D02*
X1239670D01*
X1256826Y1392656D02*
X1276602D01*
X1220133D02*
X1239790D01*
X1256826Y1392775D02*
X1276483D01*
X1220133D02*
X1239790D01*
X1256826Y1392894D02*
X1276364D01*
X1220252D02*
X1239909D01*
X1256707Y1393013D02*
X1276364D01*
X1220252D02*
X1239909D01*
X1256707Y1393133D02*
X1276245D01*
X1220371D02*
X1240028D01*
X1256588Y1393252D02*
X1276125D01*
X1220490D02*
X1240028D01*
X1256588Y1393371D02*
X1276125D01*
X1220609D02*
X1240028D01*
X1256468Y1393490D02*
X1276006D01*
X1220609D02*
X1240147D01*
X1256468Y1393609D02*
X1275887D01*
X1220728D02*
X1240147D01*
X1256468Y1393728D02*
X1275887D01*
X1220847D02*
X1240266D01*
X1256349Y1393847D02*
X1275768D01*
X1220847D02*
X1240266D01*
X1256349Y1393967D02*
X1275649D01*
X1220966D02*
X1240266D01*
X1256230Y1394086D02*
X1275649D01*
X1221086D02*
X1240385D01*
X1256230Y1394205D02*
X1275530D01*
X1221086D02*
X1240385D01*
X1256230Y1394324D02*
X1275411D01*
X1221205D02*
X1240505D01*
X1256111Y1394443D02*
X1275411D01*
X1221324D02*
X1240505D01*
X1256111Y1394562D02*
X1275292D01*
X1221324D02*
X1240505D01*
X1255992Y1394681D02*
X1275172D01*
X1221443D02*
X1240624D01*
X1255992Y1394801D02*
X1275053D01*
X1221562D02*
X1240624D01*
X1255992Y1394920D02*
X1275053D01*
X1221562D02*
X1240743D01*
X1255873Y1395039D02*
X1274934D01*
X1221681D02*
X1240743D01*
X1255873Y1395158D02*
X1274815D01*
X1221801D02*
X1240862D01*
X1255754Y1395277D02*
X1274815D01*
X1221920D02*
X1240862D01*
X1255754Y1395396D02*
X1274696D01*
X1221920D02*
X1240862D01*
X1255635Y1395515D02*
X1274577D01*
X1222039D02*
X1240981D01*
X1255635Y1395634D02*
X1274577D01*
X1222158D02*
X1240981D01*
X1255635Y1395754D02*
X1274458D01*
X1222158D02*
X1241100D01*
X1255515Y1395873D02*
X1274339D01*
X1222277D02*
X1241100D01*
X1255515Y1395992D02*
X1274339D01*
X1222396D02*
X1241100D01*
X1255396Y1396111D02*
X1274219D01*
X1222396D02*
X1241219D01*
X1255396Y1396230D02*
X1274100D01*
X1222515D02*
X1241219D01*
X1255396Y1396349D02*
X1274100D01*
X1222634D02*
X1241338D01*
X1255277Y1396468D02*
X1273981D01*
X1222634D02*
X1241338D01*
X1255277Y1396588D02*
X1273862D01*
X1222754D02*
X1241458D01*
X1255158Y1396707D02*
X1273862D01*
X1222873D02*
X1241458D01*
X1255158Y1396826D02*
X1273743D01*
X1222873D02*
X1241458D01*
X1255039Y1396945D02*
X1273624D01*
X1222992D02*
X1241577D01*
X1255039Y1397064D02*
X1273504D01*
X1223111D02*
X1241577D01*
X1255039Y1397183D02*
X1273504D01*
X1223111D02*
X1241696D01*
X1254920Y1397302D02*
X1273385D01*
X1223230D02*
X1241696D01*
X1254920Y1397422D02*
X1273266D01*
X1223349D02*
X1241696D01*
X1254800Y1397541D02*
X1273266D01*
X1223468D02*
X1241815D01*
X1254800Y1397660D02*
X1273147D01*
X1223468D02*
X1241815D01*
X1254800Y1397779D02*
X1273028D01*
X1223587D02*
X1241934D01*
X1254681Y1397898D02*
X1273028D01*
X1223707D02*
X1241934D01*
X1254681Y1398017D02*
X1272909D01*
X1223707D02*
X1241934D01*
X1254562Y1398136D02*
X1272790D01*
X1223826D02*
X1242053D01*
X1254562Y1398255D02*
X1272790D01*
X1223945D02*
X1242053D01*
X1254562Y1398374D02*
X1272671D01*
X1223945D02*
X1242172D01*
X1254443Y1398494D02*
X1272551D01*
X1224064D02*
X1242172D01*
X1254443Y1398613D02*
X1272551D01*
X1224183D02*
X1242291D01*
X1254324Y1398732D02*
X1272432D01*
X1224183D02*
X1242291D01*
X1254324Y1398851D02*
X1272313D01*
X1224302D02*
X1242291D01*
X1254205Y1398970D02*
X1272194D01*
X1224421D02*
X1242411D01*
X1254205Y1399089D02*
X1272194D01*
X1224421D02*
X1242411D01*
X1254205Y1399209D02*
X1272075D01*
X1224541D02*
X1242530D01*
X1254086Y1399328D02*
X1271956D01*
X1224660D02*
X1242530D01*
X1254086Y1399447D02*
X1271956D01*
X1224779D02*
X1242530D01*
X1253967Y1399566D02*
X1271837D01*
X1224779D02*
X1242649D01*
X1253967Y1399685D02*
X1271718D01*
X1224898D02*
X1242649D01*
X1253967Y1399804D02*
X1271718D01*
X1225017D02*
X1242768D01*
X1253848Y1399923D02*
X1271598D01*
X1225017D02*
X1242768D01*
X1253848Y1400042D02*
X1271598D01*
X1225017D02*
X1242887D01*
X1253728Y1400161D02*
X1271598D01*
X1225017D02*
X1242887D01*
X1253728Y1400281D02*
X1271718D01*
X1225017D02*
X1242887D01*
X1253609Y1400400D02*
X1271718D01*
X1224898D02*
X1243006D01*
X1253609Y1400519D02*
X1271718D01*
X1224898D02*
X1243006D01*
X1253609Y1400638D02*
X1271837D01*
X1224898D02*
X1243125D01*
X1253490Y1400757D02*
X1271837D01*
X1224779D02*
X1243125D01*
X1253490Y1400876D02*
X1271956D01*
X1224779D02*
X1243125D01*
X1253371Y1400995D02*
X1271956D01*
X1224660D02*
X1243245D01*
X1253371Y1401115D02*
X1271956D01*
X1224660D02*
X1243245D01*
X1253371Y1401234D02*
X1272075D01*
X1224660D02*
X1243364D01*
X1253252Y1401353D02*
X1272075D01*
X1224541D02*
X1243364D01*
X1253252Y1401472D02*
X1272194D01*
X1224541D02*
X1243364D01*
X1253133Y1401591D02*
X1272194D01*
X1224421D02*
X1243483D01*
X1253133Y1401710D02*
X1272194D01*
X1224421D02*
X1243483D01*
X1253133Y1401829D02*
X1272313D01*
X1224421D02*
X1243602D01*
X1253014Y1401949D02*
X1272313D01*
X1224302D02*
X1243602D01*
X1253014Y1402068D02*
X1272432D01*
X1224302D02*
X1243721D01*
X1252894Y1402187D02*
X1272432D01*
X1224183D02*
X1243721D01*
X1252894Y1402306D02*
X1272432D01*
X1224183D02*
X1243721D01*
X1252775Y1402425D02*
X1272551D01*
X1224183D02*
X1243840D01*
X1252775Y1402544D02*
X1272551D01*
X1224064D02*
X1243840D01*
X1252775Y1402663D02*
X1272671D01*
X1224064D02*
X1243959D01*
X1252656Y1402782D02*
X1272671D01*
X1223945D02*
X1243959D01*
X1252656Y1402902D02*
X1272671D01*
X1223945D02*
X1243959D01*
X1252537Y1403021D02*
X1272790D01*
X1223945D02*
X1244079D01*
X1252537Y1403140D02*
X1272790D01*
X1223826D02*
X1244079D01*
X1252537Y1403259D02*
X1272909D01*
X1223826D02*
X1244198D01*
X1252418Y1403378D02*
X1272909D01*
X1223707D02*
X1244198D01*
X1252418Y1403497D02*
X1272909D01*
X1223707D02*
X1244317D01*
X1252299Y1403616D02*
X1273028D01*
X1223707D02*
X1244317D01*
X1252299Y1403736D02*
X1273028D01*
X1223587D02*
X1244317D01*
X1252180Y1403855D02*
X1273147D01*
X1223587D02*
X1244436D01*
X1252180Y1403974D02*
X1273147D01*
X1223468D02*
X1244436D01*
X1252180Y1404093D02*
X1273147D01*
X1223468D02*
X1244555D01*
X1252060Y1404212D02*
X1273266D01*
X1223468D02*
X1244555D01*
X1252060Y1404331D02*
X1273266D01*
X1223349D02*
X1244555D01*
X1252180Y1404450D02*
X1273385D01*
X1223349D02*
X1244555D01*
X1252180Y1404570D02*
X1273385D01*
X1223230D02*
X1244436D01*
X1252299Y1404689D02*
X1273385D01*
X1223230D02*
X1244436D01*
X1252418Y1404808D02*
X1273504D01*
X1223230D02*
X1244198D01*
X1252656Y1404927D02*
X1273504D01*
X1223111D02*
X1244079D01*
X1252775Y1405046D02*
X1273624D01*
X1223111D02*
X1243840D01*
X1253014Y1405165D02*
X1273624D01*
X1222992D02*
X1243602D01*
X1253133Y1405284D02*
X1273624D01*
X1222992D02*
X1243483D01*
X1253371Y1405403D02*
X1273743D01*
X1222992D02*
X1243245D01*
X1253490Y1405523D02*
X1273743D01*
X1222873D02*
X1243125D01*
X1253609Y1405642D02*
X1273862D01*
X1222873D02*
X1243006D01*
X1253848Y1405761D02*
X1273862D01*
X1222754D02*
X1242768D01*
X1253967Y1405880D02*
X1273862D01*
X1222754D02*
X1242649D01*
X1254205Y1405999D02*
X1273981D01*
X1222754D02*
X1242530D01*
X1254324Y1406118D02*
X1273981D01*
X1222634D02*
X1242291D01*
X1254443Y1406237D02*
X1274100D01*
X1222634D02*
X1242172D01*
X1254562Y1406357D02*
X1274100D01*
X1222515D02*
X1242053D01*
X1254800Y1406476D02*
X1274100D01*
X1222515D02*
X1241934D01*
X1254920Y1406595D02*
X1274219D01*
X1222515D02*
X1241815D01*
X1255039Y1406714D02*
X1274219D01*
X1222396D02*
X1241577D01*
X1255158Y1406833D02*
X1274339D01*
X1222396D02*
X1241458D01*
X1255277Y1406952D02*
X1274339D01*
X1222277D02*
X1241338D01*
X1255396Y1407071D02*
X1274458D01*
X1222277D02*
X1241219D01*
X1255515Y1407190D02*
X1274577D01*
X1222158D02*
X1241100D01*
X1255635Y1407310D02*
X1274696D01*
X1221920D02*
X1241100D01*
X1255754Y1407429D02*
X1275292D01*
X1221324D02*
X1240981D01*
X1255754Y1407548D02*
X1276006D01*
X1220609D02*
X1240862D01*
X1255873Y1407667D02*
X1276602D01*
X1220014D02*
X1240743D01*
X1255992Y1407786D02*
X1277317D01*
X1219418D02*
X1240624D01*
X1256111Y1407905D02*
X1277913D01*
X1218703D02*
X1240505D01*
X1256230Y1408024D02*
X1278508D01*
X1218107D02*
X1240505D01*
X1256230Y1408143D02*
X1279223D01*
X1217512D02*
X1240385D01*
X1256349Y1408263D02*
X1279819D01*
X1216797D02*
X1240266D01*
X1256468Y1408382D02*
X1280414D01*
X1216201D02*
X1240266D01*
X1256468Y1408501D02*
X1281129D01*
X1215486D02*
X1240147D01*
X1256588Y1408620D02*
X1281725D01*
X1214891D02*
X1240028D01*
X1256707Y1408739D02*
X1282440D01*
X1214295D02*
X1240028D01*
X1256707Y1408858D02*
X1283035D01*
X1213580D02*
X1239909D01*
X1256826Y1408977D02*
X1283393D01*
X1213223D02*
X1239790D01*
X1256826Y1409097D02*
X1283512D01*
X1213104D02*
X1239790D01*
X1256945Y1409216D02*
X1283631D01*
X1212985D02*
X1239670D01*
X1256945Y1409335D02*
X1283631D01*
X1212985D02*
X1239670D01*
X1257064Y1409454D02*
X1283631D01*
X1212985D02*
X1239551D01*
X1257064Y1409573D02*
X1283631D01*
X1212985D02*
X1239551D01*
X1257183Y1409692D02*
X1283631D01*
X1212985D02*
X1239432D01*
X1257183Y1409811D02*
X1283631D01*
X1212985D02*
X1239432D01*
X1257302Y1409931D02*
X1283631D01*
X1212985D02*
X1239313D01*
X1257302Y1410050D02*
X1283631D01*
X1212985D02*
X1239313D01*
X1257421Y1410169D02*
X1283631D01*
X1212985D02*
X1239313D01*
X1257421Y1410288D02*
X1283631D01*
X1212985D02*
X1239194D01*
X1257541Y1410407D02*
X1283631D01*
X1212985D02*
X1239194D01*
X1257541Y1410526D02*
X1283631D01*
X1212985D02*
X1239075D01*
X1257541Y1410645D02*
X1283631D01*
X1212985D02*
X1239075D01*
X1257660Y1410764D02*
X1283631D01*
X1212985D02*
X1239075D01*
X1257660Y1410884D02*
X1283631D01*
X1212985D02*
X1238956D01*
X1257660Y1411003D02*
X1283631D01*
X1212985D02*
X1238956D01*
X1257779Y1411122D02*
X1283631D01*
X1212985D02*
X1238956D01*
X1257779Y1411241D02*
X1283631D01*
X1212985D02*
X1238837D01*
X1257779Y1411360D02*
X1283631D01*
X1212985D02*
X1238837D01*
X1257779Y1411479D02*
X1283631D01*
X1212985D02*
X1238837D01*
X1257898Y1411598D02*
X1283631D01*
X1212985D02*
X1238837D01*
X1257898Y1411718D02*
X1283631D01*
X1212985D02*
X1238717D01*
X1257898Y1411837D02*
X1283631D01*
X1212985D02*
X1238717D01*
X1257898Y1411956D02*
X1283631D01*
X1212985D02*
X1238717D01*
X1257898Y1412075D02*
X1283631D01*
X1212985D02*
X1238717D01*
X1258017Y1412194D02*
X1283631D01*
X1212985D02*
X1238717D01*
X1258017Y1412313D02*
X1283631D01*
X1212985D02*
X1238598D01*
X1258017Y1412432D02*
X1283631D01*
X1212985D02*
X1238598D01*
X1258017Y1412552D02*
X1283631D01*
X1212985D02*
X1238598D01*
X1258017Y1412671D02*
X1283631D01*
X1212985D02*
X1238598D01*
X1258017Y1412790D02*
X1283631D01*
X1212985D02*
X1238598D01*
X1258017Y1412909D02*
X1283631D01*
X1212985D02*
X1238598D01*
X1258136Y1413028D02*
X1283631D01*
X1212985D02*
X1238598D01*
X1258136Y1413147D02*
X1283631D01*
X1212985D02*
X1238598D01*
X1258136Y1413266D02*
X1283631D01*
X1212985D02*
X1238598D01*
X1258136Y1413385D02*
X1283631D01*
X1212985D02*
X1238598D01*
X1258136Y1413504D02*
X1283631D01*
X1212985D02*
X1238479D01*
X1258136Y1413624D02*
X1283631D01*
X1212985D02*
X1238479D01*
X1258136Y1413743D02*
X1283631D01*
X1212985D02*
X1238479D01*
X1258136Y1413862D02*
X1283631D01*
X1212985D02*
X1238479D01*
X1258136Y1413981D02*
X1283631D01*
X1212985D02*
X1238479D01*
X1258136Y1414100D02*
X1283631D01*
X1212985D02*
X1238479D01*
X1258136Y1414219D02*
X1283631D01*
X1212985D02*
X1238598D01*
X1258136Y1414338D02*
X1283631D01*
X1212985D02*
X1238598D01*
X1258136Y1414458D02*
X1283631D01*
X1212985D02*
X1238598D01*
X1258136Y1414577D02*
X1283631D01*
X1212985D02*
X1238598D01*
X1258017Y1414696D02*
X1283631D01*
X1212985D02*
X1238598D01*
X1258017Y1414815D02*
X1283631D01*
X1212985D02*
X1238598D01*
X1258017Y1414934D02*
X1283631D01*
X1212985D02*
X1238598D01*
X1258017Y1415053D02*
X1283631D01*
X1212985D02*
X1238598D01*
X1258017Y1415172D02*
X1283631D01*
X1212985D02*
X1238598D01*
X1258017Y1415291D02*
X1283631D01*
X1212985D02*
X1238598D01*
X1258017Y1415411D02*
X1283631D01*
X1212985D02*
X1238717D01*
X1257898Y1415530D02*
X1283631D01*
X1212985D02*
X1238717D01*
X1257898Y1415649D02*
X1283631D01*
X1212985D02*
X1238717D01*
X1257898Y1415768D02*
X1283631D01*
X1212985D02*
X1238717D01*
X1257898Y1415887D02*
X1283631D01*
X1212985D02*
X1238717D01*
X1257898Y1416006D02*
X1283631D01*
X1212985D02*
X1238837D01*
X1257779Y1416125D02*
X1283631D01*
X1212985D02*
X1238837D01*
X1257779Y1416245D02*
X1283631D01*
X1212985D02*
X1238837D01*
X1257779Y1416364D02*
X1283631D01*
X1212985D02*
X1238837D01*
X1257779Y1416483D02*
X1283631D01*
X1212985D02*
X1238956D01*
X1257660Y1416602D02*
X1283631D01*
X1212985D02*
X1238956D01*
X1257660Y1416721D02*
X1283631D01*
X1212985D02*
X1238956D01*
X1257660Y1416840D02*
X1283631D01*
X1212985D02*
X1239075D01*
X1257541Y1416959D02*
X1283631D01*
X1212985D02*
X1239075D01*
X1257541Y1417079D02*
X1283631D01*
X1212985D02*
X1239075D01*
X1257541Y1417198D02*
X1283631D01*
X1212985D02*
X1239194D01*
X1257421Y1417317D02*
X1283631D01*
X1212985D02*
X1239194D01*
X1257421Y1417436D02*
X1283631D01*
X1212985D02*
X1239194D01*
X1257302Y1417555D02*
X1283631D01*
X1212985D02*
X1239313D01*
X1257302Y1417674D02*
X1283631D01*
X1212985D02*
X1239313D01*
X1257302Y1417793D02*
X1283631D01*
X1212985D02*
X1239432D01*
X1257183Y1417912D02*
X1283631D01*
X1212985D02*
X1239432D01*
X1257183Y1418032D02*
X1283631D01*
X1212985D02*
X1239551D01*
X1257064Y1418151D02*
X1283631D01*
X1212985D02*
X1239551D01*
X1257064Y1418270D02*
X1283631D01*
X1212985D02*
X1239670D01*
X1256945Y1418389D02*
X1283631D01*
X1212985D02*
X1239670D01*
X1256945Y1418508D02*
X1283631D01*
X1212985D02*
X1239790D01*
X1256826Y1418627D02*
X1283512D01*
X1213104D02*
X1239790D01*
X1256707Y1418746D02*
X1283512D01*
X1213223D02*
X1239909D01*
X1256707Y1418866D02*
X1283154D01*
X1213461D02*
X1239909D01*
X1256588Y1418985D02*
X1282559D01*
X1214057D02*
X1240028D01*
X1256588Y1419104D02*
X1281844D01*
X1214772D02*
X1240147D01*
X1256468Y1419223D02*
X1281248D01*
X1215367D02*
X1240147D01*
X1256349Y1419342D02*
X1280653D01*
X1216082D02*
X1240266D01*
X1256349Y1419461D02*
X1279938D01*
X1216678D02*
X1240385D01*
X1256230Y1419580D02*
X1279342D01*
X1217273D02*
X1240385D01*
X1256111Y1419700D02*
X1278746D01*
X1217988D02*
X1240505D01*
X1255992Y1419819D02*
X1278032D01*
X1218584D02*
X1240624D01*
X1255992Y1419938D02*
X1277436D01*
X1219180D02*
X1240743D01*
X1255873Y1420057D02*
X1276721D01*
X1219894D02*
X1240743D01*
X1255754Y1420176D02*
X1276125D01*
X1220490D02*
X1240862D01*
X1255635Y1420295D02*
X1275530D01*
X1221205D02*
X1240981D01*
X1255515Y1420414D02*
X1274815D01*
X1221801D02*
X1241100D01*
X1255396Y1420533D02*
X1274458D01*
X1222277D02*
X1241219D01*
X1255277Y1420653D02*
X1274219D01*
X1222396D02*
X1241338D01*
X1255158Y1420772D02*
X1274100D01*
X1222515D02*
X1241458D01*
X1255039Y1420891D02*
X1274100D01*
X1222515D02*
X1241577D01*
X1254920Y1421010D02*
X1273981D01*
X1222634D02*
X1241696D01*
X1254800Y1421129D02*
X1273981D01*
X1222634D02*
X1241815D01*
X1254681Y1421248D02*
X1273981D01*
X1222754D02*
X1241934D01*
X1254562Y1421367D02*
X1273862D01*
X1222754D02*
X1242172D01*
X1254443Y1421487D02*
X1273862D01*
X1222873D02*
X1242291D01*
X1254205Y1421606D02*
X1273743D01*
X1222873D02*
X1242411D01*
X1254086Y1421725D02*
X1273743D01*
X1222873D02*
X1242530D01*
X1253848Y1421844D02*
X1273624D01*
X1222992D02*
X1242768D01*
X1253728Y1421963D02*
X1273624D01*
X1222992D02*
X1242887D01*
X1253490Y1422082D02*
X1273624D01*
X1223111D02*
X1243125D01*
X1253371Y1422201D02*
X1273504D01*
X1223111D02*
X1243245D01*
X1253133Y1422320D02*
X1273504D01*
X1223230D02*
X1243483D01*
X1252894Y1422440D02*
X1273385D01*
X1223230D02*
X1243721D01*
X1252656Y1422559D02*
X1273385D01*
X1223230D02*
X1243959D01*
X1252418Y1422678D02*
X1273266D01*
X1223349D02*
X1244198D01*
X1252180Y1422797D02*
X1273266D01*
X1223349D02*
X1244436D01*
X1251941Y1422916D02*
X1273266D01*
X1223468D02*
X1244674D01*
X1251584Y1423035D02*
X1273147D01*
X1223468D02*
X1245032D01*
X1251227Y1423154D02*
X1273147D01*
X1223587D02*
X1245389D01*
X1250869Y1423273D02*
X1273028D01*
X1223587D02*
X1245746D01*
X1250393Y1423393D02*
X1273028D01*
X1223587D02*
X1246223D01*
X1249678Y1423512D02*
X1272909D01*
X1223707D02*
X1246938D01*
X1223707Y1423631D02*
X1272909D01*
X1223826Y1423750D02*
X1272909D01*
X1223826Y1423869D02*
X1272790D01*
X1223945Y1423988D02*
X1272790D01*
X1223945Y1424107D02*
X1272671D01*
X1223945Y1424227D02*
X1272671D01*
X1224064Y1424346D02*
X1272551D01*
X1224064Y1424465D02*
X1272551D01*
X1224183Y1424584D02*
X1272551D01*
X1224183Y1424703D02*
X1272432D01*
X1224302Y1424822D02*
X1272432D01*
X1224302Y1424941D02*
X1272313D01*
X1224302Y1425060D02*
X1272313D01*
X1224421Y1425180D02*
X1272194D01*
X1224421Y1425299D02*
X1272194D01*
X1224541Y1425418D02*
X1272194D01*
X1224541Y1425537D02*
X1272075D01*
X1224660Y1425656D02*
X1272075D01*
X1224660Y1425775D02*
X1271956D01*
X1224660Y1425894D02*
X1271956D01*
X1224779Y1426014D02*
X1271837D01*
X1224779Y1426133D02*
X1271837D01*
X1224898Y1426252D02*
X1271837D01*
X1224898Y1426371D02*
X1271718D01*
X1225017Y1426490D02*
X1271718D01*
X1225017Y1426609D02*
X1271598D01*
X1225017Y1426728D02*
X1271598D01*
X1225136Y1426848D02*
X1271479D01*
X1225136Y1426967D02*
X1271479D01*
X1225255Y1427086D02*
X1271479D01*
X1225255Y1427205D02*
X1271360D01*
X1225255Y1427324D02*
X1271360D01*
X1225255Y1427443D02*
X1271360D01*
X1225255Y1427562D02*
X1271479D01*
X1225136Y1427681D02*
X1271479D01*
X1225017Y1427801D02*
X1271598D01*
X1225017Y1427920D02*
X1271718D01*
X1224898Y1428039D02*
X1271718D01*
X1224779Y1428158D02*
X1271837D01*
X1224779Y1428277D02*
X1271956D01*
X1224660Y1428396D02*
X1271956D01*
X1224541Y1428515D02*
X1272075D01*
X1224541Y1428634D02*
X1272194D01*
X1224421Y1428754D02*
X1272194D01*
X1224302Y1428873D02*
X1272313D01*
X1224302Y1428992D02*
X1272432D01*
X1224183Y1429111D02*
X1272432D01*
X1224064Y1429230D02*
X1272551D01*
X1224064Y1429349D02*
X1272671D01*
X1223945Y1429469D02*
X1272671D01*
X1223826Y1429588D02*
X1272790D01*
X1223707Y1429707D02*
X1272909D01*
X1223707Y1429826D02*
X1272909D01*
X1223587Y1429945D02*
X1273028D01*
X1223468Y1430064D02*
X1273147D01*
X1223468Y1430183D02*
X1273266D01*
X1223349Y1430302D02*
X1273266D01*
X1223230Y1430421D02*
X1273385D01*
X1223230Y1430541D02*
X1273504D01*
X1223111Y1430660D02*
X1273504D01*
X1222992Y1430779D02*
X1273624D01*
X1222992Y1430898D02*
X1273743D01*
X1222873Y1431017D02*
X1273743D01*
X1222754Y1431136D02*
X1273862D01*
X1222754Y1431255D02*
X1273981D01*
X1222634Y1431375D02*
X1273981D01*
X1222515Y1431494D02*
X1274100D01*
X1222396Y1431613D02*
X1274219D01*
X1222396Y1431732D02*
X1274219D01*
X1222277Y1431851D02*
X1274339D01*
X1222158Y1431970D02*
X1274458D01*
X1222158Y1432089D02*
X1274577D01*
X1222039Y1432209D02*
X1274577D01*
X1221920Y1432328D02*
X1274696D01*
X1221920Y1432447D02*
X1274815D01*
X1221801Y1432566D02*
X1274815D01*
X1221681Y1432685D02*
X1274934D01*
X1221681Y1432804D02*
X1275053D01*
X1221562Y1432923D02*
X1275053D01*
X1221443Y1433042D02*
X1275172D01*
X1221443Y1433162D02*
X1275292D01*
X1221324Y1433281D02*
X1275292D01*
X1221205Y1433400D02*
X1275411D01*
X1221086Y1433519D02*
X1275530D01*
X1221086Y1433638D02*
X1275530D01*
X1220966Y1433757D02*
X1275649D01*
X1220847Y1433876D02*
X1275768D01*
X1220847Y1433996D02*
X1275887D01*
X1220728Y1434115D02*
X1275887D01*
X1220609Y1434234D02*
X1276006D01*
X1220609Y1434353D02*
X1276125D01*
X1220490Y1434472D02*
X1276125D01*
X1220371Y1434591D02*
X1276245D01*
X1220371Y1434710D02*
X1276364D01*
X1220252Y1434830D02*
X1276364D01*
X1220133Y1434949D02*
X1276483D01*
X1220133Y1435068D02*
X1276602D01*
X1220014Y1435187D02*
X1276602D01*
X1220014Y1435306D02*
X1276602D01*
X1220014Y1435425D02*
X1276602D01*
X1220133Y1435544D02*
X1276602D01*
X1220133Y1435663D02*
X1276483D01*
X1220252Y1435782D02*
X1276364D01*
X1220371Y1435902D02*
X1276245D01*
X1220490Y1436021D02*
X1276125D01*
X1220609Y1436140D02*
X1276006D01*
X1220728Y1436259D02*
X1275887D01*
X1220847Y1436378D02*
X1275768D01*
X1220966Y1436497D02*
X1275649D01*
X1221086Y1436617D02*
X1275530D01*
X1221205Y1436736D02*
X1275411D01*
X1261829Y1436855D02*
X1275292D01*
X1235144D02*
X1261472D01*
X1221324D02*
X1234905D01*
X1262068Y1436974D02*
X1275172D01*
X1235501D02*
X1261234D01*
X1221443D02*
X1234667D01*
X1262187Y1437093D02*
X1275053D01*
X1235739D02*
X1260876D01*
X1221562D02*
X1234429D01*
X1262425Y1437212D02*
X1274934D01*
X1235977D02*
X1260638D01*
X1221681D02*
X1234309D01*
X1262544Y1437331D02*
X1274815D01*
X1236335D02*
X1260281D01*
X1221801D02*
X1234071D01*
X1262663Y1437450D02*
X1274696D01*
X1236573D02*
X1260042D01*
X1221920D02*
X1233952D01*
X1262902Y1437570D02*
X1274577D01*
X1236930D02*
X1259685D01*
X1222039D02*
X1233714D01*
X1263021Y1437689D02*
X1274458D01*
X1237169D02*
X1259447D01*
X1222158D02*
X1233595D01*
X1263259Y1437808D02*
X1274339D01*
X1237526D02*
X1259209D01*
X1222277D02*
X1233356D01*
X1263378Y1437927D02*
X1274219D01*
X1237764D02*
X1258851D01*
X1222396D02*
X1233237D01*
X1263616Y1438046D02*
X1274100D01*
X1238122D02*
X1258613D01*
X1222515D02*
X1233118D01*
X1263736Y1438165D02*
X1273981D01*
X1238360D02*
X1258255D01*
X1222634D02*
X1232880D01*
X1263974Y1438284D02*
X1273862D01*
X1238598D02*
X1258017D01*
X1222754D02*
X1232761D01*
X1264093Y1438403D02*
X1273743D01*
X1238956D02*
X1257660D01*
X1222873D02*
X1232523D01*
X1264331Y1438523D02*
X1273624D01*
X1239194D02*
X1257421D01*
X1222992D02*
X1232403D01*
X1264450Y1438642D02*
X1273504D01*
X1239551D02*
X1257064D01*
X1223111D02*
X1232165D01*
X1264569Y1438761D02*
X1273385D01*
X1239790D02*
X1256826D01*
X1223230D02*
X1232046D01*
X1264808Y1438880D02*
X1273266D01*
X1240147D02*
X1256588D01*
X1223349D02*
X1231808D01*
X1264927Y1438999D02*
X1273147D01*
X1240385D02*
X1256230D01*
X1223468D02*
X1231689D01*
X1265165Y1439118D02*
X1273028D01*
X1240743D02*
X1255992D01*
X1223587D02*
X1231450D01*
X1265284Y1439237D02*
X1272909D01*
X1240981D02*
X1255635D01*
X1223707D02*
X1231331D01*
X1265523Y1439357D02*
X1272790D01*
X1241219D02*
X1255396D01*
X1223826D02*
X1231212D01*
X1265642Y1439476D02*
X1272671D01*
X1241458D02*
X1255158D01*
X1223945D02*
X1230974D01*
X1265880Y1439595D02*
X1272551D01*
X1241577D02*
X1255039D01*
X1224064D02*
X1230855D01*
X1265999Y1439714D02*
X1272432D01*
X1241577D02*
X1255039D01*
X1224183D02*
X1230616D01*
X1266237Y1439833D02*
X1272313D01*
X1241696D02*
X1254920D01*
X1224302D02*
X1230497D01*
X1266357Y1439952D02*
X1272194D01*
X1241696D02*
X1254920D01*
X1224421D02*
X1230259D01*
X1266476Y1440071D02*
X1272075D01*
X1241696D02*
X1254920D01*
X1224541D02*
X1230140D01*
X1266714Y1440190D02*
X1271956D01*
X1241696D02*
X1254920D01*
X1224660D02*
X1229902D01*
X1266833Y1440310D02*
X1271837D01*
X1241815D02*
X1254920D01*
X1224779D02*
X1229782D01*
X1267071Y1440429D02*
X1271718D01*
X1241815D02*
X1254800D01*
X1224898D02*
X1229544D01*
X1267190Y1440548D02*
X1271598D01*
X1241815D02*
X1254800D01*
X1225017D02*
X1229425D01*
X1267429Y1440667D02*
X1271479D01*
X1241815D02*
X1254800D01*
X1225136D02*
X1229187D01*
X1267548Y1440786D02*
X1271360D01*
X1241815D02*
X1254800D01*
X1225255D02*
X1229068D01*
X1267786Y1440905D02*
X1271241D01*
X1241934D02*
X1254800D01*
X1225375D02*
X1228949D01*
X1267905Y1441024D02*
X1271122D01*
X1241934D02*
X1254800D01*
X1225494D02*
X1228710D01*
X1268143Y1441144D02*
X1271003D01*
X1241934D02*
X1254681D01*
X1225613D02*
X1228591D01*
X1268263Y1441263D02*
X1270884D01*
X1241934D02*
X1254681D01*
X1225732D02*
X1228353D01*
X1268501Y1441382D02*
X1270764D01*
X1241934D02*
X1254681D01*
X1225851D02*
X1228234D01*
X1268620Y1441501D02*
X1270645D01*
X1241934D02*
X1254681D01*
X1225970D02*
X1227995D01*
X1268739Y1441620D02*
X1270526D01*
X1242053D02*
X1254681D01*
X1226089D02*
X1227876D01*
X1268977Y1441739D02*
X1270407D01*
X1242053D02*
X1254562D01*
X1226208D02*
X1227638D01*
X1269097Y1441858D02*
X1270288D01*
X1242053D02*
X1254562D01*
X1226328D02*
X1227519D01*
X1269335Y1441978D02*
X1270169D01*
X1242053D02*
X1254562D01*
X1226447D02*
X1227281D01*
X1269454Y1442097D02*
X1270050D01*
X1242053D02*
X1254562D01*
X1226566D02*
X1227161D01*
X1242172Y1442216D02*
X1254562D01*
X1242172Y1442335D02*
X1254443D01*
X1242172Y1442454D02*
X1254443D01*
X1242172Y1442573D02*
X1254443D01*
X1242172Y1442692D02*
X1254443D01*
X1242172Y1442811D02*
X1254443D01*
X1242291Y1442931D02*
X1254443D01*
X1242291Y1443050D02*
X1254324D01*
X1242291Y1443169D02*
X1254324D01*
X1242291Y1443288D02*
X1254324D01*
X1242291Y1443407D02*
X1254324D01*
X1242411Y1443526D02*
X1254324D01*
X1242411Y1443645D02*
X1254205D01*
X1242411Y1443764D02*
X1254205D01*
X1242411Y1443884D02*
X1254205D01*
X1242411Y1444003D02*
X1254205D01*
X1242530Y1444122D02*
X1254205D01*
X1242530Y1444241D02*
X1254205D01*
X1242530Y1444360D02*
X1254086D01*
X1242530Y1444479D02*
X1254086D01*
X1242530Y1444598D02*
X1254086D01*
X1242530Y1444718D02*
X1254086D01*
X1242649Y1444837D02*
X1254086D01*
X1242649Y1444956D02*
X1253967D01*
X1242649Y1445075D02*
X1253967D01*
X1242649Y1445194D02*
X1253967D01*
X1242649Y1445313D02*
X1253967D01*
X1242768Y1445432D02*
X1253967D01*
X1242768Y1445551D02*
X1253848D01*
X1242768Y1445671D02*
X1253848D01*
X1242768Y1445790D02*
X1253848D01*
X1242768Y1445909D02*
X1253848D01*
X1242887Y1446028D02*
X1253848D01*
X1242887Y1446147D02*
X1253848D01*
X1242887Y1446266D02*
X1253728D01*
X1242887Y1446385D02*
X1253728D01*
X1242887Y1446505D02*
X1253728D01*
X1242887Y1446624D02*
X1253728D01*
X1243006Y1446743D02*
X1253728D01*
X1243006Y1446862D02*
X1253609D01*
X1243006Y1446981D02*
X1253609D01*
X1243006Y1447100D02*
X1253609D01*
X1243006Y1447219D02*
X1253609D01*
X1243125Y1447339D02*
X1253609D01*
X1243125Y1447458D02*
X1253490D01*
X1243125Y1447577D02*
X1253490D01*
X1243125Y1447696D02*
X1253490D01*
X1243125Y1447815D02*
X1253490D01*
X1243125Y1447934D02*
X1253490D01*
X1243245Y1448053D02*
X1253490D01*
X1243245Y1448172D02*
X1253371D01*
X1243245Y1448292D02*
X1253371D01*
X1243245Y1448411D02*
X1253371D01*
X1243245Y1448530D02*
X1253371D01*
X1243364Y1448649D02*
X1253371D01*
X1243364Y1448768D02*
X1253252D01*
X1243364Y1448887D02*
X1253252D01*
X1243483Y1449006D02*
X1253252D01*
X1243602Y1449126D02*
X1253014D01*
D18*
X1231750Y1049650D02*
Y1053150D01*
X1230250Y1034150D02*
X1244000D01*
X1242000Y1049650D02*
Y1053150D01*
X1223000Y1048310D02*
Y1054310D01*
X1213000Y1048310D02*
Y1054310D01*
X1224000Y1089000D02*
X1230000D01*
X1224000Y1079000D02*
X1230000D01*
X1286000Y1026000D02*
X1302000D01*
X1286000Y1004000D02*
X1302000D01*
X1305000Y977913D02*
Y983913D01*
X1315000Y977913D02*
Y983913D01*
X1244000Y942000D02*
Y948000D01*
X1254000Y942000D02*
Y948000D01*
X1286000Y956000D02*
X1302000D01*
X1286000Y934000D02*
X1302000D01*
X1400250Y897940D02*
Y903940D01*
X1410250Y897940D02*
Y903940D01*
X1393000Y869000D02*
X1399000D01*
X1393000Y879000D02*
X1399000D01*
X1272750Y905250D02*
Y908750D01*
X1271250Y889750D02*
X1285000D01*
X1283000Y905250D02*
Y908750D01*
X1254000Y904050D02*
Y910050D01*
X1244000Y904050D02*
Y910050D01*
X1150000Y943000D02*
X1156000D01*
X1150000Y953000D02*
X1156000D01*
X1198496Y959037D02*
X1202739Y954795D01*
X1191425Y951966D02*
X1195668Y947724D01*
X1213188Y972273D02*
X1217430Y968030D01*
X1206116Y965201D02*
X1210359Y960959D01*
X972500Y974250D02*
Y980250D01*
X982500Y974250D02*
Y980250D01*
X1001723Y953606D02*
X1007723D01*
X1001723Y943606D02*
X1007723D01*
X740000Y932750D02*
Y938750D01*
X730000Y932750D02*
Y938750D01*
X708750Y934000D02*
Y937500D01*
X707250Y918500D02*
X721000D01*
X719000Y934000D02*
Y937500D01*
X905000Y910840D02*
X911000D01*
X905000Y920840D02*
X911000D01*
X744750Y1038719D02*
Y1044719D01*
X754750Y1038719D02*
Y1044719D01*
X725410Y1038719D02*
Y1044719D01*
X735410Y1038719D02*
Y1044719D01*
X822000Y1242350D02*
X828000D01*
X822000Y1232350D02*
X828000D01*
X921469Y1242800D02*
X927469D01*
X921469Y1232800D02*
X927469D01*
X1023007Y1242800D02*
X1029007D01*
X1023007Y1232800D02*
X1029007D01*
X1280000Y1251000D02*
Y1257000D01*
X1270000Y1251000D02*
Y1257000D01*
X1019750Y994250D02*
X1019750Y959250D01*
X991250D02*
X1019750D01*
X991250D02*
Y994250D01*
X1019750Y994250D01*
D19*
X1050580Y1384542D02*
X1058454D01*
X1048802Y1384796D02*
X1060232D01*
X1047532Y1385050D02*
X1061502D01*
X1046516Y1385304D02*
X1062518D01*
X1045754Y1385558D02*
X1063280D01*
X1044738Y1385812D02*
X1064042D01*
X1043976Y1386066D02*
X1064804D01*
X1057946Y1386320D02*
X1065566D01*
X1043468D02*
X1051342D01*
X1059724Y1386574D02*
X1066328D01*
X1042706D02*
X1049564D01*
X1060994Y1386828D02*
X1066836D01*
X1042198D02*
X1048294D01*
X1062010Y1387082D02*
X1067344D01*
X1055660D02*
X1056930D01*
X1041690D02*
X1047024D01*
X1063026Y1387336D02*
X1067852D01*
X1055406D02*
X1057946D01*
X1051088D02*
X1052104D01*
X1040928D02*
X1046262D01*
X1063788Y1387590D02*
X1068360D01*
X1055406D02*
X1058200D01*
X1050834D02*
X1052104D01*
X1040420D02*
X1045246D01*
X1064550Y1387844D02*
X1068868D01*
X1055406D02*
X1058454D01*
X1050834D02*
X1052104D01*
X1047278D02*
X1048802D01*
X1039912D02*
X1044484D01*
X1065312Y1388098D02*
X1069376D01*
X1060486D02*
X1062518D01*
X1055406D02*
X1058454D01*
X1050834D02*
X1052358D01*
X1046770D02*
X1049310D01*
X1039404D02*
X1043976D01*
X1065820Y1388352D02*
X1069884D01*
X1059978D02*
X1062772D01*
X1055660D02*
X1058454D01*
X1050834D02*
X1052358D01*
X1046516D02*
X1049310D01*
X1039150D02*
X1043214D01*
X1066328Y1388606D02*
X1070392D01*
X1059724D02*
X1063026D01*
X1056422D02*
X1058454D01*
X1050834D02*
X1053628D01*
X1046262D02*
X1049564D01*
X1038642D02*
X1042706D01*
X1067090Y1388860D02*
X1070900D01*
X1059724D02*
X1062772D01*
X1055406D02*
X1058454D01*
X1050834D02*
X1053882D01*
X1046262D02*
X1049564D01*
X1038134D02*
X1042198D01*
X1067598Y1389114D02*
X1071154D01*
X1059470D02*
X1062772D01*
X1055152D02*
X1058454D01*
X1050834D02*
X1053882D01*
X1046262D02*
X1049818D01*
X1037880D02*
X1041690D01*
X1068106Y1389368D02*
X1071662D01*
X1059470D02*
X1062264D01*
X1055152D02*
X1058200D01*
X1050834D02*
X1053882D01*
X1048294D02*
X1049818D01*
X1046262D02*
X1047786D01*
X1037372D02*
X1041182D01*
X1068360Y1389622D02*
X1072170D01*
X1059470D02*
X1060740D01*
X1055152D02*
X1057946D01*
X1050834D02*
X1053628D01*
X1048294D02*
X1049818D01*
X1046262D02*
X1047786D01*
X1037118D02*
X1040674D01*
X1068868Y1389876D02*
X1072424D01*
X1059216D02*
X1060740D01*
X1055152D02*
X1057184D01*
X1050834D02*
X1052358D01*
X1048548D02*
X1050072D01*
X1046262D02*
X1047786D01*
X1036610D02*
X1040166D01*
X1069376Y1390130D02*
X1072678D01*
X1059216D02*
X1060740D01*
X1055152D02*
X1057692D01*
X1050834D02*
X1054136D01*
X1048548D02*
X1050072D01*
X1046262D02*
X1047786D01*
X1036356D02*
X1039658D01*
X1069884Y1390384D02*
X1073186D01*
X1059470D02*
X1060740D01*
X1055152D02*
X1057946D01*
X1051088D02*
X1054136D01*
X1048548D02*
X1050072D01*
X1046262D02*
X1047786D01*
X1035848D02*
X1039404D01*
X1070138Y1390638D02*
X1073440D01*
X1059470D02*
X1060994D01*
X1055152D02*
X1057946D01*
X1051088D02*
X1054136D01*
X1048548D02*
X1050072D01*
X1046262D02*
X1047786D01*
X1035594D02*
X1038896D01*
X1070646Y1390892D02*
X1073948D01*
X1059470D02*
X1061756D01*
X1055406D02*
X1057946D01*
X1051088D02*
X1054136D01*
X1048548D02*
X1050072D01*
X1046516D02*
X1048040D01*
X1035340D02*
X1038388D01*
X1070900Y1391146D02*
X1074202D01*
X1059470D02*
X1062010D01*
X1055660D02*
X1057946D01*
X1051088D02*
X1054136D01*
X1048802D02*
X1050072D01*
X1046516D02*
X1048040D01*
X1034832D02*
X1038134D01*
X1071408Y1391400D02*
X1074456D01*
X1059724D02*
X1062264D01*
X1056168D02*
X1057438D01*
X1051850D02*
X1052358D01*
X1048802D02*
X1050072D01*
X1046516D02*
X1048040D01*
X1034578D02*
X1037626D01*
X1071662Y1391654D02*
X1074710D01*
X1059978D02*
X1062264D01*
X1048802D02*
X1050072D01*
X1046770D02*
X1048040D01*
X1034324D02*
X1037372D01*
X1072170Y1391908D02*
X1075218D01*
X1060232D02*
X1062010D01*
X1046770D02*
X1048040D01*
X1034070D02*
X1037118D01*
X1072424Y1392162D02*
X1075472D01*
X1060740D02*
X1062010D01*
X1047024D02*
X1047786D01*
X1033816D02*
X1036610D01*
X1072678Y1392416D02*
X1075726D01*
X1033562D02*
X1036356D01*
X1073186Y1392670D02*
X1075980D01*
X1051088D02*
X1057692D01*
X1033308D02*
X1036102D01*
X1073440Y1392924D02*
X1076234D01*
X1049564D02*
X1059216D01*
X1033054D02*
X1035594D01*
X1073694Y1393178D02*
X1076488D01*
X1048548D02*
X1060232D01*
X1032800D02*
X1035340D01*
X1073948Y1393432D02*
X1076742D01*
X1047786D02*
X1061248D01*
X1032546D02*
X1035086D01*
X1074202Y1393686D02*
X1076996D01*
X1056168D02*
X1062010D01*
X1047024D02*
X1054644D01*
X1032292D02*
X1034832D01*
X1074456Y1393940D02*
X1077250D01*
X1059216D02*
X1062772D01*
X1046262D02*
X1054644D01*
X1032038D02*
X1034578D01*
X1074710Y1394194D02*
X1077504D01*
X1059978D02*
X1063280D01*
X1050326D02*
X1054898D01*
X1045754D02*
X1049310D01*
X1031784D02*
X1034324D01*
X1074964Y1394448D02*
X1077758D01*
X1060994D02*
X1064042D01*
X1050326D02*
X1054898D01*
X1044992D02*
X1048294D01*
X1031530D02*
X1034070D01*
X1075218Y1394702D02*
X1077758D01*
X1061502D02*
X1064550D01*
X1050326D02*
X1054898D01*
X1044484D02*
X1047532D01*
X1031276D02*
X1033816D01*
X1075472Y1394956D02*
X1078012D01*
X1062264D02*
X1065058D01*
X1050326D02*
X1055152D01*
X1043976D02*
X1046770D01*
X1031022D02*
X1033562D01*
X1075726Y1395210D02*
X1078266D01*
X1062772D02*
X1065566D01*
X1050326D02*
X1055152D01*
X1043468D02*
X1046262D01*
X1030768D02*
X1033308D01*
X1075980Y1395464D02*
X1078520D01*
X1063280D02*
X1066074D01*
X1058200D02*
X1058454D01*
X1050072D02*
X1055152D01*
X1042960D02*
X1045500D01*
X1030514D02*
X1033054D01*
X1076234Y1395718D02*
X1078774D01*
X1064042D02*
X1066328D01*
X1058200D02*
X1058708D01*
X1050072D02*
X1055406D01*
X1042706D02*
X1044992D01*
X1030260D02*
X1032800D01*
X1076488Y1395972D02*
X1079028D01*
X1064550D02*
X1066836D01*
X1058200D02*
X1058708D01*
X1050072D02*
X1055406D01*
X1042198D02*
X1044484D01*
X1030006D02*
X1032546D01*
X1076742Y1396226D02*
X1079028D01*
X1065058D02*
X1067344D01*
X1058200D02*
X1058962D01*
X1049818D02*
X1055660D01*
X1041944D02*
X1043976D01*
X1029752D02*
X1032292D01*
X1076996Y1396480D02*
X1079282D01*
X1065566D02*
X1067598D01*
X1058454D02*
X1058962D01*
X1049818D02*
X1055660D01*
X1041690D02*
X1043468D01*
X1029752D02*
X1032038D01*
X1077250Y1396734D02*
X1079536D01*
X1065820D02*
X1068106D01*
X1058454D02*
X1059216D01*
X1049818D02*
X1055914D01*
X1041182D02*
X1043214D01*
X1029498D02*
X1031784D01*
X1077504Y1396988D02*
X1079790D01*
X1066328D02*
X1068360D01*
X1058454D02*
X1059216D01*
X1049564D02*
X1055914D01*
X1036864D02*
X1046008D01*
X1029244D02*
X1031784D01*
X1077758Y1397242D02*
X1080044D01*
X1066582D02*
X1068614D01*
X1058708D02*
X1059216D01*
X1033308D02*
X1055914D01*
X1029244D02*
X1031530D01*
X1077758Y1397496D02*
X1080298D01*
X1067090D02*
X1069122D01*
X1058708D02*
X1059470D01*
X1031530D02*
X1056168D01*
X1028990D02*
X1031276D01*
X1078012Y1397750D02*
X1080298D01*
X1067344D02*
X1069376D01*
X1058962D02*
X1059470D01*
X1028736D02*
X1056168D01*
X1078266Y1398004D02*
X1080552D01*
X1067852D02*
X1069630D01*
X1058962D02*
X1059724D01*
X1028228D02*
X1056930D01*
X1078520Y1398258D02*
X1080806D01*
X1068106D02*
X1069884D01*
X1058962D02*
X1059724D01*
X1026958D02*
X1058454D01*
X1078520Y1398512D02*
X1080806D01*
X1068360D02*
X1070138D01*
X1026196D02*
X1059978D01*
X1078774Y1398766D02*
X1081060D01*
X1068614D02*
X1070392D01*
X1025434D02*
X1060740D01*
X1079028Y1399020D02*
X1081314D01*
X1069122D02*
X1070646D01*
X1024672D02*
X1061756D01*
X1079028Y1399274D02*
X1081314D01*
X1069376D02*
X1070900D01*
X1023910D02*
X1063026D01*
X1079282Y1399528D02*
X1081568D01*
X1069630D02*
X1071154D01*
X1023402D02*
X1064296D01*
X1079282Y1399782D02*
X1081568D01*
X1069884D02*
X1071408D01*
X1022640D02*
X1065312D01*
X1079536Y1400036D02*
X1081822D01*
X1070138D02*
X1071662D01*
X1037372D02*
X1066328D01*
X1022132D02*
X1029498D01*
X1079790Y1400290D02*
X1082076D01*
X1070392D02*
X1071916D01*
X1041690D02*
X1067344D01*
X1037118D02*
X1038642D01*
X1027212D02*
X1029498D01*
X1021878D02*
X1026704D01*
X1079790Y1400544D02*
X1082076D01*
X1070646D02*
X1072170D01*
X1043468D02*
X1068106D01*
X1036864D02*
X1038388D01*
X1026958D02*
X1029244D01*
X1021370D02*
X1025434D01*
X1080044Y1400798D02*
X1082330D01*
X1070900D02*
X1072424D01*
X1045246D02*
X1069122D01*
X1036610D02*
X1038388D01*
X1026958D02*
X1029244D01*
X1020862D02*
X1024418D01*
X1080044Y1401052D02*
X1082330D01*
X1071154D02*
X1072678D01*
X1046770D02*
X1069884D01*
X1036610D02*
X1038134D01*
X1026704D02*
X1028990D01*
X1020608D02*
X1023402D01*
X1080298Y1401306D02*
X1082584D01*
X1071154D02*
X1072678D01*
X1048294D02*
X1070646D01*
X1036356D02*
X1037880D01*
X1026704D02*
X1028990D01*
X1020354D02*
X1022894D01*
X1080298Y1401560D02*
X1082584D01*
X1048294D02*
X1072932D01*
X1036102D02*
X1037626D01*
X1026450D02*
X1028736D01*
X1020100D02*
X1022132D01*
X1080552Y1401814D02*
X1082838D01*
X1048294D02*
X1073186D01*
X1035848D02*
X1037372D01*
X1026450D02*
X1028736D01*
X1019846D02*
X1021624D01*
X1080552Y1402068D02*
X1082838D01*
X1048040D02*
X1073440D01*
X1035848D02*
X1037372D01*
X1026196D02*
X1028482D01*
X1019592D02*
X1021370D01*
X1080806Y1402322D02*
X1083092D01*
X1048040D02*
X1073694D01*
X1035594D02*
X1037118D01*
X1026196D02*
X1028228D01*
X1019592D02*
X1020862D01*
X1080806Y1402576D02*
X1083092D01*
X1048040D02*
X1074202D01*
X1035340D02*
X1036864D01*
X1025942D02*
X1028228D01*
X1019338D02*
X1020608D01*
X1081060Y1402830D02*
X1083092D01*
X1047786D02*
X1074710D01*
X1035340D02*
X1036610D01*
X1025942D02*
X1027974D01*
X1019338D02*
X1020354D01*
X1081060Y1403084D02*
X1083346D01*
X1047786D02*
X1075472D01*
X1035086D02*
X1036356D01*
X1025942D02*
X1027974D01*
X1019338D02*
X1020354D01*
X1081314Y1403338D02*
X1083346D01*
X1047786D02*
X1075980D01*
X1034832D02*
X1036356D01*
X1025688D02*
X1027720D01*
X1019338D02*
X1020100D01*
X1081314Y1403592D02*
X1083600D01*
X1047532D02*
X1076742D01*
X1034832D02*
X1036102D01*
X1025688D02*
X1027720D01*
X1019338D02*
X1020100D01*
X1081568Y1403846D02*
X1083600D01*
X1058454D02*
X1077250D01*
X1047532D02*
X1057692D01*
X1034578D02*
X1035848D01*
X1025434D02*
X1027720D01*
X1019338D02*
X1020100D01*
X1081568Y1404100D02*
X1083854D01*
X1059470D02*
X1077758D01*
X1047278D02*
X1057692D01*
X1034578D02*
X1035848D01*
X1025434D02*
X1027466D01*
X1019338D02*
X1020100D01*
X1081822Y1404354D02*
X1083854D01*
X1059978D02*
X1078266D01*
X1047278D02*
X1057692D01*
X1034324D02*
X1035594D01*
X1025434D02*
X1027466D01*
X1019338D02*
X1020100D01*
X1081822Y1404608D02*
X1083854D01*
X1060740D02*
X1079028D01*
X1047278D02*
X1057692D01*
X1034324D02*
X1035594D01*
X1025180D02*
X1027212D01*
X1019338D02*
X1020100D01*
X1081822Y1404862D02*
X1084108D01*
X1060740D02*
X1079536D01*
X1047024D02*
X1057692D01*
X1034070D02*
X1035340D01*
X1025180D02*
X1027212D01*
X1019592D02*
X1020354D01*
X1082076Y1405116D02*
X1084108D01*
X1062264D02*
X1080044D01*
X1060740D02*
X1061502D01*
X1047024D02*
X1057692D01*
X1033816D02*
X1035086D01*
X1025180D02*
X1026958D01*
X1019592D02*
X1020354D01*
X1082076Y1405370D02*
X1085124D01*
X1063026D02*
X1080552D01*
X1060740D02*
X1061502D01*
X1046770D02*
X1057692D01*
X1033816D02*
X1035086D01*
X1024926D02*
X1026958D01*
X1019846D02*
X1020608D01*
X1082330Y1405624D02*
X1086140D01*
X1063534D02*
X1081060D01*
X1060740D02*
X1061502D01*
X1046770D02*
X1057692D01*
X1033562D02*
X1034832D01*
X1024926D02*
X1026958D01*
X1019846D02*
X1020862D01*
X1082330Y1405878D02*
X1086648D01*
X1064296D02*
X1081568D01*
X1060740D02*
X1061756D01*
X1046770D02*
X1057692D01*
X1033562D02*
X1034832D01*
X1024926D02*
X1026704D01*
X1020100D02*
X1020862D01*
X1085632Y1406132D02*
X1087410D01*
X1082330D02*
X1083346D01*
X1064804D02*
X1081822D01*
X1060740D02*
X1061756D01*
X1046008D02*
X1057692D01*
X1033562D02*
X1034578D01*
X1024672D02*
X1026704D01*
X1020354D02*
X1021116D01*
X1086140Y1406386D02*
X1088172D01*
X1065566D02*
X1082584D01*
X1060740D02*
X1061756D01*
X1044992D02*
X1057692D01*
X1033308D02*
X1034578D01*
X1024672D02*
X1026704D01*
X1020608D02*
X1021370D01*
X1086902Y1406640D02*
X1088934D01*
X1066074D02*
X1082076D01*
X1060740D02*
X1061756D01*
X1043976D02*
X1057692D01*
X1033308D02*
X1034324D01*
X1024672D02*
X1026450D01*
X1020862D02*
X1021624D01*
X1087664Y1406894D02*
X1089442D01*
X1066582D02*
X1081314D01*
X1060740D02*
X1061756D01*
X1043214D02*
X1057692D01*
X1033054D02*
X1034324D01*
X1024418D02*
X1026450D01*
X1021370D02*
X1021624D01*
X1088426Y1407148D02*
X1090204D01*
X1067344D02*
X1080552D01*
X1060740D02*
X1061756D01*
X1042452D02*
X1057692D01*
X1033054D02*
X1034324D01*
X1024418D02*
X1026450D01*
X1088934Y1407402D02*
X1090966D01*
X1067852D02*
X1080044D01*
X1060740D02*
X1061756D01*
X1041944D02*
X1057692D01*
X1032800D02*
X1034070D01*
X1024418D02*
X1026196D01*
X1089696Y1407656D02*
X1091474D01*
X1068360D02*
X1079282D01*
X1060740D02*
X1061756D01*
X1041182D02*
X1057692D01*
X1032800D02*
X1034070D01*
X1024418D02*
X1026196D01*
X1090458Y1407910D02*
X1091728D01*
X1068868D02*
X1078520D01*
X1060740D02*
X1061756D01*
X1040674D02*
X1057692D01*
X1032800D02*
X1033816D01*
X1024164D02*
X1026196D01*
X1090204Y1408164D02*
X1091982D01*
X1069376D02*
X1078774D01*
X1060740D02*
X1061756D01*
X1040166D02*
X1057692D01*
X1032546D02*
X1033816D01*
X1024164D02*
X1025942D01*
X1089696Y1408418D02*
X1091982D01*
X1069884D02*
X1079282D01*
X1060740D02*
X1061756D01*
X1039658D02*
X1057692D01*
X1032546D02*
X1033816D01*
X1024164D02*
X1025942D01*
X1091220Y1408672D02*
X1091982D01*
X1088934D02*
X1090712D01*
X1078266D02*
X1080044D01*
X1070392D02*
X1077758D01*
X1060740D02*
X1061756D01*
X1038896D02*
X1057692D01*
X1032546D02*
X1033562D01*
X1024164D02*
X1025942D01*
X1091220Y1408926D02*
X1091982D01*
X1088172D02*
X1090204D01*
X1078774D02*
X1080806D01*
X1070900D02*
X1077758D01*
X1060740D02*
X1061756D01*
X1038388D02*
X1057692D01*
X1032292D02*
X1033562D01*
X1023910D02*
X1025942D01*
X1091474Y1409180D02*
X1091982D01*
X1087410D02*
X1089442D01*
X1079536D02*
X1081568D01*
X1071408D02*
X1077758D01*
X1060740D02*
X1061756D01*
X1037880D02*
X1057692D01*
X1032292D02*
X1033562D01*
X1023910D02*
X1025688D01*
X1091474Y1409434D02*
X1091982D01*
X1089442D02*
X1089696D01*
X1086902D02*
X1088680D01*
X1080298D02*
X1082330D01*
X1071916D02*
X1077758D01*
X1060740D02*
X1061756D01*
X1037372D02*
X1057692D01*
X1032292D02*
X1033562D01*
X1023910D02*
X1025688D01*
X1091474Y1409688D02*
X1091982D01*
X1088426D02*
X1090458D01*
X1086140D02*
X1087918D01*
X1081060D02*
X1082838D01*
X1078774D02*
X1080552D01*
X1072424D02*
X1077758D01*
X1060740D02*
X1061756D01*
X1036864D02*
X1057692D01*
X1032038D02*
X1033308D01*
X1023910D02*
X1025688D01*
X1091474Y1409942D02*
X1091982D01*
X1087918D02*
X1090966D01*
X1085378D02*
X1087156D01*
X1081822D02*
X1083600D01*
X1078266D02*
X1081314D01*
X1072932D02*
X1077758D01*
X1060740D02*
X1061756D01*
X1036356D02*
X1057692D01*
X1032038D02*
X1033308D01*
X1023910D02*
X1025688D01*
X1091474Y1410196D02*
X1091982D01*
X1089950D02*
X1090966D01*
X1087156D02*
X1088934D01*
X1084616D02*
X1086648D01*
X1082330D02*
X1084362D01*
X1080044D02*
X1081822D01*
X1078012D02*
X1079028D01*
X1073440D02*
X1077758D01*
X1060740D02*
X1061756D01*
X1035594D02*
X1057692D01*
X1032038D02*
X1033308D01*
X1023656D02*
X1025688D01*
X1091474Y1410450D02*
X1091982D01*
X1090458D02*
X1090966D01*
X1086648D02*
X1088426D01*
X1083092D02*
X1085886D01*
X1080806D02*
X1082584D01*
X1078012D02*
X1078774D01*
X1073948D02*
X1077758D01*
X1060740D02*
X1061756D01*
X1035086D02*
X1057692D01*
X1032038D02*
X1033308D01*
X1023656D02*
X1025434D01*
X1091474Y1410704D02*
X1091982D01*
X1090458D02*
X1090966D01*
X1086140D02*
X1087664D01*
X1083854D02*
X1085124D01*
X1081568D02*
X1082838D01*
X1078012D02*
X1078520D01*
X1074456D02*
X1077758D01*
X1060740D02*
X1061756D01*
X1034578D02*
X1057692D01*
X1031784D02*
X1033054D01*
X1023656D02*
X1025434D01*
X1097316Y1410958D02*
X1098332D01*
X1091474D02*
X1091982D01*
X1090458D02*
X1090966D01*
X1085886D02*
X1087156D01*
X1084362D02*
X1084870D01*
X1082076D02*
X1083092D01*
X1078012D02*
X1078520D01*
X1074710D02*
X1077758D01*
X1060740D02*
X1061756D01*
X1034070D02*
X1057946D01*
X1031784D02*
X1033054D01*
X1023656D02*
X1025434D01*
X1096554Y1411212D02*
X1098332D01*
X1091474D02*
X1091982D01*
X1090458D02*
X1090966D01*
X1085632D02*
X1086648D01*
X1084362D02*
X1084870D01*
X1082584D02*
X1083346D01*
X1078012D02*
X1078774D01*
X1075218D02*
X1077758D01*
X1070646D02*
X1072170D01*
X1060740D02*
X1061756D01*
X1033816D02*
X1058200D01*
X1031784D02*
X1033054D01*
X1023656D02*
X1025434D01*
X1095792Y1411466D02*
X1098078D01*
X1091474D02*
X1091982D01*
X1090458D02*
X1090966D01*
X1085632D02*
X1086394D01*
X1084362D02*
X1084870D01*
X1082838D02*
X1083600D01*
X1078012D02*
X1078774D01*
X1075472D02*
X1077758D01*
X1070646D02*
X1072932D01*
X1060740D02*
X1061756D01*
X1033562D02*
X1058454D01*
X1031784D02*
X1033054D01*
X1023656D02*
X1025434D01*
X1095030Y1411720D02*
X1097570D01*
X1091474D02*
X1091982D01*
X1090458D02*
X1090966D01*
X1085378D02*
X1086140D01*
X1084362D02*
X1084870D01*
X1082838D02*
X1083600D01*
X1078012D02*
X1078774D01*
X1075980D02*
X1077758D01*
X1071154D02*
X1073440D01*
X1060486D02*
X1061756D01*
X1033562D02*
X1058454D01*
X1031784D02*
X1033054D01*
X1023402D02*
X1025434D01*
X1094522Y1411974D02*
X1097062D01*
X1091474D02*
X1091982D01*
X1090458D02*
X1090966D01*
X1085378D02*
X1086140D01*
X1084362D02*
X1084870D01*
X1083092D02*
X1083600D01*
X1078012D02*
X1078774D01*
X1076234D02*
X1077758D01*
X1071916D02*
X1074202D01*
X1060486D02*
X1061756D01*
X1033562D02*
X1058708D01*
X1031784D02*
X1032800D01*
X1023402D02*
X1025434D01*
X1093506Y1412228D02*
X1096300D01*
X1091474D02*
X1091982D01*
X1089696D02*
X1090966D01*
X1085378D02*
X1085886D01*
X1084362D02*
X1084870D01*
X1083092D02*
X1083854D01*
X1078012D02*
X1079282D01*
X1076234D02*
X1077758D01*
X1072424D02*
X1074964D01*
X1060486D02*
X1061502D01*
X1033308D02*
X1058708D01*
X1031530D02*
X1032800D01*
X1023402D02*
X1025180D01*
X1092744Y1412482D02*
X1095538D01*
X1091474D02*
X1091982D01*
X1088934D02*
X1090966D01*
X1085378D02*
X1085886D01*
X1084362D02*
X1084870D01*
X1083092D02*
X1083854D01*
X1078266D02*
X1080044D01*
X1076234D02*
X1077758D01*
X1073186D02*
X1075726D01*
X1060486D02*
X1061502D01*
X1033308D02*
X1058708D01*
X1031530D02*
X1032800D01*
X1023402D02*
X1025180D01*
X1092236Y1412736D02*
X1094776D01*
X1091474D02*
X1091982D01*
X1088426D02*
X1090204D01*
X1085124D02*
X1085886D01*
X1084362D02*
X1084870D01*
X1083092D02*
X1083854D01*
X1078774D02*
X1080806D01*
X1073948D02*
X1077758D01*
X1060486D02*
X1061502D01*
X1033054D02*
X1058708D01*
X1031530D02*
X1032800D01*
X1023402D02*
X1025180D01*
X1091474Y1412990D02*
X1094014D01*
X1087664D02*
X1089950D01*
X1085124D02*
X1085886D01*
X1084362D02*
X1084870D01*
X1083092D02*
X1083854D01*
X1079282D02*
X1081314D01*
X1074710D02*
X1077758D01*
X1060486D02*
X1061502D01*
X1033054D02*
X1058708D01*
X1031530D02*
X1032800D01*
X1023402D02*
X1025180D01*
X1091474Y1413244D02*
X1093252D01*
X1086902D02*
X1090458D01*
X1085124D02*
X1085886D01*
X1084362D02*
X1084870D01*
X1083346D02*
X1083854D01*
X1078520D02*
X1082076D01*
X1075472D02*
X1077758D01*
X1060486D02*
X1061502D01*
X1033054D02*
X1058708D01*
X1031530D02*
X1032800D01*
X1023402D02*
X1025180D01*
X1091474Y1413498D02*
X1092490D01*
X1086140D02*
X1090966D01*
X1085124D02*
X1085886D01*
X1084362D02*
X1084870D01*
X1083346D02*
X1083854D01*
X1078266D02*
X1082838D01*
X1076234D02*
X1077758D01*
X1060486D02*
X1061502D01*
X1032800D02*
X1058708D01*
X1031530D02*
X1032546D01*
X1023402D02*
X1025180D01*
X1091474Y1413752D02*
X1091982D01*
X1089950D02*
X1090966D01*
X1085124D02*
X1088934D01*
X1084362D02*
X1084870D01*
X1080044D02*
X1083854D01*
X1078012D02*
X1079028D01*
X1076488D02*
X1077758D01*
X1060232D02*
X1061502D01*
X1032800D02*
X1058708D01*
X1031530D02*
X1032546D01*
X1023402D02*
X1025180D01*
X1091474Y1414006D02*
X1091982D01*
X1090458D02*
X1090966D01*
X1085124D02*
X1088172D01*
X1084362D02*
X1084870D01*
X1080806D02*
X1083854D01*
X1078012D02*
X1078774D01*
X1076488D02*
X1077758D01*
X1060232D02*
X1061248D01*
X1032800D02*
X1058708D01*
X1031530D02*
X1032546D01*
X1023402D02*
X1025180D01*
X1091474Y1414260D02*
X1091982D01*
X1090458D02*
X1090966D01*
X1086140D02*
X1087410D01*
X1084362D02*
X1084870D01*
X1083346D02*
X1083854D01*
X1081568D02*
X1082838D01*
X1078012D02*
X1078774D01*
X1076488D02*
X1077758D01*
X1060232D02*
X1061248D01*
X1031530D02*
X1058708D01*
X1023402D02*
X1025180D01*
X1091474Y1414514D02*
X1091982D01*
X1090458D02*
X1090966D01*
X1085886D02*
X1086902D01*
X1084362D02*
X1084870D01*
X1082076D02*
X1083092D01*
X1078012D02*
X1078520D01*
X1076488D02*
X1077758D01*
X1060232D02*
X1061248D01*
X1031530D02*
X1058454D01*
X1023402D02*
X1025180D01*
X1091474Y1414768D02*
X1091982D01*
X1090458D02*
X1090966D01*
X1085632D02*
X1086648D01*
X1084362D02*
X1084870D01*
X1082584D02*
X1083346D01*
X1078012D02*
X1078520D01*
X1076488D02*
X1077758D01*
X1060232D02*
X1061248D01*
X1031530D02*
X1058454D01*
X1023402D02*
X1025180D01*
X1091474Y1415022D02*
X1091982D01*
X1090458D02*
X1090966D01*
X1085632D02*
X1086394D01*
X1084362D02*
X1084870D01*
X1082584D02*
X1083600D01*
X1078012D02*
X1078520D01*
X1076488D02*
X1077758D01*
X1059978D02*
X1061248D01*
X1031276D02*
X1058454D01*
X1023148D02*
X1025180D01*
X1091474Y1415276D02*
X1091982D01*
X1090458D02*
X1090966D01*
X1085378D02*
X1086140D01*
X1084362D02*
X1084870D01*
X1082838D02*
X1083600D01*
X1076488D02*
X1078520D01*
X1059978D02*
X1060994D01*
X1031276D02*
X1058200D01*
X1023148D02*
X1025180D01*
X1091474Y1415530D02*
X1091982D01*
X1090204D02*
X1090966D01*
X1085378D02*
X1085886D01*
X1084362D02*
X1084870D01*
X1083092D02*
X1083854D01*
X1076488D02*
X1078774D01*
X1059978D02*
X1060994D01*
X1031276D02*
X1058200D01*
X1023148D02*
X1025180D01*
X1091220Y1415784D02*
X1091982D01*
X1089696D02*
X1090966D01*
X1085378D02*
X1085886D01*
X1084362D02*
X1084870D01*
X1083092D02*
X1083854D01*
X1076488D02*
X1079536D01*
X1059978D02*
X1060994D01*
X1031530D02*
X1058200D01*
X1023148D02*
X1025180D01*
X1090966Y1416038D02*
X1091982D01*
X1088934D02*
X1090712D01*
X1085378D02*
X1085886D01*
X1084362D02*
X1084870D01*
X1083346D02*
X1083854D01*
X1076488D02*
X1080044D01*
X1059724D02*
X1060994D01*
X1031530D02*
X1058200D01*
X1023148D02*
X1025180D01*
X1088172Y1416292D02*
X1091728D01*
X1085124D02*
X1085886D01*
X1084362D02*
X1084870D01*
X1083346D02*
X1083854D01*
X1076488D02*
X1080806D01*
X1059724D02*
X1060740D01*
X1032800D02*
X1057946D01*
X1031530D02*
X1032546D01*
X1023148D02*
X1025180D01*
X1087410Y1416546D02*
X1091474D01*
X1085124D02*
X1085886D01*
X1084362D02*
X1084870D01*
X1083346D02*
X1083854D01*
X1078266D02*
X1081568D01*
X1076488D02*
X1077758D01*
X1059724D02*
X1060740D01*
X1032800D02*
X1057946D01*
X1031530D02*
X1032546D01*
X1023148D02*
X1025180D01*
X1086902Y1416800D02*
X1090712D01*
X1085124D02*
X1085886D01*
X1084362D02*
X1084870D01*
X1083346D02*
X1083854D01*
X1079028D02*
X1082330D01*
X1076488D02*
X1077758D01*
X1059724D02*
X1060740D01*
X1033054D02*
X1057692D01*
X1031530D02*
X1032546D01*
X1023402D02*
X1025180D01*
X1088172Y1417054D02*
X1089950D01*
X1085124D02*
X1087918D01*
X1084362D02*
X1084870D01*
X1083346D02*
X1083854D01*
X1079790D02*
X1083092D01*
X1076488D02*
X1077504D01*
X1059470D02*
X1060740D01*
X1033054D02*
X1057692D01*
X1031530D02*
X1032546D01*
X1023402D02*
X1025180D01*
X1087410Y1417308D02*
X1089188D01*
X1085124D02*
X1087156D01*
X1084362D02*
X1084870D01*
X1081822D02*
X1083854D01*
X1079282D02*
X1081568D01*
X1076488D02*
X1077504D01*
X1059470D02*
X1060486D01*
X1033308D02*
X1057692D01*
X1031530D02*
X1032546D01*
X1023402D02*
X1025180D01*
X1086648Y1417562D02*
X1089950D01*
X1085124D02*
X1086394D01*
X1084362D02*
X1084870D01*
X1078520D02*
X1083854D01*
X1076488D02*
X1077504D01*
X1059470D02*
X1060486D01*
X1033308D02*
X1057438D01*
X1031530D02*
X1032546D01*
X1023402D02*
X1025180D01*
X1085886Y1417816D02*
X1090458D01*
X1084362D02*
X1084870D01*
X1081060D02*
X1083854D01*
X1078012D02*
X1080298D01*
X1076488D02*
X1077504D01*
X1059216D02*
X1060486D01*
X1033308D02*
X1057438D01*
X1031530D02*
X1032546D01*
X1023402D02*
X1025180D01*
X1088680Y1418070D02*
X1091220D01*
X1085124D02*
X1087156D01*
X1084362D02*
X1084870D01*
X1082076D02*
X1084108D01*
X1076488D02*
X1079790D01*
X1059216D02*
X1060232D01*
X1033054D02*
X1057438D01*
X1031530D02*
X1032546D01*
X1023402D02*
X1025180D01*
X1089442Y1418324D02*
X1091982D01*
X1082838D02*
X1086394D01*
X1076488D02*
X1079028D01*
X1059216D02*
X1060232D01*
X1031530D02*
X1057184D01*
X1023402D02*
X1025180D01*
X1090204Y1418578D02*
X1092744D01*
X1083600D02*
X1085632D01*
X1075980D02*
X1078266D01*
X1058962D02*
X1060232D01*
X1031530D02*
X1057184D01*
X1023402D02*
X1025180D01*
X1090966Y1418832D02*
X1093252D01*
X1083854D02*
X1085632D01*
X1075472D02*
X1077758D01*
X1058962D02*
X1059978D01*
X1031530D02*
X1057184D01*
X1023402D02*
X1025434D01*
X1091728Y1419086D02*
X1094014D01*
X1083854D02*
X1085632D01*
X1074710D02*
X1077504D01*
X1058708D02*
X1059978D01*
X1031784D02*
X1056930D01*
X1023402D02*
X1025434D01*
X1092490Y1419340D02*
X1094776D01*
X1083854D02*
X1085632D01*
X1073948D02*
X1077250D01*
X1058708D02*
X1059724D01*
X1031784D02*
X1056930D01*
X1023402D02*
X1025434D01*
X1092998Y1419594D02*
X1095284D01*
X1083600D02*
X1085632D01*
X1076234D02*
X1077250D01*
X1073186D02*
X1075472D01*
X1058708D02*
X1059724D01*
X1031784D02*
X1056930D01*
X1023402D02*
X1025434D01*
X1093760Y1419848D02*
X1096046D01*
X1083600D02*
X1085632D01*
X1076234D02*
X1077250D01*
X1072678D02*
X1074710D01*
X1058454D02*
X1059724D01*
X1031784D02*
X1056930D01*
X1023656D02*
X1025434D01*
X1094268Y1420102D02*
X1097062D01*
X1083600D02*
X1085632D01*
X1075980D02*
X1077250D01*
X1071916D02*
X1074202D01*
X1058454D02*
X1059470D01*
X1031784D02*
X1056930D01*
X1023656D02*
X1025434D01*
X1095030Y1420356D02*
X1097570D01*
X1083600D02*
X1085378D01*
X1075980D02*
X1077250D01*
X1071408D02*
X1073440D01*
X1058200D02*
X1059470D01*
X1032038D02*
X1056930D01*
X1023656D02*
X1025434D01*
X1095792Y1420610D02*
X1098078D01*
X1083600D02*
X1085378D01*
X1075980D02*
X1077250D01*
X1070900D02*
X1072678D01*
X1058200D02*
X1059216D01*
X1032038D02*
X1056930D01*
X1023656D02*
X1025688D01*
X1096554Y1420864D02*
X1098332D01*
X1083600D02*
X1085378D01*
X1075726D02*
X1076996D01*
X1070646D02*
X1071916D01*
X1057946D02*
X1059216D01*
X1032038D02*
X1056676D01*
X1023656D02*
X1025688D01*
X1097316Y1421118D02*
X1098332D01*
X1083600D02*
X1085378D01*
X1075726D02*
X1076996D01*
X1057946D02*
X1058962D01*
X1032038D02*
X1056676D01*
X1023656D02*
X1025688D01*
X1083346Y1421372D02*
X1085378D01*
X1075726D02*
X1076996D01*
X1057692D02*
X1058962D01*
X1032038D02*
X1056676D01*
X1023910D02*
X1025688D01*
X1083346Y1421626D02*
X1085378D01*
X1075726D02*
X1076996D01*
X1057692D02*
X1058708D01*
X1032292D02*
X1056676D01*
X1023910D02*
X1025688D01*
X1083346Y1421880D02*
X1085124D01*
X1075472D02*
X1076742D01*
X1065566D02*
X1066074D01*
X1057438D02*
X1058708D01*
X1032292D02*
X1056676D01*
X1023910D02*
X1025942D01*
X1083346Y1422134D02*
X1085124D01*
X1075472D02*
X1076742D01*
X1065058D02*
X1066328D01*
X1057438D02*
X1058454D01*
X1032292D02*
X1056422D01*
X1023910D02*
X1025942D01*
X1083092Y1422388D02*
X1085124D01*
X1075472D02*
X1076742D01*
X1064804D02*
X1066582D01*
X1057184D02*
X1058454D01*
X1032546D02*
X1056422D01*
X1023910D02*
X1025942D01*
X1083092Y1422642D02*
X1085124D01*
X1075218D02*
X1076488D01*
X1065058D02*
X1066582D01*
X1057184D02*
X1058200D01*
X1032546D02*
X1056422D01*
X1024164D02*
X1025942D01*
X1083092Y1422896D02*
X1084870D01*
X1075218D02*
X1076488D01*
X1065058D02*
X1066328D01*
X1056930D02*
X1058200D01*
X1032546D02*
X1056168D01*
X1024164D02*
X1026196D01*
X1083092Y1423150D02*
X1084870D01*
X1075218D02*
X1076488D01*
X1065312D02*
X1066074D01*
X1056930D02*
X1057946D01*
X1032800D02*
X1056168D01*
X1024164D02*
X1026196D01*
X1082838Y1423404D02*
X1084870D01*
X1074964D02*
X1076234D01*
X1056676D02*
X1057946D01*
X1032800D02*
X1055914D01*
X1024164D02*
X1026196D01*
X1082838Y1423658D02*
X1084870D01*
X1074964D02*
X1076234D01*
X1056422D02*
X1057692D01*
X1032800D02*
X1055914D01*
X1024418D02*
X1026196D01*
X1082838Y1423912D02*
X1084616D01*
X1074964D02*
X1076234D01*
X1056422D02*
X1057692D01*
X1033054D02*
X1055660D01*
X1024418D02*
X1026450D01*
X1082838Y1424166D02*
X1084616D01*
X1074710D02*
X1075980D01*
X1056168D02*
X1057438D01*
X1033054D02*
X1055406D01*
X1024418D02*
X1026450D01*
X1082584Y1424420D02*
X1084616D01*
X1074710D02*
X1075980D01*
X1055914D02*
X1057184D01*
X1033054D02*
X1055406D01*
X1024672D02*
X1026450D01*
X1082584Y1424674D02*
X1084616D01*
X1074456D02*
X1075726D01*
X1055914D02*
X1057184D01*
X1033308D02*
X1055152D01*
X1024672D02*
X1026704D01*
X1082584Y1424928D02*
X1084362D01*
X1074456D02*
X1075726D01*
X1055660D02*
X1056930D01*
X1033308D02*
X1054898D01*
X1024672D02*
X1026704D01*
X1082330Y1425182D02*
X1084362D01*
X1074202D02*
X1075726D01*
X1055406D02*
X1056676D01*
X1033562D02*
X1054644D01*
X1024672D02*
X1026704D01*
X1082330Y1425436D02*
X1084362D01*
X1074202D02*
X1075472D01*
X1055406D02*
X1056676D01*
X1033562D02*
X1053628D01*
X1024926D02*
X1026958D01*
X1082076Y1425690D02*
X1084108D01*
X1074202D02*
X1075472D01*
X1055152D02*
X1056422D01*
X1033816D02*
X1049564D01*
X1024926D02*
X1026958D01*
X1082076Y1425944D02*
X1084108D01*
X1073948D02*
X1075218D01*
X1054898D02*
X1056168D01*
X1033816D02*
X1048802D01*
X1024926D02*
X1026958D01*
X1082076Y1426198D02*
X1084108D01*
X1073694D02*
X1075218D01*
X1065566D02*
X1066074D01*
X1061502D02*
X1062010D01*
X1054644D02*
X1056168D01*
X1034070D02*
X1048548D01*
X1025180D02*
X1027212D01*
X1081822Y1426452D02*
X1083854D01*
X1073694D02*
X1074964D01*
X1065312D02*
X1066074D01*
X1060994D02*
X1062264D01*
X1054644D02*
X1055914D01*
X1034070D02*
X1048040D01*
X1025180D02*
X1027212D01*
X1081822Y1426706D02*
X1083854D01*
X1073440D02*
X1074964D01*
X1065058D02*
X1066328D01*
X1060994D02*
X1062518D01*
X1054390D02*
X1055660D01*
X1034324D02*
X1047532D01*
X1025180D02*
X1027466D01*
X1081568Y1426960D02*
X1083600D01*
X1073440D02*
X1074710D01*
X1065312D02*
X1066328D01*
X1060994D02*
X1062518D01*
X1054136D02*
X1055406D01*
X1034324D02*
X1047024D01*
X1025434D02*
X1027466D01*
X1081568Y1427214D02*
X1083600D01*
X1073186D02*
X1074456D01*
X1060994D02*
X1062264D01*
X1053882D02*
X1055152D01*
X1036610D02*
X1046516D01*
X1034578D02*
X1035848D01*
X1025434D02*
X1027720D01*
X1081568Y1427468D02*
X1083600D01*
X1072932D02*
X1074456D01*
X1061248D02*
X1061756D01*
X1053628D02*
X1055152D01*
X1043468D02*
X1046008D01*
X1037626D02*
X1042706D01*
X1034578D02*
X1036102D01*
X1025688D02*
X1027720D01*
X1081314Y1427722D02*
X1083346D01*
X1072932D02*
X1074202D01*
X1053374D02*
X1054898D01*
X1044230D02*
X1045500D01*
X1038642D02*
X1041182D01*
X1034832D02*
X1036102D01*
X1025688D02*
X1027720D01*
X1081314Y1427976D02*
X1083346D01*
X1072678D02*
X1074202D01*
X1053120D02*
X1054644D01*
X1035086D02*
X1036356D01*
X1025688D02*
X1027974D01*
X1081060Y1428230D02*
X1083092D01*
X1072424D02*
X1073948D01*
X1053120D02*
X1054390D01*
X1035086D02*
X1036610D01*
X1025942D02*
X1027974D01*
X1081060Y1428484D02*
X1083092D01*
X1072170D02*
X1073694D01*
X1066328D02*
X1066836D01*
X1052866D02*
X1054136D01*
X1035340D02*
X1036864D01*
X1025942D02*
X1028228D01*
X1080806Y1428738D02*
X1082838D01*
X1072170D02*
X1073694D01*
X1065820D02*
X1067090D01*
X1052612D02*
X1053882D01*
X1035594D02*
X1036864D01*
X1026196D02*
X1028228D01*
X1080806Y1428992D02*
X1082838D01*
X1071916D02*
X1073440D01*
X1065820D02*
X1067090D01*
X1052358D02*
X1053628D01*
X1035594D02*
X1037118D01*
X1026196D02*
X1028482D01*
X1080552Y1429246D02*
X1082584D01*
X1071662D02*
X1073186D01*
X1066074D02*
X1067090D01*
X1052104D02*
X1053374D01*
X1035848D02*
X1037372D01*
X1026450D02*
X1028482D01*
X1080298Y1429500D02*
X1082584D01*
X1071408D02*
X1072932D01*
X1066074D02*
X1066836D01*
X1051850D02*
X1053120D01*
X1036102D02*
X1037626D01*
X1026450D02*
X1028736D01*
X1080298Y1429754D02*
X1082330D01*
X1071154D02*
X1072932D01*
X1051596D02*
X1052866D01*
X1036356D02*
X1037880D01*
X1026704D02*
X1028736D01*
X1080044Y1430008D02*
X1082330D01*
X1071154D02*
X1072678D01*
X1063026D02*
X1063534D01*
X1051342D02*
X1052612D01*
X1036356D02*
X1038134D01*
X1026704D02*
X1028990D01*
X1080044Y1430262D02*
X1082076D01*
X1070900D02*
X1072424D01*
X1062518D02*
X1063534D01*
X1051088D02*
X1052358D01*
X1036610D02*
X1038134D01*
X1026958D02*
X1029244D01*
X1079790Y1430516D02*
X1082076D01*
X1070646D02*
X1072170D01*
X1062518D02*
X1063788D01*
X1050834D02*
X1052104D01*
X1036864D02*
X1038388D01*
X1026958D02*
X1029244D01*
X1079790Y1430770D02*
X1081822D01*
X1070392D02*
X1071916D01*
X1062518D02*
X1063788D01*
X1050580D02*
X1051850D01*
X1037118D02*
X1038642D01*
X1027212D02*
X1029498D01*
X1079536Y1431024D02*
X1081822D01*
X1070138D02*
X1071662D01*
X1062518D02*
X1063534D01*
X1050072D02*
X1051342D01*
X1037372D02*
X1038896D01*
X1027466D02*
X1029498D01*
X1079282Y1431278D02*
X1081568D01*
X1069884D02*
X1071408D01*
X1062772D02*
X1063026D01*
X1049818D02*
X1051088D01*
X1037626D02*
X1039150D01*
X1027466D02*
X1029752D01*
X1079282Y1431532D02*
X1081568D01*
X1069630D02*
X1071154D01*
X1049564D02*
X1050834D01*
X1037880D02*
X1039404D01*
X1027720D02*
X1030006D01*
X1079028Y1431786D02*
X1081314D01*
X1069376D02*
X1070900D01*
X1049310D02*
X1050580D01*
X1038134D02*
X1039912D01*
X1027720D02*
X1030006D01*
X1078774Y1432040D02*
X1081060D01*
X1069122D02*
X1070646D01*
X1049056D02*
X1050072D01*
X1038388D02*
X1040166D01*
X1027974D02*
X1030260D01*
X1078774Y1432294D02*
X1081060D01*
X1068614D02*
X1070392D01*
X1048548D02*
X1049818D01*
X1038642D02*
X1040420D01*
X1028228D02*
X1030514D01*
X1078520Y1432548D02*
X1080806D01*
X1068360D02*
X1070138D01*
X1048294D02*
X1049310D01*
X1038896D02*
X1040674D01*
X1028228D02*
X1030514D01*
X1078266Y1432802D02*
X1080552D01*
X1068106D02*
X1069884D01*
X1048040D02*
X1049056D01*
X1039150D02*
X1040928D01*
X1028482D02*
X1030768D01*
X1078012Y1433056D02*
X1080552D01*
X1067852D02*
X1069630D01*
X1047532D02*
X1048802D01*
X1039404D02*
X1041182D01*
X1036864D02*
X1038134D01*
X1028482D02*
X1031022D01*
X1078012Y1433310D02*
X1080298D01*
X1070646D02*
X1071662D01*
X1067344D02*
X1069376D01*
X1047278D02*
X1048294D01*
X1039658D02*
X1041436D01*
X1036610D02*
X1038134D01*
X1028736D02*
X1031276D01*
X1077758Y1433564D02*
X1080044D01*
X1070392D02*
X1071916D01*
X1067090D02*
X1069122D01*
X1046770D02*
X1048040D01*
X1039912D02*
X1041944D01*
X1036610D02*
X1038134D01*
X1028990D02*
X1031276D01*
X1077504Y1433818D02*
X1080044D01*
X1070392D02*
X1072170D01*
X1066836D02*
X1068614D01*
X1046262D02*
X1047532D01*
X1040420D02*
X1042198D01*
X1036356D02*
X1038134D01*
X1029244D02*
X1031530D01*
X1077250Y1434072D02*
X1079790D01*
X1070392D02*
X1072424D01*
X1066328D02*
X1068360D01*
X1046008D02*
X1047024D01*
X1040674D02*
X1042706D01*
X1036102D02*
X1038134D01*
X1029244D02*
X1031784D01*
X1076996Y1434326D02*
X1079536D01*
X1070646D02*
X1072678D01*
X1066074D02*
X1068106D01*
X1045500D02*
X1046770D01*
X1040928D02*
X1042960D01*
X1035848D02*
X1037880D01*
X1029498D02*
X1032038D01*
X1076996Y1434580D02*
X1079282D01*
X1070646D02*
X1072932D01*
X1065566D02*
X1067598D01*
X1044992D02*
X1046262D01*
X1041436D02*
X1043468D01*
X1035594D02*
X1037626D01*
X1029752D02*
X1032292D01*
X1076742Y1434834D02*
X1079282D01*
X1070900D02*
X1074456D01*
X1068868D02*
X1069376D01*
X1065058D02*
X1067344D01*
X1044230D02*
X1045754D01*
X1041690D02*
X1043976D01*
X1035340D02*
X1037880D01*
X1030006D02*
X1032292D01*
X1076488Y1435088D02*
X1079028D01*
X1071154D02*
X1074456D01*
X1068614D02*
X1069630D01*
X1064550D02*
X1066836D01*
X1042198D02*
X1044992D01*
X1035086D02*
X1038134D01*
X1030006D02*
X1032546D01*
X1076234Y1435342D02*
X1078774D01*
X1071408D02*
X1074456D01*
X1068360D02*
X1069884D01*
X1064042D02*
X1066582D01*
X1042452D02*
X1044992D01*
X1035086D02*
X1038388D01*
X1030260D02*
X1032800D01*
X1075980Y1435596D02*
X1078520D01*
X1071662D02*
X1074456D01*
X1068360D02*
X1069884D01*
X1063534D02*
X1066074D01*
X1042960D02*
X1045500D01*
X1040166D02*
X1041436D01*
X1035086D02*
X1038388D01*
X1030514D02*
X1033054D01*
X1075726Y1435850D02*
X1078266D01*
X1071916D02*
X1074202D01*
X1068360D02*
X1069884D01*
X1063026D02*
X1065566D01*
X1043468D02*
X1046008D01*
X1040166D02*
X1041690D01*
X1035086D02*
X1038388D01*
X1030768D02*
X1033308D01*
X1075472Y1436104D02*
X1078012D01*
X1071916D02*
X1073948D01*
X1068360D02*
X1070138D01*
X1062518D02*
X1065058D01*
X1043976D02*
X1046770D01*
X1039912D02*
X1042198D01*
X1035086D02*
X1038388D01*
X1031022D02*
X1033562D01*
X1075218Y1436358D02*
X1078012D01*
X1071662D02*
X1073948D01*
X1067852D02*
X1070138D01*
X1066328D02*
X1067598D01*
X1061756D02*
X1064550D01*
X1044484D02*
X1047532D01*
X1039658D02*
X1042198D01*
X1035086D02*
X1037372D01*
X1031276D02*
X1033816D01*
X1074964Y1436612D02*
X1077758D01*
X1071662D02*
X1073440D01*
X1066328D02*
X1070138D01*
X1060994D02*
X1064042D01*
X1044992D02*
X1048294D01*
X1039658D02*
X1042452D01*
X1035340D02*
X1037626D01*
X1031276D02*
X1034070D01*
X1074710Y1436866D02*
X1077504D01*
X1071662D02*
X1073186D01*
X1066328D02*
X1070138D01*
X1059978D02*
X1063534D01*
X1045500D02*
X1049310D01*
X1039404D02*
X1042452D01*
X1035594D02*
X1037880D01*
X1031530D02*
X1034324D01*
X1074456Y1437120D02*
X1077250D01*
X1071916D02*
X1072932D01*
X1066328D02*
X1070138D01*
X1058962D02*
X1062772D01*
X1046262D02*
X1050326D01*
X1039150D02*
X1042452D01*
X1036102D02*
X1037880D01*
X1031784D02*
X1034578D01*
X1074202Y1437374D02*
X1076996D01*
X1066582D02*
X1070392D01*
X1057438D02*
X1062264D01*
X1047024D02*
X1051850D01*
X1039150D02*
X1040928D01*
X1036356D02*
X1037626D01*
X1032038D02*
X1034832D01*
X1073948Y1437628D02*
X1076742D01*
X1066836D02*
X1070392D01*
X1063788D02*
X1065566D01*
X1047786D02*
X1061502D01*
X1043214D02*
X1045246D01*
X1038896D02*
X1040674D01*
X1032292D02*
X1035086D01*
X1073694Y1437882D02*
X1076488D01*
X1067344D02*
X1070392D01*
X1063280D02*
X1065820D01*
X1048548D02*
X1060486D01*
X1042706D02*
X1045500D01*
X1038896D02*
X1040674D01*
X1032546D02*
X1035340D01*
X1073186Y1438136D02*
X1076234D01*
X1067598D02*
X1070392D01*
X1062772D02*
X1065820D01*
X1049564D02*
X1059470D01*
X1042452D02*
X1045754D01*
X1038642D02*
X1040420D01*
X1032800D02*
X1035848D01*
X1072932Y1438390D02*
X1075980D01*
X1068106D02*
X1070392D01*
X1062772D02*
X1066074D01*
X1051088D02*
X1058200D01*
X1042452D02*
X1046008D01*
X1038642D02*
X1040166D01*
X1033054D02*
X1036102D01*
X1072678Y1438644D02*
X1075726D01*
X1068360D02*
X1070392D01*
X1062772D02*
X1066074D01*
X1053882D02*
X1055152D01*
X1042198D02*
X1046262D01*
X1038642D02*
X1039912D01*
X1033308D02*
X1036356D01*
X1072424Y1438898D02*
X1075472D01*
X1068868D02*
X1070392D01*
X1062772D02*
X1066074D01*
X1060486D02*
X1061756D01*
X1048040D02*
X1048548D01*
X1044484D02*
X1046262D01*
X1042198D02*
X1043976D01*
X1038642D02*
X1039912D01*
X1033816D02*
X1036610D01*
X1071916Y1439152D02*
X1074964D01*
X1069376D02*
X1070392D01*
X1064296D02*
X1066074D01*
X1063026D02*
X1064042D01*
X1060486D02*
X1061756D01*
X1047786D02*
X1049056D01*
X1044738D02*
X1046262D01*
X1041944D02*
X1043722D01*
X1038642D02*
X1039658D01*
X1034070D02*
X1037118D01*
X1071662Y1439406D02*
X1074710D01*
X1063788D02*
X1066074D01*
X1060486D02*
X1061756D01*
X1058200D02*
X1059216D01*
X1049818D02*
X1050834D01*
X1047786D02*
X1049056D01*
X1044992D02*
X1046262D01*
X1041944D02*
X1043468D01*
X1034324D02*
X1037372D01*
X1071408Y1439660D02*
X1074456D01*
X1063534D02*
X1066074D01*
X1060232D02*
X1061756D01*
X1058200D02*
X1059470D01*
X1054644D02*
X1055660D01*
X1052104D02*
X1053120D01*
X1049310D02*
X1051088D01*
X1047532D02*
X1049056D01*
X1044992D02*
X1046516D01*
X1041944D02*
X1043468D01*
X1034578D02*
X1037626D01*
X1070900Y1439914D02*
X1074202D01*
X1063534D02*
X1065566D01*
X1058200D02*
X1061756D01*
X1054390D02*
X1055660D01*
X1052104D02*
X1053374D01*
X1047532D02*
X1051088D01*
X1044992D02*
X1046262D01*
X1041944D02*
X1043468D01*
X1034832D02*
X1038134D01*
X1070646Y1440168D02*
X1073948D01*
X1065312D02*
X1066582D01*
X1063280D02*
X1065058D01*
X1058200D02*
X1061756D01*
X1054390D02*
X1055914D01*
X1052104D02*
X1053374D01*
X1047532D02*
X1050834D01*
X1044738D02*
X1046262D01*
X1042198D02*
X1043722D01*
X1035340D02*
X1038388D01*
X1070138Y1440422D02*
X1073440D01*
X1063280D02*
X1066582D01*
X1058200D02*
X1061756D01*
X1054390D02*
X1055914D01*
X1051850D02*
X1053374D01*
X1047532D02*
X1050834D01*
X1042198D02*
X1046262D01*
X1035594D02*
X1038896D01*
X1069884Y1440676D02*
X1073186D01*
X1063534D02*
X1066582D01*
X1058454D02*
X1061756D01*
X1054390D02*
X1055914D01*
X1051850D02*
X1053374D01*
X1047278D02*
X1050580D01*
X1042198D02*
X1046262D01*
X1035848D02*
X1039404D01*
X1069376Y1440930D02*
X1072932D01*
X1063534D02*
X1066582D01*
X1058454D02*
X1061756D01*
X1056422D02*
X1056676D01*
X1054390D02*
X1055914D01*
X1051850D02*
X1053374D01*
X1047278D02*
X1050326D01*
X1042452D02*
X1046008D01*
X1036102D02*
X1039658D01*
X1068868Y1441184D02*
X1072424D01*
X1063788D02*
X1066582D01*
X1058708D02*
X1061756D01*
X1054390D02*
X1057438D01*
X1051850D02*
X1053374D01*
X1047278D02*
X1050326D01*
X1042706D02*
X1045754D01*
X1036610D02*
X1040166D01*
X1068360Y1441438D02*
X1072170D01*
X1063788D02*
X1066074D01*
X1058962D02*
X1061756D01*
X1054390D02*
X1057692D01*
X1051850D02*
X1053374D01*
X1047278D02*
X1050580D01*
X1042960D02*
X1045500D01*
X1036864D02*
X1040674D01*
X1067852Y1441692D02*
X1071662D01*
X1064296D02*
X1065312D01*
X1059216D02*
X1061502D01*
X1054390D02*
X1057692D01*
X1051850D02*
X1053374D01*
X1049056D02*
X1050580D01*
X1047278D02*
X1048802D01*
X1043468D02*
X1044992D01*
X1037372D02*
X1041182D01*
X1067344Y1441946D02*
X1071408D01*
X1059216D02*
X1061502D01*
X1054390D02*
X1057946D01*
X1051850D02*
X1053374D01*
X1047278D02*
X1050580D01*
X1037626D02*
X1041690D01*
X1066836Y1442200D02*
X1070900D01*
X1059470D02*
X1061502D01*
X1056422D02*
X1057946D01*
X1054390D02*
X1055914D01*
X1051850D02*
X1053120D01*
X1047278D02*
X1050580D01*
X1038134D02*
X1042198D01*
X1066328Y1442454D02*
X1070646D01*
X1059724D02*
X1061502D01*
X1054644D02*
X1057946D01*
X1051850D02*
X1053120D01*
X1047278D02*
X1050580D01*
X1038388D02*
X1042706D01*
X1065820Y1442708D02*
X1070138D01*
X1059978D02*
X1061248D01*
X1054644D02*
X1057946D01*
X1051850D02*
X1053120D01*
X1047278D02*
X1050326D01*
X1038896D02*
X1043214D01*
X1065058Y1442962D02*
X1069630D01*
X1060232D02*
X1061248D01*
X1054644D02*
X1057692D01*
X1051850D02*
X1053120D01*
X1047532D02*
X1050326D01*
X1039404D02*
X1043976D01*
X1064550Y1443216D02*
X1069122D01*
X1054644D02*
X1057692D01*
X1051850D02*
X1053120D01*
X1048040D02*
X1049818D01*
X1039912D02*
X1044738D01*
X1063788Y1443470D02*
X1068614D01*
X1054644D02*
X1057438D01*
X1051850D02*
X1053120D01*
X1040420D02*
X1045246D01*
X1062772Y1443724D02*
X1068106D01*
X1054644D02*
X1056930D01*
X1052104D02*
X1052866D01*
X1040928D02*
X1046262D01*
X1062010Y1443978D02*
X1067598D01*
X1041436D02*
X1047024D01*
X1060994Y1444232D02*
X1067090D01*
X1041944D02*
X1048040D01*
X1059724Y1444486D02*
X1066582D01*
X1042452D02*
X1049310D01*
X1058200Y1444740D02*
X1065820D01*
X1043214D02*
X1051088D01*
X1043976Y1444994D02*
X1065058D01*
X1044738Y1445248D02*
X1064296D01*
X1045500Y1445502D02*
X1063534D01*
X1046516Y1445756D02*
X1062518D01*
X1047532Y1446010D02*
X1061502D01*
X1048802Y1446264D02*
X1060232D01*
X1050326Y1446518D02*
X1058708D01*
D20*
X679500Y1282125D02*
Y1275354D01*
X680854Y1274000D01*
X683563D01*
X684917Y1275354D01*
Y1282125D01*
X687625Y1274000D02*
Y1279417D01*
X690334Y1282125D01*
X693042Y1279417D01*
Y1274000D01*
Y1278063D01*
X687625D01*
X695751Y1274000D02*
Y1282125D01*
X699814D01*
X701168Y1280771D01*
Y1278063D01*
X699814Y1276708D01*
X695751D01*
X698459D02*
X701168Y1274000D01*
X703876Y1282125D02*
X709293D01*
X706585D01*
Y1274000D01*
X708500Y1314000D02*
Y1322125D01*
X712563D01*
X713917Y1320771D01*
Y1318063D01*
X712563Y1316708D01*
X708500D01*
X711208D02*
X713917Y1314000D01*
X716625Y1322125D02*
X722042Y1314000D01*
Y1322125D02*
X716625Y1314000D01*
X708500Y1348375D02*
X713917D01*
X711208D01*
Y1340250D01*
X716625Y1348375D02*
X722042Y1340250D01*
Y1348375D02*
X716625Y1340250D01*
X677917Y1598375D02*
X672500D01*
Y1594313D01*
X675209D01*
X672500D01*
Y1590250D01*
X680625Y1598375D02*
Y1590250D01*
X684688D01*
X686042Y1591604D01*
Y1597021D01*
X684688Y1598375D01*
X680625D01*
X688751Y1588896D02*
X694168D01*
X696876Y1598375D02*
X702293D01*
X699585D01*
Y1590250D01*
X705002Y1598375D02*
Y1590250D01*
X710418D01*
X1296167Y1628875D02*
X1290750D01*
Y1624813D01*
X1293459D01*
X1290750D01*
Y1620750D01*
X1298875Y1628875D02*
Y1620750D01*
X1302938D01*
X1304292Y1622104D01*
Y1627521D01*
X1302938Y1628875D01*
X1298875D01*
X1307001Y1619396D02*
X1312418D01*
X1315126Y1628875D02*
X1320543D01*
X1317835D01*
Y1620750D01*
X1323252D02*
Y1628875D01*
X1327314D01*
X1328669Y1627521D01*
Y1624813D01*
X1327314Y1623458D01*
X1323252D01*
X1325960D02*
X1328669Y1620750D01*
X1476417Y903875D02*
X1471000D01*
Y899813D01*
X1473708D01*
X1471000D01*
Y895750D01*
X1479125Y903875D02*
Y895750D01*
X1483188D01*
X1484542Y897104D01*
Y902521D01*
X1483188Y903875D01*
X1479125D01*
X1487251Y894396D02*
X1492668D01*
X1495376Y903875D02*
Y895750D01*
X1499439D01*
X1500793Y897104D01*
Y898458D01*
X1499439Y899813D01*
X1495376D01*
X1499439D01*
X1500793Y901167D01*
Y902521D01*
X1499439Y903875D01*
X1495376D01*
X1503501Y895750D02*
Y903875D01*
X1507564D01*
X1508918Y902521D01*
Y899813D01*
X1507564Y898458D01*
X1503501D01*
X1506210D02*
X1508918Y895750D01*
X762917Y1374021D02*
X761563Y1375375D01*
X758854D01*
X757500Y1374021D01*
Y1368604D01*
X758854Y1367250D01*
X761563D01*
X762917Y1368604D01*
Y1371313D01*
X760209D01*
X765625Y1367250D02*
Y1375375D01*
X771042Y1367250D01*
Y1375375D01*
X773751D02*
Y1367250D01*
X777813D01*
X779168Y1368604D01*
Y1374021D01*
X777813Y1375375D01*
X773751D01*
X762373Y1234271D02*
X761019Y1235625D01*
X758310D01*
X756956Y1234271D01*
Y1228854D01*
X758310Y1227500D01*
X761019D01*
X762373Y1228854D01*
Y1231563D01*
X759664D01*
X765081Y1227500D02*
Y1235625D01*
X770498Y1227500D01*
Y1235625D01*
X773207D02*
Y1227500D01*
X777269D01*
X778624Y1228854D01*
Y1234271D01*
X777269Y1235625D01*
X773207D01*
X687057Y1036021D02*
X685702Y1037375D01*
X682994D01*
X681640Y1036021D01*
Y1030604D01*
X682994Y1029250D01*
X685702D01*
X687057Y1030604D01*
Y1033313D01*
X684348D01*
X689765Y1029250D02*
Y1037375D01*
X695182Y1029250D01*
Y1037375D01*
X697890D02*
Y1029250D01*
X701953D01*
X703307Y1030604D01*
Y1036021D01*
X701953Y1037375D01*
X697890D01*
X925643Y957271D02*
X924288Y958625D01*
X921580D01*
X920226Y957271D01*
Y951854D01*
X921580Y950500D01*
X924288D01*
X925643Y951854D01*
Y954563D01*
X922934D01*
X928351Y950500D02*
Y958625D01*
X933768Y950500D01*
Y958625D01*
X936477D02*
Y950500D01*
X940539D01*
X941893Y951854D01*
Y957271D01*
X940539Y958625D01*
X936477D01*
X1116373Y1331521D02*
X1115018Y1332875D01*
X1112310D01*
X1110956Y1331521D01*
Y1326104D01*
X1112310Y1324750D01*
X1115018D01*
X1116373Y1326104D01*
Y1328813D01*
X1113664D01*
X1119081Y1324750D02*
Y1332875D01*
X1124498Y1324750D01*
Y1332875D01*
X1127207D02*
Y1324750D01*
X1131269D01*
X1132624Y1326104D01*
Y1331521D01*
X1131269Y1332875D01*
X1127207D01*
X1389373Y1530021D02*
X1388018Y1531375D01*
X1385310D01*
X1383956Y1530021D01*
Y1524604D01*
X1385310Y1523250D01*
X1388018D01*
X1389373Y1524604D01*
Y1527313D01*
X1386664D01*
X1392081Y1523250D02*
Y1531375D01*
X1397498Y1523250D01*
Y1531375D01*
X1400207D02*
Y1523250D01*
X1404269D01*
X1405623Y1524604D01*
Y1530021D01*
X1404269Y1531375D01*
X1400207D01*
X827896Y1615813D02*
X833313D01*
X830605Y1618521D02*
Y1613104D01*
X836022Y1619875D02*
X841439D01*
Y1618521D01*
X836022Y1613104D01*
Y1611750D01*
X841439D01*
X880646Y1628313D02*
X886063D01*
X883355Y1631021D02*
Y1625604D01*
X888772Y1632375D02*
X894189Y1624250D01*
Y1632375D02*
X888772Y1624250D01*
X843646Y1664813D02*
X849063D01*
X846355Y1667521D02*
Y1662104D01*
X851772Y1668875D02*
Y1667521D01*
X854480Y1664813D01*
X857189Y1667521D01*
Y1668875D01*
X854480Y1664813D02*
Y1660750D01*
X983417Y1690521D02*
X982063Y1691875D01*
X979354D01*
X978000Y1690521D01*
Y1685104D01*
X979354Y1683750D01*
X982063D01*
X983417Y1685104D01*
Y1687813D01*
X980708D01*
X986125Y1683750D02*
Y1691875D01*
X991542Y1683750D01*
Y1691875D01*
X994251D02*
Y1683750D01*
X998313D01*
X999668Y1685104D01*
Y1690521D01*
X998313Y1691875D01*
X994251D01*
X791750Y1416715D02*
Y1408590D01*
X795813D01*
X797167Y1409944D01*
Y1415361D01*
X795813Y1416715D01*
X791750D01*
X799875D02*
Y1411298D01*
X802584Y1408590D01*
X805292Y1411298D01*
Y1416715D01*
X813418Y1415361D02*
X812064Y1416715D01*
X809355D01*
X808001Y1415361D01*
Y1409944D01*
X809355Y1408590D01*
X812064D01*
X813418Y1409944D01*
X821543Y1415361D02*
X820189Y1416715D01*
X817480D01*
X816126Y1415361D01*
Y1409944D01*
X817480Y1408590D01*
X820189D01*
X821543Y1409944D01*
X799368Y1420670D02*
Y1426087D01*
X802076Y1428795D01*
X804784Y1426087D01*
Y1420670D01*
Y1424733D01*
X799368D01*
X807493Y1420670D02*
Y1428795D01*
X812910Y1420670D01*
Y1428795D01*
X815618D02*
X821035D01*
X818327D01*
Y1420670D01*
X799368Y1440987D02*
Y1432862D01*
X803430D01*
X804784Y1434216D01*
Y1435570D01*
X803430Y1436925D01*
X799368D01*
X803430D01*
X804784Y1438279D01*
Y1439633D01*
X803430Y1440987D01*
X799368D01*
X807493Y1432862D02*
Y1438279D01*
X810201Y1440987D01*
X812910Y1438279D01*
Y1432862D01*
Y1436925D01*
X807493D01*
X815618Y1440987D02*
X821035D01*
X818327D01*
Y1432862D01*
X798437Y1457295D02*
X797082Y1458649D01*
X794374D01*
X793020Y1457295D01*
Y1451878D01*
X794374Y1450524D01*
X797082D01*
X798437Y1451878D01*
Y1454587D01*
X795728D01*
X801145Y1450524D02*
Y1458649D01*
X805208D01*
X806562Y1457295D01*
Y1454587D01*
X805208Y1453233D01*
X801145D01*
X809270Y1458649D02*
X811979D01*
X810625D01*
Y1450524D01*
X809270D01*
X811979D01*
X820104Y1458649D02*
X817396D01*
X816041Y1457295D01*
Y1451878D01*
X817396Y1450524D01*
X820104D01*
X821458Y1451878D01*
Y1457295D01*
X820104Y1458649D01*
X807324Y1480045D02*
X805969Y1481399D01*
X803261D01*
X801907Y1480045D01*
Y1478691D01*
X803261Y1477337D01*
X805969D01*
X807324Y1475982D01*
Y1474628D01*
X805969Y1473274D01*
X803261D01*
X801907Y1474628D01*
X810032Y1473274D02*
Y1481399D01*
X814095D01*
X815449Y1480045D01*
Y1477337D01*
X814095Y1475982D01*
X810032D01*
X818158Y1481399D02*
X820866D01*
X819512D01*
Y1473274D01*
X818158D01*
X820866D01*
X812402Y1504795D02*
X811048Y1506149D01*
X808339D01*
X806985Y1504795D01*
Y1499378D01*
X808339Y1498024D01*
X811048D01*
X812402Y1499378D01*
X820527Y1504795D02*
X819173Y1506149D01*
X816465D01*
X815110Y1504795D01*
Y1503441D01*
X816465Y1502087D01*
X819173D01*
X820527Y1500732D01*
Y1499378D01*
X819173Y1498024D01*
X816465D01*
X815110Y1499378D01*
X947167Y1426601D02*
X945813Y1427955D01*
X943104D01*
X941750Y1426601D01*
Y1421184D01*
X943104Y1419830D01*
X945813D01*
X947167Y1421184D01*
Y1423893D01*
X944458D01*
X949875Y1419830D02*
Y1427955D01*
X955292Y1419830D01*
Y1427955D01*
X958001D02*
Y1419830D01*
X962064D01*
X963418Y1421184D01*
Y1426601D01*
X962064Y1427955D01*
X958001D01*
X947167Y1454521D02*
X945813Y1455875D01*
X943104D01*
X941750Y1454521D01*
Y1449104D01*
X943104Y1447750D01*
X945813D01*
X947167Y1449104D01*
Y1451813D01*
X944458D01*
X949875Y1447750D02*
Y1455875D01*
X953938D01*
X955292Y1454521D01*
Y1451813D01*
X953938Y1450459D01*
X949875D01*
X958001Y1455875D02*
X960709D01*
X959355D01*
Y1447750D01*
X958001D01*
X960709D01*
X968835Y1455875D02*
X966126D01*
X964772Y1454521D01*
Y1449104D01*
X966126Y1447750D01*
X968835D01*
X970189Y1449104D01*
Y1454521D01*
X968835Y1455875D01*
X941750Y1470750D02*
Y1476167D01*
X944458Y1478875D01*
X947167Y1476167D01*
Y1470750D01*
Y1474813D01*
X941750D01*
X949875Y1478875D02*
Y1470750D01*
X953938D01*
X955292Y1472104D01*
Y1477521D01*
X953938Y1478875D01*
X949875D01*
X963418Y1477521D02*
X962064Y1478875D01*
X959355D01*
X958001Y1477521D01*
Y1472104D01*
X959355Y1470750D01*
X962064D01*
X963418Y1472104D01*
X941750Y1503375D02*
X944458D01*
X943104D01*
Y1495250D01*
X941750D01*
X944458D01*
X953938D02*
X948521D01*
X953938Y1500667D01*
Y1502021D01*
X952584Y1503375D01*
X949875D01*
X948521Y1502021D01*
X962063D02*
X960709Y1503375D01*
X958001D01*
X956646Y1502021D01*
Y1496604D01*
X958001Y1495250D01*
X960709D01*
X962063Y1496604D01*
X1317750Y1679181D02*
Y1671056D01*
X1321813D01*
X1323167Y1672410D01*
Y1677827D01*
X1321813Y1679181D01*
X1317750D01*
X1325875Y1669702D02*
X1331292D01*
X1334001Y1679181D02*
Y1671056D01*
X1338063D01*
X1339418Y1672410D01*
Y1673764D01*
X1338063Y1675119D01*
X1334001D01*
X1338063D01*
X1339418Y1676473D01*
Y1677827D01*
X1338063Y1679181D01*
X1334001D01*
X1346189D02*
X1343480D01*
X1342126Y1677827D01*
Y1672410D01*
X1343480Y1671056D01*
X1346189D01*
X1347543Y1672410D01*
Y1677827D01*
X1346189Y1679181D01*
X1350251Y1671056D02*
Y1676473D01*
X1352960Y1679181D01*
X1355668Y1676473D01*
Y1671056D01*
Y1675119D01*
X1350251D01*
X1358377Y1671056D02*
Y1679181D01*
X1362440D01*
X1363794Y1677827D01*
Y1675119D01*
X1362440Y1673764D01*
X1358377D01*
X1361085D02*
X1363794Y1671056D01*
X1366502Y1679181D02*
Y1671056D01*
X1370565D01*
X1371919Y1672410D01*
Y1677827D01*
X1370565Y1679181D01*
X1366502D01*
X1374628Y1669702D02*
X1380045D01*
X1388170Y1677827D02*
X1386816Y1679181D01*
X1384107D01*
X1382753Y1677827D01*
Y1672410D01*
X1384107Y1671056D01*
X1386816D01*
X1388170Y1672410D01*
Y1675119D01*
X1385461D01*
X1390878Y1671056D02*
Y1679181D01*
X1396295Y1671056D01*
Y1679181D01*
X1399004D02*
Y1671056D01*
X1403067D01*
X1404421Y1672410D01*
Y1677827D01*
X1403067Y1679181D01*
X1399004D01*
X915229Y895957D02*
X913875Y894603D01*
Y891894D01*
X915229Y890540D01*
X920646D01*
X922000Y891894D01*
Y894603D01*
X920646Y895957D01*
X917937D01*
Y893248D01*
X922000Y898665D02*
X913875D01*
X922000Y904082D01*
X913875D01*
Y906791D02*
X922000D01*
Y910853D01*
X920646Y912208D01*
X915229D01*
X913875Y910853D01*
Y906791D01*
X908797Y890540D02*
X900672D01*
Y894603D01*
X902026Y895957D01*
X904735D01*
X906089Y894603D01*
Y890540D01*
Y893248D02*
X908797Y895957D01*
X900672Y898665D02*
X908797Y904082D01*
X900672D02*
X908797Y898665D01*
X888160Y890540D02*
Y895957D01*
Y893249D01*
X896286D01*
X888160Y898665D02*
X896286Y904082D01*
X888160D02*
X896286Y898665D01*
X875648Y890540D02*
Y895957D01*
Y893248D01*
X883774D01*
X877003Y904082D02*
X875648Y902728D01*
Y900020D01*
X877003Y898665D01*
X882420D01*
X883774Y900020D01*
Y902728D01*
X882420Y904082D01*
X875648Y906791D02*
X883774D01*
X881065D01*
X875648Y912208D01*
X879711Y908145D01*
X883774Y912208D01*
X863137Y890540D02*
Y895957D01*
Y893248D01*
X871262D01*
X863137Y898665D02*
X871262D01*
Y902728D01*
X869908Y904082D01*
X864491D01*
X863137Y902728D01*
Y898665D01*
Y910853D02*
Y908145D01*
X864491Y906791D01*
X869908D01*
X871262Y908145D01*
Y910853D01*
X869908Y912208D01*
X864491D01*
X863137Y910853D01*
X850625Y890540D02*
X856041D01*
X858750Y893248D01*
X856041Y895957D01*
X850625D01*
X851979Y904082D02*
X850625Y902728D01*
Y900020D01*
X851979Y898665D01*
X857396D01*
X858750Y900020D01*
Y902728D01*
X857396Y904082D01*
X851979Y912208D02*
X850625Y910853D01*
Y908145D01*
X851979Y906791D01*
X857396D01*
X858750Y908145D01*
Y910853D01*
X857396Y912208D01*
X742750Y1202250D02*
Y1207667D01*
X745459Y1210375D01*
X748167Y1207667D01*
Y1202250D01*
Y1206313D01*
X742750D01*
X750875Y1202250D02*
Y1210375D01*
X756292Y1202250D01*
Y1210375D01*
X759001D02*
X764418D01*
X761709D01*
Y1202250D01*
X767126Y1200896D02*
X772543D01*
X775251Y1210375D02*
Y1204958D01*
X777960Y1202250D01*
X780668Y1204958D01*
Y1210375D01*
X788794Y1209021D02*
X787440Y1210375D01*
X784731D01*
X783377Y1209021D01*
Y1203604D01*
X784731Y1202250D01*
X787440D01*
X788794Y1203604D01*
X796919Y1209021D02*
X795565Y1210375D01*
X792857D01*
X791502Y1209021D01*
Y1203604D01*
X792857Y1202250D01*
X795565D01*
X796919Y1203604D01*
X742750Y1189704D02*
Y1195121D01*
X745459Y1197829D01*
X748167Y1195121D01*
Y1189704D01*
Y1193767D01*
X742750D01*
X750875Y1189704D02*
Y1197829D01*
X756292Y1189704D01*
Y1197829D01*
X759001D02*
X764418D01*
X761709D01*
Y1189704D01*
X767126Y1188350D02*
X772543D01*
X775251Y1197829D02*
Y1192412D01*
X777960Y1189704D01*
X780668Y1192412D01*
Y1197829D01*
X788794Y1196475D02*
X787440Y1197829D01*
X784731D01*
X783377Y1196475D01*
Y1191058D01*
X784731Y1189704D01*
X787440D01*
X788794Y1191058D01*
X796919Y1196475D02*
X795565Y1197829D01*
X792857D01*
X791502Y1196475D01*
Y1191058D01*
X792857Y1189704D01*
X795565D01*
X796919Y1191058D01*
X742750Y1185283D02*
X745459D01*
X744104D01*
Y1177158D01*
X742750D01*
X745459D01*
X754938D02*
X749521D01*
X754938Y1182575D01*
Y1183929D01*
X753584Y1185283D01*
X750875D01*
X749521Y1183929D01*
X763063D02*
X761709Y1185283D01*
X759001D01*
X757646Y1183929D01*
Y1178512D01*
X759001Y1177158D01*
X761709D01*
X763063Y1178512D01*
X765772Y1175804D02*
X771189D01*
X779314Y1183929D02*
X777960Y1185283D01*
X775251D01*
X773897Y1183929D01*
Y1182575D01*
X775251Y1181220D01*
X777960D01*
X779314Y1179866D01*
Y1178512D01*
X777960Y1177158D01*
X775251D01*
X773897Y1178512D01*
X782023Y1185283D02*
Y1177158D01*
X786085D01*
X787440Y1178512D01*
Y1183929D01*
X786085Y1185283D01*
X782023D01*
X790148Y1177158D02*
Y1182575D01*
X792857Y1185283D01*
X795565Y1182575D01*
Y1177158D01*
Y1181220D01*
X790148D01*
X742750Y1172737D02*
X745459D01*
X744104D01*
Y1164612D01*
X742750D01*
X745459D01*
X754938D02*
X749521D01*
X754938Y1170029D01*
Y1171383D01*
X753584Y1172737D01*
X750875D01*
X749521Y1171383D01*
X763063D02*
X761709Y1172737D01*
X759001D01*
X757646Y1171383D01*
Y1165966D01*
X759001Y1164612D01*
X761709D01*
X763063Y1165966D01*
X765772Y1163258D02*
X771189D01*
X779314Y1171383D02*
X777960Y1172737D01*
X775251D01*
X773897Y1171383D01*
Y1170029D01*
X775251Y1168674D01*
X777960D01*
X779314Y1167320D01*
Y1165966D01*
X777960Y1164612D01*
X775251D01*
X773897Y1165966D01*
X787440Y1171383D02*
X786085Y1172737D01*
X783377D01*
X782023Y1171383D01*
Y1165966D01*
X783377Y1164612D01*
X786085D01*
X787440Y1165966D01*
X790148Y1172737D02*
Y1164612D01*
X795565D01*
X748167Y1157567D02*
X746813Y1158922D01*
X744104D01*
X742750Y1157567D01*
Y1152150D01*
X744104Y1150796D01*
X746813D01*
X748167Y1152150D01*
Y1154859D01*
X745459D01*
X750875Y1150796D02*
Y1158922D01*
X754938D01*
X756292Y1157567D01*
Y1154859D01*
X754938Y1153504D01*
X750875D01*
X759001Y1158922D02*
X761709D01*
X760355D01*
Y1150796D01*
X759001D01*
X761709D01*
X769835Y1158922D02*
X767126D01*
X765772Y1157567D01*
Y1152150D01*
X767126Y1150796D01*
X769835D01*
X771189Y1152150D01*
Y1157567D01*
X769835Y1158922D01*
X748167Y1145021D02*
X746813Y1146375D01*
X744104D01*
X742750Y1145021D01*
Y1139604D01*
X744104Y1138250D01*
X746813D01*
X748167Y1139604D01*
Y1142313D01*
X745459D01*
X750875Y1138250D02*
Y1146375D01*
X756292Y1138250D01*
Y1146375D01*
X759001D02*
Y1138250D01*
X763063D01*
X764418Y1139604D01*
Y1145021D01*
X763063Y1146375D01*
X759001D01*
X715417Y1400521D02*
X714063Y1401875D01*
X711354D01*
X710000Y1400521D01*
Y1395104D01*
X711354Y1393750D01*
X714063D01*
X715417Y1395104D01*
Y1397813D01*
X712709D01*
X718125Y1393750D02*
Y1401875D01*
X723542Y1393750D01*
Y1401875D01*
X726251D02*
Y1393750D01*
X730313D01*
X731668Y1395104D01*
Y1400521D01*
X730313Y1401875D01*
X726251D01*
X715417Y1425632D02*
X714063Y1426987D01*
X711354D01*
X710000Y1425632D01*
Y1420216D01*
X711354Y1418861D01*
X714063D01*
X715417Y1420216D01*
Y1422924D01*
X712709D01*
X718125Y1418861D02*
Y1426987D01*
X722188D01*
X723542Y1425632D01*
Y1422924D01*
X722188Y1421570D01*
X718125D01*
X726251Y1426987D02*
X728959D01*
X727605D01*
Y1418861D01*
X726251D01*
X728959D01*
X737085Y1426987D02*
X734376D01*
X733022Y1425632D01*
Y1420216D01*
X734376Y1418861D01*
X737085D01*
X738439Y1420216D01*
Y1425632D01*
X737085Y1426987D01*
X710000Y1453791D02*
X712709D01*
X711354D01*
Y1445666D01*
X710000D01*
X712709D01*
X722188D02*
X716771D01*
X722188Y1451082D01*
Y1452437D01*
X720834Y1453791D01*
X718125D01*
X716771Y1452437D01*
X730313D02*
X728959Y1453791D01*
X726251D01*
X724896Y1452437D01*
Y1447020D01*
X726251Y1445666D01*
X728959D01*
X730313Y1447020D01*
X733022Y1444311D02*
X738439D01*
X746564Y1452437D02*
X745210Y1453791D01*
X742502D01*
X741147Y1452437D01*
Y1451082D01*
X742502Y1449728D01*
X745210D01*
X746564Y1448374D01*
Y1447020D01*
X745210Y1445666D01*
X742502D01*
X741147Y1447020D01*
X754690Y1452437D02*
X753335Y1453791D01*
X750627D01*
X749273Y1452437D01*
Y1447020D01*
X750627Y1445666D01*
X753335D01*
X754690Y1447020D01*
X757398Y1453791D02*
Y1445666D01*
X762815D01*
X710000Y1478902D02*
X712709D01*
X711354D01*
Y1470777D01*
X710000D01*
X712709D01*
X722188D02*
X716771D01*
X722188Y1476194D01*
Y1477548D01*
X720834Y1478902D01*
X718125D01*
X716771Y1477548D01*
X730313D02*
X728959Y1478902D01*
X726251D01*
X724896Y1477548D01*
Y1472131D01*
X726251Y1470777D01*
X728959D01*
X730313Y1472131D01*
X733022Y1469423D02*
X738439D01*
X746564Y1477548D02*
X745210Y1478902D01*
X742502D01*
X741147Y1477548D01*
Y1476194D01*
X742502Y1474840D01*
X745210D01*
X746564Y1473486D01*
Y1472131D01*
X745210Y1470777D01*
X742502D01*
X741147Y1472131D01*
X749273Y1478902D02*
Y1470777D01*
X753335D01*
X754690Y1472131D01*
Y1477548D01*
X753335Y1478902D01*
X749273D01*
X757398Y1470777D02*
Y1476194D01*
X760107Y1478902D01*
X762815Y1476194D01*
Y1470777D01*
Y1474840D01*
X757398D01*
X710000Y1495889D02*
Y1501305D01*
X712709Y1504014D01*
X715417Y1501305D01*
Y1495889D01*
Y1499951D01*
X710000D01*
X718125Y1495889D02*
Y1504014D01*
X723542Y1495889D01*
Y1504014D01*
X726251D02*
X731668D01*
X728959D01*
Y1495889D01*
X734376Y1494534D02*
X739793D01*
X742502Y1504014D02*
Y1498597D01*
X745210Y1495889D01*
X747918Y1498597D01*
Y1504014D01*
X756044Y1502660D02*
X754690Y1504014D01*
X751981D01*
X750627Y1502660D01*
Y1497243D01*
X751981Y1495889D01*
X754690D01*
X756044Y1497243D01*
X764169Y1502660D02*
X762815Y1504014D01*
X760107D01*
X758752Y1502660D01*
Y1497243D01*
X760107Y1495889D01*
X762815D01*
X764169Y1497243D01*
X710000Y1521000D02*
Y1526417D01*
X712709Y1529125D01*
X715417Y1526417D01*
Y1521000D01*
Y1525063D01*
X710000D01*
X718125Y1521000D02*
Y1529125D01*
X723542Y1521000D01*
Y1529125D01*
X726251D02*
X731668D01*
X728959D01*
Y1521000D01*
X734376Y1519646D02*
X739793D01*
X742502Y1529125D02*
Y1523708D01*
X745210Y1521000D01*
X747918Y1523708D01*
Y1529125D01*
X756044Y1527771D02*
X754690Y1529125D01*
X751981D01*
X750627Y1527771D01*
Y1522354D01*
X751981Y1521000D01*
X754690D01*
X756044Y1522354D01*
X764169Y1527771D02*
X762815Y1529125D01*
X760107D01*
X758752Y1527771D01*
Y1522354D01*
X760107Y1521000D01*
X762815D01*
X764169Y1522354D01*
X1231167Y842375D02*
X1228458D01*
X1229813D01*
Y835604D01*
X1228458Y834250D01*
X1227104D01*
X1225750Y835604D01*
X1233875Y832896D02*
X1239292D01*
X1247418Y841021D02*
X1246063Y842375D01*
X1243355D01*
X1242001Y841021D01*
Y839667D01*
X1243355Y838313D01*
X1246063D01*
X1247418Y836958D01*
Y835604D01*
X1246063Y834250D01*
X1243355D01*
X1242001Y835604D01*
X1250126Y842375D02*
Y835604D01*
X1251480Y834250D01*
X1254189D01*
X1255543Y835604D01*
Y842375D01*
X1258251Y834250D02*
Y842375D01*
X1262314D01*
X1263668Y841021D01*
Y838313D01*
X1262314Y836958D01*
X1258251D01*
X1266377Y834250D02*
Y842375D01*
X1270440D01*
X1271794Y841021D01*
Y838313D01*
X1270440Y836958D01*
X1266377D01*
X1274502Y842375D02*
Y834250D01*
X1279919D01*
X1282628Y842375D02*
Y841021D01*
X1285336Y838313D01*
X1288045Y841021D01*
Y842375D01*
X1285336Y838313D02*
Y834250D01*
X803167Y877875D02*
X800458D01*
X801813D01*
Y871104D01*
X800458Y869750D01*
X799104D01*
X797750Y871104D01*
X805875Y877875D02*
X811292D01*
X808584D01*
Y869750D01*
X814001D02*
Y875167D01*
X816709Y877875D01*
X819418Y875167D01*
Y869750D01*
Y873813D01*
X814001D01*
X827543Y876521D02*
X826189Y877875D01*
X823480D01*
X822126Y876521D01*
Y871104D01*
X823480Y869750D01*
X826189D01*
X827543Y871104D01*
Y873813D01*
X824835D01*
X1021167Y897375D02*
X1018458D01*
X1019813D01*
Y890604D01*
X1018458Y889250D01*
X1017104D01*
X1015750Y890604D01*
X1023875Y897375D02*
X1029292D01*
X1026584D01*
Y889250D01*
X1032001D02*
Y894667D01*
X1034709Y897375D01*
X1037418Y894667D01*
Y889250D01*
Y893313D01*
X1032001D01*
X1045543Y896021D02*
X1044189Y897375D01*
X1041480D01*
X1040126Y896021D01*
Y890604D01*
X1041480Y889250D01*
X1044189D01*
X1045543Y890604D01*
Y893313D01*
X1042835D01*
X679500Y1088000D02*
Y1093417D01*
X682208Y1096125D01*
X684917Y1093417D01*
Y1088000D01*
Y1092063D01*
X679500D01*
X687625Y1088000D02*
Y1096125D01*
X693042Y1088000D01*
Y1096125D01*
X695751D02*
X701168D01*
X698459D01*
Y1088000D01*
X677000Y1370500D02*
Y1375917D01*
X679708Y1378625D01*
X682417Y1375917D01*
Y1370500D01*
Y1374563D01*
X677000D01*
X685125Y1370500D02*
Y1378625D01*
X690542Y1370500D01*
Y1378625D01*
X693251D02*
X698668D01*
X695959D01*
Y1370500D01*
X844250Y1394875D02*
Y1386750D01*
X848313D01*
X849667Y1388104D01*
Y1393521D01*
X848313Y1394875D01*
X844250D01*
X852375Y1385396D02*
X857792D01*
X860501Y1394875D02*
Y1386750D01*
X864563D01*
X865918Y1388104D01*
Y1389458D01*
X864563Y1390813D01*
X860501D01*
X864563D01*
X865918Y1392167D01*
Y1393521D01*
X864563Y1394875D01*
X860501D01*
X872689D02*
X869980D01*
X868626Y1393521D01*
Y1388104D01*
X869980Y1386750D01*
X872689D01*
X874043Y1388104D01*
Y1393521D01*
X872689Y1394875D01*
X876751Y1386750D02*
Y1392167D01*
X879460Y1394875D01*
X882168Y1392167D01*
Y1386750D01*
Y1390813D01*
X876751D01*
X884877Y1386750D02*
Y1394875D01*
X888940D01*
X890294Y1393521D01*
Y1390813D01*
X888940Y1389458D01*
X884877D01*
X887585D02*
X890294Y1386750D01*
X893002Y1394875D02*
Y1386750D01*
X897065D01*
X898419Y1388104D01*
Y1393521D01*
X897065Y1394875D01*
X893002D01*
X1079646Y1508494D02*
X1074229D01*
X1071520Y1511202D01*
X1074229Y1513911D01*
X1079646D01*
X1075583D01*
Y1508494D01*
X1079646Y1516619D02*
X1071520D01*
X1079646Y1522036D01*
X1071520D01*
Y1524745D02*
Y1530161D01*
Y1527453D01*
X1079646D01*
X1081000Y1532870D02*
Y1538287D01*
X1071520Y1540995D02*
X1076937D01*
X1079646Y1543704D01*
X1076937Y1546412D01*
X1071520D01*
X1072875Y1554538D02*
X1071520Y1553183D01*
Y1550475D01*
X1072875Y1549121D01*
X1078291D01*
X1079646Y1550475D01*
Y1553183D01*
X1078291Y1554538D01*
X1072875Y1562663D02*
X1071520Y1561309D01*
Y1558600D01*
X1072875Y1557246D01*
X1078291D01*
X1079646Y1558600D01*
Y1561309D01*
X1078291Y1562663D01*
X1097949Y1496306D02*
Y1493597D01*
X1099303Y1492243D01*
X1104720D01*
X1106074Y1493597D01*
Y1496306D01*
X1104720Y1497660D01*
X1099303D01*
X1097949Y1496306D01*
Y1500368D02*
X1106074D01*
Y1504431D01*
X1104720Y1505785D01*
X1103366D01*
X1102012Y1504431D01*
Y1500368D01*
Y1504431D01*
X1100657Y1505785D01*
X1099303D01*
X1097949Y1504431D01*
Y1500368D01*
Y1508494D02*
X1106074D01*
Y1512556D01*
X1104720Y1513911D01*
X1099303D01*
X1097949Y1512556D01*
Y1508494D01*
Y1516619D02*
X1106074D01*
X1102012D01*
Y1522036D01*
X1097949D01*
X1106074D01*
X1107429Y1524745D02*
Y1530161D01*
X1097949Y1532870D02*
X1106074D01*
Y1536933D01*
X1104720Y1538287D01*
X1099303D01*
X1097949Y1536933D01*
Y1532870D01*
Y1540995D02*
X1103366D01*
X1106074Y1543704D01*
X1103366Y1546412D01*
X1097949D01*
X1099303Y1554538D02*
X1097949Y1553183D01*
Y1550475D01*
X1099303Y1549121D01*
X1104720D01*
X1106074Y1550475D01*
Y1553183D01*
X1104720Y1554538D01*
X1099303Y1562663D02*
X1097949Y1561309D01*
Y1558600D01*
X1099303Y1557246D01*
X1104720D01*
X1106074Y1558600D01*
Y1561309D01*
X1104720Y1562663D01*
X1124378Y1501723D02*
X1131149D01*
X1132503Y1503077D01*
Y1505785D01*
X1131149Y1507139D01*
X1124378D01*
X1132503Y1509848D02*
X1127086D01*
X1124378Y1512556D01*
X1127086Y1515265D01*
X1132503D01*
X1128440D01*
Y1509848D01*
X1132503Y1517973D02*
X1124378D01*
Y1522036D01*
X1125732Y1523390D01*
X1128440D01*
X1129794Y1522036D01*
Y1517973D01*
Y1520682D02*
X1132503Y1523390D01*
X1124378Y1526099D02*
Y1531516D01*
Y1528807D01*
X1132503D01*
Y1534224D02*
Y1536933D01*
Y1535578D01*
X1124378D01*
X1125732Y1534224D01*
X1133857Y1540995D02*
Y1546412D01*
X1124378Y1549121D02*
Y1554538D01*
Y1551829D01*
X1132503D01*
X1124378Y1557246D02*
X1132503Y1562663D01*
X1124378D02*
X1132503Y1557246D01*
X1150806Y1501723D02*
X1157577D01*
X1158932Y1503077D01*
Y1505785D01*
X1157577Y1507139D01*
X1150806D01*
X1158932Y1509848D02*
X1153515D01*
X1150806Y1512556D01*
X1153515Y1515265D01*
X1158932D01*
X1154869D01*
Y1509848D01*
X1158932Y1517973D02*
X1150806D01*
Y1522036D01*
X1152160Y1523390D01*
X1154869D01*
X1156223Y1522036D01*
Y1517973D01*
Y1520682D02*
X1158932Y1523390D01*
X1150806Y1526099D02*
Y1531516D01*
Y1528807D01*
X1158932D01*
Y1534224D02*
Y1536933D01*
Y1535578D01*
X1150806D01*
X1152160Y1534224D01*
X1160286Y1540995D02*
Y1546412D01*
X1158932Y1549121D02*
X1150806D01*
Y1553183D01*
X1152160Y1554538D01*
X1154869D01*
X1156223Y1553183D01*
Y1549121D01*
Y1551829D02*
X1158932Y1554538D01*
X1150806Y1557246D02*
X1158932Y1562663D01*
X1150806D02*
X1158932Y1557246D01*
X1177235Y1500368D02*
X1184006D01*
X1185360Y1501723D01*
Y1504431D01*
X1184006Y1505785D01*
X1177235D01*
X1185360Y1508494D02*
X1179943D01*
X1177235Y1511202D01*
X1179943Y1513911D01*
X1185360D01*
X1181297D01*
Y1508494D01*
X1185360Y1516619D02*
X1177235D01*
Y1520682D01*
X1178589Y1522036D01*
X1181297D01*
X1182652Y1520682D01*
Y1516619D01*
Y1519328D02*
X1185360Y1522036D01*
X1177235Y1524744D02*
Y1530161D01*
Y1527453D01*
X1185360D01*
X1178589Y1532870D02*
X1177235Y1534224D01*
Y1536933D01*
X1178589Y1538287D01*
X1184006D01*
X1185360Y1536933D01*
Y1534224D01*
X1184006Y1532870D01*
X1178589D01*
X1186714Y1540995D02*
Y1546412D01*
X1177235Y1549121D02*
Y1554538D01*
Y1551829D01*
X1185360D01*
X1177235Y1557246D02*
X1185360Y1562663D01*
X1177235D02*
X1185360Y1557246D01*
X1203663Y1500368D02*
X1210434D01*
X1211789Y1501723D01*
Y1504431D01*
X1210434Y1505785D01*
X1203663D01*
X1211789Y1508494D02*
X1206372D01*
X1203663Y1511202D01*
X1206372Y1513911D01*
X1211789D01*
X1207726D01*
Y1508494D01*
X1211789Y1516619D02*
X1203663D01*
Y1520682D01*
X1205017Y1522036D01*
X1207726D01*
X1209080Y1520682D01*
Y1516619D01*
Y1519328D02*
X1211789Y1522036D01*
X1203663Y1524744D02*
Y1530161D01*
Y1527453D01*
X1211789D01*
X1205017Y1532870D02*
X1203663Y1534224D01*
Y1536933D01*
X1205017Y1538287D01*
X1210434D01*
X1211789Y1536933D01*
Y1534224D01*
X1210434Y1532870D01*
X1205017D01*
X1213143Y1540995D02*
Y1546412D01*
X1211789Y1549121D02*
X1203663D01*
Y1553183D01*
X1205017Y1554538D01*
X1207726D01*
X1209080Y1553183D01*
Y1549121D01*
Y1551829D02*
X1211789Y1554538D01*
X1203663Y1557246D02*
X1211789Y1562663D01*
X1203663D02*
X1211789Y1557246D01*
X1257939Y1489534D02*
X1256584Y1488180D01*
Y1485472D01*
X1257939Y1484117D01*
X1259293D01*
X1260647Y1485472D01*
Y1488180D01*
X1262001Y1489534D01*
X1263355D01*
X1264710Y1488180D01*
Y1485472D01*
X1263355Y1484117D01*
X1256584Y1492243D02*
X1257939D01*
X1260647Y1494951D01*
X1257939Y1497660D01*
X1256584D01*
X1260647Y1494951D02*
X1264710D01*
X1257939Y1505785D02*
X1256584Y1504431D01*
Y1501723D01*
X1257939Y1500368D01*
X1259293D01*
X1260647Y1501723D01*
Y1504431D01*
X1262001Y1505785D01*
X1263355D01*
X1264710Y1504431D01*
Y1501723D01*
X1263355Y1500368D01*
X1256584Y1508494D02*
Y1513911D01*
Y1511202D01*
X1264710D01*
X1256584Y1522036D02*
Y1516619D01*
X1264710D01*
Y1522036D01*
X1260647Y1516619D02*
Y1519328D01*
X1264710Y1524744D02*
X1256584D01*
X1259293Y1527453D01*
X1256584Y1530161D01*
X1264710D01*
X1266064Y1532870D02*
Y1538287D01*
X1256584Y1540995D02*
X1264710D01*
Y1546412D01*
X1256584Y1554538D02*
Y1549121D01*
X1264710D01*
Y1554538D01*
X1260647Y1549121D02*
Y1551829D01*
X1256584Y1557246D02*
X1264710D01*
Y1561309D01*
X1263355Y1562663D01*
X1257939D01*
X1256584Y1561309D01*
Y1557246D01*
X1230092Y1497660D02*
Y1492243D01*
X1234155D01*
Y1494951D01*
Y1492243D01*
X1238217D01*
Y1500368D02*
X1232800D01*
X1230092Y1503077D01*
X1232800Y1505785D01*
X1238217D01*
X1234155D01*
Y1500368D01*
X1230092Y1508494D02*
X1236863D01*
X1238217Y1509848D01*
Y1512556D01*
X1236863Y1513911D01*
X1230092D01*
Y1516619D02*
X1238217D01*
Y1522036D01*
X1230092Y1524745D02*
Y1530161D01*
Y1527453D01*
X1238217D01*
X1239571Y1532870D02*
Y1538287D01*
X1230092Y1540995D02*
X1238217D01*
Y1546412D01*
X1230092Y1554538D02*
Y1549121D01*
X1238217D01*
Y1554538D01*
X1234155Y1549121D02*
Y1551829D01*
X1230092Y1557246D02*
X1238217D01*
Y1561309D01*
X1236863Y1562663D01*
X1231446D01*
X1230092Y1561309D01*
Y1557246D01*
X1261591Y1296250D02*
Y1301667D01*
X1264300Y1304375D01*
X1267008Y1301667D01*
Y1296250D01*
Y1300313D01*
X1261591D01*
X1269717Y1304375D02*
Y1296250D01*
X1273779D01*
X1275134Y1297604D01*
Y1303021D01*
X1273779Y1304375D01*
X1269717D01*
X1277842D02*
Y1296250D01*
X1281905D01*
X1283259Y1297604D01*
Y1303021D01*
X1281905Y1304375D01*
X1277842D01*
X1285967Y1294896D02*
X1291384D01*
X1294093Y1304375D02*
X1296801D01*
X1295447D01*
Y1296250D01*
X1294093D01*
X1296801D01*
X1306281D02*
X1300864D01*
X1306281Y1301667D01*
Y1303021D01*
X1304926Y1304375D01*
X1302218D01*
X1300864Y1303021D01*
X1314406D02*
X1313052Y1304375D01*
X1310343D01*
X1308989Y1303021D01*
Y1297604D01*
X1310343Y1296250D01*
X1313052D01*
X1314406Y1297604D01*
X1317115Y1296250D02*
X1319823D01*
X1318469D01*
Y1304375D01*
X1317115Y1303021D01*
X1329000Y1430500D02*
Y1435917D01*
X1331709Y1438625D01*
X1334417Y1435917D01*
Y1430500D01*
Y1434563D01*
X1329000D01*
X1337125Y1438625D02*
Y1430500D01*
X1341188D01*
X1342542Y1431854D01*
Y1437271D01*
X1341188Y1438625D01*
X1337125D01*
X1345251D02*
Y1430500D01*
X1349314D01*
X1350668Y1431854D01*
Y1437271D01*
X1349314Y1438625D01*
X1345251D01*
X1353376Y1429146D02*
X1358793D01*
X1366918Y1437271D02*
X1365564Y1438625D01*
X1362856D01*
X1361501Y1437271D01*
Y1431854D01*
X1362856Y1430500D01*
X1365564D01*
X1366918Y1431854D01*
Y1434563D01*
X1364210D01*
X1369627Y1430500D02*
Y1438625D01*
X1373690D01*
X1375044Y1437271D01*
Y1434563D01*
X1373690Y1433208D01*
X1369627D01*
X1377752Y1438625D02*
X1380461D01*
X1379106D01*
Y1430500D01*
X1377752D01*
X1380461D01*
X1388586Y1438625D02*
X1385878D01*
X1384523Y1437271D01*
Y1431854D01*
X1385878Y1430500D01*
X1388586D01*
X1389940Y1431854D01*
Y1437271D01*
X1388586Y1438625D01*
X825750Y1198625D02*
Y1191854D01*
X827104Y1190500D01*
X829813D01*
X831167Y1191854D01*
Y1198625D01*
X833875Y1197271D02*
X835230Y1198625D01*
X837938D01*
X839292Y1197271D01*
Y1195917D01*
X837938Y1194563D01*
X839292Y1193208D01*
Y1191854D01*
X837938Y1190500D01*
X835230D01*
X833875Y1191854D01*
Y1193208D01*
X835230Y1194563D01*
X833875Y1195917D01*
Y1197271D01*
X835230Y1194563D02*
X837938D01*
X679750Y1289000D02*
Y1297125D01*
X683813D01*
X685167Y1295771D01*
Y1293063D01*
X683813Y1291708D01*
X679750D01*
X687875Y1297125D02*
X693292D01*
Y1295771D01*
X687875Y1290354D01*
Y1289000D01*
X679500Y1543250D02*
Y1551375D01*
X683563D01*
X684917Y1550021D01*
Y1547313D01*
X683563Y1545959D01*
X679500D01*
X693042Y1551375D02*
X687625D01*
Y1547313D01*
X690334Y1548667D01*
X691688D01*
X693042Y1547313D01*
Y1544604D01*
X691688Y1543250D01*
X688980D01*
X687625Y1544604D01*
X1417250Y1625250D02*
Y1633375D01*
X1421313D01*
X1422667Y1632021D01*
Y1629313D01*
X1421313Y1627958D01*
X1417250D01*
X1419958D02*
X1422667Y1625250D01*
X1425375Y1623896D02*
X1430792D01*
X1438918Y1633375D02*
X1433501D01*
Y1625250D01*
X1438918D01*
X1433501Y1629313D02*
X1436209D01*
X1447043Y1632021D02*
X1445689Y1633375D01*
X1442980D01*
X1441626Y1632021D01*
Y1630667D01*
X1442980Y1629313D01*
X1445689D01*
X1447043Y1627958D01*
Y1626604D01*
X1445689Y1625250D01*
X1442980D01*
X1441626Y1626604D01*
X1449751Y1633375D02*
Y1625250D01*
X1453814D01*
X1455168Y1626604D01*
Y1632021D01*
X1453814Y1633375D01*
X1449751D01*
X1230375Y936917D02*
Y931500D01*
X1234437D01*
Y934208D01*
Y931500D01*
X1238500D01*
X1230375Y939625D02*
X1238500D01*
Y943688D01*
X1237146Y945042D01*
X1235792D01*
X1234437Y943688D01*
Y939625D01*
Y943688D01*
X1233083Y945042D01*
X1231729D01*
X1230375Y943688D01*
Y939625D01*
X1238500Y953168D02*
Y947751D01*
X1233083Y953168D01*
X1231729D01*
X1230375Y951813D01*
Y949105D01*
X1231729Y947751D01*
X1163005Y988996D02*
X1163962Y988038D01*
X1167792D01*
Y991868D01*
X1166835Y992826D01*
X1167792Y988038D02*
X1170665Y985165D01*
X1178326Y992826D02*
X1174495Y988996D01*
Y996656D01*
X1173538Y997614D01*
X1171623Y997614D01*
X1169708Y995699D01*
X1169708Y993783D01*
X989330Y1011679D02*
Y1010325D01*
X992038Y1007617D01*
X994747Y1010325D01*
Y1011679D01*
X992038Y1007617D02*
Y1003554D01*
X997455D02*
X1000164D01*
X998810D01*
Y1011679D01*
X997455Y1010325D01*
X1311500Y1245875D02*
Y1239104D01*
X1312854Y1237750D01*
X1315563D01*
X1316917Y1239104D01*
Y1245875D01*
X1319625Y1237750D02*
X1322334D01*
X1320980D01*
Y1245875D01*
X1319625Y1244521D01*
X1326396D02*
X1327751Y1245875D01*
X1330459D01*
X1331813Y1244521D01*
Y1239104D01*
X1330459Y1237750D01*
X1327751D01*
X1326396Y1239104D01*
Y1244521D01*
X986184Y1054625D02*
Y1047854D01*
X987538Y1046500D01*
X990247D01*
X991601Y1047854D01*
Y1054625D01*
X994309Y1047854D02*
X995664Y1046500D01*
X998372D01*
X999726Y1047854D01*
Y1053271D01*
X998372Y1054625D01*
X995664D01*
X994309Y1053271D01*
Y1051917D01*
X995664Y1050563D01*
X999726D01*
X923250Y1199125D02*
Y1192354D01*
X924604Y1191000D01*
X927313D01*
X928667Y1192354D01*
Y1199125D01*
X931375D02*
X936792D01*
Y1197771D01*
X931375Y1192354D01*
Y1191000D01*
X1024750Y1198875D02*
Y1192104D01*
X1026104Y1190750D01*
X1028813D01*
X1030167Y1192104D01*
Y1198875D01*
X1038292D02*
X1035584Y1197521D01*
X1032875Y1194813D01*
Y1192104D01*
X1034230Y1190750D01*
X1036938D01*
X1038292Y1192104D01*
Y1193458D01*
X1036938Y1194813D01*
X1032875D01*
X787500Y1084375D02*
Y1077604D01*
X788854Y1076250D01*
X791563D01*
X792917Y1077604D01*
Y1084375D01*
X801042D02*
X795625D01*
Y1080313D01*
X798334Y1081667D01*
X799688D01*
X801042Y1080313D01*
Y1077604D01*
X799688Y1076250D01*
X796980D01*
X795625Y1077604D01*
X1130000Y936875D02*
Y930104D01*
X1131354Y928750D01*
X1134063D01*
X1135417Y930104D01*
Y936875D01*
X1142188Y928750D02*
Y936875D01*
X1138125Y932813D01*
X1143542D01*
X1352750Y860125D02*
Y853354D01*
X1354104Y852000D01*
X1356813D01*
X1358167Y853354D01*
Y860125D01*
X1366292Y852000D02*
X1360875D01*
X1366292Y857417D01*
Y858771D01*
X1364938Y860125D01*
X1362230D01*
X1360875Y858771D01*
X723750Y898625D02*
Y891854D01*
X725104Y890500D01*
X727813D01*
X729167Y891854D01*
Y898625D01*
X731875Y890500D02*
X734584D01*
X733230D01*
Y898625D01*
X731875Y897271D01*
X1273000Y1161750D02*
X1264875D01*
Y1165813D01*
X1266229Y1167167D01*
X1268937D01*
X1270292Y1165813D01*
Y1161750D01*
Y1164458D02*
X1273000Y1167167D01*
X1266229Y1169875D02*
X1264875Y1171230D01*
Y1173938D01*
X1266229Y1175292D01*
X1267583D01*
X1268937Y1173938D01*
Y1172584D01*
Y1173938D01*
X1270292Y1175292D01*
X1271646D01*
X1273000Y1173938D01*
Y1171230D01*
X1271646Y1169875D01*
X1264875Y1183418D02*
X1266229Y1180709D01*
X1268937Y1178001D01*
X1271646D01*
X1273000Y1179355D01*
Y1182063D01*
X1271646Y1183418D01*
X1270292D01*
X1268937Y1182063D01*
Y1178001D01*
X1198250Y1161750D02*
X1190125D01*
Y1165813D01*
X1191479Y1167167D01*
X1194187D01*
X1195542Y1165813D01*
Y1161750D01*
Y1164458D02*
X1198250Y1167167D01*
X1191479Y1169875D02*
X1190125Y1171230D01*
Y1173938D01*
X1191479Y1175292D01*
X1192833D01*
X1194187Y1173938D01*
Y1172584D01*
Y1173938D01*
X1195542Y1175292D01*
X1196896D01*
X1198250Y1173938D01*
Y1171230D01*
X1196896Y1169875D01*
X1190125Y1183418D02*
Y1178001D01*
X1194187D01*
X1192833Y1180709D01*
Y1182063D01*
X1194187Y1183418D01*
X1196896D01*
X1198250Y1182063D01*
Y1179355D01*
X1196896Y1178001D01*
X1223167Y1161750D02*
X1215041D01*
Y1165813D01*
X1216396Y1167167D01*
X1219104D01*
X1220458Y1165813D01*
Y1161750D01*
Y1164458D02*
X1223167Y1167167D01*
X1216396Y1169875D02*
X1215041Y1171230D01*
Y1173938D01*
X1216396Y1175292D01*
X1217750D01*
X1219104Y1173938D01*
Y1172584D01*
Y1173938D01*
X1220458Y1175292D01*
X1221813D01*
X1223167Y1173938D01*
Y1171230D01*
X1221813Y1169875D01*
X1223167Y1182063D02*
X1215041D01*
X1219104Y1178001D01*
Y1183418D01*
X1248083Y1161750D02*
X1239958D01*
Y1165813D01*
X1241312Y1167167D01*
X1244021D01*
X1245375Y1165813D01*
Y1161750D01*
Y1164458D02*
X1248083Y1167167D01*
X1241312Y1169875D02*
X1239958Y1171230D01*
Y1173938D01*
X1241312Y1175292D01*
X1242666D01*
X1244021Y1173938D01*
Y1172584D01*
Y1173938D01*
X1245375Y1175292D01*
X1246729D01*
X1248083Y1173938D01*
Y1171230D01*
X1246729Y1169875D01*
X1241312Y1178001D02*
X1239958Y1179355D01*
Y1182063D01*
X1241312Y1183418D01*
X1242666D01*
X1244021Y1182063D01*
Y1180709D01*
Y1182063D01*
X1245375Y1183418D01*
X1246729D01*
X1248083Y1182063D01*
Y1179355D01*
X1246729Y1178001D01*
X862000Y1078250D02*
X853875D01*
Y1082313D01*
X855229Y1083667D01*
X857937D01*
X859292Y1082313D01*
Y1078250D01*
Y1080958D02*
X862000Y1083667D01*
X855229Y1086375D02*
X853875Y1087730D01*
Y1090438D01*
X855229Y1091792D01*
X856583D01*
X857937Y1090438D01*
Y1089084D01*
Y1090438D01*
X859292Y1091792D01*
X860646D01*
X862000Y1090438D01*
Y1087730D01*
X860646Y1086375D01*
X862000Y1099918D02*
Y1094501D01*
X856583Y1099918D01*
X855229D01*
X853875Y1098563D01*
Y1095855D01*
X855229Y1094501D01*
X862250Y1309750D02*
X854125D01*
Y1313813D01*
X855479Y1315167D01*
X858187D01*
X859541Y1313813D01*
Y1309750D01*
Y1312458D02*
X862250Y1315167D01*
X855479Y1317875D02*
X854125Y1319230D01*
Y1321938D01*
X855479Y1323292D01*
X856833D01*
X858187Y1321938D01*
Y1320584D01*
Y1321938D01*
X859541Y1323292D01*
X860896D01*
X862250Y1321938D01*
Y1319230D01*
X860896Y1317875D01*
X862250Y1326001D02*
Y1328709D01*
Y1327355D01*
X854125D01*
X855479Y1326001D01*
X960250Y1078250D02*
X952125D01*
Y1082313D01*
X953479Y1083667D01*
X956187D01*
X957542Y1082313D01*
Y1078250D01*
Y1080958D02*
X960250Y1083667D01*
X953479Y1086375D02*
X952125Y1087730D01*
Y1090438D01*
X953479Y1091792D01*
X954833D01*
X956187Y1090438D01*
Y1089084D01*
Y1090438D01*
X957542Y1091792D01*
X958896D01*
X960250Y1090438D01*
Y1087730D01*
X958896Y1086375D01*
X953479Y1094501D02*
X952125Y1095855D01*
Y1098563D01*
X953479Y1099918D01*
X958896D01*
X960250Y1098563D01*
Y1095855D01*
X958896Y1094501D01*
X953479D01*
X959750Y1309750D02*
X951625D01*
Y1313813D01*
X952979Y1315167D01*
X955687D01*
X957041Y1313813D01*
Y1309750D01*
Y1312458D02*
X959750Y1315167D01*
Y1323292D02*
Y1317875D01*
X954333Y1323292D01*
X952979D01*
X951625Y1321938D01*
Y1319230D01*
X952979Y1317875D01*
X958396Y1326001D02*
X959750Y1327355D01*
Y1330063D01*
X958396Y1331418D01*
X952979D01*
X951625Y1330063D01*
Y1327355D01*
X952979Y1326001D01*
X954333D01*
X955687Y1327355D01*
Y1331418D01*
X1118432Y1240250D02*
Y1248375D01*
X1122495D01*
X1123849Y1247021D01*
Y1244313D01*
X1122495Y1242958D01*
X1118432D01*
X1121140D02*
X1123849Y1240250D01*
X1131974D02*
X1126557D01*
X1131974Y1245667D01*
Y1247021D01*
X1130620Y1248375D01*
X1127912D01*
X1126557Y1247021D01*
X1134683D02*
X1136037Y1248375D01*
X1138745D01*
X1140100Y1247021D01*
Y1245667D01*
X1138745Y1244313D01*
X1140100Y1242958D01*
Y1241604D01*
X1138745Y1240250D01*
X1136037D01*
X1134683Y1241604D01*
Y1242958D01*
X1136037Y1244313D01*
X1134683Y1245667D01*
Y1247021D01*
X1136037Y1244313D02*
X1138745D01*
X1069750Y1307500D02*
X1061625D01*
Y1311563D01*
X1062979Y1312917D01*
X1065687D01*
X1067042Y1311563D01*
Y1307500D01*
Y1310208D02*
X1069750Y1312917D01*
Y1321042D02*
Y1315625D01*
X1064333Y1321042D01*
X1062979D01*
X1061625Y1319688D01*
Y1316980D01*
X1062979Y1315625D01*
X1061625Y1323751D02*
Y1329168D01*
X1062979D01*
X1068396Y1323751D01*
X1069750D01*
X887500Y1078250D02*
X879375D01*
Y1082313D01*
X880729Y1083667D01*
X883437D01*
X884792Y1082313D01*
Y1078250D01*
Y1080958D02*
X887500Y1083667D01*
Y1091792D02*
Y1086375D01*
X882083Y1091792D01*
X880729D01*
X879375Y1090438D01*
Y1087730D01*
X880729Y1086375D01*
X879375Y1099918D02*
X880729Y1097209D01*
X883437Y1094501D01*
X886146D01*
X887500Y1095855D01*
Y1098564D01*
X886146Y1099918D01*
X884792D01*
X883437Y1098564D01*
Y1094501D01*
X887500Y1309750D02*
X879375D01*
Y1313813D01*
X880729Y1315167D01*
X883437D01*
X884792Y1313813D01*
Y1309750D01*
Y1312458D02*
X887500Y1315167D01*
Y1323292D02*
Y1317875D01*
X882083Y1323292D01*
X880729D01*
X879375Y1321938D01*
Y1319230D01*
X880729Y1317875D01*
X879375Y1331418D02*
Y1326001D01*
X883437D01*
X882083Y1328709D01*
Y1330063D01*
X883437Y1331418D01*
X886146D01*
X887500Y1330063D01*
Y1327355D01*
X886146Y1326001D01*
X983750Y1078250D02*
X975625D01*
Y1082313D01*
X976979Y1083667D01*
X979687D01*
X981041Y1082313D01*
Y1078250D01*
Y1080958D02*
X983750Y1083667D01*
Y1091792D02*
Y1086375D01*
X978333Y1091792D01*
X976979D01*
X975625Y1090438D01*
Y1087730D01*
X976979Y1086375D01*
X983750Y1098564D02*
X975625D01*
X979687Y1094501D01*
Y1099918D01*
X984000Y1309750D02*
X975875D01*
Y1313813D01*
X977229Y1315167D01*
X979937D01*
X981292Y1313813D01*
Y1309750D01*
Y1312458D02*
X984000Y1315167D01*
Y1323292D02*
Y1317875D01*
X978583Y1323292D01*
X977229D01*
X975875Y1321938D01*
Y1319230D01*
X977229Y1317875D01*
Y1326001D02*
X975875Y1327355D01*
Y1330063D01*
X977229Y1331418D01*
X978583D01*
X979937Y1330063D01*
Y1328709D01*
Y1330063D01*
X981292Y1331418D01*
X982646D01*
X984000Y1330063D01*
Y1327355D01*
X982646Y1326001D01*
X1117432Y1179500D02*
Y1187625D01*
X1121495D01*
X1122849Y1186271D01*
Y1183563D01*
X1121495Y1182208D01*
X1117432D01*
X1120140D02*
X1122849Y1179500D01*
X1130974D02*
X1125557D01*
X1130974Y1184917D01*
Y1186271D01*
X1129620Y1187625D01*
X1126912D01*
X1125557Y1186271D01*
X1139100Y1179500D02*
X1133683D01*
X1139100Y1184917D01*
Y1186271D01*
X1137745Y1187625D01*
X1135037D01*
X1133683Y1186271D01*
X1092250Y1307500D02*
X1084125D01*
Y1311563D01*
X1085479Y1312917D01*
X1088187D01*
X1089542Y1311563D01*
Y1307500D01*
Y1310208D02*
X1092250Y1312917D01*
Y1321042D02*
Y1315625D01*
X1086833Y1321042D01*
X1085479D01*
X1084125Y1319688D01*
Y1316980D01*
X1085479Y1315625D01*
X1092250Y1323751D02*
Y1326459D01*
Y1325105D01*
X1084125D01*
X1085479Y1323751D01*
X1364279Y1234475D02*
Y1242600D01*
X1368342D01*
X1369696Y1241246D01*
Y1238538D01*
X1368342Y1237184D01*
X1364279D01*
X1366987D02*
X1369696Y1234475D01*
X1377821D02*
X1372404D01*
X1377821Y1239892D01*
Y1241246D01*
X1376467Y1242600D01*
X1373759D01*
X1372404Y1241246D01*
X1380530D02*
X1381884Y1242600D01*
X1384592D01*
X1385947Y1241246D01*
Y1235829D01*
X1384592Y1234475D01*
X1381884D01*
X1380530Y1235829D01*
Y1241246D01*
X1364029Y1193320D02*
Y1201445D01*
X1368092D01*
X1369446Y1200091D01*
Y1197383D01*
X1368092Y1196028D01*
X1364029D01*
X1366737D02*
X1369446Y1193320D01*
X1372154D02*
X1374863D01*
X1373509D01*
Y1201445D01*
X1372154Y1200091D01*
X1378925Y1194674D02*
X1380280Y1193320D01*
X1382988D01*
X1384342Y1194674D01*
Y1200091D01*
X1382988Y1201445D01*
X1380280D01*
X1378925Y1200091D01*
Y1198737D01*
X1380280Y1197383D01*
X1384342D01*
X1107429Y1576250D02*
X1099303D01*
Y1580313D01*
X1100657Y1581667D01*
X1103366D01*
X1104720Y1580313D01*
Y1576250D01*
Y1578958D02*
X1107429Y1581667D01*
Y1584375D02*
Y1587084D01*
Y1585730D01*
X1099303D01*
X1100657Y1584375D01*
Y1591147D02*
X1099303Y1592501D01*
Y1595209D01*
X1100657Y1596563D01*
X1102012D01*
X1103366Y1595209D01*
Y1593855D01*
Y1595209D01*
X1104720Y1596563D01*
X1106074D01*
X1107429Y1595209D01*
Y1592501D01*
X1106074Y1591147D01*
X1081000Y1576250D02*
X1072875D01*
Y1580313D01*
X1074229Y1581667D01*
X1076937D01*
X1078291Y1580313D01*
Y1576250D01*
Y1578958D02*
X1081000Y1581667D01*
Y1584375D02*
Y1587084D01*
Y1585730D01*
X1072875D01*
X1074229Y1584375D01*
X1081000Y1596563D02*
Y1591147D01*
X1075583Y1596563D01*
X1074229D01*
X1072875Y1595209D01*
Y1592501D01*
X1074229Y1591147D01*
X1193811Y921000D02*
Y929125D01*
X1197874D01*
X1199228Y927771D01*
Y925063D01*
X1197874Y923708D01*
X1193811D01*
X1196520D02*
X1199228Y921000D01*
X1201937D02*
X1204645D01*
X1203291D01*
Y929125D01*
X1201937Y927771D01*
X1208708Y921000D02*
X1211416D01*
X1210062D01*
Y929125D01*
X1208708Y927771D01*
X1088750Y899750D02*
X1080625D01*
Y903813D01*
X1081979Y905167D01*
X1084687D01*
X1086041Y903813D01*
Y899750D01*
Y902458D02*
X1088750Y905167D01*
Y907875D02*
Y910584D01*
Y909230D01*
X1080625D01*
X1081979Y907875D01*
Y914647D02*
X1080625Y916001D01*
Y918709D01*
X1081979Y920063D01*
X1087396D01*
X1088750Y918709D01*
Y916001D01*
X1087396Y914647D01*
X1081979D01*
X755500Y860750D02*
Y868875D01*
X759563D01*
X760917Y867521D01*
Y864813D01*
X759563Y863458D01*
X755500D01*
X758208D02*
X760917Y860750D01*
X763625Y867521D02*
X764980Y868875D01*
X767688D01*
X769042Y867521D01*
Y866167D01*
X767688Y864813D01*
X769042Y863458D01*
Y862104D01*
X767688Y860750D01*
X764980D01*
X763625Y862104D01*
Y863458D01*
X764980Y864813D01*
X763625Y866167D01*
Y867521D01*
X764980Y864813D02*
X767688D01*
X1160286Y1576250D02*
X1152160D01*
Y1580313D01*
X1153515Y1581667D01*
X1156223D01*
X1157577Y1580313D01*
Y1576250D01*
Y1578958D02*
X1160286Y1581667D01*
X1152160Y1584375D02*
Y1589792D01*
X1153515D01*
X1158932Y1584375D01*
X1160286D01*
X1133857Y1576250D02*
X1125732D01*
Y1580313D01*
X1127086Y1581667D01*
X1129794D01*
X1131149Y1580313D01*
Y1576250D01*
Y1578958D02*
X1133857Y1581667D01*
X1125732Y1589792D02*
X1127086Y1587084D01*
X1129794Y1584375D01*
X1132503D01*
X1133857Y1585730D01*
Y1588438D01*
X1132503Y1589792D01*
X1131149D01*
X1129794Y1588438D01*
Y1584375D01*
X1213143Y1576250D02*
X1205017D01*
Y1580313D01*
X1206372Y1581667D01*
X1209080D01*
X1210434Y1580313D01*
Y1576250D01*
Y1578958D02*
X1213143Y1581667D01*
X1205017Y1589792D02*
Y1584375D01*
X1209080D01*
X1207726Y1587084D01*
Y1588438D01*
X1209080Y1589792D01*
X1211789D01*
X1213143Y1588438D01*
Y1585730D01*
X1211789Y1584375D01*
X1186714Y1576250D02*
X1178589D01*
Y1580313D01*
X1179943Y1581667D01*
X1182652D01*
X1184006Y1580313D01*
Y1576250D01*
Y1578958D02*
X1186714Y1581667D01*
Y1588438D02*
X1178589D01*
X1182652Y1584375D01*
Y1589792D01*
X1239571Y1576250D02*
X1231446D01*
Y1580313D01*
X1232800Y1581667D01*
X1235509D01*
X1236863Y1580313D01*
Y1576250D01*
Y1578958D02*
X1239571Y1581667D01*
X1232800Y1584375D02*
X1231446Y1585730D01*
Y1588438D01*
X1232800Y1589792D01*
X1234155D01*
X1235509Y1588438D01*
Y1587084D01*
Y1588438D01*
X1236863Y1589792D01*
X1238217D01*
X1239571Y1588438D01*
Y1585730D01*
X1238217Y1584375D01*
X1266064Y1576250D02*
X1257939D01*
Y1580313D01*
X1259293Y1581667D01*
X1262001D01*
X1263355Y1580313D01*
Y1576250D01*
Y1578958D02*
X1266064Y1581667D01*
Y1589792D02*
Y1584375D01*
X1260647Y1589792D01*
X1259293D01*
X1257939Y1588438D01*
Y1585730D01*
X1259293Y1584375D01*
X861000Y947250D02*
Y955375D01*
X865063D01*
X866417Y954021D01*
Y951313D01*
X865063Y949958D01*
X861000D01*
X863708D02*
X866417Y947250D01*
X869125D02*
X871834D01*
X870480D01*
Y955375D01*
X869125Y954021D01*
X1225750Y850284D02*
Y858409D01*
X1229813D01*
X1231167Y857055D01*
Y854347D01*
X1229813Y852992D01*
X1225750D01*
X1239292Y858409D02*
X1236584Y857055D01*
X1233875Y854347D01*
Y851638D01*
X1235230Y850284D01*
X1237938D01*
X1239292Y851638D01*
Y852992D01*
X1237938Y854347D01*
X1233875D01*
X719250Y1228250D02*
Y1236375D01*
X723313D01*
X724667Y1235021D01*
Y1232313D01*
X723313Y1230958D01*
X719250D01*
X731438Y1228250D02*
Y1236375D01*
X727375Y1232313D01*
X732792D01*
X827250Y1525750D02*
Y1533875D01*
X831313D01*
X832667Y1532521D01*
Y1529813D01*
X831313Y1528459D01*
X827250D01*
X835375Y1532521D02*
X836730Y1533875D01*
X839438D01*
X840792Y1532521D01*
Y1531167D01*
X839438Y1529813D01*
X838084D01*
X839438D01*
X840792Y1528459D01*
Y1527104D01*
X839438Y1525750D01*
X836730D01*
X835375Y1527104D01*
X988000Y889000D02*
Y897125D01*
X992063D01*
X993417Y895771D01*
Y893063D01*
X992063Y891709D01*
X988000D01*
X1001542Y889000D02*
X996125D01*
X1001542Y894417D01*
Y895771D01*
X1000188Y897125D01*
X997480D01*
X996125Y895771D01*
X821000Y886250D02*
Y894375D01*
X825063D01*
X826417Y893021D01*
Y890313D01*
X825063Y888958D01*
X821000D01*
X829125Y886250D02*
X831834D01*
X830480D01*
Y894375D01*
X829125Y893021D01*
X1311417Y1114875D02*
X1308708D01*
X1310063D01*
Y1108104D01*
X1308708Y1106750D01*
X1307354D01*
X1306000Y1108104D01*
X1314125Y1105396D02*
X1319542D01*
X1322251Y1114875D02*
Y1109458D01*
X1324959Y1106750D01*
X1327668Y1109458D01*
Y1114875D01*
X1335793D02*
X1330376D01*
Y1110813D01*
X1333085Y1112167D01*
X1334439D01*
X1335793Y1110813D01*
Y1108104D01*
X1334439Y1106750D01*
X1331730D01*
X1330376Y1108104D01*
X1335167Y966125D02*
X1332458D01*
X1333813D01*
Y959354D01*
X1332458Y958000D01*
X1331104D01*
X1329750Y959354D01*
X1337875Y956646D02*
X1343292D01*
X1346001Y966125D02*
Y960708D01*
X1348709Y958000D01*
X1351418Y960708D01*
Y966125D01*
X1354126Y964771D02*
X1355480Y966125D01*
X1358189D01*
X1359543Y964771D01*
Y963417D01*
X1358189Y962063D01*
X1356835D01*
X1358189D01*
X1359543Y960708D01*
Y959354D01*
X1358189Y958000D01*
X1355480D01*
X1354126Y959354D01*
X813667Y919875D02*
X810958D01*
X812313D01*
Y913104D01*
X810958Y911750D01*
X809604D01*
X808250Y913104D01*
X816375Y910396D02*
X821792D01*
X824501Y919875D02*
Y914458D01*
X827209Y911750D01*
X829918Y914458D01*
Y919875D01*
X832626Y911750D02*
X835335D01*
X833980D01*
Y919875D01*
X832626Y918521D01*
X1425375Y884167D02*
Y881459D01*
Y882813D01*
X1432146D01*
X1433500Y881459D01*
Y880104D01*
X1432146Y878750D01*
X1434854Y886875D02*
Y892292D01*
X1425375Y895001D02*
X1430792D01*
X1433500Y897709D01*
X1430792Y900418D01*
X1425375D01*
X1426729Y903126D02*
X1425375Y904480D01*
Y907189D01*
X1426729Y908543D01*
X1432146D01*
X1433500Y907189D01*
Y904480D01*
X1432146Y903126D01*
X1426729D01*
X1342917Y1361750D02*
X1340208D01*
X1341563D01*
Y1354979D01*
X1340208Y1353625D01*
X1338854D01*
X1337500Y1354979D01*
X1345625Y1352271D02*
X1351042D01*
X1353751Y1353625D02*
Y1361750D01*
X1357813D01*
X1359168Y1360396D01*
Y1357688D01*
X1357813Y1356333D01*
X1353751D01*
X1367293Y1360396D02*
X1365939Y1361750D01*
X1363230D01*
X1361876Y1360396D01*
Y1354979D01*
X1363230Y1353625D01*
X1365939D01*
X1367293Y1354979D01*
X1370002Y1353625D02*
X1372710D01*
X1371356D01*
Y1361750D01*
X1370002Y1360396D01*
X1376773D02*
X1378127Y1361750D01*
X1380835D01*
X1382190Y1360396D01*
Y1354979D01*
X1380835Y1353625D01*
X1378127D01*
X1376773Y1354979D01*
Y1360396D01*
X1342917Y1385938D02*
X1340208D01*
X1341563D01*
Y1379167D01*
X1340208Y1377812D01*
X1338854D01*
X1337500Y1379167D01*
X1345625Y1376458D02*
X1351042D01*
X1353751Y1377812D02*
Y1385938D01*
X1357813D01*
X1359168Y1384584D01*
Y1381875D01*
X1357813Y1380521D01*
X1353751D01*
X1367293Y1384584D02*
X1365939Y1385938D01*
X1363230D01*
X1361876Y1384584D01*
Y1379167D01*
X1363230Y1377812D01*
X1365939D01*
X1367293Y1379167D01*
X1370002D02*
X1371356Y1377812D01*
X1374064D01*
X1375418Y1379167D01*
Y1384584D01*
X1374064Y1385938D01*
X1371356D01*
X1370002Y1384584D01*
Y1383229D01*
X1371356Y1381875D01*
X1375418D01*
X1342917Y1410125D02*
X1340208D01*
X1341563D01*
Y1403354D01*
X1340208Y1402000D01*
X1338854D01*
X1337500Y1403354D01*
X1345625Y1400646D02*
X1351042D01*
X1353751Y1402000D02*
Y1410125D01*
X1357813D01*
X1359168Y1408771D01*
Y1406063D01*
X1357813Y1404708D01*
X1353751D01*
X1367293Y1408771D02*
X1365939Y1410125D01*
X1363230D01*
X1361876Y1408771D01*
Y1403354D01*
X1363230Y1402000D01*
X1365939D01*
X1367293Y1403354D01*
X1370002Y1408771D02*
X1371356Y1410125D01*
X1374064D01*
X1375418Y1408771D01*
Y1407417D01*
X1374064Y1406063D01*
X1375418Y1404708D01*
Y1403354D01*
X1374064Y1402000D01*
X1371356D01*
X1370002Y1403354D01*
Y1404708D01*
X1371356Y1406063D01*
X1370002Y1407417D01*
Y1408771D01*
X1371356Y1406063D02*
X1374064D01*
X1342917Y1318375D02*
X1340208D01*
X1341563D01*
Y1311604D01*
X1340208Y1310250D01*
X1338854D01*
X1337500Y1311604D01*
X1345625Y1308896D02*
X1351042D01*
X1353751Y1310250D02*
Y1318375D01*
X1357813D01*
X1359168Y1317021D01*
Y1314313D01*
X1357813Y1312959D01*
X1353751D01*
X1367293Y1317021D02*
X1365939Y1318375D01*
X1363230D01*
X1361876Y1317021D01*
Y1311604D01*
X1363230Y1310250D01*
X1365939D01*
X1367293Y1311604D01*
X1374064Y1310250D02*
Y1318375D01*
X1370002Y1314313D01*
X1375418D01*
X1342917Y1337563D02*
X1340208D01*
X1341563D01*
Y1330792D01*
X1340208Y1329438D01*
X1338854D01*
X1337500Y1330792D01*
X1345625Y1328083D02*
X1351042D01*
X1353751Y1329438D02*
Y1337563D01*
X1357813D01*
X1359168Y1336209D01*
Y1333500D01*
X1357813Y1332146D01*
X1353751D01*
X1367293Y1336209D02*
X1365939Y1337563D01*
X1363230D01*
X1361876Y1336209D01*
Y1330792D01*
X1363230Y1329438D01*
X1365939D01*
X1367293Y1330792D01*
X1370002Y1336209D02*
X1371356Y1337563D01*
X1374064D01*
X1375418Y1336209D01*
Y1334854D01*
X1374064Y1333500D01*
X1372710D01*
X1374064D01*
X1375418Y1332146D01*
Y1330792D01*
X1374064Y1329438D01*
X1371356D01*
X1370002Y1330792D01*
X1328417Y992875D02*
X1323000D01*
Y988813D01*
X1325708D01*
X1323000D01*
Y984750D01*
X1331125Y992875D02*
Y984750D01*
X1335188D01*
X1336542Y986104D01*
Y987458D01*
X1335188Y988813D01*
X1331125D01*
X1335188D01*
X1336542Y990167D01*
Y991521D01*
X1335188Y992875D01*
X1331125D01*
X1339251Y984750D02*
X1341959D01*
X1340605D01*
Y992875D01*
X1339251Y991521D01*
X1093679Y1697375D02*
Y1689250D01*
X1097741D01*
X1099096Y1690604D01*
Y1696021D01*
X1097741Y1697375D01*
X1093679D01*
X1101804Y1696021D02*
X1103158Y1697375D01*
X1105867D01*
X1107221Y1696021D01*
Y1694667D01*
X1105867Y1693313D01*
X1107221Y1691958D01*
Y1690604D01*
X1105867Y1689250D01*
X1103158D01*
X1101804Y1690604D01*
Y1691958D01*
X1103158Y1693313D01*
X1101804Y1694667D01*
Y1696021D01*
X1103158Y1693313D02*
X1105867D01*
X1067000Y1698875D02*
Y1690750D01*
X1071063D01*
X1072417Y1692104D01*
Y1697521D01*
X1071063Y1698875D01*
X1067000D01*
X1075125D02*
X1080542D01*
Y1697521D01*
X1075125Y1692104D01*
Y1690750D01*
X1147036Y1697375D02*
Y1689250D01*
X1151098D01*
X1152453Y1690604D01*
Y1696021D01*
X1151098Y1697375D01*
X1147036D01*
X1160578D02*
X1157869Y1696021D01*
X1155161Y1693313D01*
Y1690604D01*
X1156515Y1689250D01*
X1159224D01*
X1160578Y1690604D01*
Y1691958D01*
X1159224Y1693313D01*
X1155161D01*
X1120357Y1697375D02*
Y1689250D01*
X1124420D01*
X1125774Y1690604D01*
Y1696021D01*
X1124420Y1697375D01*
X1120357D01*
X1133899D02*
X1128483D01*
Y1693313D01*
X1131191Y1694667D01*
X1132545D01*
X1133899Y1693313D01*
Y1690604D01*
X1132545Y1689250D01*
X1129837D01*
X1128483Y1690604D01*
X1200393Y1697375D02*
Y1689250D01*
X1204455D01*
X1205810Y1690604D01*
Y1696021D01*
X1204455Y1697375D01*
X1200393D01*
X1212581Y1689250D02*
Y1697375D01*
X1208518Y1693313D01*
X1213935D01*
X1173714Y1697375D02*
Y1689250D01*
X1177777D01*
X1179131Y1690604D01*
Y1696021D01*
X1177777Y1697375D01*
X1173714D01*
X1181840Y1696021D02*
X1183194Y1697375D01*
X1185902D01*
X1187256Y1696021D01*
Y1694667D01*
X1185902Y1693313D01*
X1184548D01*
X1185902D01*
X1187256Y1691958D01*
Y1690604D01*
X1185902Y1689250D01*
X1183194D01*
X1181840Y1690604D01*
X1227071Y1697375D02*
Y1689250D01*
X1231134D01*
X1232488Y1690604D01*
Y1696021D01*
X1231134Y1697375D01*
X1227071D01*
X1240614Y1689250D02*
X1235197D01*
X1240614Y1694667D01*
Y1696021D01*
X1239259Y1697375D01*
X1236551D01*
X1235197Y1696021D01*
X1253750Y1697375D02*
Y1689250D01*
X1257813D01*
X1259167Y1690604D01*
Y1696021D01*
X1257813Y1697375D01*
X1253750D01*
X1261875Y1689250D02*
X1264584D01*
X1263230D01*
Y1697375D01*
X1261875Y1696021D01*
X1238613Y1264271D02*
X1237258Y1265625D01*
X1234550D01*
X1233196Y1264271D01*
Y1258854D01*
X1234550Y1257500D01*
X1237258D01*
X1238613Y1258854D01*
X1241321Y1264271D02*
X1242675Y1265625D01*
X1245384D01*
X1246738Y1264271D01*
Y1262917D01*
X1245384Y1261563D01*
X1244030D01*
X1245384D01*
X1246738Y1260209D01*
Y1258854D01*
X1245384Y1257500D01*
X1242675D01*
X1241321Y1258854D01*
X1254863Y1265625D02*
X1252155Y1264271D01*
X1249446Y1261563D01*
Y1258854D01*
X1250801Y1257500D01*
X1253509D01*
X1254863Y1258854D01*
Y1260209D01*
X1253509Y1261563D01*
X1249446D01*
X1017417Y1255946D02*
X1016063Y1257300D01*
X1013354D01*
X1012000Y1255946D01*
Y1250529D01*
X1013354Y1249175D01*
X1016063D01*
X1017417Y1250529D01*
X1020125Y1255946D02*
X1021480Y1257300D01*
X1024188D01*
X1025542Y1255946D01*
Y1254592D01*
X1024188Y1253237D01*
X1022834D01*
X1024188D01*
X1025542Y1251883D01*
Y1250529D01*
X1024188Y1249175D01*
X1021480D01*
X1020125Y1250529D01*
X1033668Y1257300D02*
X1028251D01*
Y1253237D01*
X1030959Y1254592D01*
X1032314D01*
X1033668Y1253237D01*
Y1250529D01*
X1032314Y1249175D01*
X1029605D01*
X1028251Y1250529D01*
X916167Y1256271D02*
X914813Y1257625D01*
X912104D01*
X910750Y1256271D01*
Y1250854D01*
X912104Y1249500D01*
X914813D01*
X916167Y1250854D01*
X918875Y1256271D02*
X920230Y1257625D01*
X922938D01*
X924292Y1256271D01*
Y1254917D01*
X922938Y1253563D01*
X921584D01*
X922938D01*
X924292Y1252208D01*
Y1250854D01*
X922938Y1249500D01*
X920230D01*
X918875Y1250854D01*
X931063Y1249500D02*
Y1257625D01*
X927001Y1253563D01*
X932418D01*
X816417Y1257521D02*
X815063Y1258875D01*
X812354D01*
X811000Y1257521D01*
Y1252104D01*
X812354Y1250750D01*
X815063D01*
X816417Y1252104D01*
X819125Y1257521D02*
X820480Y1258875D01*
X823188D01*
X824542Y1257521D01*
Y1256167D01*
X823188Y1254813D01*
X821834D01*
X823188D01*
X824542Y1253458D01*
Y1252104D01*
X823188Y1250750D01*
X820480D01*
X819125Y1252104D01*
X832668Y1250750D02*
X827251D01*
X832668Y1256167D01*
Y1257521D01*
X831313Y1258875D01*
X828605D01*
X827251Y1257521D01*
X729729Y1068417D02*
X728375Y1067063D01*
Y1064354D01*
X729729Y1063000D01*
X735146D01*
X736500Y1064354D01*
Y1067063D01*
X735146Y1068417D01*
X729729Y1071125D02*
X728375Y1072480D01*
Y1075188D01*
X729729Y1076542D01*
X731083D01*
X732437Y1075188D01*
Y1073834D01*
Y1075188D01*
X733792Y1076542D01*
X735146D01*
X736500Y1075188D01*
Y1072480D01*
X735146Y1071125D01*
X736500Y1079251D02*
Y1081959D01*
Y1080605D01*
X728375D01*
X729729Y1079251D01*
X748729Y1067917D02*
X747375Y1066563D01*
Y1063854D01*
X748729Y1062500D01*
X754146D01*
X755500Y1063854D01*
Y1066563D01*
X754146Y1067917D01*
X748729Y1070625D02*
X747375Y1071980D01*
Y1074688D01*
X748729Y1076042D01*
X750083D01*
X751437Y1074688D01*
Y1073334D01*
Y1074688D01*
X752792Y1076042D01*
X754146D01*
X755500Y1074688D01*
Y1071980D01*
X754146Y1070625D01*
X748729Y1078751D02*
X747375Y1080105D01*
Y1082813D01*
X748729Y1084168D01*
X754146D01*
X755500Y1082813D01*
Y1080105D01*
X754146Y1078751D01*
X748729D01*
X712979Y963417D02*
X711625Y962063D01*
Y959354D01*
X712979Y958000D01*
X718396D01*
X719750Y959354D01*
Y962063D01*
X718396Y963417D01*
X719750Y971542D02*
Y966125D01*
X714333Y971542D01*
X712979D01*
X711625Y970188D01*
Y967480D01*
X712979Y966125D01*
X718396Y974251D02*
X719750Y975605D01*
Y978313D01*
X718396Y979668D01*
X712979D01*
X711625Y978313D01*
Y975605D01*
X712979Y974251D01*
X714333D01*
X715687Y975605D01*
Y979668D01*
X733479Y963167D02*
X732125Y961813D01*
Y959104D01*
X733479Y957750D01*
X738896D01*
X740250Y959104D01*
Y961813D01*
X738896Y963167D01*
X740250Y971292D02*
Y965875D01*
X734833Y971292D01*
X733479D01*
X732125Y969938D01*
Y967230D01*
X733479Y965875D01*
Y974001D02*
X732125Y975355D01*
Y978063D01*
X733479Y979418D01*
X734833D01*
X736187Y978063D01*
X737542Y979418D01*
X738896D01*
X740250Y978063D01*
Y975355D01*
X738896Y974001D01*
X737542D01*
X736187Y975355D01*
X734833Y974001D01*
X733479D01*
X736187Y975355D02*
Y978063D01*
X1143167Y965021D02*
X1141813Y966375D01*
X1139104D01*
X1137750Y965021D01*
Y959604D01*
X1139104Y958250D01*
X1141813D01*
X1143167Y959604D01*
X1151292Y958250D02*
X1145875D01*
X1151292Y963667D01*
Y965021D01*
X1149938Y966375D01*
X1147230D01*
X1145875Y965021D01*
X1154001Y966375D02*
X1159418D01*
Y965021D01*
X1154001Y959604D01*
Y958250D01*
X1234729Y1008257D02*
X1233375Y1006903D01*
Y1004194D01*
X1234729Y1002840D01*
X1240146D01*
X1241500Y1004194D01*
Y1006903D01*
X1240146Y1008257D01*
X1241500Y1016382D02*
Y1010965D01*
X1236083Y1016382D01*
X1234729D01*
X1233375Y1015028D01*
Y1012320D01*
X1234729Y1010965D01*
Y1019091D02*
X1233375Y1020445D01*
Y1023154D01*
X1234729Y1024508D01*
X1240146D01*
X1241500Y1023154D01*
Y1020445D01*
X1240146Y1019091D01*
X1234729D01*
X1215229Y1008167D02*
X1213875Y1006813D01*
Y1004104D01*
X1215229Y1002750D01*
X1220646D01*
X1222000Y1004104D01*
Y1006813D01*
X1220646Y1008167D01*
X1222000Y1010875D02*
Y1013584D01*
Y1012230D01*
X1213875D01*
X1215229Y1010875D01*
X1213875Y1023063D02*
Y1017646D01*
X1217937D01*
X1216583Y1020355D01*
Y1021709D01*
X1217937Y1023063D01*
X1220646D01*
X1222000Y1021709D01*
Y1019001D01*
X1220646Y1017646D01*
X1403729Y928917D02*
X1402375Y927563D01*
Y924854D01*
X1403729Y923500D01*
X1409146D01*
X1410500Y924854D01*
Y927563D01*
X1409146Y928917D01*
X1410500Y931625D02*
Y934334D01*
Y932980D01*
X1402375D01*
X1403729Y931625D01*
X1410500Y943813D02*
Y938397D01*
X1405083Y943813D01*
X1403729D01*
X1402375Y942459D01*
Y939751D01*
X1403729Y938397D01*
X1389667Y859021D02*
X1388313Y860375D01*
X1385604D01*
X1384250Y859021D01*
Y853604D01*
X1385604Y852250D01*
X1388313D01*
X1389667Y853604D01*
X1392375Y852250D02*
X1395084D01*
X1393730D01*
Y860375D01*
X1392375Y859021D01*
X1399147Y852250D02*
X1401855D01*
X1400501D01*
Y860375D01*
X1399147Y859021D01*
X1236167Y882771D02*
X1234813Y884125D01*
X1232104D01*
X1230750Y882771D01*
Y877354D01*
X1232104Y876000D01*
X1234813D01*
X1236167Y877354D01*
X1238875Y876000D02*
X1241584D01*
X1240230D01*
Y884125D01*
X1238875Y882771D01*
X1245647D02*
X1247001Y884125D01*
X1249709D01*
X1251063Y882771D01*
Y877354D01*
X1249709Y876000D01*
X1247001D01*
X1245647Y877354D01*
Y882771D01*
X1274917Y882271D02*
X1273563Y883625D01*
X1270854D01*
X1269500Y882271D01*
Y876854D01*
X1270854Y875500D01*
X1273563D01*
X1274917Y876854D01*
X1277625D02*
X1278980Y875500D01*
X1281688D01*
X1283042Y876854D01*
Y882271D01*
X1281688Y883625D01*
X1278980D01*
X1277625Y882271D01*
Y880917D01*
X1278980Y879563D01*
X1283042D01*
X1277667Y969271D02*
X1276313Y970625D01*
X1273604D01*
X1272250Y969271D01*
Y963854D01*
X1273604Y962500D01*
X1276313D01*
X1277667Y963854D01*
X1280375Y969271D02*
X1281730Y970625D01*
X1284438D01*
X1285792Y969271D01*
Y967917D01*
X1284438Y966563D01*
X1285792Y965209D01*
Y963854D01*
X1284438Y962500D01*
X1281730D01*
X1280375Y963854D01*
Y965209D01*
X1281730Y966563D01*
X1280375Y967917D01*
Y969271D01*
X1281730Y966563D02*
X1284438D01*
X1278917Y1039271D02*
X1277563Y1040625D01*
X1274854D01*
X1273500Y1039271D01*
Y1033854D01*
X1274854Y1032500D01*
X1277563D01*
X1278917Y1033854D01*
X1281625Y1040625D02*
X1287042D01*
Y1039271D01*
X1281625Y1033854D01*
Y1032500D01*
X1222792Y980118D02*
X1220877Y980118D01*
X1218962Y978203D01*
Y976288D01*
X1222792Y972458D01*
X1224708D01*
X1226623Y974373D01*
Y976288D01*
X1227580Y986821D02*
X1226623Y983949D01*
Y980118D01*
X1228538Y978203D01*
X1230453D01*
X1232368Y980118D01*
Y982033D01*
X1231411Y982991D01*
X1229495D01*
X1226623Y980118D01*
X1178542Y937118D02*
X1176627Y937118D01*
X1174712Y935203D01*
Y933288D01*
X1178542Y929458D01*
X1180458D01*
X1182373Y931373D01*
Y933288D01*
X1183330Y943821D02*
X1179500Y939991D01*
X1182373Y937118D01*
X1183330Y939991D01*
X1184288Y940949D01*
X1186203D01*
X1188118Y939033D01*
Y937118D01*
X1186203Y935203D01*
X1184288D01*
X1031379Y950612D02*
X1030025Y951966D01*
X1027317D01*
X1025962Y950612D01*
Y945195D01*
X1027317Y943841D01*
X1030025D01*
X1031379Y945195D01*
X1038150Y943841D02*
Y951966D01*
X1034088Y947904D01*
X1039505D01*
X952986Y987526D02*
X951632Y988880D01*
X948923D01*
X947569Y987526D01*
Y982109D01*
X948923Y980755D01*
X951632D01*
X952986Y982109D01*
X955695Y987526D02*
X957049Y988880D01*
X959757D01*
X961111Y987526D01*
Y986172D01*
X959757Y984818D01*
X958403D01*
X959757D01*
X961111Y983464D01*
Y982109D01*
X959757Y980755D01*
X957049D01*
X955695Y982109D01*
X1252917Y1086271D02*
X1251563Y1087625D01*
X1248854D01*
X1247500Y1086271D01*
Y1080854D01*
X1248854Y1079500D01*
X1251563D01*
X1252917Y1080854D01*
X1261042Y1079500D02*
X1255625D01*
X1261042Y1084917D01*
Y1086271D01*
X1259688Y1087625D01*
X1256980D01*
X1255625Y1086271D01*
X914167Y935021D02*
X912813Y936375D01*
X910104D01*
X908750Y935021D01*
Y929604D01*
X910104Y928250D01*
X912813D01*
X914167Y929604D01*
X916875Y928250D02*
X919584D01*
X918230D01*
Y936375D01*
X916875Y935021D01*
D21*
X939976Y1403043D02*
Y1403519D01*
X940452Y1404472D01*
X940928Y1404948D01*
X941880Y1405424D01*
X943785D01*
X944737Y1404948D01*
X945213Y1404472D01*
X945689Y1403519D01*
Y1402567D01*
X945213Y1401615D01*
X944261Y1400187D01*
X939500Y1395426D01*
X946165D01*
X817000Y1402249D02*
X817952Y1402726D01*
X819380Y1404154D01*
Y1394156D01*
D22*
X1490750Y1629000D02*
D03*
X1204999Y907050D02*
D03*
X764000Y847000D02*
D03*
X827000Y935750D02*
D03*
X1131644Y1227430D02*
D03*
X1131204Y1203930D02*
D03*
X1324994Y1130750D02*
D03*
X1417249Y1310000D02*
D03*
X1416999Y1333800D02*
D03*
X1417250Y1358000D02*
D03*
X1417250Y1383000D02*
D03*
X1417249Y1406000D02*
D03*
X1348000Y943000D02*
D03*
D23*
X882661Y1284396D02*
D03*
X857261Y1284996D02*
D03*
X954469Y1285305D02*
D03*
X978564Y1285300D02*
D03*
X1087169Y1285253D02*
D03*
X1064469Y1285254D02*
D03*
X1447997Y897000D02*
D03*
X1102750Y913001D02*
D03*
X867500Y926453D02*
D03*
X978569Y1128752D02*
D03*
X954473Y1129749D02*
D03*
X882666Y1129385D02*
D03*
X857262Y1129385D02*
D03*
X1267038Y1213251D02*
D03*
X1243278Y1213247D02*
D03*
X1218529Y1213247D02*
D03*
X1193780D02*
D03*
X1406500Y1208339D02*
D03*
X1406498Y1251494D02*
D03*
X1260000Y1625263D02*
D03*
X1233714Y1625267D02*
D03*
X1207428Y1625478D02*
D03*
X1181143Y1625478D02*
D03*
X1154857Y1625478D02*
D03*
X1128571Y1625473D02*
D03*
X1101998Y1625056D02*
D03*
X1075598Y1624225D02*
D03*
M02*
