G04*
G04 #@! TF.GenerationSoftware,Altium Limited,Altium Designer,18.1.7 (191)*
G04*
G04 Layer_Color=32768*
%FSLAX44Y44*%
%MOMM*%
G71*
G01*
G75*
%ADD10C,0.2540*%
%ADD14C,0.1500*%
%ADD18C,0.1000*%
%ADD118C,0.0500*%
%ADD119C,0.4000*%
D10*
X854718Y1175300D02*
G03*
X854718Y1175300I-3953J0D01*
G01*
X736446Y1218100D02*
G03*
X736446Y1218100I-4316J0D01*
G01*
X1314703Y913250D02*
G03*
X1314703Y913250I-3953J0D01*
G01*
X1169347Y902550D02*
G03*
X1169347Y902550I-1500J0D01*
G01*
X845816Y884250D02*
G03*
X845816Y884250I-4316J0D01*
G01*
X953022Y1175350D02*
G03*
X953022Y1175350I-3953J0D01*
G01*
X1119828Y955280D02*
G03*
X1119828Y955280I-5963J0D01*
G01*
X1055722Y1175050D02*
G03*
X1055722Y1175050I-3953J0D01*
G01*
X1298241Y1223450D02*
G03*
X1298241Y1223450I-3953J0D01*
G01*
X999915Y986000D02*
G03*
X999915Y986000I-2916J0D01*
G01*
X679380Y1244100D02*
X739630D01*
X678630Y1243350D02*
X679380Y1244100D01*
X678630Y1102850D02*
Y1243350D01*
X739630Y1102850D02*
Y1244100D01*
X678630Y1102850D02*
X739630D01*
X1176377Y962160D02*
X1200419Y986201D01*
X1188398Y998222D02*
X1200419Y986201D01*
X1164356Y974180D02*
X1188398Y998222D01*
X1164356Y974180D02*
X1176377Y962160D01*
X815500Y831500D02*
Y891750D01*
Y831500D02*
X816250Y830750D01*
X956750D01*
X815500Y891750D02*
X956750D01*
Y830750D02*
Y891750D01*
X1103966Y1170594D02*
X1224174Y1050386D01*
X986586Y1053215D02*
X1103966Y1170594D01*
X986586Y1053215D02*
X986586Y1051800D01*
X1104673Y933714D01*
X1107501Y933714D01*
X1224174Y1050386D01*
X1509725Y891047D02*
X1503800D01*
Y886604D01*
X1506762D01*
X1503800D01*
Y882160D01*
X1512687Y891047D02*
Y882160D01*
X1517131D01*
X1518612Y883641D01*
Y889566D01*
X1517131Y891047D01*
X1512687D01*
X1521574Y889566D02*
X1523055Y891047D01*
X1526018D01*
X1527499Y889566D01*
Y888085D01*
X1526018Y886604D01*
X1527499Y885122D01*
Y883641D01*
X1526018Y882160D01*
X1523055D01*
X1521574Y883641D01*
Y885122D01*
X1523055Y886604D01*
X1521574Y888085D01*
Y889566D01*
X1523055Y886604D02*
X1526018D01*
X1530461Y880679D02*
X1536386D01*
X1539348Y882160D02*
X1542311D01*
X1540830D01*
Y891047D01*
X1539348Y889566D01*
X677203Y1631975D02*
Y1626050D01*
X681646D01*
Y1629012D01*
Y1626050D01*
X686090D01*
X677203Y1634937D02*
X686090D01*
Y1639381D01*
X684609Y1640862D01*
X678684D01*
X677203Y1639381D01*
Y1634937D01*
X678684Y1643824D02*
X677203Y1645305D01*
Y1648268D01*
X678684Y1649749D01*
X680165D01*
X681646Y1648268D01*
X683128Y1649749D01*
X684609D01*
X686090Y1648268D01*
Y1645305D01*
X684609Y1643824D01*
X683128D01*
X681646Y1645305D01*
X680165Y1643824D01*
X678684D01*
X681646Y1645305D02*
Y1648268D01*
X687571Y1652711D02*
Y1658636D01*
X686090Y1667523D02*
Y1661599D01*
X680165Y1667523D01*
X678684D01*
X677203Y1666042D01*
Y1663080D01*
X678684Y1661599D01*
X1328975Y1616047D02*
X1323050D01*
Y1611604D01*
X1326012D01*
X1323050D01*
Y1607160D01*
X1331937Y1616047D02*
Y1607160D01*
X1336381D01*
X1337862Y1608641D01*
Y1614566D01*
X1336381Y1616047D01*
X1331937D01*
X1340824Y1614566D02*
X1342305Y1616047D01*
X1345268D01*
X1346749Y1614566D01*
Y1613085D01*
X1345268Y1611604D01*
X1346749Y1610122D01*
Y1608641D01*
X1345268Y1607160D01*
X1342305D01*
X1340824Y1608641D01*
Y1610122D01*
X1342305Y1611604D01*
X1340824Y1613085D01*
Y1614566D01*
X1342305Y1611604D02*
X1345268D01*
D14*
X1164356Y974180D02*
X1176377Y962160D01*
X1200419Y986201D01*
X1188398Y998222D02*
X1200419Y986201D01*
X1164356Y974180D02*
X1188398Y998222D01*
D18*
X843265Y1250300D02*
X896765D01*
X843265Y1163050D02*
Y1250300D01*
Y1163050D02*
X896765D01*
Y1250300D01*
X677566Y1304500D02*
Y1355250D01*
Y1304500D02*
X702816D01*
Y1355250D01*
X677566D02*
X702816D01*
X1506500Y1621000D02*
Y1637250D01*
X1506000Y1620500D02*
X1506500Y1621000D01*
X1475000Y1620500D02*
X1506000D01*
X1475000D02*
Y1636750D01*
X1475500Y1637250D02*
X1506500D01*
X874411Y1269150D02*
Y1300150D01*
X874911Y1268650D02*
X891161D01*
Y1299650D01*
X890661Y1300150D02*
X891161Y1299650D01*
X874411Y1300150D02*
X890661D01*
X849011Y1269750D02*
Y1300750D01*
X849511Y1269250D02*
X865761D01*
Y1300250D01*
X865261Y1300750D02*
X865761Y1300250D01*
X849011Y1300750D02*
X865261D01*
X946219Y1270050D02*
Y1301050D01*
X946719Y1269550D02*
X962969D01*
Y1300550D01*
X962469Y1301050D02*
X962969Y1300550D01*
X946219Y1301050D02*
X962469D01*
X970314Y1270050D02*
Y1301050D01*
X970814Y1269550D02*
X987064D01*
Y1300550D01*
X986564Y1301050D02*
X987064Y1300550D01*
X970314Y1301050D02*
X986564D01*
X1078919Y1270000D02*
Y1301000D01*
X1079419Y1269500D02*
X1095669D01*
Y1300500D01*
X1095169Y1301000D02*
X1095669Y1300500D01*
X1078919Y1301000D02*
X1095169D01*
X1056219Y1270000D02*
Y1301000D01*
X1056719Y1269500D02*
X1072969D01*
Y1300500D01*
X1072469Y1301000D02*
X1072969Y1300500D01*
X1056219Y1301000D02*
X1072469D01*
X1230750Y1039150D02*
X1244000D01*
X1243750Y1036150D02*
Y1066650D01*
X1230500Y1036150D02*
X1243750D01*
X1230500D02*
Y1066650D01*
X1243750D01*
X1211500Y1066560D02*
X1224750D01*
X1211500Y1036060D02*
Y1066560D01*
Y1036060D02*
X1224750D01*
Y1066560D01*
X1211750Y1077500D02*
Y1090750D01*
Y1077500D02*
X1242250D01*
Y1090750D01*
X1211750D02*
X1242250D01*
X1316250Y1002750D02*
Y1027500D01*
X1271000Y1003000D02*
X1315750D01*
X1271000Y1027500D02*
X1316250D01*
X1271000Y1003000D02*
Y1027500D01*
X1303500Y966413D02*
X1316500D01*
Y995413D01*
X1303500D02*
X1316500D01*
X1303500Y966413D02*
Y995413D01*
X1242500Y930500D02*
X1255500D01*
Y959500D01*
X1242500D02*
X1255500D01*
X1242500Y930500D02*
Y959500D01*
X1316250Y932750D02*
Y957500D01*
X1271000Y933000D02*
X1315750D01*
X1271000Y957500D02*
X1316250D01*
X1271000Y933000D02*
Y957500D01*
X1456250Y881250D02*
Y912250D01*
X1439500Y912750D02*
X1455750D01*
X1439500Y881750D02*
Y912750D01*
Y881750D02*
X1440000Y881250D01*
X1456250D01*
X1398500Y885690D02*
X1411750D01*
Y916190D01*
X1398500D02*
X1411750D01*
X1398500Y885690D02*
Y916190D01*
X1411250Y867250D02*
Y880500D01*
X1380750D02*
X1411250D01*
X1380750Y867250D02*
Y880500D01*
Y867250D02*
X1411250D01*
X1298500Y865500D02*
X1373500D01*
X1298500D02*
Y920750D01*
X1373500D01*
Y865500D02*
Y920750D01*
X1331000Y893000D02*
X1341000D01*
X1336000Y888000D02*
Y898000D01*
X1271750Y894750D02*
X1285000D01*
X1284750Y891750D02*
Y922250D01*
X1271500Y891750D02*
X1284750D01*
X1271500D02*
Y922250D01*
X1284750D01*
X1242500Y922300D02*
X1255750D01*
X1242500Y891800D02*
Y922300D01*
Y891800D02*
X1255750D01*
Y922300D01*
X1195000Y832034D02*
X1220250D01*
X1195000D02*
Y882784D01*
X1220250D01*
Y832034D02*
Y882784D01*
X1189250Y898800D02*
X1220250D01*
X1220750Y899300D02*
Y915550D01*
X1189750D02*
X1220750D01*
X1189250Y915050D02*
X1189750Y915550D01*
X1189250Y898800D02*
Y915050D01*
X1168250Y941250D02*
Y954500D01*
X1137750D02*
X1168250D01*
X1137750Y941250D02*
Y954500D01*
Y941250D02*
X1168250D01*
X1131347Y895550D02*
Y929800D01*
X1131847Y930300D02*
X1175597D01*
X1175847Y895800D02*
Y930050D01*
X1131347Y895550D02*
X1175597D01*
X1181703Y959568D02*
X1191072Y968937D01*
X1181703Y959568D02*
X1203269Y938001D01*
X1212639Y947370D01*
X1191072Y968937D02*
X1212639Y947370D01*
X1196394Y972803D02*
X1205763Y982172D01*
X1196394Y972803D02*
X1217961Y951236D01*
X1227330Y960605D01*
X1205763Y982172D02*
X1227330Y960605D01*
X970750Y962000D02*
X984000D01*
Y992500D01*
X970750D02*
X984000D01*
X970750Y962000D02*
Y992500D01*
X989473Y942106D02*
Y955356D01*
Y942106D02*
X1019973D01*
Y955356D01*
X989473D02*
X1019973D01*
X1094500Y897750D02*
Y928750D01*
X1095000Y897250D02*
X1111250D01*
Y928250D01*
X1110750Y928750D02*
X1111250Y928250D01*
X1094500Y928750D02*
X1110750D01*
X748750Y855250D02*
X779750D01*
X748250Y838500D02*
Y854750D01*
Y838500D02*
X779250D01*
X779750Y839000D01*
Y855250D01*
X759000Y909750D02*
X769000D01*
X764000Y904750D02*
Y914750D01*
X728500Y951000D02*
X741750D01*
X728500Y920500D02*
Y951000D01*
Y920500D02*
X741750D01*
Y951000D01*
X707750Y923500D02*
X721000D01*
X720750Y920500D02*
Y951000D01*
X707500Y920500D02*
X720750D01*
X707500D02*
Y951000D01*
X720750D01*
X859250Y911200D02*
Y942200D01*
X859750Y910700D02*
X876000D01*
Y941700D01*
X875500Y942200D02*
X876000Y941700D01*
X859250Y942200D02*
X875500D01*
X923250Y909090D02*
Y922340D01*
X892750D02*
X923250D01*
X892750Y909090D02*
Y922340D01*
Y909090D02*
X923250D01*
X811750Y944000D02*
X842750D01*
X811250Y927250D02*
Y943500D01*
Y927250D02*
X842250D01*
X842750Y927750D01*
Y944000D01*
X782500Y1056530D02*
X795200Y1069230D01*
X782500Y966230D02*
Y1069230D01*
Y966230D02*
X857500D01*
Y1069230D01*
X782500D02*
X857500D01*
X743000Y1026469D02*
X756250D01*
Y1056970D01*
X743000D02*
X756250D01*
X743000Y1026469D02*
Y1056970D01*
X723660Y1026469D02*
X736910D01*
Y1056970D01*
X723660D02*
X736910D01*
X723660Y1026469D02*
Y1056970D01*
X986814Y1113002D02*
Y1144002D01*
X970064Y1144502D02*
X986314D01*
X970064Y1113502D02*
Y1144502D01*
Y1113502D02*
X970564Y1113002D01*
X986814D01*
X962719Y1114000D02*
Y1145000D01*
X945969Y1145500D02*
X962219D01*
X945969Y1114500D02*
Y1145500D01*
Y1114500D02*
X946469Y1114000D01*
X962719D01*
X890911Y1113636D02*
Y1144636D01*
X874161Y1145136D02*
X890411D01*
X874161Y1114136D02*
Y1145136D01*
Y1114136D02*
X874661Y1113636D01*
X890911D01*
X865511Y1113636D02*
Y1144636D01*
X848761Y1145136D02*
X865011D01*
X848761Y1114136D02*
Y1145136D01*
Y1114136D02*
X849261Y1113636D01*
X865511D01*
X995069Y1163100D02*
Y1250350D01*
X941569Y1163100D02*
X995069D01*
X941569D02*
Y1250350D01*
X995069D01*
X809750Y1230850D02*
Y1244100D01*
Y1230850D02*
X840250D01*
Y1244100D01*
X809750D02*
X840250D01*
X909219Y1231300D02*
Y1244550D01*
Y1231300D02*
X939719D01*
Y1244550D01*
X909219D02*
X939719D01*
X1010757Y1231300D02*
Y1244550D01*
Y1231300D02*
X1041257D01*
Y1244550D01*
X1010757D02*
X1041257D01*
X1097769Y1162800D02*
Y1250050D01*
X1044269Y1162800D02*
X1097769D01*
X1044269D02*
Y1250050D01*
X1097769D01*
X1116394Y1235680D02*
X1147394D01*
X1115894Y1218930D02*
Y1235180D01*
Y1218930D02*
X1146894D01*
X1147394Y1219430D01*
Y1235680D01*
X1115953Y1212180D02*
X1146953D01*
X1115453Y1195430D02*
Y1211680D01*
Y1195430D02*
X1146453D01*
X1146953Y1195930D01*
Y1212180D01*
X1268500Y1269250D02*
X1281750D01*
X1268500Y1238750D02*
Y1269250D01*
Y1238750D02*
X1281750D01*
Y1269250D01*
X1258788Y1198000D02*
Y1229000D01*
X1259288Y1197500D02*
X1275538D01*
Y1228500D01*
X1275038Y1229000D02*
X1275538Y1228500D01*
X1258788Y1229000D02*
X1275038D01*
X1235028Y1198000D02*
Y1229000D01*
X1235528Y1197500D02*
X1251778D01*
Y1228500D01*
X1251278Y1229000D02*
X1251778Y1228500D01*
X1235028Y1229000D02*
X1251278D01*
X1210279Y1198000D02*
Y1229000D01*
X1210779Y1197500D02*
X1227029D01*
Y1228500D01*
X1226529Y1229000D02*
X1227029Y1228500D01*
X1210279Y1229000D02*
X1226529D01*
X1185530Y1198000D02*
Y1229000D01*
X1186030Y1197500D02*
X1202280D01*
Y1228500D01*
X1201780Y1229000D02*
X1202280Y1228500D01*
X1185530Y1229000D02*
X1201780D01*
X1282038Y1177450D02*
X1369288D01*
X1282038D02*
Y1230950D01*
X1369288D01*
Y1177450D02*
Y1230950D01*
X1309744Y1139000D02*
X1340744D01*
X1309244Y1122250D02*
Y1138500D01*
Y1122250D02*
X1340244D01*
X1340744Y1122750D01*
Y1139000D01*
X1398250Y1193090D02*
Y1224090D01*
X1398750Y1192590D02*
X1415000D01*
Y1223590D01*
X1414500Y1224090D02*
X1415000Y1223590D01*
X1398250Y1224090D02*
X1414500D01*
X1414750Y1235745D02*
Y1266745D01*
X1398000Y1267245D02*
X1414250D01*
X1398000Y1236245D02*
Y1267245D01*
Y1236245D02*
X1398500Y1235745D01*
X1414750D01*
X1401500Y1301750D02*
X1432500D01*
X1433000Y1302250D02*
Y1318500D01*
X1402000D02*
X1433000D01*
X1401500Y1318000D02*
X1402000Y1318500D01*
X1401500Y1301750D02*
Y1318000D01*
X1401250Y1325550D02*
X1432250D01*
X1432750Y1326050D02*
Y1342300D01*
X1401750D02*
X1432750D01*
X1401250Y1341800D02*
X1401750Y1342300D01*
X1401250Y1325550D02*
Y1341800D01*
X1401500Y1349750D02*
X1432500D01*
X1433000Y1350250D02*
Y1366500D01*
X1402000D02*
X1433000D01*
X1401500Y1366000D02*
X1402000Y1366500D01*
X1401500Y1349750D02*
Y1366000D01*
Y1374750D02*
X1432500D01*
X1433000Y1375250D02*
Y1391500D01*
X1402000D02*
X1433000D01*
X1401500Y1391000D02*
X1402000Y1391500D01*
X1401500Y1374750D02*
Y1391000D01*
Y1397750D02*
X1432500D01*
X1433000Y1398250D02*
Y1414500D01*
X1402000D02*
X1433000D01*
X1401500Y1414000D02*
X1402000Y1414500D01*
X1401500Y1397750D02*
Y1414000D01*
X1242464Y1652250D02*
Y1685500D01*
X1225214Y1652250D02*
Y1685500D01*
Y1652250D02*
X1242464D01*
X1268750D02*
Y1685500D01*
X1251500Y1652250D02*
Y1685500D01*
Y1652250D02*
X1268750D01*
X1216179D02*
Y1685500D01*
X1198929Y1652250D02*
Y1685500D01*
Y1652250D02*
X1216179D01*
X1189893D02*
Y1685500D01*
X1172643Y1652250D02*
Y1685500D01*
Y1652250D02*
X1189893D01*
X1163607D02*
Y1685500D01*
X1146357Y1652250D02*
Y1685500D01*
Y1652250D02*
X1163607D01*
X1137321D02*
Y1685500D01*
X1120071Y1652250D02*
Y1685500D01*
Y1652250D02*
X1137321D01*
X1110750Y1652306D02*
Y1685556D01*
X1093500Y1652306D02*
Y1685556D01*
Y1652306D02*
X1110750D01*
X1084350Y1652500D02*
Y1685750D01*
X1067100Y1652500D02*
Y1685750D01*
Y1652500D02*
X1084350D01*
X1251750Y1610015D02*
Y1641015D01*
X1252250Y1609515D02*
X1268500D01*
Y1640515D01*
X1268000Y1641015D02*
X1268500Y1640515D01*
X1251750Y1641015D02*
X1268000D01*
X1225464Y1610015D02*
Y1641015D01*
X1225964Y1609515D02*
X1242214D01*
Y1640515D01*
X1241714Y1641015D02*
X1242214Y1640515D01*
X1225464Y1641015D02*
X1241714D01*
X1199178Y1610225D02*
Y1641225D01*
X1199678Y1609725D02*
X1215928D01*
Y1640725D01*
X1215428Y1641225D02*
X1215928Y1640725D01*
X1199178Y1641225D02*
X1215428D01*
X1172893Y1610225D02*
Y1641225D01*
X1173393Y1609725D02*
X1189643D01*
Y1640725D01*
X1189143Y1641225D02*
X1189643Y1640725D01*
X1172893Y1641225D02*
X1189143D01*
X1146607Y1610225D02*
Y1641225D01*
X1147107Y1609725D02*
X1163357D01*
Y1640725D01*
X1162857Y1641225D02*
X1163357Y1640725D01*
X1146607Y1641225D02*
X1162857D01*
X1120321Y1610225D02*
Y1641225D01*
X1120821Y1609725D02*
X1137071D01*
Y1640725D01*
X1136571Y1641225D02*
X1137071Y1640725D01*
X1120321Y1641225D02*
X1136571D01*
X1110250Y1609306D02*
Y1640306D01*
X1093500Y1640806D02*
X1109750D01*
X1093500Y1609806D02*
Y1640806D01*
Y1609806D02*
X1094000Y1609306D01*
X1110250D01*
X1083850Y1608475D02*
Y1639475D01*
X1067100Y1639975D02*
X1083350D01*
X1067100Y1608975D02*
Y1639975D01*
Y1608975D02*
X1067600Y1608475D01*
X1083850D01*
X1332250Y934750D02*
X1363250D01*
X1363750Y935250D02*
Y951500D01*
X1332750D02*
X1363750D01*
X1332250Y951000D02*
X1332750Y951500D01*
X1332250Y934750D02*
Y951000D01*
X991250Y994250D02*
X1019750Y994250D01*
X991250Y959250D02*
Y994250D01*
Y959250D02*
X1019750D01*
X1019750Y994250D02*
X1019750Y959250D01*
X1565402Y930082D02*
Y1593582D01*
X1463548D02*
X1565402D01*
X1463548Y930082D02*
Y1593582D01*
Y930082D02*
X1565402D01*
X1463450Y930050D02*
X1566450D01*
X1463450D02*
Y1593550D01*
X1566450D01*
Y930050D02*
Y1593550D01*
X869017Y1175800D02*
X873182D01*
X874015Y1176633D01*
Y1178299D01*
X873182Y1179132D01*
X869017D01*
X869850Y1180798D02*
X869017Y1181631D01*
Y1183298D01*
X869850Y1184131D01*
X870683D01*
X871516Y1183298D01*
X872349Y1184131D01*
X873182D01*
X874015Y1183298D01*
Y1181631D01*
X873182Y1180798D01*
X872349D01*
X871516Y1181631D01*
X870683Y1180798D01*
X869850D01*
X871516Y1181631D02*
Y1183298D01*
X715760Y1238010D02*
X720758D01*
Y1235511D01*
X719925Y1234678D01*
X718259D01*
X717426Y1235511D01*
Y1238010D01*
X715760Y1230512D02*
X720758D01*
X718259Y1233012D01*
Y1229679D01*
X681066Y1350000D02*
X686064D01*
Y1347501D01*
X685231Y1346668D01*
X683565D01*
X682732Y1347501D01*
Y1350000D01*
X686064Y1345002D02*
Y1341669D01*
X685231D01*
X681899Y1345002D01*
X681066D01*
X1475840Y1628380D02*
Y1633378D01*
X1478339D01*
X1479172Y1632545D01*
Y1630879D01*
X1478339Y1630046D01*
X1475840D01*
X1477506D02*
X1479172Y1628380D01*
X1480838Y1627547D02*
X1484171D01*
X1489169Y1633378D02*
X1485837D01*
Y1628380D01*
X1489169D01*
X1485837Y1630879D02*
X1487503D01*
X1494167Y1632545D02*
X1493334Y1633378D01*
X1491668D01*
X1490835Y1632545D01*
Y1631712D01*
X1491668Y1630879D01*
X1493334D01*
X1494167Y1630046D01*
Y1629213D01*
X1493334Y1628380D01*
X1491668D01*
X1490835Y1629213D01*
X1495833Y1633378D02*
Y1628380D01*
X1498333D01*
X1499166Y1629213D01*
Y1632545D01*
X1498333Y1633378D01*
X1495833D01*
X883281Y1269490D02*
X878283D01*
Y1271989D01*
X879116Y1272822D01*
X880782D01*
X881615Y1271989D01*
Y1269490D01*
Y1271156D02*
X883281Y1272822D01*
Y1277821D02*
Y1274488D01*
X879949Y1277821D01*
X879116D01*
X878283Y1276988D01*
Y1275322D01*
X879116Y1274488D01*
X878283Y1282819D02*
Y1279487D01*
X880782D01*
X879949Y1281153D01*
Y1281986D01*
X880782Y1282819D01*
X882448D01*
X883281Y1281986D01*
Y1280320D01*
X882448Y1279487D01*
X857881Y1270090D02*
X852883D01*
Y1272589D01*
X853716Y1273422D01*
X855382D01*
X856215Y1272589D01*
Y1270090D01*
Y1271756D02*
X857881Y1273422D01*
X853716Y1275088D02*
X852883Y1275921D01*
Y1277588D01*
X853716Y1278421D01*
X854549D01*
X855382Y1277588D01*
Y1276755D01*
Y1277588D01*
X856215Y1278421D01*
X857048D01*
X857881Y1277588D01*
Y1275921D01*
X857048Y1275088D01*
X857881Y1280087D02*
Y1281753D01*
Y1280920D01*
X852883D01*
X853716Y1280087D01*
X955089Y1270390D02*
X950091D01*
Y1272889D01*
X950924Y1273722D01*
X952590D01*
X953423Y1272889D01*
Y1270390D01*
Y1272056D02*
X955089Y1273722D01*
Y1278721D02*
Y1275388D01*
X951757Y1278721D01*
X950924D01*
X950091Y1277888D01*
Y1276221D01*
X950924Y1275388D01*
X954256Y1280387D02*
X955089Y1281220D01*
Y1282886D01*
X954256Y1283719D01*
X950924D01*
X950091Y1282886D01*
Y1281220D01*
X950924Y1280387D01*
X951757D01*
X952590Y1281220D01*
Y1283719D01*
X979184Y1270390D02*
X974186D01*
Y1272889D01*
X975019Y1273722D01*
X976685D01*
X977518Y1272889D01*
Y1270390D01*
Y1272056D02*
X979184Y1273722D01*
Y1278721D02*
Y1275388D01*
X975852Y1278721D01*
X975019D01*
X974186Y1277888D01*
Y1276221D01*
X975019Y1275388D01*
Y1280387D02*
X974186Y1281220D01*
Y1282886D01*
X975019Y1283719D01*
X975852D01*
X976685Y1282886D01*
Y1282053D01*
Y1282886D01*
X977518Y1283719D01*
X978351D01*
X979184Y1282886D01*
Y1281220D01*
X978351Y1280387D01*
X1087789Y1270340D02*
X1082791D01*
Y1272839D01*
X1083624Y1273672D01*
X1085290D01*
X1086123Y1272839D01*
Y1270340D01*
Y1272006D02*
X1087789Y1273672D01*
Y1278671D02*
Y1275338D01*
X1084457Y1278671D01*
X1083624D01*
X1082791Y1277838D01*
Y1276171D01*
X1083624Y1275338D01*
X1087789Y1280337D02*
Y1282003D01*
Y1281170D01*
X1082791D01*
X1083624Y1280337D01*
X1065089Y1270340D02*
X1060091D01*
Y1272839D01*
X1060924Y1273672D01*
X1062590D01*
X1063423Y1272839D01*
Y1270340D01*
Y1272006D02*
X1065089Y1273672D01*
Y1278671D02*
Y1275338D01*
X1061757Y1278671D01*
X1060924D01*
X1060091Y1277838D01*
Y1276171D01*
X1060924Y1275338D01*
X1060091Y1280337D02*
Y1283669D01*
X1060924D01*
X1064256Y1280337D01*
X1065089D01*
X1238765Y1060868D02*
X1239598Y1061701D01*
Y1063367D01*
X1238765Y1064200D01*
X1235433D01*
X1234600Y1063367D01*
Y1061701D01*
X1235433Y1060868D01*
X1234600Y1055869D02*
Y1059202D01*
X1237932Y1055869D01*
X1238765D01*
X1239598Y1056702D01*
Y1058369D01*
X1238765Y1059202D01*
Y1054203D02*
X1239598Y1053370D01*
Y1051704D01*
X1238765Y1050871D01*
X1235433D01*
X1234600Y1051704D01*
Y1053370D01*
X1235433Y1054203D01*
X1238765D01*
X1214585Y1041892D02*
X1213752Y1041059D01*
Y1039393D01*
X1214585Y1038560D01*
X1217917D01*
X1218750Y1039393D01*
Y1041059D01*
X1217917Y1041892D01*
X1218750Y1043558D02*
Y1045224D01*
Y1044391D01*
X1213752D01*
X1214585Y1043558D01*
X1213752Y1051056D02*
Y1047724D01*
X1216251D01*
X1215418Y1049390D01*
Y1050223D01*
X1216251Y1051056D01*
X1217917D01*
X1218750Y1050223D01*
Y1048557D01*
X1217917Y1047724D01*
X1236418Y1080585D02*
X1237251Y1079752D01*
X1238917D01*
X1239750Y1080585D01*
Y1083917D01*
X1238917Y1084750D01*
X1237251D01*
X1236418Y1083917D01*
X1231419Y1084750D02*
X1234752D01*
X1231419Y1081418D01*
Y1080585D01*
X1232253Y1079752D01*
X1233919D01*
X1234752Y1080585D01*
X1307268Y1010735D02*
X1308101Y1009902D01*
X1309767D01*
X1310600Y1010735D01*
Y1014067D01*
X1309767Y1014900D01*
X1308101D01*
X1307268Y1014067D01*
X1305602Y1009902D02*
X1302269D01*
Y1010735D01*
X1305602Y1014067D01*
Y1014900D01*
X1313998Y989081D02*
Y992413D01*
X1311499D01*
Y990747D01*
Y992413D01*
X1309000D01*
X1313998Y987415D02*
X1309000D01*
Y984915D01*
X1309833Y984082D01*
X1310666D01*
X1311499Y984915D01*
Y987415D01*
Y984915D01*
X1312332Y984082D01*
X1313165D01*
X1313998Y984915D01*
Y987415D01*
X1309000Y982416D02*
Y980750D01*
Y981583D01*
X1313998D01*
X1313165Y982416D01*
X1252998Y953168D02*
Y956500D01*
X1250499D01*
Y954834D01*
Y956500D01*
X1248000D01*
X1252998Y951502D02*
X1248000D01*
Y949002D01*
X1248833Y948169D01*
X1249666D01*
X1250499Y949002D01*
Y951502D01*
Y949002D01*
X1251332Y948169D01*
X1252165D01*
X1252998Y949002D01*
Y951502D01*
X1248000Y943171D02*
Y946503D01*
X1251332Y943171D01*
X1252165D01*
X1252998Y944004D01*
Y945670D01*
X1252165Y946503D01*
X1307268Y940735D02*
X1308101Y939902D01*
X1309767D01*
X1310600Y940735D01*
Y944067D01*
X1309767Y944900D01*
X1308101D01*
X1307268Y944067D01*
X1305602Y940735D02*
X1304769Y939902D01*
X1303102D01*
X1302269Y940735D01*
Y941568D01*
X1303102Y942401D01*
X1302269Y943234D01*
Y944067D01*
X1303102Y944900D01*
X1304769D01*
X1305602Y944067D01*
Y943234D01*
X1304769Y942401D01*
X1305602Y941568D01*
Y940735D01*
X1304769Y942401D02*
X1303102D01*
X1452378Y908578D02*
Y910244D01*
Y909411D01*
X1448213D01*
X1447380Y910244D01*
Y911077D01*
X1448213Y911910D01*
X1446547Y906912D02*
Y903579D01*
X1452378Y901913D02*
X1449046D01*
X1447380Y900247D01*
X1449046Y898581D01*
X1452378D01*
X1451545Y896915D02*
X1452378Y896082D01*
Y894416D01*
X1451545Y893583D01*
X1448213D01*
X1447380Y894416D01*
Y896082D01*
X1448213Y896915D01*
X1451545D01*
X1408665Y910358D02*
X1409498Y911191D01*
Y912857D01*
X1408665Y913690D01*
X1405333D01*
X1404500Y912857D01*
Y911191D01*
X1405333Y910358D01*
X1404500Y908692D02*
Y907026D01*
Y907859D01*
X1409498D01*
X1408665Y908692D01*
X1404500Y901194D02*
Y904526D01*
X1407832Y901194D01*
X1408665D01*
X1409498Y902027D01*
Y903693D01*
X1408665Y904526D01*
X1386582Y877415D02*
X1385749Y878248D01*
X1384083D01*
X1383250Y877415D01*
Y874083D01*
X1384083Y873250D01*
X1385749D01*
X1386582Y874083D01*
X1388248Y873250D02*
X1389915D01*
X1389081D01*
Y878248D01*
X1388248Y877415D01*
X1392414Y873250D02*
X1394080D01*
X1393247D01*
Y878248D01*
X1392414Y877415D01*
X1311250Y894998D02*
Y890833D01*
X1312083Y890000D01*
X1313749D01*
X1314582Y890833D01*
Y894998D01*
X1319581Y890000D02*
X1316248D01*
X1319581Y893332D01*
Y894165D01*
X1318748Y894998D01*
X1317081D01*
X1316248Y894165D01*
X1279765Y916468D02*
X1280598Y917301D01*
Y918967D01*
X1279765Y919800D01*
X1276433D01*
X1275600Y918967D01*
Y917301D01*
X1276433Y916468D01*
Y914802D02*
X1275600Y913969D01*
Y912302D01*
X1276433Y911469D01*
X1279765D01*
X1280598Y912302D01*
Y913969D01*
X1279765Y914802D01*
X1278932D01*
X1278099Y913969D01*
Y911469D01*
X1245585Y897632D02*
X1244752Y896799D01*
Y895133D01*
X1245585Y894300D01*
X1248917D01*
X1249750Y895133D01*
Y896799D01*
X1248917Y897632D01*
X1249750Y899298D02*
Y900965D01*
Y900131D01*
X1244752D01*
X1245585Y899298D01*
Y903464D02*
X1244752Y904297D01*
Y905963D01*
X1245585Y906796D01*
X1248917D01*
X1249750Y905963D01*
Y904297D01*
X1248917Y903464D01*
X1245585D01*
X1216750Y837284D02*
X1211752D01*
Y839783D01*
X1212585Y840616D01*
X1214251D01*
X1215084Y839783D01*
Y837284D01*
X1211752Y845615D02*
X1212585Y843949D01*
X1214251Y842282D01*
X1215917D01*
X1216750Y843115D01*
Y844781D01*
X1215917Y845615D01*
X1215084D01*
X1214251Y844781D01*
Y842282D01*
X1219910Y907670D02*
Y902672D01*
X1217411D01*
X1216578Y903505D01*
Y905171D01*
X1217411Y906004D01*
X1219910D01*
X1218244D02*
X1216578Y907670D01*
X1214912D02*
X1213245D01*
X1214079D01*
Y902672D01*
X1214912Y903505D01*
X1210746Y907670D02*
X1209080D01*
X1209913D01*
Y902672D01*
X1210746Y903505D01*
X1170368Y971704D02*
X1170957Y971115D01*
X1173313Y971115D01*
Y973472D01*
X1172724Y974061D01*
X1173313Y971115D02*
X1175080Y969348D01*
X1179793Y974061D02*
X1177437Y971704D01*
Y976417D01*
X1176848Y977006D01*
X1175669D01*
X1174491Y975828D01*
X1174491Y974650D01*
X1143582Y951415D02*
X1142749Y952248D01*
X1141083D01*
X1140250Y951415D01*
Y948083D01*
X1141083Y947250D01*
X1142749D01*
X1143582Y948083D01*
X1148581Y947250D02*
X1145248D01*
X1148581Y950582D01*
Y951415D01*
X1147748Y952248D01*
X1146081D01*
X1145248Y951415D01*
X1150247Y952248D02*
X1153579D01*
Y951415D01*
X1150247Y948083D01*
Y947250D01*
X1172597Y908802D02*
Y912967D01*
X1171764Y913800D01*
X1170098D01*
X1169265Y912967D01*
Y908802D01*
X1165099Y913800D02*
Y908802D01*
X1167599Y911301D01*
X1164266D01*
X1201327Y944306D02*
X1201327Y943128D01*
X1202505Y941950D01*
X1203683Y941950D01*
X1206039Y944306D01*
Y945484D01*
X1204861Y946662D01*
X1203683D01*
X1197203Y947251D02*
X1199559Y944895D01*
X1201327Y946662D01*
X1199559Y947251D01*
X1198970Y947840D01*
Y949019D01*
X1200148Y950197D01*
X1201327D01*
X1202505Y949019D01*
Y947840D01*
X1216018Y957541D02*
X1216018Y956363D01*
X1217196Y955185D01*
X1218374Y955185D01*
X1220730Y957541D01*
Y958720D01*
X1219552Y959898D01*
X1218374D01*
X1211894Y960487D02*
X1213661Y959898D01*
X1216018D01*
X1217196Y961076D01*
Y962254D01*
X1216018Y963432D01*
X1214840D01*
X1214251Y962843D01*
Y961665D01*
X1216018Y959898D01*
X980915Y986668D02*
X981748Y987501D01*
Y989167D01*
X980915Y990000D01*
X977583D01*
X976750Y989167D01*
Y987501D01*
X977583Y986668D01*
X980915Y985002D02*
X981748Y984168D01*
Y982502D01*
X980915Y981669D01*
X980082D01*
X979249Y982502D01*
Y983335D01*
Y982502D01*
X978416Y981669D01*
X977583D01*
X976750Y982502D01*
Y984168D01*
X977583Y985002D01*
X1014141Y945191D02*
X1014974Y944357D01*
X1016640D01*
X1017473Y945191D01*
Y948523D01*
X1016640Y949356D01*
X1014974D01*
X1014141Y948523D01*
X1009976Y949356D02*
Y944357D01*
X1012475Y946857D01*
X1009142D01*
X1103370Y898090D02*
X1098372D01*
Y900589D01*
X1099205Y901422D01*
X1100871D01*
X1101704Y900589D01*
Y898090D01*
Y899756D02*
X1103370Y901422D01*
Y903088D02*
Y904754D01*
Y903922D01*
X1098372D01*
X1099205Y903088D01*
Y907254D02*
X1098372Y908087D01*
Y909753D01*
X1099205Y910586D01*
X1102537D01*
X1103370Y909753D01*
Y908087D01*
X1102537Y907254D01*
X1099205D01*
X749090Y846380D02*
Y851378D01*
X751589D01*
X752422Y850545D01*
Y848879D01*
X751589Y848046D01*
X749090D01*
X750756D02*
X752422Y846380D01*
X754088Y850545D02*
X754921Y851378D01*
X756588D01*
X757421Y850545D01*
Y849712D01*
X756588Y848879D01*
X757421Y848046D01*
Y847213D01*
X756588Y846380D01*
X754921D01*
X754088Y847213D01*
Y848046D01*
X754921Y848879D01*
X754088Y849712D01*
Y850545D01*
X754921Y848879D02*
X756588D01*
X731585Y926332D02*
X730752Y925499D01*
Y923833D01*
X731585Y923000D01*
X734917D01*
X735750Y923833D01*
Y925499D01*
X734917Y926332D01*
X735750Y931331D02*
Y927998D01*
X732418Y931331D01*
X731585D01*
X730752Y930498D01*
Y928831D01*
X731585Y927998D01*
Y932997D02*
X730752Y933830D01*
Y935496D01*
X731585Y936329D01*
X732418D01*
X733251Y935496D01*
X734084Y936329D01*
X734917D01*
X735750Y935496D01*
Y933830D01*
X734917Y932997D01*
X734084D01*
X733251Y933830D01*
X732418Y932997D01*
X731585D01*
X733251Y933830D02*
Y935496D01*
X715765Y945218D02*
X716598Y946051D01*
Y947717D01*
X715765Y948550D01*
X712433D01*
X711600Y947717D01*
Y946051D01*
X712433Y945218D01*
X711600Y940219D02*
Y943552D01*
X714932Y940219D01*
X715765D01*
X716598Y941052D01*
Y942719D01*
X715765Y943552D01*
X712433Y938553D02*
X711600Y937720D01*
Y936054D01*
X712433Y935221D01*
X715765D01*
X716598Y936054D01*
Y937720D01*
X715765Y938553D01*
X714932D01*
X714099Y937720D01*
Y935221D01*
X868120Y911540D02*
X863122D01*
Y914039D01*
X863955Y914872D01*
X865621D01*
X866454Y914039D01*
Y911540D01*
Y913206D02*
X868120Y914872D01*
Y916538D02*
Y918204D01*
Y917371D01*
X863122D01*
X863955Y916538D01*
X898582Y919255D02*
X897749Y920088D01*
X896083D01*
X895250Y919255D01*
Y915923D01*
X896083Y915090D01*
X897749D01*
X898582Y915923D01*
X900248Y915090D02*
X901915D01*
X901081D01*
Y920088D01*
X900248Y919255D01*
X815422Y940128D02*
X813756D01*
X814589D01*
Y935963D01*
X813756Y935130D01*
X812923D01*
X812090Y935963D01*
X817088Y934297D02*
X820421D01*
X822087Y940128D02*
Y936796D01*
X823753Y935130D01*
X825419Y936796D01*
Y940128D01*
X827085Y935130D02*
X828751D01*
X827918D01*
Y940128D01*
X827085Y939295D01*
X821590Y867880D02*
Y872878D01*
X824089D01*
X824922Y872045D01*
Y870379D01*
X824089Y869546D01*
X821590D01*
X826588Y867880D02*
X828254D01*
X827421D01*
Y872878D01*
X826588Y872045D01*
X753165Y1051137D02*
X753998Y1051970D01*
Y1053636D01*
X753165Y1054470D01*
X749833D01*
X749000Y1053636D01*
Y1051970D01*
X749833Y1051137D01*
X753165Y1049471D02*
X753998Y1048638D01*
Y1046972D01*
X753165Y1046139D01*
X752332D01*
X751499Y1046972D01*
Y1047805D01*
Y1046972D01*
X750666Y1046139D01*
X749833D01*
X749000Y1046972D01*
Y1048638D01*
X749833Y1049471D01*
X753165Y1044473D02*
X753998Y1043640D01*
Y1041974D01*
X753165Y1041141D01*
X749833D01*
X749000Y1041974D01*
Y1043640D01*
X749833Y1044473D01*
X753165D01*
X733825Y1051137D02*
X734658Y1051970D01*
Y1053636D01*
X733825Y1054470D01*
X730493D01*
X729660Y1053636D01*
Y1051970D01*
X730493Y1051137D01*
X733825Y1049471D02*
X734658Y1048638D01*
Y1046972D01*
X733825Y1046139D01*
X732992D01*
X732159Y1046972D01*
Y1047805D01*
Y1046972D01*
X731326Y1046139D01*
X730493D01*
X729660Y1046972D01*
Y1048638D01*
X730493Y1049471D01*
X729660Y1044473D02*
Y1042807D01*
Y1043640D01*
X734658D01*
X733825Y1044473D01*
X977944Y1143662D02*
X982943D01*
Y1141162D01*
X982110Y1140329D01*
X980444D01*
X979611Y1141162D01*
Y1143662D01*
Y1141996D02*
X977944Y1140329D01*
Y1135331D02*
Y1138663D01*
X981277Y1135331D01*
X982110D01*
X982943Y1136164D01*
Y1137830D01*
X982110Y1138663D01*
X977944Y1131166D02*
X982943D01*
X980444Y1133665D01*
Y1130333D01*
X953849Y1144660D02*
X958847D01*
Y1142161D01*
X958014Y1141328D01*
X956348D01*
X955515Y1142161D01*
Y1144660D01*
Y1142994D02*
X953849Y1141328D01*
X958014Y1139662D02*
X958847Y1138829D01*
Y1137162D01*
X958014Y1136329D01*
X957181D01*
X956348Y1137162D01*
Y1137996D01*
Y1137162D01*
X955515Y1136329D01*
X954682D01*
X953849Y1137162D01*
Y1138829D01*
X954682Y1139662D01*
X958014Y1134663D02*
X958847Y1133830D01*
Y1132164D01*
X958014Y1131331D01*
X954682D01*
X953849Y1132164D01*
Y1133830D01*
X954682Y1134663D01*
X958014D01*
X882041Y1144296D02*
X887039D01*
Y1141796D01*
X886206Y1140963D01*
X884540D01*
X883707Y1141796D01*
Y1144296D01*
Y1142629D02*
X882041Y1140963D01*
Y1135965D02*
Y1139297D01*
X885373Y1135965D01*
X886206D01*
X887039Y1136798D01*
Y1138464D01*
X886206Y1139297D01*
X887039Y1130967D02*
X886206Y1132633D01*
X884540Y1134299D01*
X882874D01*
X882041Y1133466D01*
Y1131800D01*
X882874Y1130967D01*
X883707D01*
X884540Y1131800D01*
Y1134299D01*
X856641Y1144296D02*
X861639D01*
Y1141796D01*
X860806Y1140963D01*
X859140D01*
X858307Y1141796D01*
Y1144296D01*
Y1142629D02*
X856641Y1140963D01*
X860806Y1139297D02*
X861639Y1138464D01*
Y1136798D01*
X860806Y1135965D01*
X859973D01*
X859140Y1136798D01*
Y1137631D01*
Y1136798D01*
X858307Y1135965D01*
X857474D01*
X856641Y1136798D01*
Y1138464D01*
X857474Y1139297D01*
X856641Y1130967D02*
Y1134299D01*
X859973Y1130967D01*
X860806D01*
X861639Y1131800D01*
Y1133466D01*
X860806Y1134299D01*
X967321Y1175850D02*
X971486D01*
X972319Y1176683D01*
Y1178349D01*
X971486Y1179182D01*
X967321D01*
Y1180848D02*
Y1184181D01*
X968154D01*
X971486Y1180848D01*
X972319D01*
X834418Y1233935D02*
X835251Y1233102D01*
X836917D01*
X837750Y1233935D01*
Y1237267D01*
X836917Y1238100D01*
X835251D01*
X834418Y1237267D01*
X832752Y1233935D02*
X831919Y1233102D01*
X830252D01*
X829419Y1233935D01*
Y1234768D01*
X830252Y1235601D01*
X831086D01*
X830252D01*
X829419Y1236434D01*
Y1237267D01*
X830252Y1238100D01*
X831919D01*
X832752Y1237267D01*
X824421Y1238100D02*
X827753D01*
X824421Y1234768D01*
Y1233935D01*
X825254Y1233102D01*
X826920D01*
X827753Y1233935D01*
X933887Y1234385D02*
X934720Y1233552D01*
X936386D01*
X937219Y1234385D01*
Y1237717D01*
X936386Y1238550D01*
X934720D01*
X933887Y1237717D01*
X932221Y1234385D02*
X931388Y1233552D01*
X929722D01*
X928888Y1234385D01*
Y1235218D01*
X929722Y1236051D01*
X930555D01*
X929722D01*
X928888Y1236884D01*
Y1237717D01*
X929722Y1238550D01*
X931388D01*
X932221Y1237717D01*
X924723Y1238550D02*
Y1233552D01*
X927222Y1236051D01*
X923890D01*
X1035425Y1234385D02*
X1036258Y1233552D01*
X1037924D01*
X1038757Y1234385D01*
Y1237717D01*
X1037924Y1238550D01*
X1036258D01*
X1035425Y1237717D01*
X1033759Y1234385D02*
X1032926Y1233552D01*
X1031260D01*
X1030426Y1234385D01*
Y1235218D01*
X1031260Y1236051D01*
X1032093D01*
X1031260D01*
X1030426Y1236884D01*
Y1237717D01*
X1031260Y1238550D01*
X1032926D01*
X1033759Y1237717D01*
X1025428Y1233552D02*
X1028760D01*
Y1236051D01*
X1027094Y1235218D01*
X1026261D01*
X1025428Y1236051D01*
Y1237717D01*
X1026261Y1238550D01*
X1027927D01*
X1028760Y1237717D01*
X1094519Y1006251D02*
Y997920D01*
X1096185Y996254D01*
X1099518D01*
X1101184Y997920D01*
Y1006251D01*
X1104516Y997920D02*
X1106182Y996254D01*
X1109514D01*
X1111180Y997920D01*
Y1004585D01*
X1109514Y1006251D01*
X1106182D01*
X1104516Y1004585D01*
Y1002918D01*
X1106182Y1001252D01*
X1111180D01*
X1070021Y1175550D02*
X1074186D01*
X1075019Y1176383D01*
Y1178049D01*
X1074186Y1178882D01*
X1070021D01*
Y1183881D02*
X1070854Y1182215D01*
X1072520Y1180548D01*
X1074186D01*
X1075019Y1181381D01*
Y1183047D01*
X1074186Y1183881D01*
X1073353D01*
X1072520Y1183047D01*
Y1180548D01*
X1116734Y1226810D02*
Y1231808D01*
X1119233D01*
X1120066Y1230975D01*
Y1229309D01*
X1119233Y1228476D01*
X1116734D01*
X1118400D02*
X1120066Y1226810D01*
X1125065D02*
X1121732D01*
X1125065Y1230142D01*
Y1230975D01*
X1124232Y1231808D01*
X1122566D01*
X1121732Y1230975D01*
X1126731D02*
X1127564Y1231808D01*
X1129230D01*
X1130063Y1230975D01*
Y1230142D01*
X1129230Y1229309D01*
X1130063Y1228476D01*
Y1227643D01*
X1129230Y1226810D01*
X1127564D01*
X1126731Y1227643D01*
Y1228476D01*
X1127564Y1229309D01*
X1126731Y1230142D01*
Y1230975D01*
X1127564Y1229309D02*
X1129230D01*
X1116293Y1203310D02*
Y1208308D01*
X1118792D01*
X1119625Y1207475D01*
Y1205809D01*
X1118792Y1204976D01*
X1116293D01*
X1117959D02*
X1119625Y1203310D01*
X1124624D02*
X1121292D01*
X1124624Y1206642D01*
Y1207475D01*
X1123791Y1208308D01*
X1122125D01*
X1121292Y1207475D01*
X1129622Y1203310D02*
X1126290D01*
X1129622Y1206642D01*
Y1207475D01*
X1128789Y1208308D01*
X1127123D01*
X1126290Y1207475D01*
X1271585Y1244582D02*
X1270752Y1243749D01*
Y1242083D01*
X1271585Y1241250D01*
X1274917D01*
X1275750Y1242083D01*
Y1243749D01*
X1274917Y1244582D01*
X1271585Y1246248D02*
X1270752Y1247082D01*
Y1248748D01*
X1271585Y1249581D01*
X1272418D01*
X1273251Y1248748D01*
Y1247915D01*
Y1248748D01*
X1274084Y1249581D01*
X1274917D01*
X1275750Y1248748D01*
Y1247082D01*
X1274917Y1246248D01*
X1270752Y1254579D02*
X1271585Y1252913D01*
X1273251Y1251247D01*
X1274917D01*
X1275750Y1252080D01*
Y1253746D01*
X1274917Y1254579D01*
X1274084D01*
X1273251Y1253746D01*
Y1251247D01*
X1267658Y1198340D02*
X1262660D01*
Y1200839D01*
X1263493Y1201672D01*
X1265159D01*
X1265992Y1200839D01*
Y1198340D01*
Y1200006D02*
X1267658Y1201672D01*
X1263493Y1203338D02*
X1262660Y1204171D01*
Y1205837D01*
X1263493Y1206671D01*
X1264326D01*
X1265159Y1205837D01*
Y1205004D01*
Y1205837D01*
X1265992Y1206671D01*
X1266825D01*
X1267658Y1205837D01*
Y1204171D01*
X1266825Y1203338D01*
X1262660Y1211669D02*
X1263493Y1210003D01*
X1265159Y1208337D01*
X1266825D01*
X1267658Y1209170D01*
Y1210836D01*
X1266825Y1211669D01*
X1265992D01*
X1265159Y1210836D01*
Y1208337D01*
X1243898Y1198340D02*
X1238899D01*
Y1200839D01*
X1239732Y1201672D01*
X1241398D01*
X1242232Y1200839D01*
Y1198340D01*
Y1200006D02*
X1243898Y1201672D01*
X1239732Y1203338D02*
X1238899Y1204171D01*
Y1205837D01*
X1239732Y1206671D01*
X1240565D01*
X1241398Y1205837D01*
Y1205004D01*
Y1205837D01*
X1242232Y1206671D01*
X1243065D01*
X1243898Y1205837D01*
Y1204171D01*
X1243065Y1203338D01*
X1239732Y1208337D02*
X1238899Y1209170D01*
Y1210836D01*
X1239732Y1211669D01*
X1240565D01*
X1241398Y1210836D01*
Y1210003D01*
Y1210836D01*
X1242232Y1211669D01*
X1243065D01*
X1243898Y1210836D01*
Y1209170D01*
X1243065Y1208337D01*
X1219149Y1198340D02*
X1214151D01*
Y1200839D01*
X1214984Y1201672D01*
X1216650D01*
X1217483Y1200839D01*
Y1198340D01*
Y1200006D02*
X1219149Y1201672D01*
X1214984Y1203338D02*
X1214151Y1204171D01*
Y1205837D01*
X1214984Y1206671D01*
X1215817D01*
X1216650Y1205837D01*
Y1205004D01*
Y1205837D01*
X1217483Y1206671D01*
X1218316D01*
X1219149Y1205837D01*
Y1204171D01*
X1218316Y1203338D01*
X1219149Y1210836D02*
X1214151D01*
X1216650Y1208337D01*
Y1211669D01*
X1194400Y1198340D02*
X1189402D01*
Y1200839D01*
X1190235Y1201672D01*
X1191901D01*
X1192734Y1200839D01*
Y1198340D01*
Y1200006D02*
X1194400Y1201672D01*
X1190235Y1203338D02*
X1189402Y1204171D01*
Y1205837D01*
X1190235Y1206671D01*
X1191068D01*
X1191901Y1205837D01*
Y1205004D01*
Y1205837D01*
X1192734Y1206671D01*
X1193567D01*
X1194400Y1205837D01*
Y1204171D01*
X1193567Y1203338D01*
X1189402Y1211669D02*
Y1208337D01*
X1191901D01*
X1191068Y1210003D01*
Y1210836D01*
X1191901Y1211669D01*
X1193567D01*
X1194400Y1210836D01*
Y1209170D01*
X1193567Y1208337D01*
X1294788Y1205198D02*
Y1201033D01*
X1295621Y1200200D01*
X1297288D01*
X1298121Y1201033D01*
Y1205198D01*
X1299787Y1200200D02*
X1301453D01*
X1300620D01*
Y1205198D01*
X1299787Y1204365D01*
X1303952D02*
X1304785Y1205198D01*
X1306451D01*
X1307284Y1204365D01*
Y1201033D01*
X1306451Y1200200D01*
X1304785D01*
X1303952Y1201033D01*
Y1204365D01*
X1313416Y1135128D02*
X1311750D01*
X1312583D01*
Y1130963D01*
X1311750Y1130130D01*
X1310917D01*
X1310084Y1130963D01*
X1315082Y1129297D02*
X1318414D01*
X1320081Y1135128D02*
Y1131796D01*
X1321747Y1130130D01*
X1323413Y1131796D01*
Y1135128D01*
X1328411D02*
X1325079D01*
Y1132629D01*
X1326745Y1133462D01*
X1327578D01*
X1328411Y1132629D01*
Y1130963D01*
X1327578Y1130130D01*
X1325912D01*
X1325079Y1130963D01*
X1407120Y1193430D02*
X1402122D01*
Y1195929D01*
X1402955Y1196762D01*
X1404621D01*
X1405454Y1195929D01*
Y1193430D01*
Y1195096D02*
X1407120Y1196762D01*
Y1198428D02*
Y1200094D01*
Y1199261D01*
X1402122D01*
X1402955Y1198428D01*
X1406287Y1202594D02*
X1407120Y1203427D01*
Y1205093D01*
X1406287Y1205926D01*
X1402955D01*
X1402122Y1205093D01*
Y1203427D01*
X1402955Y1202594D01*
X1403788D01*
X1404621Y1203427D01*
Y1205926D01*
X1405880Y1266405D02*
X1410878D01*
Y1263906D01*
X1410045Y1263073D01*
X1408379D01*
X1407546Y1263906D01*
Y1266405D01*
Y1264739D02*
X1405880Y1263073D01*
Y1258074D02*
Y1261407D01*
X1409212Y1258074D01*
X1410045D01*
X1410878Y1258907D01*
Y1260574D01*
X1410045Y1261407D01*
Y1256408D02*
X1410878Y1255575D01*
Y1253909D01*
X1410045Y1253076D01*
X1406713D01*
X1405880Y1253909D01*
Y1255575D01*
X1406713Y1256408D01*
X1410045D01*
X1428828Y1305622D02*
X1430494D01*
X1429661D01*
Y1309787D01*
X1430494Y1310620D01*
X1431327D01*
X1432160Y1309787D01*
X1427162Y1311453D02*
X1423829D01*
X1422163Y1310620D02*
Y1305622D01*
X1419664D01*
X1418831Y1306455D01*
Y1308121D01*
X1419664Y1308954D01*
X1422163D01*
X1413833Y1306455D02*
X1414666Y1305622D01*
X1416332D01*
X1417165Y1306455D01*
Y1309787D01*
X1416332Y1310620D01*
X1414666D01*
X1413833Y1309787D01*
X1409668Y1310620D02*
Y1305622D01*
X1412167Y1308121D01*
X1408834D01*
X1428578Y1329422D02*
X1430244D01*
X1429411D01*
Y1333587D01*
X1430244Y1334420D01*
X1431077D01*
X1431910Y1333587D01*
X1426912Y1335253D02*
X1423579D01*
X1421913Y1334420D02*
Y1329422D01*
X1419414D01*
X1418581Y1330255D01*
Y1331921D01*
X1419414Y1332754D01*
X1421913D01*
X1413583Y1330255D02*
X1414416Y1329422D01*
X1416082D01*
X1416915Y1330255D01*
Y1333587D01*
X1416082Y1334420D01*
X1414416D01*
X1413583Y1333587D01*
X1411917Y1330255D02*
X1411084Y1329422D01*
X1409417D01*
X1408584Y1330255D01*
Y1331088D01*
X1409417Y1331921D01*
X1410250D01*
X1409417D01*
X1408584Y1332754D01*
Y1333587D01*
X1409417Y1334420D01*
X1411084D01*
X1411917Y1333587D01*
X1428828Y1353622D02*
X1430494D01*
X1429661D01*
Y1357787D01*
X1430494Y1358620D01*
X1431327D01*
X1432160Y1357787D01*
X1427162Y1359453D02*
X1423829D01*
X1422163Y1358620D02*
Y1353622D01*
X1419664D01*
X1418831Y1354455D01*
Y1356121D01*
X1419664Y1356954D01*
X1422163D01*
X1413833Y1354455D02*
X1414666Y1353622D01*
X1416332D01*
X1417165Y1354455D01*
Y1357787D01*
X1416332Y1358620D01*
X1414666D01*
X1413833Y1357787D01*
X1412167Y1358620D02*
X1410501D01*
X1411334D01*
Y1353622D01*
X1412167Y1354455D01*
X1408001D02*
X1407168Y1353622D01*
X1405502D01*
X1404669Y1354455D01*
Y1357787D01*
X1405502Y1358620D01*
X1407168D01*
X1408001Y1357787D01*
Y1354455D01*
X1428828Y1378622D02*
X1430494D01*
X1429661D01*
Y1382787D01*
X1430494Y1383620D01*
X1431327D01*
X1432160Y1382787D01*
X1427162Y1384453D02*
X1423829D01*
X1422163Y1383620D02*
Y1378622D01*
X1419664D01*
X1418831Y1379455D01*
Y1381121D01*
X1419664Y1381954D01*
X1422163D01*
X1413833Y1379455D02*
X1414666Y1378622D01*
X1416332D01*
X1417165Y1379455D01*
Y1382787D01*
X1416332Y1383620D01*
X1414666D01*
X1413833Y1382787D01*
X1412167D02*
X1411334Y1383620D01*
X1409668D01*
X1408834Y1382787D01*
Y1379455D01*
X1409668Y1378622D01*
X1411334D01*
X1412167Y1379455D01*
Y1380288D01*
X1411334Y1381121D01*
X1408834D01*
X1428828Y1401622D02*
X1430494D01*
X1429661D01*
Y1405787D01*
X1430494Y1406620D01*
X1431327D01*
X1432160Y1405787D01*
X1427162Y1407453D02*
X1423829D01*
X1422163Y1406620D02*
Y1401622D01*
X1419664D01*
X1418831Y1402455D01*
Y1404121D01*
X1419664Y1404954D01*
X1422163D01*
X1413833Y1402455D02*
X1414666Y1401622D01*
X1416332D01*
X1417165Y1402455D01*
Y1405787D01*
X1416332Y1406620D01*
X1414666D01*
X1413833Y1405787D01*
X1412167Y1402455D02*
X1411334Y1401622D01*
X1409668D01*
X1408834Y1402455D01*
Y1403288D01*
X1409668Y1404121D01*
X1408834Y1404954D01*
Y1405787D01*
X1409668Y1406620D01*
X1411334D01*
X1412167Y1405787D01*
Y1404954D01*
X1411334Y1404121D01*
X1412167Y1403288D01*
Y1402455D01*
X1411334Y1404121D02*
X1409668D01*
X1229216Y1658000D02*
X1234214D01*
Y1660499D01*
X1233381Y1661332D01*
X1230049D01*
X1229216Y1660499D01*
Y1658000D01*
X1234214Y1666331D02*
Y1662998D01*
X1230882Y1666331D01*
X1230049D01*
X1229216Y1665497D01*
Y1663831D01*
X1230049Y1662998D01*
X1255501Y1658000D02*
X1260500D01*
Y1660499D01*
X1259667Y1661332D01*
X1256335D01*
X1255501Y1660499D01*
Y1658000D01*
X1260500Y1662998D02*
Y1664664D01*
Y1663831D01*
X1255501D01*
X1256335Y1662998D01*
X1202930Y1658000D02*
X1207928D01*
Y1660499D01*
X1207095Y1661332D01*
X1203763D01*
X1202930Y1660499D01*
Y1658000D01*
X1207928Y1665497D02*
X1202930D01*
X1205429Y1662998D01*
Y1666331D01*
X1176644Y1658000D02*
X1181643D01*
Y1660499D01*
X1180810Y1661332D01*
X1177477D01*
X1176644Y1660499D01*
Y1658000D01*
X1177477Y1662998D02*
X1176644Y1663831D01*
Y1665497D01*
X1177477Y1666331D01*
X1178310D01*
X1179144Y1665497D01*
Y1664664D01*
Y1665497D01*
X1179977Y1666331D01*
X1180810D01*
X1181643Y1665497D01*
Y1663831D01*
X1180810Y1662998D01*
X1150359Y1658000D02*
X1155357D01*
Y1660499D01*
X1154524Y1661332D01*
X1151192D01*
X1150359Y1660499D01*
Y1658000D01*
Y1666331D02*
X1151192Y1664664D01*
X1152858Y1662998D01*
X1154524D01*
X1155357Y1663831D01*
Y1665497D01*
X1154524Y1666331D01*
X1153691D01*
X1152858Y1665497D01*
Y1662998D01*
X1124073Y1658000D02*
X1129071D01*
Y1660499D01*
X1128238Y1661332D01*
X1124906D01*
X1124073Y1660499D01*
Y1658000D01*
Y1666331D02*
Y1662998D01*
X1126572D01*
X1125739Y1664664D01*
Y1665497D01*
X1126572Y1666331D01*
X1128238D01*
X1129071Y1665497D01*
Y1663831D01*
X1128238Y1662998D01*
X1097502Y1658056D02*
X1102500D01*
Y1660555D01*
X1101667Y1661388D01*
X1098335D01*
X1097502Y1660555D01*
Y1658056D01*
X1098335Y1663054D02*
X1097502Y1663887D01*
Y1665553D01*
X1098335Y1666387D01*
X1099168D01*
X1100001Y1665553D01*
X1100834Y1666387D01*
X1101667D01*
X1102500Y1665553D01*
Y1663887D01*
X1101667Y1663054D01*
X1100834D01*
X1100001Y1663887D01*
X1099168Y1663054D01*
X1098335D01*
X1100001Y1663887D02*
Y1665553D01*
X1071102Y1658250D02*
X1076100D01*
Y1660749D01*
X1075267Y1661582D01*
X1071935D01*
X1071102Y1660749D01*
Y1658250D01*
Y1663248D02*
Y1666581D01*
X1071935D01*
X1075267Y1663248D01*
X1076100D01*
X1260620Y1610355D02*
X1255621D01*
Y1612854D01*
X1256454Y1613687D01*
X1258121D01*
X1258954Y1612854D01*
Y1610355D01*
Y1612021D02*
X1260620Y1613687D01*
Y1618686D02*
Y1615353D01*
X1257288Y1618686D01*
X1256454D01*
X1255621Y1617852D01*
Y1616186D01*
X1256454Y1615353D01*
X1234334Y1610355D02*
X1229336D01*
Y1612854D01*
X1230169Y1613687D01*
X1231835D01*
X1232668Y1612854D01*
Y1610355D01*
Y1612021D02*
X1234334Y1613687D01*
X1230169Y1615353D02*
X1229336Y1616186D01*
Y1617852D01*
X1230169Y1618686D01*
X1231002D01*
X1231835Y1617852D01*
Y1617019D01*
Y1617852D01*
X1232668Y1618686D01*
X1233501D01*
X1234334Y1617852D01*
Y1616186D01*
X1233501Y1615353D01*
X1208048Y1610565D02*
X1203050D01*
Y1613065D01*
X1203883Y1613898D01*
X1205549D01*
X1206382Y1613065D01*
Y1610565D01*
Y1612231D02*
X1208048Y1613898D01*
X1203050Y1618896D02*
Y1615564D01*
X1205549D01*
X1204716Y1617230D01*
Y1618063D01*
X1205549Y1618896D01*
X1207215D01*
X1208048Y1618063D01*
Y1616397D01*
X1207215Y1615564D01*
X1181763Y1610565D02*
X1176764D01*
Y1613065D01*
X1177597Y1613898D01*
X1179264D01*
X1180097Y1613065D01*
Y1610565D01*
Y1612231D02*
X1181763Y1613898D01*
Y1618063D02*
X1176764D01*
X1179264Y1615564D01*
Y1618896D01*
X1155477Y1610565D02*
X1150479D01*
Y1613065D01*
X1151312Y1613898D01*
X1152978D01*
X1153811Y1613065D01*
Y1610565D01*
Y1612231D02*
X1155477Y1613898D01*
X1150479Y1615564D02*
Y1618896D01*
X1151312D01*
X1154644Y1615564D01*
X1155477D01*
X1129191Y1610565D02*
X1124193D01*
Y1613065D01*
X1125026Y1613898D01*
X1126692D01*
X1127525Y1613065D01*
Y1610565D01*
Y1612231D02*
X1129191Y1613898D01*
X1124193Y1618896D02*
X1125026Y1617230D01*
X1126692Y1615564D01*
X1128358D01*
X1129191Y1616397D01*
Y1618063D01*
X1128358Y1618896D01*
X1127525D01*
X1126692Y1618063D01*
Y1615564D01*
X1101380Y1639966D02*
X1106378D01*
Y1637467D01*
X1105545Y1636634D01*
X1103879D01*
X1103046Y1637467D01*
Y1639966D01*
Y1638300D02*
X1101380Y1636634D01*
Y1634968D02*
Y1633302D01*
Y1634135D01*
X1106378D01*
X1105545Y1634968D01*
Y1630802D02*
X1106378Y1629969D01*
Y1628303D01*
X1105545Y1627470D01*
X1104712D01*
X1103879Y1628303D01*
Y1629136D01*
Y1628303D01*
X1103046Y1627470D01*
X1102213D01*
X1101380Y1628303D01*
Y1629969D01*
X1102213Y1630802D01*
X1074980Y1639135D02*
X1079978D01*
Y1636636D01*
X1079145Y1635803D01*
X1077479D01*
X1076646Y1636636D01*
Y1639135D01*
Y1637469D02*
X1074980Y1635803D01*
Y1634137D02*
Y1632471D01*
Y1633304D01*
X1079978D01*
X1079145Y1634137D01*
X1074980Y1626639D02*
Y1629972D01*
X1078312Y1626639D01*
X1079145D01*
X1079978Y1627472D01*
Y1629138D01*
X1079145Y1629972D01*
X1359578Y938622D02*
X1361244D01*
X1360411D01*
Y942787D01*
X1361244Y943620D01*
X1362077D01*
X1362910Y942787D01*
X1357912Y944453D02*
X1354579D01*
X1352913Y938622D02*
Y941954D01*
X1351247Y943620D01*
X1349581Y941954D01*
Y938622D01*
X1347915Y939455D02*
X1347082Y938622D01*
X1345416D01*
X1344583Y939455D01*
Y940288D01*
X1345416Y941121D01*
X1346249D01*
X1345416D01*
X1344583Y941954D01*
Y942787D01*
X1345416Y943620D01*
X1347082D01*
X1347915Y942787D01*
X1009998Y987500D02*
X1009165D01*
X1007499Y985834D01*
X1009165Y984168D01*
X1009998D01*
X1007499Y985834D02*
X1005000D01*
Y982502D02*
Y980835D01*
Y981668D01*
X1009998D01*
X1009165Y982502D01*
X1480203Y1434100D02*
X1488534D01*
X1490200Y1435766D01*
Y1439098D01*
X1488534Y1440764D01*
X1480203D01*
X1490200Y1444097D02*
Y1447429D01*
Y1445763D01*
X1480203D01*
X1481869Y1444097D01*
X1480203Y1459092D02*
X1481869Y1455760D01*
X1485202Y1452427D01*
X1488534D01*
X1490200Y1454094D01*
Y1457426D01*
X1488534Y1459092D01*
X1486868D01*
X1485202Y1457426D01*
Y1452427D01*
X1504900Y1433300D02*
X1494903D01*
Y1438298D01*
X1496569Y1439964D01*
X1499902D01*
X1501568Y1438298D01*
Y1433300D01*
X1496569Y1449961D02*
X1494903Y1448295D01*
Y1444963D01*
X1496569Y1443297D01*
X1503234D01*
X1504900Y1444963D01*
Y1448295D01*
X1503234Y1449961D01*
X1504900Y1453294D02*
Y1456626D01*
Y1454960D01*
X1494903D01*
X1496569Y1453294D01*
Y1461624D02*
X1494903Y1463290D01*
Y1466623D01*
X1496569Y1468289D01*
X1503234D01*
X1504900Y1466623D01*
Y1463290D01*
X1503234Y1461624D01*
X1496569D01*
X1504900Y1476619D02*
X1494903D01*
X1499902Y1471621D01*
Y1478286D01*
D118*
X1298500Y865500D02*
Y920500D01*
X1373500Y865500D02*
Y920500D01*
X1298500D02*
X1373500D01*
X1298500Y865500D02*
X1373500D01*
X782000Y888750D02*
Y930750D01*
X746000Y888750D02*
Y930750D01*
X782000D01*
X746000Y888750D02*
X782000D01*
D119*
X1227214Y1685500D02*
X1240214D01*
X1253500D02*
X1266500D01*
X1200928D02*
X1213929D01*
X1174643D02*
X1187643D01*
X1148357D02*
X1161357D01*
X1122071D02*
X1135071D01*
X1095500Y1685556D02*
X1108500D01*
X1069100Y1685750D02*
X1082100D01*
M02*
