G04*
G04 #@! TF.GenerationSoftware,Altium Limited,Altium Designer,18.1.7 (191)*
G04*
G04 Layer_Color=16711935*
%FSLAX44Y44*%
%MOMM*%
G71*
G01*
G75*
%ADD10C,0.2540*%
%ADD47R,1.8796X1.5556*%
%ADD48C,1.1684*%
%ADD50R,1.5556X1.8796*%
%ADD52R,1.5556X1.5556*%
%ADD53R,1.5556X1.4056*%
%ADD54R,1.4056X1.5556*%
%ADD72C,1.3716*%
%ADD73R,1.8556X1.8556*%
%ADD74C,1.8556*%
%ADD75R,1.8556X1.8556*%
%ADD76C,1.5456*%
%ADD77R,2.1336X2.1336*%
%ADD78C,2.1336*%
%ADD79C,4.3556*%
%ADD80C,0.9906*%
G04:AMPARAMS|DCode=100|XSize=1.5556mm|YSize=1.8796mm|CornerRadius=0mm|HoleSize=0mm|Usage=FLASHONLY|Rotation=225.000|XOffset=0mm|YOffset=0mm|HoleType=Round|Shape=Rectangle|*
%AMROTATEDRECTD100*
4,1,4,-0.1146,1.2145,1.2145,-0.1146,0.1146,-1.2145,-1.2145,0.1146,-0.1146,1.2145,0.0*
%
%ADD100ROTATEDRECTD100*%

G04:AMPARAMS|DCode=101|XSize=1.4056mm|YSize=1.5556mm|CornerRadius=0mm|HoleSize=0mm|Usage=FLASHONLY|Rotation=225.000|XOffset=0mm|YOffset=0mm|HoleType=Round|Shape=Rectangle|*
%AMROTATEDRECTD101*
4,1,4,-0.0530,1.0469,1.0469,-0.0530,0.0530,-1.0469,-1.0469,0.0530,-0.0530,1.0469,0.0*
%
%ADD101ROTATEDRECTD101*%

%ADD102P,2.2000X4X270.0*%
%ADD103R,1.5556X1.5556*%
%ADD104R,0.8056X1.8556*%
%ADD105R,1.8556X0.9256*%
G36*
X697124Y1620124D02*
X700172Y1612250D01*
X697124Y1604122D01*
X689250Y1601328D01*
X681884Y1604122D01*
X678328Y1612250D01*
X681376Y1620124D01*
X689250Y1623172D01*
X697124Y1620124D01*
D02*
G37*
G36*
X1497874Y871126D02*
X1490000Y868078D01*
X1481872Y871126D01*
X1479078Y879000D01*
X1481872Y886366D01*
X1490000Y889922D01*
X1497874Y886874D01*
X1500922Y879000D01*
X1497874Y871126D01*
D02*
G37*
G36*
X1317124Y1596126D02*
X1309250Y1593078D01*
X1301122Y1596126D01*
X1298328Y1604000D01*
X1301122Y1611366D01*
X1309250Y1614922D01*
X1317124Y1611874D01*
X1320172Y1604000D01*
X1317124Y1596126D01*
D02*
G37*
D10*
X1500925Y879000D02*
G03*
X1500925Y879000I-10925J0D01*
G01*
X700175Y1612250D02*
G03*
X700175Y1612250I-10925J0D01*
G01*
X1320175Y1604000D02*
G03*
X1320175Y1604000I-10925J0D01*
G01*
D47*
X1350000Y1022160D02*
D03*
Y1001840D02*
D03*
X868000Y1093840D02*
D03*
Y1114160D02*
D03*
X845000Y1094042D02*
D03*
Y1114362D02*
D03*
X800000Y1114083D02*
D03*
Y1093763D02*
D03*
X822500Y1114083D02*
D03*
Y1093763D02*
D03*
D48*
X1490000Y879000D02*
D03*
X689250Y1612250D02*
D03*
X1309250Y1604000D02*
D03*
D50*
X1428160Y1578800D02*
D03*
X1407840D02*
D03*
X1428160Y1553400D02*
D03*
X1407840D02*
D03*
X1428160Y1406000D02*
D03*
X1407840D02*
D03*
X1428160Y1381000D02*
D03*
X1407840D02*
D03*
X1430160Y1144000D02*
D03*
X1409840D02*
D03*
X1430160Y1120000D02*
D03*
X1409840D02*
D03*
X1430160Y1095000D02*
D03*
X1409840D02*
D03*
X1431160Y1071000D02*
D03*
X1410840D02*
D03*
X1374653Y999000D02*
D03*
X1394973D02*
D03*
X924840Y1114160D02*
D03*
X945160D02*
D03*
X924840Y1062500D02*
D03*
X945160D02*
D03*
D52*
X1334250Y1174300D02*
D03*
Y1155700D02*
D03*
X1350000Y967300D02*
D03*
Y948700D02*
D03*
D53*
X1354250Y1154750D02*
D03*
Y1173250D02*
D03*
X1330000Y967250D02*
D03*
Y948750D02*
D03*
X1415000Y998250D02*
D03*
Y979750D02*
D03*
D54*
X1195750Y930500D02*
D03*
X1214250D02*
D03*
X1017750Y992000D02*
D03*
X999250D02*
D03*
X1372250Y870000D02*
D03*
X1353750D02*
D03*
D72*
X1409750Y1208500D02*
D03*
X1405364Y1226525D02*
D03*
X1050068Y958000D02*
D03*
X1069000Y925000D02*
D03*
X1063750Y908250D02*
D03*
X1080750Y905500D02*
D03*
X1179750Y935500D02*
D03*
X1376000Y845852D02*
D03*
X1263750Y874250D02*
D03*
X1402270Y927920D02*
D03*
X1388000Y1100500D02*
D03*
X1315500Y1049000D02*
D03*
X1346000Y1052000D02*
D03*
X1387923Y1118592D02*
D03*
Y1135500D02*
D03*
X1438500Y1179250D02*
D03*
X1452250Y1249110D02*
D03*
Y1269430D02*
D03*
X1252250Y1300500D02*
D03*
X1269000Y1291000D02*
D03*
X1248000Y1347500D02*
D03*
X1247750Y1383000D02*
D03*
X1216750Y1391500D02*
D03*
X1217000Y1374500D02*
D03*
Y1357500D02*
D03*
X1216750Y1340000D02*
D03*
X779250Y1430500D02*
D03*
X978564Y1154250D02*
D03*
X934750Y1097750D02*
D03*
X860500Y1078250D02*
D03*
X822500D02*
D03*
X794000D02*
D03*
X918000Y1097227D02*
D03*
X744230Y1004500D02*
D03*
X790000Y918500D02*
D03*
X790250Y901500D02*
D03*
X808500Y849750D02*
D03*
X791750Y850000D02*
D03*
X1107611Y1181058D02*
D03*
X1105500Y1202000D02*
D03*
X1104750Y1407704D02*
D03*
X1104500Y1390500D02*
D03*
X1104351Y1373350D02*
D03*
X1104500Y1357000D02*
D03*
X813500Y1455000D02*
D03*
X957250Y1473250D02*
D03*
X973750Y1455000D02*
D03*
X909000Y1536250D02*
D03*
X888250Y1536750D02*
D03*
X799500Y1522250D02*
D03*
X789500Y1505750D02*
D03*
X1083250Y1261750D02*
D03*
X1005000Y1256175D02*
D03*
X1000750Y1282000D02*
D03*
X900250Y1259250D02*
D03*
X1262000Y1271375D02*
D03*
X766500Y1178250D02*
D03*
X711250Y1033000D02*
D03*
X950020Y954250D02*
D03*
X1413750Y1527000D02*
D03*
X1254000Y1063179D02*
D03*
X1025368Y1052360D02*
D03*
X1413750Y1431732D02*
D03*
X1365538Y1344500D02*
D03*
X1294538Y1171500D02*
D03*
X903295Y1027089D02*
D03*
X751000Y1359500D02*
D03*
X705176Y982250D02*
D03*
X736000Y1125500D02*
D03*
X950700Y897000D02*
D03*
X1512500Y906750D02*
D03*
X828750Y1009250D02*
D03*
X874750Y1205750D02*
D03*
X819250Y1385435D02*
D03*
X1320750Y1559250D02*
D03*
X1171000D02*
D03*
X845431Y1550000D02*
D03*
X685250Y1560000D02*
D03*
X1071250Y1560250D02*
D03*
X1250750Y1559250D02*
D03*
X906730Y1392026D02*
D03*
X786750Y1231250D02*
D03*
X1255750Y994250D02*
D03*
X1413750Y1479000D02*
D03*
X1250750D02*
D03*
X764250Y1687500D02*
D03*
X1007794D02*
D03*
X1007206Y1476500D02*
D03*
X1140750Y1328500D02*
D03*
X1026000Y897000D02*
D03*
D73*
X690000Y1524550D02*
D03*
X1526950Y1578800D02*
D03*
X1476200D02*
D03*
D74*
X690000Y1499150D02*
D03*
Y1473750D02*
D03*
Y1448350D02*
D03*
Y1422950D02*
D03*
Y1397550D02*
D03*
X1151800Y870000D02*
D03*
Y844600D02*
D03*
X1126400Y870000D02*
D03*
Y844600D02*
D03*
X1101000Y870000D02*
D03*
Y844600D02*
D03*
X1075600Y870000D02*
D03*
Y844600D02*
D03*
X1050200Y870000D02*
D03*
Y844600D02*
D03*
X1024800Y870000D02*
D03*
Y844600D02*
D03*
X999400Y870000D02*
D03*
X1476200Y1248600D02*
D03*
X1501600D02*
D03*
X1552400Y969200D02*
D03*
X1527000D02*
D03*
X1552400Y994600D02*
D03*
X1527000D02*
D03*
X1552400Y1020000D02*
D03*
X1527000D02*
D03*
X1552400Y1045400D02*
D03*
X1527000D02*
D03*
X1552400Y1070800D02*
D03*
X1527000D02*
D03*
X1552400Y1096200D02*
D03*
X1527000D02*
D03*
X1552400Y1121600D02*
D03*
X1527000D02*
D03*
X1552400Y1147000D02*
D03*
X1527000D02*
D03*
X1552400Y1172400D02*
D03*
X1527000D02*
D03*
X1552400Y1197800D02*
D03*
X1527000D02*
D03*
X1552400Y1223200D02*
D03*
X1527000D02*
D03*
X1552400Y1248600D02*
D03*
X1527000D02*
D03*
X1552400Y1274000D02*
D03*
X1527000D02*
D03*
X1552400Y1299400D02*
D03*
X1527000D02*
D03*
X1552400Y1324800D02*
D03*
X1527000D02*
D03*
X1552400Y1350200D02*
D03*
X1527000D02*
D03*
X1552400Y1375600D02*
D03*
X1527000Y1375350D02*
D03*
X1552400Y1401000D02*
D03*
X1527000D02*
D03*
X1552400Y1426400D02*
D03*
X1527000D02*
D03*
X1552400Y1451800D02*
D03*
X1526950D02*
D03*
X1552400Y1477200D02*
D03*
X1526950D02*
D03*
X1552400Y1502600D02*
D03*
X1527000D02*
D03*
X1552400Y1528000D02*
D03*
X1527000D02*
D03*
X1552400Y1553400D02*
D03*
X1527000D02*
D03*
X1552400Y1578800D02*
D03*
X1527000Y943800D02*
D03*
X1552400D02*
D03*
X1501600D02*
D03*
X1476200D02*
D03*
X1501600Y1578800D02*
D03*
X1476200Y1553400D02*
D03*
X1501600D02*
D03*
X1476200Y1528000D02*
D03*
X1501600D02*
D03*
X1476200Y1502600D02*
D03*
X1501600D02*
D03*
X1476200Y1477200D02*
D03*
X1501600D02*
D03*
X1476200Y1451800D02*
D03*
X1501600D02*
D03*
X1476200Y1426400D02*
D03*
X1501600D02*
D03*
X1476200Y1401000D02*
D03*
X1501600D02*
D03*
X1476200Y1375350D02*
D03*
X1501600Y1375600D02*
D03*
X1476200Y1350200D02*
D03*
X1501600D02*
D03*
X1476200Y1324800D02*
D03*
X1501600D02*
D03*
X1476200Y1299400D02*
D03*
X1501600D02*
D03*
X1476200Y1274000D02*
D03*
X1501600D02*
D03*
X1476200Y1223200D02*
D03*
X1501600D02*
D03*
X1476200Y1197800D02*
D03*
X1501600D02*
D03*
X1476200Y1172400D02*
D03*
X1501600D02*
D03*
X1476200Y1147000D02*
D03*
X1501600D02*
D03*
X1476200Y1121600D02*
D03*
X1501600D02*
D03*
X1476200Y1096200D02*
D03*
X1501600D02*
D03*
X1476200Y1070800D02*
D03*
X1501600D02*
D03*
X1476200Y1045400D02*
D03*
X1501600D02*
D03*
X1476200Y1020000D02*
D03*
X1501600D02*
D03*
X1476200Y994600D02*
D03*
X1501600D02*
D03*
X1476200Y969200D02*
D03*
X1501600D02*
D03*
D75*
X999400Y844600D02*
D03*
D76*
X880000Y1505000D02*
D03*
Y1415000D02*
D03*
D77*
X1205000Y844300D02*
D03*
D78*
Y869700D02*
D03*
D79*
X1360000Y1280000D02*
D03*
Y1640000D02*
D03*
X780000Y1280000D02*
D03*
Y1640000D02*
D03*
X695790Y1668380D02*
D03*
X1552448Y1629918D02*
D03*
X695790Y868130D02*
D03*
X1552540Y893130D02*
D03*
D80*
X1269000Y1334500D02*
D03*
X1215000Y1291750D02*
D03*
X1255311Y1334315D02*
D03*
X1394000Y1177000D02*
D03*
X719547Y1517750D02*
D03*
X740000Y853250D02*
D03*
X682750Y1357750D02*
D03*
X725250Y1525250D02*
D03*
X730750Y1531250D02*
D03*
X737036Y1536575D02*
D03*
X723732Y1578000D02*
D03*
X733750D02*
D03*
X703697D02*
D03*
X713714D02*
D03*
X742500Y1474500D02*
D03*
X761333D02*
D03*
X751917D02*
D03*
X770750D02*
D03*
X682750Y1347500D02*
D03*
X718250Y1244250D02*
D03*
X711035Y1255561D02*
D03*
X720250Y1266000D02*
D03*
X711000Y1167250D02*
D03*
Y1154750D02*
D03*
X1415387Y871750D02*
D03*
X822750Y888318D02*
D03*
X1117000Y899500D02*
D03*
X834000Y972000D02*
D03*
X764000Y885613D02*
D03*
X1022000Y1392500D02*
D03*
X986820Y1369037D02*
D03*
X982548Y1361566D02*
D03*
X1029300Y1382818D02*
D03*
X1351500Y1108500D02*
D03*
X1449000Y1062000D02*
D03*
X851792Y832000D02*
D03*
X1015300Y1007549D02*
D03*
X997549D02*
D03*
X1006500Y1016500D02*
D03*
X1015300Y1109554D02*
D03*
X1022636Y1130250D02*
D03*
X1077169Y1159921D02*
D03*
X1202250Y1185500D02*
D03*
X1141250Y1065000D02*
D03*
X1133750Y1089095D02*
D03*
X1124043Y1091395D02*
D03*
X1029783Y1346500D02*
D03*
X689250Y936610D02*
D03*
X752500Y1192750D02*
D03*
X1570500Y1108750D02*
D03*
X1567000Y1414000D02*
D03*
X1341000Y1321000D02*
D03*
X1334250Y1314000D02*
D03*
X970250Y1066500D02*
D03*
X844000Y915130D02*
D03*
X742000Y896000D02*
D03*
X1270000Y1058750D02*
D03*
X1276500Y1069500D02*
D03*
X1285000Y1120750D02*
D03*
X1284000Y1062250D02*
D03*
X1286500Y1135500D02*
D03*
X1275500Y1129250D02*
D03*
X1271250Y1171500D02*
D03*
X827250Y1173500D02*
D03*
X1351500Y925500D02*
D03*
X1180702Y1598750D02*
D03*
X1011500Y1596182D02*
D03*
X1002500Y1587500D02*
D03*
X997500Y1579750D02*
D03*
X1127500D02*
D03*
X1005548Y1603202D02*
D03*
X1206250Y1597750D02*
D03*
X1066750Y1007250D02*
D03*
X1077000Y948445D02*
D03*
X1094250Y940750D02*
D03*
X1053250Y942750D02*
D03*
X1052750Y929750D02*
D03*
X1139500Y1026750D02*
D03*
X1150840Y1020750D02*
D03*
X1103000Y1015750D02*
D03*
X1071265Y1023967D02*
D03*
X813750Y1440250D02*
D03*
X802289Y1471822D02*
D03*
X779250Y1464000D02*
D03*
X1077169Y1217250D02*
D03*
X1114250Y1258750D02*
D03*
X899750Y1275750D02*
D03*
X917000Y1196250D02*
D03*
X1167000Y1436500D02*
D03*
X1175500Y1443250D02*
D03*
X1184750Y1426750D02*
D03*
X1453750Y1289000D02*
D03*
X1311250Y1058750D02*
D03*
X1304500Y1053250D02*
D03*
X893500Y1070810D02*
D03*
X845000Y1042060D02*
D03*
X838500Y1051400D02*
D03*
X1397000Y1186500D02*
D03*
X1225750Y1020250D02*
D03*
X1219242Y1012000D02*
D03*
X1212500Y1004000D02*
D03*
X1374840Y1014000D02*
D03*
X1007049Y1109554D02*
D03*
X1206809Y1171057D02*
D03*
X1215000Y1172400D02*
D03*
X1224560Y1176057D02*
D03*
X1112500Y1126930D02*
D03*
X1100000Y1114083D02*
D03*
X1018750Y1139697D02*
D03*
X997000Y1128000D02*
D03*
X1035750Y1187000D02*
D03*
X1064469Y1191390D02*
D03*
X832000Y911000D02*
D03*
X890000Y899500D02*
D03*
X1051500Y1044500D02*
D03*
X1079053Y1073802D02*
D03*
X1089000Y1080500D02*
D03*
X1437250Y1039250D02*
D03*
X1415387Y1184000D02*
D03*
X1240034Y1158500D02*
D03*
X1246750Y1182000D02*
D03*
X1177500Y1173000D02*
D03*
X1175000Y1215000D02*
D03*
X1175731Y1196930D02*
D03*
X1176282Y1185750D02*
D03*
X916500Y1144250D02*
D03*
X909000Y1149590D02*
D03*
X958000Y1337250D02*
D03*
X949796Y1333065D02*
D03*
X1451500Y1444625D02*
D03*
X1373701Y1386750D02*
D03*
X1048000Y1052750D02*
D03*
X1046500Y1037000D02*
D03*
X1029500Y1112863D02*
D03*
X1017750Y1149250D02*
D03*
X990750Y1088250D02*
D03*
X976548Y1090803D02*
D03*
X970500Y1084500D02*
D03*
X963250Y1077160D02*
D03*
X986500Y1097750D02*
D03*
X1314000Y1206000D02*
D03*
X1313750Y1194750D02*
D03*
X1329250Y1388500D02*
D03*
X1320750Y1381750D02*
D03*
X1317432Y1300000D02*
D03*
X1448065Y1329000D02*
D03*
X1366000Y1496500D02*
D03*
X1357500Y1488250D02*
D03*
X1318107Y1515750D02*
D03*
X1307750Y1509000D02*
D03*
X1155250Y1587500D02*
D03*
X727750Y902000D02*
D03*
X822500Y911000D02*
D03*
X1384000Y1174000D02*
D03*
X1419000Y1175048D02*
D03*
X1360000Y1236960D02*
D03*
X1171000Y1323750D02*
D03*
X1104000Y1221326D02*
D03*
X790000Y1469000D02*
D03*
X739443Y1065250D02*
D03*
X791030Y973280D02*
D03*
X788000Y1153000D02*
D03*
X781000Y1161000D02*
D03*
X792998Y1143998D02*
D03*
X903045Y1157000D02*
D03*
X822000Y1164000D02*
D03*
X934000Y1163000D02*
D03*
X927000Y1169000D02*
D03*
X935000Y1182000D02*
D03*
X906000Y1190000D02*
D03*
X837000Y1165000D02*
D03*
X1445000Y1312000D02*
D03*
X1205768Y1096200D02*
D03*
X1268000Y1185000D02*
D03*
X1234000Y1183000D02*
D03*
X1188278Y1178540D02*
D03*
X1386000Y1378500D02*
D03*
X1365952Y1392952D02*
D03*
X1413000Y1039000D02*
D03*
X1350000Y1408000D02*
D03*
Y1399000D02*
D03*
X1176000Y1206000D02*
D03*
X1401000Y981000D02*
D03*
X1109000Y1072000D02*
D03*
X1102000Y1080000D02*
D03*
X1093998Y1058998D02*
D03*
X1115998Y1065998D02*
D03*
X1130700Y1065439D02*
D03*
X1123000Y1072178D02*
D03*
X1324700Y1307000D02*
D03*
X1333000Y1330000D02*
D03*
X1245250Y1169000D02*
D03*
X1037042Y1355750D02*
D03*
X959525Y1197500D02*
D03*
X957500Y1260669D02*
D03*
X1105000Y1135000D02*
D03*
X1064469Y1260000D02*
D03*
X900000Y1339390D02*
D03*
X890000Y1344000D02*
D03*
X882000Y1351821D02*
D03*
X837160Y1358587D02*
D03*
X1089869Y1217500D02*
D03*
X1078750Y1315250D02*
D03*
X1088250D02*
D03*
X845329Y1365402D02*
D03*
X1051769Y1191390D02*
D03*
X893000Y1488000D02*
D03*
Y1494000D02*
D03*
X970000Y1429564D02*
D03*
X950020Y1374660D02*
D03*
X941270D02*
D03*
X864000Y1493000D02*
D03*
X851000Y1494000D02*
D03*
X886000Y1457000D02*
D03*
Y1443000D02*
D03*
Y1430000D02*
D03*
X1202000Y1086000D02*
D03*
X1089000Y1066000D02*
D03*
X1130520Y940844D02*
D03*
X1123260Y934114D02*
D03*
X1145000Y933718D02*
D03*
X1420250Y877250D02*
D03*
X1411000Y962104D02*
D03*
X1417250Y954333D02*
D03*
X876165Y899000D02*
D03*
X905000Y901500D02*
D03*
X887090Y944930D02*
D03*
X885903Y1058969D02*
D03*
X794000Y1062180D02*
D03*
Y1036780D02*
D03*
X728250Y1065250D02*
D03*
X750635D02*
D03*
X1228500Y926290D02*
D03*
X1234500Y932750D02*
D03*
X887240Y935880D02*
D03*
X1181250Y902250D02*
D03*
D100*
X1172566Y953066D02*
D03*
X1186934Y967434D02*
D03*
D101*
X1032857Y1090604D02*
D03*
X1019776Y1077523D02*
D03*
X1154267Y973459D02*
D03*
X1167348Y986541D02*
D03*
D102*
X1031174Y1065174D02*
D03*
X1044326Y1078326D02*
D03*
X1154384Y999576D02*
D03*
X1141232Y986424D02*
D03*
D103*
X1017800Y973500D02*
D03*
X999200D02*
D03*
D104*
X1368250Y926750D02*
D03*
X1374750D02*
D03*
X1387750D02*
D03*
X1381250D02*
D03*
X1387750Y967250D02*
D03*
X1381250D02*
D03*
X1374750D02*
D03*
X1368250D02*
D03*
D105*
X1388250Y899500D02*
D03*
Y890000D02*
D03*
X1353750Y899750D02*
D03*
Y890250D02*
D03*
M02*
