M48
;Layer_Color=9474304
;FILE_FORMAT=4:4
METRIC,LZ
;TYPE=PLATED
T1F00S00C0.2540
T2F00S00C0.5080
T3F00S00C0.9000
T4F00S00C0.9906
T5F00S00C3.5000
;TYPE=NON_PLATED
T6F00S00C1.1900
T7F00S00C3.5000
%
T01
X0074Y0085325
X00742Y00896
X0072775Y00902
X00764Y00885613
X0079103Y0097328
X00750635Y0106525
X00739443
X0072825
X00711Y0115475
Y0116725
X00781Y01161
X00788Y01153
X00792998Y01143998
X0068925Y0093661
X008225Y00911
X00832
X00844Y0091513
X0082275Y00888318
X00876165Y00899
X0089Y008995
X00905Y009015
X0088724Y0093588
X0088709Y0094493
X00834Y00972
X00845Y0104206
X008385Y010514
X00885903Y01058969
X008935Y0107081
X0096325Y0107716
X009705Y010845
X00976548Y01090803
X0099075Y0108825
X009865Y0109775
X01007049Y01109554
X010153
X010295Y01112863
X01022636Y0113025
X0101875Y01139697
X0101775Y0114925
X00997Y01128
X0097025Y010665
X00997549Y01007549
X010153
X010065Y010165
X010465Y01037
X010515Y010445
X01048Y0105275
X01071265Y01023967
X0106675Y0100725
X01103Y0101575
X011395Y0102675
X0115084Y0102075
X0114125Y01065
X011307Y01065439
X01123Y01072178
X01115998Y01065998
X01109Y01072
X01102Y0108
X01089Y010805
Y01066
X01093998Y01058998
X01079053Y01073802
X011Y01114083
X011125Y0112693
X01105Y01135
X01077169Y01159921
X0103575Y01187
X00935Y01182
X00934Y01163
X00927Y01169
X009165Y0114425
X00909Y0114959
X00903045Y01157
X00906Y0119
X00837Y01165
X00822Y01164
X0082725Y011735
X00794Y0106218
Y0103678
X00851792Y00832
X0105275Y0092975
X0105325Y0094275
X01077Y00948445
X0109425Y0094075
X0112326Y00934114
X0113052Y00940844
X01145Y00933718
X01117Y008995
X0118125Y0090225
X0113375Y01089095
X01124043Y01091395
X011775Y01173
X01176282Y0118575
X01188278Y0117854
X0120225Y011855
X01206809Y01171057
X01215Y011724
X0122456Y01176057
X01234Y01183
X0124675Y01182
X0124525Y01169
X01240034Y011585
X0127125Y011715
X01268Y01185
X012755Y0112925
X012865Y011355
X01285Y0112075
X01284Y0106225
X012765Y010695
X0127Y0105875
X013045Y0105325
X0131125Y0105875
X013515Y011085
X01384Y01174
X01394Y01177
X01397Y011865
X01415387Y01184
X01419Y01175048
X01413Y01039
X0143725Y0103925
X01449Y01062
X0137484Y01014
X01401Y00981
X01411Y00962104
X0141725Y00954333
X0142025Y0087725
X01415387Y0087175
X013515Y009255
X01232Y0093146
X01226Y00925
X012125Y01004
X01219242Y01012
X0122575Y0102025
X01202Y01086
X01205768Y010962
X015705Y0110875
X0145375Y01289
X01445Y01312
X01448065Y01329
X01386Y013785
X01373701Y0138675
X01365952Y01392952
X0135Y01399
Y01408
X0132925Y013885
X0132075Y0138175
X01333Y0133
X01341Y01321
X0133425Y01314
X013247Y01307
X01317432Y013
X01285Y01334
X01273932Y01334932
X01215Y0129175
X01314Y01206
X0131375Y0119475
X0136Y0123696
X013575Y0148825
X01366Y014965
X01318107Y0151575
X0130775Y01509
X014515Y01444625
X01567Y01414
X0118475Y0142675
X011755Y0144325
X01167Y014365
X01171Y0132375
X01094Y0132875
Y0133775
X01029783Y013465
X01037042Y0135575
X010293Y01382818
X01022Y013925
X0098682Y01369037
X00982548Y01361566
X0095002Y0137466
X0094127
X00949796Y01333065
X00958Y0133725
X009Y0133939
X0089Y01344
X00882Y01351821
X00845329Y01365402
X0083716Y01358587
X0081375Y0144025
X00802289Y01471822
X00851Y01494
X00864Y01493
X00893Y01494
Y01488
X00886Y01457
Y01443
Y0143
X0097Y01429564
X009975Y0157975
X011275
X0111425Y0125875
X01104Y01221326
X01089869Y012175
X01077169Y0121725
X01064469Y0119139
X01051769
X01064469Y0126
X009575Y01260669
X00959525Y011975
X00917Y0119625
X0089975Y0127575
X01175Y01215
X01176Y01206
X01175731Y0119693
X007525Y0119275
X0071825Y0124425
X00711035Y01255561
X0072025Y01266
X0068275Y013475
Y0135775
X007425Y014745
X00751917
X00761333
X0077075
X0077925Y01464
X0079Y01469
X00719547Y0151775
X0072525Y0152525
X0073075Y0153125
X00737036Y01536575
X0073375Y01578
X00723732
X00713714
X00703697
X010025Y015875
X010115Y01596182
X01005548Y01603202
X0115525Y015875
X01180702Y0159875
X0120625Y0159775
T02
X0079175Y0085
X0079025Y009015
X0079Y009185
X0074423Y010045
X00705176Y0098225
X0071125Y01033
X00736Y011255
X007665Y0117825
X00794Y0107825
X008225
X008605
X00918Y01097227
X0093475Y0109775
X00978564Y0115425
X01025368Y0105236
X01050068Y00958
X01069Y00925
X0106375Y0090825
X0108075Y009055
X01026Y00897
X009507
X0095002Y0095425
X00903295Y01027089
X0082875Y0100925
X008085Y0084975
X0117975Y009355
X01107611Y01181058
X01294538Y011715
X01387923Y011355
Y01118592
X01388Y011005
X01346Y01052
X013155Y01049
X01254Y01063179
X0125575Y0099425
X0126375Y0087425
X01376Y00845852
X0140227Y0092792
X015125Y0090675
X014385Y0117925
X0140975Y012085
X01405364Y01226525
X0145225Y0124911
Y0126943
X01365538Y013445
X01248Y013475
X0124775Y01383
X01217Y013745
Y013575
X0121675Y0134
Y013915
X0125075Y01479
X0132075
Y0155925
X0125075
X0141375Y01527
Y01479
Y01431732
X01269Y01291
X0125225Y013005
X01262Y01271375
X0114075Y013285
X011045Y01357
X01104351Y0137335
X011045Y013905
X0110475Y01407704
X01007206Y014765
X0095725Y0147325
X0097375Y01455
X0090673Y01392026
X0081925Y01385435
X008135Y01455
X007995Y0152225
X00845431Y0155
X0088825Y0153675
X00909Y0153625
X0107125Y0156025
X01171Y0155925
X0108325Y0126175
X011055Y01202
X01005Y01256175
X0100075Y01282
X0090025Y0125925
X0087475Y0120575
X0078675Y0123125
X00751Y013595
X0077925Y014305
X007895Y0150575
X0068525Y0156
X0076425Y016875
X01007794
T03
X009994Y008446
X010248
X010502
X010756
X01101
X011264
X011518
Y0087
X011264
X01101
X010756
X010502
X010248
X009994
X014762Y009438
X015016
X01527
Y009692
X015524
Y009946
X01527
Y0102
X015524
Y010454
X01527
Y010708
X015524
Y010962
X01527
Y011216
X015524
Y01147
X01527
Y011724
X015524
X015016
X014762
Y01147
X015016
Y011216
X014762
Y010962
X015016
Y010708
X014762
Y010454
X015016
Y0102
X014762
Y009946
X015016
Y009692
X014762
X015524Y009438
Y011978
X01527
Y012232
X015524
Y012486
X01527
X015016
X014762
Y01274
Y012994
Y013248
Y013502
Y0137535
Y01401
Y014264
Y014518
Y014772
Y015026
Y01528
Y015534
Y015788
X015016
X0152695
X01527Y015534
Y01528
Y015026
X015524
Y014772
Y014518
Y014264
Y01401
Y013756
Y013502
Y013248
Y012994
Y01274
X01527
Y012994
Y013248
Y013502
Y0137535
Y01401
Y014264
X015016
Y014518
X0152695
Y014772
X015016
Y015026
Y01528
Y015534
X015524
Y01528
Y015788
X015016Y01401
Y013756
Y013502
Y013248
Y012994
Y01274
Y012232
X014762
Y011978
X015016
X0069Y0139755
Y0142295
Y0144835
Y0147375
Y0149915
Y0152455
T04
X01205Y008443
Y008697
T05
X0069579Y0086813
X0155254Y0089313
X0136Y0128
X0078Y0164
X0069579Y0166838
X0136Y0164
X01552448Y01629918
T06
X0088Y01415
Y01505
T07
X0078Y0128
M30
