M48
;Layer_Color=9474304
;FILE_FORMAT=4:4
METRIC,LZ
;TYPE=PLATED
T1F00S00C0.3000
T2F00S00C0.4000
T3F00S00C0.5000
T4F00S00C0.9000
T5F00S00C0.9906
T6F00S00C3.5000
;TYPE=NON_PLATED
T7F00S00C1.1900
T8F00S00C3.5000
%
T01
X0074Y0085325
X00742Y00896
X0072775Y00902
X0068925Y0093661
X0079103Y0097328
X007935Y01039
X00751528Y01065
X00742085
X00732643
X00711Y0115475
Y0116725
X00781Y01161
X00788Y01153
X00792998Y01143998
X00822Y01164
X0082725Y011735
X00837Y01165
X0090125Y01155228
X00909Y0114959
X009165Y0114425
X00927Y01169
X00934Y01163
X00935Y01182
X00906Y0119
X008935Y0107081
X00885903Y01058969
X00845Y010545
Y0104206
X00794Y0106218
X00834Y00972
X00832Y00911
X008225
X0081925Y0088575
X00810182Y0087575
X0088Y008605
X008925
X00905
X008555Y0083475
X0088724Y0093588
X0088709Y0094493
X0105325Y0094275
X0105275Y0092975
X01077Y00948445
X010905Y00940066
X0112299Y00936456
X0113025Y00943186
X01145Y00933718
X01117Y008995
X0118125Y0090225
X0115084Y0102075
X011395Y0102675
X01140016Y0106175
X01131
X0111648
X01123Y01072178
X01109Y01072
X01102Y0108
X01089Y010805
X01079053Y01072
X01089Y0106175
X01094173Y0105325
X01103Y0101575
X0106075Y0101675
X010465Y010345
Y0104375
Y010535
X010295Y01112863
X010153Y01109554
X01007049
X00997Y01128
X01022636Y0113025
X0101875Y01139697
X0101775Y0114925
X0103575Y01187
X01077169Y01159921
X01105Y01135
X011125Y0112693
X011Y01114083
X01124043Y01091135
X01134
X01175Y01173
Y0118575
X01188278Y0117854
X009865Y0109775
X0099075Y0108825
X00976548Y01090803
X009705Y010845
X0096325Y0107716
X009735Y0106375
X00997549Y01007549
X010153
X010065Y010165
X01040839Y00981603
X012125Y01004
X01219242Y01012
X0122575Y0102025
X0127Y0105875
X012765Y010695
X01284Y0106225
X013045Y0105325
X0131125Y0105875
X01285Y0112075
X012865Y011355
X012755Y0112925
X0127125Y01169
X01268Y01183
X0124675
X01234
X0122456Y01176057
X01213Y01169
X0120225Y011855
X011955Y011585
X01240034
X0124525Y01169
X01205768Y010962
X01202Y01086
X013515Y011085
X013845Y0117625
X01394Y01177
X01404319Y01184308
X01415387Y01184
X01419Y01175048
X01413Y01039
X0143725Y0103925
X01449Y01062
X0137484Y01014
X01401Y00981
X01411Y00962104
X0141725Y00954333
X0142025Y0087725
X01415387Y0087175
X013515Y009255
X012285Y0092629
X012345Y0093275
X015685Y0110825
X01445Y0129025
X01448065Y01312
Y01329
X01341Y01321
X0133425Y01314
X013247Y01307
X01317432Y013
X013145Y01336
X0130275
X01333Y0133
X01330386Y0138175
X0132075
X013595Y013825
X0137675Y01374918
X01385Y0138225
X01366699Y01415699
X01368Y0142575
X014515Y01444625
X015635Y01413
X0135725Y01242
X01314Y01206
X0131375Y0119475
X012165Y01303331
X01196Y01363
Y0137525
X0118525
X01171Y0132375
X010815Y0132075
X01072
X01029783Y013465
X01037042Y0135575
X010293Y01382818
X01022Y013925
X0098682Y01369037
X00982548Y01361566
X00958Y0133725
X00949796Y01333065
X009445Y01374
X0093575
X00898795Y01337
X0089Y01344
X00881678Y013515
X00845329Y01365402
X0083716Y01358587
X0081375Y0144025
X00802289Y01471711
X00851Y01494
X00864Y01493
X00893Y01494
Y01488
X00886Y01457
Y01443
Y0143
X0097Y01429564
X009575Y01260669
X00959525Y011975
X009205Y012046
X0089975Y0127575
X01064469Y0126
X01102188Y012585
X0110125Y01217
X01077169Y0121725
X0106775Y011945
X01054291Y0119475
X01175Y0119693
Y01206059
Y01215
X0115575Y0157775
X011275Y0157975
X00752107Y01521786
X00758322Y01513774
X00764536Y01505762
X0077075Y0149775
X0077075Y01471711
X00761333
X00751917
X007425
X0078025Y01465
X007905Y01471711
X0072025Y01266
X00711035Y01255561
X007265Y0124675
X007525Y0119275
X01135Y015875
X0115575
T02
X007285Y0085325
X00764Y00885613
X00705176Y0098225
X0071125Y01033
X00736Y011255
X007665Y0117825
X00934Y0112925
X00903295Y01027089
X0082225Y01009
X00828318Y0089575
X0085425Y00896065
X009507Y00897
X0095002Y0095425
X009175Y00844584
X0103775Y0088775
X0106825Y0100875
X01025368Y0105236
X01254Y01063179
X0125575Y0099425
X0132975Y01077961
X01294538Y011715
X015125Y0090675
X013455Y0123675
X01293451Y012615
X012805Y01352246
X0136125Y0135225
X0138175Y01303331
X0141375Y01431732
Y01479
Y01527
X0131375Y0147975
X0126275Y01559086
X0118525Y0155925
X0107125Y0156025
X010005Y0145525
X0090673Y01392026
X0081925Y01385435
X00845Y015375
X00867Y012055
X008945
X01028Y0120575
X0114075Y013285
X00751Y013595
X0078675Y0123125
X0068525Y0156
X0076425Y016875
X01007794
T03
X0079175Y0085
X0079025Y009015
X0079Y009185
X0074423Y010045
X00794Y0107825
X008225
X008605
X00918Y01097227
X0093475Y0109775
X00978564Y0115425
X01107611Y01181058
X01050068Y00958
X01069Y00925
X0106375Y0090825
X0108075Y009055
X0117975Y009355
X008085Y0084975
X0126375Y0087425
X01376Y00845852
X0140227Y0092792
X01346Y01052
X013155Y01049
X01388Y011005
X01387923Y01118592
Y011355
X01434809Y01173472
X01269Y01291
X012525Y012985
X01248Y013475
X0124775Y01383
X01217Y013745
Y013575
X0121675Y0134
Y013915
X011045Y013905
X01104351Y0137335
X011045Y01357
X0110475Y01407704
X0108325Y01261
X01005Y01256175
X0100075Y01282
X0090025Y0125925
X01107611Y01198
X0097375Y01455
X0095725Y0147325
X00909Y0153625
X0088825Y0153675
X0079675Y015155
Y0149915
X008135Y01455
X0077925Y014305
T04
X009994Y008446
X010248
X010502
X010756
X01101
X011264
X011518
Y0087
X011264
X01101
X010756
X010502
X010248
X009994
X014762Y009438
X015016
X01527
Y009692
X015524
Y009946
X01527
Y0102
X015524
Y010454
X01527
Y010708
X015524
Y010962
X01527
Y011216
X015524
Y01147
X01527
Y011724
X015524
X015016
X014762
Y01147
X015016
Y011216
X014762
Y010962
X015016
Y010708
X014762
Y010454
X015016
Y0102
X014762
Y009946
X015016
Y009692
X014762
X015524Y009438
Y011978
X01527
Y012232
X015524
Y012486
X01527
X015016
X014762
Y01274
Y012994
Y013248
Y013502
Y0137535
Y01401
Y014264
Y014518
Y014772
Y015026
Y01528
Y015534
Y015788
X015016
X0152695
X01527Y015534
Y01528
Y015026
X015524
Y014772
Y014518
Y014264
Y01401
Y013756
Y013502
Y013248
Y012994
Y01274
X01527
Y012994
Y013248
Y013502
Y0137535
Y01401
Y014264
X015016
Y014518
X0152695
Y014772
X015016
Y015026
Y01528
Y015534
X015524
Y01528
Y015788
X015016Y01401
Y013756
Y013502
Y013248
Y012994
Y01274
Y012232
X014762
Y011978
X015016
X014325
Y012232
Y012486
Y01274
X0069Y0139755
Y0142295
Y0144835
Y0147375
Y0149915
Y0152455
T05
X012075Y00844584
Y00869984
X00690316Y013173
Y013427
T06
X0069579Y0086813
X0155254Y0089313
X0069579Y0166838
X0136Y0164
X01552448Y01629918
T07
X0088Y01415
Y01505
T08
X0136Y0128
X0078
Y0164
M30
