G04*
G04 #@! TF.GenerationSoftware,Altium Limited,Altium Designer,18.1.7 (191)*
G04*
G04 Layer_Color=65535*
%FSLAX44Y44*%
%MOMM*%
G71*
G01*
G75*
%ADD10C,0.2540*%
%ADD11C,0.5000*%
%ADD12C,0.2500*%
%ADD13C,0.6000*%
%ADD14C,0.1500*%
%ADD15C,0.2000*%
%ADD16C,0.2032*%
%ADD17C,0.0119*%
%ADD18C,0.1000*%
%ADD19C,0.1778*%
%ADD20C,0.1984*%
%ADD21R,0.5080X1.5240*%
%ADD22R,1.5240X0.5080*%
G36*
X854397Y1648250D02*
X844397D01*
X849396Y1653250D01*
X854397Y1648250D01*
D02*
G37*
G36*
X874646Y1628000D02*
X869646Y1623000D01*
Y1633000D01*
X874646Y1628000D01*
D02*
G37*
G36*
X1030513Y1452325D02*
X1030763D01*
Y1452074D01*
Y1451824D01*
Y1451573D01*
Y1451323D01*
Y1451072D01*
Y1450822D01*
Y1450571D01*
Y1450321D01*
Y1450070D01*
Y1449820D01*
Y1449570D01*
X1032516D01*
Y1449319D01*
X1034019D01*
Y1449069D01*
X1033268D01*
Y1448818D01*
X1030763D01*
Y1448568D01*
Y1448318D01*
Y1448067D01*
Y1447817D01*
Y1447566D01*
Y1447316D01*
Y1447065D01*
X1030513D01*
Y1446815D01*
Y1446564D01*
Y1446314D01*
Y1446064D01*
Y1445813D01*
Y1445563D01*
X1030262D01*
Y1445813D01*
Y1446064D01*
Y1446314D01*
Y1446564D01*
X1030012D01*
Y1446815D01*
Y1447065D01*
Y1447316D01*
Y1447566D01*
Y1447817D01*
Y1448067D01*
Y1448318D01*
Y1448568D01*
Y1448818D01*
X1028509D01*
Y1449069D01*
X1027007D01*
Y1449319D01*
X1027257D01*
Y1449570D01*
X1030012D01*
Y1449820D01*
Y1450070D01*
Y1450321D01*
Y1450571D01*
Y1450822D01*
Y1451072D01*
X1030262D01*
Y1451323D01*
Y1451573D01*
Y1451824D01*
Y1452074D01*
Y1452325D01*
Y1452575D01*
X1030513D01*
Y1452325D01*
D02*
G37*
G36*
X1073087Y1440804D02*
Y1440554D01*
Y1440303D01*
Y1440053D01*
Y1439803D01*
Y1439552D01*
X1073338D01*
Y1439302D01*
Y1439051D01*
Y1438801D01*
Y1438550D01*
Y1438300D01*
Y1438049D01*
Y1437799D01*
Y1437549D01*
X1075842D01*
Y1437298D01*
X1076844D01*
Y1437048D01*
X1074840D01*
Y1436797D01*
X1073338D01*
Y1436547D01*
Y1436296D01*
Y1436046D01*
X1073087D01*
Y1435795D01*
Y1435545D01*
Y1435295D01*
Y1435044D01*
Y1434794D01*
Y1434543D01*
Y1434293D01*
Y1434042D01*
X1072587D01*
Y1434293D01*
Y1434543D01*
Y1434794D01*
Y1435044D01*
Y1435295D01*
Y1435545D01*
Y1435795D01*
Y1436046D01*
Y1436296D01*
Y1436547D01*
Y1436797D01*
X1071835D01*
Y1437048D01*
X1069832D01*
Y1437298D01*
X1069331D01*
Y1437549D01*
X1071334D01*
Y1437799D01*
X1072587D01*
Y1438049D01*
Y1438300D01*
Y1438550D01*
Y1438801D01*
Y1439051D01*
Y1439302D01*
Y1439552D01*
Y1439803D01*
Y1440053D01*
X1072837D01*
Y1440303D01*
Y1440554D01*
Y1440804D01*
Y1441055D01*
X1073087D01*
Y1440804D01*
D02*
G37*
G36*
X1032767Y1428533D02*
X1034269D01*
Y1428282D01*
X1035021D01*
Y1428032D01*
X1035772D01*
Y1427782D01*
X1036273D01*
Y1427531D01*
X1036523D01*
Y1427281D01*
X1037024D01*
Y1427030D01*
X1037275D01*
Y1426780D01*
X1037525D01*
Y1426529D01*
X1037775D01*
Y1426279D01*
X1038026D01*
Y1426028D01*
Y1425778D01*
X1038276D01*
Y1425527D01*
X1038527D01*
Y1425277D01*
Y1425027D01*
X1038777D01*
Y1424776D01*
Y1424526D01*
X1039028D01*
Y1424275D01*
Y1424025D01*
Y1423774D01*
X1039278D01*
Y1423524D01*
Y1423273D01*
Y1423023D01*
Y1422773D01*
Y1422522D01*
X1039529D01*
Y1422272D01*
Y1422021D01*
Y1421771D01*
Y1421521D01*
Y1421270D01*
Y1421020D01*
Y1420769D01*
Y1420519D01*
Y1420268D01*
Y1420018D01*
Y1419767D01*
X1039278D01*
Y1419517D01*
Y1419267D01*
X1040280D01*
Y1419517D01*
X1042033D01*
Y1419767D01*
X1043536D01*
Y1420018D01*
X1044287D01*
Y1420268D01*
X1044537D01*
Y1420519D01*
Y1420769D01*
Y1421020D01*
X1044788D01*
Y1421270D01*
Y1421521D01*
X1045038D01*
Y1421771D01*
Y1422021D01*
Y1422272D01*
X1045289D01*
Y1422522D01*
Y1422773D01*
Y1423023D01*
X1045539D01*
Y1423273D01*
Y1423524D01*
X1045790D01*
Y1423774D01*
Y1424025D01*
Y1424275D01*
X1046040D01*
Y1424526D01*
Y1424776D01*
Y1425027D01*
X1046290D01*
Y1425277D01*
Y1425527D01*
X1046541D01*
Y1425778D01*
Y1426028D01*
Y1426279D01*
X1046791D01*
Y1426529D01*
X1047042D01*
Y1426780D01*
X1047292D01*
Y1427030D01*
X1047543D01*
Y1427281D01*
X1047793D01*
Y1427531D01*
X1048294D01*
Y1427782D01*
X1049045D01*
Y1428032D01*
X1051550D01*
Y1427782D01*
X1052301D01*
Y1427531D01*
X1052802D01*
Y1427281D01*
X1053052D01*
Y1427030D01*
X1053303D01*
Y1426780D01*
X1053553D01*
Y1426529D01*
X1053804D01*
Y1426279D01*
Y1426028D01*
X1054054D01*
Y1425778D01*
Y1425527D01*
X1054305D01*
Y1425277D01*
Y1425027D01*
Y1424776D01*
X1054555D01*
Y1424526D01*
Y1424275D01*
X1054805D01*
Y1424025D01*
Y1423774D01*
Y1423524D01*
X1055056D01*
Y1423273D01*
Y1423023D01*
Y1422773D01*
X1055306D01*
Y1422522D01*
Y1422272D01*
X1055557D01*
Y1422021D01*
Y1421771D01*
X1055807D01*
Y1421521D01*
X1056058D01*
Y1421771D01*
X1058061D01*
Y1422021D01*
X1060565D01*
Y1422272D01*
X1060816D01*
Y1422522D01*
Y1422773D01*
X1061066D01*
Y1423023D01*
Y1423273D01*
X1061317D01*
Y1423524D01*
Y1423774D01*
X1061567D01*
Y1424025D01*
Y1424275D01*
X1061818D01*
Y1424526D01*
X1062068D01*
Y1424776D01*
X1062319D01*
Y1425027D01*
Y1425277D01*
X1062569D01*
Y1425527D01*
X1062820D01*
Y1425778D01*
X1063070D01*
Y1426028D01*
X1063320D01*
Y1426279D01*
X1063821D01*
Y1426529D01*
X1064072D01*
Y1426780D01*
X1064322D01*
Y1427030D01*
X1064823D01*
Y1427281D01*
X1065324D01*
Y1427531D01*
X1065825D01*
Y1427782D01*
X1066326D01*
Y1428032D01*
X1067077D01*
Y1428282D01*
X1068079D01*
Y1428533D01*
X1081602D01*
Y1428282D01*
Y1428032D01*
Y1427782D01*
Y1427531D01*
Y1427281D01*
Y1427030D01*
Y1426780D01*
Y1426529D01*
Y1426279D01*
Y1426028D01*
Y1425778D01*
Y1425527D01*
Y1425277D01*
Y1425027D01*
X1068579D01*
Y1424776D01*
X1067828D01*
Y1424526D01*
X1067327D01*
Y1424275D01*
X1066826D01*
Y1424025D01*
X1066326D01*
Y1423774D01*
X1066075D01*
Y1423524D01*
X1065825D01*
Y1423273D01*
X1065574D01*
Y1423023D01*
X1065324D01*
Y1422773D01*
X1065073D01*
Y1422522D01*
X1066326D01*
Y1422773D01*
X1069832D01*
Y1423023D01*
X1073839D01*
Y1423273D01*
X1078347D01*
Y1423524D01*
X1085860D01*
Y1423774D01*
Y1424025D01*
Y1424275D01*
Y1424526D01*
Y1424776D01*
Y1425027D01*
Y1425277D01*
Y1425527D01*
Y1425778D01*
Y1426028D01*
Y1426279D01*
Y1426529D01*
Y1426780D01*
Y1427030D01*
Y1427281D01*
Y1427531D01*
Y1427782D01*
Y1428032D01*
Y1428282D01*
Y1428533D01*
X1104643D01*
Y1428282D01*
Y1428032D01*
Y1427782D01*
Y1427531D01*
Y1427281D01*
Y1427030D01*
Y1426780D01*
Y1426529D01*
Y1426279D01*
Y1426028D01*
Y1425778D01*
Y1425527D01*
Y1425277D01*
Y1425027D01*
X1089366D01*
Y1424776D01*
Y1424526D01*
Y1424275D01*
Y1424025D01*
Y1423774D01*
Y1423524D01*
X1104142D01*
Y1423273D01*
X1108650D01*
Y1423023D01*
X1110904D01*
Y1422773D01*
X1112156D01*
Y1422522D01*
X1113158D01*
Y1422272D01*
X1113909D01*
Y1422021D01*
X1106897D01*
Y1421771D01*
X1099634D01*
Y1421521D01*
X1094375D01*
Y1421270D01*
X1089867D01*
Y1421020D01*
X1089366D01*
Y1420769D01*
Y1420519D01*
Y1420268D01*
Y1420018D01*
Y1419767D01*
X1103892D01*
Y1419517D01*
Y1419267D01*
Y1419016D01*
Y1418766D01*
Y1418515D01*
Y1418265D01*
Y1418014D01*
Y1417764D01*
Y1417513D01*
Y1417263D01*
Y1417013D01*
Y1416762D01*
X1089366D01*
Y1416512D01*
Y1416261D01*
Y1416011D01*
Y1415760D01*
Y1415510D01*
Y1415260D01*
Y1415009D01*
Y1414759D01*
Y1414508D01*
Y1414258D01*
Y1414007D01*
Y1413757D01*
Y1413506D01*
Y1413256D01*
Y1413006D01*
Y1412755D01*
Y1412505D01*
Y1412254D01*
Y1412004D01*
Y1411753D01*
Y1411503D01*
Y1411252D01*
Y1411002D01*
X1104643D01*
Y1410752D01*
Y1410501D01*
Y1410251D01*
Y1410000D01*
Y1409750D01*
Y1409499D01*
Y1409249D01*
Y1408999D01*
Y1408748D01*
Y1408498D01*
Y1408247D01*
Y1407997D01*
Y1407746D01*
Y1407496D01*
X1085860D01*
Y1407746D01*
Y1407997D01*
Y1408247D01*
Y1408498D01*
Y1408748D01*
Y1408999D01*
Y1409249D01*
Y1409499D01*
Y1409750D01*
Y1410000D01*
Y1410251D01*
Y1410501D01*
Y1410752D01*
Y1411002D01*
Y1411252D01*
Y1411503D01*
Y1411753D01*
Y1412004D01*
Y1412254D01*
Y1412505D01*
Y1412755D01*
Y1413006D01*
Y1413256D01*
Y1413506D01*
Y1413757D01*
Y1414007D01*
Y1414258D01*
Y1414508D01*
Y1414759D01*
Y1415009D01*
Y1415260D01*
Y1415510D01*
Y1415760D01*
Y1416011D01*
Y1416261D01*
Y1416512D01*
Y1416762D01*
Y1417013D01*
Y1417263D01*
Y1417513D01*
Y1417764D01*
Y1418014D01*
Y1418265D01*
Y1418515D01*
Y1418766D01*
Y1419016D01*
Y1419267D01*
Y1419517D01*
Y1419767D01*
Y1420018D01*
Y1420268D01*
Y1420519D01*
Y1420769D01*
X1082354D01*
Y1420519D01*
X1079348D01*
Y1420268D01*
X1076343D01*
Y1420018D01*
X1073588D01*
Y1419767D01*
X1071334D01*
Y1419517D01*
X1068830D01*
Y1419267D01*
X1066576D01*
Y1419016D01*
X1064573D01*
Y1418766D01*
X1063571D01*
Y1418515D01*
Y1418265D01*
Y1418014D01*
Y1417764D01*
Y1417513D01*
Y1417263D01*
Y1417013D01*
X1063821D01*
Y1416762D01*
Y1416512D01*
Y1416261D01*
Y1416011D01*
Y1415760D01*
X1064072D01*
Y1415510D01*
Y1415260D01*
Y1415009D01*
X1064322D01*
Y1414759D01*
Y1414508D01*
X1064573D01*
Y1414258D01*
X1064823D01*
Y1414007D01*
Y1413757D01*
X1065073D01*
Y1413506D01*
X1065324D01*
Y1413256D01*
X1065574D01*
Y1413006D01*
X1065825D01*
Y1412755D01*
X1066075D01*
Y1412505D01*
X1066326D01*
Y1412254D01*
X1066576D01*
Y1412004D01*
X1067077D01*
Y1411753D01*
X1067578D01*
Y1411503D01*
X1068329D01*
Y1411252D01*
X1069581D01*
Y1411002D01*
X1081602D01*
Y1410752D01*
Y1410501D01*
Y1410251D01*
Y1410000D01*
Y1409750D01*
Y1409499D01*
Y1409249D01*
Y1408999D01*
Y1408748D01*
Y1408498D01*
Y1408247D01*
Y1407997D01*
Y1407746D01*
Y1407496D01*
X1069331D01*
Y1407746D01*
X1067828D01*
Y1407997D01*
X1067077D01*
Y1408247D01*
X1066326D01*
Y1408498D01*
X1065825D01*
Y1408748D01*
X1065324D01*
Y1408999D01*
X1064823D01*
Y1409249D01*
X1064573D01*
Y1409499D01*
X1064072D01*
Y1409750D01*
X1063821D01*
Y1410000D01*
X1063571D01*
Y1410251D01*
X1063320D01*
Y1410501D01*
X1063070D01*
Y1410752D01*
X1062820D01*
Y1411002D01*
X1062569D01*
Y1411252D01*
X1062319D01*
Y1411503D01*
X1062068D01*
Y1411753D01*
Y1412004D01*
X1061818D01*
Y1412254D01*
X1061567D01*
Y1412505D01*
Y1412755D01*
X1061317D01*
Y1413006D01*
Y1413256D01*
X1061066D01*
Y1413506D01*
Y1413757D01*
X1060816D01*
Y1414007D01*
Y1414258D01*
Y1414508D01*
X1060565D01*
Y1414759D01*
Y1415009D01*
Y1415260D01*
Y1415510D01*
X1060315D01*
Y1415760D01*
Y1416011D01*
Y1416261D01*
Y1416512D01*
Y1416762D01*
X1060065D01*
Y1417013D01*
Y1417263D01*
Y1417513D01*
Y1417764D01*
Y1418014D01*
Y1418265D01*
X1058812D01*
Y1418014D01*
X1057310D01*
Y1417764D01*
X1057059D01*
Y1417513D01*
X1057310D01*
Y1417263D01*
Y1417013D01*
X1057560D01*
Y1416762D01*
Y1416512D01*
Y1416261D01*
X1057811D01*
Y1416011D01*
Y1415760D01*
X1058061D01*
Y1415510D01*
Y1415260D01*
Y1415009D01*
X1058311D01*
Y1414759D01*
Y1414508D01*
Y1414258D01*
X1058562D01*
Y1414007D01*
Y1413757D01*
X1058812D01*
Y1413506D01*
Y1413256D01*
Y1413006D01*
X1059063D01*
Y1412755D01*
Y1412505D01*
Y1412254D01*
X1059313D01*
Y1412004D01*
Y1411753D01*
X1059564D01*
Y1411503D01*
Y1411252D01*
Y1411002D01*
X1059814D01*
Y1410752D01*
Y1410501D01*
X1060065D01*
Y1410251D01*
Y1410000D01*
Y1409750D01*
X1060315D01*
Y1409499D01*
Y1409249D01*
Y1408999D01*
X1060565D01*
Y1408748D01*
Y1408498D01*
X1060816D01*
Y1408247D01*
X1057059D01*
Y1408498D01*
Y1408748D01*
X1056809D01*
Y1408999D01*
Y1409249D01*
Y1409499D01*
X1056558D01*
Y1409750D01*
Y1410000D01*
Y1410251D01*
X1056308D01*
Y1410501D01*
Y1410752D01*
X1056058D01*
Y1411002D01*
Y1411252D01*
Y1411503D01*
X1055807D01*
Y1411753D01*
Y1412004D01*
X1055557D01*
Y1412254D01*
Y1412505D01*
Y1412755D01*
X1055306D01*
Y1413006D01*
Y1413256D01*
Y1413506D01*
X1055056D01*
Y1413757D01*
Y1414007D01*
X1054805D01*
Y1414258D01*
Y1414508D01*
Y1414759D01*
X1054555D01*
Y1415009D01*
Y1415260D01*
Y1415510D01*
X1054305D01*
Y1415760D01*
Y1416011D01*
X1054054D01*
Y1416261D01*
Y1416512D01*
Y1416762D01*
X1053804D01*
Y1417013D01*
Y1417263D01*
X1052551D01*
Y1417013D01*
X1051299D01*
Y1416762D01*
X1049797D01*
Y1416512D01*
X1048544D01*
Y1416261D01*
X1047042D01*
Y1416011D01*
X1046290D01*
Y1415760D01*
Y1415510D01*
X1046040D01*
Y1415260D01*
Y1415009D01*
Y1414759D01*
X1045790D01*
Y1414508D01*
Y1414258D01*
X1045539D01*
Y1414007D01*
Y1413757D01*
Y1413506D01*
X1045289D01*
Y1413256D01*
Y1413006D01*
Y1412755D01*
X1045038D01*
Y1412505D01*
Y1412254D01*
X1044788D01*
Y1412004D01*
Y1411753D01*
Y1411503D01*
X1044537D01*
Y1411252D01*
Y1411002D01*
Y1410752D01*
X1044287D01*
Y1410501D01*
Y1410251D01*
X1044036D01*
Y1410000D01*
Y1409750D01*
Y1409499D01*
X1043786D01*
Y1409249D01*
Y1408999D01*
Y1408748D01*
X1043536D01*
Y1408498D01*
Y1408247D01*
X1039779D01*
Y1408498D01*
X1040030D01*
Y1408748D01*
Y1408999D01*
Y1409249D01*
X1040280D01*
Y1409499D01*
Y1409750D01*
X1040530D01*
Y1410000D01*
Y1410251D01*
Y1410501D01*
X1040781D01*
Y1410752D01*
Y1411002D01*
X1041031D01*
Y1411252D01*
Y1411503D01*
Y1411753D01*
X1041282D01*
Y1412004D01*
Y1412254D01*
Y1412505D01*
X1041532D01*
Y1412755D01*
Y1413006D01*
X1041783D01*
Y1413256D01*
Y1413506D01*
Y1413757D01*
X1042033D01*
Y1414007D01*
Y1414258D01*
Y1414508D01*
X1042283D01*
Y1414759D01*
Y1415009D01*
X1041031D01*
Y1414759D01*
X1039779D01*
Y1414508D01*
X1038777D01*
Y1414258D01*
X1037775D01*
Y1414007D01*
X1036774D01*
Y1413757D01*
X1035772D01*
Y1413506D01*
X1034770D01*
Y1413256D01*
X1033768D01*
Y1413006D01*
X1032767D01*
Y1412755D01*
X1032015D01*
Y1412505D01*
X1031014D01*
Y1412254D01*
X1030012D01*
Y1412004D01*
X1029260D01*
Y1411753D01*
X1028509D01*
Y1411503D01*
X1027758D01*
Y1411252D01*
X1026756D01*
Y1411002D01*
X1026005D01*
Y1410752D01*
X1025254D01*
Y1410501D01*
X1024502D01*
Y1410251D01*
X1024001D01*
Y1410000D01*
X1023250D01*
Y1409750D01*
X1022499D01*
Y1409499D01*
X1021747D01*
Y1409249D01*
X1020996D01*
Y1408999D01*
X1020495D01*
Y1408748D01*
Y1408498D01*
Y1408247D01*
Y1407997D01*
Y1407746D01*
X1017490D01*
Y1407496D01*
X1016739D01*
Y1407245D01*
X1016238D01*
Y1406995D01*
X1015737D01*
Y1406745D01*
X1015236D01*
Y1406494D01*
X1014735D01*
Y1406244D01*
X1014234D01*
Y1405993D01*
X1013483D01*
Y1405743D01*
X1012982D01*
Y1405492D01*
X1012481D01*
Y1405242D01*
X1012231D01*
Y1404991D01*
X1011730D01*
Y1404741D01*
X1011229D01*
Y1404491D01*
X1010728D01*
Y1404240D01*
X1010227D01*
Y1403990D01*
X1009977D01*
Y1403739D01*
X1009476D01*
Y1403489D01*
X1008975D01*
Y1403238D01*
X1008725D01*
Y1402988D01*
X1008224D01*
Y1402737D01*
X1007723D01*
Y1402487D01*
X1007472D01*
Y1402237D01*
X1006972D01*
Y1401986D01*
X1006721D01*
Y1401736D01*
X1006220D01*
Y1401485D01*
X1005970D01*
Y1401235D01*
X1005469D01*
Y1400984D01*
X1005218D01*
Y1400734D01*
X1004968D01*
Y1400484D01*
X1004467D01*
Y1400233D01*
X1004217D01*
Y1399983D01*
X1003966D01*
Y1399732D01*
X1003716D01*
Y1399482D01*
X1003215D01*
Y1399231D01*
X1002964D01*
Y1398981D01*
X1002714D01*
Y1398730D01*
X1002464D01*
Y1398480D01*
X1002213D01*
Y1398230D01*
X1001963D01*
Y1397979D01*
X1001712D01*
Y1397729D01*
X1001462D01*
Y1397478D01*
X1001211D01*
Y1397228D01*
X1000961D01*
Y1396977D01*
X1000711D01*
Y1396727D01*
X1000460D01*
Y1396476D01*
X1000210D01*
Y1396226D01*
X999959D01*
Y1395976D01*
X999709D01*
Y1395725D01*
X999458D01*
Y1395475D01*
Y1395224D01*
X999208D01*
Y1394974D01*
X998957D01*
Y1394724D01*
X998707D01*
Y1394473D01*
Y1394223D01*
X998456D01*
Y1393972D01*
X998206D01*
Y1393722D01*
X997956D01*
Y1393471D01*
Y1393221D01*
X997705D01*
Y1392970D01*
Y1392720D01*
X997455D01*
Y1392469D01*
Y1392219D01*
X997204D01*
Y1391969D01*
X996954D01*
Y1391718D01*
Y1391468D01*
X996703D01*
Y1391217D01*
Y1390967D01*
Y1390716D01*
X996453D01*
Y1390466D01*
Y1390215D01*
X996203D01*
Y1389965D01*
Y1389715D01*
Y1389464D01*
X995952D01*
Y1389214D01*
Y1388963D01*
Y1388713D01*
Y1388463D01*
X995702D01*
Y1388212D01*
Y1387962D01*
Y1387711D01*
Y1387461D01*
Y1387210D01*
Y1386960D01*
Y1386709D01*
X995451D01*
Y1386960D01*
Y1387210D01*
X995201D01*
Y1387461D01*
Y1387711D01*
X994950D01*
Y1387962D01*
Y1388212D01*
X994700D01*
Y1388463D01*
Y1388713D01*
Y1388963D01*
X994449D01*
Y1389214D01*
Y1389464D01*
Y1389715D01*
X994199D01*
Y1389965D01*
Y1390215D01*
Y1390466D01*
Y1390716D01*
Y1390967D01*
X993949D01*
Y1391217D01*
Y1391468D01*
Y1391718D01*
Y1391969D01*
Y1392219D01*
Y1392469D01*
Y1392720D01*
Y1392970D01*
Y1393221D01*
Y1393471D01*
Y1393722D01*
Y1393972D01*
Y1394223D01*
Y1394473D01*
Y1394724D01*
Y1394974D01*
Y1395224D01*
X994199D01*
Y1395475D01*
Y1395725D01*
Y1395976D01*
Y1396226D01*
Y1396476D01*
X994449D01*
Y1396727D01*
Y1396977D01*
Y1397228D01*
X994700D01*
Y1397478D01*
Y1397729D01*
Y1397979D01*
X994950D01*
Y1398230D01*
Y1398480D01*
X995201D01*
Y1398730D01*
Y1398981D01*
X995451D01*
Y1399231D01*
Y1399482D01*
X995702D01*
Y1399732D01*
Y1399983D01*
X995952D01*
Y1400233D01*
X996203D01*
Y1400484D01*
Y1400734D01*
X996453D01*
Y1400984D01*
X996703D01*
Y1401235D01*
Y1401485D01*
X996954D01*
Y1401736D01*
X997204D01*
Y1401986D01*
X997455D01*
Y1402237D01*
X997705D01*
Y1402487D01*
X997956D01*
Y1402737D01*
X998206D01*
Y1402988D01*
X998456D01*
Y1403238D01*
Y1403489D01*
X998707D01*
Y1403739D01*
X999208D01*
Y1403990D01*
X999458D01*
Y1404240D01*
X999709D01*
Y1404491D01*
X999959D01*
Y1404741D01*
X1000210D01*
Y1404991D01*
X1000460D01*
Y1405242D01*
X1000961D01*
Y1405492D01*
X1001211D01*
Y1405743D01*
X1001462D01*
Y1405993D01*
X1001963D01*
Y1406244D01*
X1002213D01*
Y1406494D01*
X1002714D01*
Y1406745D01*
X1002964D01*
Y1406995D01*
X1003465D01*
Y1407245D01*
X1003716D01*
Y1407496D01*
X990693D01*
Y1407746D01*
Y1407997D01*
Y1408247D01*
Y1408498D01*
Y1408748D01*
Y1408999D01*
Y1409249D01*
Y1409499D01*
Y1409750D01*
Y1410000D01*
Y1410251D01*
Y1410501D01*
Y1410752D01*
Y1411002D01*
X1007222D01*
Y1411252D01*
X1008224D01*
Y1411503D01*
X1008725D01*
Y1411753D01*
X1008975D01*
Y1412004D01*
X1009225D01*
Y1412254D01*
Y1412505D01*
X1009476D01*
Y1412755D01*
Y1413006D01*
X1009726D01*
Y1413256D01*
Y1413506D01*
Y1413757D01*
Y1414007D01*
Y1414258D01*
Y1414508D01*
Y1414759D01*
Y1415009D01*
X1009476D01*
Y1415260D01*
Y1415510D01*
X1009225D01*
Y1415760D01*
Y1416011D01*
X1008975D01*
Y1416261D01*
X1008474D01*
Y1416512D01*
X1007723D01*
Y1416762D01*
X995702D01*
Y1417013D01*
X994449D01*
Y1417263D01*
X993698D01*
Y1417513D01*
X993197D01*
Y1417764D01*
X992947D01*
Y1418014D01*
X992446D01*
Y1418265D01*
X992196D01*
Y1418515D01*
X991945D01*
Y1418766D01*
X991695D01*
Y1419016D01*
Y1419267D01*
X991444D01*
Y1419517D01*
X991194D01*
Y1419767D01*
Y1420018D01*
X990943D01*
Y1420268D01*
Y1420519D01*
X990693D01*
Y1420769D01*
Y1421020D01*
Y1421270D01*
Y1421521D01*
X990442D01*
Y1421771D01*
Y1422021D01*
Y1422272D01*
Y1422522D01*
Y1422773D01*
Y1423023D01*
Y1423273D01*
Y1423524D01*
Y1423774D01*
Y1424025D01*
X990693D01*
Y1424275D01*
Y1424526D01*
Y1424776D01*
Y1425027D01*
X990943D01*
Y1425277D01*
Y1425527D01*
X991194D01*
Y1425778D01*
Y1426028D01*
X991444D01*
Y1426279D01*
X991695D01*
Y1426529D01*
X991945D01*
Y1426780D01*
Y1427030D01*
X992446D01*
Y1427281D01*
X992696D01*
Y1427531D01*
X992947D01*
Y1427782D01*
X993448D01*
Y1428032D01*
X994199D01*
Y1428282D01*
X994950D01*
Y1428533D01*
X1011980D01*
Y1428282D01*
Y1428032D01*
Y1427782D01*
Y1427531D01*
Y1427281D01*
Y1427030D01*
Y1426780D01*
Y1426529D01*
Y1426279D01*
Y1426028D01*
Y1425778D01*
Y1425527D01*
Y1425277D01*
Y1425027D01*
X995702D01*
Y1424776D01*
X995201D01*
Y1424526D01*
X994950D01*
Y1424275D01*
X994700D01*
Y1424025D01*
X994449D01*
Y1423774D01*
Y1423524D01*
X994199D01*
Y1423273D01*
Y1423023D01*
Y1422773D01*
Y1422522D01*
Y1422272D01*
Y1422021D01*
Y1421771D01*
Y1421521D01*
Y1421270D01*
X994449D01*
Y1421020D01*
Y1420769D01*
X994700D01*
Y1420519D01*
X994950D01*
Y1420268D01*
X995201D01*
Y1420018D01*
X995702D01*
Y1419767D01*
X1007973D01*
Y1419517D01*
X1009225D01*
Y1419267D01*
X1009977D01*
Y1419016D01*
X1010478D01*
Y1418766D01*
X1010978D01*
Y1418515D01*
X1011229D01*
Y1418265D01*
X1011479D01*
Y1418014D01*
X1011730D01*
Y1417764D01*
X1011980D01*
Y1417513D01*
X1012231D01*
Y1417263D01*
Y1417013D01*
X1012481D01*
Y1416762D01*
Y1416512D01*
X1012731D01*
Y1416261D01*
Y1416011D01*
Y1415760D01*
X1012982D01*
Y1415510D01*
Y1415260D01*
Y1415009D01*
Y1414759D01*
Y1414508D01*
Y1414258D01*
Y1414007D01*
Y1413757D01*
Y1413506D01*
Y1413256D01*
Y1413006D01*
Y1412755D01*
Y1412505D01*
Y1412254D01*
Y1412004D01*
Y1411753D01*
X1013232D01*
Y1412004D01*
X1013733D01*
Y1412254D01*
X1014234D01*
Y1412505D01*
X1014986D01*
Y1412755D01*
X1015486D01*
Y1413006D01*
X1016238D01*
Y1413256D01*
X1016739D01*
Y1413506D01*
X1016989D01*
Y1413757D01*
Y1414007D01*
Y1414258D01*
Y1414508D01*
Y1414759D01*
Y1415009D01*
Y1415260D01*
Y1415510D01*
Y1415760D01*
Y1416011D01*
Y1416261D01*
Y1416512D01*
Y1416762D01*
Y1417013D01*
Y1417263D01*
Y1417513D01*
Y1417764D01*
Y1418014D01*
Y1418265D01*
Y1418515D01*
Y1418766D01*
Y1419016D01*
Y1419267D01*
Y1419517D01*
Y1419767D01*
Y1420018D01*
Y1420268D01*
Y1420519D01*
Y1420769D01*
Y1421020D01*
Y1421270D01*
Y1421521D01*
Y1421771D01*
Y1422021D01*
Y1422272D01*
Y1422522D01*
Y1422773D01*
Y1423023D01*
Y1423273D01*
Y1423524D01*
Y1423774D01*
Y1424025D01*
Y1424275D01*
Y1424526D01*
Y1424776D01*
Y1425027D01*
Y1425277D01*
Y1425527D01*
Y1425778D01*
Y1426028D01*
Y1426279D01*
Y1426529D01*
Y1426780D01*
Y1427030D01*
Y1427281D01*
Y1427531D01*
Y1427782D01*
Y1428032D01*
Y1428282D01*
Y1428533D01*
Y1428783D01*
X1032767D01*
Y1428533D01*
D02*
G37*
G36*
X1043035Y1401986D02*
Y1401736D01*
Y1401485D01*
Y1401235D01*
Y1400984D01*
Y1400734D01*
Y1400484D01*
X1043285D01*
Y1400233D01*
Y1399983D01*
Y1399732D01*
Y1399482D01*
Y1399231D01*
Y1398981D01*
Y1398730D01*
X1043786D01*
Y1398480D01*
X1045790D01*
Y1398230D01*
X1046541D01*
Y1397979D01*
X1044537D01*
Y1397729D01*
X1043285D01*
Y1397478D01*
Y1397228D01*
Y1396977D01*
X1043035D01*
Y1396727D01*
Y1396476D01*
Y1396226D01*
Y1395976D01*
Y1395725D01*
Y1395475D01*
Y1395224D01*
Y1394974D01*
X1042784D01*
Y1394724D01*
X1042534D01*
Y1394974D01*
Y1395224D01*
Y1395475D01*
Y1395725D01*
Y1395976D01*
Y1396226D01*
Y1396476D01*
Y1396727D01*
Y1396977D01*
Y1397228D01*
Y1397478D01*
Y1397729D01*
X1042033D01*
Y1397979D01*
X1039779D01*
Y1398230D01*
X1039028D01*
Y1398480D01*
X1041031D01*
Y1398730D01*
X1042534D01*
Y1398981D01*
Y1399231D01*
Y1399482D01*
Y1399732D01*
Y1399983D01*
Y1400233D01*
Y1400484D01*
Y1400734D01*
Y1400984D01*
X1042784D01*
Y1401235D01*
Y1401485D01*
Y1401736D01*
Y1401986D01*
Y1402237D01*
X1043035D01*
Y1401986D01*
D02*
G37*
G36*
X1069081Y1400984D02*
Y1400734D01*
Y1400484D01*
Y1400233D01*
X1069331D01*
Y1399983D01*
Y1399732D01*
Y1399482D01*
Y1399231D01*
Y1398981D01*
Y1398730D01*
Y1398480D01*
Y1398230D01*
Y1397979D01*
X1070333D01*
Y1397729D01*
X1072086D01*
Y1397478D01*
X1072336D01*
Y1397228D01*
X1069331D01*
Y1396977D01*
Y1396727D01*
Y1396476D01*
Y1396226D01*
Y1395976D01*
Y1395725D01*
X1069081D01*
Y1395475D01*
Y1395224D01*
Y1394974D01*
Y1394724D01*
Y1394473D01*
Y1394223D01*
X1068830D01*
Y1394473D01*
X1068579D01*
Y1394724D01*
Y1394974D01*
Y1395224D01*
Y1395475D01*
Y1395725D01*
Y1395976D01*
Y1396226D01*
Y1396476D01*
Y1396727D01*
Y1396977D01*
Y1397228D01*
X1066326D01*
Y1397478D01*
X1065073D01*
Y1397729D01*
X1066326D01*
Y1397979D01*
X1068579D01*
Y1398230D01*
Y1398480D01*
Y1398730D01*
Y1398981D01*
Y1399231D01*
Y1399482D01*
Y1399732D01*
Y1399983D01*
X1068830D01*
Y1400233D01*
Y1400484D01*
Y1400734D01*
Y1400984D01*
Y1401235D01*
X1069081D01*
Y1400984D01*
D02*
G37*
G36*
X1101387Y1402737D02*
X1102389D01*
Y1402487D01*
X1102890D01*
Y1402237D01*
X1103391D01*
Y1401986D01*
X1103641D01*
Y1401736D01*
X1103892D01*
Y1401485D01*
Y1401235D01*
X1104142D01*
Y1400984D01*
X1104392D01*
Y1400734D01*
Y1400484D01*
Y1400233D01*
Y1399983D01*
X1104643D01*
Y1399732D01*
Y1399482D01*
Y1399231D01*
Y1398981D01*
Y1398730D01*
X1104392D01*
Y1398480D01*
Y1398230D01*
Y1397979D01*
Y1397729D01*
X1104142D01*
Y1397478D01*
X1103892D01*
Y1397228D01*
Y1396977D01*
X1103391D01*
Y1396727D01*
X1103140D01*
Y1396476D01*
X1102639D01*
Y1396226D01*
X1103140D01*
Y1395976D01*
X1103391D01*
Y1395725D01*
X1103892D01*
Y1395475D01*
X1104142D01*
Y1395224D01*
Y1394974D01*
X1104392D01*
Y1394724D01*
X1104643D01*
Y1394473D01*
Y1394223D01*
Y1393972D01*
Y1393722D01*
X1104893D01*
Y1393471D01*
Y1393221D01*
Y1392970D01*
Y1392720D01*
Y1392469D01*
Y1392219D01*
X1104643D01*
Y1391969D01*
Y1391718D01*
Y1391468D01*
X1104392D01*
Y1391217D01*
Y1390967D01*
X1104142D01*
Y1390716D01*
Y1390466D01*
X1103892D01*
Y1390215D01*
X1103641D01*
Y1389965D01*
X1103391D01*
Y1389715D01*
X1102890D01*
Y1389464D01*
X1102389D01*
Y1389214D01*
X1101637D01*
Y1388963D01*
X1089616D01*
Y1389214D01*
Y1389464D01*
Y1389715D01*
Y1389965D01*
Y1390215D01*
Y1390466D01*
Y1390716D01*
Y1390967D01*
Y1391217D01*
Y1391468D01*
Y1391718D01*
Y1391969D01*
Y1392219D01*
Y1392469D01*
Y1392720D01*
Y1392970D01*
Y1393221D01*
Y1393471D01*
Y1393722D01*
Y1393972D01*
Y1394223D01*
Y1394473D01*
Y1394724D01*
Y1394974D01*
Y1395224D01*
Y1395475D01*
Y1395725D01*
Y1395976D01*
Y1396226D01*
Y1396476D01*
Y1396727D01*
Y1396977D01*
Y1397228D01*
Y1397478D01*
Y1397729D01*
Y1397979D01*
Y1398230D01*
Y1398480D01*
Y1398730D01*
Y1398981D01*
Y1399231D01*
Y1399482D01*
Y1399732D01*
Y1399983D01*
Y1400233D01*
Y1400484D01*
Y1400734D01*
Y1400984D01*
Y1401235D01*
Y1401485D01*
Y1401736D01*
Y1401986D01*
Y1402237D01*
Y1402487D01*
Y1402737D01*
Y1402988D01*
X1101387D01*
Y1402737D01*
D02*
G37*
G36*
X1079098Y1402988D02*
X1079348D01*
Y1402737D01*
X1079599D01*
Y1402487D01*
X1079849D01*
Y1402237D01*
X1080100D01*
Y1401986D01*
Y1401736D01*
X1080350D01*
Y1401485D01*
Y1401235D01*
X1080601D01*
Y1400984D01*
X1080851D01*
Y1400734D01*
Y1400484D01*
X1081102D01*
Y1400233D01*
X1081352D01*
Y1399983D01*
Y1399732D01*
X1081602D01*
Y1399482D01*
Y1399231D01*
X1081853D01*
Y1398981D01*
X1082103D01*
Y1398730D01*
Y1398480D01*
X1082354D01*
Y1398230D01*
Y1397979D01*
X1082604D01*
Y1397729D01*
X1082855D01*
Y1397478D01*
Y1397228D01*
X1083105D01*
Y1396977D01*
Y1396727D01*
X1083355D01*
Y1396476D01*
X1083606D01*
Y1396226D01*
Y1395976D01*
X1083856D01*
Y1395725D01*
Y1395475D01*
X1084107D01*
Y1395224D01*
X1084357D01*
Y1394974D01*
Y1394724D01*
X1084608D01*
Y1394473D01*
Y1394223D01*
X1084858D01*
Y1393972D01*
X1085108D01*
Y1393722D01*
Y1393471D01*
X1085359D01*
Y1393221D01*
Y1392970D01*
X1085609D01*
Y1392720D01*
X1085860D01*
Y1392469D01*
Y1392219D01*
X1086110D01*
Y1391969D01*
Y1391718D01*
X1086361D01*
Y1391468D01*
X1086611D01*
Y1391217D01*
Y1390967D01*
X1086862D01*
Y1390716D01*
Y1390466D01*
X1087112D01*
Y1390215D01*
X1087363D01*
Y1389965D01*
Y1389715D01*
X1087613D01*
Y1389464D01*
Y1389214D01*
X1087863D01*
Y1388963D01*
X1085108D01*
Y1389214D01*
X1084858D01*
Y1389464D01*
Y1389715D01*
X1084608D01*
Y1389965D01*
Y1390215D01*
X1084357D01*
Y1390466D01*
X1084107D01*
Y1390716D01*
Y1390967D01*
X1083856D01*
Y1391217D01*
Y1391468D01*
X1083606D01*
Y1391718D01*
X1083355D01*
Y1391969D01*
Y1392219D01*
X1083105D01*
Y1392469D01*
X1074089D01*
Y1392219D01*
Y1391969D01*
X1073839D01*
Y1391718D01*
X1073588D01*
Y1391468D01*
Y1391217D01*
X1073338D01*
Y1390967D01*
Y1390716D01*
X1073087D01*
Y1390466D01*
X1072837D01*
Y1390215D01*
Y1389965D01*
X1072587D01*
Y1389715D01*
Y1389464D01*
X1072336D01*
Y1389214D01*
Y1388963D01*
X1069581D01*
Y1389214D01*
X1069832D01*
Y1389464D01*
Y1389715D01*
X1070082D01*
Y1389965D01*
X1070333D01*
Y1390215D01*
Y1390466D01*
X1070583D01*
Y1390716D01*
Y1390967D01*
X1070834D01*
Y1391217D01*
X1071084D01*
Y1391468D01*
Y1391718D01*
X1071334D01*
Y1391969D01*
Y1392219D01*
X1071585D01*
Y1392469D01*
X1071835D01*
Y1392720D01*
Y1392970D01*
X1072086D01*
Y1393221D01*
Y1393471D01*
X1072336D01*
Y1393722D01*
X1072587D01*
Y1393972D01*
Y1394223D01*
X1072837D01*
Y1394473D01*
Y1394724D01*
X1073087D01*
Y1394974D01*
X1073338D01*
Y1395224D01*
Y1395475D01*
X1073588D01*
Y1395725D01*
Y1395976D01*
X1073839D01*
Y1396226D01*
X1074089D01*
Y1396476D01*
Y1396727D01*
X1074340D01*
Y1396977D01*
Y1397228D01*
X1074590D01*
Y1397478D01*
X1074840D01*
Y1397729D01*
Y1397979D01*
X1075091D01*
Y1398230D01*
Y1398480D01*
X1075341D01*
Y1398730D01*
X1075592D01*
Y1398981D01*
Y1399231D01*
X1075842D01*
Y1399482D01*
Y1399732D01*
X1076093D01*
Y1399983D01*
X1076343D01*
Y1400233D01*
Y1400484D01*
X1076594D01*
Y1400734D01*
Y1400984D01*
X1076844D01*
Y1401235D01*
X1077094D01*
Y1401485D01*
Y1401736D01*
X1077345D01*
Y1401986D01*
Y1402237D01*
X1077595D01*
Y1402487D01*
X1077846D01*
Y1402737D01*
X1078096D01*
Y1402988D01*
X1078347D01*
Y1403238D01*
X1079098D01*
Y1402988D01*
D02*
G37*
G36*
X1058812Y1402737D02*
Y1402487D01*
Y1402237D01*
Y1401986D01*
Y1401736D01*
Y1401485D01*
Y1401235D01*
Y1400984D01*
Y1400734D01*
Y1400484D01*
Y1400233D01*
Y1399983D01*
Y1399732D01*
Y1399482D01*
Y1399231D01*
Y1398981D01*
Y1398730D01*
Y1398480D01*
Y1398230D01*
Y1397979D01*
Y1397729D01*
Y1397478D01*
Y1397228D01*
Y1396977D01*
Y1396727D01*
Y1396476D01*
Y1396226D01*
Y1395976D01*
Y1395725D01*
Y1395475D01*
Y1395224D01*
Y1394974D01*
Y1394724D01*
Y1394473D01*
Y1394223D01*
Y1393972D01*
Y1393722D01*
Y1393471D01*
Y1393221D01*
Y1392970D01*
Y1392720D01*
Y1392469D01*
Y1392219D01*
Y1391969D01*
Y1391718D01*
Y1391468D01*
Y1391217D01*
X1068329D01*
Y1390967D01*
Y1390716D01*
Y1390466D01*
Y1390215D01*
Y1389965D01*
Y1389715D01*
Y1389464D01*
Y1389214D01*
Y1388963D01*
X1056558D01*
Y1389214D01*
Y1389464D01*
Y1389715D01*
Y1389965D01*
Y1390215D01*
Y1390466D01*
Y1390716D01*
Y1390967D01*
Y1391217D01*
Y1391468D01*
Y1391718D01*
Y1391969D01*
Y1392219D01*
Y1392469D01*
Y1392720D01*
Y1392970D01*
Y1393221D01*
Y1393471D01*
Y1393722D01*
Y1393972D01*
Y1394223D01*
Y1394473D01*
Y1394724D01*
Y1394974D01*
Y1395224D01*
Y1395475D01*
Y1395725D01*
Y1395976D01*
Y1396226D01*
Y1396476D01*
Y1396727D01*
Y1396977D01*
Y1397228D01*
Y1397478D01*
Y1397729D01*
Y1397979D01*
Y1398230D01*
Y1398480D01*
Y1398730D01*
Y1398981D01*
Y1399231D01*
Y1399482D01*
Y1399732D01*
Y1399983D01*
Y1400233D01*
Y1400484D01*
Y1400734D01*
Y1400984D01*
Y1401235D01*
Y1401485D01*
Y1401736D01*
Y1401986D01*
Y1402237D01*
Y1402487D01*
Y1402737D01*
Y1402988D01*
X1058812D01*
Y1402737D01*
D02*
G37*
G36*
X1003966Y1390716D02*
Y1390466D01*
Y1390215D01*
Y1389965D01*
Y1389715D01*
Y1389464D01*
Y1389214D01*
Y1388963D01*
Y1388713D01*
Y1388463D01*
Y1388212D01*
Y1387962D01*
X1005469D01*
Y1387711D01*
X1006972D01*
Y1387461D01*
Y1387210D01*
X1004217D01*
Y1386960D01*
X1003966D01*
Y1386709D01*
Y1386459D01*
Y1386208D01*
Y1385958D01*
Y1385708D01*
Y1385457D01*
Y1385207D01*
Y1384956D01*
X1003716D01*
Y1384706D01*
Y1384456D01*
Y1384205D01*
Y1383955D01*
Y1383704D01*
X1003465D01*
Y1383955D01*
Y1384205D01*
Y1384456D01*
Y1384706D01*
Y1384956D01*
Y1385207D01*
Y1385457D01*
X1003215D01*
Y1385708D01*
Y1385958D01*
Y1386208D01*
Y1386459D01*
Y1386709D01*
Y1386960D01*
Y1387210D01*
X1001211D01*
Y1387461D01*
X999959D01*
Y1387711D01*
X1000961D01*
Y1387962D01*
X1003215D01*
Y1388212D01*
Y1388463D01*
Y1388713D01*
Y1388963D01*
X1003465D01*
Y1389214D01*
Y1389464D01*
Y1389715D01*
Y1389965D01*
Y1390215D01*
Y1390466D01*
Y1390716D01*
X1003716D01*
Y1390967D01*
X1003966D01*
Y1390716D01*
D02*
G37*
%LPC*%
G36*
X1050798Y1424526D02*
X1049546D01*
Y1424275D01*
Y1424025D01*
X1049296D01*
Y1423774D01*
Y1423524D01*
X1049045D01*
Y1423273D01*
Y1423023D01*
Y1422773D01*
X1048795D01*
Y1422522D01*
Y1422272D01*
Y1422021D01*
X1048544D01*
Y1421771D01*
Y1421521D01*
X1048294D01*
Y1421270D01*
Y1421020D01*
Y1420769D01*
X1048044D01*
Y1420519D01*
X1048795D01*
Y1420769D01*
X1050548D01*
Y1421020D01*
X1052301D01*
Y1421270D01*
X1052050D01*
Y1421521D01*
Y1421771D01*
Y1422021D01*
X1051800D01*
Y1422272D01*
Y1422522D01*
Y1422773D01*
X1051550D01*
Y1423023D01*
Y1423273D01*
X1051299D01*
Y1423524D01*
Y1423774D01*
Y1424025D01*
X1051049D01*
Y1424275D01*
X1050798D01*
Y1424526D01*
D02*
G37*
G36*
X1032516Y1425277D02*
X1020495D01*
Y1425027D01*
Y1424776D01*
Y1424526D01*
Y1424275D01*
Y1424025D01*
Y1423774D01*
Y1423524D01*
Y1423273D01*
Y1423023D01*
Y1422773D01*
Y1422522D01*
Y1422272D01*
Y1422021D01*
Y1421771D01*
Y1421521D01*
Y1421270D01*
Y1421020D01*
Y1420769D01*
Y1420519D01*
Y1420268D01*
Y1420018D01*
Y1419767D01*
Y1419517D01*
Y1419267D01*
Y1419016D01*
Y1418766D01*
Y1418515D01*
Y1418265D01*
Y1418014D01*
Y1417764D01*
Y1417513D01*
Y1417263D01*
Y1417013D01*
X1029010D01*
Y1417263D01*
X1030262D01*
Y1417513D01*
X1031264D01*
Y1417764D01*
X1032266D01*
Y1418014D01*
X1033518D01*
Y1418265D01*
X1034770D01*
Y1418515D01*
X1035271D01*
Y1418766D01*
X1035521D01*
Y1419016D01*
X1035772D01*
Y1419267D01*
Y1419517D01*
Y1419767D01*
X1036022D01*
Y1420018D01*
Y1420268D01*
Y1420519D01*
Y1420769D01*
Y1421020D01*
Y1421270D01*
Y1421521D01*
Y1421771D01*
Y1422021D01*
Y1422272D01*
Y1422522D01*
X1035772D01*
Y1422773D01*
Y1423023D01*
X1035521D01*
Y1423273D01*
Y1423524D01*
X1035271D01*
Y1423774D01*
X1035021D01*
Y1424025D01*
X1034770D01*
Y1424275D01*
X1034520D01*
Y1424526D01*
X1034269D01*
Y1424776D01*
X1033518D01*
Y1425027D01*
X1032516D01*
Y1425277D01*
D02*
G37*
G36*
X1100385Y1400734D02*
X1092121D01*
Y1400484D01*
Y1400233D01*
Y1399983D01*
Y1399732D01*
Y1399482D01*
Y1399231D01*
Y1398981D01*
Y1398730D01*
Y1398480D01*
Y1398230D01*
Y1397979D01*
Y1397729D01*
Y1397478D01*
Y1397228D01*
Y1396977D01*
X1100886D01*
Y1397228D01*
X1101637D01*
Y1397478D01*
X1101888D01*
Y1397729D01*
X1102138D01*
Y1397979D01*
Y1398230D01*
Y1398480D01*
Y1398730D01*
Y1398981D01*
Y1399231D01*
Y1399482D01*
Y1399732D01*
X1101888D01*
Y1399983D01*
X1101637D01*
Y1400233D01*
X1101387D01*
Y1400484D01*
X1100385D01*
Y1400734D01*
D02*
G37*
G36*
X1100636Y1395224D02*
X1092121D01*
Y1394974D01*
Y1394724D01*
Y1394473D01*
Y1394223D01*
Y1393972D01*
Y1393722D01*
Y1393471D01*
Y1393221D01*
Y1392970D01*
Y1392720D01*
Y1392469D01*
Y1392219D01*
Y1391969D01*
Y1391718D01*
Y1391468D01*
Y1391217D01*
X1100886D01*
Y1391468D01*
X1101637D01*
Y1391718D01*
X1101888D01*
Y1391969D01*
X1102138D01*
Y1392219D01*
X1102389D01*
Y1392469D01*
Y1392720D01*
Y1392970D01*
Y1393221D01*
Y1393471D01*
Y1393722D01*
Y1393972D01*
Y1394223D01*
X1102138D01*
Y1394473D01*
X1101888D01*
Y1394724D01*
X1101637D01*
Y1394974D01*
X1100636D01*
Y1395224D01*
D02*
G37*
G36*
X1078848Y1399732D02*
X1078347D01*
Y1399482D01*
Y1399231D01*
X1078096D01*
Y1398981D01*
Y1398730D01*
X1077846D01*
Y1398480D01*
X1077595D01*
Y1398230D01*
Y1397979D01*
X1077345D01*
Y1397729D01*
Y1397478D01*
X1077094D01*
Y1397228D01*
X1076844D01*
Y1396977D01*
Y1396727D01*
X1076594D01*
Y1396476D01*
Y1396226D01*
X1076343D01*
Y1395976D01*
X1076093D01*
Y1395725D01*
Y1395475D01*
X1075842D01*
Y1395224D01*
Y1394974D01*
X1075592D01*
Y1394724D01*
Y1394473D01*
Y1394223D01*
X1081853D01*
Y1394473D01*
Y1394724D01*
X1081602D01*
Y1394974D01*
Y1395224D01*
X1081352D01*
Y1395475D01*
Y1395725D01*
X1081102D01*
Y1395976D01*
X1080851D01*
Y1396226D01*
Y1396476D01*
X1080601D01*
Y1396727D01*
Y1396977D01*
X1080350D01*
Y1397228D01*
X1080100D01*
Y1397478D01*
Y1397729D01*
X1079849D01*
Y1397979D01*
Y1398230D01*
X1079599D01*
Y1398480D01*
X1079348D01*
Y1398730D01*
Y1398981D01*
X1079098D01*
Y1399231D01*
Y1399482D01*
X1078848D01*
Y1399732D01*
D02*
G37*
%LPD*%
D10*
X844415Y1203400D02*
G03*
X844415Y1209750I0J3175D01*
G01*
X849750Y1628000D02*
G03*
X849750Y1628000I-354J0D01*
G01*
X857247D02*
G03*
X857247Y1628000I-7850J0D01*
G01*
X1164618Y894800D02*
G03*
X1164618Y894800I-1521J0D01*
G01*
X942719Y1203450D02*
G03*
X942719Y1209800I0J3175D01*
G01*
X1045419Y1203150D02*
G03*
X1045419Y1209500I0J3175D01*
G01*
X1322388Y1229800D02*
G03*
X1328738Y1229800I3175J0D01*
G01*
X844415Y1190040D02*
X895215D01*
Y1223235D01*
X844415D02*
X895215D01*
X844415Y1209750D02*
Y1223235D01*
Y1190040D02*
Y1203400D01*
X685130Y1134350D02*
X714880D01*
X685130D02*
Y1210340D01*
X714880Y1134350D02*
Y1210340D01*
X685130D02*
X714880D01*
X849396Y1635850D02*
Y1654500D01*
X857247Y1628000D02*
X875896D01*
X849396Y1654500D02*
X854396Y1649500D01*
X844397Y1649500D02*
X849396Y1654500D01*
X870896Y1633000D02*
X875896Y1628000D01*
X870896Y1623000D02*
X875896Y1628000D01*
X1384250Y1639500D02*
Y1649750D01*
X1370000Y1664000D02*
X1384250Y1649750D01*
X1360250Y1664000D02*
X1370000D01*
X1335750Y1640000D02*
Y1650000D01*
X1349750Y1664000D01*
X1360250D01*
X1349250Y1615500D02*
X1359750D01*
X1335750Y1629000D02*
X1349250Y1615500D01*
X1335750Y1629000D02*
Y1640000D01*
X1384250Y1629250D02*
Y1639500D01*
X1370500Y1615500D02*
X1384250Y1629250D01*
X1359750Y1615500D02*
X1370500D01*
X1377250Y1296250D02*
X1379250Y1294250D01*
X1338000Y1296250D02*
X1340000Y1294250D01*
X1338000Y1296250D02*
X1338000D01*
X1338000D02*
Y1296250D01*
X1379250Y1294250D02*
X1440500D01*
X1327750Y1306500D02*
X1338000Y1296250D01*
X1360000Y1303750D02*
X1369750D01*
X1349500D02*
X1360000D01*
X1369750D02*
X1384000Y1289500D01*
X1335500Y1289750D02*
X1349500Y1303750D01*
X1384000Y1279250D02*
Y1289500D01*
X1335500Y1279750D02*
Y1289750D01*
X1349000Y1255250D02*
X1359500D01*
X1335500Y1268750D02*
X1349000Y1255250D01*
X1335500Y1268750D02*
Y1279750D01*
X1384000Y1269000D02*
Y1279250D01*
X1370250Y1255250D02*
X1384000Y1269000D01*
X1359500Y1255250D02*
X1370250D01*
X804000Y1279750D02*
Y1290000D01*
X789750Y1304250D02*
X804000Y1290000D01*
X780000Y1304250D02*
X789750D01*
X755500Y1280250D02*
Y1290250D01*
X769500Y1304250D01*
X780000D01*
X769000Y1255750D02*
X779500D01*
X755500Y1269250D02*
X769000Y1255750D01*
X755500Y1269250D02*
Y1280250D01*
X804000Y1269500D02*
Y1279750D01*
X790250Y1255750D02*
X804000Y1269500D01*
X779500Y1255750D02*
X790250D01*
X720250Y868000D02*
Y878250D01*
X706000Y892500D02*
X720250Y878250D01*
X696250Y892500D02*
X706000D01*
X671750Y868500D02*
Y878500D01*
X685750Y892500D01*
X696250D01*
X685250Y844000D02*
X695750D01*
X671750Y857500D02*
X685250Y844000D01*
X671750Y857500D02*
Y868500D01*
X720250Y857750D02*
Y868000D01*
X706500Y844000D02*
X720250Y857750D01*
X695750Y844000D02*
X706500D01*
X1576750Y893250D02*
Y903500D01*
X1562500Y917750D02*
X1576750Y903500D01*
X1552750Y917750D02*
X1562500D01*
X1528250Y893750D02*
Y903750D01*
X1542250Y917750D01*
X1552750D01*
X1541750Y869250D02*
X1552250D01*
X1528250Y882750D02*
X1541750Y869250D01*
X1528250Y882750D02*
Y893750D01*
X1576750Y883000D02*
Y893250D01*
X1563000Y869250D02*
X1576750Y883000D01*
X1552250Y869250D02*
X1563000D01*
X1577000Y1630000D02*
Y1640250D01*
X1562750Y1654500D02*
X1577000Y1640250D01*
X1553000Y1654500D02*
X1562750D01*
X1528500Y1630500D02*
Y1640500D01*
X1542500Y1654500D01*
X1553000D01*
X1542000Y1606000D02*
X1552500D01*
X1528500Y1619500D02*
X1542000Y1606000D01*
X1528500Y1619500D02*
Y1630500D01*
X1577000Y1619750D02*
Y1630000D01*
X1563250Y1606000D02*
X1577000Y1619750D01*
X1552500Y1606000D02*
X1563250D01*
X720000Y1668000D02*
Y1678250D01*
X705750Y1692500D02*
X720000Y1678250D01*
X696000Y1692500D02*
X705750D01*
X671500Y1668500D02*
Y1678500D01*
X685500Y1692500D01*
X696000D01*
X685000Y1644000D02*
X695500D01*
X671500Y1657500D02*
X685000Y1644000D01*
X671500Y1657500D02*
Y1668500D01*
X720000Y1657750D02*
Y1668000D01*
X706250Y1644000D02*
X720000Y1657750D01*
X695500Y1644000D02*
X706250D01*
X780000Y1616000D02*
X790750D01*
X804500Y1629750D01*
Y1640000D01*
X756000Y1629500D02*
Y1640500D01*
Y1629500D02*
X769500Y1616000D01*
X780000D01*
X770000Y1664500D02*
X780500D01*
X756000Y1650500D02*
X770000Y1664500D01*
X756000Y1640500D02*
Y1650500D01*
X780500Y1664500D02*
X790250D01*
X804500Y1650250D01*
Y1640000D02*
Y1650250D01*
X1060434Y1568138D02*
X1273500D01*
X1327750Y1344000D02*
X1440500D01*
X1327750Y1306500D02*
Y1344000D01*
X1440500Y1294250D02*
Y1344000D01*
X1327706Y1422484D02*
X1433516D01*
X1440750Y1415250D01*
Y1347750D02*
Y1415250D01*
X1327706Y1347750D02*
Y1398380D01*
Y1422484D01*
Y1347750D02*
X1440750D01*
X925250Y837250D02*
Y867000D01*
X849260Y837250D02*
X925250D01*
X849260Y867000D02*
X925250D01*
X849260Y837250D02*
Y867000D01*
X942719Y1190090D02*
Y1203450D01*
Y1209800D02*
Y1223285D01*
X993519D01*
Y1190090D02*
Y1223285D01*
X942719Y1190090D02*
X993519D01*
X1045419Y1189790D02*
Y1203150D01*
Y1209500D02*
Y1222985D01*
X1096219D01*
Y1189790D02*
Y1222985D01*
X1045419Y1189790D02*
X1096219D01*
X1309029Y1229800D02*
X1322388D01*
X1328738D02*
X1342223D01*
Y1179000D02*
Y1229800D01*
X1309029Y1179000D02*
X1342223D01*
X1309029D02*
Y1229800D01*
X1233714Y1671000D02*
X1238714Y1666000D01*
X1228714D02*
X1233714Y1671000D01*
X1228714Y1666000D02*
X1238714D01*
X1228714Y1671000D02*
X1238714D01*
X1260000D02*
X1265000Y1666000D01*
X1255000D02*
X1260000Y1671000D01*
X1255000Y1666000D02*
X1265000D01*
X1255000Y1671000D02*
X1265000D01*
X1207429D02*
X1212429Y1666000D01*
X1202429D02*
X1207429Y1671000D01*
X1202429Y1666000D02*
X1212429D01*
X1202429Y1671000D02*
X1212429D01*
X1181143D02*
X1186143Y1666000D01*
X1176143D02*
X1181143Y1671000D01*
X1176143Y1666000D02*
X1186143D01*
X1176143Y1671000D02*
X1186143D01*
X1154857D02*
X1159857Y1666000D01*
X1149857D02*
X1154857Y1671000D01*
X1149857Y1666000D02*
X1159857D01*
X1149857Y1671000D02*
X1159857D01*
X1128571D02*
X1133571Y1666000D01*
X1123571D02*
X1128571Y1671000D01*
X1123571Y1666000D02*
X1133571D01*
X1123571Y1671000D02*
X1133571D01*
X1102000Y1671056D02*
X1107000Y1666056D01*
X1097000D02*
X1102000Y1671056D01*
X1097000Y1666056D02*
X1107000D01*
X1097000Y1671056D02*
X1107000D01*
X1075600Y1671250D02*
X1080600Y1666250D01*
X1070600D02*
X1075600Y1671250D01*
X1070600Y1666250D02*
X1080600D01*
X1070600Y1671250D02*
X1080600D01*
X1419750Y1164000D02*
Y1179235D01*
X1427368D01*
X1429907Y1176696D01*
Y1171618D01*
X1427368Y1169078D01*
X1419750D01*
X1434985Y1176696D02*
X1437524Y1179235D01*
X1442603D01*
X1445142Y1176696D01*
Y1174157D01*
X1442603Y1171618D01*
X1445142Y1169078D01*
Y1166539D01*
X1442603Y1164000D01*
X1437524D01*
X1434985Y1166539D01*
Y1169078D01*
X1437524Y1171618D01*
X1434985Y1174157D01*
Y1176696D01*
X1437524Y1171618D02*
X1442603D01*
X1434900Y1564187D02*
Y1556781D01*
X1436381Y1555300D01*
X1439344D01*
X1440825Y1556781D01*
Y1564187D01*
X1443787Y1555300D02*
X1446750D01*
X1445268D01*
Y1564187D01*
X1443787Y1562706D01*
X1457118Y1564187D02*
X1454155Y1562706D01*
X1451193Y1559743D01*
Y1556781D01*
X1452674Y1555300D01*
X1455637D01*
X1457118Y1556781D01*
Y1558262D01*
X1455637Y1559743D01*
X1451193D01*
D11*
X722530Y1216350D02*
G03*
X722530Y1216350I-900J0D01*
G01*
X844150Y873750D02*
G03*
X844150Y873750I-900J0D01*
G01*
D12*
X1313250Y920550D02*
G03*
X1313250Y920550I-1250J0D01*
G01*
X747250Y896000D02*
G03*
X747250Y896000I-1250J0D01*
G01*
X1111756Y951215D02*
G03*
X1111756Y951215I-1250J0D01*
G01*
D13*
X1107319Y977201D02*
G03*
X1107319Y977201I-3000J0D01*
G01*
D14*
X989800Y995250D02*
G03*
X989800Y995250I-800J0D01*
G01*
X935000Y1401200D02*
Y1518800D01*
X825000D02*
X935000D01*
X825000Y1401200D02*
Y1518800D01*
Y1401200D02*
X935000D01*
X1164356Y974180D02*
X1188398Y998222D01*
X1200419Y986201D01*
X1176377Y962160D02*
X1200419Y986201D01*
X1164356Y974180D02*
X1176377Y962160D01*
D15*
X1419800Y1185100D02*
X1445200D01*
X1419800D02*
Y1286700D01*
X1445200Y1185100D02*
Y1286700D01*
X1419800D02*
X1445200D01*
X677600Y1536350D02*
X702800D01*
X677600Y1386750D02*
X691350D01*
X702800D02*
Y1536350D01*
X691350Y1386750D02*
X702800D01*
X677600D02*
Y1536350D01*
X986700Y831900D02*
X1164500D01*
X986700Y882700D02*
X1164500D01*
X986700Y831900D02*
Y882700D01*
X1164500Y831900D02*
Y882700D01*
X1327000Y868000D02*
Y918000D01*
X1345000Y868000D02*
Y918000D01*
X1327000D02*
X1345000D01*
X1327000Y868000D02*
X1345000D01*
X748500Y914750D02*
X779500D01*
X748500Y904750D02*
X779500D01*
Y914750D01*
X748500Y904750D02*
Y914750D01*
X763250Y1069180D02*
X782500D01*
X786000Y966230D02*
Y1069230D01*
Y966230D02*
X854000D01*
Y1069230D01*
X786000D02*
X854000D01*
X1104319Y1141249D02*
X1193415Y1052154D01*
X1015224Y1052154D02*
X1104319Y963058D01*
X1015224Y1052154D02*
X1104319Y1141249D01*
Y963058D02*
X1193415Y1052154D01*
X1514348Y930082D02*
Y1595582D01*
X1463598Y930082D02*
Y1595582D01*
X1514398Y930082D02*
Y1595582D01*
X1463598D02*
X1514398D01*
X1463598Y930082D02*
X1514398D01*
X1514348Y1595582D02*
X1565548D01*
X1514348Y930082D02*
X1565548D01*
Y1595582D01*
X1565450Y930050D02*
Y1595550D01*
X1514250Y930050D02*
X1565450D01*
X1514250Y1595550D02*
X1565450D01*
X1463500Y930050D02*
X1514300D01*
X1463500Y1595550D02*
X1514300D01*
Y930050D02*
Y1595550D01*
X1463500Y930050D02*
Y1595550D01*
X1514250Y930050D02*
Y1595550D01*
X1132560Y1440583D02*
X1130746Y1439978D01*
X1129537Y1438769D01*
X1128932Y1437560D01*
X1128328Y1435141D01*
Y1433327D01*
X1128932Y1430909D01*
X1129537Y1429700D01*
X1130746Y1428490D01*
X1132560Y1427886D01*
X1133769D01*
X1135583Y1428490D01*
X1136793Y1429700D01*
X1137397Y1430909D01*
X1138002Y1433327D01*
Y1435141D01*
X1137397Y1437560D01*
X1136793Y1438769D01*
X1135583Y1439978D01*
X1133769Y1440583D01*
X1132560D01*
X1131351Y1439978D01*
X1130142Y1438769D01*
X1129537Y1437560D01*
X1128932Y1435141D01*
Y1433327D01*
X1129537Y1430909D01*
X1130142Y1429700D01*
X1131351Y1428490D01*
X1132560Y1427886D01*
X1133769D02*
X1134979Y1428490D01*
X1136188Y1429700D01*
X1136793Y1430909D01*
X1137397Y1433327D01*
Y1435141D01*
X1136793Y1437560D01*
X1136188Y1438769D01*
X1134979Y1439978D01*
X1133769Y1440583D01*
X1141569D02*
Y1427886D01*
X1142174Y1440583D02*
Y1427886D01*
X1139755Y1440583D02*
X1147011D01*
X1148825Y1439978D01*
X1149429Y1439374D01*
X1150034Y1438164D01*
Y1436955D01*
X1149429Y1435746D01*
X1148825Y1435141D01*
X1147011Y1434537D01*
Y1440583D02*
X1148220Y1439978D01*
X1148825Y1439374D01*
X1149429Y1438164D01*
Y1436955D01*
X1148825Y1435746D01*
X1148220Y1435141D01*
X1147011Y1434537D01*
X1142174D02*
X1147011D01*
X1148825Y1433932D01*
X1149429Y1433327D01*
X1150034Y1432118D01*
Y1430304D01*
X1149429Y1429095D01*
X1148825Y1428490D01*
X1147011Y1427886D01*
X1139755D01*
X1147011Y1434537D02*
X1148220Y1433932D01*
X1148825Y1433327D01*
X1149429Y1432118D01*
Y1430304D01*
X1148825Y1429095D01*
X1148220Y1428490D01*
X1147011Y1427886D01*
X1153541Y1440583D02*
Y1427886D01*
X1154146Y1440583D02*
Y1427886D01*
X1151727Y1440583D02*
X1157773D01*
X1159587Y1439978D01*
X1160796Y1438769D01*
X1161401Y1437560D01*
X1162006Y1435746D01*
Y1432723D01*
X1161401Y1430909D01*
X1160796Y1429700D01*
X1159587Y1428490D01*
X1157773Y1427886D01*
X1151727D01*
X1157773Y1440583D02*
X1158982Y1439978D01*
X1160192Y1438769D01*
X1160796Y1437560D01*
X1161401Y1435746D01*
Y1432723D01*
X1160796Y1430909D01*
X1160192Y1429700D01*
X1158982Y1428490D01*
X1157773Y1427886D01*
X1165513Y1440583D02*
Y1427886D01*
X1166117Y1440583D02*
Y1427886D01*
X1173373Y1440583D02*
Y1427886D01*
X1173977Y1440583D02*
Y1427886D01*
X1163699Y1440583D02*
X1167931D01*
X1171559D02*
X1175791D01*
X1166117Y1434537D02*
X1173373D01*
X1163699Y1427886D02*
X1167931D01*
X1171559D02*
X1175791D01*
X1189335Y1438164D02*
X1189940Y1437560D01*
X1189335Y1436955D01*
X1188730Y1437560D01*
Y1438164D01*
X1189335Y1439374D01*
X1189940Y1439978D01*
X1191754Y1440583D01*
X1194172D01*
X1195986Y1439978D01*
X1196591Y1439374D01*
X1197195Y1438164D01*
Y1436955D01*
X1196591Y1435746D01*
X1194777Y1434537D01*
X1191754Y1433327D01*
X1190544Y1432723D01*
X1189335Y1431514D01*
X1188730Y1429700D01*
Y1427886D01*
X1194172Y1440583D02*
X1195381Y1439978D01*
X1195986Y1439374D01*
X1196591Y1438164D01*
Y1436955D01*
X1195986Y1435746D01*
X1194172Y1434537D01*
X1191754Y1433327D01*
X1188730Y1429095D02*
X1189335Y1429700D01*
X1190544D01*
X1193568Y1428490D01*
X1195381D01*
X1196591Y1429095D01*
X1197195Y1429700D01*
Y1430909D01*
X1190544Y1429700D02*
X1193568Y1427886D01*
X1195986D01*
X1196591Y1428490D01*
X1197195Y1429700D01*
X1128781Y1418732D02*
X1129386Y1420546D01*
Y1416918D01*
X1128781Y1418732D01*
X1127572Y1419942D01*
X1125758Y1420546D01*
X1123944D01*
X1122130Y1419942D01*
X1120921Y1418732D01*
Y1417523D01*
X1121525Y1416314D01*
X1122130Y1415709D01*
X1123339Y1415105D01*
X1126967Y1413895D01*
X1128176Y1413291D01*
X1129386Y1412081D01*
X1120921Y1417523D02*
X1122130Y1416314D01*
X1123339Y1415709D01*
X1126967Y1414500D01*
X1128176Y1413895D01*
X1128781Y1413291D01*
X1129386Y1412081D01*
Y1409663D01*
X1128176Y1408454D01*
X1126363Y1407849D01*
X1124549D01*
X1122735Y1408454D01*
X1121525Y1409663D01*
X1120921Y1411477D01*
Y1407849D01*
X1121525Y1409663D01*
X1133074Y1416314D02*
Y1403616D01*
X1133679Y1416314D02*
Y1403616D01*
Y1414500D02*
X1134888Y1415709D01*
X1136097Y1416314D01*
X1137306D01*
X1139120Y1415709D01*
X1140330Y1414500D01*
X1140934Y1412686D01*
Y1411477D01*
X1140330Y1409663D01*
X1139120Y1408454D01*
X1137306Y1407849D01*
X1136097D01*
X1134888Y1408454D01*
X1133679Y1409663D01*
X1137306Y1416314D02*
X1138516Y1415709D01*
X1139725Y1414500D01*
X1140330Y1412686D01*
Y1411477D01*
X1139725Y1409663D01*
X1138516Y1408454D01*
X1137306Y1407849D01*
X1131260Y1416314D02*
X1133679D01*
X1131260Y1403616D02*
X1135492D01*
X1143897Y1415105D02*
Y1414500D01*
X1143292D01*
Y1415105D01*
X1143897Y1415709D01*
X1145106Y1416314D01*
X1147525D01*
X1148734Y1415709D01*
X1149339Y1415105D01*
X1149943Y1413895D01*
Y1409663D01*
X1150548Y1408454D01*
X1151152Y1407849D01*
X1149339Y1415105D02*
Y1409663D01*
X1149943Y1408454D01*
X1151152Y1407849D01*
X1151757D01*
X1149339Y1413895D02*
X1148734Y1413291D01*
X1145106Y1412686D01*
X1143292Y1412081D01*
X1142688Y1410872D01*
Y1409663D01*
X1143292Y1408454D01*
X1145106Y1407849D01*
X1146920D01*
X1148129Y1408454D01*
X1149339Y1409663D01*
X1145106Y1412686D02*
X1143897Y1412081D01*
X1143292Y1410872D01*
Y1409663D01*
X1143897Y1408454D01*
X1145106Y1407849D01*
X1160827Y1414500D02*
X1160222Y1413895D01*
X1160827Y1413291D01*
X1161431Y1413895D01*
Y1414500D01*
X1160222Y1415709D01*
X1159013Y1416314D01*
X1157199D01*
X1155385Y1415709D01*
X1154176Y1414500D01*
X1153571Y1412686D01*
Y1411477D01*
X1154176Y1409663D01*
X1155385Y1408454D01*
X1157199Y1407849D01*
X1158408D01*
X1160222Y1408454D01*
X1161431Y1409663D01*
X1157199Y1416314D02*
X1155990Y1415709D01*
X1154780Y1414500D01*
X1154176Y1412686D01*
Y1411477D01*
X1154780Y1409663D01*
X1155990Y1408454D01*
X1157199Y1407849D01*
X1163971Y1412686D02*
X1171226D01*
Y1413895D01*
X1170622Y1415105D01*
X1170017Y1415709D01*
X1168808Y1416314D01*
X1166994D01*
X1165180Y1415709D01*
X1163971Y1414500D01*
X1163366Y1412686D01*
Y1411477D01*
X1163971Y1409663D01*
X1165180Y1408454D01*
X1166994Y1407849D01*
X1168203D01*
X1170017Y1408454D01*
X1171226Y1409663D01*
X1170622Y1412686D02*
Y1414500D01*
X1170017Y1415709D01*
X1166994Y1416314D02*
X1165785Y1415709D01*
X1164575Y1414500D01*
X1163971Y1412686D01*
Y1411477D01*
X1164575Y1409663D01*
X1165785Y1408454D01*
X1166994Y1407849D01*
X1174975Y1420546D02*
Y1407849D01*
X1175580Y1420546D02*
Y1407849D01*
X1173161Y1420546D02*
X1177394D01*
X1173161Y1407849D02*
X1182231D01*
Y1411477D01*
X1181626Y1407849D01*
X1185254Y1415105D02*
Y1414500D01*
X1184649D01*
Y1415105D01*
X1185254Y1415709D01*
X1186463Y1416314D01*
X1188882D01*
X1190091Y1415709D01*
X1190695Y1415105D01*
X1191300Y1413895D01*
Y1409663D01*
X1191905Y1408454D01*
X1192509Y1407849D01*
X1190695Y1415105D02*
Y1409663D01*
X1191300Y1408454D01*
X1192509Y1407849D01*
X1193114D01*
X1190695Y1413895D02*
X1190091Y1413291D01*
X1186463Y1412686D01*
X1184649Y1412081D01*
X1184045Y1410872D01*
Y1409663D01*
X1184649Y1408454D01*
X1186463Y1407849D01*
X1188277D01*
X1189486Y1408454D01*
X1190695Y1409663D01*
X1186463Y1412686D02*
X1185254Y1412081D01*
X1184649Y1410872D01*
Y1409663D01*
X1185254Y1408454D01*
X1186463Y1407849D01*
X1196742Y1420546D02*
Y1407849D01*
X1197346Y1420546D02*
Y1407849D01*
Y1414500D02*
X1198556Y1415709D01*
X1199765Y1416314D01*
X1200974D01*
X1202788Y1415709D01*
X1203997Y1414500D01*
X1204602Y1412686D01*
Y1411477D01*
X1203997Y1409663D01*
X1202788Y1408454D01*
X1200974Y1407849D01*
X1199765D01*
X1198556Y1408454D01*
X1197346Y1409663D01*
X1200974Y1416314D02*
X1202184Y1415709D01*
X1203393Y1414500D01*
X1203997Y1412686D01*
Y1411477D01*
X1203393Y1409663D01*
X1202184Y1408454D01*
X1200974Y1407849D01*
X1194928Y1420546D02*
X1197346D01*
X1142355Y1396277D02*
Y1387208D01*
X1142960Y1385394D01*
X1144169Y1384184D01*
X1145983Y1383580D01*
X1147192D01*
X1149006Y1384184D01*
X1150215Y1385394D01*
X1150820Y1387208D01*
Y1396277D01*
X1142960D02*
Y1387208D01*
X1143564Y1385394D01*
X1144774Y1384184D01*
X1145983Y1383580D01*
X1140541Y1396277D02*
X1144774D01*
X1149006D02*
X1152634D01*
X1155959D02*
Y1383580D01*
X1156564Y1396277D02*
Y1383580D01*
X1160192Y1392649D02*
Y1387812D01*
X1154146Y1396277D02*
X1163820D01*
Y1392649D01*
X1163215Y1396277D01*
X1156564Y1390231D02*
X1160192D01*
X1154146Y1383580D02*
X1158378D01*
X1173433Y1394463D02*
X1174038Y1396277D01*
Y1392649D01*
X1173433Y1394463D01*
X1172224Y1395672D01*
X1170410Y1396277D01*
X1168596D01*
X1166782Y1395672D01*
X1165573Y1394463D01*
Y1393254D01*
X1166178Y1392045D01*
X1166782Y1391440D01*
X1167992Y1390835D01*
X1171619Y1389626D01*
X1172829Y1389021D01*
X1174038Y1387812D01*
X1165573Y1393254D02*
X1166782Y1392045D01*
X1167992Y1391440D01*
X1171619Y1390231D01*
X1172829Y1389626D01*
X1173433Y1389021D01*
X1174038Y1387812D01*
Y1385394D01*
X1172829Y1384184D01*
X1171015Y1383580D01*
X1169201D01*
X1167387Y1384184D01*
X1166178Y1385394D01*
X1165573Y1387208D01*
Y1383580D01*
X1166178Y1385394D01*
X1184377Y1394463D02*
X1184982Y1392649D01*
Y1396277D01*
X1184377Y1394463D01*
X1183168Y1395672D01*
X1181354Y1396277D01*
X1180145D01*
X1178331Y1395672D01*
X1177122Y1394463D01*
X1176517Y1393254D01*
X1175912Y1391440D01*
Y1388417D01*
X1176517Y1386603D01*
X1177122Y1385394D01*
X1178331Y1384184D01*
X1180145Y1383580D01*
X1181354D01*
X1183168Y1384184D01*
X1184377Y1385394D01*
X1184982Y1386603D01*
X1180145Y1396277D02*
X1178935Y1395672D01*
X1177726Y1394463D01*
X1177122Y1393254D01*
X1176517Y1391440D01*
Y1388417D01*
X1177122Y1386603D01*
X1177726Y1385394D01*
X1178935Y1384184D01*
X1180145Y1383580D01*
X1450152Y1211998D02*
X1448902Y1210749D01*
Y1208250D01*
X1450152Y1207000D01*
X1455150D01*
X1456400Y1208250D01*
Y1210749D01*
X1455150Y1211998D01*
X1452651D01*
Y1209499D01*
X1456400Y1214498D02*
X1448902D01*
X1456400Y1219496D01*
X1448902D01*
Y1221995D02*
X1456400D01*
Y1225744D01*
X1455150Y1226994D01*
X1450152D01*
X1448902Y1225744D01*
Y1221995D01*
X1571152Y1216298D02*
X1569902Y1215049D01*
Y1212550D01*
X1571152Y1211300D01*
X1576150D01*
X1577400Y1212550D01*
Y1215049D01*
X1576150Y1216298D01*
X1573651D01*
Y1213799D01*
X1577400Y1218798D02*
X1569902D01*
X1577400Y1223796D01*
X1569902D01*
Y1226295D02*
X1577400D01*
Y1230044D01*
X1576150Y1231294D01*
X1571152D01*
X1569902Y1230044D01*
Y1226295D01*
X1456800Y1017349D02*
X1449302D01*
X1453051Y1013600D01*
Y1018598D01*
X1449302Y1026096D02*
Y1021098D01*
X1453051D01*
X1451802Y1023597D01*
Y1024846D01*
X1453051Y1026096D01*
X1455550D01*
X1456800Y1024846D01*
Y1022347D01*
X1455550Y1021098D01*
X1577400Y1015949D02*
X1569902D01*
X1573651Y1012200D01*
Y1017198D01*
X1569902Y1024696D02*
X1571152Y1022197D01*
X1573651Y1019698D01*
X1576150D01*
X1577400Y1020947D01*
Y1023446D01*
X1576150Y1024696D01*
X1574901D01*
X1573651Y1023446D01*
Y1019698D01*
X1450552Y1089900D02*
X1449302Y1091150D01*
Y1093649D01*
X1450552Y1094898D01*
X1451802D01*
X1453051Y1093649D01*
Y1092399D01*
Y1093649D01*
X1454301Y1094898D01*
X1455550D01*
X1456800Y1093649D01*
Y1091150D01*
X1455550Y1089900D01*
Y1097398D02*
X1456800Y1098647D01*
Y1101146D01*
X1455550Y1102396D01*
X1450552D01*
X1449302Y1101146D01*
Y1098647D01*
X1450552Y1097398D01*
X1451802D01*
X1453051Y1098647D01*
Y1102396D01*
X1577400Y1091849D02*
X1569902D01*
X1573651Y1088100D01*
Y1093098D01*
X1571152Y1095598D02*
X1569902Y1096847D01*
Y1099346D01*
X1571152Y1100596D01*
X1576150D01*
X1577400Y1099346D01*
Y1096847D01*
X1576150Y1095598D01*
X1571152D01*
X1450552Y1191200D02*
X1449302Y1192450D01*
Y1194949D01*
X1450552Y1196198D01*
X1451802D01*
X1453051Y1194949D01*
Y1193699D01*
Y1194949D01*
X1454301Y1196198D01*
X1455550D01*
X1456800Y1194949D01*
Y1192450D01*
X1455550Y1191200D01*
X1456800Y1198698D02*
Y1201197D01*
Y1199947D01*
X1449302D01*
X1450552Y1198698D01*
X1571152Y1190500D02*
X1569902Y1191750D01*
Y1194249D01*
X1571152Y1195498D01*
X1572402D01*
X1573651Y1194249D01*
Y1192999D01*
Y1194249D01*
X1574901Y1195498D01*
X1576150D01*
X1577400Y1194249D01*
Y1191750D01*
X1576150Y1190500D01*
X1577400Y1202996D02*
Y1197998D01*
X1572402Y1202996D01*
X1571152D01*
X1569902Y1201746D01*
Y1199247D01*
X1571152Y1197998D01*
X1456800Y1298398D02*
Y1293400D01*
X1451802Y1298398D01*
X1450552D01*
X1449302Y1297149D01*
Y1294650D01*
X1450552Y1293400D01*
Y1300898D02*
X1449302Y1302147D01*
Y1304646D01*
X1450552Y1305896D01*
X1451802D01*
X1453051Y1304646D01*
Y1303397D01*
Y1304646D01*
X1454301Y1305896D01*
X1455550D01*
X1456800Y1304646D01*
Y1302147D01*
X1455550Y1300898D01*
X1577400Y1296698D02*
Y1291700D01*
X1572402Y1296698D01*
X1571152D01*
X1569902Y1295449D01*
Y1292950D01*
X1571152Y1291700D01*
X1577400Y1302946D02*
X1569902D01*
X1573651Y1299198D01*
Y1304196D01*
X1456800Y1394200D02*
Y1396699D01*
Y1395450D01*
X1449302D01*
X1450552Y1394200D01*
X1449302Y1405446D02*
Y1400448D01*
X1453051D01*
X1451802Y1402947D01*
Y1404197D01*
X1453051Y1405446D01*
X1455550D01*
X1456800Y1404197D01*
Y1401698D01*
X1455550Y1400448D01*
X1577400Y1394200D02*
Y1396699D01*
Y1395450D01*
X1569902D01*
X1571152Y1394200D01*
X1569902Y1405446D02*
X1571152Y1402947D01*
X1573651Y1400448D01*
X1576150D01*
X1577400Y1401698D01*
Y1404197D01*
X1576150Y1405446D01*
X1574901D01*
X1573651Y1404197D01*
Y1400448D01*
X1449302Y1501200D02*
Y1506198D01*
X1450552D01*
X1455550Y1501200D01*
X1456800D01*
X1571152Y1498800D02*
X1569902Y1500050D01*
Y1502549D01*
X1571152Y1503798D01*
X1572402D01*
X1573651Y1502549D01*
X1574901Y1503798D01*
X1576150D01*
X1577400Y1502549D01*
Y1500050D01*
X1576150Y1498800D01*
X1574901D01*
X1573651Y1500050D01*
X1572402Y1498800D01*
X1571152D01*
X1573651Y1500050D02*
Y1502549D01*
D16*
X677616Y1304600D02*
X703016D01*
X677616D02*
Y1355400D01*
X703016Y1304600D02*
Y1355400D01*
X677616D02*
X703016D01*
X1194800Y831884D02*
X1220200D01*
X1194800D02*
Y882684D01*
X1220200Y831884D02*
Y882684D01*
X1194800D02*
X1220200D01*
X1148297Y897470D02*
X1158457D01*
X1148297D02*
Y926680D01*
X1158457D01*
Y897470D02*
Y926680D01*
X1169500Y838500D02*
X1173732D01*
X1171616D01*
Y851196D01*
X1169500Y849080D01*
X1180080D02*
X1182196Y851196D01*
X1186428D01*
X1188544Y849080D01*
Y846964D01*
X1186428Y844848D01*
X1184312D01*
X1186428D01*
X1188544Y842732D01*
Y840616D01*
X1186428Y838500D01*
X1182196D01*
X1180080Y840616D01*
X1169500Y865250D02*
X1173732D01*
X1171616D01*
Y877946D01*
X1169500Y875830D01*
X1186428Y865250D02*
Y877946D01*
X1180080Y871598D01*
X1188544D01*
X973000Y838500D02*
X977232D01*
X975116D01*
Y851196D01*
X973000Y849080D01*
X978964Y863500D02*
X970500D01*
X978964Y871964D01*
Y874080D01*
X976848Y876196D01*
X972616D01*
X970500Y874080D01*
X1525750Y1600000D02*
Y1602499D01*
Y1601250D01*
X1518252D01*
X1519502Y1600000D01*
X1577000Y1581598D02*
Y1576600D01*
X1572002Y1581598D01*
X1570752D01*
X1569502Y1580349D01*
Y1577850D01*
X1570752Y1576600D01*
X1507100Y1604398D02*
Y1599400D01*
X1502102Y1604398D01*
X1500852D01*
X1499602Y1603149D01*
Y1600650D01*
X1500852Y1599400D01*
X1456600Y1578500D02*
Y1580999D01*
Y1579750D01*
X1449102D01*
X1450352Y1578500D01*
X1569102Y941398D02*
Y936400D01*
X1572851D01*
X1571602Y938899D01*
Y940149D01*
X1572851Y941398D01*
X1575350D01*
X1576600Y940149D01*
Y937650D01*
X1575350Y936400D01*
X1576600Y948896D02*
Y943898D01*
X1571602Y948896D01*
X1570352D01*
X1569102Y947646D01*
Y945147D01*
X1570352Y943898D01*
X1523202Y919998D02*
Y915000D01*
X1526951D01*
X1525702Y917499D01*
Y918749D01*
X1526951Y919998D01*
X1529450D01*
X1530700Y918749D01*
Y916250D01*
X1529450Y915000D01*
X1530700Y922498D02*
Y924997D01*
Y923747D01*
X1523202D01*
X1524452Y922498D01*
X1452102Y942598D02*
Y937600D01*
X1455851D01*
X1454602Y940099D01*
Y941349D01*
X1455851Y942598D01*
X1458350D01*
X1459600Y941349D01*
Y938850D01*
X1458350Y937600D01*
X1459600Y945098D02*
Y947597D01*
Y946347D01*
X1452102D01*
X1453352Y945098D01*
X1499702Y918098D02*
Y913100D01*
X1503451D01*
X1502202Y915599D01*
Y916849D01*
X1503451Y918098D01*
X1505950D01*
X1507200Y916849D01*
Y914350D01*
X1505950Y913100D01*
X1507200Y925596D02*
Y920598D01*
X1502202Y925596D01*
X1500952D01*
X1499702Y924346D01*
Y921847D01*
X1500952Y920598D01*
X1515500Y1613998D02*
Y1606500D01*
Y1610249D01*
X1520498D01*
Y1613998D01*
Y1606500D01*
X1527996D02*
X1522998D01*
X1527996Y1611498D01*
Y1612748D01*
X1526746Y1613998D01*
X1524247D01*
X1522998Y1612748D01*
X1464250Y1609748D02*
Y1602250D01*
Y1605999D01*
X1469248D01*
Y1609748D01*
Y1602250D01*
X1471748D02*
X1474247D01*
X1472997D01*
Y1609748D01*
X1471748Y1608498D01*
D17*
X1278338Y1382376D02*
X1278696D01*
X1235450D02*
X1235808D01*
X1278100Y1382495D02*
X1278934D01*
X1235212D02*
X1236046D01*
X1277981Y1382614D02*
X1279053D01*
X1235093D02*
X1236284D01*
X1277743Y1382733D02*
X1279172D01*
X1234974D02*
X1236403D01*
X1277624Y1382852D02*
X1279292D01*
X1234855D02*
X1236523D01*
X1277385Y1382972D02*
X1279411D01*
X1234735D02*
X1236761D01*
X1277266Y1383091D02*
X1279530D01*
X1234616D02*
X1236880D01*
X1277028Y1383210D02*
X1279649D01*
X1234497D02*
X1237118D01*
X1276909Y1383329D02*
X1279768D01*
X1234378D02*
X1237237D01*
X1276671Y1383448D02*
X1279887D01*
X1234259D02*
X1237476D01*
X1276552Y1383567D02*
X1280006D01*
X1234140D02*
X1237595D01*
X1276432Y1383686D02*
X1280125D01*
X1234021D02*
X1237833D01*
X1276194Y1383806D02*
X1280245D01*
X1233902D02*
X1237952D01*
X1276075Y1383925D02*
X1280364D01*
X1233783D02*
X1238190D01*
X1275837Y1384044D02*
X1280483D01*
X1233663D02*
X1238309D01*
X1275718Y1384163D02*
X1280602D01*
X1233544D02*
X1238548D01*
X1275479Y1384282D02*
X1280721D01*
X1233425D02*
X1238667D01*
X1275360Y1384401D02*
X1280840D01*
X1233306D02*
X1238786D01*
X1275122Y1384520D02*
X1280959D01*
X1233187D02*
X1239024D01*
X1275003Y1384639D02*
X1281079D01*
X1233068D02*
X1239144D01*
X1274764Y1384759D02*
X1281198D01*
X1232949D02*
X1239382D01*
X1274645Y1384878D02*
X1281317D01*
X1232829D02*
X1239501D01*
X1274526Y1384997D02*
X1281436D01*
X1232710D02*
X1239739D01*
X1274288Y1385116D02*
X1281555D01*
X1232591D02*
X1239858D01*
X1274169Y1385235D02*
X1281674D01*
X1232472D02*
X1240097D01*
X1273931Y1385354D02*
X1281793D01*
X1232353D02*
X1240216D01*
X1273811Y1385473D02*
X1281913D01*
X1232234D02*
X1240454D01*
X1273573Y1385593D02*
X1282032D01*
X1267259D02*
X1267855D01*
X1246292D02*
X1246887D01*
X1232115D02*
X1240573D01*
X1273454Y1385712D02*
X1282151D01*
X1267140D02*
X1268093D01*
X1246053D02*
X1247006D01*
X1231995D02*
X1240692D01*
X1273216Y1385831D02*
X1282270D01*
X1267140D02*
X1268331D01*
X1245934D02*
X1247006D01*
X1231876D02*
X1240930D01*
X1273097Y1385950D02*
X1282389D01*
X1267021D02*
X1268569D01*
X1245696D02*
X1247125D01*
X1231757D02*
X1241050D01*
X1272858Y1386069D02*
X1282508D01*
X1267021D02*
X1268689D01*
X1245458D02*
X1247125D01*
X1231638D02*
X1241288D01*
X1272739Y1386188D02*
X1282627D01*
X1267021D02*
X1268927D01*
X1245219D02*
X1247245D01*
X1231519D02*
X1241407D01*
X1272620Y1386307D02*
X1282746D01*
X1266902D02*
X1269165D01*
X1244981D02*
X1247245D01*
X1231400D02*
X1241645D01*
X1272382Y1386427D02*
X1282866D01*
X1266902D02*
X1269404D01*
X1244743D02*
X1247364D01*
X1231281D02*
X1241764D01*
X1272263Y1386546D02*
X1282985D01*
X1266783D02*
X1269642D01*
X1244504D02*
X1247364D01*
X1231161D02*
X1242003D01*
X1272024Y1386665D02*
X1283104D01*
X1266783D02*
X1269880D01*
X1244266D02*
X1247364D01*
X1231042D02*
X1242122D01*
X1271905Y1386784D02*
X1283223D01*
X1266663D02*
X1270118D01*
X1244147D02*
X1247483D01*
X1230923D02*
X1242360D01*
X1271667Y1386903D02*
X1283342D01*
X1266663D02*
X1270357D01*
X1243909D02*
X1247483D01*
X1230804D02*
X1242479D01*
X1271548Y1387022D02*
X1283461D01*
X1266663D02*
X1270476D01*
X1243671D02*
X1247602D01*
X1230685D02*
X1242598D01*
X1271310Y1387141D02*
X1283580D01*
X1266544D02*
X1270714D01*
X1243432D02*
X1247602D01*
X1230566D02*
X1242837D01*
X1266544Y1387260D02*
X1283699D01*
X1230447D02*
X1247602D01*
X1266425Y1387380D02*
X1283819D01*
X1230328D02*
X1247721D01*
X1266425Y1387499D02*
X1283938D01*
X1230209D02*
X1247721D01*
X1266425Y1387618D02*
X1284057D01*
X1230089D02*
X1247840D01*
X1266306Y1387737D02*
X1284176D01*
X1229970D02*
X1247840D01*
X1266306Y1387856D02*
X1284295D01*
X1229851D02*
X1247840D01*
X1266187Y1387975D02*
X1284414D01*
X1229732D02*
X1247959D01*
X1266187Y1388094D02*
X1284534D01*
X1229613D02*
X1247959D01*
X1266187Y1388214D02*
X1284653D01*
X1229494D02*
X1248079D01*
X1266068Y1388333D02*
X1284772D01*
X1229374D02*
X1248079D01*
X1266068Y1388452D02*
X1284891D01*
X1229255D02*
X1248198D01*
X1265949Y1388571D02*
X1285010D01*
X1229136D02*
X1248198D01*
X1265949Y1388690D02*
X1285129D01*
X1229017D02*
X1248198D01*
X1265829Y1388809D02*
X1285248D01*
X1228898D02*
X1248317D01*
X1265829Y1388928D02*
X1285367D01*
X1228898D02*
X1248317D01*
X1265829Y1389047D02*
X1285367D01*
X1228779D02*
X1248436D01*
X1265710Y1389167D02*
X1285367D01*
X1228779D02*
X1248436D01*
X1265710Y1389286D02*
X1285367D01*
X1228779D02*
X1248436D01*
X1265591Y1389405D02*
X1285367D01*
X1228898D02*
X1248555D01*
X1265591Y1389524D02*
X1285248D01*
X1228898D02*
X1248555D01*
X1265591Y1389643D02*
X1285129D01*
X1229017D02*
X1248674D01*
X1265472Y1389762D02*
X1285129D01*
X1229017D02*
X1248674D01*
X1265472Y1389881D02*
X1285010D01*
X1229136D02*
X1248793D01*
X1265353Y1390000D02*
X1284891D01*
X1229255D02*
X1248793D01*
X1265353Y1390120D02*
X1284891D01*
X1229374D02*
X1248793D01*
X1265234Y1390239D02*
X1284772D01*
X1229374D02*
X1248913D01*
X1265234Y1390358D02*
X1284653D01*
X1229494D02*
X1248913D01*
X1265234Y1390477D02*
X1284653D01*
X1229613D02*
X1249032D01*
X1265115Y1390596D02*
X1284534D01*
X1229613D02*
X1249032D01*
X1265115Y1390715D02*
X1284414D01*
X1229732D02*
X1249032D01*
X1264995Y1390835D02*
X1284414D01*
X1229851D02*
X1249151D01*
X1264995Y1390954D02*
X1284295D01*
X1229851D02*
X1249151D01*
X1264995Y1391073D02*
X1284176D01*
X1229970D02*
X1249270D01*
X1264876Y1391192D02*
X1284176D01*
X1230089D02*
X1249270D01*
X1264876Y1391311D02*
X1284057D01*
X1230089D02*
X1249270D01*
X1264757Y1391430D02*
X1283938D01*
X1230209D02*
X1249389D01*
X1264757Y1391549D02*
X1283819D01*
X1230328D02*
X1249389D01*
X1264757Y1391668D02*
X1283819D01*
X1230328D02*
X1249508D01*
X1264638Y1391788D02*
X1283699D01*
X1230447D02*
X1249508D01*
X1264638Y1391907D02*
X1283580D01*
X1230566D02*
X1249627D01*
X1264519Y1392026D02*
X1283580D01*
X1230685D02*
X1249627D01*
X1264519Y1392145D02*
X1283461D01*
X1230685D02*
X1249627D01*
X1264400Y1392264D02*
X1283342D01*
X1230804D02*
X1249746D01*
X1264400Y1392383D02*
X1283342D01*
X1230923D02*
X1249746D01*
X1264400Y1392502D02*
X1283223D01*
X1230923D02*
X1249865D01*
X1264281Y1392621D02*
X1283104D01*
X1231042D02*
X1249865D01*
X1264281Y1392741D02*
X1283104D01*
X1231161D02*
X1249865D01*
X1264162Y1392860D02*
X1282985D01*
X1231161D02*
X1249985D01*
X1264162Y1392979D02*
X1282866D01*
X1231281D02*
X1249985D01*
X1264162Y1393098D02*
X1282866D01*
X1231400D02*
X1250104D01*
X1264043Y1393217D02*
X1282746D01*
X1231400D02*
X1250104D01*
X1264043Y1393336D02*
X1282627D01*
X1231519D02*
X1250223D01*
X1263923Y1393455D02*
X1282627D01*
X1231638D02*
X1250223D01*
X1263923Y1393575D02*
X1282508D01*
X1231638D02*
X1250223D01*
X1263804Y1393694D02*
X1282389D01*
X1231757D02*
X1250342D01*
X1263804Y1393813D02*
X1282270D01*
X1231876D02*
X1250342D01*
X1263804Y1393932D02*
X1282270D01*
X1231876D02*
X1250461D01*
X1263685Y1394051D02*
X1282151D01*
X1231995D02*
X1250461D01*
X1263685Y1394170D02*
X1282032D01*
X1232115D02*
X1250461D01*
X1263566Y1394289D02*
X1282032D01*
X1232234D02*
X1250580D01*
X1263566Y1394409D02*
X1281913D01*
X1232234D02*
X1250580D01*
X1263566Y1394528D02*
X1281793D01*
X1232353D02*
X1250699D01*
X1263447Y1394647D02*
X1281793D01*
X1232472D02*
X1250699D01*
X1263447Y1394766D02*
X1281674D01*
X1232472D02*
X1250699D01*
X1263328Y1394885D02*
X1281555D01*
X1232591D02*
X1250819D01*
X1263328Y1395004D02*
X1281555D01*
X1232710D02*
X1250819D01*
X1263328Y1395123D02*
X1281436D01*
X1232710D02*
X1250938D01*
X1263208Y1395242D02*
X1281317D01*
X1232829D02*
X1250938D01*
X1263208Y1395361D02*
X1281317D01*
X1232949D02*
X1251057D01*
X1263089Y1395481D02*
X1281198D01*
X1232949D02*
X1251057D01*
X1263089Y1395600D02*
X1281079D01*
X1233068D02*
X1251057D01*
X1262970Y1395719D02*
X1280959D01*
X1233187D02*
X1251176D01*
X1262970Y1395838D02*
X1280959D01*
X1233187D02*
X1251176D01*
X1262970Y1395957D02*
X1280840D01*
X1233306D02*
X1251295D01*
X1262851Y1396076D02*
X1280721D01*
X1233425D02*
X1251295D01*
X1262851Y1396196D02*
X1280721D01*
X1233544D02*
X1251295D01*
X1262732Y1396315D02*
X1280602D01*
X1233544D02*
X1251414D01*
X1262732Y1396434D02*
X1280483D01*
X1233663D02*
X1251414D01*
X1262732Y1396553D02*
X1280483D01*
X1233783D02*
X1251533D01*
X1262613Y1396672D02*
X1280364D01*
X1233783D02*
X1251533D01*
X1262613Y1396791D02*
X1280364D01*
X1233783D02*
X1251653D01*
X1262494Y1396910D02*
X1280364D01*
X1233783D02*
X1251653D01*
X1262494Y1397029D02*
X1280483D01*
X1233783D02*
X1251653D01*
X1262375Y1397148D02*
X1280483D01*
X1233663D02*
X1251772D01*
X1262375Y1397268D02*
X1280483D01*
X1233663D02*
X1251772D01*
X1262375Y1397387D02*
X1280602D01*
X1233663D02*
X1251891D01*
X1262255Y1397506D02*
X1280602D01*
X1233544D02*
X1251891D01*
X1262255Y1397625D02*
X1280721D01*
X1233544D02*
X1251891D01*
X1262136Y1397744D02*
X1280721D01*
X1233425D02*
X1252010D01*
X1262136Y1397863D02*
X1280721D01*
X1233425D02*
X1252010D01*
X1262136Y1397982D02*
X1280840D01*
X1233425D02*
X1252129D01*
X1262017Y1398102D02*
X1280840D01*
X1233306D02*
X1252129D01*
X1262017Y1398221D02*
X1280959D01*
X1233306D02*
X1252129D01*
X1261898Y1398340D02*
X1280959D01*
X1233187D02*
X1252248D01*
X1261898Y1398459D02*
X1280959D01*
X1233187D02*
X1252248D01*
X1261898Y1398578D02*
X1281079D01*
X1233187D02*
X1252367D01*
X1261779Y1398697D02*
X1281079D01*
X1233068D02*
X1252367D01*
X1261779Y1398816D02*
X1281198D01*
X1233068D02*
X1252486D01*
X1261660Y1398936D02*
X1281198D01*
X1232949D02*
X1252486D01*
X1261660Y1399055D02*
X1281198D01*
X1232949D02*
X1252486D01*
X1261541Y1399174D02*
X1281317D01*
X1232949D02*
X1252606D01*
X1261541Y1399293D02*
X1281317D01*
X1232829D02*
X1252606D01*
X1261541Y1399412D02*
X1281436D01*
X1232829D02*
X1252725D01*
X1261422Y1399531D02*
X1281436D01*
X1232710D02*
X1252725D01*
X1261422Y1399650D02*
X1281436D01*
X1232710D02*
X1252725D01*
X1261302Y1399769D02*
X1281555D01*
X1232710D02*
X1252844D01*
X1261302Y1399889D02*
X1281555D01*
X1232591D02*
X1252844D01*
X1261302Y1400008D02*
X1281674D01*
X1232591D02*
X1252963D01*
X1261183Y1400127D02*
X1281674D01*
X1232472D02*
X1252963D01*
X1261183Y1400246D02*
X1281674D01*
X1232472D02*
X1253082D01*
X1261064Y1400365D02*
X1281793D01*
X1232472D02*
X1253082D01*
X1261064Y1400484D02*
X1281793D01*
X1232353D02*
X1253082D01*
X1260945Y1400603D02*
X1281913D01*
X1232353D02*
X1253201D01*
X1260945Y1400723D02*
X1281913D01*
X1232234D02*
X1253201D01*
X1260945Y1400842D02*
X1281913D01*
X1232234D02*
X1253320D01*
X1260826Y1400961D02*
X1282032D01*
X1232234D02*
X1253320D01*
X1260826Y1401080D02*
X1282032D01*
X1232115D02*
X1253320D01*
X1260945Y1401199D02*
X1282151D01*
X1232115D02*
X1253320D01*
X1260945Y1401318D02*
X1282151D01*
X1231995D02*
X1253201D01*
X1261064Y1401437D02*
X1282151D01*
X1231995D02*
X1253201D01*
X1261183Y1401557D02*
X1282270D01*
X1231995D02*
X1252963D01*
X1261422Y1401676D02*
X1282270D01*
X1231876D02*
X1252844D01*
X1261541Y1401795D02*
X1282389D01*
X1231876D02*
X1252606D01*
X1261779Y1401914D02*
X1282389D01*
X1231757D02*
X1252367D01*
X1261898Y1402033D02*
X1282389D01*
X1231757D02*
X1252248D01*
X1262136Y1402152D02*
X1282508D01*
X1231757D02*
X1252010D01*
X1262255Y1402271D02*
X1282508D01*
X1231638D02*
X1251891D01*
X1262375Y1402390D02*
X1282627D01*
X1231638D02*
X1251772D01*
X1262613Y1402509D02*
X1282627D01*
X1231519D02*
X1251533D01*
X1262732Y1402629D02*
X1282627D01*
X1231519D02*
X1251414D01*
X1262970Y1402748D02*
X1282746D01*
X1231519D02*
X1251295D01*
X1263089Y1402867D02*
X1282746D01*
X1231400D02*
X1251057D01*
X1263208Y1402986D02*
X1282866D01*
X1231400D02*
X1250938D01*
X1263328Y1403105D02*
X1282866D01*
X1231281D02*
X1250819D01*
X1263566Y1403224D02*
X1282866D01*
X1231281D02*
X1250699D01*
X1263685Y1403344D02*
X1282985D01*
X1231281D02*
X1250580D01*
X1263804Y1403463D02*
X1282985D01*
X1231161D02*
X1250342D01*
X1263923Y1403582D02*
X1283104D01*
X1231161D02*
X1250223D01*
X1264043Y1403701D02*
X1283104D01*
X1231042D02*
X1250104D01*
X1264162Y1403820D02*
X1283223D01*
X1231042D02*
X1249985D01*
X1264281Y1403939D02*
X1283342D01*
X1230923D02*
X1249865D01*
X1264400Y1404058D02*
X1283461D01*
X1230685D02*
X1249865D01*
X1264519Y1404177D02*
X1284057D01*
X1230089D02*
X1249746D01*
X1264519Y1404297D02*
X1284772D01*
X1229374D02*
X1249627D01*
X1264638Y1404416D02*
X1285367D01*
X1228779D02*
X1249508D01*
X1264757Y1404535D02*
X1286082D01*
X1228183D02*
X1249389D01*
X1264876Y1404654D02*
X1286678D01*
X1227468D02*
X1249270D01*
X1264995Y1404773D02*
X1287274D01*
X1226873D02*
X1249270D01*
X1264995Y1404892D02*
X1287988D01*
X1226277D02*
X1249151D01*
X1265115Y1405011D02*
X1288584D01*
X1225562D02*
X1249032D01*
X1265234Y1405130D02*
X1289180D01*
X1224967D02*
X1249032D01*
X1265234Y1405250D02*
X1289895D01*
X1224252D02*
X1248913D01*
X1265353Y1405369D02*
X1290490D01*
X1223656D02*
X1248793D01*
X1265472Y1405488D02*
X1291205D01*
X1223060D02*
X1248793D01*
X1265472Y1405607D02*
X1291801D01*
X1222346D02*
X1248674D01*
X1265591Y1405726D02*
X1292158D01*
X1221988D02*
X1248555D01*
X1265591Y1405845D02*
X1292277D01*
X1221869D02*
X1248555D01*
X1265710Y1405964D02*
X1292396D01*
X1221750D02*
X1248436D01*
X1265710Y1406084D02*
X1292396D01*
X1221750D02*
X1248436D01*
X1265829Y1406203D02*
X1292396D01*
X1221750D02*
X1248317D01*
X1265829Y1406322D02*
X1292396D01*
X1221750D02*
X1248317D01*
X1265949Y1406441D02*
X1292396D01*
X1221750D02*
X1248198D01*
X1265949Y1406560D02*
X1292396D01*
X1221750D02*
X1248198D01*
X1266068Y1406679D02*
X1292396D01*
X1221750D02*
X1248079D01*
X1266068Y1406798D02*
X1292396D01*
X1221750D02*
X1248079D01*
X1266187Y1406918D02*
X1292396D01*
X1221750D02*
X1248079D01*
X1266187Y1407037D02*
X1292396D01*
X1221750D02*
X1247959D01*
X1266306Y1407156D02*
X1292396D01*
X1221750D02*
X1247959D01*
X1266306Y1407275D02*
X1292396D01*
X1221750D02*
X1247840D01*
X1266306Y1407394D02*
X1292396D01*
X1221750D02*
X1247840D01*
X1266425Y1407513D02*
X1292396D01*
X1221750D02*
X1247840D01*
X1266425Y1407632D02*
X1292396D01*
X1221750D02*
X1247721D01*
X1266425Y1407751D02*
X1292396D01*
X1221750D02*
X1247721D01*
X1266544Y1407871D02*
X1292396D01*
X1221750D02*
X1247721D01*
X1266544Y1407990D02*
X1292396D01*
X1221750D02*
X1247602D01*
X1266544Y1408109D02*
X1292396D01*
X1221750D02*
X1247602D01*
X1266544Y1408228D02*
X1292396D01*
X1221750D02*
X1247602D01*
X1266663Y1408347D02*
X1292396D01*
X1221750D02*
X1247602D01*
X1266663Y1408466D02*
X1292396D01*
X1221750D02*
X1247483D01*
X1266663Y1408585D02*
X1292396D01*
X1221750D02*
X1247483D01*
X1266663Y1408705D02*
X1292396D01*
X1221750D02*
X1247483D01*
X1266663Y1408824D02*
X1292396D01*
X1221750D02*
X1247483D01*
X1266783Y1408943D02*
X1292396D01*
X1221750D02*
X1247483D01*
X1266783Y1409062D02*
X1292396D01*
X1221750D02*
X1247364D01*
X1266783Y1409181D02*
X1292396D01*
X1221750D02*
X1247364D01*
X1266783Y1409300D02*
X1292396D01*
X1221750D02*
X1247364D01*
X1266783Y1409419D02*
X1292396D01*
X1221750D02*
X1247364D01*
X1266783Y1409538D02*
X1292396D01*
X1221750D02*
X1247364D01*
X1266783Y1409658D02*
X1292396D01*
X1221750D02*
X1247364D01*
X1266902Y1409777D02*
X1292396D01*
X1221750D02*
X1247364D01*
X1266902Y1409896D02*
X1292396D01*
X1221750D02*
X1247364D01*
X1266902Y1410015D02*
X1292396D01*
X1221750D02*
X1247364D01*
X1266902Y1410134D02*
X1292396D01*
X1221750D02*
X1247364D01*
X1266902Y1410253D02*
X1292396D01*
X1221750D02*
X1247245D01*
X1266902Y1410372D02*
X1292396D01*
X1221750D02*
X1247245D01*
X1266902Y1410491D02*
X1292396D01*
X1221750D02*
X1247245D01*
X1266902Y1410611D02*
X1292396D01*
X1221750D02*
X1247245D01*
X1266902Y1410730D02*
X1292396D01*
X1221750D02*
X1247245D01*
X1266902Y1410849D02*
X1292396D01*
X1221750D02*
X1247245D01*
X1266902Y1410968D02*
X1292396D01*
X1221750D02*
X1247364D01*
X1266902Y1411087D02*
X1292396D01*
X1221750D02*
X1247364D01*
X1266902Y1411206D02*
X1292396D01*
X1221750D02*
X1247364D01*
X1266902Y1411325D02*
X1292396D01*
X1221750D02*
X1247364D01*
X1266783Y1411445D02*
X1292396D01*
X1221750D02*
X1247364D01*
X1266783Y1411564D02*
X1292396D01*
X1221750D02*
X1247364D01*
X1266783Y1411683D02*
X1292396D01*
X1221750D02*
X1247364D01*
X1266783Y1411802D02*
X1292396D01*
X1221750D02*
X1247364D01*
X1266783Y1411921D02*
X1292396D01*
X1221750D02*
X1247364D01*
X1266783Y1412040D02*
X1292396D01*
X1221750D02*
X1247364D01*
X1266783Y1412159D02*
X1292396D01*
X1221750D02*
X1247483D01*
X1266663Y1412278D02*
X1292396D01*
X1221750D02*
X1247483D01*
X1266663Y1412398D02*
X1292396D01*
X1221750D02*
X1247483D01*
X1266663Y1412517D02*
X1292396D01*
X1221750D02*
X1247483D01*
X1266663Y1412636D02*
X1292396D01*
X1221750D02*
X1247483D01*
X1266663Y1412755D02*
X1292396D01*
X1221750D02*
X1247602D01*
X1266544Y1412874D02*
X1292396D01*
X1221750D02*
X1247602D01*
X1266544Y1412993D02*
X1292396D01*
X1221750D02*
X1247602D01*
X1266544Y1413112D02*
X1292396D01*
X1221750D02*
X1247602D01*
X1266544Y1413232D02*
X1292396D01*
X1221750D02*
X1247721D01*
X1266425Y1413351D02*
X1292396D01*
X1221750D02*
X1247721D01*
X1266425Y1413470D02*
X1292396D01*
X1221750D02*
X1247721D01*
X1266425Y1413589D02*
X1292396D01*
X1221750D02*
X1247840D01*
X1266306Y1413708D02*
X1292396D01*
X1221750D02*
X1247840D01*
X1266306Y1413827D02*
X1292396D01*
X1221750D02*
X1247840D01*
X1266306Y1413946D02*
X1292396D01*
X1221750D02*
X1247959D01*
X1266187Y1414066D02*
X1292396D01*
X1221750D02*
X1247959D01*
X1266187Y1414185D02*
X1292396D01*
X1221750D02*
X1247959D01*
X1266068Y1414304D02*
X1292396D01*
X1221750D02*
X1248079D01*
X1266068Y1414423D02*
X1292396D01*
X1221750D02*
X1248079D01*
X1266068Y1414542D02*
X1292396D01*
X1221750D02*
X1248198D01*
X1265949Y1414661D02*
X1292396D01*
X1221750D02*
X1248198D01*
X1265949Y1414780D02*
X1292396D01*
X1221750D02*
X1248317D01*
X1265829Y1414899D02*
X1292396D01*
X1221750D02*
X1248317D01*
X1265829Y1415019D02*
X1292396D01*
X1221750D02*
X1248436D01*
X1265710Y1415138D02*
X1292396D01*
X1221750D02*
X1248436D01*
X1265710Y1415257D02*
X1292396D01*
X1221750D02*
X1248555D01*
X1265591Y1415376D02*
X1292277D01*
X1221869D02*
X1248555D01*
X1265472Y1415495D02*
X1292277D01*
X1221988D02*
X1248674D01*
X1265472Y1415614D02*
X1291920D01*
X1222226D02*
X1248674D01*
X1265353Y1415733D02*
X1291324D01*
X1222822D02*
X1248793D01*
X1265353Y1415853D02*
X1290609D01*
X1223537D02*
X1248913D01*
X1265234Y1415972D02*
X1290014D01*
X1224133D02*
X1248913D01*
X1265115Y1416091D02*
X1289418D01*
X1224847D02*
X1249032D01*
X1265115Y1416210D02*
X1288703D01*
X1225443D02*
X1249151D01*
X1264995Y1416329D02*
X1288107D01*
X1226039D02*
X1249151D01*
X1264876Y1416448D02*
X1287512D01*
X1226754D02*
X1249270D01*
X1264757Y1416567D02*
X1286797D01*
X1227349D02*
X1249389D01*
X1264757Y1416687D02*
X1286201D01*
X1227945D02*
X1249508D01*
X1264638Y1416806D02*
X1285486D01*
X1228660D02*
X1249508D01*
X1264519Y1416925D02*
X1284891D01*
X1229255D02*
X1249627D01*
X1264400Y1417044D02*
X1284295D01*
X1229970D02*
X1249746D01*
X1264281Y1417163D02*
X1283580D01*
X1230566D02*
X1249865D01*
X1264162Y1417282D02*
X1283223D01*
X1231042D02*
X1249985D01*
X1264043Y1417401D02*
X1282985D01*
X1231161D02*
X1250104D01*
X1263923Y1417520D02*
X1282866D01*
X1231281D02*
X1250223D01*
X1263804Y1417640D02*
X1282866D01*
X1231281D02*
X1250342D01*
X1263685Y1417759D02*
X1282746D01*
X1231400D02*
X1250461D01*
X1263566Y1417878D02*
X1282746D01*
X1231400D02*
X1250580D01*
X1263447Y1417997D02*
X1282746D01*
X1231519D02*
X1250699D01*
X1263328Y1418116D02*
X1282627D01*
X1231519D02*
X1250938D01*
X1263208Y1418235D02*
X1282627D01*
X1231638D02*
X1251057D01*
X1262970Y1418354D02*
X1282508D01*
X1231638D02*
X1251176D01*
X1262851Y1418474D02*
X1282508D01*
X1231638D02*
X1251295D01*
X1262613Y1418593D02*
X1282389D01*
X1231757D02*
X1251533D01*
X1262494Y1418712D02*
X1282389D01*
X1231757D02*
X1251653D01*
X1262255Y1418831D02*
X1282389D01*
X1231876D02*
X1251891D01*
X1262136Y1418950D02*
X1282270D01*
X1231876D02*
X1252010D01*
X1261898Y1419069D02*
X1282270D01*
X1231995D02*
X1252248D01*
X1261660Y1419188D02*
X1282151D01*
X1231995D02*
X1252486D01*
X1261422Y1419307D02*
X1282151D01*
X1231995D02*
X1252725D01*
X1261183Y1419427D02*
X1282032D01*
X1232115D02*
X1252963D01*
X1260945Y1419546D02*
X1282032D01*
X1232115D02*
X1253201D01*
X1260707Y1419665D02*
X1282032D01*
X1232234D02*
X1253440D01*
X1260349Y1419784D02*
X1281913D01*
X1232234D02*
X1253797D01*
X1259992Y1419903D02*
X1281913D01*
X1232353D02*
X1254154D01*
X1259634Y1420022D02*
X1281793D01*
X1232353D02*
X1254512D01*
X1259158Y1420141D02*
X1281793D01*
X1232353D02*
X1254988D01*
X1258443Y1420260D02*
X1281674D01*
X1232472D02*
X1255703D01*
X1232472Y1420380D02*
X1281674D01*
X1232591Y1420499D02*
X1281674D01*
X1232591Y1420618D02*
X1281555D01*
X1232710Y1420737D02*
X1281555D01*
X1232710Y1420856D02*
X1281436D01*
X1232710Y1420975D02*
X1281436D01*
X1232829Y1421094D02*
X1281317D01*
X1232829Y1421214D02*
X1281317D01*
X1232949Y1421333D02*
X1281317D01*
X1232949Y1421452D02*
X1281198D01*
X1233068Y1421571D02*
X1281198D01*
X1233068Y1421690D02*
X1281079D01*
X1233068Y1421809D02*
X1281079D01*
X1233187Y1421928D02*
X1280959D01*
X1233187Y1422047D02*
X1280959D01*
X1233306Y1422167D02*
X1280959D01*
X1233306Y1422286D02*
X1280840D01*
X1233425Y1422405D02*
X1280840D01*
X1233425Y1422524D02*
X1280721D01*
X1233425Y1422643D02*
X1280721D01*
X1233544Y1422762D02*
X1280602D01*
X1233544Y1422881D02*
X1280602D01*
X1233663Y1423001D02*
X1280602D01*
X1233663Y1423120D02*
X1280483D01*
X1233783Y1423239D02*
X1280483D01*
X1233783Y1423358D02*
X1280364D01*
X1233783Y1423477D02*
X1280364D01*
X1233902Y1423596D02*
X1280245D01*
X1233902Y1423715D02*
X1280245D01*
X1234021Y1423835D02*
X1280245D01*
X1234021Y1423954D02*
X1280125D01*
X1234021Y1424073D02*
X1280125D01*
X1234021Y1424192D02*
X1280125D01*
X1234021Y1424311D02*
X1280245D01*
X1233902Y1424430D02*
X1280245D01*
X1233783Y1424549D02*
X1280364D01*
X1233783Y1424668D02*
X1280483D01*
X1233663Y1424788D02*
X1280483D01*
X1233544Y1424907D02*
X1280602D01*
X1233544Y1425026D02*
X1280721D01*
X1233425Y1425145D02*
X1280721D01*
X1233306Y1425264D02*
X1280840D01*
X1233306Y1425383D02*
X1280959D01*
X1233187Y1425502D02*
X1280959D01*
X1233068Y1425621D02*
X1281079D01*
X1233068Y1425741D02*
X1281198D01*
X1232949Y1425860D02*
X1281198D01*
X1232829Y1425979D02*
X1281317D01*
X1232829Y1426098D02*
X1281436D01*
X1232710Y1426217D02*
X1281436D01*
X1232591Y1426336D02*
X1281555D01*
X1232472Y1426455D02*
X1281674D01*
X1232472Y1426575D02*
X1281674D01*
X1232353Y1426694D02*
X1281793D01*
X1232234Y1426813D02*
X1281913D01*
X1232234Y1426932D02*
X1282032D01*
X1232115Y1427051D02*
X1282032D01*
X1231995Y1427170D02*
X1282151D01*
X1231995Y1427289D02*
X1282270D01*
X1231876Y1427408D02*
X1282270D01*
X1231757Y1427528D02*
X1282389D01*
X1231757Y1427647D02*
X1282508D01*
X1231638Y1427766D02*
X1282508D01*
X1231519Y1427885D02*
X1282627D01*
X1231519Y1428004D02*
X1282746D01*
X1231400Y1428123D02*
X1282746D01*
X1231281Y1428242D02*
X1282866D01*
X1231161Y1428362D02*
X1282985D01*
X1231161Y1428481D02*
X1282985D01*
X1231042Y1428600D02*
X1283104D01*
X1230923Y1428719D02*
X1283223D01*
X1230923Y1428838D02*
X1283342D01*
X1230804Y1428957D02*
X1283342D01*
X1230685Y1429076D02*
X1283461D01*
X1230685Y1429196D02*
X1283580D01*
X1230566Y1429315D02*
X1283580D01*
X1230447Y1429434D02*
X1283699D01*
X1230447Y1429553D02*
X1283819D01*
X1230328Y1429672D02*
X1283819D01*
X1230209Y1429791D02*
X1283938D01*
X1230209Y1429910D02*
X1284057D01*
X1230089Y1430029D02*
X1284057D01*
X1229970Y1430149D02*
X1284176D01*
X1229851Y1430268D02*
X1284295D01*
X1229851Y1430387D02*
X1284295D01*
X1229732Y1430506D02*
X1284414D01*
X1229613Y1430625D02*
X1284534D01*
X1229613Y1430744D02*
X1284653D01*
X1229494Y1430863D02*
X1284653D01*
X1229374Y1430983D02*
X1284772D01*
X1229374Y1431102D02*
X1284891D01*
X1229255Y1431221D02*
X1284891D01*
X1229136Y1431340D02*
X1285010D01*
X1229136Y1431459D02*
X1285129D01*
X1229017Y1431578D02*
X1285129D01*
X1228898Y1431697D02*
X1285248D01*
X1228898Y1431817D02*
X1285367D01*
X1228779Y1431936D02*
X1285367D01*
X1228779Y1432055D02*
X1285367D01*
X1228779Y1432174D02*
X1285367D01*
X1228898Y1432293D02*
X1285367D01*
X1228898Y1432412D02*
X1285248D01*
X1229017Y1432531D02*
X1285129D01*
X1229136Y1432650D02*
X1285010D01*
X1229255Y1432769D02*
X1284891D01*
X1229374Y1432889D02*
X1284772D01*
X1229494Y1433008D02*
X1284653D01*
X1229613Y1433127D02*
X1284534D01*
X1229732Y1433246D02*
X1284414D01*
X1229851Y1433365D02*
X1284295D01*
X1229970Y1433484D02*
X1284176D01*
X1270595Y1433604D02*
X1284057D01*
X1243909D02*
X1270237D01*
X1230089D02*
X1243671D01*
X1270833Y1433723D02*
X1283938D01*
X1244266D02*
X1269999D01*
X1230209D02*
X1243432D01*
X1270952Y1433842D02*
X1283819D01*
X1244504D02*
X1269642D01*
X1230328D02*
X1243194D01*
X1271190Y1433961D02*
X1283699D01*
X1244743D02*
X1269404D01*
X1230447D02*
X1243075D01*
X1271310Y1434080D02*
X1283580D01*
X1245100D02*
X1269046D01*
X1230566D02*
X1242837D01*
X1271429Y1434199D02*
X1283461D01*
X1245339D02*
X1268808D01*
X1230685D02*
X1242718D01*
X1271667Y1434318D02*
X1283342D01*
X1245696D02*
X1268450D01*
X1230804D02*
X1242479D01*
X1271786Y1434437D02*
X1283223D01*
X1245934D02*
X1268212D01*
X1230923D02*
X1242360D01*
X1272024Y1434556D02*
X1283104D01*
X1246292D02*
X1267974D01*
X1231042D02*
X1242122D01*
X1272144Y1434676D02*
X1282985D01*
X1246530D02*
X1267617D01*
X1231161D02*
X1242003D01*
X1272382Y1434795D02*
X1282866D01*
X1246887D02*
X1267378D01*
X1231281D02*
X1241884D01*
X1272501Y1434914D02*
X1282746D01*
X1247125D02*
X1267021D01*
X1231400D02*
X1241645D01*
X1272739Y1435033D02*
X1282627D01*
X1247364D02*
X1266783D01*
X1231519D02*
X1241526D01*
X1272858Y1435152D02*
X1282508D01*
X1247721D02*
X1266425D01*
X1231638D02*
X1241288D01*
X1273097Y1435271D02*
X1282389D01*
X1247959D02*
X1266187D01*
X1231757D02*
X1241169D01*
X1273216Y1435390D02*
X1282270D01*
X1248317D02*
X1265829D01*
X1231876D02*
X1240930D01*
X1273335Y1435510D02*
X1282151D01*
X1248555D02*
X1265591D01*
X1231995D02*
X1240811D01*
X1273573Y1435629D02*
X1282032D01*
X1248913D02*
X1265353D01*
X1232115D02*
X1240573D01*
X1273692Y1435748D02*
X1281913D01*
X1249151D02*
X1264995D01*
X1232234D02*
X1240454D01*
X1273931Y1435867D02*
X1281793D01*
X1249508D02*
X1264757D01*
X1232353D02*
X1240216D01*
X1274050Y1435986D02*
X1281674D01*
X1249746D02*
X1264400D01*
X1232472D02*
X1240097D01*
X1274288Y1436105D02*
X1281555D01*
X1249985D02*
X1264162D01*
X1232591D02*
X1239977D01*
X1274407Y1436224D02*
X1281436D01*
X1250223D02*
X1263923D01*
X1232710D02*
X1239739D01*
X1274645Y1436344D02*
X1281317D01*
X1250342D02*
X1263804D01*
X1232829D02*
X1239620D01*
X1274764Y1436463D02*
X1281198D01*
X1250342D02*
X1263804D01*
X1232949D02*
X1239382D01*
X1275003Y1436582D02*
X1281079D01*
X1250461D02*
X1263685D01*
X1233068D02*
X1239263D01*
X1275122Y1436701D02*
X1280959D01*
X1250461D02*
X1263685D01*
X1233187D02*
X1239024D01*
X1275241Y1436820D02*
X1280840D01*
X1250461D02*
X1263685D01*
X1233306D02*
X1238905D01*
X1275479Y1436939D02*
X1280721D01*
X1250461D02*
X1263685D01*
X1233425D02*
X1238667D01*
X1275598Y1437058D02*
X1280602D01*
X1250580D02*
X1263685D01*
X1233544D02*
X1238548D01*
X1275837Y1437177D02*
X1280483D01*
X1250580D02*
X1263566D01*
X1233663D02*
X1238309D01*
X1275956Y1437297D02*
X1280364D01*
X1250580D02*
X1263566D01*
X1233783D02*
X1238190D01*
X1276194Y1437416D02*
X1280245D01*
X1250580D02*
X1263566D01*
X1233902D02*
X1237952D01*
X1276313Y1437535D02*
X1280125D01*
X1250580D02*
X1263566D01*
X1234021D02*
X1237833D01*
X1276552Y1437654D02*
X1280006D01*
X1250699D02*
X1263566D01*
X1234140D02*
X1237714D01*
X1276671Y1437773D02*
X1279887D01*
X1250699D02*
X1263566D01*
X1234259D02*
X1237476D01*
X1276909Y1437892D02*
X1279768D01*
X1250699D02*
X1263447D01*
X1234378D02*
X1237356D01*
X1277028Y1438011D02*
X1279649D01*
X1250699D02*
X1263447D01*
X1234497D02*
X1237118D01*
X1277266Y1438131D02*
X1279530D01*
X1250699D02*
X1263447D01*
X1234616D02*
X1236999D01*
X1277385Y1438250D02*
X1279411D01*
X1250699D02*
X1263447D01*
X1234735D02*
X1236761D01*
X1277505Y1438369D02*
X1279292D01*
X1250819D02*
X1263447D01*
X1234855D02*
X1236642D01*
X1277743Y1438488D02*
X1279172D01*
X1250819D02*
X1263328D01*
X1234974D02*
X1236403D01*
X1277862Y1438607D02*
X1279053D01*
X1250819D02*
X1263328D01*
X1235093D02*
X1236284D01*
X1278100Y1438726D02*
X1278934D01*
X1250819D02*
X1263328D01*
X1235212D02*
X1236046D01*
X1278219Y1438845D02*
X1278815D01*
X1250819D02*
X1263328D01*
X1235331D02*
X1235927D01*
X1250938Y1438965D02*
X1263328D01*
X1250938Y1439084D02*
X1263208D01*
X1250938Y1439203D02*
X1263208D01*
X1250938Y1439322D02*
X1263208D01*
X1250938Y1439441D02*
X1263208D01*
X1250938Y1439560D02*
X1263208D01*
X1251057Y1439679D02*
X1263208D01*
X1251057Y1439798D02*
X1263089D01*
X1251057Y1439918D02*
X1263089D01*
X1251057Y1440037D02*
X1263089D01*
X1251057Y1440156D02*
X1263089D01*
X1251176Y1440275D02*
X1263089D01*
X1251176Y1440394D02*
X1262970D01*
X1251176Y1440513D02*
X1262970D01*
X1251176Y1440632D02*
X1262970D01*
X1251176Y1440751D02*
X1262970D01*
X1251295Y1440871D02*
X1262970D01*
X1251295Y1440990D02*
X1262970D01*
X1251295Y1441109D02*
X1262851D01*
X1251295Y1441228D02*
X1262851D01*
X1251295Y1441347D02*
X1262851D01*
X1251295Y1441466D02*
X1262851D01*
X1251414Y1441586D02*
X1262851D01*
X1251414Y1441705D02*
X1262732D01*
X1251414Y1441824D02*
X1262732D01*
X1251414Y1441943D02*
X1262732D01*
X1251414Y1442062D02*
X1262732D01*
X1251533Y1442181D02*
X1262732D01*
X1251533Y1442300D02*
X1262613D01*
X1251533Y1442419D02*
X1262613D01*
X1251533Y1442538D02*
X1262613D01*
X1251533Y1442658D02*
X1262613D01*
X1251653Y1442777D02*
X1262613D01*
X1251653Y1442896D02*
X1262613D01*
X1251653Y1443015D02*
X1262494D01*
X1251653Y1443134D02*
X1262494D01*
X1251653Y1443253D02*
X1262494D01*
X1251653Y1443372D02*
X1262494D01*
X1251772Y1443492D02*
X1262494D01*
X1251772Y1443611D02*
X1262375D01*
X1251772Y1443730D02*
X1262375D01*
X1251772Y1443849D02*
X1262375D01*
X1251772Y1443968D02*
X1262375D01*
X1251891Y1444087D02*
X1262375D01*
X1251891Y1444206D02*
X1262255D01*
X1251891Y1444326D02*
X1262255D01*
X1251891Y1444445D02*
X1262255D01*
X1251891Y1444564D02*
X1262255D01*
X1251891Y1444683D02*
X1262255D01*
X1252010Y1444802D02*
X1262255D01*
X1252010Y1444921D02*
X1262136D01*
X1252010Y1445040D02*
X1262136D01*
X1252010Y1445159D02*
X1262136D01*
X1252010Y1445279D02*
X1262136D01*
X1252129Y1445398D02*
X1262136D01*
X1252129Y1445517D02*
X1262017D01*
X1252129Y1445636D02*
X1262017D01*
X1252248Y1445755D02*
X1262017D01*
X1252367Y1445874D02*
X1261779D01*
D18*
X1231750Y1049650D02*
Y1053150D01*
X1230250Y1034150D02*
X1244000D01*
X1242000Y1049650D02*
Y1053150D01*
X1223000Y1048310D02*
Y1054310D01*
X1213000Y1048310D02*
Y1054310D01*
X1224000Y1089000D02*
X1230000D01*
X1224000Y1079000D02*
X1230000D01*
X1286000Y1029000D02*
X1302000D01*
X1286000Y1007000D02*
X1302000D01*
X1305000Y977913D02*
Y983913D01*
X1315000Y977913D02*
Y983913D01*
X1242250Y942000D02*
Y948000D01*
X1252250Y942000D02*
Y948000D01*
X1286000Y956000D02*
X1302000D01*
X1286000Y934000D02*
X1302000D01*
X1400250Y897940D02*
Y903940D01*
X1410250Y897940D02*
Y903940D01*
X1393000Y869000D02*
X1399000D01*
X1393000Y879000D02*
X1399000D01*
X1272750Y905250D02*
Y908750D01*
X1271250Y889750D02*
X1285000D01*
X1283000Y905250D02*
Y908750D01*
X1253250Y904000D02*
Y910000D01*
X1243250Y904000D02*
Y910000D01*
X1150000Y943000D02*
X1156000D01*
X1150000Y953000D02*
X1156000D01*
X1198496Y959037D02*
X1202739Y954795D01*
X1191425Y951966D02*
X1195668Y947724D01*
X1212342Y972907D02*
X1216584Y968664D01*
X1205271Y965836D02*
X1209513Y961593D01*
X972500Y974250D02*
Y980250D01*
X982500Y974250D02*
Y980250D01*
X1001723Y953606D02*
X1007723D01*
X1001723Y943606D02*
X1007723D01*
X740000Y932750D02*
Y938750D01*
X730000Y932750D02*
Y938750D01*
X708750Y933250D02*
Y936750D01*
X707250Y917750D02*
X721000D01*
X719000Y933250D02*
Y936750D01*
X905000Y910840D02*
X911000D01*
X905000Y920840D02*
X911000D01*
X744750Y1038719D02*
Y1044719D01*
X754750Y1038719D02*
Y1044719D01*
X725410Y1038719D02*
Y1044719D01*
X735410Y1038719D02*
Y1044719D01*
X822000Y1242350D02*
X828000D01*
X822000Y1232350D02*
X828000D01*
X921469Y1242800D02*
X927469D01*
X921469Y1232800D02*
X927469D01*
X1023007Y1242800D02*
X1029007D01*
X1023007Y1232800D02*
X1029007D01*
X1280000Y1251000D02*
Y1257000D01*
X1270000Y1251000D02*
Y1257000D01*
X1019750Y994250D02*
X1019750Y959250D01*
X991250D02*
X1019750D01*
X991250D02*
Y994250D01*
X1019750Y994250D01*
D19*
X679500Y1282125D02*
Y1275354D01*
X680854Y1274000D01*
X683563D01*
X684917Y1275354D01*
Y1282125D01*
X687625Y1274000D02*
Y1279417D01*
X690334Y1282125D01*
X693042Y1279417D01*
Y1274000D01*
Y1278063D01*
X687625D01*
X695751Y1274000D02*
Y1282125D01*
X699814D01*
X701168Y1280771D01*
Y1278063D01*
X699814Y1276708D01*
X695751D01*
X698459D02*
X701168Y1274000D01*
X703876Y1282125D02*
X709293D01*
X706585D01*
Y1274000D01*
X708500Y1314000D02*
Y1322125D01*
X712563D01*
X713917Y1320771D01*
Y1318063D01*
X712563Y1316708D01*
X708500D01*
X711208D02*
X713917Y1314000D01*
X716625Y1322125D02*
X722042Y1314000D01*
Y1322125D02*
X716625Y1314000D01*
X708500Y1348375D02*
X713917D01*
X711208D01*
Y1340250D01*
X716625Y1348375D02*
X722042Y1340250D01*
Y1348375D02*
X716625Y1340250D01*
X677917Y1598375D02*
X672500D01*
Y1594313D01*
X675209D01*
X672500D01*
Y1590250D01*
X680625Y1598375D02*
Y1590250D01*
X684688D01*
X686042Y1591604D01*
Y1597021D01*
X684688Y1598375D01*
X680625D01*
X688751Y1588896D02*
X694168D01*
X696876Y1598375D02*
X702293D01*
X699585D01*
Y1590250D01*
X705002Y1598375D02*
Y1590250D01*
X710418D01*
X1296167Y1628875D02*
X1290750D01*
Y1624813D01*
X1293459D01*
X1290750D01*
Y1620750D01*
X1298875Y1628875D02*
Y1620750D01*
X1302938D01*
X1304292Y1622104D01*
Y1627521D01*
X1302938Y1628875D01*
X1298875D01*
X1307001Y1619396D02*
X1312418D01*
X1315126Y1628875D02*
X1320543D01*
X1317835D01*
Y1620750D01*
X1323252D02*
Y1628875D01*
X1327314D01*
X1328669Y1627521D01*
Y1624813D01*
X1327314Y1623458D01*
X1323252D01*
X1325960D02*
X1328669Y1620750D01*
X1476417Y903875D02*
X1471000D01*
Y899813D01*
X1473708D01*
X1471000D01*
Y895750D01*
X1479125Y903875D02*
Y895750D01*
X1483188D01*
X1484542Y897104D01*
Y902521D01*
X1483188Y903875D01*
X1479125D01*
X1487251Y894396D02*
X1492668D01*
X1495376Y903875D02*
Y895750D01*
X1499439D01*
X1500793Y897104D01*
Y898458D01*
X1499439Y899813D01*
X1495376D01*
X1499439D01*
X1500793Y901167D01*
Y902521D01*
X1499439Y903875D01*
X1495376D01*
X1503501Y895750D02*
Y903875D01*
X1507564D01*
X1508918Y902521D01*
Y899813D01*
X1507564Y898458D01*
X1503501D01*
X1506210D02*
X1508918Y895750D01*
X762917Y1374021D02*
X761563Y1375375D01*
X758854D01*
X757500Y1374021D01*
Y1368604D01*
X758854Y1367250D01*
X761563D01*
X762917Y1368604D01*
Y1371313D01*
X760209D01*
X765625Y1367250D02*
Y1375375D01*
X771042Y1367250D01*
Y1375375D01*
X773751D02*
Y1367250D01*
X777813D01*
X779168Y1368604D01*
Y1374021D01*
X777813Y1375375D01*
X773751D01*
X762373Y1234271D02*
X761019Y1235625D01*
X758310D01*
X756956Y1234271D01*
Y1228854D01*
X758310Y1227500D01*
X761019D01*
X762373Y1228854D01*
Y1231563D01*
X759664D01*
X765081Y1227500D02*
Y1235625D01*
X770498Y1227500D01*
Y1235625D01*
X773207D02*
Y1227500D01*
X777269D01*
X778624Y1228854D01*
Y1234271D01*
X777269Y1235625D01*
X773207D01*
X687057Y1036021D02*
X685702Y1037375D01*
X682994D01*
X681640Y1036021D01*
Y1030604D01*
X682994Y1029250D01*
X685702D01*
X687057Y1030604D01*
Y1033313D01*
X684348D01*
X689765Y1029250D02*
Y1037375D01*
X695182Y1029250D01*
Y1037375D01*
X697890D02*
Y1029250D01*
X701953D01*
X703307Y1030604D01*
Y1036021D01*
X701953Y1037375D01*
X697890D01*
X925643Y957271D02*
X924288Y958625D01*
X921580D01*
X920226Y957271D01*
Y951854D01*
X921580Y950500D01*
X924288D01*
X925643Y951854D01*
Y954563D01*
X922934D01*
X928351Y950500D02*
Y958625D01*
X933768Y950500D01*
Y958625D01*
X936477D02*
Y950500D01*
X940539D01*
X941893Y951854D01*
Y957271D01*
X940539Y958625D01*
X936477D01*
X1116373Y1331521D02*
X1115018Y1332875D01*
X1112310D01*
X1110956Y1331521D01*
Y1326104D01*
X1112310Y1324750D01*
X1115018D01*
X1116373Y1326104D01*
Y1328813D01*
X1113664D01*
X1119081Y1324750D02*
Y1332875D01*
X1124498Y1324750D01*
Y1332875D01*
X1127207D02*
Y1324750D01*
X1131269D01*
X1132624Y1326104D01*
Y1331521D01*
X1131269Y1332875D01*
X1127207D01*
X1389373Y1530021D02*
X1388018Y1531375D01*
X1385310D01*
X1383956Y1530021D01*
Y1524604D01*
X1385310Y1523250D01*
X1388018D01*
X1389373Y1524604D01*
Y1527313D01*
X1386664D01*
X1392081Y1523250D02*
Y1531375D01*
X1397498Y1523250D01*
Y1531375D01*
X1400207D02*
Y1523250D01*
X1404269D01*
X1405623Y1524604D01*
Y1530021D01*
X1404269Y1531375D01*
X1400207D01*
X827896Y1615813D02*
X833313D01*
X830605Y1618521D02*
Y1613104D01*
X836022Y1619875D02*
X841439D01*
Y1618521D01*
X836022Y1613104D01*
Y1611750D01*
X841439D01*
X880646Y1628313D02*
X886063D01*
X883355Y1631021D02*
Y1625604D01*
X888772Y1632375D02*
X894189Y1624250D01*
Y1632375D02*
X888772Y1624250D01*
X843646Y1664813D02*
X849063D01*
X846355Y1667521D02*
Y1662104D01*
X851772Y1668875D02*
Y1667521D01*
X854480Y1664813D01*
X857189Y1667521D01*
Y1668875D01*
X854480Y1664813D02*
Y1660750D01*
X983417Y1690521D02*
X982063Y1691875D01*
X979354D01*
X978000Y1690521D01*
Y1685104D01*
X979354Y1683750D01*
X982063D01*
X983417Y1685104D01*
Y1687813D01*
X980708D01*
X986125Y1683750D02*
Y1691875D01*
X991542Y1683750D01*
Y1691875D01*
X994251D02*
Y1683750D01*
X998313D01*
X999668Y1685104D01*
Y1690521D01*
X998313Y1691875D01*
X994251D01*
X791750Y1416715D02*
Y1408590D01*
X795813D01*
X797167Y1409944D01*
Y1415361D01*
X795813Y1416715D01*
X791750D01*
X799875D02*
Y1411298D01*
X802584Y1408590D01*
X805292Y1411298D01*
Y1416715D01*
X813418Y1415361D02*
X812064Y1416715D01*
X809355D01*
X808001Y1415361D01*
Y1409944D01*
X809355Y1408590D01*
X812064D01*
X813418Y1409944D01*
X821543Y1415361D02*
X820189Y1416715D01*
X817480D01*
X816126Y1415361D01*
Y1409944D01*
X817480Y1408590D01*
X820189D01*
X821543Y1409944D01*
X799368Y1420670D02*
Y1426087D01*
X802076Y1428795D01*
X804784Y1426087D01*
Y1420670D01*
Y1424733D01*
X799368D01*
X807493Y1420670D02*
Y1428795D01*
X812910Y1420670D01*
Y1428795D01*
X815618D02*
X821035D01*
X818327D01*
Y1420670D01*
X799368Y1440987D02*
Y1432862D01*
X803430D01*
X804784Y1434216D01*
Y1435570D01*
X803430Y1436925D01*
X799368D01*
X803430D01*
X804784Y1438279D01*
Y1439633D01*
X803430Y1440987D01*
X799368D01*
X807493Y1432862D02*
Y1438279D01*
X810201Y1440987D01*
X812910Y1438279D01*
Y1432862D01*
Y1436925D01*
X807493D01*
X815618Y1440987D02*
X821035D01*
X818327D01*
Y1432862D01*
X798437Y1457295D02*
X797082Y1458649D01*
X794374D01*
X793020Y1457295D01*
Y1451878D01*
X794374Y1450524D01*
X797082D01*
X798437Y1451878D01*
Y1454587D01*
X795728D01*
X801145Y1450524D02*
Y1458649D01*
X805208D01*
X806562Y1457295D01*
Y1454587D01*
X805208Y1453233D01*
X801145D01*
X809270Y1458649D02*
X811979D01*
X810625D01*
Y1450524D01*
X809270D01*
X811979D01*
X820104Y1458649D02*
X817396D01*
X816041Y1457295D01*
Y1451878D01*
X817396Y1450524D01*
X820104D01*
X821458Y1451878D01*
Y1457295D01*
X820104Y1458649D01*
X807324Y1480045D02*
X805969Y1481399D01*
X803261D01*
X801907Y1480045D01*
Y1478691D01*
X803261Y1477337D01*
X805969D01*
X807324Y1475982D01*
Y1474628D01*
X805969Y1473274D01*
X803261D01*
X801907Y1474628D01*
X810032Y1473274D02*
Y1481399D01*
X814095D01*
X815449Y1480045D01*
Y1477337D01*
X814095Y1475982D01*
X810032D01*
X818158Y1481399D02*
X820866D01*
X819512D01*
Y1473274D01*
X818158D01*
X820866D01*
X812402Y1504795D02*
X811048Y1506149D01*
X808339D01*
X806985Y1504795D01*
Y1499378D01*
X808339Y1498024D01*
X811048D01*
X812402Y1499378D01*
X820527Y1504795D02*
X819173Y1506149D01*
X816465D01*
X815110Y1504795D01*
Y1503441D01*
X816465Y1502087D01*
X819173D01*
X820527Y1500732D01*
Y1499378D01*
X819173Y1498024D01*
X816465D01*
X815110Y1499378D01*
X947167Y1426601D02*
X945813Y1427955D01*
X943104D01*
X941750Y1426601D01*
Y1421184D01*
X943104Y1419830D01*
X945813D01*
X947167Y1421184D01*
Y1423893D01*
X944458D01*
X949875Y1419830D02*
Y1427955D01*
X955292Y1419830D01*
Y1427955D01*
X958001D02*
Y1419830D01*
X962064D01*
X963418Y1421184D01*
Y1426601D01*
X962064Y1427955D01*
X958001D01*
X947167Y1454521D02*
X945813Y1455875D01*
X943104D01*
X941750Y1454521D01*
Y1449104D01*
X943104Y1447750D01*
X945813D01*
X947167Y1449104D01*
Y1451813D01*
X944458D01*
X949875Y1447750D02*
Y1455875D01*
X953938D01*
X955292Y1454521D01*
Y1451813D01*
X953938Y1450459D01*
X949875D01*
X958001Y1455875D02*
X960709D01*
X959355D01*
Y1447750D01*
X958001D01*
X960709D01*
X968835Y1455875D02*
X966126D01*
X964772Y1454521D01*
Y1449104D01*
X966126Y1447750D01*
X968835D01*
X970189Y1449104D01*
Y1454521D01*
X968835Y1455875D01*
X941750Y1470750D02*
Y1476167D01*
X944458Y1478875D01*
X947167Y1476167D01*
Y1470750D01*
Y1474813D01*
X941750D01*
X949875Y1478875D02*
Y1470750D01*
X953938D01*
X955292Y1472104D01*
Y1477521D01*
X953938Y1478875D01*
X949875D01*
X963418Y1477521D02*
X962064Y1478875D01*
X959355D01*
X958001Y1477521D01*
Y1472104D01*
X959355Y1470750D01*
X962064D01*
X963418Y1472104D01*
X941750Y1503375D02*
X944458D01*
X943104D01*
Y1495250D01*
X941750D01*
X944458D01*
X953938D02*
X948521D01*
X953938Y1500667D01*
Y1502021D01*
X952584Y1503375D01*
X949875D01*
X948521Y1502021D01*
X962063D02*
X960709Y1503375D01*
X958001D01*
X956646Y1502021D01*
Y1496604D01*
X958001Y1495250D01*
X960709D01*
X962063Y1496604D01*
X1317750Y1679181D02*
Y1671056D01*
X1321813D01*
X1323167Y1672410D01*
Y1677827D01*
X1321813Y1679181D01*
X1317750D01*
X1325875Y1669702D02*
X1331292D01*
X1334001Y1679181D02*
Y1671056D01*
X1338063D01*
X1339418Y1672410D01*
Y1673764D01*
X1338063Y1675119D01*
X1334001D01*
X1338063D01*
X1339418Y1676473D01*
Y1677827D01*
X1338063Y1679181D01*
X1334001D01*
X1346189D02*
X1343480D01*
X1342126Y1677827D01*
Y1672410D01*
X1343480Y1671056D01*
X1346189D01*
X1347543Y1672410D01*
Y1677827D01*
X1346189Y1679181D01*
X1350251Y1671056D02*
Y1676473D01*
X1352960Y1679181D01*
X1355668Y1676473D01*
Y1671056D01*
Y1675119D01*
X1350251D01*
X1358377Y1671056D02*
Y1679181D01*
X1362440D01*
X1363794Y1677827D01*
Y1675119D01*
X1362440Y1673764D01*
X1358377D01*
X1361085D02*
X1363794Y1671056D01*
X1366502Y1679181D02*
Y1671056D01*
X1370565D01*
X1371919Y1672410D01*
Y1677827D01*
X1370565Y1679181D01*
X1366502D01*
X1374628Y1669702D02*
X1380045D01*
X1388170Y1677827D02*
X1386816Y1679181D01*
X1384107D01*
X1382753Y1677827D01*
Y1672410D01*
X1384107Y1671056D01*
X1386816D01*
X1388170Y1672410D01*
Y1675119D01*
X1385461D01*
X1390878Y1671056D02*
Y1679181D01*
X1396295Y1671056D01*
Y1679181D01*
X1399004D02*
Y1671056D01*
X1403067D01*
X1404421Y1672410D01*
Y1677827D01*
X1403067Y1679181D01*
X1399004D01*
X915229Y895957D02*
X913875Y894603D01*
Y891894D01*
X915229Y890540D01*
X920646D01*
X922000Y891894D01*
Y894603D01*
X920646Y895957D01*
X917937D01*
Y893248D01*
X922000Y898665D02*
X913875D01*
X922000Y904082D01*
X913875D01*
Y906791D02*
X922000D01*
Y910853D01*
X920646Y912208D01*
X915229D01*
X913875Y910853D01*
Y906791D01*
X908797Y890540D02*
X900672D01*
Y894603D01*
X902026Y895957D01*
X904735D01*
X906089Y894603D01*
Y890540D01*
Y893248D02*
X908797Y895957D01*
X900672Y898665D02*
X908797Y904082D01*
X900672D02*
X908797Y898665D01*
X888160Y890540D02*
Y895957D01*
Y893249D01*
X896286D01*
X888160Y898665D02*
X896286Y904082D01*
X888160D02*
X896286Y898665D01*
X875648Y890540D02*
Y895957D01*
Y893248D01*
X883774D01*
X877003Y904082D02*
X875648Y902728D01*
Y900020D01*
X877003Y898665D01*
X882420D01*
X883774Y900020D01*
Y902728D01*
X882420Y904082D01*
X875648Y906791D02*
X883774D01*
X881065D01*
X875648Y912208D01*
X879711Y908145D01*
X883774Y912208D01*
X863137Y890540D02*
Y895957D01*
Y893248D01*
X871262D01*
X863137Y898665D02*
X871262D01*
Y902728D01*
X869908Y904082D01*
X864491D01*
X863137Y902728D01*
Y898665D01*
Y910853D02*
Y908145D01*
X864491Y906791D01*
X869908D01*
X871262Y908145D01*
Y910853D01*
X869908Y912208D01*
X864491D01*
X863137Y910853D01*
X850625Y890540D02*
X856041D01*
X858750Y893248D01*
X856041Y895957D01*
X850625D01*
X851979Y904082D02*
X850625Y902728D01*
Y900020D01*
X851979Y898665D01*
X857396D01*
X858750Y900020D01*
Y902728D01*
X857396Y904082D01*
X851979Y912208D02*
X850625Y910853D01*
Y908145D01*
X851979Y906791D01*
X857396D01*
X858750Y908145D01*
Y910853D01*
X857396Y912208D01*
X742750Y1202250D02*
Y1207667D01*
X745459Y1210375D01*
X748167Y1207667D01*
Y1202250D01*
Y1206313D01*
X742750D01*
X750875Y1202250D02*
Y1210375D01*
X756292Y1202250D01*
Y1210375D01*
X759001D02*
X764418D01*
X761709D01*
Y1202250D01*
X767126Y1200896D02*
X772543D01*
X775251Y1210375D02*
Y1204958D01*
X777960Y1202250D01*
X780668Y1204958D01*
Y1210375D01*
X788794Y1209021D02*
X787440Y1210375D01*
X784731D01*
X783377Y1209021D01*
Y1203604D01*
X784731Y1202250D01*
X787440D01*
X788794Y1203604D01*
X796919Y1209021D02*
X795565Y1210375D01*
X792857D01*
X791502Y1209021D01*
Y1203604D01*
X792857Y1202250D01*
X795565D01*
X796919Y1203604D01*
X742750Y1189704D02*
Y1195121D01*
X745459Y1197829D01*
X748167Y1195121D01*
Y1189704D01*
Y1193767D01*
X742750D01*
X750875Y1189704D02*
Y1197829D01*
X756292Y1189704D01*
Y1197829D01*
X759001D02*
X764418D01*
X761709D01*
Y1189704D01*
X767126Y1188350D02*
X772543D01*
X775251Y1197829D02*
Y1192412D01*
X777960Y1189704D01*
X780668Y1192412D01*
Y1197829D01*
X788794Y1196475D02*
X787440Y1197829D01*
X784731D01*
X783377Y1196475D01*
Y1191058D01*
X784731Y1189704D01*
X787440D01*
X788794Y1191058D01*
X796919Y1196475D02*
X795565Y1197829D01*
X792857D01*
X791502Y1196475D01*
Y1191058D01*
X792857Y1189704D01*
X795565D01*
X796919Y1191058D01*
X742750Y1185283D02*
X745459D01*
X744104D01*
Y1177158D01*
X742750D01*
X745459D01*
X754938D02*
X749521D01*
X754938Y1182575D01*
Y1183929D01*
X753584Y1185283D01*
X750875D01*
X749521Y1183929D01*
X763063D02*
X761709Y1185283D01*
X759001D01*
X757646Y1183929D01*
Y1178512D01*
X759001Y1177158D01*
X761709D01*
X763063Y1178512D01*
X765772Y1175804D02*
X771189D01*
X779314Y1183929D02*
X777960Y1185283D01*
X775251D01*
X773897Y1183929D01*
Y1182575D01*
X775251Y1181220D01*
X777960D01*
X779314Y1179866D01*
Y1178512D01*
X777960Y1177158D01*
X775251D01*
X773897Y1178512D01*
X782023Y1185283D02*
Y1177158D01*
X786085D01*
X787440Y1178512D01*
Y1183929D01*
X786085Y1185283D01*
X782023D01*
X790148Y1177158D02*
Y1182575D01*
X792857Y1185283D01*
X795565Y1182575D01*
Y1177158D01*
Y1181220D01*
X790148D01*
X742750Y1172737D02*
X745459D01*
X744104D01*
Y1164612D01*
X742750D01*
X745459D01*
X754938D02*
X749521D01*
X754938Y1170029D01*
Y1171383D01*
X753584Y1172737D01*
X750875D01*
X749521Y1171383D01*
X763063D02*
X761709Y1172737D01*
X759001D01*
X757646Y1171383D01*
Y1165966D01*
X759001Y1164612D01*
X761709D01*
X763063Y1165966D01*
X765772Y1163258D02*
X771189D01*
X779314Y1171383D02*
X777960Y1172737D01*
X775251D01*
X773897Y1171383D01*
Y1170029D01*
X775251Y1168674D01*
X777960D01*
X779314Y1167320D01*
Y1165966D01*
X777960Y1164612D01*
X775251D01*
X773897Y1165966D01*
X787440Y1171383D02*
X786085Y1172737D01*
X783377D01*
X782023Y1171383D01*
Y1165966D01*
X783377Y1164612D01*
X786085D01*
X787440Y1165966D01*
X790148Y1172737D02*
Y1164612D01*
X795565D01*
X748167Y1157567D02*
X746813Y1158922D01*
X744104D01*
X742750Y1157567D01*
Y1152150D01*
X744104Y1150796D01*
X746813D01*
X748167Y1152150D01*
Y1154859D01*
X745459D01*
X750875Y1150796D02*
Y1158922D01*
X754938D01*
X756292Y1157567D01*
Y1154859D01*
X754938Y1153504D01*
X750875D01*
X759001Y1158922D02*
X761709D01*
X760355D01*
Y1150796D01*
X759001D01*
X761709D01*
X769835Y1158922D02*
X767126D01*
X765772Y1157567D01*
Y1152150D01*
X767126Y1150796D01*
X769835D01*
X771189Y1152150D01*
Y1157567D01*
X769835Y1158922D01*
X748167Y1145021D02*
X746813Y1146375D01*
X744104D01*
X742750Y1145021D01*
Y1139604D01*
X744104Y1138250D01*
X746813D01*
X748167Y1139604D01*
Y1142313D01*
X745459D01*
X750875Y1138250D02*
Y1146375D01*
X756292Y1138250D01*
Y1146375D01*
X759001D02*
Y1138250D01*
X763063D01*
X764418Y1139604D01*
Y1145021D01*
X763063Y1146375D01*
X759001D01*
X715417Y1400521D02*
X714063Y1401875D01*
X711354D01*
X710000Y1400521D01*
Y1395104D01*
X711354Y1393750D01*
X714063D01*
X715417Y1395104D01*
Y1397813D01*
X712709D01*
X718125Y1393750D02*
Y1401875D01*
X723542Y1393750D01*
Y1401875D01*
X726251D02*
Y1393750D01*
X730313D01*
X731668Y1395104D01*
Y1400521D01*
X730313Y1401875D01*
X726251D01*
X715417Y1425632D02*
X714063Y1426987D01*
X711354D01*
X710000Y1425632D01*
Y1420216D01*
X711354Y1418861D01*
X714063D01*
X715417Y1420216D01*
Y1422924D01*
X712709D01*
X718125Y1418861D02*
Y1426987D01*
X722188D01*
X723542Y1425632D01*
Y1422924D01*
X722188Y1421570D01*
X718125D01*
X726251Y1426987D02*
X728959D01*
X727605D01*
Y1418861D01*
X726251D01*
X728959D01*
X737085Y1426987D02*
X734376D01*
X733022Y1425632D01*
Y1420216D01*
X734376Y1418861D01*
X737085D01*
X738439Y1420216D01*
Y1425632D01*
X737085Y1426987D01*
X710000Y1453791D02*
X712709D01*
X711354D01*
Y1445666D01*
X710000D01*
X712709D01*
X722188D02*
X716771D01*
X722188Y1451082D01*
Y1452437D01*
X720834Y1453791D01*
X718125D01*
X716771Y1452437D01*
X730313D02*
X728959Y1453791D01*
X726251D01*
X724896Y1452437D01*
Y1447020D01*
X726251Y1445666D01*
X728959D01*
X730313Y1447020D01*
X733022Y1444311D02*
X738439D01*
X746564Y1452437D02*
X745210Y1453791D01*
X742502D01*
X741147Y1452437D01*
Y1451082D01*
X742502Y1449728D01*
X745210D01*
X746564Y1448374D01*
Y1447020D01*
X745210Y1445666D01*
X742502D01*
X741147Y1447020D01*
X754690Y1452437D02*
X753335Y1453791D01*
X750627D01*
X749273Y1452437D01*
Y1447020D01*
X750627Y1445666D01*
X753335D01*
X754690Y1447020D01*
X757398Y1453791D02*
Y1445666D01*
X762815D01*
X710000Y1478902D02*
X712709D01*
X711354D01*
Y1470777D01*
X710000D01*
X712709D01*
X722188D02*
X716771D01*
X722188Y1476194D01*
Y1477548D01*
X720834Y1478902D01*
X718125D01*
X716771Y1477548D01*
X730313D02*
X728959Y1478902D01*
X726251D01*
X724896Y1477548D01*
Y1472131D01*
X726251Y1470777D01*
X728959D01*
X730313Y1472131D01*
X733022Y1469423D02*
X738439D01*
X746564Y1477548D02*
X745210Y1478902D01*
X742502D01*
X741147Y1477548D01*
Y1476194D01*
X742502Y1474840D01*
X745210D01*
X746564Y1473486D01*
Y1472131D01*
X745210Y1470777D01*
X742502D01*
X741147Y1472131D01*
X749273Y1478902D02*
Y1470777D01*
X753335D01*
X754690Y1472131D01*
Y1477548D01*
X753335Y1478902D01*
X749273D01*
X757398Y1470777D02*
Y1476194D01*
X760107Y1478902D01*
X762815Y1476194D01*
Y1470777D01*
Y1474840D01*
X757398D01*
X710000Y1495889D02*
Y1501305D01*
X712709Y1504014D01*
X715417Y1501305D01*
Y1495889D01*
Y1499951D01*
X710000D01*
X718125Y1495889D02*
Y1504014D01*
X723542Y1495889D01*
Y1504014D01*
X726251D02*
X731668D01*
X728959D01*
Y1495889D01*
X734376Y1494534D02*
X739793D01*
X742502Y1504014D02*
Y1498597D01*
X745210Y1495889D01*
X747918Y1498597D01*
Y1504014D01*
X756044Y1502660D02*
X754690Y1504014D01*
X751981D01*
X750627Y1502660D01*
Y1497243D01*
X751981Y1495889D01*
X754690D01*
X756044Y1497243D01*
X764169Y1502660D02*
X762815Y1504014D01*
X760107D01*
X758752Y1502660D01*
Y1497243D01*
X760107Y1495889D01*
X762815D01*
X764169Y1497243D01*
X710000Y1521000D02*
Y1526417D01*
X712709Y1529125D01*
X715417Y1526417D01*
Y1521000D01*
Y1525063D01*
X710000D01*
X718125Y1521000D02*
Y1529125D01*
X723542Y1521000D01*
Y1529125D01*
X726251D02*
X731668D01*
X728959D01*
Y1521000D01*
X734376Y1519646D02*
X739793D01*
X742502Y1529125D02*
Y1523708D01*
X745210Y1521000D01*
X747918Y1523708D01*
Y1529125D01*
X756044Y1527771D02*
X754690Y1529125D01*
X751981D01*
X750627Y1527771D01*
Y1522354D01*
X751981Y1521000D01*
X754690D01*
X756044Y1522354D01*
X764169Y1527771D02*
X762815Y1529125D01*
X760107D01*
X758752Y1527771D01*
Y1522354D01*
X760107Y1521000D01*
X762815D01*
X764169Y1522354D01*
X1231167Y842375D02*
X1228458D01*
X1229813D01*
Y835604D01*
X1228458Y834250D01*
X1227104D01*
X1225750Y835604D01*
X1233875Y832896D02*
X1239292D01*
X1247418Y841021D02*
X1246063Y842375D01*
X1243355D01*
X1242001Y841021D01*
Y839667D01*
X1243355Y838313D01*
X1246063D01*
X1247418Y836958D01*
Y835604D01*
X1246063Y834250D01*
X1243355D01*
X1242001Y835604D01*
X1250126Y842375D02*
Y835604D01*
X1251480Y834250D01*
X1254189D01*
X1255543Y835604D01*
Y842375D01*
X1258251Y834250D02*
Y842375D01*
X1262314D01*
X1263668Y841021D01*
Y838313D01*
X1262314Y836958D01*
X1258251D01*
X1266377Y834250D02*
Y842375D01*
X1270440D01*
X1271794Y841021D01*
Y838313D01*
X1270440Y836958D01*
X1266377D01*
X1274502Y842375D02*
Y834250D01*
X1279919D01*
X1282628Y842375D02*
Y841021D01*
X1285336Y838313D01*
X1288045Y841021D01*
Y842375D01*
X1285336Y838313D02*
Y834250D01*
X803167Y877875D02*
X800458D01*
X801813D01*
Y871104D01*
X800458Y869750D01*
X799104D01*
X797750Y871104D01*
X805875Y877875D02*
X811292D01*
X808584D01*
Y869750D01*
X814001D02*
Y875167D01*
X816709Y877875D01*
X819418Y875167D01*
Y869750D01*
Y873813D01*
X814001D01*
X827543Y876521D02*
X826189Y877875D01*
X823480D01*
X822126Y876521D01*
Y871104D01*
X823480Y869750D01*
X826189D01*
X827543Y871104D01*
Y873813D01*
X824835D01*
X1021167Y897375D02*
X1018458D01*
X1019813D01*
Y890604D01*
X1018458Y889250D01*
X1017104D01*
X1015750Y890604D01*
X1023875Y897375D02*
X1029292D01*
X1026584D01*
Y889250D01*
X1032001D02*
Y894667D01*
X1034709Y897375D01*
X1037418Y894667D01*
Y889250D01*
Y893313D01*
X1032001D01*
X1045543Y896021D02*
X1044189Y897375D01*
X1041480D01*
X1040126Y896021D01*
Y890604D01*
X1041480Y889250D01*
X1044189D01*
X1045543Y890604D01*
Y893313D01*
X1042835D01*
X679500Y1088000D02*
Y1093417D01*
X682208Y1096125D01*
X684917Y1093417D01*
Y1088000D01*
Y1092063D01*
X679500D01*
X687625Y1088000D02*
Y1096125D01*
X693042Y1088000D01*
Y1096125D01*
X695751D02*
X701168D01*
X698459D01*
Y1088000D01*
X677000Y1370500D02*
Y1375917D01*
X679708Y1378625D01*
X682417Y1375917D01*
Y1370500D01*
Y1374563D01*
X677000D01*
X685125Y1370500D02*
Y1378625D01*
X690542Y1370500D01*
Y1378625D01*
X693251D02*
X698668D01*
X695959D01*
Y1370500D01*
X844250Y1394875D02*
Y1386750D01*
X848313D01*
X849667Y1388104D01*
Y1393521D01*
X848313Y1394875D01*
X844250D01*
X852375Y1385396D02*
X857792D01*
X860501Y1394875D02*
Y1386750D01*
X864563D01*
X865918Y1388104D01*
Y1389458D01*
X864563Y1390813D01*
X860501D01*
X864563D01*
X865918Y1392167D01*
Y1393521D01*
X864563Y1394875D01*
X860501D01*
X872689D02*
X869980D01*
X868626Y1393521D01*
Y1388104D01*
X869980Y1386750D01*
X872689D01*
X874043Y1388104D01*
Y1393521D01*
X872689Y1394875D01*
X876751Y1386750D02*
Y1392167D01*
X879460Y1394875D01*
X882168Y1392167D01*
Y1386750D01*
Y1390813D01*
X876751D01*
X884877Y1386750D02*
Y1394875D01*
X888940D01*
X890294Y1393521D01*
Y1390813D01*
X888940Y1389458D01*
X884877D01*
X887585D02*
X890294Y1386750D01*
X893002Y1394875D02*
Y1386750D01*
X897065D01*
X898419Y1388104D01*
Y1393521D01*
X897065Y1394875D01*
X893002D01*
X1079646Y1508494D02*
X1074229D01*
X1071520Y1511202D01*
X1074229Y1513911D01*
X1079646D01*
X1075583D01*
Y1508494D01*
X1079646Y1516619D02*
X1071520D01*
X1079646Y1522036D01*
X1071520D01*
Y1524745D02*
Y1530161D01*
Y1527453D01*
X1079646D01*
X1081000Y1532870D02*
Y1538287D01*
X1071520Y1540995D02*
X1076937D01*
X1079646Y1543704D01*
X1076937Y1546412D01*
X1071520D01*
X1072875Y1554538D02*
X1071520Y1553183D01*
Y1550475D01*
X1072875Y1549121D01*
X1078291D01*
X1079646Y1550475D01*
Y1553183D01*
X1078291Y1554538D01*
X1072875Y1562663D02*
X1071520Y1561309D01*
Y1558600D01*
X1072875Y1557246D01*
X1078291D01*
X1079646Y1558600D01*
Y1561309D01*
X1078291Y1562663D01*
X1097949Y1496306D02*
Y1493597D01*
X1099303Y1492243D01*
X1104720D01*
X1106074Y1493597D01*
Y1496306D01*
X1104720Y1497660D01*
X1099303D01*
X1097949Y1496306D01*
Y1500368D02*
X1106074D01*
Y1504431D01*
X1104720Y1505785D01*
X1103366D01*
X1102012Y1504431D01*
Y1500368D01*
Y1504431D01*
X1100657Y1505785D01*
X1099303D01*
X1097949Y1504431D01*
Y1500368D01*
Y1508494D02*
X1106074D01*
Y1512556D01*
X1104720Y1513911D01*
X1099303D01*
X1097949Y1512556D01*
Y1508494D01*
Y1516619D02*
X1106074D01*
X1102012D01*
Y1522036D01*
X1097949D01*
X1106074D01*
X1107429Y1524745D02*
Y1530161D01*
X1097949Y1532870D02*
X1106074D01*
Y1536933D01*
X1104720Y1538287D01*
X1099303D01*
X1097949Y1536933D01*
Y1532870D01*
Y1540995D02*
X1103366D01*
X1106074Y1543704D01*
X1103366Y1546412D01*
X1097949D01*
X1099303Y1554538D02*
X1097949Y1553183D01*
Y1550475D01*
X1099303Y1549121D01*
X1104720D01*
X1106074Y1550475D01*
Y1553183D01*
X1104720Y1554538D01*
X1099303Y1562663D02*
X1097949Y1561309D01*
Y1558600D01*
X1099303Y1557246D01*
X1104720D01*
X1106074Y1558600D01*
Y1561309D01*
X1104720Y1562663D01*
X1124378Y1501723D02*
X1131149D01*
X1132503Y1503077D01*
Y1505785D01*
X1131149Y1507139D01*
X1124378D01*
X1132503Y1509848D02*
X1127086D01*
X1124378Y1512556D01*
X1127086Y1515265D01*
X1132503D01*
X1128440D01*
Y1509848D01*
X1132503Y1517973D02*
X1124378D01*
Y1522036D01*
X1125732Y1523390D01*
X1128440D01*
X1129794Y1522036D01*
Y1517973D01*
Y1520682D02*
X1132503Y1523390D01*
X1124378Y1526099D02*
Y1531516D01*
Y1528807D01*
X1132503D01*
Y1534224D02*
Y1536933D01*
Y1535578D01*
X1124378D01*
X1125732Y1534224D01*
X1133857Y1540995D02*
Y1546412D01*
X1124378Y1549121D02*
Y1554538D01*
Y1551829D01*
X1132503D01*
X1124378Y1557246D02*
X1132503Y1562663D01*
X1124378D02*
X1132503Y1557246D01*
X1150806Y1501723D02*
X1157577D01*
X1158932Y1503077D01*
Y1505785D01*
X1157577Y1507139D01*
X1150806D01*
X1158932Y1509848D02*
X1153515D01*
X1150806Y1512556D01*
X1153515Y1515265D01*
X1158932D01*
X1154869D01*
Y1509848D01*
X1158932Y1517973D02*
X1150806D01*
Y1522036D01*
X1152160Y1523390D01*
X1154869D01*
X1156223Y1522036D01*
Y1517973D01*
Y1520682D02*
X1158932Y1523390D01*
X1150806Y1526099D02*
Y1531516D01*
Y1528807D01*
X1158932D01*
Y1534224D02*
Y1536933D01*
Y1535578D01*
X1150806D01*
X1152160Y1534224D01*
X1160286Y1540995D02*
Y1546412D01*
X1158932Y1549121D02*
X1150806D01*
Y1553183D01*
X1152160Y1554538D01*
X1154869D01*
X1156223Y1553183D01*
Y1549121D01*
Y1551829D02*
X1158932Y1554538D01*
X1150806Y1557246D02*
X1158932Y1562663D01*
X1150806D02*
X1158932Y1557246D01*
X1177235Y1500368D02*
X1184006D01*
X1185360Y1501723D01*
Y1504431D01*
X1184006Y1505785D01*
X1177235D01*
X1185360Y1508494D02*
X1179943D01*
X1177235Y1511202D01*
X1179943Y1513911D01*
X1185360D01*
X1181297D01*
Y1508494D01*
X1185360Y1516619D02*
X1177235D01*
Y1520682D01*
X1178589Y1522036D01*
X1181297D01*
X1182652Y1520682D01*
Y1516619D01*
Y1519328D02*
X1185360Y1522036D01*
X1177235Y1524744D02*
Y1530161D01*
Y1527453D01*
X1185360D01*
X1178589Y1532870D02*
X1177235Y1534224D01*
Y1536933D01*
X1178589Y1538287D01*
X1184006D01*
X1185360Y1536933D01*
Y1534224D01*
X1184006Y1532870D01*
X1178589D01*
X1186714Y1540995D02*
Y1546412D01*
X1177235Y1549121D02*
Y1554538D01*
Y1551829D01*
X1185360D01*
X1177235Y1557246D02*
X1185360Y1562663D01*
X1177235D02*
X1185360Y1557246D01*
X1203663Y1500368D02*
X1210434D01*
X1211789Y1501723D01*
Y1504431D01*
X1210434Y1505785D01*
X1203663D01*
X1211789Y1508494D02*
X1206372D01*
X1203663Y1511202D01*
X1206372Y1513911D01*
X1211789D01*
X1207726D01*
Y1508494D01*
X1211789Y1516619D02*
X1203663D01*
Y1520682D01*
X1205017Y1522036D01*
X1207726D01*
X1209080Y1520682D01*
Y1516619D01*
Y1519328D02*
X1211789Y1522036D01*
X1203663Y1524744D02*
Y1530161D01*
Y1527453D01*
X1211789D01*
X1205017Y1532870D02*
X1203663Y1534224D01*
Y1536933D01*
X1205017Y1538287D01*
X1210434D01*
X1211789Y1536933D01*
Y1534224D01*
X1210434Y1532870D01*
X1205017D01*
X1213143Y1540995D02*
Y1546412D01*
X1211789Y1549121D02*
X1203663D01*
Y1553183D01*
X1205017Y1554538D01*
X1207726D01*
X1209080Y1553183D01*
Y1549121D01*
Y1551829D02*
X1211789Y1554538D01*
X1203663Y1557246D02*
X1211789Y1562663D01*
X1203663D02*
X1211789Y1557246D01*
X1257939Y1489534D02*
X1256584Y1488180D01*
Y1485472D01*
X1257939Y1484117D01*
X1259293D01*
X1260647Y1485472D01*
Y1488180D01*
X1262001Y1489534D01*
X1263355D01*
X1264710Y1488180D01*
Y1485472D01*
X1263355Y1484117D01*
X1256584Y1492243D02*
X1257939D01*
X1260647Y1494951D01*
X1257939Y1497660D01*
X1256584D01*
X1260647Y1494951D02*
X1264710D01*
X1257939Y1505785D02*
X1256584Y1504431D01*
Y1501723D01*
X1257939Y1500368D01*
X1259293D01*
X1260647Y1501723D01*
Y1504431D01*
X1262001Y1505785D01*
X1263355D01*
X1264710Y1504431D01*
Y1501723D01*
X1263355Y1500368D01*
X1256584Y1508494D02*
Y1513911D01*
Y1511202D01*
X1264710D01*
X1256584Y1522036D02*
Y1516619D01*
X1264710D01*
Y1522036D01*
X1260647Y1516619D02*
Y1519328D01*
X1264710Y1524744D02*
X1256584D01*
X1259293Y1527453D01*
X1256584Y1530161D01*
X1264710D01*
X1266064Y1532870D02*
Y1538287D01*
X1256584Y1540995D02*
X1264710D01*
Y1546412D01*
X1256584Y1554538D02*
Y1549121D01*
X1264710D01*
Y1554538D01*
X1260647Y1549121D02*
Y1551829D01*
X1256584Y1557246D02*
X1264710D01*
Y1561309D01*
X1263355Y1562663D01*
X1257939D01*
X1256584Y1561309D01*
Y1557246D01*
X1230092Y1497660D02*
Y1492243D01*
X1234155D01*
Y1494951D01*
Y1492243D01*
X1238217D01*
Y1500368D02*
X1232800D01*
X1230092Y1503077D01*
X1232800Y1505785D01*
X1238217D01*
X1234155D01*
Y1500368D01*
X1230092Y1508494D02*
X1236863D01*
X1238217Y1509848D01*
Y1512556D01*
X1236863Y1513911D01*
X1230092D01*
Y1516619D02*
X1238217D01*
Y1522036D01*
X1230092Y1524745D02*
Y1530161D01*
Y1527453D01*
X1238217D01*
X1239571Y1532870D02*
Y1538287D01*
X1230092Y1540995D02*
X1238217D01*
Y1546412D01*
X1230092Y1554538D02*
Y1549121D01*
X1238217D01*
Y1554538D01*
X1234155Y1549121D02*
Y1551829D01*
X1230092Y1557246D02*
X1238217D01*
Y1561309D01*
X1236863Y1562663D01*
X1231446D01*
X1230092Y1561309D01*
Y1557246D01*
X1261591Y1296250D02*
Y1301667D01*
X1264300Y1304375D01*
X1267008Y1301667D01*
Y1296250D01*
Y1300313D01*
X1261591D01*
X1269717Y1304375D02*
Y1296250D01*
X1273779D01*
X1275134Y1297604D01*
Y1303021D01*
X1273779Y1304375D01*
X1269717D01*
X1277842D02*
Y1296250D01*
X1281905D01*
X1283259Y1297604D01*
Y1303021D01*
X1281905Y1304375D01*
X1277842D01*
X1285967Y1294896D02*
X1291384D01*
X1294093Y1304375D02*
X1296801D01*
X1295447D01*
Y1296250D01*
X1294093D01*
X1296801D01*
X1306281D02*
X1300864D01*
X1306281Y1301667D01*
Y1303021D01*
X1304926Y1304375D01*
X1302218D01*
X1300864Y1303021D01*
X1314406D02*
X1313052Y1304375D01*
X1310343D01*
X1308989Y1303021D01*
Y1297604D01*
X1310343Y1296250D01*
X1313052D01*
X1314406Y1297604D01*
X1317115Y1296250D02*
X1319823D01*
X1318469D01*
Y1304375D01*
X1317115Y1303021D01*
X1329000Y1430500D02*
Y1435917D01*
X1331709Y1438625D01*
X1334417Y1435917D01*
Y1430500D01*
Y1434563D01*
X1329000D01*
X1337125Y1438625D02*
Y1430500D01*
X1341188D01*
X1342542Y1431854D01*
Y1437271D01*
X1341188Y1438625D01*
X1337125D01*
X1345251D02*
Y1430500D01*
X1349314D01*
X1350668Y1431854D01*
Y1437271D01*
X1349314Y1438625D01*
X1345251D01*
X1353376Y1429146D02*
X1358793D01*
X1366918Y1437271D02*
X1365564Y1438625D01*
X1362856D01*
X1361501Y1437271D01*
Y1431854D01*
X1362856Y1430500D01*
X1365564D01*
X1366918Y1431854D01*
Y1434563D01*
X1364210D01*
X1369627Y1430500D02*
Y1438625D01*
X1373690D01*
X1375044Y1437271D01*
Y1434563D01*
X1373690Y1433208D01*
X1369627D01*
X1377752Y1438625D02*
X1380461D01*
X1379106D01*
Y1430500D01*
X1377752D01*
X1380461D01*
X1388586Y1438625D02*
X1385878D01*
X1384523Y1437271D01*
Y1431854D01*
X1385878Y1430500D01*
X1388586D01*
X1389940Y1431854D01*
Y1437271D01*
X1388586Y1438625D01*
X825750Y1198625D02*
Y1191854D01*
X827104Y1190500D01*
X829813D01*
X831167Y1191854D01*
Y1198625D01*
X833875Y1197271D02*
X835230Y1198625D01*
X837938D01*
X839292Y1197271D01*
Y1195917D01*
X837938Y1194563D01*
X839292Y1193208D01*
Y1191854D01*
X837938Y1190500D01*
X835230D01*
X833875Y1191854D01*
Y1193208D01*
X835230Y1194563D01*
X833875Y1195917D01*
Y1197271D01*
X835230Y1194563D02*
X837938D01*
X679750Y1289000D02*
Y1297125D01*
X683813D01*
X685167Y1295771D01*
Y1293063D01*
X683813Y1291708D01*
X679750D01*
X687875Y1297125D02*
X693292D01*
Y1295771D01*
X687875Y1290354D01*
Y1289000D01*
X679500Y1543250D02*
Y1551375D01*
X683563D01*
X684917Y1550021D01*
Y1547313D01*
X683563Y1545959D01*
X679500D01*
X693042Y1551375D02*
X687625D01*
Y1547313D01*
X690334Y1548667D01*
X691688D01*
X693042Y1547313D01*
Y1544604D01*
X691688Y1543250D01*
X688980D01*
X687625Y1544604D01*
X1417250Y1625250D02*
Y1633375D01*
X1421313D01*
X1422667Y1632021D01*
Y1629313D01*
X1421313Y1627958D01*
X1417250D01*
X1419958D02*
X1422667Y1625250D01*
X1425375Y1623896D02*
X1430792D01*
X1438918Y1633375D02*
X1433501D01*
Y1625250D01*
X1438918D01*
X1433501Y1629313D02*
X1436209D01*
X1447043Y1632021D02*
X1445689Y1633375D01*
X1442980D01*
X1441626Y1632021D01*
Y1630667D01*
X1442980Y1629313D01*
X1445689D01*
X1447043Y1627958D01*
Y1626604D01*
X1445689Y1625250D01*
X1442980D01*
X1441626Y1626604D01*
X1449751Y1633375D02*
Y1625250D01*
X1453814D01*
X1455168Y1626604D01*
Y1632021D01*
X1453814Y1633375D01*
X1449751D01*
X1228625Y936917D02*
Y931500D01*
X1232687D01*
Y934208D01*
Y931500D01*
X1236750D01*
X1228625Y939625D02*
X1236750D01*
Y943688D01*
X1235396Y945042D01*
X1234042D01*
X1232687Y943688D01*
Y939625D01*
Y943688D01*
X1231333Y945042D01*
X1229979D01*
X1228625Y943688D01*
Y939625D01*
X1236750Y953168D02*
Y947751D01*
X1231333Y953168D01*
X1229979D01*
X1228625Y951813D01*
Y949105D01*
X1229979Y947751D01*
X1163005Y988996D02*
X1163962Y988038D01*
X1167792D01*
Y991868D01*
X1166835Y992826D01*
X1167792Y988038D02*
X1170665Y985165D01*
X1178326Y992826D02*
X1174495Y988996D01*
Y996656D01*
X1173538Y997614D01*
X1171623Y997614D01*
X1169708Y995699D01*
X1169708Y993783D01*
X989330Y1011679D02*
Y1010325D01*
X992038Y1007617D01*
X994747Y1010325D01*
Y1011679D01*
X992038Y1007617D02*
Y1003554D01*
X997455D02*
X1000164D01*
X998810D01*
Y1011679D01*
X997455Y1010325D01*
X1311500Y1245875D02*
Y1239104D01*
X1312854Y1237750D01*
X1315563D01*
X1316917Y1239104D01*
Y1245875D01*
X1319625Y1237750D02*
X1322334D01*
X1320980D01*
Y1245875D01*
X1319625Y1244521D01*
X1326396D02*
X1327751Y1245875D01*
X1330459D01*
X1331813Y1244521D01*
Y1239104D01*
X1330459Y1237750D01*
X1327751D01*
X1326396Y1239104D01*
Y1244521D01*
X986184Y1054625D02*
Y1047854D01*
X987538Y1046500D01*
X990247D01*
X991601Y1047854D01*
Y1054625D01*
X994309Y1047854D02*
X995664Y1046500D01*
X998372D01*
X999726Y1047854D01*
Y1053271D01*
X998372Y1054625D01*
X995664D01*
X994309Y1053271D01*
Y1051917D01*
X995664Y1050563D01*
X999726D01*
X923250Y1199125D02*
Y1192354D01*
X924604Y1191000D01*
X927313D01*
X928667Y1192354D01*
Y1199125D01*
X931375D02*
X936792D01*
Y1197771D01*
X931375Y1192354D01*
Y1191000D01*
X1024750Y1198875D02*
Y1192104D01*
X1026104Y1190750D01*
X1028813D01*
X1030167Y1192104D01*
Y1198875D01*
X1038292D02*
X1035584Y1197521D01*
X1032875Y1194813D01*
Y1192104D01*
X1034230Y1190750D01*
X1036938D01*
X1038292Y1192104D01*
Y1193458D01*
X1036938Y1194813D01*
X1032875D01*
X787500Y1084375D02*
Y1077604D01*
X788854Y1076250D01*
X791563D01*
X792917Y1077604D01*
Y1084375D01*
X801042D02*
X795625D01*
Y1080313D01*
X798334Y1081667D01*
X799688D01*
X801042Y1080313D01*
Y1077604D01*
X799688Y1076250D01*
X796980D01*
X795625Y1077604D01*
X1130000Y936875D02*
Y930104D01*
X1131354Y928750D01*
X1134063D01*
X1135417Y930104D01*
Y936875D01*
X1142188Y928750D02*
Y936875D01*
X1138125Y932813D01*
X1143542D01*
X1352750Y860125D02*
Y853354D01*
X1354104Y852000D01*
X1356813D01*
X1358167Y853354D01*
Y860125D01*
X1366292Y852000D02*
X1360875D01*
X1366292Y857417D01*
Y858771D01*
X1364938Y860125D01*
X1362230D01*
X1360875Y858771D01*
X723750Y898625D02*
Y891854D01*
X725104Y890500D01*
X727813D01*
X729167Y891854D01*
Y898625D01*
X731875Y890500D02*
X734584D01*
X733230D01*
Y898625D01*
X731875Y897271D01*
X1273000Y1161750D02*
X1264875D01*
Y1165813D01*
X1266229Y1167167D01*
X1268937D01*
X1270292Y1165813D01*
Y1161750D01*
Y1164458D02*
X1273000Y1167167D01*
X1266229Y1169875D02*
X1264875Y1171230D01*
Y1173938D01*
X1266229Y1175292D01*
X1267583D01*
X1268937Y1173938D01*
Y1172584D01*
Y1173938D01*
X1270292Y1175292D01*
X1271646D01*
X1273000Y1173938D01*
Y1171230D01*
X1271646Y1169875D01*
X1264875Y1183418D02*
X1266229Y1180709D01*
X1268937Y1178001D01*
X1271646D01*
X1273000Y1179355D01*
Y1182063D01*
X1271646Y1183418D01*
X1270292D01*
X1268937Y1182063D01*
Y1178001D01*
X1198250Y1161750D02*
X1190125D01*
Y1165813D01*
X1191479Y1167167D01*
X1194187D01*
X1195542Y1165813D01*
Y1161750D01*
Y1164458D02*
X1198250Y1167167D01*
X1191479Y1169875D02*
X1190125Y1171230D01*
Y1173938D01*
X1191479Y1175292D01*
X1192833D01*
X1194187Y1173938D01*
Y1172584D01*
Y1173938D01*
X1195542Y1175292D01*
X1196896D01*
X1198250Y1173938D01*
Y1171230D01*
X1196896Y1169875D01*
X1190125Y1183418D02*
Y1178001D01*
X1194187D01*
X1192833Y1180709D01*
Y1182063D01*
X1194187Y1183418D01*
X1196896D01*
X1198250Y1182063D01*
Y1179355D01*
X1196896Y1178001D01*
X1223167Y1161750D02*
X1215041D01*
Y1165813D01*
X1216396Y1167167D01*
X1219104D01*
X1220458Y1165813D01*
Y1161750D01*
Y1164458D02*
X1223167Y1167167D01*
X1216396Y1169875D02*
X1215041Y1171230D01*
Y1173938D01*
X1216396Y1175292D01*
X1217750D01*
X1219104Y1173938D01*
Y1172584D01*
Y1173938D01*
X1220458Y1175292D01*
X1221813D01*
X1223167Y1173938D01*
Y1171230D01*
X1221813Y1169875D01*
X1223167Y1182063D02*
X1215041D01*
X1219104Y1178001D01*
Y1183418D01*
X1248083Y1161750D02*
X1239958D01*
Y1165813D01*
X1241312Y1167167D01*
X1244021D01*
X1245375Y1165813D01*
Y1161750D01*
Y1164458D02*
X1248083Y1167167D01*
X1241312Y1169875D02*
X1239958Y1171230D01*
Y1173938D01*
X1241312Y1175292D01*
X1242666D01*
X1244021Y1173938D01*
Y1172584D01*
Y1173938D01*
X1245375Y1175292D01*
X1246729D01*
X1248083Y1173938D01*
Y1171230D01*
X1246729Y1169875D01*
X1241312Y1178001D02*
X1239958Y1179355D01*
Y1182063D01*
X1241312Y1183418D01*
X1242666D01*
X1244021Y1182063D01*
Y1180709D01*
Y1182063D01*
X1245375Y1183418D01*
X1246729D01*
X1248083Y1182063D01*
Y1179355D01*
X1246729Y1178001D01*
X862000Y1078250D02*
X853875D01*
Y1082313D01*
X855229Y1083667D01*
X857937D01*
X859292Y1082313D01*
Y1078250D01*
Y1080958D02*
X862000Y1083667D01*
X855229Y1086375D02*
X853875Y1087730D01*
Y1090438D01*
X855229Y1091792D01*
X856583D01*
X857937Y1090438D01*
Y1089084D01*
Y1090438D01*
X859292Y1091792D01*
X860646D01*
X862000Y1090438D01*
Y1087730D01*
X860646Y1086375D01*
X862000Y1099918D02*
Y1094501D01*
X856583Y1099918D01*
X855229D01*
X853875Y1098563D01*
Y1095855D01*
X855229Y1094501D01*
X862250Y1309750D02*
X854125D01*
Y1313813D01*
X855479Y1315167D01*
X858187D01*
X859541Y1313813D01*
Y1309750D01*
Y1312458D02*
X862250Y1315167D01*
X855479Y1317875D02*
X854125Y1319230D01*
Y1321938D01*
X855479Y1323292D01*
X856833D01*
X858187Y1321938D01*
Y1320584D01*
Y1321938D01*
X859541Y1323292D01*
X860896D01*
X862250Y1321938D01*
Y1319230D01*
X860896Y1317875D01*
X862250Y1326001D02*
Y1328709D01*
Y1327355D01*
X854125D01*
X855479Y1326001D01*
X960250Y1078250D02*
X952125D01*
Y1082313D01*
X953479Y1083667D01*
X956187D01*
X957542Y1082313D01*
Y1078250D01*
Y1080958D02*
X960250Y1083667D01*
X953479Y1086375D02*
X952125Y1087730D01*
Y1090438D01*
X953479Y1091792D01*
X954833D01*
X956187Y1090438D01*
Y1089084D01*
Y1090438D01*
X957542Y1091792D01*
X958896D01*
X960250Y1090438D01*
Y1087730D01*
X958896Y1086375D01*
X953479Y1094501D02*
X952125Y1095855D01*
Y1098563D01*
X953479Y1099918D01*
X958896D01*
X960250Y1098563D01*
Y1095855D01*
X958896Y1094501D01*
X953479D01*
X959750Y1309750D02*
X951625D01*
Y1313813D01*
X952979Y1315167D01*
X955687D01*
X957041Y1313813D01*
Y1309750D01*
Y1312458D02*
X959750Y1315167D01*
Y1323292D02*
Y1317875D01*
X954333Y1323292D01*
X952979D01*
X951625Y1321938D01*
Y1319230D01*
X952979Y1317875D01*
X958396Y1326001D02*
X959750Y1327355D01*
Y1330063D01*
X958396Y1331418D01*
X952979D01*
X951625Y1330063D01*
Y1327355D01*
X952979Y1326001D01*
X954333D01*
X955687Y1327355D01*
Y1331418D01*
X1118432Y1240250D02*
Y1248375D01*
X1122495D01*
X1123849Y1247021D01*
Y1244313D01*
X1122495Y1242958D01*
X1118432D01*
X1121140D02*
X1123849Y1240250D01*
X1131974D02*
X1126557D01*
X1131974Y1245667D01*
Y1247021D01*
X1130620Y1248375D01*
X1127912D01*
X1126557Y1247021D01*
X1134683D02*
X1136037Y1248375D01*
X1138745D01*
X1140100Y1247021D01*
Y1245667D01*
X1138745Y1244313D01*
X1140100Y1242958D01*
Y1241604D01*
X1138745Y1240250D01*
X1136037D01*
X1134683Y1241604D01*
Y1242958D01*
X1136037Y1244313D01*
X1134683Y1245667D01*
Y1247021D01*
X1136037Y1244313D02*
X1138745D01*
X1069750Y1307500D02*
X1061625D01*
Y1311563D01*
X1062979Y1312917D01*
X1065687D01*
X1067042Y1311563D01*
Y1307500D01*
Y1310208D02*
X1069750Y1312917D01*
Y1321042D02*
Y1315625D01*
X1064333Y1321042D01*
X1062979D01*
X1061625Y1319688D01*
Y1316980D01*
X1062979Y1315625D01*
X1061625Y1323751D02*
Y1329168D01*
X1062979D01*
X1068396Y1323751D01*
X1069750D01*
X887500Y1078250D02*
X879375D01*
Y1082313D01*
X880729Y1083667D01*
X883437D01*
X884792Y1082313D01*
Y1078250D01*
Y1080958D02*
X887500Y1083667D01*
Y1091792D02*
Y1086375D01*
X882083Y1091792D01*
X880729D01*
X879375Y1090438D01*
Y1087730D01*
X880729Y1086375D01*
X879375Y1099918D02*
X880729Y1097209D01*
X883437Y1094501D01*
X886146D01*
X887500Y1095855D01*
Y1098564D01*
X886146Y1099918D01*
X884792D01*
X883437Y1098564D01*
Y1094501D01*
X887500Y1309750D02*
X879375D01*
Y1313813D01*
X880729Y1315167D01*
X883437D01*
X884792Y1313813D01*
Y1309750D01*
Y1312458D02*
X887500Y1315167D01*
Y1323292D02*
Y1317875D01*
X882083Y1323292D01*
X880729D01*
X879375Y1321938D01*
Y1319230D01*
X880729Y1317875D01*
X879375Y1331418D02*
Y1326001D01*
X883437D01*
X882083Y1328709D01*
Y1330063D01*
X883437Y1331418D01*
X886146D01*
X887500Y1330063D01*
Y1327355D01*
X886146Y1326001D01*
X981436Y1078248D02*
X973310D01*
Y1082311D01*
X974665Y1083665D01*
X977373D01*
X978727Y1082311D01*
Y1078248D01*
Y1080957D02*
X981436Y1083665D01*
Y1091791D02*
Y1086374D01*
X976019Y1091791D01*
X974665D01*
X973310Y1090436D01*
Y1087728D01*
X974665Y1086374D01*
X981436Y1098562D02*
X973310D01*
X977373Y1094499D01*
Y1099916D01*
X984000Y1309750D02*
X975875D01*
Y1313813D01*
X977229Y1315167D01*
X979937D01*
X981292Y1313813D01*
Y1309750D01*
Y1312458D02*
X984000Y1315167D01*
Y1323292D02*
Y1317875D01*
X978583Y1323292D01*
X977229D01*
X975875Y1321938D01*
Y1319230D01*
X977229Y1317875D01*
Y1326001D02*
X975875Y1327355D01*
Y1330063D01*
X977229Y1331418D01*
X978583D01*
X979937Y1330063D01*
Y1328709D01*
Y1330063D01*
X981292Y1331418D01*
X982646D01*
X984000Y1330063D01*
Y1327355D01*
X982646Y1326001D01*
X1117432Y1179500D02*
Y1187625D01*
X1121495D01*
X1122849Y1186271D01*
Y1183563D01*
X1121495Y1182208D01*
X1117432D01*
X1120140D02*
X1122849Y1179500D01*
X1130974D02*
X1125557D01*
X1130974Y1184917D01*
Y1186271D01*
X1129620Y1187625D01*
X1126912D01*
X1125557Y1186271D01*
X1139100Y1179500D02*
X1133683D01*
X1139100Y1184917D01*
Y1186271D01*
X1137745Y1187625D01*
X1135037D01*
X1133683Y1186271D01*
X1092250Y1307500D02*
X1084125D01*
Y1311563D01*
X1085479Y1312917D01*
X1088187D01*
X1089542Y1311563D01*
Y1307500D01*
Y1310208D02*
X1092250Y1312917D01*
Y1321042D02*
Y1315625D01*
X1086833Y1321042D01*
X1085479D01*
X1084125Y1319688D01*
Y1316980D01*
X1085479Y1315625D01*
X1092250Y1323751D02*
Y1326459D01*
Y1325105D01*
X1084125D01*
X1085479Y1323751D01*
X1364279Y1234475D02*
Y1242600D01*
X1368342D01*
X1369696Y1241246D01*
Y1238538D01*
X1368342Y1237184D01*
X1364279D01*
X1366987D02*
X1369696Y1234475D01*
X1377821D02*
X1372404D01*
X1377821Y1239892D01*
Y1241246D01*
X1376467Y1242600D01*
X1373759D01*
X1372404Y1241246D01*
X1380530D02*
X1381884Y1242600D01*
X1384592D01*
X1385947Y1241246D01*
Y1235829D01*
X1384592Y1234475D01*
X1381884D01*
X1380530Y1235829D01*
Y1241246D01*
X1364029Y1193320D02*
Y1201445D01*
X1368092D01*
X1369446Y1200091D01*
Y1197383D01*
X1368092Y1196028D01*
X1364029D01*
X1366737D02*
X1369446Y1193320D01*
X1372154D02*
X1374863D01*
X1373509D01*
Y1201445D01*
X1372154Y1200091D01*
X1378925Y1194674D02*
X1380280Y1193320D01*
X1382988D01*
X1384342Y1194674D01*
Y1200091D01*
X1382988Y1201445D01*
X1380280D01*
X1378925Y1200091D01*
Y1198737D01*
X1380280Y1197383D01*
X1384342D01*
X1107429Y1576250D02*
X1099303D01*
Y1580313D01*
X1100657Y1581667D01*
X1103366D01*
X1104720Y1580313D01*
Y1576250D01*
Y1578958D02*
X1107429Y1581667D01*
Y1584375D02*
Y1587084D01*
Y1585730D01*
X1099303D01*
X1100657Y1584375D01*
Y1591147D02*
X1099303Y1592501D01*
Y1595209D01*
X1100657Y1596563D01*
X1102012D01*
X1103366Y1595209D01*
Y1593855D01*
Y1595209D01*
X1104720Y1596563D01*
X1106074D01*
X1107429Y1595209D01*
Y1592501D01*
X1106074Y1591147D01*
X1081000Y1576250D02*
X1072875D01*
Y1580313D01*
X1074229Y1581667D01*
X1076937D01*
X1078291Y1580313D01*
Y1576250D01*
Y1578958D02*
X1081000Y1581667D01*
Y1584375D02*
Y1587084D01*
Y1585730D01*
X1072875D01*
X1074229Y1584375D01*
X1081000Y1596563D02*
Y1591147D01*
X1075583Y1596563D01*
X1074229D01*
X1072875Y1595209D01*
Y1592501D01*
X1074229Y1591147D01*
X1193811Y921000D02*
Y929125D01*
X1197874D01*
X1199228Y927771D01*
Y925063D01*
X1197874Y923708D01*
X1193811D01*
X1196520D02*
X1199228Y921000D01*
X1201937D02*
X1204645D01*
X1203291D01*
Y929125D01*
X1201937Y927771D01*
X1208708Y921000D02*
X1211416D01*
X1210062D01*
Y929125D01*
X1208708Y927771D01*
X1088750Y899750D02*
X1080625D01*
Y903813D01*
X1081979Y905167D01*
X1084687D01*
X1086041Y903813D01*
Y899750D01*
Y902458D02*
X1088750Y905167D01*
Y907875D02*
Y910584D01*
Y909230D01*
X1080625D01*
X1081979Y907875D01*
Y914647D02*
X1080625Y916001D01*
Y918709D01*
X1081979Y920063D01*
X1087396D01*
X1088750Y918709D01*
Y916001D01*
X1087396Y914647D01*
X1081979D01*
X755500Y860750D02*
Y868875D01*
X759563D01*
X760917Y867521D01*
Y864813D01*
X759563Y863458D01*
X755500D01*
X758208D02*
X760917Y860750D01*
X763625Y867521D02*
X764980Y868875D01*
X767688D01*
X769042Y867521D01*
Y866167D01*
X767688Y864813D01*
X769042Y863458D01*
Y862104D01*
X767688Y860750D01*
X764980D01*
X763625Y862104D01*
Y863458D01*
X764980Y864813D01*
X763625Y866167D01*
Y867521D01*
X764980Y864813D02*
X767688D01*
X1160286Y1576250D02*
X1152160D01*
Y1580313D01*
X1153515Y1581667D01*
X1156223D01*
X1157577Y1580313D01*
Y1576250D01*
Y1578958D02*
X1160286Y1581667D01*
X1152160Y1584375D02*
Y1589792D01*
X1153515D01*
X1158932Y1584375D01*
X1160286D01*
X1133857Y1576250D02*
X1125732D01*
Y1580313D01*
X1127086Y1581667D01*
X1129794D01*
X1131149Y1580313D01*
Y1576250D01*
Y1578958D02*
X1133857Y1581667D01*
X1125732Y1589792D02*
X1127086Y1587084D01*
X1129794Y1584375D01*
X1132503D01*
X1133857Y1585730D01*
Y1588438D01*
X1132503Y1589792D01*
X1131149D01*
X1129794Y1588438D01*
Y1584375D01*
X1213143Y1576250D02*
X1205017D01*
Y1580313D01*
X1206372Y1581667D01*
X1209080D01*
X1210434Y1580313D01*
Y1576250D01*
Y1578958D02*
X1213143Y1581667D01*
X1205017Y1589792D02*
Y1584375D01*
X1209080D01*
X1207726Y1587084D01*
Y1588438D01*
X1209080Y1589792D01*
X1211789D01*
X1213143Y1588438D01*
Y1585730D01*
X1211789Y1584375D01*
X1186714Y1576250D02*
X1178589D01*
Y1580313D01*
X1179943Y1581667D01*
X1182652D01*
X1184006Y1580313D01*
Y1576250D01*
Y1578958D02*
X1186714Y1581667D01*
Y1588438D02*
X1178589D01*
X1182652Y1584375D01*
Y1589792D01*
X1239571Y1576250D02*
X1231446D01*
Y1580313D01*
X1232800Y1581667D01*
X1235509D01*
X1236863Y1580313D01*
Y1576250D01*
Y1578958D02*
X1239571Y1581667D01*
X1232800Y1584375D02*
X1231446Y1585730D01*
Y1588438D01*
X1232800Y1589792D01*
X1234155D01*
X1235509Y1588438D01*
Y1587084D01*
Y1588438D01*
X1236863Y1589792D01*
X1238217D01*
X1239571Y1588438D01*
Y1585730D01*
X1238217Y1584375D01*
X1266064Y1576250D02*
X1257939D01*
Y1580313D01*
X1259293Y1581667D01*
X1262001D01*
X1263355Y1580313D01*
Y1576250D01*
Y1578958D02*
X1266064Y1581667D01*
Y1589792D02*
Y1584375D01*
X1260647Y1589792D01*
X1259293D01*
X1257939Y1588438D01*
Y1585730D01*
X1259293Y1584375D01*
X861000Y947250D02*
Y955375D01*
X865063D01*
X866417Y954021D01*
Y951313D01*
X865063Y949958D01*
X861000D01*
X863708D02*
X866417Y947250D01*
X869125D02*
X871834D01*
X870480D01*
Y955375D01*
X869125Y954021D01*
X1225750Y850284D02*
Y858409D01*
X1229813D01*
X1231167Y857055D01*
Y854347D01*
X1229813Y852992D01*
X1225750D01*
X1239292Y858409D02*
X1236584Y857055D01*
X1233875Y854347D01*
Y851638D01*
X1235230Y850284D01*
X1237938D01*
X1239292Y851638D01*
Y852992D01*
X1237938Y854347D01*
X1233875D01*
X719250Y1228250D02*
Y1236375D01*
X723313D01*
X724667Y1235021D01*
Y1232313D01*
X723313Y1230958D01*
X719250D01*
X731438Y1228250D02*
Y1236375D01*
X727375Y1232313D01*
X732792D01*
X827250Y1525750D02*
Y1533875D01*
X831313D01*
X832667Y1532521D01*
Y1529813D01*
X831313Y1528459D01*
X827250D01*
X835375Y1532521D02*
X836730Y1533875D01*
X839438D01*
X840792Y1532521D01*
Y1531167D01*
X839438Y1529813D01*
X838084D01*
X839438D01*
X840792Y1528459D01*
Y1527104D01*
X839438Y1525750D01*
X836730D01*
X835375Y1527104D01*
X988000Y889000D02*
Y897125D01*
X992063D01*
X993417Y895771D01*
Y893063D01*
X992063Y891709D01*
X988000D01*
X1001542Y889000D02*
X996125D01*
X1001542Y894417D01*
Y895771D01*
X1000188Y897125D01*
X997480D01*
X996125Y895771D01*
X821000Y886250D02*
Y894375D01*
X825063D01*
X826417Y893021D01*
Y890313D01*
X825063Y888958D01*
X821000D01*
X829125Y886250D02*
X831834D01*
X830480D01*
Y894375D01*
X829125Y893021D01*
X1311417Y1114875D02*
X1308708D01*
X1310063D01*
Y1108104D01*
X1308708Y1106750D01*
X1307354D01*
X1306000Y1108104D01*
X1314125Y1105396D02*
X1319542D01*
X1322251Y1114875D02*
Y1109458D01*
X1324959Y1106750D01*
X1327668Y1109458D01*
Y1114875D01*
X1335793D02*
X1330376D01*
Y1110813D01*
X1333085Y1112167D01*
X1334439D01*
X1335793Y1110813D01*
Y1108104D01*
X1334439Y1106750D01*
X1331730D01*
X1330376Y1108104D01*
X1335167Y966125D02*
X1332458D01*
X1333813D01*
Y959354D01*
X1332458Y958000D01*
X1331104D01*
X1329750Y959354D01*
X1337875Y956646D02*
X1343292D01*
X1346001Y966125D02*
Y960708D01*
X1348709Y958000D01*
X1351418Y960708D01*
Y966125D01*
X1354126Y964771D02*
X1355480Y966125D01*
X1358189D01*
X1359543Y964771D01*
Y963417D01*
X1358189Y962063D01*
X1356835D01*
X1358189D01*
X1359543Y960708D01*
Y959354D01*
X1358189Y958000D01*
X1355480D01*
X1354126Y959354D01*
X813667Y919875D02*
X810958D01*
X812313D01*
Y913104D01*
X810958Y911750D01*
X809604D01*
X808250Y913104D01*
X816375Y910396D02*
X821792D01*
X824501Y919875D02*
Y914458D01*
X827209Y911750D01*
X829918Y914458D01*
Y919875D01*
X832626Y911750D02*
X835335D01*
X833980D01*
Y919875D01*
X832626Y918521D01*
X1425375Y884167D02*
Y881459D01*
Y882813D01*
X1432146D01*
X1433500Y881459D01*
Y880104D01*
X1432146Y878750D01*
X1434854Y886875D02*
Y892292D01*
X1425375Y895001D02*
X1430792D01*
X1433500Y897709D01*
X1430792Y900418D01*
X1425375D01*
X1426729Y903126D02*
X1425375Y904480D01*
Y907189D01*
X1426729Y908543D01*
X1432146D01*
X1433500Y907189D01*
Y904480D01*
X1432146Y903126D01*
X1426729D01*
X1342917Y1361750D02*
X1340208D01*
X1341563D01*
Y1354979D01*
X1340208Y1353625D01*
X1338854D01*
X1337500Y1354979D01*
X1345625Y1352271D02*
X1351042D01*
X1353751Y1353625D02*
Y1361750D01*
X1357813D01*
X1359168Y1360396D01*
Y1357688D01*
X1357813Y1356333D01*
X1353751D01*
X1367293Y1360396D02*
X1365939Y1361750D01*
X1363230D01*
X1361876Y1360396D01*
Y1354979D01*
X1363230Y1353625D01*
X1365939D01*
X1367293Y1354979D01*
X1370002Y1353625D02*
X1372710D01*
X1371356D01*
Y1361750D01*
X1370002Y1360396D01*
X1376773D02*
X1378127Y1361750D01*
X1380835D01*
X1382190Y1360396D01*
Y1354979D01*
X1380835Y1353625D01*
X1378127D01*
X1376773Y1354979D01*
Y1360396D01*
X1342917Y1385938D02*
X1340208D01*
X1341563D01*
Y1379167D01*
X1340208Y1377812D01*
X1338854D01*
X1337500Y1379167D01*
X1345625Y1376458D02*
X1351042D01*
X1353751Y1377812D02*
Y1385938D01*
X1357813D01*
X1359168Y1384584D01*
Y1381875D01*
X1357813Y1380521D01*
X1353751D01*
X1367293Y1384584D02*
X1365939Y1385938D01*
X1363230D01*
X1361876Y1384584D01*
Y1379167D01*
X1363230Y1377812D01*
X1365939D01*
X1367293Y1379167D01*
X1370002D02*
X1371356Y1377812D01*
X1374064D01*
X1375418Y1379167D01*
Y1384584D01*
X1374064Y1385938D01*
X1371356D01*
X1370002Y1384584D01*
Y1383229D01*
X1371356Y1381875D01*
X1375418D01*
X1342917Y1410125D02*
X1340208D01*
X1341563D01*
Y1403354D01*
X1340208Y1402000D01*
X1338854D01*
X1337500Y1403354D01*
X1345625Y1400646D02*
X1351042D01*
X1353751Y1402000D02*
Y1410125D01*
X1357813D01*
X1359168Y1408771D01*
Y1406063D01*
X1357813Y1404708D01*
X1353751D01*
X1367293Y1408771D02*
X1365939Y1410125D01*
X1363230D01*
X1361876Y1408771D01*
Y1403354D01*
X1363230Y1402000D01*
X1365939D01*
X1367293Y1403354D01*
X1370002Y1408771D02*
X1371356Y1410125D01*
X1374064D01*
X1375418Y1408771D01*
Y1407417D01*
X1374064Y1406063D01*
X1375418Y1404708D01*
Y1403354D01*
X1374064Y1402000D01*
X1371356D01*
X1370002Y1403354D01*
Y1404708D01*
X1371356Y1406063D01*
X1370002Y1407417D01*
Y1408771D01*
X1371356Y1406063D02*
X1374064D01*
X1342917Y1318375D02*
X1340208D01*
X1341563D01*
Y1311604D01*
X1340208Y1310250D01*
X1338854D01*
X1337500Y1311604D01*
X1345625Y1308896D02*
X1351042D01*
X1353751Y1310250D02*
Y1318375D01*
X1357813D01*
X1359168Y1317021D01*
Y1314313D01*
X1357813Y1312959D01*
X1353751D01*
X1367293Y1317021D02*
X1365939Y1318375D01*
X1363230D01*
X1361876Y1317021D01*
Y1311604D01*
X1363230Y1310250D01*
X1365939D01*
X1367293Y1311604D01*
X1374064Y1310250D02*
Y1318375D01*
X1370002Y1314313D01*
X1375418D01*
X1342917Y1337563D02*
X1340208D01*
X1341563D01*
Y1330792D01*
X1340208Y1329438D01*
X1338854D01*
X1337500Y1330792D01*
X1345625Y1328083D02*
X1351042D01*
X1353751Y1329438D02*
Y1337563D01*
X1357813D01*
X1359168Y1336209D01*
Y1333500D01*
X1357813Y1332146D01*
X1353751D01*
X1367293Y1336209D02*
X1365939Y1337563D01*
X1363230D01*
X1361876Y1336209D01*
Y1330792D01*
X1363230Y1329438D01*
X1365939D01*
X1367293Y1330792D01*
X1370002Y1336209D02*
X1371356Y1337563D01*
X1374064D01*
X1375418Y1336209D01*
Y1334854D01*
X1374064Y1333500D01*
X1372710D01*
X1374064D01*
X1375418Y1332146D01*
Y1330792D01*
X1374064Y1329438D01*
X1371356D01*
X1370002Y1330792D01*
X1328417Y992875D02*
X1323000D01*
Y988813D01*
X1325708D01*
X1323000D01*
Y984750D01*
X1331125Y992875D02*
Y984750D01*
X1335188D01*
X1336542Y986104D01*
Y987458D01*
X1335188Y988813D01*
X1331125D01*
X1335188D01*
X1336542Y990167D01*
Y991521D01*
X1335188Y992875D01*
X1331125D01*
X1339251Y984750D02*
X1341959D01*
X1340605D01*
Y992875D01*
X1339251Y991521D01*
X1093679Y1697375D02*
Y1689250D01*
X1097741D01*
X1099096Y1690604D01*
Y1696021D01*
X1097741Y1697375D01*
X1093679D01*
X1101804Y1696021D02*
X1103158Y1697375D01*
X1105867D01*
X1107221Y1696021D01*
Y1694667D01*
X1105867Y1693313D01*
X1107221Y1691958D01*
Y1690604D01*
X1105867Y1689250D01*
X1103158D01*
X1101804Y1690604D01*
Y1691958D01*
X1103158Y1693313D01*
X1101804Y1694667D01*
Y1696021D01*
X1103158Y1693313D02*
X1105867D01*
X1067000Y1698875D02*
Y1690750D01*
X1071063D01*
X1072417Y1692104D01*
Y1697521D01*
X1071063Y1698875D01*
X1067000D01*
X1075125D02*
X1080542D01*
Y1697521D01*
X1075125Y1692104D01*
Y1690750D01*
X1147036Y1697375D02*
Y1689250D01*
X1151098D01*
X1152453Y1690604D01*
Y1696021D01*
X1151098Y1697375D01*
X1147036D01*
X1160578D02*
X1157869Y1696021D01*
X1155161Y1693313D01*
Y1690604D01*
X1156515Y1689250D01*
X1159224D01*
X1160578Y1690604D01*
Y1691958D01*
X1159224Y1693313D01*
X1155161D01*
X1120357Y1697375D02*
Y1689250D01*
X1124420D01*
X1125774Y1690604D01*
Y1696021D01*
X1124420Y1697375D01*
X1120357D01*
X1133899D02*
X1128483D01*
Y1693313D01*
X1131191Y1694667D01*
X1132545D01*
X1133899Y1693313D01*
Y1690604D01*
X1132545Y1689250D01*
X1129837D01*
X1128483Y1690604D01*
X1200393Y1697375D02*
Y1689250D01*
X1204455D01*
X1205810Y1690604D01*
Y1696021D01*
X1204455Y1697375D01*
X1200393D01*
X1212581Y1689250D02*
Y1697375D01*
X1208518Y1693313D01*
X1213935D01*
X1173714Y1697375D02*
Y1689250D01*
X1177777D01*
X1179131Y1690604D01*
Y1696021D01*
X1177777Y1697375D01*
X1173714D01*
X1181840Y1696021D02*
X1183194Y1697375D01*
X1185902D01*
X1187256Y1696021D01*
Y1694667D01*
X1185902Y1693313D01*
X1184548D01*
X1185902D01*
X1187256Y1691958D01*
Y1690604D01*
X1185902Y1689250D01*
X1183194D01*
X1181840Y1690604D01*
X1227071Y1697375D02*
Y1689250D01*
X1231134D01*
X1232488Y1690604D01*
Y1696021D01*
X1231134Y1697375D01*
X1227071D01*
X1240614Y1689250D02*
X1235197D01*
X1240614Y1694667D01*
Y1696021D01*
X1239259Y1697375D01*
X1236551D01*
X1235197Y1696021D01*
X1253750Y1697375D02*
Y1689250D01*
X1257813D01*
X1259167Y1690604D01*
Y1696021D01*
X1257813Y1697375D01*
X1253750D01*
X1261875Y1689250D02*
X1264584D01*
X1263230D01*
Y1697375D01*
X1261875Y1696021D01*
X1238613Y1264271D02*
X1237258Y1265625D01*
X1234550D01*
X1233196Y1264271D01*
Y1258854D01*
X1234550Y1257500D01*
X1237258D01*
X1238613Y1258854D01*
X1241321Y1264271D02*
X1242675Y1265625D01*
X1245384D01*
X1246738Y1264271D01*
Y1262917D01*
X1245384Y1261563D01*
X1244030D01*
X1245384D01*
X1246738Y1260209D01*
Y1258854D01*
X1245384Y1257500D01*
X1242675D01*
X1241321Y1258854D01*
X1254863Y1265625D02*
X1252155Y1264271D01*
X1249446Y1261563D01*
Y1258854D01*
X1250801Y1257500D01*
X1253509D01*
X1254863Y1258854D01*
Y1260209D01*
X1253509Y1261563D01*
X1249446D01*
X1017417Y1255946D02*
X1016063Y1257300D01*
X1013354D01*
X1012000Y1255946D01*
Y1250529D01*
X1013354Y1249175D01*
X1016063D01*
X1017417Y1250529D01*
X1020125Y1255946D02*
X1021480Y1257300D01*
X1024188D01*
X1025542Y1255946D01*
Y1254592D01*
X1024188Y1253237D01*
X1022834D01*
X1024188D01*
X1025542Y1251883D01*
Y1250529D01*
X1024188Y1249175D01*
X1021480D01*
X1020125Y1250529D01*
X1033668Y1257300D02*
X1028251D01*
Y1253237D01*
X1030959Y1254592D01*
X1032314D01*
X1033668Y1253237D01*
Y1250529D01*
X1032314Y1249175D01*
X1029605D01*
X1028251Y1250529D01*
X916167Y1256271D02*
X914813Y1257625D01*
X912104D01*
X910750Y1256271D01*
Y1250854D01*
X912104Y1249500D01*
X914813D01*
X916167Y1250854D01*
X918875Y1256271D02*
X920230Y1257625D01*
X922938D01*
X924292Y1256271D01*
Y1254917D01*
X922938Y1253563D01*
X921584D01*
X922938D01*
X924292Y1252208D01*
Y1250854D01*
X922938Y1249500D01*
X920230D01*
X918875Y1250854D01*
X931063Y1249500D02*
Y1257625D01*
X927001Y1253563D01*
X932418D01*
X816417Y1257521D02*
X815063Y1258875D01*
X812354D01*
X811000Y1257521D01*
Y1252104D01*
X812354Y1250750D01*
X815063D01*
X816417Y1252104D01*
X819125Y1257521D02*
X820480Y1258875D01*
X823188D01*
X824542Y1257521D01*
Y1256167D01*
X823188Y1254813D01*
X821834D01*
X823188D01*
X824542Y1253458D01*
Y1252104D01*
X823188Y1250750D01*
X820480D01*
X819125Y1252104D01*
X832668Y1250750D02*
X827251D01*
X832668Y1256167D01*
Y1257521D01*
X831313Y1258875D01*
X828605D01*
X827251Y1257521D01*
X729729Y1068417D02*
X728375Y1067063D01*
Y1064354D01*
X729729Y1063000D01*
X735146D01*
X736500Y1064354D01*
Y1067063D01*
X735146Y1068417D01*
X729729Y1071125D02*
X728375Y1072480D01*
Y1075188D01*
X729729Y1076542D01*
X731083D01*
X732437Y1075188D01*
Y1073834D01*
Y1075188D01*
X733792Y1076542D01*
X735146D01*
X736500Y1075188D01*
Y1072480D01*
X735146Y1071125D01*
X736500Y1079251D02*
Y1081959D01*
Y1080605D01*
X728375D01*
X729729Y1079251D01*
X748729Y1067917D02*
X747375Y1066563D01*
Y1063854D01*
X748729Y1062500D01*
X754146D01*
X755500Y1063854D01*
Y1066563D01*
X754146Y1067917D01*
X748729Y1070625D02*
X747375Y1071980D01*
Y1074688D01*
X748729Y1076042D01*
X750083D01*
X751437Y1074688D01*
Y1073334D01*
Y1074688D01*
X752792Y1076042D01*
X754146D01*
X755500Y1074688D01*
Y1071980D01*
X754146Y1070625D01*
X748729Y1078751D02*
X747375Y1080105D01*
Y1082813D01*
X748729Y1084168D01*
X754146D01*
X755500Y1082813D01*
Y1080105D01*
X754146Y1078751D01*
X748729D01*
X712979Y962667D02*
X711625Y961313D01*
Y958604D01*
X712979Y957250D01*
X718396D01*
X719750Y958604D01*
Y961313D01*
X718396Y962667D01*
X719750Y970792D02*
Y965375D01*
X714333Y970792D01*
X712979D01*
X711625Y969438D01*
Y966730D01*
X712979Y965375D01*
X718396Y973501D02*
X719750Y974855D01*
Y977563D01*
X718396Y978918D01*
X712979D01*
X711625Y977563D01*
Y974855D01*
X712979Y973501D01*
X714333D01*
X715687Y974855D01*
Y978918D01*
X733479Y963167D02*
X732125Y961813D01*
Y959104D01*
X733479Y957750D01*
X738896D01*
X740250Y959104D01*
Y961813D01*
X738896Y963167D01*
X740250Y971292D02*
Y965875D01*
X734833Y971292D01*
X733479D01*
X732125Y969938D01*
Y967230D01*
X733479Y965875D01*
Y974001D02*
X732125Y975355D01*
Y978063D01*
X733479Y979418D01*
X734833D01*
X736187Y978063D01*
X737542Y979418D01*
X738896D01*
X740250Y978063D01*
Y975355D01*
X738896Y974001D01*
X737542D01*
X736187Y975355D01*
X734833Y974001D01*
X733479D01*
X736187Y975355D02*
Y978063D01*
X1143167Y965021D02*
X1141813Y966375D01*
X1139104D01*
X1137750Y965021D01*
Y959604D01*
X1139104Y958250D01*
X1141813D01*
X1143167Y959604D01*
X1151292Y958250D02*
X1145875D01*
X1151292Y963667D01*
Y965021D01*
X1149938Y966375D01*
X1147230D01*
X1145875Y965021D01*
X1154001Y966375D02*
X1159418D01*
Y965021D01*
X1154001Y959604D01*
Y958250D01*
X1234729Y1008257D02*
X1233375Y1006903D01*
Y1004194D01*
X1234729Y1002840D01*
X1240146D01*
X1241500Y1004194D01*
Y1006903D01*
X1240146Y1008257D01*
X1241500Y1016382D02*
Y1010965D01*
X1236083Y1016382D01*
X1234729D01*
X1233375Y1015028D01*
Y1012320D01*
X1234729Y1010965D01*
Y1019091D02*
X1233375Y1020445D01*
Y1023154D01*
X1234729Y1024508D01*
X1240146D01*
X1241500Y1023154D01*
Y1020445D01*
X1240146Y1019091D01*
X1234729D01*
X1215229Y1008167D02*
X1213875Y1006813D01*
Y1004104D01*
X1215229Y1002750D01*
X1220646D01*
X1222000Y1004104D01*
Y1006813D01*
X1220646Y1008167D01*
X1222000Y1010875D02*
Y1013584D01*
Y1012230D01*
X1213875D01*
X1215229Y1010875D01*
X1213875Y1023063D02*
Y1017646D01*
X1217937D01*
X1216583Y1020355D01*
Y1021709D01*
X1217937Y1023063D01*
X1220646D01*
X1222000Y1021709D01*
Y1019001D01*
X1220646Y1017646D01*
X1403729Y928917D02*
X1402375Y927563D01*
Y924854D01*
X1403729Y923500D01*
X1409146D01*
X1410500Y924854D01*
Y927563D01*
X1409146Y928917D01*
X1410500Y931625D02*
Y934334D01*
Y932980D01*
X1402375D01*
X1403729Y931625D01*
X1410500Y943813D02*
Y938397D01*
X1405083Y943813D01*
X1403729D01*
X1402375Y942459D01*
Y939751D01*
X1403729Y938397D01*
X1389667Y859021D02*
X1388313Y860375D01*
X1385604D01*
X1384250Y859021D01*
Y853604D01*
X1385604Y852250D01*
X1388313D01*
X1389667Y853604D01*
X1392375Y852250D02*
X1395084D01*
X1393730D01*
Y860375D01*
X1392375Y859021D01*
X1399147Y852250D02*
X1401855D01*
X1400501D01*
Y860375D01*
X1399147Y859021D01*
X1235417Y882721D02*
X1234063Y884075D01*
X1231354D01*
X1230000Y882721D01*
Y877304D01*
X1231354Y875950D01*
X1234063D01*
X1235417Y877304D01*
X1238125Y875950D02*
X1240834D01*
X1239480D01*
Y884075D01*
X1238125Y882721D01*
X1244896D02*
X1246251Y884075D01*
X1248959D01*
X1250313Y882721D01*
Y877304D01*
X1248959Y875950D01*
X1246251D01*
X1244896Y877304D01*
Y882721D01*
X1274917Y882271D02*
X1273563Y883625D01*
X1270854D01*
X1269500Y882271D01*
Y876854D01*
X1270854Y875500D01*
X1273563D01*
X1274917Y876854D01*
X1277625D02*
X1278980Y875500D01*
X1281688D01*
X1283042Y876854D01*
Y882271D01*
X1281688Y883625D01*
X1278980D01*
X1277625Y882271D01*
Y880917D01*
X1278980Y879563D01*
X1283042D01*
X1277667Y969271D02*
X1276313Y970625D01*
X1273604D01*
X1272250Y969271D01*
Y963854D01*
X1273604Y962500D01*
X1276313D01*
X1277667Y963854D01*
X1280375Y969271D02*
X1281730Y970625D01*
X1284438D01*
X1285792Y969271D01*
Y967917D01*
X1284438Y966563D01*
X1285792Y965209D01*
Y963854D01*
X1284438Y962500D01*
X1281730D01*
X1280375Y963854D01*
Y965209D01*
X1281730Y966563D01*
X1280375Y967917D01*
Y969271D01*
X1281730Y966563D02*
X1284438D01*
X1278917Y1042271D02*
X1277563Y1043625D01*
X1274854D01*
X1273500Y1042271D01*
Y1036854D01*
X1274854Y1035500D01*
X1277563D01*
X1278917Y1036854D01*
X1281625Y1043625D02*
X1287042D01*
Y1042271D01*
X1281625Y1036854D01*
Y1035500D01*
X1221946Y980752D02*
X1220031Y980752D01*
X1218116Y978837D01*
Y976922D01*
X1221946Y973092D01*
X1223862D01*
X1225777Y975007D01*
Y976922D01*
X1226734Y987456D02*
X1225777Y984583D01*
Y980752D01*
X1227692Y978837D01*
X1229607D01*
X1231522Y980752D01*
Y982668D01*
X1230565Y983625D01*
X1228650D01*
X1225777Y980752D01*
X1178542Y937118D02*
X1176627Y937118D01*
X1174712Y935203D01*
Y933288D01*
X1178542Y929458D01*
X1180458D01*
X1182373Y931373D01*
Y933288D01*
X1183330Y943821D02*
X1179500Y939991D01*
X1182373Y937118D01*
X1183330Y939991D01*
X1184288Y940949D01*
X1186203D01*
X1188118Y939033D01*
Y937118D01*
X1186203Y935203D01*
X1184288D01*
X1031379Y950612D02*
X1030025Y951966D01*
X1027317D01*
X1025962Y950612D01*
Y945195D01*
X1027317Y943841D01*
X1030025D01*
X1031379Y945195D01*
X1038150Y943841D02*
Y951966D01*
X1034088Y947904D01*
X1039505D01*
X952986Y987526D02*
X951632Y988880D01*
X948923D01*
X947569Y987526D01*
Y982109D01*
X948923Y980755D01*
X951632D01*
X952986Y982109D01*
X955695Y987526D02*
X957049Y988880D01*
X959757D01*
X961111Y987526D01*
Y986172D01*
X959757Y984818D01*
X958403D01*
X959757D01*
X961111Y983464D01*
Y982109D01*
X959757Y980755D01*
X957049D01*
X955695Y982109D01*
X1252917Y1086271D02*
X1251563Y1087625D01*
X1248854D01*
X1247500Y1086271D01*
Y1080854D01*
X1248854Y1079500D01*
X1251563D01*
X1252917Y1080854D01*
X1261042Y1079500D02*
X1255625D01*
X1261042Y1084917D01*
Y1086271D01*
X1259688Y1087625D01*
X1256980D01*
X1255625Y1086271D01*
X914167Y935021D02*
X912813Y936375D01*
X910104D01*
X908750Y935021D01*
Y929604D01*
X910104Y928250D01*
X912813D01*
X914167Y929604D01*
X916875Y928250D02*
X919584D01*
X918230D01*
Y936375D01*
X916875Y935021D01*
D20*
X939976Y1403043D02*
Y1403519D01*
X940452Y1404472D01*
X940928Y1404948D01*
X941880Y1405424D01*
X943785D01*
X944737Y1404948D01*
X945213Y1404472D01*
X945689Y1403519D01*
Y1402567D01*
X945213Y1401615D01*
X944261Y1400187D01*
X939500Y1395426D01*
X946165D01*
X817000Y1402249D02*
X817952Y1402726D01*
X819380Y1404154D01*
Y1394156D01*
D21*
X1490750Y1629000D02*
D03*
X1204999Y907050D02*
D03*
X764000Y847000D02*
D03*
X827000Y935750D02*
D03*
X1131644Y1227430D02*
D03*
X1131204Y1203930D02*
D03*
X1324994Y1130750D02*
D03*
X1417249Y1310000D02*
D03*
X1416999Y1333800D02*
D03*
X1417250Y1358000D02*
D03*
X1417250Y1383000D02*
D03*
X1417249Y1406000D02*
D03*
X1348000Y943000D02*
D03*
D22*
X882661Y1284395D02*
D03*
X857261Y1284995D02*
D03*
X954469Y1285305D02*
D03*
X978564Y1285300D02*
D03*
X1087169Y1285253D02*
D03*
X1064469Y1285254D02*
D03*
X1447996Y897000D02*
D03*
X1102750Y913001D02*
D03*
X867500Y926454D02*
D03*
X976255Y1128750D02*
D03*
X954474Y1129749D02*
D03*
X882666Y1129385D02*
D03*
X857262Y1129385D02*
D03*
X1267038Y1213251D02*
D03*
X1243278Y1213247D02*
D03*
X1218529Y1213247D02*
D03*
X1193780D02*
D03*
X1406500Y1208339D02*
D03*
X1406498Y1251494D02*
D03*
X1260000Y1625263D02*
D03*
X1233714Y1625267D02*
D03*
X1207428Y1625478D02*
D03*
X1181143Y1625478D02*
D03*
X1154857Y1625478D02*
D03*
X1128571Y1625473D02*
D03*
X1101998Y1625056D02*
D03*
X1075597Y1624225D02*
D03*
M02*
