G04*
G04 #@! TF.GenerationSoftware,Altium Limited,Altium Designer,18.1.7 (191)*
G04*
G04 Layer_Color=16711935*
%FSLAX44Y44*%
%MOMM*%
G71*
G01*
G75*
%ADD10C,0.2540*%
%ADD18C,0.1000*%
%ADD120C,0.0762*%
D10*
X1369905Y967000D02*
G03*
X1369905Y967000I-3905J0D01*
G01*
X1346000Y903500D02*
X1397250D01*
X1345250Y902750D02*
X1346000Y903500D01*
X1345250Y886250D02*
Y902750D01*
Y886250D02*
X1345750Y885750D01*
X1396500D01*
X1397250Y886500D01*
Y903500D01*
X1470275Y891047D02*
X1476200D01*
Y886604D01*
X1473238D01*
X1476200D01*
Y882160D01*
X1467313Y891047D02*
Y882160D01*
X1462869D01*
X1461388Y883641D01*
Y889566D01*
X1462869Y891047D01*
X1467313D01*
X1458426Y883641D02*
X1456945Y882160D01*
X1453982D01*
X1452501Y883641D01*
Y889566D01*
X1453982Y891047D01*
X1456945D01*
X1458426Y889566D01*
Y888085D01*
X1456945Y886604D01*
X1452501D01*
X1449539Y880679D02*
X1443614D01*
X1440652Y882160D02*
X1437689D01*
X1439170D01*
Y891047D01*
X1440652Y889566D01*
X677203Y1592525D02*
Y1598450D01*
X681646D01*
Y1595488D01*
Y1598450D01*
X686090D01*
X677203Y1589563D02*
X686090D01*
Y1585119D01*
X684609Y1583638D01*
X678684D01*
X677203Y1585119D01*
Y1589563D01*
X684609Y1580676D02*
X686090Y1579195D01*
Y1576232D01*
X684609Y1574751D01*
X678684D01*
X677203Y1576232D01*
Y1579195D01*
X678684Y1580676D01*
X680165D01*
X681646Y1579195D01*
Y1574751D01*
X687571Y1571789D02*
Y1565864D01*
X686090Y1556977D02*
Y1562901D01*
X680165Y1556977D01*
X678684D01*
X677203Y1558458D01*
Y1561420D01*
X678684Y1562901D01*
X1289525Y1616047D02*
X1295450D01*
Y1611604D01*
X1292488D01*
X1295450D01*
Y1607160D01*
X1286563Y1616047D02*
Y1607160D01*
X1282119D01*
X1280638Y1608641D01*
Y1614566D01*
X1282119Y1616047D01*
X1286563D01*
X1277676Y1608641D02*
X1276195Y1607160D01*
X1273232D01*
X1271751Y1608641D01*
Y1614566D01*
X1273232Y1616047D01*
X1276195D01*
X1277676Y1614566D01*
Y1613085D01*
X1276195Y1611604D01*
X1271751D01*
D18*
X756326Y895750D02*
Y926750D01*
X756826Y927250D02*
X773076D01*
Y896250D02*
Y927250D01*
X772576Y895750D02*
X773076Y896250D01*
X756326Y895750D02*
X772576D01*
X1162779Y954947D02*
X1174270Y943456D01*
X1174977D01*
X1196897Y965377D01*
X1185407Y976867D02*
X1196897Y965377D01*
X1162779Y954947D02*
X1184700Y976867D01*
X1189750Y937250D02*
X1220250D01*
X1189750Y924000D02*
Y937250D01*
Y924000D02*
X1220250D01*
Y937250D01*
X993250Y985250D02*
X1023750D01*
Y998500D01*
X993250D02*
X1023750D01*
X993250Y985250D02*
Y998500D01*
X1020921Y1068995D02*
X1042488Y1090562D01*
X1033119Y1099931D02*
X1042488Y1090562D01*
X1011552Y1078364D02*
X1033119Y1099931D01*
X1011552Y1078364D02*
X1020921Y1068995D01*
X1023870Y1067063D02*
X1033240Y1057694D01*
X1023870Y1067063D02*
X1045437Y1088630D01*
X1054806Y1079260D01*
X1033240Y1057694D02*
X1054806Y1079260D01*
X1043493Y1086331D02*
X1052862Y1076962D01*
X1021500Y966500D02*
Y979750D01*
X994000Y966750D02*
X1024500D01*
Y980000D01*
X994000D02*
X1024500D01*
X994000Y966750D02*
Y980000D01*
X1402250Y1587050D02*
X1433250D01*
X1433750Y1570300D02*
Y1586550D01*
X1402750Y1570300D02*
X1433750D01*
X1402250Y1570800D02*
X1402750Y1570300D01*
X1402250Y1570800D02*
Y1587050D01*
Y1561650D02*
X1433250D01*
X1433750Y1544900D02*
Y1561150D01*
X1402750Y1544900D02*
X1433750D01*
X1402250Y1545400D02*
X1402750Y1544900D01*
X1402250Y1545400D02*
Y1561650D01*
X1327500Y1180250D02*
X1340750D01*
Y1149750D02*
Y1180250D01*
X1327500Y1149750D02*
X1340750D01*
X1327500D02*
Y1180250D01*
X1327250Y1152750D02*
X1340500D01*
X1347500Y1148750D02*
Y1179250D01*
Y1148750D02*
X1360750D01*
Y1179250D01*
X1347500D02*
X1360750D01*
X1404250Y1152250D02*
X1435250D01*
X1435750Y1135500D02*
Y1151750D01*
X1404750Y1135500D02*
X1435750D01*
X1404250Y1136000D02*
X1404750Y1135500D01*
X1404250Y1136000D02*
Y1152250D01*
Y1128250D02*
X1435250D01*
X1435750Y1111500D02*
Y1127750D01*
X1404750Y1111500D02*
X1435750D01*
X1404250Y1112000D02*
X1404750Y1111500D01*
X1404250Y1112000D02*
Y1128250D01*
Y1103250D02*
X1435250D01*
X1435750Y1086500D02*
Y1102750D01*
X1404750Y1086500D02*
X1435750D01*
X1404250Y1087000D02*
X1404750Y1086500D01*
X1404250Y1087000D02*
Y1103250D01*
X1405250Y1079250D02*
X1436250D01*
X1436750Y1062500D02*
Y1078750D01*
X1405750Y1062500D02*
X1436750D01*
X1405250Y1063000D02*
X1405750Y1062500D01*
X1405250Y1063000D02*
Y1079250D01*
X1342000Y1027750D02*
X1358250D01*
X1341500Y1027250D02*
X1342000Y1027750D01*
X1341500Y996250D02*
Y1027250D01*
Y996250D02*
X1357750D01*
X1358250Y996750D02*
Y1027750D01*
X1369063Y991000D02*
Y1007250D01*
Y991000D02*
X1369563Y990500D01*
X1400563D01*
Y1006750D01*
X1369063Y1007250D02*
X1400063D01*
X1394250Y917750D02*
Y975750D01*
X1360750D02*
X1394250D01*
X1360750Y917750D02*
X1394250D01*
X1360750D02*
Y975750D01*
X1336750Y942750D02*
Y973250D01*
X1323500D02*
X1336750D01*
X1323500Y942750D02*
Y973250D01*
Y942750D02*
X1336750D01*
X1153818Y1008556D02*
X1163187Y999187D01*
X1141620Y977620D02*
X1163187Y999187D01*
X1132251Y986990D02*
X1141620Y977620D01*
X1132251Y986990D02*
X1153818Y1008556D01*
X1134196Y989288D02*
X1143565Y979919D01*
X1145251Y973990D02*
X1166818Y995556D01*
X1145251Y973990D02*
X1154620Y964620D01*
X1176187Y986187D01*
X1166818Y995556D02*
X1176187Y986187D01*
X919750Y1105910D02*
X950750D01*
X919250Y1106410D02*
Y1122660D01*
X950250D01*
X950750Y1122160D01*
Y1105910D02*
Y1122160D01*
X919750Y1054250D02*
X950750D01*
X919250Y1054750D02*
Y1071000D01*
X950250D01*
X950750Y1070500D01*
Y1054250D02*
Y1070500D01*
X876250Y1088750D02*
Y1119750D01*
X859500Y1088250D02*
X875750D01*
X859500D02*
Y1119250D01*
X860000Y1119750D01*
X876250D01*
X853250Y1088952D02*
Y1119952D01*
X836500Y1088452D02*
X852750D01*
X836500D02*
Y1119452D01*
X837000Y1119952D01*
X853250D01*
X779250Y901000D02*
Y918500D01*
X748750Y901000D02*
Y918500D01*
X779250D01*
X748750Y901000D02*
X779250D01*
X1343750Y970250D02*
X1357000D01*
X1356750Y942750D02*
Y973250D01*
X1343500D02*
X1356750D01*
X1343500Y942750D02*
Y973250D01*
Y942750D02*
X1356750D01*
X1378250Y863500D02*
Y876750D01*
X1347750Y863500D02*
X1378250D01*
X1347750D02*
Y876750D01*
X1378250D01*
X1408250Y1004250D02*
X1421500D01*
Y973750D02*
Y1004250D01*
X1408250Y973750D02*
X1421500D01*
X1408250D02*
Y1004250D01*
X792000Y1119673D02*
X808250D01*
X791500Y1119173D02*
X792000Y1119673D01*
X791500Y1088173D02*
Y1119173D01*
Y1088173D02*
X807750D01*
X808250Y1088673D02*
Y1119673D01*
X814500D02*
X830750D01*
X814000Y1119173D02*
X814500Y1119673D01*
X814000Y1088173D02*
Y1119173D01*
Y1088173D02*
X830250D01*
X830750Y1088673D02*
Y1119673D01*
X765196Y926410D02*
X760198D01*
Y923911D01*
X761031Y923078D01*
X762697D01*
X763530Y923911D01*
Y926410D01*
Y924744D02*
X765196Y923078D01*
X761031Y921412D02*
X760198Y920579D01*
Y918912D01*
X761031Y918079D01*
X761864D01*
X762697Y918912D01*
Y919745D01*
Y918912D01*
X763530Y918079D01*
X764363D01*
X765196Y918912D01*
Y920579D01*
X764363Y921412D01*
X761031Y916413D02*
X760198Y915580D01*
Y913914D01*
X761031Y913081D01*
X761864D01*
X762697Y913914D01*
X763530Y913081D01*
X764363D01*
X765196Y913914D01*
Y915580D01*
X764363Y916413D01*
X763530D01*
X762697Y915580D01*
X761864Y916413D01*
X761031D01*
X762697Y915580D02*
Y913914D01*
X1190731Y970355D02*
X1187197Y973889D01*
X1185430Y972122D01*
X1185430Y970944D01*
X1186608Y969765D01*
X1187786D01*
X1189553Y971533D01*
X1188375Y970355D02*
X1188375Y967998D01*
X1184252Y969765D02*
X1183074Y969765D01*
X1181895Y968587D01*
Y967409D01*
X1182484Y966820D01*
X1183663D01*
X1184252Y967409D01*
X1183663Y966820D01*
Y965642D01*
X1184252Y965053D01*
X1185430D01*
X1186608Y966231D01*
Y967409D01*
X1180128Y966820D02*
X1177772Y964464D01*
X1178361Y963875D01*
X1183074D01*
X1183663Y963286D01*
X1195582Y927085D02*
X1194749Y926252D01*
X1193083D01*
X1192250Y927085D01*
Y930417D01*
X1193083Y931250D01*
X1194749D01*
X1195582Y930417D01*
X1197248Y927085D02*
X1198081Y926252D01*
X1199748D01*
X1200581Y927085D01*
Y927918D01*
X1199748Y928751D01*
X1198914D01*
X1199748D01*
X1200581Y929584D01*
Y930417D01*
X1199748Y931250D01*
X1198081D01*
X1197248Y930417D01*
X1202247Y926252D02*
X1205579D01*
Y927085D01*
X1202247Y930417D01*
Y931250D01*
X1017918Y995415D02*
X1018751Y996248D01*
X1020417D01*
X1021250Y995415D01*
Y992083D01*
X1020417Y991250D01*
X1018751D01*
X1017918Y992083D01*
X1016252Y991250D02*
X1014585D01*
X1015418D01*
Y996248D01*
X1016252Y995415D01*
X1008754Y996248D02*
X1010420Y995415D01*
X1012086Y993749D01*
Y992083D01*
X1011253Y991250D01*
X1009587D01*
X1008754Y992083D01*
Y992916D01*
X1009587Y993749D01*
X1012086D01*
X1031176Y1093626D02*
X1031176Y1094804D01*
X1032354Y1095982D01*
X1033532Y1095982D01*
X1035888Y1093626D01*
Y1092448D01*
X1034710Y1091270D01*
X1033532D01*
X1032943Y1089502D02*
X1031765Y1088324D01*
X1032354Y1088913D01*
X1028819Y1092448D01*
X1029998Y1092448D01*
X1026463Y1090091D02*
X1024107Y1087735D01*
X1024696Y1087146D01*
X1029408D01*
X1029998Y1086557D01*
X1033804Y1065307D02*
X1033803Y1064129D01*
X1032625Y1062951D01*
X1031447Y1062951D01*
X1029091Y1065307D01*
Y1066485D01*
X1030269Y1067663D01*
X1031447D01*
X1032036Y1069430D02*
X1033214Y1070609D01*
X1032625Y1070020D01*
X1036160Y1066485D01*
X1034982Y1066485D01*
X1037927Y1069430D02*
X1039105D01*
X1040283Y1070609D01*
Y1071787D01*
X1039694Y1072376D01*
X1038516D01*
Y1073554D01*
X1037927Y1074143D01*
X1036749D01*
X1035571Y1072965D01*
Y1071787D01*
X1036160Y1071198D01*
X1037338D01*
Y1070020D01*
X1037927Y1069430D01*
X1037338Y1071198D02*
X1038516Y1072376D01*
X999782Y971735D02*
X998949Y970902D01*
X997283D01*
X996450Y971735D01*
Y975067D01*
X997283Y975900D01*
X998949D01*
X999782Y975067D01*
X1001448Y975900D02*
X1003114D01*
X1002281D01*
Y970902D01*
X1001448Y971735D01*
X1005614Y975067D02*
X1006447Y975900D01*
X1008113D01*
X1008946Y975067D01*
Y971735D01*
X1008113Y970902D01*
X1006447D01*
X1005614Y971735D01*
Y972568D01*
X1006447Y973401D01*
X1008946D01*
X1429578Y1583178D02*
X1431244D01*
X1430411D01*
Y1579013D01*
X1431244Y1578180D01*
X1432077D01*
X1432910Y1579013D01*
X1427912Y1577347D02*
X1424579D01*
X1422913Y1578180D02*
Y1583178D01*
X1420414D01*
X1419581Y1582345D01*
Y1580679D01*
X1420414Y1579846D01*
X1422913D01*
X1414583Y1582345D02*
X1415416Y1583178D01*
X1417082D01*
X1417915Y1582345D01*
Y1579013D01*
X1417082Y1578180D01*
X1415416D01*
X1414583Y1579013D01*
X1412917Y1578180D02*
X1411250D01*
X1412083D01*
Y1583178D01*
X1412917Y1582345D01*
X1429578Y1557778D02*
X1431244D01*
X1430411D01*
Y1553613D01*
X1431244Y1552780D01*
X1432077D01*
X1432910Y1553613D01*
X1427912Y1551947D02*
X1424579D01*
X1422913Y1552780D02*
Y1557778D01*
X1420414D01*
X1419581Y1556945D01*
Y1555279D01*
X1420414Y1554446D01*
X1422913D01*
X1414583Y1556945D02*
X1415416Y1557778D01*
X1417082D01*
X1417915Y1556945D01*
Y1553613D01*
X1417082Y1552780D01*
X1415416D01*
X1414583Y1553613D01*
X1409584Y1552780D02*
X1412917D01*
X1409584Y1556112D01*
Y1556945D01*
X1410417Y1557778D01*
X1412083D01*
X1412917Y1556945D01*
X1332485Y1174468D02*
X1331652Y1175301D01*
Y1176967D01*
X1332485Y1177800D01*
X1335817D01*
X1336650Y1176967D01*
Y1175301D01*
X1335817Y1174468D01*
X1336650Y1169469D02*
Y1172802D01*
X1333318Y1169469D01*
X1332485D01*
X1331652Y1170303D01*
Y1171969D01*
X1332485Y1172802D01*
X1336650Y1165304D02*
X1331652D01*
X1334151Y1167803D01*
Y1164471D01*
X1357665Y1154582D02*
X1358498Y1153749D01*
Y1152083D01*
X1357665Y1151250D01*
X1354333D01*
X1353500Y1152083D01*
Y1153749D01*
X1354333Y1154582D01*
X1353500Y1159581D02*
Y1156248D01*
X1356832Y1159581D01*
X1357665D01*
X1358498Y1158748D01*
Y1157082D01*
X1357665Y1156248D01*
Y1161247D02*
X1358498Y1162080D01*
Y1163746D01*
X1357665Y1164579D01*
X1356832D01*
X1355999Y1163746D01*
Y1162913D01*
Y1163746D01*
X1355166Y1164579D01*
X1354333D01*
X1353500Y1163746D01*
Y1162080D01*
X1354333Y1161247D01*
X1431578Y1148378D02*
X1433244D01*
X1432411D01*
Y1144213D01*
X1433244Y1143380D01*
X1434077D01*
X1434910Y1144213D01*
X1429912Y1142547D02*
X1426579D01*
X1424913Y1143380D02*
Y1148378D01*
X1422414D01*
X1421581Y1147545D01*
Y1145879D01*
X1422414Y1145046D01*
X1424913D01*
X1416583Y1147545D02*
X1417416Y1148378D01*
X1419082D01*
X1419915Y1147545D01*
Y1144213D01*
X1419082Y1143380D01*
X1417416D01*
X1416583Y1144213D01*
X1414917Y1148378D02*
X1411584D01*
Y1147545D01*
X1414917Y1144213D01*
Y1143380D01*
X1431578Y1124378D02*
X1433244D01*
X1432411D01*
Y1120213D01*
X1433244Y1119380D01*
X1434077D01*
X1434910Y1120213D01*
X1429912Y1118547D02*
X1426579D01*
X1424913Y1119380D02*
Y1124378D01*
X1422414D01*
X1421581Y1123545D01*
Y1121879D01*
X1422414Y1121046D01*
X1424913D01*
X1416583Y1123545D02*
X1417416Y1124378D01*
X1419082D01*
X1419915Y1123545D01*
Y1120213D01*
X1419082Y1119380D01*
X1417416D01*
X1416583Y1120213D01*
X1411584Y1124378D02*
X1413250Y1123545D01*
X1414917Y1121879D01*
Y1120213D01*
X1414084Y1119380D01*
X1412417D01*
X1411584Y1120213D01*
Y1121046D01*
X1412417Y1121879D01*
X1414917D01*
X1431578Y1099378D02*
X1433244D01*
X1432411D01*
Y1095213D01*
X1433244Y1094380D01*
X1434077D01*
X1434910Y1095213D01*
X1429912Y1093547D02*
X1426579D01*
X1424913Y1094380D02*
Y1099378D01*
X1422414D01*
X1421581Y1098545D01*
Y1096879D01*
X1422414Y1096046D01*
X1424913D01*
X1416583Y1098545D02*
X1417416Y1099378D01*
X1419082D01*
X1419915Y1098545D01*
Y1095213D01*
X1419082Y1094380D01*
X1417416D01*
X1416583Y1095213D01*
X1411584Y1099378D02*
X1414917D01*
Y1096879D01*
X1413250Y1097712D01*
X1412417D01*
X1411584Y1096879D01*
Y1095213D01*
X1412417Y1094380D01*
X1414084D01*
X1414917Y1095213D01*
X1432578Y1075378D02*
X1434244D01*
X1433411D01*
Y1071213D01*
X1434244Y1070380D01*
X1435077D01*
X1435910Y1071213D01*
X1430912Y1069547D02*
X1427579D01*
X1425913Y1070380D02*
Y1075378D01*
X1423414D01*
X1422581Y1074545D01*
Y1072879D01*
X1423414Y1072046D01*
X1425913D01*
X1417583Y1074545D02*
X1418416Y1075378D01*
X1420082D01*
X1420915Y1074545D01*
Y1071213D01*
X1420082Y1070380D01*
X1418416D01*
X1417583Y1071213D01*
X1415916Y1070380D02*
X1414250D01*
X1415083D01*
Y1075378D01*
X1415916Y1074545D01*
X1411751Y1070380D02*
X1410085D01*
X1410918D01*
Y1075378D01*
X1411751Y1074545D01*
X1354378Y1000422D02*
Y998756D01*
Y999589D01*
X1350213D01*
X1349380Y998756D01*
Y997923D01*
X1350213Y997090D01*
X1348547Y1002088D02*
Y1005421D01*
X1354378Y1007087D02*
X1351046D01*
X1349380Y1008753D01*
X1351046Y1010419D01*
X1354378D01*
X1349380Y1015417D02*
Y1012085D01*
X1352712Y1015417D01*
X1353545D01*
X1354378Y1014584D01*
Y1012918D01*
X1353545Y1012085D01*
X1399723Y998380D02*
Y1003378D01*
X1397224D01*
X1396391Y1002545D01*
Y1000879D01*
X1397224Y1000046D01*
X1399723D01*
X1398057D02*
X1396391Y998380D01*
X1394725Y999213D02*
X1393892Y998380D01*
X1392226D01*
X1391393Y999213D01*
Y1002545D01*
X1392226Y1003378D01*
X1393892D01*
X1394725Y1002545D01*
Y1001712D01*
X1393892Y1000879D01*
X1391393D01*
X1375922Y964538D02*
X1380087D01*
X1380920Y963705D01*
Y962039D01*
X1380087Y961206D01*
X1375922D01*
X1376755Y959540D02*
X1375922Y958707D01*
Y957040D01*
X1376755Y956207D01*
X1377588D01*
X1378421Y957040D01*
Y957874D01*
Y957040D01*
X1379254Y956207D01*
X1380087D01*
X1380920Y957040D01*
Y958707D01*
X1380087Y959540D01*
X1326585Y967418D02*
X1325752Y968251D01*
Y969917D01*
X1326585Y970750D01*
X1329917D01*
X1330750Y969917D01*
Y968251D01*
X1329917Y967418D01*
X1330750Y962419D02*
Y965752D01*
X1327418Y962419D01*
X1326585D01*
X1325752Y963252D01*
Y964919D01*
X1326585Y965752D01*
X1325752Y957421D02*
Y960753D01*
X1328251D01*
X1327418Y959087D01*
Y958254D01*
X1328251Y957421D01*
X1329917D01*
X1330750Y958254D01*
Y959920D01*
X1329917Y960753D01*
X1345250Y895750D02*
Y890752D01*
X1347749D01*
X1348582Y891585D01*
Y893251D01*
X1347749Y894084D01*
X1345250D01*
X1346916D02*
X1348582Y895750D01*
X1353581Y891585D02*
X1352747Y890752D01*
X1351081D01*
X1350248Y891585D01*
Y892418D01*
X1351081Y893251D01*
X1352747D01*
X1353581Y894084D01*
Y894917D01*
X1352747Y895750D01*
X1351081D01*
X1350248Y894917D01*
X1357746Y895750D02*
X1356080D01*
X1355247Y894917D01*
Y893251D01*
X1356080Y892418D01*
X1357746D01*
X1358579Y893251D01*
Y894084D01*
X1355247D01*
X1360245Y895750D02*
Y892418D01*
X1362744D01*
X1363577Y893251D01*
Y895750D01*
X1365243D02*
X1367743D01*
X1368576Y894917D01*
X1367743Y894084D01*
X1366077D01*
X1365243Y893251D01*
X1366077Y892418D01*
X1368576D01*
X1372741Y895750D02*
X1371075D01*
X1370242Y894917D01*
Y893251D01*
X1371075Y892418D01*
X1372741D01*
X1373574Y893251D01*
Y894084D01*
X1370242D01*
X1153254Y1000943D02*
X1153254Y1002121D01*
X1154432Y1003299D01*
X1155610Y1003299D01*
X1157967Y1000943D01*
Y999765D01*
X1156788Y998587D01*
X1155610D01*
X1152665Y994463D02*
X1155021Y996820D01*
X1150309D01*
X1149720Y997409D01*
Y998587D01*
X1150898Y999765D01*
X1152076Y999765D01*
X1149131Y990929D02*
X1151487Y993285D01*
X1146774D01*
X1146185Y993874D01*
Y995052D01*
X1147363Y996230D01*
X1148541D01*
X1156563Y970926D02*
X1156563Y969748D01*
X1155385Y968569D01*
X1154207Y968569D01*
X1151851Y970926D01*
Y972104D01*
X1153029Y973282D01*
X1154207D01*
X1157152Y977405D02*
X1154796Y975049D01*
X1159509D01*
X1160098Y974460D01*
Y973282D01*
X1158920Y972104D01*
X1157741Y972104D01*
X1158330Y978584D02*
X1159509Y979762D01*
X1158920Y979173D01*
X1162454Y975638D01*
X1161276D01*
X923422Y1109782D02*
X921756D01*
X922589D01*
Y1113947D01*
X921756Y1114780D01*
X920923D01*
X920090Y1113947D01*
X925088Y1115613D02*
X928421D01*
X930087Y1109782D02*
Y1113114D01*
X931753Y1114780D01*
X933419Y1113114D01*
Y1109782D01*
X937584Y1114780D02*
Y1109782D01*
X935085Y1112281D01*
X938417D01*
X920090Y1063120D02*
Y1058122D01*
X922589D01*
X923422Y1058955D01*
Y1060621D01*
X922589Y1061454D01*
X920090D01*
X921756D02*
X923422Y1063120D01*
X925088D02*
X926755D01*
X925921D01*
Y1058122D01*
X925088Y1058955D01*
X929254D02*
X930087Y1058122D01*
X931753D01*
X932586Y1058955D01*
Y1059788D01*
X931753Y1060621D01*
X932586Y1061454D01*
Y1062287D01*
X931753Y1063120D01*
X930087D01*
X929254Y1062287D01*
Y1061454D01*
X930087Y1060621D01*
X929254Y1059788D01*
Y1058955D01*
X930087Y1060621D02*
X931753D01*
X867380Y1089090D02*
X872378D01*
Y1091589D01*
X871545Y1092422D01*
X869879D01*
X869046Y1091589D01*
Y1089090D01*
Y1090756D02*
X867380Y1092422D01*
Y1094088D02*
Y1095754D01*
Y1094921D01*
X872378D01*
X871545Y1094088D01*
X872378Y1101586D02*
Y1098254D01*
X869879D01*
X870712Y1099920D01*
Y1100753D01*
X869879Y1101586D01*
X868213D01*
X867380Y1100753D01*
Y1099087D01*
X868213Y1098254D01*
X844380Y1089292D02*
X849378D01*
Y1091791D01*
X848545Y1092624D01*
X846879D01*
X846046Y1091791D01*
Y1089292D01*
Y1090958D02*
X844380Y1092624D01*
Y1094290D02*
Y1095956D01*
Y1095123D01*
X849378D01*
X848545Y1094290D01*
X844380Y1100955D02*
X849378D01*
X846879Y1098456D01*
Y1101788D01*
X1351765Y948532D02*
X1352598Y947699D01*
Y946033D01*
X1351765Y945200D01*
X1348433D01*
X1347600Y946033D01*
Y947699D01*
X1348433Y948532D01*
X1347600Y953531D02*
Y950198D01*
X1350932Y953531D01*
X1351765D01*
X1352598Y952698D01*
Y951031D01*
X1351765Y950198D01*
X1352598Y958529D02*
X1351765Y956863D01*
X1350099Y955197D01*
X1348433D01*
X1347600Y956030D01*
Y957696D01*
X1348433Y958529D01*
X1349266D01*
X1350099Y957696D01*
Y955197D01*
X1353582Y866585D02*
X1352749Y865752D01*
X1351083D01*
X1350250Y866585D01*
Y869917D01*
X1351083Y870750D01*
X1352749D01*
X1353582Y869917D01*
X1355248Y870750D02*
X1356915D01*
X1356081D01*
Y865752D01*
X1355248Y866585D01*
X1359414D02*
X1360247Y865752D01*
X1361913D01*
X1362746Y866585D01*
Y867418D01*
X1361913Y868251D01*
X1361080D01*
X1361913D01*
X1362746Y869084D01*
Y869917D01*
X1361913Y870750D01*
X1360247D01*
X1359414Y869917D01*
X1418415Y979582D02*
X1419248Y978749D01*
Y977083D01*
X1418415Y976250D01*
X1415083D01*
X1414250Y977083D01*
Y978749D01*
X1415083Y979582D01*
X1414250Y981248D02*
Y982915D01*
Y982081D01*
X1419248D01*
X1418415Y981248D01*
X1414250Y987913D02*
X1419248D01*
X1416749Y985414D01*
Y988746D01*
X799380Y1089013D02*
X804378D01*
Y1091512D01*
X803545Y1092345D01*
X801879D01*
X801046Y1091512D01*
Y1089013D01*
Y1090679D02*
X799380Y1092345D01*
Y1094011D02*
Y1095677D01*
Y1094844D01*
X804378D01*
X803545Y1094011D01*
X804378Y1101509D02*
X803545Y1099843D01*
X801879Y1098176D01*
X800213D01*
X799380Y1099009D01*
Y1100676D01*
X800213Y1101509D01*
X801046D01*
X801879Y1100676D01*
Y1098176D01*
X821880Y1089013D02*
X826878D01*
Y1091512D01*
X826045Y1092345D01*
X824379D01*
X823546Y1091512D01*
Y1089013D01*
Y1090679D02*
X821880Y1092345D01*
Y1094011D02*
Y1095677D01*
Y1094844D01*
X826878D01*
X826045Y1094011D01*
X826878Y1098176D02*
Y1101509D01*
X826045D01*
X822713Y1098176D01*
X821880D01*
D120*
X1131758Y990851D02*
X1139239Y998332D01*
Y1001324D01*
X1136246Y1004317D01*
X1133254Y1004317D01*
X1125773Y996836D01*
X1130262Y1007309D02*
Y1010302D01*
X1127269Y1013294D01*
X1124277Y1013294D01*
X1118292Y1007309D01*
X1118292Y1004317D01*
X1121284Y1001324D01*
X1124277D01*
X1125773Y1002821D01*
X1125773Y1005813D01*
X1121284Y1010302D01*
M02*
